<svg xmlns="http://www.w3.org/2000/svg" viewBox="0 0 16 16">
  <circle fill="currentColor" cx="8" cy="8" r="8" />
  <path fill="inherit"
    d="M10,9.83a.94.94,0,0,1-.17.31.82.82,0,0,1-.21.19,1.61,1.61,0,0,1-.91.28H7.18V8.39H8.8a1.31,1.31,0,0,1,1.08.51.91.91,0,0,1,.18.53,1.13,1.13,0,0,1-.07.39ZM7.18,5.31H8.45a1.22,1.22,0,0,1,1,.46.88.88,0,0,1,.17.5,1,1,0,0,1-.07.36.76.76,0,0,1-.15.28.86.86,0,0,1-.2.18,1.57,1.57,0,0,1-.84.26H7.18V5.31ZM10.6,7.67a1.73,1.73,0,0,0,.92-1.57c0-1.26-1.26-1.84-2-1.92H9.26V3H8v1.2H7.18V3H5.9V4.17H4.33V5.23h.44c.42,0,.61.27.61.45v4.64a.29.29,0,0,1-.28.29H4.62l-.24,1.2H5.91V13H7.18v-1.2H8V13H9.26V11.83h.09a2.44,2.44,0,0,0,2.71-2.2A2.17,2.17,0,0,0,10.6,7.67Z" />
</svg>
