<svg version="1.1" xmlns="http://www.w3.org/2000/svg" xmlns:xlink="http://www.w3.org/1999/xlink" x="0px" y="0px"
   viewBox="0 0 16 16" style="enable-background:new 0 0 16 16;" xml:space="preserve">
<path fill="currentColor" d="M14,14.5H2c-1.1,0-2-0.9-2-2v-9c0-1.1,0.9-2,2-2h12c1.1,0,2,0.9,2,2v9C16,13.6,15.1,14.5,14,14.5 M2,13.5h12
  c0.6,0,1-0.4,1-1v-7H1v7C1,13.1,1.4,13.5,2,13.5L2,13.5z M14,2.5H2c-0.6,0-1,0.4-1,1v1h14v-1C15,2.9,14.6,2.5,14,2.5 M2.5,8.5h5
  C7.8,8.5,8,8.7,8,9c0,0.3-0.2,0.5-0.5,0.5l-5,0C2.2,9.5,2,9.3,2,9C2,8.7,2.2,8.5,2.5,8.5 M2.5,10.5h4C6.8,10.5,7,10.7,7,11
  c0,0.3-0.2,0.5-0.5,0.5h-4C2.2,11.5,2,11.3,2,11C2,10.7,2.2,10.5,2.5,10.5 M9.5,8.5h1C10.8,8.5,11,8.7,11,9c0,0.3-0.2,0.5-0.5,0.5
  h-1C9.2,9.5,9,9.3,9,9C9,8.7,9.2,8.5,9.5,8.5"/>
</svg>
