
<svg version="1.1" xmlns="http://www.w3.org/2000/svg" xmlns:xlink="http://www.w3.org/1999/xlink" x="0px" y="0px"
	 viewBox="0 0 16 16" style="enable-background:new 0 0 16 16;" xml:space="preserve">
<g>
	<g transform="translate(-163.000000, -805.000000)">
		<g id="icon-queren" transform="translate(163.000000, 805.000000)">
			<path fill="currentColor" d="M8,1.3c-3.7,0-6.7,3-6.7,6.7c0,3.7,3,6.7,6.7,6.7c3.7,0,6.7-3,6.7-6.7C14.7,4.3,11.7,1.3,8,1.3z M8,16
				c-4.4,0-8-3.6-8-8s3.6-8,8-8c4.4,0,8,3.6,8,8C16,12.4,12.4,16,8,16z"/>
			<path fill="inherit" d="M6.8,11.6c-0.2,0-0.3-0.1-0.5-0.2L4.2,9.1c-0.3-0.3-0.3-0.7,0-1c0.3-0.3,0.7-0.3,0.9,0l1.7,1.8l4.1-4.3
				c0.3-0.3,0.7-0.3,0.9,0c0.3,0.3,0.3,0.7,0,1l-4.6,4.8C7.1,11.5,7,11.6,6.8,11.6"/>
		</g>
	</g>
</g>
</svg>
