<?xml version="1.0" encoding="utf-8"?>
<svg version="1.1" xmlns="http://www.w3.org/2000/svg" xmlns:xlink="http://www.w3.org/1999/xlink" x="0px" y="0px"
	 viewBox="0 0 16 16" style="enable-background:new 0 0 16 16;" xml:space="preserve">
<path fill="currentColor" d="M8,0C3.6,0,0,3.6,0,8c0,4.4,3.6,8,8,8s8-3.6,8-8C16,3.6,12.4,0,8,0z M14.5,8c0,1.5-0.5,2.9-1.4,4L4,2.9
	c1.1-0.9,2.5-1.4,4-1.4C11.6,1.5,14.5,4.4,14.5,8z M1.5,8c0-1.5,0.5-2.9,1.4-4l9.1,9.1c-1.1,0.9-2.5,1.4-4,1.4
	C4.4,14.5,1.5,11.6,1.5,8z"/>
</svg>
