<svg version="1.1" xmlns="http://www.w3.org/2000/svg" xmlns:xlink="http://www.w3.org/1999/xlink" x="0px" y="0px"
   viewBox="0 0 16 16" style="enable-background:new 0 0 16 16;" xml:space="preserve">
<g>
  <g transform="translate(-62.000000, -529.000000)">
    <g transform="translate(62.000000, 527.000000)">
      <g id="kaiji" transform="translate(0.000000, 2.000000)">
        <path fill="currentColor" d="M8,16c-4.1,0-7.5-3.1-8-7.2S2.4,1,6.4,0.2s8,1.6,9.2,5.5s-0.7,8.1-4.5,9.7C10.1,15.8,9.1,16,8,16z M8,0.9
          C4.1,0.9,0.9,4.1,0.9,8c0,3.9,3.2,7.1,7.1,7.1c3.9,0,7.1-3.2,7.1-7.1C15.1,4.1,11.9,0.9,8,0.9z"/>
        <path fill="currentColor" d="M8,8.5c-0.3,0-0.5-0.2-0.5-0.4V4c0-0.3,0.2-0.5,0.5-0.5S8.5,3.8,8.5,4v4c0,0.1-0.1,0.2-0.1,0.3
          C8.3,8.4,8.1,8.5,8,8.5L8,8.5z M10.8,4.7c1,0.8,1.6,2.1,1.7,3.4c-0.1,2.4-2.1,4.4-4.4,4.4s-4.4-1.9-4.4-4.4
          c0-1.3,0.6-2.6,1.7-3.4c0.1-0.1,0.2-0.1,0.3-0.1C5.8,4.5,6,4.7,6,5c0,0.1-0.1,0.2-0.1,0.3C5,5.9,4.4,7,4.4,8.1
          c0.1,2,1.6,3.5,3.6,3.5s3.5-1.5,3.6-3.5c0-1.1-0.5-2.1-1.4-2.8C10.1,5.2,10,5.1,10,5c0-0.2,0.2-0.4,0.4-0.4
          C10.6,4.5,10.7,4.6,10.8,4.7L10.8,4.7z"/>
      </g>
    </g>
  </g>
</g>
</svg>
