<svg version="1.1" xmlns="http://www.w3.org/2000/svg" xmlns:xlink="http://www.w3.org/1999/xlink" x="0px"
	y="0px" viewBox="0 0 16 16" style="enable-background:new 0 0 16 16;" xml:space="preserve">
	<path fill="currentColor" d="M16,11.4v3.1c0,0.3-0.1,0.5-0.3,0.7c-0.2,0.2-0.4,0.3-0.7,0.3H0.9c-0.3,0-0.5-0.1-0.7-0.3C0.1,14.9,0,14.7,0,14.5v-3.1
	c0-0.3,0.1-0.5,0.3-0.7c0.2-0.2,0.4-0.3,0.7-0.3h4.5l1.3,1.3c0.4,0.4,0.8,0.5,1.3,0.5s0.9-0.2,1.3-0.5l1.3-1.3h4.5
	c0.3,0,0.5,0.1,0.7,0.3C15.9,10.9,16,11.1,16,11.4z M12.9,5.9c0.1,0.3,0.1,0.5-0.1,0.7l-4.3,4.3C8.3,11,8.2,11.1,8,11.1
	c-0.2,0-0.3-0.1-0.4-0.2L3.3,6.6C3.1,6.4,3,6.2,3.1,5.9c0.1-0.2,0.3-0.4,0.6-0.4h2.5V1.2c0-0.2,0.1-0.3,0.2-0.4s0.3-0.2,0.4-0.2h2.5
	c0.2,0,0.3,0.1,0.4,0.2s0.2,0.3,0.2,0.4v4.3h2.5C12.6,5.5,12.8,5.7,12.9,5.9z M12.1,14c0.1-0.1,0.2-0.3,0.2-0.4
	c0-0.2-0.1-0.3-0.2-0.4c-0.1-0.1-0.3-0.2-0.4-0.2c-0.2,0-0.3,0.1-0.4,0.2s-0.2,0.3-0.2,0.4c0,0.2,0.1,0.3,0.2,0.4s0.3,0.2,0.4,0.2
	C11.9,14.2,12,14.1,12.1,14z M14.6,14c0.1-0.1,0.2-0.3,0.2-0.4c0-0.2-0.1-0.3-0.2-0.4c-0.1-0.1-0.3-0.2-0.4-0.2s-0.3,0.1-0.4,0.2
	c-0.1,0.1-0.2,0.3-0.2,0.4c0,0.2,0.1,0.3,0.2,0.4c0.1,0.1,0.3,0.2,0.4,0.2C14.3,14.2,14.5,14.1,14.6,14z" />
</svg>
