<svg xmlns="http://www.w3.org/2000/svg" xmlns:xlink="http://www.w3.org/1999/xlink" x="0px"
  y="0px" viewBox="0 0 16 16" style="enable-background:new 0 0 16 16;" xml:space="preserve">

  <circle fill="inherit" class="st0" cx="8" cy="8" r="8"  />
  <path
    fill="currentColor"
    d="M8,13.6L8,13.6c-0.6,0-1.1-0.5-1.1-1.1v0c0-0.6,0.5-1.1,1.1-1.1h0c0.6,0,1.1,0.5,1.1,1.1v0C9.1,13.1,8.6,13.6,8,13.6z" />
  <path fill="currentColor" d="M9.8,3.8C9.8,2.8,9,2,8,2S6.2,2.8,6.2,3.8c0,0.1,0,0.2,0,0.3l0,0l0.7,5.3c0,0.6,0.5,1.1,1.1,1.1s1.1-0.5,1.1-1.1l0.7-5.3h0
  C9.8,4.1,9.8,3.9,9.8,3.8z" />
</svg>
