<?xml version="1.0" encoding="utf-8"?>
<!-- Generator: Adobe Illustrator 24.1.0, SVG Export Plug-In . SVG Version: 6.00 Build 0)  -->
<svg version="1.1" id="图层_1" xmlns="http://www.w3.org/2000/svg" xmlns:xlink="http://www.w3.org/1999/xlink" x="0px" y="0px"
	 viewBox="0 0 16 16" style="enable-background:new 0 0 16 16;" xml:space="preserve">
<path d="M4.2,14.3c0.3,0,0.6,0.3,0.6,0.6s-0.3,0.6-0.6,0.6H1.9c-1,0-1.8-0.8-1.8-1.8V1.8C0.2,0.8,1,0,1.9,0h9.5c1,0,1.8,0.8,1.8,1.8
	V3c0,0.3-0.3,0.6-0.6,0.6S12.1,3.3,12.1,3V1.8c0-0.3-0.3-0.6-0.6-0.6H1.9c-0.3,0-0.6,0.3-0.6,0.6v11.9c0,0.3,0.3,0.6,0.6,0.6H4.2z
	 M3.1,3h6.6c0.3,0,0.6,0.3,0.6,0.6S10,4.2,9.7,4.2H3.1c-0.3,0-0.6-0.3-0.6-0.6S2.8,3,3.1,3z M3.1,6h1.2c0.3,0,0.6,0.3,0.6,0.6
	S4.7,7.2,4.3,7.2H3.1c-0.3,0-0.6-0.3-0.6-0.6S2.8,6,3.1,6z M6.4,10.7c0-2.3,1.8-4.1,4.1-4.1c2.3,0,4.1,1.8,4.1,4.1
	c0,0.9-0.3,1.7-0.8,2.4l1.8,1.8c0.2,0.2,0.2,0.7,0,0.9s-0.7,0.2-0.9,0L13,14c-0.7,0.5-1.5,0.8-2.4,0.8C8.3,14.8,6.4,13,6.4,10.7z
	 M10.5,13.5c1.6,0,2.9-1.3,2.9-2.9s-1.3-2.9-2.8-2.9s-2.9,1.3-2.9,2.9C7.7,12.3,9,13.5,10.5,13.5z"/>
</svg>
