<svg version="1.1" xmlns="http://www.w3.org/2000/svg" xmlns:xlink="http://www.w3.org/1999/xlink" x="0px" y="0px"
	 viewBox="0 0 16 16" style="enable-background:new 0 0 16 16;" xml:space="preserve">
<path fill="currentColor" d="M15.9,5.1c0,1.4-0.5,2.6-1.5,3.6c-1,0.9-2.1,1.4-3.3,1.5C9.9,10.3,8.7,10,7.7,9.2l-6.6,6.6C0.9,15.9,0.8,16,0.6,16
	s-0.3-0.1-0.4-0.2C0,15.6,0,15.5,0,15.3C0,15.2,0,15,0.2,14.9l6.6-6.6C6,7.2,5.6,6.1,5.7,4.8s0.6-2.4,1.5-3.3c1-1,2.3-1.5,3.6-1.5
	s2.6,0.5,3.6,1.5C15.4,2.6,15.9,3.8,15.9,5.1z M4.7,14.8c0.1,0.1,0.2,0.3,0.2,0.5c0,0.2-0.1,0.3-0.2,0.4c-0.1,0.1-0.3,0.2-0.5,0.2
	c-0.2,0-0.3-0.1-0.5-0.2l-1.4-1.3l0.9-0.9L4.7,14.8L4.7,14.8z M5,11.7l1.4,1.3c0.1,0.1,0.2,0.3,0.2,0.5S6.5,13.9,6.4,14
	c-0.1,0.1-0.3,0.2-0.5,0.2c-0.2,0-0.3-0.1-0.5-0.2l-1.3-1.4C4.1,12.6,5,11.7,5,11.7L5,11.7z M13.5,2.4c-0.8-0.7-1.7-1.1-2.7-1.1
	S8.9,1.6,8.1,2.4C7.3,3.2,6.9,4.1,6.9,5.1s0.4,1.9,1.1,2.7C8.8,8.6,9.8,9,10.8,9s1.9-0.4,2.7-1.1c0.7-0.8,1.1-1.7,1.1-2.7
	C14.6,4.1,14.3,3.2,13.5,2.4z"/>
</svg>
