<svg xmlns="http://www.w3.org/2000/svg" viewBox="0 0 16 16">
  <path
    fill="currentColor"
    d="M11.32,12.49a2,2,0,0,1,3.9,0h0a.78.78,0,0,1,.78.78v2a.76.76,0,0,1-.76.76H11.3a.76.76,0,0,1-.76-.76v-2a.78.78,0,0,1,.78-.78Zm1.17,0h1.56a.78.78,0,1,0-1.56,0ZM14.38,8.7a6.05,6.05,0,0,0,.06-1A6.81,6.81,0,0,0,8,1.17,6.65,6.65,0,0,0,1.17,8a6.81,6.81,0,0,0,6.48,6.41,6.05,6.05,0,0,0,1-.06.59.59,0,0,1,.67.58h0a.59.59,0,0,1-.51.58,8.24,8.24,0,0,1-1.22.07,7.81,7.81,0,1,1,8-8,8.24,8.24,0,0,1-.07,1.22.59.59,0,0,1-.58.51h0A.59.59,0,0,1,14.38,8.7ZM11.71,14v.43a.36.36,0,0,0,.37.37h2.38a.36.36,0,0,0,.37-.37V14a.36.36,0,0,0-.37-.37H12.08A.36.36,0,0,0,11.71,14ZM8.42,5.11l2.09,2.08a.89.89,0,0,1,0,1.23L8.42,10.51a.89.89,0,0,1-1.23,0L5.11,8.42a.87.87,0,0,1,0-1.23L7.19,5.11A.87.87,0,0,1,8.42,5.11ZM6.36,8,7.6,9.25a.28.28,0,0,0,.41,0L9.25,8a.28.28,0,0,0,0-.41L8,6.36a.28.28,0,0,0-.41,0L6.36,7.6A.28.28,0,0,0,6.36,8Z" />
  </svg>
