<svg xmlns="http://www.w3.org/2000/svg" viewBox="0 0 16 16">
  <path
    fill="currentColor"
    d="M15.58,3.44l-3-3a1.4,1.4,0,0,0-1-.41,1.42,1.42,0,0,0-1,.41l-.13.13a1.39,1.39,0,0,0,0,2L10.9,3,6,7.92,4.3,6.25a.63.63,0,0,0-.46-.19.61.61,0,0,0-.45.19L1.32,8.32a4.48,4.48,0,0,0,6.34,6.34l2.07-2.07a.65.65,0,0,0,0-.91L8.07,10,13,5.09l.47.46a1.4,1.4,0,0,0,2,0l.13-.13A1.39,1.39,0,0,0,15.58,3.44Zm-3.43.8L6.38,10l.52.52h0l.12.12.2.2h0l1.27,1.27L6.81,13.81A3.29,3.29,0,0,1,2.16,9.16L3.84,7.48,5.13,8.76l-1.3,1.3h0l0,0h0a.65.65,0,0,0-.16.4.62.62,0,0,0,.62.62.65.65,0,0,0,.4-.16h0l7.08-7.14h0l.41.41Zm2.59.34-.13.13a.21.21,0,0,1-.15.06.19.19,0,0,1-.14-.06l-3-3a.21.21,0,0,1-.06-.15.19.19,0,0,1,.06-.14l.13-.13a.19.19,0,0,1,.14-.06.21.21,0,0,1,.15.06l3,3a.19.19,0,0,1,.06.14A.21.21,0,0,1,14.74,4.58Z" />
</svg>
