<svg version="1.1"  xmlns="http://www.w3.org/2000/svg" xmlns:xlink="http://www.w3.org/1999/xlink" x="0px"
  y="0px" viewBox="0 0 16 16" style="enable-background:new 0 0 16 16;" xml:space="preserve">

  <path fill="currentColor" d="M0,7.5h7.5l0-7.5H0V7.5z M1.9,1.9h3.8v3.8l-3.8,0V1.9z M8.5,0v7.5H16V0H8.5z M14.1,5.6h-3.8V1.9h3.8L14.1,5.6z
   M2.8,4.7h1.9V2.8H2.8V4.7z M0,16h7.5l0-7.5H0V16z M1.9,10.4h3.8v3.8l-3.8,0V10.4z M13.2,2.8h-1.9v1.9h1.9L13.2,2.8L13.2,2.8z
   M8.5,16h1.9v-1.9H8.5V16z M10.4,10.4v3.8h1.9l0-3.8H10.4z M14.1,14.1h-1.9V16H16l0-3.8h-1.9V14.1z M14.1,10.4H16V8.5h-1.9V10.4z
   M8.5,8.5v1.9h1.9V8.5H8.5z M2.8,13.2h1.9v-1.9H2.8V13.2z" />
</svg>
