<svg version="1.1" xmlns="http://www.w3.org/2000/svg" xmlns:xlink="http://www.w3.org/1999/xlink" x="0px" y="0px"
   viewBox="0 0 16 16" style="enable-background:new 0 0 16 16;" xml:space="preserve">

<path fill="inherit" d="M8,0L8,0C3.6,0,0,3.5,0,7.9c0,0,0,0,0,0V8c0,4.5,3.7,8,8,8c4.5,0,8-3.7,8-8S12.5,0,8,0z"/>
<g>
  <path fill="currentColor" class="st0" d="M9.7,7.4L9.7,7.4C9.7,7.4,9.7,7.4,9.7,7.4c0.8-0.7,1.4-1.3,1.4-2.3c0-1.7-1.4-3.1-3.1-3.1
    c-1.7,0-3.1,1.4-3.1,3.1v0c0,0,0,0,0,0c0,0.4,0.4,0.8,0.8,0.8c0.5,0,0.8-0.5,0.8-0.8v0c0-0.8,0.7-1.5,1.5-1.5
    c0.8,0,1.5,0.7,1.5,1.5c0,0.2-0.2,0.6-0.8,1.3C7.9,7.1,7.2,7.8,7.2,8.8v0.9c0,0.4,0.4,0.8,0.8,0.8c0.4,0,0.8-0.4,0.8-0.8V8.8
    C8.8,8.5,9.4,7.9,9.7,7.4C9.7,7.4,9.7,7.4,9.7,7.4z"/>
  <path fill="currentColor" class="st0" d="M9.1,12.8c0-0.7-0.5-1.1-1.1-1.1c-0.7,0-1.1,0.5-1.1,1.1c0,0.7,0.5,1.1,1.1,1.1C8.7,13.9,9.1,13.5,9.1,12.8z"
    />
</g>
</svg>
