<svg version="1.1" xmlns="http://www.w3.org/2000/svg" xmlns:xlink="http://www.w3.org/1999/xlink" x="0px"
	y="0px" viewBox="0 0 16 16" style="enable-background:new 0 0 16 16;" xml:space="preserve">
	<g>
		<g transform="translate(-65.000000, -544.000000)">
			<g transform="translate(65.000000, 542.000000)">
				<g id="icon-zhuanrangsuanli" transform="translate(0.000000, 2.000000)">
					<g>
						<path d="M3.9,11.3h3.2c0.2,0,0.4,0.2,0.4,0.4s-0.2,0.4-0.4,0.4H3.5c-0.4,0-0.7-0.3-0.7-0.7V3.4
						c0-0.4,0.3-0.7,0.7-0.7h6.9c0.4,0,0.7,0.3,0.7,0.7v3.1c0,0.2-0.2,0.4-0.4,0.4s-0.4-0.2-0.4-0.4V3.8c0-0.2-0.1-0.3-0.3-0.3h-6
						c-0.2,0-0.3,0.1-0.3,0.3v7.2C3.7,11.2,3.8,11.3,3.9,11.3L3.9,11.3z M13.3,6.8c-0.3,0-0.6-0.3-0.6-0.6V1.6
						c0-0.2-0.2-0.4-0.4-0.4H1.6c-0.2,0-0.4,0.2-0.4,0.4v11.9c0,0.2,0.2,0.4,0.4,0.4H7c0.3,0,0.6,0.3,0.6,0.6c0,0.3-0.3,0.6-0.6,0.6
						H1c-0.6,0-1-0.4-1-1V1c0-0.6,0.4-1,1-1h11.9c0.6,0,1,0.4,1,1v5.2C13.9,6.6,13.6,6.8,13.3,6.8z" />
					</g>
					<g id="zhuanrang" transform="translate(9.500000, 10.000000)">
						<path d="M6,1.8h-6.1c-0.3,0-0.5-0.2-0.5-0.5s0.2-0.5,0.5-0.5h5L3.8-0.3C3.6-0.5,3.6-0.8,3.8-1
						C3.9-1.1,4-1.1,4.1-1.1S4.4-1.1,4.5-1l1.8,1.8c0,0,0,0,0,0C6.4,1,6.5,1.1,6.5,1.3c0,0.1,0,0.3-0.1,0.3C6.3,1.7,6.1,1.8,6,1.8
						L6,1.8z M-0.1,3.1H6c0.3,0,0.5,0.2,0.5,0.5S6.3,4,6,4H1l1.1,1.1c0.2,0.2,0.2,0.5,0,0.7C2,5.9,1.9,6,1.8,6
						C1.6,6,1.5,5.9,1.4,5.9L-0.4,4c0,0,0,0,0-0.1c-0.1-0.1-0.2-0.3-0.1-0.5C-0.5,3.2-0.3,3.1-0.1,3.1L-0.1,3.1z" />
					</g>
				</g>
			</g>
		</g>
	</g>
</svg>
