<svg version="1.1" xmlns="http://www.w3.org/2000/svg" xmlns:xlink="http://www.w3.org/1999/xlink" x="0px" y="0px"
  viewBox="0 0 16 16" style="enable-background:new 0 0 16 16;" xml:space="preserve">
  <path fill="currentColor" d="M1.1,10.2C0.5,10.2,0,9.7,0,9.1c0,0,0,0,0,0l0,0V1.8C0,0.8,0.9,0,1.9,0h4.2c0.6,0,1.1,0.5,1.1,1.1c0,0,0,0,0,0l0,0V9
  c0,0.6-0.5,1.1-1.1,1.1c0,0,0,0,0,0C6.1,10.2,1.1,10.2,1.1,10.2z M14.8,7.3h-5c-0.6,0-1.1-0.5-1.1-1.1c0,0,0,0,0,0v-5
  C8.7,0.5,9.2,0,9.8,0H14c1.1,0,1.9,0.9,1.9,1.9c0,0,0,0,0,0l0,0v4.2C16,6.8,15.5,7.3,14.8,7.3C14.8,7.3,14.8,7.3,14.8,7.3L14.8,7.3
   M1.9,16c-1,0-1.9-0.8-1.9-1.9l0,0v-1.3c0-0.6,0.5-1.1,1.1-1.1h5c0.6,0,1.1,0.5,1.1,1.1v2.1c0,0.6-0.5,1.1-1.1,1.1
  C6.1,16,1.9,16,1.9,16z M14,16H9.8c-0.6,0-1.1-0.5-1.1-1.1v-5c0-0.6,0.5-1.1,1.1-1.1c0,0,0,0,0,0h5c0.6,0,1.1,0.5,1.1,1.1
  c0,0,0,0,0,0v4.2C16,15.1,15.1,16,14,16L14,16" />
</svg>
