<?xml version="1.0" encoding="utf-8"?>
<svg version="1.1" xmlns="http://www.w3.org/2000/svg" xmlns:xlink="http://www.w3.org/1999/xlink" x="0px"
	y="0px" viewBox="0 0 16 16" style="enable-background:new 0 0 16 16;" xml:space="preserve">
	<g>
		<path fill="currentColor" d="M15.4,2.6h-3.8V1.8c0-1-0.8-1.8-1.8-1.8H6.2c-1,0-1.8,0.8-1.8,1.8v0.8H0.6c-0.3,0-0.5,0.2-0.5,0.5c0,0.3,0.2,0.5,0.5,0.5
		h1.5v10.9c0,0.8,0.7,1.5,1.5,1.5h8.8c0.8,0,1.5-0.7,1.5-1.5V3.6h1.5c0.3,0,0.5-0.2,0.5-0.5C15.8,2.8,15.6,2.6,15.4,2.6z M5.4,1.8
		C5.4,1.3,5.8,1,6.2,1h3.6c0.4,0,0.8,0.4,0.8,0.8v0.8H5.4V1.8z M12.9,14.5c0,0.3-0.2,0.5-0.5,0.5H3.6c-0.3,0-0.5-0.2-0.5-0.5V3.6
		h9.8V14.5z" />
		<path fill="currentColor"
			d="M5.2,14c0.3,0,0.5-0.2,0.5-0.5V5.1c0-0.3-0.2-0.5-0.5-0.5C5,4.6,4.7,4.8,4.7,5.1v8.5C4.7,13.8,4.9,14,5.2,14z" />
		<path fill="currentColor"
			d="M8.2,14c0.3,0,0.5-0.2,0.5-0.5V5.1c0-0.3-0.2-0.5-0.5-0.5c-0.3,0-0.5,0.2-0.5,0.5v8.5C7.7,13.8,7.9,14,8.2,14z" />
		<path fill="currentColor"
			d="M10.8,14c0.3,0,0.5-0.2,0.5-0.5V5.1c0-0.3-0.2-0.5-0.5-0.5c-0.3,0-0.5,0.2-0.5,0.5v8.5C10.3,13.8,10.5,14,10.8,14z" />
	</g>
</svg>
