<svg version="1.1" xmlns="http://www.w3.org/2000/svg" xmlns:xlink="http://www.w3.org/1999/xlink" x="0px"
  y="0px" viewBox="0 0 16 16" xml:space="preserve">
  <path
    fill="currentColor"
    d="M6,7.2c1.5,0,2.8-1.2,2.8-2.7c0,0,0,0,0,0l0,0V3.6C8.8,2,7.5,0.8,6,0.8S3.2,2,3.2,3.6c0,0,0,0,0,0v0.9C3.2,6,4.5,7.2,6,7.2
  C6,7.2,6,7.2,6,7.2L6,7.2z M10.6,9.7c-2.9-1.2-6.2-1.2-9.1,0C0.5,10.1,0,11,0,12v1.1c0,0.7,0.5,1.4,1.1,1.6C2.7,15,4.4,15.2,6,15.2
  c1.6,0,3.3-0.2,4.8-0.6c0.7-0.2,1.1-0.9,1.1-1.6v-1.1C12,11,11.5,10.1,10.6,9.7z M14,5.2v-2h-1.2v2h-2v1.1h2v2H14v-2h2V5.3L14,5.2z" />
</svg>
