<svg width="26" height="18" viewBox="0 0 26 18" fill="none" xmlns="http://www.w3.org/2000/svg">
<rect width="25.2537" height="18" rx="2" fill="white"/>
<mask id="mask0_9683_12550" style="mask-type:alpha" maskUnits="userSpaceOnUse" x="0" y="0" width="26" height="18">
<rect width="25.2537" height="18" rx="2" fill="white"/>
</mask>
<g mask="url(#mask0_9683_12550)">
<rect width="25.2537" height="18" fill="#128C4B"/>
<path fill-rule="evenodd" clip-rule="evenodd" d="M6.01367 10.8001H15.6341V10.0778C15.6341 9.58246 16.1552 9.26012 16.5984 9.48126L16.8367 9.60014V10.8001H18.5752C18.9433 10.8001 19.2418 11.0986 19.2418 11.4668V11.8668C19.2418 12.6032 18.6449 13.2001 17.9085 13.2001H16.3008C15.9326 13.2001 15.6341 12.9017 15.6341 12.5335V12.0001H7.49196C7.31539 12.0001 7.14604 11.9301 7.02105 11.8054L6.01367 10.8001Z" fill="white"/>
<path fill-rule="evenodd" clip-rule="evenodd" d="M6.01367 7.33843C6.01367 7.2499 6.04889 7.16501 6.11155 7.10247L6.3785 6.8361C6.509 6.70587 6.509 6.49443 6.37849 6.36419L6.11155 6.09782C6.04889 6.03529 6.01367 5.9504 6.01367 5.86187V5.13348C6.01367 4.94939 6.16291 4.80015 6.34701 4.80015H6.9867C7.11347 4.80015 7.21623 4.90291 7.21623 5.02968C7.21623 5.27178 7.54252 5.34896 7.65098 5.13251L7.74089 4.95306C7.78785 4.85933 7.88371 4.80015 7.98854 4.80015H9.32135C9.48703 4.80015 9.62135 4.93446 9.62135 5.10015C9.62135 5.26583 9.48703 5.40015 9.32135 5.40015H8.71879C8.5531 5.40015 8.41879 5.53446 8.41879 5.70015C8.41879 5.86583 8.5531 6.00015 8.71879 6.00015H9.28801C9.47211 6.00015 9.62135 6.14939 9.62135 6.33348V8.06681C9.62135 8.25091 9.47211 8.40015 9.28801 8.40015H8.75212C8.56803 8.40015 8.41879 8.25091 8.41879 8.06681V7.50079C8.41879 7.33475 8.55371 7.20015 8.71975 7.20015C8.88543 7.20015 9.02007 7.06583 9.02007 6.90015C9.02007 6.73446 8.88575 6.60015 8.72007 6.60015H8.15084C7.96675 6.60015 7.81751 6.74939 7.81751 6.93348V8.09951C7.81751 8.26555 7.68291 8.40015 7.51687 8.40015C7.35083 8.40015 7.21623 8.26555 7.21623 8.09951V7.50079C7.21623 7.33475 7.08163 7.20015 6.91559 7.20015C6.74955 7.20015 6.61495 7.33475 6.61495 7.50079V8.09951C6.61495 8.26555 6.48035 8.40015 6.31431 8.40015C6.14827 8.40015 6.01367 8.26555 6.01367 8.09951V7.33843Z" fill="white"/>
<path fill-rule="evenodd" clip-rule="evenodd" d="M15.6328 7.33843C15.6328 7.2499 15.668 7.16501 15.7307 7.10247L15.9976 6.8361C16.1281 6.70587 16.1281 6.49443 15.9976 6.36419L15.7307 6.09782C15.668 6.03529 15.6328 5.9504 15.6328 5.86187V5.13348C15.6328 4.94939 15.7821 4.80015 15.9661 4.80015H16.6058C16.7326 4.80015 16.8354 4.90291 16.8354 5.02968C16.8354 5.27178 17.1617 5.34896 17.2701 5.13251L17.36 4.95306C17.407 4.85933 17.5028 4.80015 17.6077 4.80015H18.9405C19.1062 4.80015 19.2405 4.93446 19.2405 5.10015C19.2405 5.26583 19.1062 5.40015 18.9405 5.40015H18.3379C18.1722 5.40015 18.0379 5.53446 18.0379 5.70015C18.0379 5.86583 18.1722 6.00015 18.3379 6.00015H18.9072C19.0913 6.00015 19.2405 6.14939 19.2405 6.33348V8.06681C19.2405 8.25091 19.0913 8.40015 18.9072 8.40015H18.3713C18.1872 8.40015 18.0379 8.25091 18.0379 8.06681V7.50079C18.0379 7.33475 18.1729 7.20015 18.3389 7.20015C18.5046 7.20015 18.6392 7.06583 18.6392 6.90015C18.6392 6.73446 18.5049 6.60015 18.3392 6.60015H17.77C17.5859 6.60015 17.4367 6.74939 17.4367 6.93348V8.09951C17.4367 8.26555 17.302 8.40015 17.136 8.40015C16.97 8.40015 16.8354 8.26555 16.8354 8.09951V7.50079C16.8354 7.33475 16.7008 7.20015 16.5347 7.20015C16.3687 7.20015 16.2341 7.33475 16.2341 7.50079V8.09951C16.2341 8.26555 16.0995 8.40015 15.9335 8.40015C15.7674 8.40015 15.6328 8.26555 15.6328 8.09951V7.33843Z" fill="white"/>
<path fill-rule="evenodd" clip-rule="evenodd" d="M14.4299 5.69734C14.4299 5.86458 14.336 6.0939 14.2129 6.21676L14.0457 6.38353C13.9259 6.50317 13.9226 6.6939 14.0457 6.81676L14.2129 6.98353C14.3328 7.10317 14.4299 7.32857 14.4299 7.50296V8.09734C14.4299 8.26458 14.3012 8.40015 14.1265 8.40015H13.5308C13.3632 8.40015 13.2274 8.27173 13.2274 8.09734V7.50296C13.2274 7.33572 13.1719 7.31089 13.0879 7.47847L12.7656 8.12183C12.6885 8.27554 12.4846 8.40015 12.3282 8.40015H11.1201C10.9556 8.40015 10.8223 8.26099 10.8223 8.10015C10.8223 7.93446 10.951 7.80015 11.1257 7.80015H11.7214C11.889 7.80015 12.0248 7.66099 12.0248 7.50015C12.0248 7.33446 11.8961 7.20015 11.7214 7.20015H11.1257C10.9581 7.20015 10.8223 7.07111 10.8223 6.90586V5.09444C10.8223 4.9319 10.951 4.80015 11.1257 4.80015H11.7214C11.889 4.80015 12.0248 4.92857 12.0248 5.10296V5.69734C12.0248 5.86458 11.8854 6.00015 11.7242 6.00015C11.5581 6.00015 11.4235 6.13931 11.4235 6.30015C11.4235 6.46583 11.5522 6.60015 11.727 6.60015H12.3226C12.4902 6.60015 12.6261 6.4589 12.6261 6.30291V5.09738C12.6261 4.93322 12.7656 4.80015 12.9267 4.80015C13.0928 4.80015 13.2274 4.92857 13.2274 5.10296V5.69734C13.2274 5.86458 13.3668 6.00015 13.528 6.00015C13.6941 6.00015 13.8287 5.87173 13.8287 5.69734V5.10296C13.8287 4.93572 13.9681 4.80015 14.1293 4.80015C14.2953 4.80015 14.4299 4.92857 14.4299 5.10296V5.69734Z" fill="white"/>
</g>
</svg>
