<svg width="26" height="18" viewBox="0 0 26 18" fill="none" xmlns="http://www.w3.org/2000/svg">
<rect x="0.5" width="25.2537" height="18" rx="2" fill="white"/>
<mask id="mask0_9683_12254" style="mask-type:alpha" maskUnits="userSpaceOnUse" x="0" y="0" width="26" height="18">
<rect x="0.5" width="25.2537" height="18" rx="2" fill="white"/>
</mask>
<g mask="url(#mask0_9683_12254)">
<rect x="0.5" width="25.2537" height="18" fill="#F1361D"/>
<path fill-rule="evenodd" clip-rule="evenodd" d="M9.58496 2.79068L10.4584 2.93928L11.1135 3.53463L11.2624 2.66303L11.859 2.00932L10.9856 1.86073L10.3305 1.26538L10.1816 2.13698L9.58496 2.79068ZM11.9245 5.83888L12.6814 5.3792L13.5672 5.39965L13.1066 4.64435L13.1271 3.76042L12.3702 4.22009L11.4843 4.19965L11.945 4.95494L11.9245 5.83888ZM10.8978 10.7735L10.1574 11.2592L10.147 10.3751L9.66019 9.63633L10.5462 9.62591L11.2866 9.14015L11.297 10.0243L11.7838 10.7631L10.8978 10.7735ZM11.5408 8.4883L12.4214 8.39089L13.2156 8.78299L13.118 7.90419L13.5109 7.11171L12.6302 7.20912L11.8361 6.81702L11.9337 7.69582L11.5408 8.4883Z" fill="#FFDC42"/>
<path fill-rule="evenodd" clip-rule="evenodd" d="M6.51295 7.40384L4.39241 8.9123L5.17482 6.4337L3.08185 4.88738L5.68594 4.86398L6.51295 2.39984L7.33996 4.86398L9.94405 4.88738L7.85108 6.4337L8.63349 8.9123L6.51295 7.40384Z" fill="#FFDC42"/>
</g>
</svg>
