<svg width="25" height="18" viewBox="0 0 25 18" fill="none" xmlns="http://www.w3.org/2000/svg">
  <rect width="25" height="18" rx="2" fill="white" />
  <mask id="mask0_9973_11855" style="mask-type:alpha" maskUnits="userSpaceOnUse" x="0" y="0" width="25" height="18">
    <rect width="25" height="18" rx="2" fill="white" />
  </mask>
  <g mask="url(#mask0_9973_11855)">
    <path fill-rule="evenodd" clip-rule="evenodd" d="M0 18H25V0H0V18Z" fill="#F0371D" />
    <path fill-rule="evenodd" clip-rule="evenodd"
      d="M12.4863 7.33123C13.346 6.60594 13.3982 6.44374 13.6042 5.80474C13.673 5.59146 13.6245 5.41628 13.5672 5.2094C13.4846 4.91109 13.3838 4.54687 13.5899 3.90743C12.652 3.60023 11.5622 4.37312 11.1559 5.63373C10.7495 6.89434 11.1805 8.1653 12.1184 8.4725C12.2863 8.5275 12.2675 8.48773 12.2165 8.38007C12.1271 8.19116 11.9387 7.79322 12.4863 7.33123ZM10.706 8.65593C10.2873 7.60768 10.1504 7.50743 9.6112 7.11251C9.43121 6.98069 9.25094 6.97304 9.03805 6.96401C8.73108 6.95099 8.35627 6.9351 7.81665 6.5399C7.23697 7.34416 7.62944 8.62772 8.69327 9.40682C9.7571 10.1859 11.0894 10.1655 11.6691 9.36127C11.7729 9.2173 11.7296 9.22306 11.6122 9.23865C11.4064 9.266 10.9727 9.32363 10.706 8.65593ZM16.0719 9.22862C15.4054 9.22862 15.2362 9.22862 14.2862 8.62862C13.6811 8.24645 13.3639 8.55002 13.2133 8.69412C13.1274 8.77626 13.0957 8.80659 13.0957 8.62862C13.0957 7.63451 14.1617 6.82862 15.4767 6.82862C16.7916 6.82862 17.8576 7.63451 17.8576 8.62862C17.1906 8.62862 16.8781 8.83783 16.6222 9.00917C16.4447 9.128 16.2944 9.22862 16.0719 9.22862ZM16.0719 8.10017C16.0719 8.26585 15.9387 8.40017 15.7743 8.40017C15.6099 8.40017 15.4767 8.26585 15.4767 8.10017C15.4767 7.93448 15.6099 7.80017 15.7743 7.80017C15.9387 7.80017 16.0719 7.93448 16.0719 8.10017ZM13.6184 10.7551C13.3459 11.8512 13.3981 12.0134 13.6041 12.6524C13.6729 12.8657 13.8143 12.9787 13.9812 13.1121C14.222 13.3046 14.5159 13.5395 14.722 14.1789C15.66 13.8717 16.091 12.6008 15.6846 11.3402C15.2783 10.0795 14.1885 9.30665 13.2505 9.61385C13.0826 9.66884 13.121 9.68986 13.2251 9.74676C13.4076 9.84661 13.792 10.0569 13.6184 10.7551ZM14.6689 12.3035C14.5125 12.3547 14.3446 12.2685 14.2938 12.1109C14.2431 11.9533 14.3286 11.7841 14.4849 11.7329C14.6413 11.6817 14.8092 11.7679 14.86 11.9255C14.9107 12.0831 14.8252 12.2523 14.6689 12.3035ZM11.4057 10.772C10.2873 10.8495 10.1504 10.9497 9.61115 11.3447C9.43115 11.4765 9.36823 11.6469 9.29393 11.8482C9.18678 12.1385 9.05596 12.4929 8.51634 12.8881C9.09603 13.6923 10.4284 13.7127 11.4922 12.9336C12.556 12.1545 12.9485 10.871 12.3688 10.0667C12.265 9.92273 12.2571 9.96605 12.2355 10.0834C12.1977 10.2892 12.1181 10.7227 11.4057 10.772ZM10.2692 12.2577C10.1726 12.1237 10.2021 11.9361 10.3351 11.8387C10.468 11.7413 10.6542 11.771 10.7508 11.9051C10.8474 12.0391 10.8179 12.2267 10.6849 12.3241C10.5519 12.4215 10.3658 12.3918 10.2692 12.2577ZM8.95315 8.02534C9.04977 7.89129 9.23589 7.86158 9.36887 7.95897C9.50185 8.05635 9.53133 8.24397 9.43471 8.37801C9.3381 8.51205 9.15197 8.54177 9.019 8.44438C8.88602 8.34699 8.85654 8.15938 8.95315 8.02534ZM12.5395 5.45597C12.6958 5.50717 12.7814 5.67641 12.7306 5.83399C12.6798 5.99157 12.5119 6.0778 12.3556 6.0266C12.1992 5.9754 12.1137 5.80616 12.1645 5.64858C12.2153 5.491 12.3832 5.40477 12.5395 5.45597Z"
      fill="white" />
  </g>
</svg>
