<svg width="26" height="18" viewBox="0 0 26 18" fill="none" xmlns="http://www.w3.org/2000/svg">
<rect x="0.25" y="0.25" width="24.7537" height="17.5" rx="1.75" fill="white" stroke="#F5F5F5" stroke-width="0.5"/>
<mask id="mask0_9683_12492" style="mask-type:alpha" maskUnits="userSpaceOnUse" x="0" y="0" width="26" height="18">
<rect x="0.25" y="0.25" width="24.7537" height="17.5" rx="1.75" fill="white" stroke="white" stroke-width="0.5"/>
</mask>
<g mask="url(#mask0_9683_12492)">
<path fill-rule="evenodd" clip-rule="evenodd" d="M12.6269 13.2001C14.9515 13.2001 16.8359 11.3197 16.8359 9.00015C16.8359 6.68055 14.9515 4.80015 12.6269 4.80015C10.3024 4.80015 8.41797 6.68055 8.41797 9.00015C8.41797 11.3197 10.3024 13.2001 12.6269 13.2001Z" fill="#E01B41"/>
<mask id="mask1_9683_12492" style="mask-type:alpha" maskUnits="userSpaceOnUse" x="8" y="4" width="9" height="10">
<path fill-rule="evenodd" clip-rule="evenodd" d="M12.6269 13.2001C14.9515 13.2001 16.8359 11.3197 16.8359 9.00015C16.8359 6.68055 14.9515 4.80015 12.6269 4.80015C10.3024 4.80015 8.41797 6.68055 8.41797 9.00015C8.41797 11.3197 10.3024 13.2001 12.6269 13.2001Z" fill="white"/>
</mask>
<g mask="url(#mask1_9683_12492)">
<path fill-rule="evenodd" clip-rule="evenodd" d="M8.41728 9.60029C9.61984 10.7253 11.4237 11.4003 12.6262 9.60029C13.8288 7.80029 16.2339 7.80029 16.8352 9.60029C17.4365 11.4003 16.8352 13.2003 16.8352 13.2003H8.41728C8.41728 13.2003 7.21472 8.47529 8.41728 9.60029Z" fill="#0E4B9C"/>
</g>
<path opacity="0.75" fill-rule="evenodd" clip-rule="evenodd" d="M5.55191 3.22978C5.6441 3.07043 5.84815 3.01576 6.00767 3.10766L6.47146 3.37486C6.63097 3.46676 6.68555 3.67043 6.59335 3.82978L5.12338 6.37043C5.03119 6.52977 4.82714 6.58445 4.66762 6.49255L4.20383 6.22535C4.04432 6.13345 3.98974 5.92977 4.08194 5.77043L5.55191 3.22978ZM18.784 3.37515C18.6245 3.46705 18.57 3.67073 18.6622 3.83007L20.1321 6.37072C20.2243 6.53007 20.4284 6.58474 20.5879 6.49284L21.0517 6.22564C21.2112 6.13374 21.2658 5.93007 21.1736 5.77072L19.7036 3.23007C19.6114 3.07073 19.4074 3.01605 19.2478 3.10795L18.784 3.37515ZM17.2219 4.27515C17.0624 4.36705 17.0078 4.57073 17.1 4.73007L18.5699 7.27072C18.6621 7.43007 18.8662 7.48474 19.0257 7.39284L19.4895 7.12564C19.649 7.03374 19.7036 6.83007 19.6114 6.67072L18.1414 4.13007C18.0492 3.97073 17.8452 3.91605 17.6857 4.00795L17.2219 4.27515ZM4.08194 12.2298C3.98974 12.0704 4.04432 11.8668 4.20383 11.7749L4.66762 11.5077C4.82714 11.4158 5.03119 11.4704 5.12338 11.6298L6.59335 14.1704C6.68555 14.3298 6.63097 14.5335 6.47146 14.6253L6.00767 14.8925C5.84815 14.9844 5.6441 14.9298 5.55191 14.7704L4.08194 12.2298ZM5.76601 10.8749C5.60649 10.9668 5.55191 11.1704 5.64411 11.3298L7.11408 13.8704C7.20628 14.0298 7.41033 14.0844 7.56984 13.9925L8.03363 13.7253C8.19315 13.6334 8.24772 13.4298 8.15553 13.2704L6.68556 10.7298C6.59336 10.5704 6.38931 10.5158 6.22979 10.6077L5.76601 10.8749ZM18.5699 10.7299C18.6621 10.5706 18.8662 10.5159 19.0257 10.6078L19.4895 10.875C19.649 10.9669 19.7036 11.1706 19.6114 11.3299L18.1414 13.8706C18.0492 14.0299 17.8452 14.0846 17.6857 13.9927L17.2219 13.7255C17.0624 13.6336 17.0078 13.4299 17.1 13.2706L18.5699 10.7299ZM20.5879 11.5078C20.4284 11.4159 20.2243 11.4706 20.1321 11.6299L18.6622 14.1706C18.57 14.3299 18.6245 14.5336 18.784 14.6255L19.2478 14.8927C19.4074 14.9846 19.6114 14.9299 19.7036 14.7706L21.1736 12.2299C21.2658 12.0706 21.2112 11.8669 21.0517 11.775L20.5879 11.5078ZM7.56984 4.00766C7.41033 3.91576 7.20628 3.97043 7.11408 4.12978L5.64411 6.67043C5.55191 6.82977 5.60649 7.03345 5.766 7.12535L6.22979 7.39255C6.38931 7.48445 6.59336 7.42977 6.68556 7.27043L8.15553 4.72978C8.24772 4.57043 8.19315 4.36676 8.03363 4.27486L7.56984 4.00766Z" fill="#262626"/>
</g>
</svg>
