<svg width="26" height="18" viewBox="0 0 26 18" fill="none" xmlns="http://www.w3.org/2000/svg">
<rect width="25.2537" height="18" rx="2" fill="white"/>
<mask id="mask0_9683_12540" style="mask-type:alpha" maskUnits="userSpaceOnUse" x="0" y="0" width="26" height="18">
<rect width="25.2537" height="18" rx="2" fill="white"/>
</mask>
<g mask="url(#mask0_9683_12540)">
<rect width="25.2537" height="18" fill="#FF2936"/>
<path fill-rule="evenodd" clip-rule="evenodd" d="M0 18H9.62047V0H0V18Z" fill="#128415"/>
<path d="M9.62094 12.0668C11.3161 12.0668 12.6927 10.6952 12.6927 9.00015C12.6927 7.30514 11.3161 5.93348 9.62094 5.93348C7.92578 5.93348 6.54915 7.30514 6.54915 9.00015C6.54915 10.6952 7.92578 12.0668 9.62094 12.0668Z" stroke="#FAF94F" stroke-width="1.33333"/>
<path fill-rule="evenodd" clip-rule="evenodd" d="M8.41797 7.53333C8.41797 7.34924 8.56721 7.2 8.7513 7.2H10.4898C10.6738 7.2 10.8231 7.34924 10.8231 7.53333V9.59744C10.8231 10.2616 10.2847 10.8 9.62053 10.8C8.95637 10.8 8.41797 10.2616 8.41797 9.59744V7.53333Z" fill="white"/>
<path fill-rule="evenodd" clip-rule="evenodd" d="M9.62081 9.59985C9.95289 9.59985 10.2221 8.73122 10.2221 8.39985C10.2221 8.06848 9.95289 7.79985 9.62081 7.79985C9.28873 7.79985 9.01953 8.06848 9.01953 8.39985C9.01953 8.73122 9.28873 9.59985 9.62081 9.59985Z" fill="#1D50B5"/>
</g>
</svg>
