<svg version="1.1" xmlns="http://www.w3.org/2000/svg" xmlns:xlink="http://www.w3.org/1999/xlink" x="0px" y="0px"
  viewBox="0 0 16 16" style="enable-background:new 0 0 16 16;" xml:space="preserve">
  <path fill="currentColor"
    d="M15.7,5.4C15.7,5.4,15.7,5.4,15.7,5.4l-4-4.5c-0.2-0.2-0.5-0.4-0.7-0.4h0c-0.3,0-0.6,0.1-0.7,0.4C10.1,1.1,10,1.4,10,1.6
  v1.9H8.5C8.2,3.5,8,3.7,8,4s0.2,0.5,0.5,0.5h2C10.8,4.5,11,4.3,11,4V1.6c0,0,0-0.1,0-0.1L15,6c0,0.1,0,0.1,0,0.2L11,10.7
  c0,0,0-0.1,0-0.1V8c0-0.3-0.2-0.5-0.5-0.5H6V5.4c0-0.6-0.5-1.1-1-1.1c-0.3,0-0.6,0.1-0.7,0.3L0.3,9.2l0,0c-0.4,0.4-0.4,1.1,0,1.5
  l3.9,4.4c0.2,0.2,0.5,0.4,0.7,0.4h0c0.3,0,0.6-0.1,0.8-0.4C5.9,14.9,6,14.6,6,14.4v-1.9h1.5C7.8,12.5,8,12.3,8,12
  c0-0.3-0.2-0.5-0.5-0.5h-2C5.2,11.5,5,11.7,5,12v2.4c0,0,0,0.1,0,0.1L1,10c0,0,0-0.1,0-0.2L5,5.4c0,0,0,0.1,0,0.1V8
  c0,0.3,0.2,0.5,0.5,0.5H10v2.1c0,0.6,0.5,1.1,1,1.1c0.3,0,0.6-0.1,0.7-0.3l4-4.5l0,0C16.1,6.4,16.1,5.8,15.7,5.4L15.7,5.4z" />
</svg>
