<svg version="1.1" xmlns="http://www.w3.org/2000/svg" xmlns:xlink="http://www.w3.org/1999/xlink" x="0px"
	y="0px" viewBox="0 0 16 16" style="enable-background:new 0 0 16 16;" xml:space="preserve">
	<path fill="currentColor" d="M8,9.9c-2,0-3.7-0.6-3.7-1.7v1c0,1,1.7,1.9,3.7,1.9s3.7-0.8,3.7-1.9v-1C11.7,9.2,10,9.9,8,9.9z M8,11.7
	c-2,0-3.7-0.6-3.7-1.7v1c0,1,1.7,1.9,3.7,1.9s3.7-0.8,3.7-1.9v-1C11.7,11.1,10,11.7,8,11.7L8,11.7z M8,8C6,8,4.3,7.4,4.3,6.3v1
	c0,1,1.7,1.9,3.7,1.9s3.7-0.8,3.7-1.9v-1C11.7,7.4,10,8,8,8z M8,3.1c-2,0-3.7,0.8-3.7,1.9v0.6c0,1,1.7,1.9,3.7,1.9s3.7-0.8,3.7-1.9
	V4.9C11.7,3.9,10,3.1,8,3.1z" />
	<path fill="currentColor" d="M8,0.8c4,0,7.3,3.3,7.3,7.2S12,15.3,8,15.3S0.7,12,0.7,8S4,0.8,8,0.8 M8,0C3.6,0,0,3.6,0,8c0,4.4,3.6,8,8,8s8-3.6,8-8
	C16,3.6,12.4,0,8,0L8,0z" />
</svg>
