<svg version="1.1" xmlns="http://www.w3.org/2000/svg" xmlns:xlink="http://www.w3.org/1999/xlink" x="0px" y="0px"
	 viewBox="0 0 16 16" style="enable-background:new 0 0 16 16;" xml:space="preserve">
<path fill="currentColor" d="M13.2,0c1.2,0,2.2,1,2.2,2.2V11c0,1.2-1,2.2-2.2,2.2h-0.6v0.6c0,1.2-1,2.2-2.2,2.2l0,0H2.8c-1.2,0-2.2-1-2.2-2.2V4.9
	c0-1.2,1-2.2,2.2-2.2h0.6V2.2C3.3,1,4.3,0,5.5,0H13.2z M10.5,3.8H2.8c-0.6,0-1,0.4-1.1,1v0.1v8.8c0,0.6,0.4,1,1,1.1h0.1h7.7
	c0.6,0,1-0.4,1.1-1v-0.1V4.9C11.6,4.3,11.1,3.8,10.5,3.8z M13.2,1.1H5.5c-0.6,0-1,0.4-1.1,1v0.1v0.6h6.1c1.2,0,2.2,1,2.2,2.2v7.2
	h0.6c0.6,0,1-0.4,1.1-1v-0.1V2.2C14.3,1.6,13.9,1.1,13.2,1.1L13.2,1.1z"/>
</svg>
