<svg xmlns="http://www.w3.org/2000/svg" viewBox="0 0 16 16">
  <path fill="currentColor"
    d="M14.2.62h-9a1.8,1.8,0,0,0-1.8,1.8V3.7a13.58,13.58,0,0,0-3.08,4c-.79,1.58-.08,4.05,2.18,7.56a.38.38,0,0,0,.5.11.37.37,0,0,0,.11-.5C1,11.6.3,9.29,1,8A12.54,12.54,0,0,1,3.39,4.69v3.1l-.85.86a.36.36,0,1,0,.51.51L5.62,6.58a.54.54,0,0,1,.84.68A17.44,17.44,0,0,1,4.34,9.73L4.12,10l.19.25a2.35,2.35,0,0,1,0,2.84.35.35,0,0,0,.12.49.31.31,0,0,0,.18.05.34.34,0,0,0,.31-.17A3.07,3.07,0,0,0,5.06,10l.38-.4H8.11a6.73,6.73,0,0,1,0,2.06,1.67,1.67,0,0,1-.9.86L7,12.65V15a.36.36,0,0,0,.36.36A.36.36,0,0,0,7.72,15V13.07a2.18,2.18,0,0,0,1.06-1.18,7.25,7.25,0,0,0,.05-2.27H14.2A1.81,1.81,0,0,0,16,7.82V2.42A1.8,1.8,0,0,0,14.2.62Zm1.08,7.2A1.08,1.08,0,0,1,14.2,8.9H6.09a11.05,11.05,0,0,0,1-1.24.78.78,0,0,0,.11-.2H9.88a.36.36,0,0,0,0-.72H7.24a1.25,1.25,0,0,0-2.12-.67l-1,1V2.42A1.08,1.08,0,0,1,5.19,1.34h9a1.08,1.08,0,0,1,1.08,1.08Z" />
  <path fill="currentColor" d="M8.87,2.42H5.3a.36.36,0,0,0,0,.72H8.87a.36.36,0,0,0,0-.72Z" />
  <path fill="currentColor" d="M6.4,4.22H5.31a.36.36,0,1,0,0,.72H6.4a.36.36,0,0,0,0-.72Z" />
  <path fill="currentColor" d="M8.86,4.22H7.78a.36.36,0,1,0,0,.72H8.86a.36.36,0,1,0,0-.72Z" />
  <path fill="currentColor" d="M11.74,4.58a.36.36,0,0,0-.36-.36H10.3a.36.36,0,0,0,0,.72h1.08A.36.36,0,0,0,11.74,4.58Z" />
  <path fill="currentColor" d="M12.82,4.94H13.9a.36.36,0,1,0,0-.72H12.82a.36.36,0,0,0,0,.72Z" />
  <path fill="currentColor"
    d="M13.48,6a1.11,1.11,0,0,0-.54.14A1.11,1.11,0,0,0,12.4,6a1.08,1.08,0,0,0,0,2.16A1.11,1.11,0,0,0,12.94,8a1.11,1.11,0,0,0,.54.14,1.08,1.08,0,0,0,0-2.16Zm-.81,1.32a.36.36,0,1,1,0-.48l.21.24Zm.81.12a.34.34,0,0,1-.27-.12L13,7.1l.21-.24a.36.36,0,1,1,.27.6Z" />
</svg>
