<svg xmlns="http://www.w3.org/2000/svg" viewBox="0 0 16 16">
  <circle fill="currentColor" cx="10" cy="10.76" r="1" />
  <circle fill="currentColor" cx="6" cy="5.23" r="1" />
  <path
    fill="currentColor"
    d="M8,16a1.86,1.86,0,0,1-1.31-.54L5.43,14.2H3.65A1.85,1.85,0,0,1,1.8,12.35V10.57L.54,9.31a1.86,1.86,0,0,1,0-2.62L1.8,5.43V3.65A1.85,1.85,0,0,1,3.65,1.8H5.43L6.69.54a1.86,1.86,0,0,1,2.62,0L10.57,1.8h1.78A1.85,1.85,0,0,1,14.2,3.65V5.43l1.26,1.26a1.86,1.86,0,0,1,0,2.62L14.2,10.57v1.78a1.85,1.85,0,0,1-1.85,1.85H10.57L9.31,15.46A1.86,1.86,0,0,1,8,16ZM3.65,3A.65.65,0,0,0,3,3.65v2a.56.56,0,0,1-.18.42L1.39,7.54a.66.66,0,0,0,0,.92L2.82,9.9a.56.56,0,0,1,.18.42v2a.65.65,0,0,0,.65.65h2a.56.56,0,0,1,.42.18l1.44,1.43a.66.66,0,0,0,.92,0L9.9,13.18a.56.56,0,0,1,.42-.18h2a.65.65,0,0,0,.65-.65v-2a.56.56,0,0,1,.18-.42l1.43-1.44a.66.66,0,0,0,0-.92L13.18,6.1A.56.56,0,0,1,13,5.68v-2A.65.65,0,0,0,12.35,3h-2a.56.56,0,0,1-.42-.18L8.46,1.39a.66.66,0,0,0-.92,0L6.1,2.82A.56.56,0,0,1,5.68,3Z" />
  <path
    fill="currentColor"
    d="M5.69,11.6a.63.63,0,0,1-.37-.12.6.6,0,0,1-.11-.84l4.56-6a.59.59,0,0,1,.84-.12.6.6,0,0,1,.11.84l-4.56,6A.57.57,0,0,1,5.69,11.6Z" />
</svg>
