<svg version="1.1" id="图层_1" xmlns="http://www.w3.org/2000/svg" xmlns:xlink="http://www.w3.org/1999/xlink" x="0px" y="0px"
	 viewBox="0 0 16 16" style="enable-background:new 0 0 16 16;" xml:space="preserve">
<g>
	<g>
		<path fill="currentColor" d="M3.7,16c-0.2,0-0.5-0.2-0.5-0.4c0-0.3,0.1-0.5,0.4-0.6L4,14.9C1.6,13.5,0,10.9,0,8c0-4.4,3.6-8,8-8
			c0.3,0,0.5,0.2,0.5,0.5S8.3,1,8,1C4.1,1,1,4.1,1,8c0,3.1,2.1,5.8,5,6.7c0.2,0.1,0.4,0.3,0.4,0.5s-0.2,0.4-0.4,0.5L3.7,16
			C3.8,16,3.7,16,3.7,16z"/>
	</g>
	<g>
		<path fill="currentColor" d="M8,16c-0.3,0-0.5-0.2-0.5-0.5S7.7,15,8,15c3.9,0,7-3.1,7-7c0-3.1-2.1-5.8-5-6.7C9.8,1.2,9.6,1,9.6,0.8
			c0-0.2,0.2-0.4,0.4-0.5L12.2,0c0.3,0,0.5,0.1,0.6,0.4c0,0.3-0.2,0.5-0.4,0.6L12,1.1c2.4,1.4,4,4.1,4,6.9C16,12.4,12.4,16,8,16z"/>
	</g>
	<g>
		<path fill="currentColor" d="M8,7.3c-2.1,0-4.3-0.6-4.3-1.9S5.9,3.4,8,3.4s4.3,0.6,4.3,1.9S10.1,7.3,8,7.3z M8,4.6c-1.9,0-3,0.5-3.1,0.8
			C5,5.5,6.1,6.1,8,6.1c1.9,0,2.9-0.5,3.1-0.7C10.9,5.1,9.9,4.6,8,4.6z M11.1,5.4L11.1,5.4L11.1,5.4z"/>
	</g>
	<g>
		<path fill="currentColor" d="M8,9.8c-2.1,0-4.3-0.6-4.3-1.9c0-0.3,0.3-0.6,0.6-0.6s0.6,0.3,0.6,0.6C5,8.1,6.1,8.6,8,8.6
			c1.9,0,3-0.5,3.1-0.8c0-0.3,0.3-0.6,0.6-0.6c0.3,0,0.6,0.3,0.6,0.6C12.3,9.2,10.1,9.8,8,9.8z"/>
	</g>
	<g>
		<path fill="currentColor" d="M8,12.5c-2.1,0-4.3-0.6-4.3-1.9c0-0.3,0.3-0.6,0.6-0.6s0.6,0.3,0.6,0.6C5,10.7,6.1,11.3,8,11.3s3-0.5,3.1-0.8
			c0-0.3,0.3-0.6,0.6-0.6c0.3,0,0.6,0.3,0.6,0.6C12.3,11.9,10.1,12.5,8,12.5z"/>
	</g>
</g>
</svg>
