<svg xmlns="http://www.w3.org/2000/svg" viewBox="0 0 16 16">
  <circle fill="currentColor" cx="13" cy="3" r="1" />
  <path
    fill="currentColor"
    d="M15,0H9.17a2.1,2.1,0,0,0-1.5.62L.37,7.92a1.27,1.27,0,0,0,0,1.79l5.92,5.92a1.26,1.26,0,0,0,.9.37,1.23,1.23,0,0,0,.89-.37l7.3-7.3A2.1,2.1,0,0,0,16,6.83V1.05A1,1,0,0,0,15,0ZM7.23,14.78l0,0s-.05,0-.05,0L1.22,8.86a.06.06,0,0,1,0-.09L3.51,6.48l6.08,5.94ZM14.8,6.83a.91.91,0,0,1-.27.65l-4.09,4.09L4.36,5.63,8.52,1.47a.91.91,0,0,1,.65-.27H14.8Z" />
</svg>
