<svg xmlns="http://www.w3.org/2000/svg" viewBox="0 0 16 16">
  <path
    fill="currentColor"
    d="M8.48,1.26V.53A.52.52,0,0,0,8,0a.53.53,0,0,0-.53.53v.74A7.3,7.3,0,0,0,.7,8.54a.52.52,0,0,0,.53.52h6.2v4.71a1.18,1.18,0,1,1-2.35,0v0a.52.52,0,0,0-.53-.52.52.52,0,0,0-.52.52v0a2.23,2.23,0,1,0,4.45,0V9.06h6.29a.52.52,0,0,0,.53-.52A7.32,7.32,0,0,0,8.48,1.26ZM5.31,8c0-1,.12-4.52,2.68-5.67C10.4,3.52,10.7,6.93,10.73,8Zm.55-5.33A8.43,8.43,0,0,0,4.26,8H1.78A6.23,6.23,0,0,1,5.86,2.68ZM11.78,8A9.06,9.06,0,0,0,10,2.64,6.26,6.26,0,0,1,14.23,8Z" />
  </svg>
