<svg version="1.1" xmlns="http://www.w3.org/2000/svg" xmlns:xlink="http://www.w3.org/1999/xlink" x="0px"
  y="0px" viewBox="0 0 16 16" style="enable-background:new 0 0 16 16;" xml:space="preserve">
  <path
    fill="currentColor"
    d="M15.5,5H12L9.3,2.3c0.4-0.7,0.2-1.6-0.5-2.1S7.1,0,6.7,0.7c-0.3,0.5-0.3,1.1,0,1.6L4,5H0.5C0.2,5,0,5.2,0,5.5v10
  C0,15.8,0.2,16,0.5,16h15c0.3,0,0.5-0.2,0.5-0.5v-10C16,5.2,15.8,5,15.5,5z M7.5,2.9c0.3,0.1,0.7,0.1,1,0L10.6,5H5.4L7.5,2.9z" />
  <path fill="inherit" d="M6.6,8.5H2.9c-0.3,0-0.6-0.3-0.6-0.6v0c0-0.3,0.3-0.6,0.6-0.6h3.7c0.3,0,0.6,0.3,0.6,0.6v0
  C7.2,8.3,6.9,8.5,6.6,8.5z" />
  <path fill="inherit" d="M13.1,11.3H2.9c-0.3,0-0.6-0.3-0.6-0.6v0c0-0.3,0.3-0.6,0.6-0.6h10.2c0.3,0,0.6,0.3,0.6,0.6v0
  C13.7,11,13.4,11.3,13.1,11.3z" />
  <path fill="inherit" d="M13.1,14H2.9c-0.3,0-0.6-0.3-0.6-0.6v0c0-0.3,0.3-0.6,0.6-0.6h10.2c0.3,0,0.6,0.3,0.6,0.6v0
  C13.7,13.7,13.4,14,13.1,14z" />
</svg>
