<svg viewBox="0 0 24 24" fill="none" xmlns="http://www.w3.org/2000/svg">
  <path
    d="M10.6 12.7H5.7C5.51435 12.7 5.3363 12.7737 5.20503 12.905C5.07375 13.0363 5 13.2143 5 13.4V18.3C5 18.4857 5.07375 18.6637 5.20503 18.795C5.3363 18.9263 5.51435 19 5.7 19H10.6C10.7857 19 10.9637 18.9263 11.095 18.795C11.2262 18.6637 11.3 18.4857 11.3 18.3V13.4C11.3 13.2143 11.2262 13.0363 11.095 12.905C10.9637 12.7737 10.7857 12.7 10.6 12.7ZM9.9 17.6H6.4V14.1H9.9V17.6ZM18.3 5H13.4C13.2143 5 13.0363 5.07375 12.905 5.20503C12.7737 5.3363 12.7 5.51435 12.7 5.7V10.6C12.7 10.7857 12.7737 10.9637 12.905 11.095C13.0363 11.2262 13.2143 11.3 13.4 11.3H18.3C18.4857 11.3 18.6637 11.2262 18.795 11.095C18.9263 10.9637 19 10.7857 19 10.6V5.7C19 5.51435 18.9263 5.3363 18.795 5.20503C18.6637 5.07375 18.4857 5 18.3 5V5ZM17.6 9.9H14.1V6.4H17.6V9.9ZM18.3 12.7H13.4C13.2143 12.7 13.0363 12.7737 12.905 12.905C12.7737 13.0363 12.7 13.2143 12.7 13.4V18.3C12.7 18.4857 12.7737 18.6637 12.905 18.795C13.0363 18.9263 13.2143 19 13.4 19H18.3C18.4857 19 18.6637 18.9263 18.795 18.795C18.9263 18.6637 19 18.4857 19 18.3V13.4C19 13.2143 18.9263 13.0363 18.795 12.905C18.6637 12.7737 18.4857 12.7 18.3 12.7ZM17.6 17.6H14.1V14.1H17.6V17.6ZM10.6 5H5.7C5.51435 5 5.3363 5.07375 5.20503 5.20503C5.07375 5.3363 5 5.51435 5 5.7V10.6C5 10.7857 5.07375 10.9637 5.20503 11.095C5.3363 11.2262 5.51435 11.3 5.7 11.3H10.6C10.7857 11.3 10.9637 11.2262 11.095 11.095C11.2262 10.9637 11.3 10.7857 11.3 10.6V5.7C11.3 5.51435 11.2262 5.3363 11.095 5.20503C10.9637 5.07375 10.7857 5 10.6 5V5ZM9.9 9.9H6.4V6.4H9.9V9.9Z"
    fill="currentColor" />
</svg>
