<svg viewBox="0 0 24 24" fill="none" xmlns="http://www.w3.org/2000/svg">
  <path fill-rule="evenodd" clip-rule="evenodd"
    d="M15.56 2.58002H8.44C5.12629 2.58002 2.44 5.26631 2.44 8.58002V15.7C2.44 19.0137 5.12629 21.7 8.44 21.7H15.56C18.8737 21.7 21.56 19.0137 21.56 15.7V8.58002C21.56 5.26631 18.8737 2.58002 15.56 2.58002ZM14.24 16H8.69L10.61 17.92C10.7535 18.061 10.8344 18.2538 10.8344 18.455C10.8344 18.6562 10.7535 18.849 10.61 18.99C10.4685 19.128 10.2776 19.2036 10.08 19.2C9.88298 19.2004 9.6933 19.1252 9.55 18.99L6.35 15.78C6.27883 15.7135 6.22406 15.6313 6.19 15.54C6.1099 15.355 6.1099 15.1451 6.19 14.96C6.22406 14.8687 6.27883 14.7866 6.35 14.72L9.55 11.52C9.84551 11.2447 10.306 11.2528 10.5916 11.5384C10.8772 11.824 10.8854 12.2845 10.61 12.58L8.69 14.45H14.24C14.6542 14.45 14.99 14.7858 14.99 15.2C14.99 15.6142 14.6542 15.95 14.24 15.95V16ZM17.65 9.38002C17.7212 9.31347 17.7759 9.23131 17.81 9.14002V9.09002C17.8901 8.90498 17.8901 8.69505 17.81 8.51002C17.7759 8.41872 17.7212 8.33657 17.65 8.27002L14.45 5.07002C14.263 4.86936 13.9814 4.78677 13.7157 4.85463C13.45 4.9225 13.2425 5.12999 13.1746 5.39573C13.1068 5.66146 13.1893 5.94305 13.39 6.13002L15.31 8.10002H9.76C9.34579 8.10002 9.01 8.4358 9.01 8.85002C9.01 9.26423 9.34579 9.60002 9.76 9.60002H15.31L13.39 11.52C13.2471 11.6593 13.1664 11.8504 13.1664 12.05C13.1664 12.2496 13.2471 12.4407 13.39 12.58C13.5278 12.7247 13.7203 12.8045 13.92 12.8C14.1191 12.801 14.3101 12.7217 14.45 12.58L17.65 9.38002Z"
    fill="currentColor" />
</svg>
