<svg viewBox="0 0 24 24" fill="none" xmlns="http://www.w3.org/2000/svg">
    <path
        d="M21.91 14.2799C21.769 14.1364 21.5762 14.0556 21.375 14.0556C21.1738 14.0556 20.981 14.1364 20.84 14.2799L17.44 17.6899V8.68994C17.44 8.27573 17.1042 7.93994 16.69 7.93994C16.2758 7.93994 15.94 8.27573 15.94 8.68994V17.6899L12.53 14.2799C12.3407 14.0888 12.0637 14.0132 11.8035 14.0816C11.5433 14.15 11.3394 14.3521 11.2685 14.6116C11.1977 14.8712 11.2707 15.1488 11.46 15.3399L16.16 19.9999C16.2274 20.0701 16.3093 20.1247 16.4 20.1599C16.4915 20.1998 16.5902 20.2203 16.69 20.2199C16.7866 20.2204 16.8821 20.1999 16.97 20.1599C17.0635 20.1246 17.1487 20.0701 17.22 19.9999L21.91 15.3099C22.183 15.0209 22.183 14.569 21.91 14.2799Z"
        fill="currentColor" />
    <path
        d="M11.47 9.71996C11.7662 10.0136 12.2438 10.0136 12.54 9.71996C12.8325 9.42715 12.8325 8.95278 12.54 8.65996L7.84001 3.99996C7.77257 3.92984 7.69067 3.87524 7.60001 3.83996C7.41645 3.76998 7.21356 3.76998 7.03001 3.83996C6.93763 3.87764 6.85291 3.93187 6.78001 3.99996L2.09001 8.65996C1.79755 8.95278 1.79755 9.42715 2.09001 9.71996C2.22929 9.86291 2.42042 9.94353 2.62001 9.94353C2.81959 9.94353 3.01072 9.86291 3.15001 9.71996L6.56001 6.30996V15.31C6.56001 15.5779 6.70296 15.8255 6.93501 15.9595C7.16706 16.0935 7.45296 16.0935 7.68501 15.9595C7.91706 15.8255 8.06001 15.5779 8.06001 15.31V6.30996L11.47 9.71996Z"
        fill="currentColor" />
</svg>