<svg viewBox="0 0 24 24" fill="none" xmlns="http://www.w3.org/2000/svg">
    <path fill-rule="evenodd" clip-rule="evenodd" d="M15.0744 4.52703V4.37342C15.0744 3.6149 14.4595 3 13.701 3H9.59881C8.84029 3 8.22539 3.6149 8.22539 4.37342V4.49992C6.24541 4.66507 4.72602 6.32616 4.73761 8.31298V17.9269C4.73761 18.9398 5.14058 19.911 5.85763 20.6264C6.57467 21.3417 7.54686 21.7424 8.55971 21.74H14.7491C15.762 21.7424 16.7342 21.3417 17.4512 20.6264C18.1683 19.911 18.5712 18.9398 18.5712 17.9269V8.31298C18.564 6.33506 17.0455 4.69106 15.0744 4.52703ZM9.59779 4.37342H13.7181V5.44867H9.59779V4.37342ZM11.6965 9.45148H8.87742C8.50315 9.45148 8.19974 9.75489 8.19974 10.1292C8.19974 10.5034 8.50315 10.8068 8.87742 10.8068H11.6965C12.0708 10.8068 12.3742 10.5034 12.3742 10.1292C12.3742 9.75489 12.0708 9.45148 11.6965 9.45148ZM13.6754 16.2734H8.87742C8.50315 16.2734 8.19974 15.97 8.19974 15.5957C8.19974 15.2215 8.50315 14.918 8.87742 14.918H13.6754C14.0496 14.918 14.353 15.2215 14.353 15.5957C14.353 15.97 14.0496 16.2734 13.6754 16.2734ZM8.87742 13.626H14.4253C14.7996 13.626 15.103 13.3226 15.103 12.9483C15.103 12.574 14.7996 12.2706 14.4253 12.2706H8.87742C8.50315 12.2706 8.19974 12.574 8.19974 12.9483C8.19974 13.3226 8.50315 13.626 8.87742 13.626Z" fill="currentColor" />
</svg>