<svg viewBox="0 0 24 24" fill="none" xmlns="http://www.w3.org/2000/svg">
    <path fill-rule="evenodd" clip-rule="evenodd"
        d="M16.5034 8.99835V11.1677L16.5029 13.6641C16.5029 14.1911 16.6809 14.57 16.9617 14.8147C17.2384 15.0559 17.5961 15.1507 17.9303 15.1507C19.0493 15.1507 20.163 14.106 20.163 11.9977C20.163 7.49681 16.5014 3.83527 12.0006 3.83527C7.49974 3.83527 3.8382 7.49657 3.8382 11.9977C3.8382 16.4985 7.4995 20.16 12.0006 20.16C13.8202 20.16 15.5424 19.5741 16.9799 18.4662C17.3457 18.1843 17.8709 18.2523 18.1527 18.6179C18.4348 18.9839 18.3668 19.5088 18.001 19.7909C16.2681 21.1269 14.1937 21.8327 12.0008 21.8327C6.57822 21.8327 2.16602 17.4207 2.16602 11.9979C2.16602 6.57506 6.57845 2.16309 12.0011 2.16309C17.4236 2.16309 21.8359 6.57506 21.8359 11.9979C21.8359 15.1971 19.8485 16.8234 17.9307 16.8234C17.0557 16.8234 16.1796 16.4746 15.5846 15.8023L15.4601 15.6616L15.3378 15.8043C14.4497 16.8408 13.1351 17.5 11.6678 17.5C9.00165 17.5 6.83219 15.3308 6.83219 12.6644V11.3313C6.83219 8.66521 9.00166 6.49574 11.6678 6.49574C13.1112 6.49574 14.4056 7.13477 15.2931 8.14252L15.3597 8.2182L15.4573 8.19268C15.5296 8.17378 15.5982 8.16215 15.6671 8.16215C16.129 8.16215 16.5034 8.53654 16.5034 8.99835ZM11.6675 8.16816C9.92342 8.16816 8.50437 9.58696 8.50437 11.3313V12.6644C8.50437 14.4088 9.92318 15.8276 11.6675 15.8276C13.4119 15.8276 14.8309 14.4088 14.8307 12.6644V11.3313C14.8307 9.5872 13.4117 8.16816 11.6675 8.16816Z"
        fill="currentColor" />
</svg>