<svg viewBox="0 0 24 24" xmlns="http://www.w3.org/2000/svg">
  <path
    d="M21 22.75H3C2.59 22.75 2.25 22.41 2.25 22C2.25 21.59 2.59 21.25 3 21.25H21C21.41 21.25 21.75 21.59 21.75 22C21.75 22.41 21.41 22.75 21 22.75Z"
    fill="currentColor" />
  <path
    d="M5.6 8.37891H4C3.45 8.37891 3 8.82891 3 9.37891V17.9989C3 18.5489 3.45 18.9989 4 18.9989H5.6C6.15 18.9989 6.6 18.5489 6.6 17.9989V9.37891C6.6 8.81891 6.15 8.37891 5.6 8.37891Z"
    fill="currentColor" />
  <path
    d="M12.8 5.19141H11.2C10.65 5.19141 10.2 5.64141 10.2 6.19141V18.0014C10.2 18.5514 10.65 19.0014 11.2 19.0014H12.8C13.35 19.0014 13.8 18.5514 13.8 18.0014V6.19141C13.8 5.64141 13.35 5.19141 12.8 5.19141Z"
    fill="currentColor" />
  <path
    d="M20 2H18.4C17.85 2 17.4 2.45 17.4 3V18C17.4 18.55 17.85 19 18.4 19H20C20.55 19 21 18.55 21 18V3C21 2.45 20.55 2 20 2Z"
    fill="currentColor" />
</svg>
