<svg viewBox="0 0 24 24" fill="none" xmlns="http://www.w3.org/2000/svg">
  <path
    d="M14.8007 8.94002L9.03074 14.71C8.73829 15.0028 8.73829 15.4772 9.03074 15.77C9.17063 15.9117 9.36167 15.991 9.56074 15.99C9.76003 15.9921 9.95151 15.9126 10.0907 15.77L15.8607 10C16.0614 9.81305 16.144 9.53147 16.0761 9.26573C16.0083 9 15.8008 8.7925 15.535 8.72464C15.2693 8.65677 14.9877 8.73937 14.8007 8.94002Z"
    fill="currentColor" />
  <circle cx="9.85071" cy="10.1" r="0.75" fill="currentColor" />
  <circle cx="15.1307" cy="14.61" r="0.75" fill="currentColor" />
  <path fill-rule="evenodd" clip-rule="evenodd"
    d="M22.6396 8.22146C22.9699 9.07662 22.7533 10.0465 22.0907 10.68C21.611 11.1088 21.3368 11.7216 21.3368 12.365C21.3368 13.0084 21.611 13.6212 22.0907 14.05C22.7827 14.6787 23.0184 15.6673 22.6845 16.5406C22.3507 17.4139 21.5156 17.9932 20.5807 18H20.3307C19.71 18.0047 19.118 18.2624 18.6914 18.7134C18.2649 19.1645 18.0408 19.7699 18.0707 20.39C18.1039 21.0134 17.8778 21.6227 17.4459 22.0735C17.014 22.5243 16.415 22.7764 15.7907 22.77C15.1553 22.7703 14.5505 22.497 14.1307 22.02C13.7003 21.5432 13.0881 21.2711 12.4457 21.2711C11.8034 21.2711 11.1911 21.5432 10.7607 22.02C10.3409 22.497 9.73615 22.7703 9.10073 22.77C8.47281 22.7768 7.87038 22.522 7.43788 22.0667C7.00538 21.6114 6.78179 20.9967 6.82073 20.37C6.84789 19.7516 6.62248 19.1488 6.19627 18.6999C5.77006 18.2511 5.17967 17.9948 4.56073 17.99H4.31073C3.41638 17.9476 2.63053 17.3834 2.30434 16.5495C1.97815 15.7157 2.17258 14.768 2.80073 14.13C3.27704 13.7014 3.54904 13.0908 3.54904 12.45C3.54904 11.8092 3.27704 11.1986 2.80073 10.77C2.06944 10.1491 1.80746 9.13545 2.14627 8.23793C2.48509 7.34042 3.35154 6.75279 4.31073 6.77H4.56073C5.18794 6.76861 5.78663 6.50776 6.21473 6.04936C6.64283 5.59095 6.86217 4.97585 6.82073 4.35C6.79886 3.73339 7.03004 3.13464 7.46063 2.69273C7.89121 2.25081 8.48375 2.00416 9.10073 2.01C9.7386 2.00827 10.3452 2.28601 10.7607 2.77C11.1954 3.24272 11.8086 3.51121 12.4507 3.51C13.0894 3.50841 13.6984 3.24016 14.1307 2.77C14.5443 2.28229 15.1512 2.00077 15.7907 2C16.4168 1.99342 17.0175 2.24686 17.4497 2.69989C17.8819 3.15292 18.1068 3.76493 18.0707 4.39C18.0407 5.00913 18.2651 5.61362 18.692 6.06311C19.1188 6.5126 19.7109 6.768 20.3307 6.77H20.5807C21.4971 6.79371 22.3094 7.36629 22.6396 8.22146ZM20.9907 15.88C21.0732 15.7058 21.0233 15.4978 20.8707 15.38V15.32C20.0327 14.5475 19.5559 13.4598 19.5559 12.32C19.5559 11.1803 20.0327 10.0925 20.8707 9.32C21.0233 9.20224 21.0732 8.99416 20.9907 8.82C20.9333 8.64328 20.7665 8.52532 20.5807 8.53H20.3307C19.2151 8.52779 18.1491 8.06885 17.3807 7.26C16.6191 6.45132 16.2154 5.36993 16.2607 4.26C16.2775 4.14065 16.2409 4.01996 16.1607 3.93C16.0639 3.82909 15.9306 3.77142 15.7907 3.77C15.6482 3.7568 15.5087 3.8171 15.4207 3.93C14.6527 4.77738 13.5643 5.26353 12.4207 5.27C11.2774 5.2623 10.1895 4.77636 9.42073 3.93C9.34325 3.83163 9.22591 3.77297 9.10073 3.77C8.9609 3.77142 8.82753 3.82909 8.73073 3.93C8.65051 4.01996 8.61394 4.14065 8.63073 4.26C8.6968 5.3813 8.29768 6.48024 7.52744 7.29779C6.75719 8.11535 5.68397 8.57919 4.56073 8.58H4.34073C4.14507 8.56495 3.96404 8.68426 3.90073 8.87C3.81826 9.04416 3.8682 9.25224 4.02073 9.37C4.86607 10.1395 5.3518 11.2269 5.36073 12.37C5.35425 13.5136 4.8681 14.602 4.02073 15.37C3.8682 15.4878 3.81826 15.6958 3.90073 15.87C3.95151 16.0528 4.12111 16.1769 4.31073 16.17H4.56073C5.67572 16.1743 6.74065 16.6335 7.50901 17.4415C8.27736 18.2495 8.68253 19.3362 8.63073 20.45C8.61266 20.5664 8.6496 20.6846 8.73073 20.77C8.83877 20.8777 8.98867 20.9326 9.14073 20.92C9.26367 20.9169 9.37971 20.8625 9.46073 20.77C10.2309 19.9096 11.331 19.4179 12.4857 19.4179C13.6405 19.4179 14.7405 19.9096 15.5107 20.77C15.5804 20.8568 15.6805 20.914 15.7907 20.93C15.9306 20.9286 16.0639 20.8709 16.1607 20.77C16.2419 20.6846 16.2788 20.5664 16.2607 20.45C16.2199 19.3408 16.623 18.2611 17.3807 17.45C18.1518 16.645 19.2161 16.1868 20.3307 16.18H20.5507C20.7501 16.1977 20.9343 16.0721 20.9907 15.88Z"
    fill="currentColor" />
</svg>
