<svg viewBox="0 0 24 24" fill="none" xmlns="http://www.w3.org/2000/svg">
  <path fill-rule="evenodd" clip-rule="evenodd"
    d="M22.2132 7.76657C22.5814 8.65329 22.3518 9.67573 21.64 10.32C21.1653 10.7488 20.8935 11.3581 20.8916 11.9978C20.8897 12.6375 21.1578 13.2484 21.63 13.68C22.3401 14.3231 22.57 15.3428 22.2045 16.2284C21.8391 17.114 20.957 17.6748 20 17.63C19.3631 17.6013 18.7434 17.8417 18.2926 18.2926C17.8417 18.7434 17.6013 19.3631 17.63 20C17.6509 20.9338 17.0977 21.785 16.2359 22.1452C15.3742 22.5053 14.3798 22.3009 13.73 21.63C13.2998 21.1566 12.6897 20.8866 12.05 20.8866C11.4103 20.8866 10.8002 21.1566 10.37 21.63C9.73587 22.3829 8.68876 22.6413 7.77718 22.2698C6.8656 21.8983 6.29732 20.9817 6.37001 20C6.39874 19.3631 6.15829 18.7434 5.70745 18.2926C5.25661 17.8417 4.63695 17.6013 4.00001 17.63C3.06626 17.6509 2.21503 17.0977 1.85487 16.2359C1.4947 15.3742 1.69912 14.3798 2.37001 13.73C2.84347 13.2998 3.11341 12.6897 3.11341 12.05C3.11341 11.4103 2.84347 10.8002 2.37001 10.37C1.61713 9.73587 1.35875 8.68876 1.73021 7.77718C2.10168 6.86561 3.01834 6.29732 4.00001 6.37001C4.63695 6.39875 5.25661 6.15829 5.70745 5.70745C6.15829 5.25661 6.39874 4.63695 6.37001 4.00001C6.32521 3.04304 6.88604 2.16096 7.77162 1.79552C8.65721 1.43007 9.67688 1.65994 10.32 2.37001C10.7502 2.84347 11.3603 3.11342 12 3.11342C12.6397 3.11342 13.2498 2.84347 13.68 2.37001C14.3231 1.65994 15.3428 1.43007 16.2284 1.79552C17.114 2.16096 17.6748 3.04304 17.63 4.00001C17.6013 4.63695 17.8417 5.25661 18.2926 5.70745C18.7434 6.15829 19.3631 6.39875 20 6.37001C20.9588 6.32065 21.845 6.87986 22.2132 7.76657ZM10.16 9.75001C10.16 9.3358 9.82422 9.00001 9.41001 9.00001C8.99805 9.0054 8.6654 9.33805 8.66001 9.75001C8.66001 10.1642 8.9958 10.5 9.41001 10.5C9.82422 10.5 10.16 10.1642 10.16 9.75001ZM14.68 15C14.2658 15 13.93 14.6642 13.93 14.25C13.93 13.8358 14.2658 13.5 14.68 13.5C15.0942 13.5 15.43 13.8358 15.43 14.25C15.4246 14.662 15.092 14.9946 14.68 15ZM9.65001 15.41L15.41 9.64001V9.65001C15.6854 9.3545 15.6772 8.894 15.3916 8.60839C15.106 8.32278 14.6455 8.31465 14.35 8.59001L8.59001 14.35C8.44706 14.4893 8.36644 14.6804 8.36644 14.88C8.36644 15.0796 8.44706 15.2707 8.59001 15.41C8.72785 15.5547 8.92026 15.6345 9.12001 15.63C9.31908 15.631 9.51013 15.5516 9.65001 15.41Z"
    fill="currentColor" />
</svg>
