<svg xmlns="http://www.w3.org/2000/svg" viewBox="0 0 16 16">
  <path
    fill="currentColor"
    d="M8,9.79a2.16,2.16,0,0,1-1.19-.36L1.47,5.84a1.22,1.22,0,0,1,0-2L7.14.25h0a1.62,1.62,0,0,1,1.72,0L14.5,3.79a1.22,1.22,0,0,1,0,2.05L9.19,9.43A2.16,2.16,0,0,1,8,9.79ZM7.78,1.26,2.14,4.8,7.48,8.43a.94.94,0,0,0,1,0l5.34-3.59L8.22,1.26a.43.43,0,0,0-.44,0Z" />
  <path
    fill="currentColor"
    d="M8,12.87a2.16,2.16,0,0,1-1.19-.36L1.47,8.92a1.22,1.22,0,0,1,0-2,.6.6,0,0,1,.83.19.61.61,0,0,1-.19.83s0,0,0,0l5.35,3.61a.94.94,0,0,0,1,0l5.34-3.58a.63.63,0,0,1-.19-.85.61.61,0,0,1,.83-.21,1.22,1.22,0,0,1,0,2.05L9.19,12.51A2.16,2.16,0,0,1,8,12.87Z" />
  <path
    fill="currentColor"
    d="M8,16a2.16,2.16,0,0,1-1.19-.36L1.47,12.05A1.22,1.22,0,0,1,1.5,10a.6.6,0,1,1,.64,1v0l5.35,3.61a.94.94,0,0,0,1,0l5.34-3.59a.62.62,0,0,1-.19-.84A.61.61,0,0,1,14.5,10a1.22,1.22,0,0,1,0,2.05L9.19,15.64A2.16,2.16,0,0,1,8,16Z" />
</svg>
