<svg viewBox="0 0 24 24" xmlns="http://www.w3.org/2000/svg">
    <path fill-rule="evenodd" clip-rule="evenodd"
        d="M12.7207 4.92691C12.2886 4.62186 11.7112 4.62186 11.279 4.92691L3.93241 10.1128L3.06738 8.88732L10.414 3.70146C11.3648 3.03034 12.635 3.03034 13.5858 3.70146L20.9324 8.88732L20.0674 10.1128L12.7207 4.92691Z"
        fill="currentColor" />
    <path fill-rule="evenodd" clip-rule="evenodd"
        d="M2.75 10C2.75 9.0335 3.5335 8.25 4.5 8.25H19.5C20.4665 8.25 21.25 9.0335 21.25 10V20C21.25 20.9665 20.4665 21.75 19.5 21.75H4.5C3.5335 21.75 2.75 20.9665 2.75 20V10ZM4.5 9.75C4.36193 9.75 4.25 9.86193 4.25 10V20C4.25 20.1381 4.36193 20.25 4.5 20.25H19.5C19.6381 20.25 19.75 20.1381 19.75 20V10C19.75 9.86193 19.6381 9.75 19.5 9.75H4.5Z"
        fill="currentColor" />
    <path fill-rule="evenodd" clip-rule="evenodd"
        d="M3.5 10C3.5 9.44772 3.94772 9 4.5 9H19.5C20.0523 9 20.5 9.44772 20.5 10V20C20.5 20.5523 20.0523 21 19.5 21H4.5C3.94772 21 3.5 20.5523 3.5 20V10ZM7.25 17C7.25 16.5858 7.58579 16.25 8 16.25H16C16.4142 16.25 16.75 16.5858 16.75 17C16.75 17.4142 16.4142 17.75 16 17.75H8C7.58579 17.75 7.25 17.4142 7.25 17ZM7 12.25C6.58579 12.25 6.25 12.5858 6.25 13C6.25 13.4142 6.58579 13.75 7 13.75H17C17.4142 13.75 17.75 13.4142 17.75 13C17.75 12.5858 17.4142 12.25 17 12.25H7Z"
        fill="currentColor" />
</svg>