<svg viewBox="0 0 24 24" xmlns="http://www.w3.org/2000/svg">
    <path
        d="M3.5 12.5H20.5V19.5C20.5 20.6046 19.6046 21.5 18.5 21.5H5.5C4.39543 21.5 3.5 20.6046 3.5 19.5V12.5Z"
        fill="white" />
    <path fill-rule="evenodd" clip-rule="evenodd"
        d="M19 17.5H5V19.5C5 19.7761 5.22386 20 5.5 20H18.5C18.7761 20 19 19.7761 19 19.5V17.5ZM3.5 16V19.5C3.5 20.6046 4.39543 21.5 5.5 21.5H18.5C19.6046 21.5 20.5 20.6046 20.5 19.5V16H3.5Z"
        fill="currentColor" />
    <path fill-rule="evenodd" clip-rule="evenodd"
        d="M3.5 4.5C3.5 3.39543 4.39543 2.5 5.5 2.5H18.5C19.6046 2.5 20.5 3.39543 20.5 4.5V16.5C20.5 17.0523 20.0523 17.5 19.5 17.5H4.5C3.94772 17.5 3.5 17.0523 3.5 16.5V4.5ZM9 10.6295V5C9 4.72386 9.22386 4.5 9.5 4.5H14.5C14.7761 4.5 15 4.72386 15 5V10.6295C15 11.0154 14.5814 11.2558 14.2481 11.0614L12.2519 9.89696C12.0963 9.80615 11.9037 9.80615 11.7481 9.89696L9.75194 11.0614C9.41861 11.2558 9 11.0154 9 10.6295Z"
        fill="currentColor" />
</svg>