<svg viewBox="0 0 24 24" fill="none" xmlns="http://www.w3.org/2000/svg">
  <path fill-rule="evenodd" clip-rule="evenodd" d="M19.92 5.00001L14.07 1.75001C13.1371 1.23201 12.0029 1.23201 11.07 1.75001L5.24 5.00001C4.26459 5.54391 3.66002 6.57321 3.66 7.69001V13.91C2.94513 14.366 2.50882 15.1521 2.5 16V20.1C2.4999 21.4857 3.61445 22.6136 5 22.63H9.09C10.4696 22.6248 11.5929 21.5194 11.62 20.14C12.4306 20.4203 13.3223 20.3402 14.07 19.92L19.92 16.67C20.8892 16.1296 21.4928 15.1097 21.5 14V7.69001C21.5 6.57321 20.8954 5.54391 19.92 5.00001ZM10 20.1C9.9946 20.5782 9.60823 20.9646 9.13 20.97H5C4.52342 20.9645 4.13997 20.5766 4.14 20.1V16C4.15601 15.5351 4.53487 15.1651 5 15.16H9.09C9.57237 15.1431 9.97836 15.5178 10 16V20.1ZM13.92 11L18.63 8.38001C18.8418 8.27362 19.001 8.08542 19.0709 7.85891C19.1407 7.6324 19.1151 7.38721 19 7.18001C18.7594 6.75993 18.2321 6.60173 17.8 6.82001L13.11 9.44001C12.8006 9.61864 12.4194 9.61864 12.11 9.44001L7.41 6.82001C6.97306 6.58868 6.43135 6.74852 6.19 7.18001C6.07265 7.3835 6.04257 7.6258 6.1066 7.85181C6.17064 8.07781 6.32335 8.26832 6.53 8.38001L11.24 11C11.3343 11.0503 11.4285 11.0848 11.5203 11.1183C11.5746 11.1382 11.628 11.1577 11.68 11.18V15.26C11.68 15.7571 12.0829 16.16 12.58 16.16C13.0771 16.16 13.48 15.7571 13.48 15.26V11.18C13.532 11.1577 13.5854 11.1382 13.6397 11.1183C13.7315 11.0848 13.8257 11.0503 13.92 11Z" fill="currentColor" />
  <path d="M8.40996 17.24H7.87996V16.71C7.87996 16.2516 7.50836 15.88 7.04996 15.88C6.59156 15.88 6.21996 16.2516 6.21996 16.71V17.24H5.68996C5.26932 17.2864 4.95093 17.6418 4.95093 18.065C4.95093 18.4882 5.26932 18.8436 5.68996 18.89H6.21996V19.42C6.21996 19.8784 6.59156 20.25 7.04996 20.25C7.50836 20.25 7.87996 19.8784 7.87996 19.42V18.89H8.40996C8.72639 18.9249 9.0349 18.7757 9.20406 18.506C9.37322 18.2363 9.37322 17.8937 9.20406 17.624C9.0349 17.3543 8.72639 17.2051 8.40996 17.24Z" fill="currentColor" />
</svg>
