<svg viewBox="0 0 24 24" fill="none" xmlns="http://www.w3.org/2000/svg">
    <path fill-rule="evenodd" clip-rule="evenodd" d="M2 3C0.895431 3 0 3.89543 0 5V19C0 20.1046 0.89543 21 2 21H22C23.1046 21 24 20.1046 24 19V5C24 3.89543 23.1046 3 22 3H2ZM7.00443 6.80039H6.46022C5.28349 6.82122 4.34051 7.78118 4.3407 8.9581V9.61687C4.3407 10.9615 5.4307 12.0515 6.77529 12.0515C8.11988 12.0515 9.20988 10.9615 9.20988 9.61687V8.9581C9.20742 8.37829 8.97272 7.82364 8.55827 7.41815C8.14381 7.01267 7.58416 6.79016 7.00443 6.80039ZM7.73962 9.61693C7.73962 10.1706 7.2908 10.6194 6.73715 10.6194C6.18349 10.6194 5.73467 10.1706 5.73467 9.61693V8.95816C5.73467 8.55742 6.05953 8.23255 6.46027 8.23255H7.00447C7.40679 8.23252 7.7344 8.55588 7.73962 8.95816V9.61693ZM10.3365 14.1519C10.1569 13.2345 9.36169 12.5665 8.427 12.548H5.04721C4.11116 12.5629 3.31399 13.2325 3.13773 14.1519L3.04226 14.5911C2.91658 15.2025 3.07455 15.8379 3.47189 16.3192C3.83401 16.7715 4.3819 17.0349 4.96129 17.0353H8.50338C9.08611 17.0378 9.63811 16.7741 10.0023 16.3192C10.3926 15.8344 10.5465 15.201 10.4224 14.5911L10.3365 14.1519ZM8.89482 15.4121C8.79661 15.5275 8.65475 15.5967 8.50338 15.6031H4.96129C4.81172 15.6002 4.67142 15.5301 4.57939 15.4121C4.45438 15.2643 4.40818 15.0653 4.45528 14.8775L4.5412 14.4383C4.58117 14.1856 4.79179 13.9948 5.04722 13.98H8.41745C8.67509 13.994 8.88891 14.1841 8.93301 14.4383L9.01894 14.8775C9.05604 15.0652 9.01085 15.2599 8.89482 15.4121ZM12.8 9C12.8 8.6134 13.1134 8.3 13.5 8.3H20.5C20.8866 8.3 21.2 8.6134 21.2 9C21.2 9.3866 20.8866 9.7 20.5 9.7H13.5C13.1134 9.7 12.8 9.3866 12.8 9ZM13.5 11.3C13.1134 11.3 12.8 11.6134 12.8 12C12.8 12.3866 13.1134 12.7 13.5 12.7H20.5C20.8866 12.7 21.2 12.3866 21.2 12C21.2 11.6134 20.8866 11.3 20.5 11.3H13.5ZM12.8 15C12.8 14.6134 13.1134 14.3 13.5 14.3H20.5C20.8866 14.3 21.2 14.6134 21.2 15C21.2 15.3866 20.8866 15.7 20.5 15.7H13.5C13.1134 15.7 12.8 15.3866 12.8 15Z" fill="currentColor" />
</svg>