<svg viewBox="0 0 24 24" fill="none" xmlns="http://www.w3.org/2000/svg">
    <rect x="0.7" y="3.7" width="22.6" height="16.6" rx="1.3" stroke="currentColor" stroke-width="1.4" />
    <path fill-rule="evenodd" clip-rule="evenodd" d="M6.46022 6.80039H7.00443C7.58416 6.79016 8.14381 7.01267 8.55827 7.41815C8.97272 7.82364 9.20742 8.37829 9.20988 8.9581V9.61687C9.20988 10.9615 8.11988 12.0515 6.77529 12.0515C5.4307 12.0515 4.3407 10.9615 4.3407 9.61687V8.9581C4.34051 7.78118 5.28349 6.82122 6.46022 6.80039ZM6.73715 10.6194C7.2908 10.6194 7.73962 10.1706 7.73962 9.61693V8.95816C7.7344 8.55588 7.40679 8.23252 7.00447 8.23255H6.46027C6.05953 8.23255 5.73467 8.55742 5.73467 8.95816V9.61693C5.73467 10.1706 6.18349 10.6194 6.73715 10.6194Z" fill="currentColor" />
    <path fill-rule="evenodd" clip-rule="evenodd" d="M8.427 12.548C9.36169 12.5665 10.1569 13.2345 10.3365 14.1519L10.4224 14.5911C10.5465 15.201 10.3926 15.8344 10.0023 16.3192C9.63811 16.7741 9.08611 17.0378 8.50338 17.0353H4.96129C4.3819 17.0349 3.83401 16.7715 3.47189 16.3192C3.07455 15.8379 2.91658 15.2025 3.04226 14.5911L3.13773 14.1519C3.31399 13.2325 4.11116 12.5629 5.04721 12.548H8.427ZM8.50338 15.6031C8.65475 15.5967 8.79661 15.5275 8.89483 15.4121C9.01085 15.2599 9.05604 15.0652 9.01894 14.8775L8.93301 14.4383C8.88891 14.1841 8.67509 13.994 8.41745 13.98H5.04722C4.79179 13.9948 4.58117 14.1856 4.5412 14.4383L4.45528 14.8775C4.40818 15.0653 4.45438 15.2643 4.57939 15.4121C4.67142 15.5301 4.81172 15.6002 4.96129 15.6031H8.50338Z" fill="currentColor" />
    <path d="M13.5 9H20.5" stroke="currentColor" stroke-width="1.4" stroke-linecap="round" />
    <path d="M13.5 12H20.5" stroke="currentColor" stroke-width="1.4" stroke-linecap="round" />
    <path d="M13.5 15H20.5" stroke="currentColor" stroke-width="1.4" stroke-linecap="round" />
</svg>