<svg viewBox="0 0 24 24" fill="none" xmlns="http://www.w3.org/2000/svg">
    <path fill-rule="evenodd" clip-rule="evenodd"
        d="M22 6.4021C22 4.4691 20.433 2.9021 18.5 2.9021H5.42692C3.53807 2.90209 2.00535 4.40686 2.00001 6.26652V6.44756H22V6.4021ZM2.00001 17.5607V8.44756H22L22 17.5607C22 19.4256 20.4673 20.9389 18.5731 20.9442H5.42692C4.51637 20.9442 3.64325 20.5874 3.0003 19.9526C2.35735 19.3178 1.99744 18.4572 2.00001 17.5607ZM15.7948 17.9515H16.9371C17.7623 17.9829 18.5643 17.6793 19.1555 17.1116C19.7467 16.544 20.0751 15.7622 20.0639 14.9492C20.0639 14.5544 19.7388 14.2344 19.3379 14.2344C18.9369 14.2344 18.6118 14.5544 18.6118 14.9492C18.6158 15.3784 18.4369 15.7897 18.1186 16.0831C17.8004 16.3765 17.3719 16.5252 16.9371 16.4932H15.7851C15.9862 16.2194 15.9619 15.8437 15.727 15.5973C15.4436 15.3186 14.9844 15.3186 14.7009 15.5973L13.5005 16.722C13.358 16.8584 13.2776 17.0457 13.2776 17.2414C13.2776 17.4371 13.358 17.6245 13.5005 17.7608L14.7203 18.8855C14.855 19.0072 15.031 19.0752 15.214 19.0761C15.416 19.0761 15.609 18.9932 15.7464 18.8474C15.9782 18.5986 15.9985 18.223 15.7948 17.9515ZM19.8412 12.8238L18.6408 13.9484C18.5056 14.0767 18.3252 14.1485 18.1374 14.1486C17.8678 14.1468 17.6221 13.9961 17.5015 13.7587C17.3809 13.5213 17.406 13.2374 17.5663 13.0239H16.4046C15.9698 12.9919 15.5413 13.1407 15.2231 13.4341C14.9048 13.7275 14.726 14.1387 14.7299 14.5679C14.7299 14.9627 14.4048 15.2828 14.0038 15.2828C13.6029 15.2828 13.2778 14.9627 13.2778 14.5679C13.2746 13.7599 13.6065 12.9856 14.1968 12.4243C14.7871 11.8629 15.5845 11.5631 16.4046 11.5943H17.5469C17.374 11.4036 17.3175 11.1366 17.3988 10.8938C17.4801 10.651 17.6867 10.4694 17.9409 10.4173C18.1951 10.3651 18.4582 10.4505 18.6311 10.6412L19.8412 11.7659C19.9837 11.9022 20.0642 12.0896 20.0642 12.2853C20.0642 12.481 19.9837 12.6683 19.8412 12.8047V12.8238ZM5.63636 15.5385C5.08408 15.5385 4.63636 15.9862 4.63636 16.5385C4.63636 17.0908 5.08408 17.5385 5.63636 17.5385H8.36364C8.91592 17.5385 9.36364 17.0908 9.36364 16.5385C9.36364 15.9862 8.91592 15.5385 8.36364 15.5385H5.63636Z"
        fill="currentColor" />
</svg>
