<svg viewBox="0 0 24 24" xmlns="http://www.w3.org/2000/svg">
  <path
    d="M5.32966 2H18.6704C20.144 2 21.3386 3.19457 21.3386 4.66816V6.89162C21.3386 8.3652 20.144 9.55978 18.6704 9.55978H12V8.00335H18.6704C19.2844 8.00335 19.7822 7.50561 19.7822 6.89162V4.66816C19.7822 4.05416 19.2844 3.55642 18.6704 3.55642H5.32966C4.71566 3.55642 4.21792 4.05416 4.21792 4.66816V6.89162C4.21792 7.50561 4.71566 8.00335 5.32966 8.00335L6.99725 8.00338V9.55978H5.32966C3.85607 9.55978 2.6615 8.3652 2.6615 6.89162V4.66816C2.6615 3.19457 3.85607 2 5.32966 2Z"
    fill="currentColor" />
  <path fill-rule="evenodd" clip-rule="evenodd"
    d="M6.8855 5.77991C6.33321 5.77991 5.8855 6.22762 5.8855 6.77991V20.9C5.8855 21.4523 6.33321 21.9 6.8855 21.9H8.10897V5.77992H9.66539V21.9H17.1145C17.6668 21.9 18.1145 21.4523 18.1145 20.9V6.77991C18.1145 6.22762 17.6668 5.77991 17.1145 5.77991H6.8855ZM13.1118 16.7855C13.1118 16.2332 13.5595 15.7855 14.1118 15.7855H15.4469C15.9992 15.7855 16.4469 16.2332 16.4469 16.7855V19.2324C16.4469 19.7847 15.9992 20.2324 15.4469 20.2324H14.1118C13.5595 20.2324 13.1118 19.7847 13.1118 19.2324V16.7855Z"
    fill="currentColor" />
</svg>
