<svg viewBox="0 0 24 24" fill="none" xmlns="http://www.w3.org/2000/svg">
    <path fill-rule="evenodd" clip-rule="evenodd"
        d="M20.5235 16.2059C20.3048 16.2059 20.0959 16.1148 19.9471 15.9544C19.6492 15.6389 19.6632 15.1417 19.9786 14.8436L20.0938 14.7388H18.2914C17.6872 14.6775 17.0861 14.8814 16.6438 15.2975C16.2015 15.7137 15.9615 16.3012 15.9858 16.908C15.9858 17.3421 15.6339 17.694 15.1999 17.694C14.7658 17.694 14.4139 17.3421 14.4139 16.908C14.4073 15.8899 14.8182 14.9135 15.5509 14.2065C16.2836 13.4995 17.2741 13.1238 18.2914 13.1668H20.1148L19.9995 13.062C19.7462 12.7608 19.7547 12.3187 20.0195 12.0274C20.2842 11.7362 20.7236 11.6857 21.0475 11.9093L22.609 13.3764C22.7632 13.5264 22.8503 13.7324 22.8503 13.9475C22.8503 14.1627 22.7632 14.3687 22.609 14.5187L21.058 15.9858C20.9155 16.1263 20.7236 16.2053 20.5235 16.2059ZM21.278 17.4425C21.278 17.0084 21.6299 16.6565 22.064 16.6565C22.2697 16.6593 22.4658 16.7436 22.6093 16.891C22.7528 17.0385 22.8318 17.2368 22.829 17.4425C22.8327 18.4597 22.4208 19.4343 21.6888 20.1406C20.9567 20.847 19.968 21.2237 18.9516 21.1837H17.1596L17.2748 21.2885C17.5107 21.5913 17.4934 22.0201 17.2339 22.3029C16.9745 22.5856 16.5488 22.6397 16.2269 22.4308L14.6654 20.9636C14.5111 20.8137 14.4241 20.6077 14.4241 20.3925C14.4241 20.1773 14.5111 19.9713 14.6654 19.8214L16.2164 18.3542C16.4083 18.1079 16.7278 17.9985 17.0303 18.0756C17.3329 18.1526 17.5612 18.4014 17.612 18.7095C17.6627 19.0176 17.5263 19.3265 17.2644 19.4965L17.1491 19.6118H18.9725C19.5767 19.673 20.1778 19.4691 20.6201 19.053C21.0623 18.6368 21.3024 18.0493 21.278 17.4425Z"
        fill="currentColor" />
    <path
        d="M21 10V5C21 3.89543 20.1046 3 19 3H5C3.89543 3 3 3.89543 3 5V18C3 19.1046 3.89543 20 5 20H12.5M20.5 8H4M9.5 15H6.5"
        stroke="currentColor" stroke-width="1.5" stroke-linecap="round" />
</svg>
