<svg xmlns="http://www.w3.org/2000/svg" xmlns:xlink="http://www.w3.org/1999/xlink" x="0px" y="0px"
   viewBox="0 0 16 16" xml:space="preserve">
<path fill="currentColor" d="M12.5,4.5h-1C11.2,4.5,11,4.7,11,5v2.1c0,0.3,0.2,0.5,0.5,0.5h1c0.3,0,0.5-0.2,0.5-0.5l0,0l0,0V4.9
  C13,4.7,12.8,4.5,12.5,4.5z M14,1.5H2c-1.1,0-2,0.8-2,1.9v9.1c0,1.1,0.9,2,2,2h12c1.1,0,2-0.9,2-2c0,0,0,0,0,0V3.4
  C16,2.3,15.1,1.5,14,1.5C14,1.5,14,1.5,14,1.5L14,1.5z M8.5,12.6h-6c-0.3,0-0.6-0.2-0.6-0.4c0-0.3,0.2-0.6,0.4-0.6h6.1
  c0.3,0,0.5,0.2,0.6,0.4c0,0.3-0.1,0.5-0.4,0.6c0,0,0,0,0,0C8.6,12.5,8.6,12.5,8.5,12.6L8.5,12.6z M8.5,10.6h-6
  c-0.3,0-0.5-0.1-0.6-0.4c0-0.3,0.1-0.5,0.4-0.6c0,0,0,0,0,0h6.1C8.8,9.5,9,9.7,9.1,10c0,0.3-0.1,0.5-0.4,0.6c0,0,0,0,0,0L8.5,10.6z
   M14,7.6c0,0.6-0.5,1-1,1h-2c-0.5,0-1-0.4-1-1c0,0,0,0,0,0V4.5c0-0.5,0.4-1,1-1l0,0h2c0.5,0,1,0.4,1,1c0,0,0,0,0,0V7.6z"/>
</svg>
