<svg viewBox="0 0 24 24" xmlns="http://www.w3.org/2000/svg">
  <path fill-rule="evenodd" clip-rule="evenodd"
    d="M4.57996 2H8.74996C9.9926 2 11 3.00736 11 4.25V6.42C11 7.66264 9.9926 8.67 8.74996 8.67H4.57996C3.33732 8.67 2.32996 7.66264 2.32996 6.42V4.25C2.32996 3.00736 3.33732 2 4.57996 2ZM8.74996 7.17C9.16192 7.16461 9.49457 6.83196 9.49996 6.42V4.25C9.49457 3.83804 9.16192 3.50539 8.74996 3.5H4.57996C4.16799 3.50539 3.83534 3.83804 3.82996 4.25V6.42C3.83534 6.83196 4.16799 7.16461 4.57996 7.17H8.74996Z"
    fill="currentColor" />
  <path fill-rule="evenodd" clip-rule="evenodd"
    d="M15.9199 2H19.4199C20.6626 2 21.6699 3.00736 21.6699 4.25V11.08C21.6699 12.3226 20.6626 13.33 19.4199 13.33H15.9199C15.3224 13.3327 14.7485 13.0965 14.326 12.6739C13.9035 12.2514 13.6673 11.6776 13.6699 11.08V4.25C13.6699 3.00736 14.6773 2 15.9199 2ZM19.4199 11.83C19.8342 11.83 20.1699 11.4942 20.1699 11.08V4.25C20.1646 3.83804 19.8319 3.50539 19.4199 3.5H15.9199C15.5057 3.5 15.1699 3.83579 15.1699 4.25V11.08C15.1672 11.2797 15.2454 11.4721 15.3866 11.6133C15.5279 11.7546 15.7202 11.8327 15.9199 11.83H19.4199Z"
    fill="currentColor" />
  <path fill-rule="evenodd" clip-rule="evenodd"
    d="M15.9199 16H19.4199C20.6626 16 21.6699 17.0074 21.6699 18.25V19.75C21.6699 20.9926 20.6626 22 19.4199 22H15.9199C14.6773 22 13.6699 20.9926 13.6699 19.75V18.25C13.6699 17.0074 14.6773 16 15.9199 16ZM19.4199 20.5C19.8319 20.4946 20.1645 20.162 20.1699 19.75V18.25C20.1645 17.838 19.8319 17.5054 19.4199 17.5H15.9199C15.5057 17.5 15.1699 17.8358 15.1699 18.25V19.75C15.1699 20.1642 15.5057 20.5 15.9199 20.5H19.4199Z"
    fill="currentColor" />
  <path fill-rule="evenodd" clip-rule="evenodd"
    d="M4.57996 11.33H8.74996C9.9926 11.33 11 12.3373 11 13.58V19.75C11 20.9926 9.9926 22 8.74996 22H4.57996C3.33732 22 2.32996 20.9926 2.32996 19.75V13.58C2.32996 12.3373 3.33732 11.33 4.57996 11.33ZM8.74996 20.5C9.16192 20.4946 9.49457 20.1619 9.49996 19.75V13.58C9.49457 13.168 9.16192 12.8353 8.74996 12.83H4.57996C4.16799 12.8353 3.83534 13.168 3.82996 13.58V19.75C3.83534 20.1619 4.16799 20.4946 4.57996 20.5H8.74996Z"
    fill="currentColor" />
</svg>
