<svg viewBox="0 0 24 24" fill="none" xmlns="http://www.w3.org/2000/svg">
    <path fill-rule="evenodd" clip-rule="evenodd" d="M15.4201 4.65C15.4201 5.06421 15.0843 5.4 14.6701 5.4H7.24006V5.49C7.2346 6.45422 6.45429 7.23453 5.49006 7.24H3.81006C2.84583 7.23453 2.06552 6.45422 2.06006 5.49V3.81C2.06552 2.84577 2.84583 2.06546 3.81006 2.06H5.49006C6.45429 2.06546 7.2346 2.84577 7.24006 3.81V3.9H14.6701C15.0843 3.9 15.4201 4.23578 15.4201 4.65ZM5.49006 5.74C5.62813 5.74 5.74006 5.62807 5.74006 5.49V3.81C5.74006 3.67193 5.62813 3.56 5.49006 3.56H3.81006C3.67417 3.56513 3.56519 3.67411 3.56006 3.81V5.49C3.56006 5.62807 3.67199 5.74 3.81006 5.74H5.49006Z" fill="currentColor" />
    <path fill-rule="evenodd" clip-rule="evenodd" d="M18.51 2.06H20.19C21.1542 2.06546 21.9345 2.84577 21.94 3.81V5.49C21.9345 6.45422 21.1542 7.23453 20.19 7.24H20.1V14.67C20.1 15.0842 19.7642 15.42 19.35 15.42C18.9358 15.42 18.6 15.0842 18.6 14.67V7.24H18.51C17.5458 7.23453 16.7655 6.45422 16.76 5.49V3.81C16.7655 2.84577 17.5458 2.06546 18.51 2.06ZM20.19 5.74C20.3281 5.74 20.44 5.62807 20.44 5.49V3.81C20.4349 3.67411 20.3259 3.56513 20.19 3.56H18.51C18.3719 3.56 18.26 3.67193 18.26 3.81V5.49C18.26 5.62807 18.3719 5.74 18.51 5.74H20.19Z" fill="currentColor" />
    <path fill-rule="evenodd" clip-rule="evenodd" d="M5.40006 16.76H5.49006C6.45429 16.7655 7.2346 17.5458 7.24006 18.51V20.19C7.2346 21.1542 6.45429 21.9346 5.49006 21.94H3.81006C2.84583 21.9346 2.06552 21.1542 2.06006 20.19V18.51C2.06552 17.5458 2.84583 16.7655 3.81006 16.76H3.90006V9.33002C3.90006 8.9158 4.23584 8.58002 4.65006 8.58002C5.06427 8.58002 5.40006 8.9158 5.40006 9.33002V16.76ZM5.49006 20.44C5.62813 20.44 5.74006 20.3281 5.74006 20.19V18.51C5.74006 18.3719 5.62813 18.26 5.49006 18.26H3.81006C3.67199 18.26 3.56006 18.3719 3.56006 18.51V20.19C3.56519 20.3259 3.67417 20.4349 3.81006 20.44H5.49006Z" fill="currentColor" />
    <path fill-rule="evenodd" clip-rule="evenodd" d="M18.5101 16.76H20.1901C21.1543 16.7655 21.9346 17.5458 21.9401 18.51V20.19C21.9346 21.1542 21.1543 21.9345 20.1901 21.94H18.5101C17.5459 21.9345 16.7655 21.1542 16.7601 20.19V20.1H9.33008C8.91586 20.1 8.58008 19.7642 8.58008 19.35C8.58008 18.9358 8.91586 18.6 9.33008 18.6H16.7601V18.51C16.7655 17.5458 17.5459 16.7655 18.5101 16.76ZM20.1901 20.44C20.326 20.4349 20.4349 20.3259 20.4401 20.19V18.51C20.4401 18.3719 20.3281 18.26 20.1901 18.26H18.5101C18.372 18.26 18.2601 18.3719 18.2601 18.51V20.19C18.2601 20.3281 18.372 20.44 18.5101 20.44H20.1901Z" fill="currentColor" />
</svg>