<svg viewBox="0 0 24 24" fill="none" xmlns="http://www.w3.org/2000/svg">
    <rect x="6.8999" y="16.3" width="0.8" height="0.8" rx="0.23" fill="currentColor" />
    <rect x="16.3" y="16.3" width="0.8" height="0.8" rx="0.23" fill="currentColor" />
    <rect x="6.8999" y="6.90002" width="0.8" height="0.8" rx="0.23" fill="currentColor" />
    <path fill-rule="evenodd" clip-rule="evenodd" d="M15.5599 2.44H8.43994C5.12623 2.44 2.43994 5.12629 2.43994 8.44V15.56C2.43994 18.8737 5.12623 21.56 8.43994 21.56H15.5599C18.8736 21.56 21.5599 18.8737 21.5599 15.56V8.44C21.5599 5.12629 18.8736 2.44 15.5599 2.44ZM5.34994 7.13C5.34994 6.14694 6.14687 5.35 7.12994 5.35H7.47994C8.22493 5.35954 8.8861 5.82953 9.13994 6.53H12.7099C13.1041 6.57484 13.4018 6.90834 13.4018 7.305C13.4018 7.70167 13.1041 8.03516 12.7099 8.08H9.13994C8.88521 8.77837 8.2233 9.2449 7.47994 9.25H7.12994C6.15077 9.25002 5.35544 8.45916 5.34994 7.48V7.13ZM7.47994 18.65C8.4591 18.6445 9.24996 17.8492 9.24994 16.87V16.52C9.24483 15.7766 8.77831 15.1147 8.07994 14.86V11.29C8.07996 11.084 7.99746 10.8867 7.85089 10.742C7.70432 10.5973 7.50589 10.5173 7.29994 10.52C7.0949 10.5173 6.89747 10.5975 6.75247 10.7425C6.60748 10.8875 6.52723 11.085 6.52994 11.29V14.86C5.82947 15.1138 5.35948 15.775 5.34994 16.52V16.87C5.34994 17.8531 6.14687 18.65 7.12994 18.65H7.47994ZM18.6499 16.87C18.6499 17.8531 17.853 18.65 16.8699 18.65H16.5199C15.775 18.6405 15.1138 18.1705 14.8599 17.47H11.2899C11.0849 17.4727 10.8875 17.3925 10.7425 17.2475C10.5975 17.1025 10.5172 16.905 10.5199 16.7C10.5173 16.4941 10.5972 16.2956 10.7419 16.1491C10.8866 16.0025 11.084 15.92 11.2899 15.92H14.8599C15.1147 15.2216 15.7766 14.7551 16.5199 14.75H16.8699C17.8491 14.75 18.6444 15.5408 18.6499 16.52V16.87ZM17.4699 9.14C18.1704 8.88617 18.6404 8.22499 18.6499 7.48V7.13C18.6499 6.14694 17.853 5.35 16.8699 5.35H16.5199C15.5408 5.3555 14.7499 6.15083 14.7499 7.13V7.48C14.755 8.22336 15.2216 8.88527 15.9199 9.14V12.71C15.9648 13.1041 16.2983 13.4018 16.6949 13.4018C17.0916 13.4018 17.4251 13.1041 17.4699 12.71V9.14Z" fill="currentColor" />
    <rect x="16.3" y="6.90002" width="0.8" height="0.8" rx="0.23" fill="currentColor" />
</svg>