<svg viewBox="0 0 24 24" fill="none" xmlns="http://www.w3.org/2000/svg">
<rect fill="currentColor" width="19.12" height="19.12" rx="2" transform="matrix(0 -1 -1 0 21.52 21.6)" />
<path d="M7.18997 8.90001C6.99113 8.90018 6.80049 8.97931 6.65997 9.12001C6.51702 9.25929 6.4364 9.45042 6.4364 9.65001C6.4364 9.84959 6.51702 10.0407 6.65997 10.18L11.43 14.96C11.5705 15.1007 11.7611 15.1798 11.96 15.18C12.1588 15.1798 12.3495 15.1007 12.49 14.96L17.26 10.18C17.4029 10.0407 17.4835 9.84959 17.4835 9.65001C17.4835 9.45042 17.4029 9.25929 17.26 9.12001C16.9672 8.82755 16.4928 8.82755 16.2 9.12001L11.96 13.37L7.71997 9.12001C7.57713 8.98283 7.38797 8.90431 7.18997 8.90001Z" fill="white"/>
</svg>
