<svg viewBox="0 0 24 24" xmlns="http://www.w3.org/2000/svg">
    <path fill-rule="evenodd" clip-rule="evenodd"
        d="M12 15.5C13.3807 15.5 14.5 14.3807 14.5 13C14.5 11.6193 13.3807 10.5 12 10.5C10.6193 10.5 9.5 11.6193 9.5 13C9.5 14.3807 10.6193 15.5 12 15.5ZM12 17C14.2091 17 16 15.2091 16 13C16 10.7909 14.2091 9 12 9C9.79086 9 8 10.7909 8 13C8 15.2091 9.79086 17 12 17Z"
        fill="currentColor" />
    <path fill-rule="evenodd" clip-rule="evenodd"
        d="M12 6.5C12.8284 6.5 13.5 5.82843 13.5 5C13.5 4.17157 12.8284 3.5 12 3.5C11.1716 3.5 10.5 4.17157 10.5 5C10.5 5.82843 11.1716 6.5 12 6.5ZM12 8C13.6569 8 15 6.65685 15 5C15 3.34315 13.6569 2 12 2C10.3431 2 9 3.34315 9 5C9 6.65685 10.3431 8 12 8Z"
        fill="currentColor" />
    <path fill-rule="evenodd" clip-rule="evenodd"
        d="M6.63286 6.7942C7.61037 5.77181 8.97606 5.34865 9.92533 5.25372L10.0746 6.74628C9.35719 6.81802 8.37289 7.14485 7.71706 7.8308C7.11274 8.46286 6.6845 9.50506 7.21833 11.2845L5.78159 11.7155C5.11542 9.49494 5.60384 7.87048 6.63286 6.7942Z"
        fill="currentColor" />
    <path fill-rule="evenodd" clip-rule="evenodd"
        d="M20.3236 13.5067C20.5432 15.0131 20.0043 16.2978 19.4161 17.0412L18.2397 16.1106C18.6123 15.6396 18.9906 14.7606 18.8393 13.723C18.6921 12.7127 18.0225 11.421 16.0612 10.1406L16.8812 8.88453C19.111 10.3402 20.1001 11.9729 20.3236 13.5067Z"
        fill="currentColor" />
    <path fill-rule="evenodd" clip-rule="evenodd"
        d="M9.63025 21.1137C8.41254 21.0381 7.41999 20.4934 6.65584 19.747L7.70395 18.6739C8.26005 19.2171 8.92759 19.5672 9.7232 19.6166C10.5258 19.6664 11.5506 19.4157 12.8224 18.583L13.6441 19.8379C12.1827 20.7948 10.8409 21.1888 9.63025 21.1137Z"
        fill="currentColor" />
    <path fill-rule="evenodd" clip-rule="evenodd"
        d="M19 20.5C19.8284 20.5 20.5 19.8284 20.5 19C20.5 18.1716 19.8284 17.5 19 17.5C18.1716 17.5 17.5 18.1716 17.5 19C17.5 19.8284 18.1716 20.5 19 20.5ZM19 22C20.6569 22 22 20.6569 22 19C22 17.3431 20.6569 16 19 16C17.3431 16 16 17.3431 16 19C16 20.6569 17.3431 22 19 22Z"
        fill="currentColor" />
    <path fill-rule="evenodd" clip-rule="evenodd"
        d="M5 20.5C5.82843 20.5 6.5 19.8284 6.5 19C6.5 18.1716 5.82843 17.5 5 17.5C4.17157 17.5 3.5 18.1716 3.5 19C3.5 19.8284 4.17157 20.5 5 20.5ZM5 22C6.65685 22 8 20.6569 8 19C8 17.3431 6.65685 16 5 16C3.34315 16 2 17.3431 2 19C2 20.6569 3.34315 22 5 22Z"
        fill="currentColor" />
    <path fill-rule="evenodd" clip-rule="evenodd"
        d="M17.3305 11.3023C17.0607 13.262 15.8295 14.9969 14.4685 16.0856L13.5 15C14.6391 14.0887 15.6393 12.588 15.8445 11.0977C16.0406 9.6733 15.558 8.06046 13.5589 6.60654L14.4411 5.39343C16.842 7.1395 17.6094 9.27667 17.3305 11.3023Z"
        fill="currentColor" />
    <path fill-rule="evenodd" clip-rule="evenodd"
        d="M6.5368 10.6439C8.28991 9.38244 10.5188 8.90839 12.2547 8.98015L12.1928 10.4789C10.7299 10.4184 8.84693 10.8296 7.4129 11.8614C6.02064 12.8632 5.02255 14.4633 5.247 16.9321L3.75316 17.0679C3.47758 14.0367 4.74192 11.9354 6.5368 10.6439Z"
        fill="currentColor" />
    <path fill-rule="evenodd" clip-rule="evenodd"
        d="M10.4772 18.4588C8.94434 16.9373 8 15.5 8.0001 13L9.5 13C9.5 15 10.28 16.1496 11.5339 17.3942C12.7513 18.6025 14.4938 19.3235 16.8919 18.6957L17.2719 20.1468C14.3274 20.9176 12.0466 20.0165 10.4772 18.4588Z"
        fill="currentColor" />
</svg>