<svg viewBox="0 0 24 24" xmlns="http://www.w3.org/2000/svg">
    <mask id="path-1-inside-1_675_1818" fill="#fff">
        <path fill-rule="evenodd" clip-rule="evenodd"
            d="M12 3C7.02944 3 3 7.02944 3 12C3 16.9706 7.02944 21 12 21C16.9706 21 21 16.9706 21 12C21 7.02944 16.9706 3 12 3ZM11.7 7C11.3134 7 11 7.3134 11 7.7V12.3C11 12.3695 11.0101 12.4366 11.029 12.5C11.0101 12.5634 11 12.6305 11 12.7C11 13.0866 11.3134 13.4 11.7 13.4H16.3C16.6866 13.4 17 13.0866 17 12.7C17 12.3134 16.6866 12 16.3 12H12.4V7.7C12.4 7.3134 12.0866 7 11.7 7Z" />
    </mask>
    <path fill-rule="evenodd" clip-rule="evenodd"
        d="M12 3C7.02944 3 3 7.02944 3 12C3 16.9706 7.02944 21 12 21C16.9706 21 21 16.9706 21 12C21 7.02944 16.9706 3 12 3ZM11.7 7C11.3134 7 11 7.3134 11 7.7V12.3C11 12.3695 11.0101 12.4366 11.029 12.5C11.0101 12.5634 11 12.6305 11 12.7C11 13.0866 11.3134 13.4 11.7 13.4H16.3C16.6866 13.4 17 13.0866 17 12.7C17 12.3134 16.6866 12 16.3 12H12.4V7.7C12.4 7.3134 12.0866 7 11.7 7Z"
        fill="currentColor" />
    <path
        d="M11.029 12.5L12.3708 12.8993L12.4897 12.5L12.3708 12.1007L11.029 12.5ZM16.3 13.4L16.3 12H16.3V13.4ZM12.4 12H11V13.4H12.4V12ZM4.4 12C4.4 7.80264 7.80264 4.4 12 4.4V1.6C6.25624 1.6 1.6 6.25624 1.6 12H4.4ZM12 19.6C7.80264 19.6 4.4 16.1974 4.4 12H1.6C1.6 17.7438 6.25624 22.4 12 22.4V19.6ZM19.6 12C19.6 16.1974 16.1974 19.6 12 19.6V22.4C17.7438 22.4 22.4 17.7438 22.4 12H19.6ZM12 4.4C16.1974 4.4 19.6 7.80264 19.6 12H22.4C22.4 6.25624 17.7438 1.6 12 1.6V4.4ZM12.4 7.7C12.4 8.0866 12.0866 8.4 11.7 8.4V5.6C10.5402 5.6 9.6 6.5402 9.6 7.7H12.4ZM12.4 12.3V7.7H9.6V12.3H12.4ZM12.3708 12.1007C12.3901 12.1655 12.4 12.2328 12.4 12.3H9.6C9.6 12.5062 9.63013 12.7078 9.68715 12.8993L12.3708 12.1007ZM12.4 12.7C12.4 12.7672 12.3901 12.8345 12.3708 12.8993L9.68715 12.1007C9.63013 12.2922 9.6 12.4938 9.6 12.7H12.4ZM11.7 12C12.0866 12 12.4 12.3134 12.4 12.7H9.6C9.6 13.8598 10.5402 14.8 11.7 14.8V12ZM16.3 12H11.7V14.8H16.3V12ZM15.6 12.7C15.6 12.3134 15.9134 12 16.3 12L16.3 14.8C17.4598 14.8 18.4 13.8598 18.4 12.7H15.6ZM16.3 13.4C15.9134 13.4 15.6 13.0866 15.6 12.7H18.4C18.4 11.5402 17.4598 10.6 16.3 10.6V13.4ZM12.4 13.4H16.3V10.6H12.4V13.4ZM11 7.7V12H13.8V7.7H11ZM11.7 8.4C11.3134 8.4 11 8.0866 11 7.7H13.8C13.8 6.5402 12.8598 5.6 11.7 5.6V8.4Z"
        fill="currentColor" mask="url(#path-1-inside-1_675_1818)" />
</svg>