<svg viewBox="0 0 24 24" xmlns="http://www.w3.org/2000/svg">
  <path fill-rule="evenodd" clip-rule="evenodd"
    d="M6 2H18C20.2091 2 22 3.79086 22 6V18C22 20.2091 20.2091 22 18 22H6C3.79086 22 2 20.2091 2 18V6C2 3.79086 3.79086 2 6 2ZM19.7678 19.7678C20.2366 19.2989 20.5 18.663 20.5 18V6C20.5 5.33696 20.2366 4.70107 19.7678 4.23223C19.2989 3.76339 18.663 3.5 18 3.5H6C4.61929 3.5 3.5 4.61929 3.5 6V18C3.5 18.663 3.76339 19.2989 4.23223 19.7678C4.70107 20.2366 5.33696 20.5 6 20.5H18C18.663 20.5 19.2989 20.2366 19.7678 19.7678Z"
    fill="currentColor" />
  <path
    d="M15.69 8.72996C15.3971 8.43751 14.9228 8.43751 14.63 8.72996L12.21 11.15L9.78996 8.72996C9.49445 8.4546 9.03395 8.46273 8.74834 8.74834C8.46273 9.03395 8.4546 9.49445 8.72996 9.78996L11.15 12.21L8.72996 14.63C8.43751 14.9228 8.43751 15.3971 8.72996 15.69C9.02278 15.9824 9.49714 15.9824 9.78996 15.69L12.21 13.27L14.63 15.69C14.7705 15.8307 14.9611 15.9098 15.16 15.91C15.358 15.9057 15.5471 15.8271 15.69 15.69C15.9824 15.3971 15.9824 14.9228 15.69 14.63L13.27 12.21L15.69 9.78996C15.9824 9.49714 15.9824 9.02278 15.69 8.72996Z"
    fill="currentColor" />
</svg>
