<svg viewBox="0 0 24 24" fill="none" xmlns="http://www.w3.org/2000/svg">
  <path fill-rule="evenodd" clip-rule="evenodd"
    d="M4.4 12C4.4 16.1974 7.80264 19.6 12 19.6C16.1974 19.6 19.6 16.1974 19.6 12C19.6 7.80264 16.1974 4.4 12 4.4C7.80264 4.4 4.4 7.80264 4.4 12ZM12 3C7.02944 3 3 7.02944 3 12C3 16.9706 7.02944 21 12 21C16.9706 21 21 16.9706 21 12C21 7.02944 16.9706 3 12 3Z"
    fill="currentColor" />
  <rect x="14.1569" y="8.79999" width="1.4" height="8" rx="0.7" transform="rotate(45 14.1569 8.79999)" fill="currentColor" />
  <rect x="15.2883" y="14.4569" width="1.4" height="8" rx="0.7" transform="rotate(135 15.2883 14.4569)"
    fill="currentColor" />
</svg>
