<svg version="1.1" xmlns="http://www.w3.org/2000/svg" xmlns:xlink="http://www.w3.org/1999/xlink" x="0px"
	y="0px" viewBox="0 0 16 16" style="enable-background:new 0 0 16 16;" xml:space="preserve">
	<path fill="currentColor" d="M7.8,11c-3.3,0-6-1-6-2.7V10c0,1.7,2.7,3,6,3s6-1.3,6-3V8.3C13.8,10,11.1,11,7.8,11z M7.8,14c-3.3,0-6-1-6-2.7V13
	c0,1.7,2.7,3,6,3s6-1.3,6-3v-1.7C13.8,13,11.1,14,7.8,14L7.8,14z M7.8,8c-3.3,0-6-1-6-2.7V7c0,1.7,2.7,3,6,3s6-1.3,6-3V5.3
	C13.8,7,11.1,8,7.8,8z M7.8,0c-3.3,0-6,1.3-6,3v1c0,1.7,2.7,3,6,3s6-1.3,6-3V3C13.8,1.3,11.1,0,7.8,0z" />
</svg>
