<svg viewBox="0 0 24 24" fill="none" xmlns="http://www.w3.org/2000/svg">
  <path fill-rule="evenodd" clip-rule="evenodd"
    d="M18.5 4.41992H5.50002C3.77165 4.50099 2.43221 5.96098 2.50002 7.68992V13.1499C2.43221 14.8789 3.77165 16.3389 5.50002 16.4199H9.24002C9.13756 17.058 8.98373 17.6867 8.78002 18.2999L8.44002 19.2399C8.3378 19.4909 8.35989 19.7754 8.49962 20.0077C8.63935 20.2399 8.88037 20.3927 9.15002 20.4199H14.85C15.1197 20.3927 15.3607 20.2399 15.5004 20.0077C15.6402 19.7754 15.6622 19.4909 15.56 19.2399L15.22 18.2999C15.0163 17.6867 14.8625 17.058 14.76 16.4199H18.5C20.2284 16.3389 21.5678 14.8789 21.5 13.1499V7.68992C21.5678 5.96098 20.2284 4.50099 18.5 4.41992ZM10.15 18.9199V18.7999C10.3668 18.1877 10.534 17.559 10.65 16.9199H13.27C13.3907 17.5579 13.5578 18.1863 13.77 18.7999V18.9199H10.15ZM18.5 14.9199C19.3978 14.8353 20.0638 14.0494 20 13.1499V7.68992C20.0638 6.79044 19.3978 6.00458 18.5 5.91992H5.50002C4.60227 6.00458 3.93629 6.79044 4.00002 7.68992V13.1499C3.93629 14.0494 4.60227 14.8353 5.50002 14.9199H18.5Z"
    fill="currentColor" />
  <path fill-rule="evenodd" clip-rule="evenodd"
    d="M8.25369 9.52853C8.5583 9.22393 9.05217 9.22393 9.35678 9.52853L11.2531 11.4249L14.753 7.92507C15.0576 7.62046 15.5514 7.62046 15.856 7.92507C16.1607 8.22968 16.1607 8.72355 15.856 9.02815L11.8047 13.0795C11.5001 13.3841 11.0062 13.3841 10.7016 13.0795L8.25369 10.6316C7.94908 10.327 7.94908 9.83314 8.25369 9.52853Z"
    fill="currentColor" />
</svg>
