<?xml version="1.0" encoding="utf-8"?>
<!-- Generator: Adobe Illustrator 24.1.0, SVG Export Plug-In . SVG Version: 6.00 Build 0)  -->
<svg version="1.1" id="图层_1" xmlns="http://www.w3.org/2000/svg" xmlns:xlink="http://www.w3.org/1999/xlink" x="0px" y="0px"
	 viewBox="0 0 16 16" style="enable-background:new 0 0 16 16;" xml:space="preserve">
<style type="text/css">
	.st0{fill:#285A83;}
	.st1{fill:#EF6F53;}
</style>
<g>
	<path class="st0" d="M14.4,1.8h-3V0.6c0-0.3-0.2-0.5-0.5-0.5s-0.5,0.2-0.5,0.5v1.1h-5V0.6c0-0.3-0.2-0.5-0.5-0.5
		c-0.3,0-0.5,0.2-0.5,0.5v1.1h-3C0.7,1.8,0,2.5,0,3.3V14c0,0.9,0.7,1.6,1.6,1.6h12.8c0.9,0,1.6-0.7,1.6-1.6V3.3
		C16,2.5,15.3,1.8,14.4,1.8z M1.6,2.7h3v1.1c0,0.3,0.2,0.5,0.5,0.5c0.3,0,0.5-0.2,0.5-0.5V2.7h5v1.1c0,0.3,0.2,0.5,0.5,0.5
		s0.5-0.2,0.5-0.5V2.7h3c0.4,0,0.7,0.3,0.7,0.7v2.5H0.9V3.3C0.9,3,1.2,2.7,1.6,2.7z M14.4,14.7H1.6c-0.4,0-0.7-0.3-0.7-0.7V6.8h14.2
		V14C15.1,14.4,14.8,14.7,14.4,14.7z"/>
	<path class="st1" d="M4.6,13.2c-0.1,0-0.2,0-0.3-0.1l-2-1.8c-0.2-0.2-0.2-0.5,0-0.6c0.2-0.2,0.5-0.2,0.6,0l1.6,1.4l2.6-3.7
		c0.1-0.2,0.4-0.3,0.6-0.1C8,8.5,8.1,8.7,7.9,8.9L5,13C4.9,13.2,4.8,13.2,4.6,13.2C4.7,13.2,4.6,13.2,4.6,13.2z"/>
	<path class="st0" d="M13.4,9.1h-3.2c-0.3,0-0.5-0.2-0.5-0.5s0.2-0.5,0.5-0.5h3.2c0.3,0,0.5,0.2,0.5,0.5S13.6,9.1,13.4,9.1z"/>
	<path class="st0" d="M13.4,11.2h-3.2c-0.3,0-0.5-0.2-0.5-0.5s0.2-0.5,0.5-0.5h3.2c0.3,0,0.5,0.2,0.5,0.5S13.6,11.2,13.4,11.2z"/>
	<path class="st0" d="M13.4,13.3h-3.2c-0.3,0-0.5-0.2-0.5-0.5c0-0.3,0.2-0.5,0.5-0.5h3.2c0.3,0,0.5,0.2,0.5,0.5
		C13.8,13.1,13.6,13.3,13.4,13.3z"/>
</g>
</svg>
