<svg viewBox="0 0 24 24" xmlns="http://www.w3.org/2000/svg">
  <path fill-rule="evenodd" clip-rule="evenodd"
    d="M12 3C7.02944 3 3 7.02944 3 12C3 16.9706 7.02944 21 12 21C16.9706 21 21 16.9706 21 12C21 7.02944 16.9706 3 12 3ZM16.4803 9.32341C16.2069 9.05004 15.7637 9.05004 15.4903 9.32341L11.3184 13.4953L8.98492 11.1619C8.71156 10.8885 8.26834 10.8885 7.99498 11.1619C7.72161 11.4353 7.72161 11.8785 7.99498 12.1518L10.682 14.8388C10.706 14.8628 10.7313 14.8847 10.7577 14.9045C10.7775 14.9309 10.7994 14.9563 10.8234 14.9803C11.0968 15.2536 11.54 15.2536 11.8134 14.9803L16.4803 10.3134C16.7536 10.04 16.7536 9.59678 16.4803 9.32341Z"
    fill="currentColor" />
</svg>
