<svg version="1.1"  xmlns="http://www.w3.org/2000/svg" xmlns:xlink="http://www.w3.org/1999/xlink" x="0px"
	y="0px" viewBox="0 0 16 16" style="enable-background:new 0 0 16 16;" xml:space="preserve">
	<path fill="currentColor" d="M10.6,11.4c0.4,0,0.8-0.4,0.8-0.8c0,0,0,0,0,0V0.8c0-0.4-0.4-0.8-0.8-0.8c0,0,0,0,0,0H0.8C0.4,0,0,0.4,0,0.8v9.8
	c0,0.4,0.4,0.8,0.8,0.8H10.6z" />
	<path fill="currentColor" d="M15.2,4.6h-2.6v7.1c0,0.5-0.4,0.9-0.9,0.9l0,0H4.6v2.6c0,0.4,0.4,0.8,0.8,0.8c0,0,0,0,0,0h9.8c0.4,0,0.8-0.4,0.8-0.8V5.4
	C16,4.9,15.6,4.6,15.2,4.6C15.2,4.6,15.2,4.6,15.2,4.6L15.2,4.6z" />
</svg>
