<svg viewBox="0 0 24 24" fill="none" xmlns="http://www.w3.org/2000/svg">
    <path
        d="M18.72 7.66999C18.6821 7.58074 18.6278 7.49935 18.56 7.42999L15.91 4.77999C15.723 4.57934 15.4414 4.49674 15.1757 4.5646C14.91 4.63247 14.7025 4.83997 14.6346 5.1057C14.5668 5.37143 14.6493 5.65302 14.85 5.83999L16.22 7.20999H10C8.72971 7.20731 7.51083 7.71144 6.61354 8.6106C5.71624 9.50977 5.21467 10.7297 5.22 12V18.72C5.22 19.1342 5.55579 19.47 5.97 19.47C6.38421 19.47 6.72 19.1342 6.72 18.72V12C6.71466 11.1275 7.05819 10.2891 7.67418 9.67126C8.29017 9.05339 9.12753 8.7073 10 8.70999H16.23L14.86 10.07C14.5675 10.3628 14.5675 10.8372 14.86 11.13C14.9999 11.2716 15.1909 11.3509 15.39 11.35C15.5893 11.3521 15.7808 11.2726 15.92 11.13L18.57 8.48999C18.6381 8.41708 18.6923 8.33236 18.73 8.23999C18.7968 8.05521 18.7932 7.85231 18.72 7.66999Z"
        fill="currentColor" />
</svg>