<svg viewBox="0 0 24 24" xmlns="http://www.w3.org/2000/svg">
  <path fill-rule="evenodd" clip-rule="evenodd"
    d="M11.0026 4.06242C11.5506 3.99356 12 4.44772 12 5.00001V11C12 11.5523 12.4477 12 13 12H19C19.5523 12 20.0064 12.4495 19.9376 12.9974C19.7832 14.2262 19.3449 15.4073 18.6518 16.4446C17.7727 17.7602 16.5233 18.7855 15.0615 19.391C13.5997 19.9965 11.9911 20.155 10.4393 19.8463C8.88743 19.5376 7.46197 18.7757 6.34315 17.6569C5.22433 16.538 4.4624 15.1126 4.15372 13.5607C3.84504 12.0089 4.00347 10.4003 4.60897 8.93854C5.21447 7.47673 6.23985 6.2273 7.55544 5.34825C8.59276 4.65514 9.77376 4.21683 11.0026 4.06242Z"
    fill="currentColor" />
  <path fill-rule="evenodd" clip-rule="evenodd"
    d="M20.6999 10C20.6999 9.12015 20.5266 8.24891 20.1899 7.43602C19.8532 6.62314 19.3597 5.88454 18.7375 5.26239C18.1154 4.64023 17.3768 4.14672 16.5639 3.81001C15.751 3.4733 14.8798 3.3 13.9999 3.3C13.8143 3.3 13.6362 3.37375 13.505 3.50503C13.3737 3.6363 13.2999 3.81435 13.2999 4V10C13.2999 10.3866 13.6133 10.7 13.9999 10.7L19.9999 10.7C20.1856 10.7 20.3636 10.6263 20.4949 10.495C20.6262 10.3637 20.6999 10.1857 20.6999 10Z"
    fill="currentColor" />
</svg>
