<svg viewBox="0 0 24 24" xmlns="http://www.w3.org/2000/svg">
    <path fill-rule="evenodd" clip-rule="evenodd"
        d="M14.488 2.37231H5.2146C3.00546 2.37231 1.2146 4.16318 1.2146 6.37231V16.9695C1.2146 19.1786 3.00546 20.9695 5.2146 20.9695H13.488C14.2767 20.9695 15.0228 20.7869 15.6862 20.4616L13.5986 18.9445C12.9834 18.523 12.726 17.7421 12.9698 17.0374L13.6405 13.7575C13.8293 12.7534 14.7147 12.0318 15.7363 12.0494H18.488V6.37232C18.488 4.16318 16.6972 2.37231 14.488 2.37231ZM6.78297 6.93663C6.5178 6.61842 6.04488 6.57543 5.72667 6.8406C5.40846 7.10577 5.36547 7.5787 5.63064 7.8969L6.96879 9.50269H5.73022C5.31601 9.50269 4.98022 9.83847 4.98022 10.2527C4.98022 10.6669 5.31601 11.0027 5.73022 11.0027H7.81616V12.3386H5.73022C5.31601 12.3386 4.98022 12.6744 4.98022 13.0886C4.98022 13.5028 5.31601 13.8386 5.73022 13.8386H7.81616V15.9246C7.81616 16.3388 8.15195 16.6746 8.56616 16.6746C8.98038 16.6746 9.31616 16.3388 9.31616 15.9246V13.8386H11.4021C11.8163 13.8386 12.1521 13.5028 12.1521 13.0886C12.1521 12.6744 11.8163 12.3386 11.4021 12.3386H9.31616V11.0027H11.4021C11.8163 11.0027 12.1521 10.6669 12.1521 10.2527C12.1521 9.83847 11.8163 9.50269 11.4021 9.50269H10.1714L11.5095 7.8969C11.7747 7.5787 11.7317 7.10577 11.4135 6.8406C11.0953 6.57543 10.6224 6.61842 10.3572 6.93663L8.57009 9.08117L6.78297 6.93663Z"
        fill="currentColor" />
    <path
        d="M17.7533 14.8506L16.2338 16.7997C15.9676 17.1448 16.0283 17.6399 16.3701 17.9104C16.5104 18.012 16.6789 18.0669 16.8521 18.0676C17.0943 18.0685 17.323 17.956 17.4704 17.7637L19.0003 15.8147C19.2665 15.4703 19.2032 14.9753 18.8588 14.7091C18.5145 14.4429 18.0195 14.5062 17.7533 14.8506Z"
        fill="currentColor" />
    <path fill-rule="evenodd" clip-rule="evenodd"
        d="M21.7982 13.7084L22.4898 17.0721C22.6993 17.752 22.445 18.4892 21.861 18.8955L18.6021 21.2637C18.0126 21.6837 17.2216 21.6837 16.632 21.2637L13.3731 18.8955C12.7579 18.4739 12.5005 17.6931 12.7444 16.9883L13.415 13.7084C13.6039 12.7043 14.4892 11.9827 15.5108 12.0003H19.7024C20.7166 12.0035 21.5904 12.7157 21.7982 13.7084ZM17.6799 19.9434L20.9389 17.5961C20.9943 17.5809 21.03 17.5273 21.0227 17.4703L20.3206 14.0228C20.2658 13.754 20.0291 13.5611 19.7548 13.5617H15.5632C15.2889 13.5611 15.0522 13.754 14.9973 14.0228L14.2952 17.376C14.2428 17.5018 14.2952 17.5856 14.2952 17.5856L17.5542 19.9434C17.59 19.9754 17.6441 19.9754 17.6799 19.9434Z"
        fill="currentColor" />
</svg>