<svg viewBox="0 0 24 24" xmlns="http://www.w3.org/2000/svg">
    <path fill-rule="evenodd" clip-rule="evenodd"
        d="M11.55 15.08L12.13 17.89C12.3006 18.4881 12.0764 19.1288 11.57 19.49L8.84001 21.49C8.58629 21.6803 8.27717 21.7822 7.96001 21.78C7.63978 21.7822 7.32749 21.6804 7.07001 21.49L4.35001 19.49C3.82112 19.109 3.59884 18.43 3.80001 17.81L4.36001 15.08C4.54458 14.2 5.32081 13.5698 6.22001 13.57H9.69001C10.5892 13.5698 11.3654 14.2 11.55 15.08ZM5.25001 18.2L8.00001 20.26L10.68 18.28L10.08 15.38C10.0381 15.1984 9.87635 15.0699 9.69001 15.07H6.22001C6.03367 15.0699 5.87194 15.1984 5.83001 15.38L5.25001 18.2Z"
        fill="currentColor" />
    <path
        d="M8.00006 16.48L7.00006 17.48C6.85711 17.6193 6.77649 17.8104 6.77649 18.01C6.77649 18.2096 6.85711 18.4007 7.00006 18.54C7.1379 18.6847 7.33031 18.7645 7.53006 18.76C7.70815 18.7458 7.87509 18.6677 8.00006 18.54L9.00006 17.54C9.27057 17.3862 9.41801 17.0813 9.37061 16.7738C9.32321 16.4663 9.09082 16.2199 8.78655 16.1547C8.48228 16.0895 8.16935 16.2189 8.00006 16.48Z"
        fill="currentColor" />
    <path fill-rule="evenodd" clip-rule="evenodd"
        d="M13.0501 2.43002L20.0501 9.43002C20.1989 9.58155 20.2785 9.78781 20.2701 10V17C20.2701 19.6234 18.1434 21.75 15.5201 21.75H12.6501C12.2359 21.75 11.9001 21.4142 11.9001 21C11.9001 20.5858 12.2359 20.25 12.6501 20.25H15.5201C17.315 20.25 18.7701 18.7949 18.7701 17V10.75H14.5201C13.0013 10.75 11.7701 9.51881 11.7701 8.00002V3.74002H9.52007C7.72352 3.74553 6.27006 5.20347 6.27007 7.00002V12C6.27007 12.4142 5.93428 12.75 5.52007 12.75C5.10585 12.75 4.77007 12.4142 4.77007 12V7.00002C4.7594 5.73333 5.25513 4.51484 6.14709 3.61538C7.03904 2.71591 8.25333 2.20998 9.52007 2.21002H12.5201C12.7189 2.2102 12.9095 2.28933 13.0501 2.43002ZM13.2701 4.77002V8.00002C13.2756 8.68647 13.8336 9.24004 14.5201 9.24002H17.7401L13.2701 4.77002Z"
        fill="currentColor" />
</svg>