<svg viewBox="0 0 24 24" xmlns="http://www.w3.org/2000/svg">
    <path
        d="M14.242 9.07303H18.862C19.1088 9.09338 19.3397 8.94915 19.4297 8.71839C19.5197 8.48764 19.4474 8.22517 19.252 8.07303L13.702 2.62303C13.5498 2.42758 13.2874 2.3553 13.0566 2.44529C12.8259 2.53529 12.6816 2.76618 12.702 3.01303V7.58303C12.7018 7.98702 12.8656 8.37378 13.1559 8.6547C13.4463 8.93561 13.8382 9.08658 14.242 9.07303Z"
        fill="currentColor" />
    <path fill-rule="evenodd" clip-rule="evenodd"
        d="M8.07202 13.933H11.502C11.6843 13.9187 11.8531 14.0299 11.912 14.203L12.512 17.093L9.78202 19.093L7.07202 17.023L7.68202 14.243C7.72395 14.0614 7.88568 13.9329 8.07202 13.933ZM9.81202 17.403L10.812 16.403V16.373C11.085 16.0839 11.085 15.6321 10.812 15.343C10.6727 15.2001 10.4816 15.1194 10.282 15.1194C10.0824 15.1194 9.89131 15.2001 9.75202 15.343L8.75202 16.343C8.45957 16.6358 8.45957 17.1102 8.75202 17.403C8.89487 17.5402 9.08402 17.6187 9.28202 17.623C9.48044 17.6207 9.6703 17.5419 9.81202 17.403Z"
        fill="currentColor" />
    <path fill-rule="evenodd" clip-rule="evenodd"
        d="M14.142 10.173H18.922C19.1981 10.173 19.422 10.3969 19.422 10.673V17.593C19.422 19.8022 17.6311 21.593 15.422 21.593H8.53198C6.32284 21.593 4.53198 19.8022 4.53198 17.593V6.43304C4.53198 4.22391 6.32284 2.43304 8.53198 2.43304H11.202C11.4759 2.43836 11.6967 2.65914 11.702 2.93304V7.71304C11.6993 8.36283 11.9549 8.98705 12.4125 9.44839C12.8701 9.90973 13.4922 10.1704 14.142 10.173ZM10.642 20.323L13.372 18.323C13.8738 17.9675 14.1012 17.3371 13.942 16.743L13.352 13.933C13.1839 13.0647 12.4361 12.429 11.552 12.403H8.07198C7.15024 12.3813 6.34735 13.0279 6.17198 13.933L5.61198 16.643C5.40194 17.2609 5.62131 17.9433 6.15198 18.323L8.88198 20.323C9.40492 20.7098 10.119 20.7098 10.642 20.323Z"
        fill="currentColor" />
</svg>