<svg viewBox="0 0 24 24" fill="none" xmlns="http://www.w3.org/2000/svg">
  <path fill-rule="evenodd" clip-rule="evenodd"
    d="M14.07 10.24H18.86C19.1361 10.24 19.36 10.4639 19.36 10.74V17.66C19.36 19.8691 17.5691 21.66 15.36 21.66H8.45999C6.25085 21.66 4.45999 19.8691 4.45999 17.66V6.5C4.45999 4.29086 6.25085 2.5 8.45999 2.5H11.13C11.4061 2.5 11.63 2.72386 11.63 3V7.78C11.6273 8.42978 11.8829 9.05401 12.3405 9.51535C12.7981 9.97669 13.4202 10.2374 14.07 10.24ZM12.24 14.68H7.81C7.39578 14.68 7.06 15.0158 7.06 15.43C7.06 15.8442 7.39578 16.18 7.81 16.18H12.24C12.6542 16.18 12.99 15.8442 12.99 15.43C12.99 15.0158 12.6542 14.68 12.24 14.68ZM13.71 18.68H7.81C7.39578 18.68 7.06 18.3442 7.06 17.93C7.06 17.5158 7.39578 17.18 7.81 17.18H13.71C14.1242 17.18 14.46 17.5158 14.46 17.93C14.46 18.3442 14.1242 18.68 13.71 18.68ZM10.24 12H7.81C7.39578 12 7.06 12.3358 7.06 12.75C7.06 13.1642 7.39578 13.5 7.81 13.5H10.24C10.6542 13.5 10.99 13.1642 10.99 12.75C10.99 12.3358 10.6542 12 10.24 12Z"
    fill="currentColor" />
  <path
    d="M12.68 3.07997V7.64997C12.68 8.47287 13.3471 9.13997 14.17 9.13997H18.79C19.0444 9.17877 19.2918 9.0359 19.3853 8.7961C19.4788 8.55629 19.3935 8.28369 19.18 8.13997L13.63 2.63997C13.4637 2.47745 13.2142 2.43461 13.0032 2.53234C12.7922 2.63007 12.6636 2.84802 12.68 3.07997Z"
    fill="currentColor" />
</svg>
