<svg viewBox="0 0 24 24" fill="none" xmlns="http://www.w3.org/2000/svg">
    <g id="edit file / 24 / Outline">
        <path id="Vector"
            d="M20.71 16.7099L18.29 14.2899C18.197 14.1962 18.0864 14.1218 17.9645 14.071C17.8427 14.0203 17.712 13.9941 17.58 13.9941C17.4479 13.9941 17.3172 14.0203 17.1954 14.071C17.0735 14.1218 16.9629 14.1962 16.87 14.2899L13.29 17.8699C13.1973 17.9634 13.1239 18.0742 13.0742 18.196C13.0244 18.3179 12.9992 18.4483 13 18.5799V20.9999C13 21.2652 13.1053 21.5195 13.2928 21.707C13.4804 21.8946 13.7347 21.9999 14 21.9999H16.42C16.5516 22.0007 16.682 21.9755 16.8039 21.9257C16.9257 21.8759 17.0365 21.8026 17.13 21.7099L20.71 18.1299C20.8037 18.037 20.8781 17.9264 20.9288 17.8045C20.9796 17.6827 21.0058 17.552 21.0058 17.4199C21.0058 17.2879 20.9796 17.1572 20.9288 17.0354C20.8781 16.9135 20.8037 16.8029 20.71 16.7099ZM16 19.9999H15V18.9999L17.58 16.4199L18.58 17.4199L16 19.9999Z"
            fill="currentColor" />
        <path id="Rectangle 40461"
            d="M19 12V5C19 3.89543 18.1046 3 17 3H6C4.89543 3 4 3.89543 4 5V19C4 20.1046 4.89543 21 6 21H11"
            stroke="currentColor" stroke-width="2" stroke-linecap="round" />
        <rect id="Rectangle 40462" x="5" y="8" width="13" height="2" fill="currentColor" />
    </g>
</svg>
