<svg viewBox="0 0 24 24" fill="none" xmlns="http://www.w3.org/2000/svg">
  <path
    d="M8.13 14.84H12.56C12.9742 14.84 13.31 14.5042 13.31 14.09C13.31 13.6758 12.9742 13.34 12.56 13.34H8.13C7.71579 13.34 7.38 13.6758 7.38 14.09C7.38 14.5042 7.71579 14.84 8.13 14.84Z"
    fill="currentColor" />
  <path
    d="M8.13 12.2H10.56C10.9742 12.2 11.31 11.8642 11.31 11.45C11.31 11.0358 10.9742 10.7 10.56 10.7H8.13C7.71579 10.7 7.38 11.0358 7.38 11.45C7.38 11.8642 7.71579 12.2 8.13 12.2Z"
    fill="currentColor" />
  <path
    d="M14 15.87H8.13C7.71579 15.87 7.38 16.2058 7.38 16.62C7.38 17.0342 7.71579 17.37 8.13 17.37H14C14.4142 17.37 14.75 17.0342 14.75 16.62C14.75 16.2058 14.4142 15.87 14 15.87Z"
    fill="currentColor" />
  <path fill-rule="evenodd" clip-rule="evenodd"
    d="M19.53 9.43998L12.53 2.43998C12.3827 2.3137 12.194 2.24607 12 2.24998H9C6.37665 2.24998 4.25 4.37662 4.25 6.99998V17C4.25 19.6233 6.37665 21.75 9 21.75H15C17.6234 21.75 19.75 19.6233 19.75 17V9.99998C19.7534 9.7916 19.6743 9.59032 19.53 9.43998ZM12.75 4.78998L17.21 9.24998H14C13.3096 9.24998 12.75 8.69033 12.75 7.99998V4.78998ZM5.75 17C5.75549 18.7926 7.20735 20.2445 9 20.25H15C16.7926 20.2445 18.2445 18.7926 18.25 17V10.75H14C12.4812 10.75 11.25 9.51876 11.25 7.99998V3.74998H9C7.20735 3.75547 5.75549 5.20733 5.75 6.99998V17Z"
    fill="currentColor" />
</svg>
