<svg viewBox="0 0 24 24" fill="none" xmlns="http://www.w3.org/2000/svg">
  <path
    d="M12 23.3904C12.2322 23.3915 12.4551 23.2973 12.6183 23.1291L21.9517 13.6291C22.2729 13.2782 22.2634 12.7314 21.9302 12.3922C21.597 12.053 21.0598 12.0434 20.715 12.3704L12 21.241L3.285 12.3704C2.94024 12.0434 2.40299 12.053 2.06978 12.3922C1.73656 12.7314 1.72709 13.2782 2.04834 13.6291L11.3817 23.1291C11.5449 23.2973 11.7678 23.3915 12 23.3904Z"
    fill="currentColor" />
  <path
    d="M12 13.8904C12.2322 13.8915 12.4551 13.7973 12.6183 13.6291L21.9517 4.12913C22.2729 3.77821 22.2634 3.23137 21.9302 2.89221C21.597 2.55304 21.0598 2.54339 20.715 2.87038L12 11.741L3.285 2.87038C2.94024 2.54339 2.40299 2.55304 2.06978 2.8922C1.73656 3.23137 1.72709 3.77821 2.04834 4.12913L11.3817 13.6291C11.5449 13.7973 11.7678 13.8915 12 13.8904Z"
    fill="currentColor" />
</svg>
