<svg viewBox="0 0 24 24" fill="none" xmlns="http://www.w3.org/2000/svg">
    <g id="double chevron / 24 / Outline">
        <path id="Vector 1151 (Stroke)" fill-rule="evenodd" clip-rule="evenodd"
            d="M18.6402 5.2318C19.0645 5.58537 19.1218 6.21593 18.7683 6.64021L14.3018 12L18.7683 17.3598C19.1218 17.7841 19.0645 18.4147 18.6402 18.7682C18.216 19.1218 17.5854 19.0645 17.2318 18.6402L12.7653 13.2804C12.1472 12.5387 12.1472 11.4613 12.7653 10.7197L17.2318 5.35984C17.5854 4.93556 18.216 4.87824 18.6402 5.2318Z"
            fill="currentColor" />
        <path id="Vector 1152 (Stroke)" fill-rule="evenodd" clip-rule="evenodd"
            d="M10.6402 5.2318C11.0645 5.58537 11.1218 6.21593 10.7683 6.64021L6.30176 12L10.7683 17.3598C11.1218 17.7841 11.0645 18.4147 10.6402 18.7682C10.216 19.1218 9.58539 19.0645 9.23183 18.6402L4.76532 13.2804C4.14724 12.5387 4.14724 11.4613 4.76532 10.7197L9.23183 5.35984C9.58539 4.93556 10.216 4.87824 10.6402 5.2318Z"
            fill="currentColor" />
    </g>
</svg>