<svg viewBox="0 0 220 38" xmlns="http://www.w3.org/2000/svg">
  <g clip-path="url(#clip0_64_54)">
    <path
      d="M68.8044 20.6347H56.0882V27.3343H70.5825V31.9972H50.7539V5.94922H69.9359V10.5585H56.0882V16.079H68.8044V20.6347Z"
      fill="#E33935" />
    <path
      d="M91.1678 19.6164H85.9951C85.8873 18.9196 85.6718 18.2765 85.2946 17.6869C84.7019 16.9365 83.8398 16.5078 82.6544 16.5078C80.9302 16.5078 79.7987 17.3653 79.1521 19.0268C78.8288 19.938 78.6672 21.1171 78.6672 22.6178C78.6672 24.0113 78.8288 25.1904 79.1521 26.048C79.7448 27.6559 80.8763 28.4598 82.5467 28.4598C83.7321 28.4598 84.5942 28.1382 85.0791 27.4951C85.564 26.8519 85.8873 26.048 85.9951 25.0296H91.1678C91.06 26.5839 90.4673 28.031 89.4974 29.371C87.9349 31.5684 85.564 32.6939 82.4389 32.6939C79.3137 32.6939 77.0507 31.7828 75.5959 29.9605C74.1411 28.1382 73.3867 25.7264 73.3867 22.8322C73.3867 19.5092 74.1949 16.9365 75.8114 15.1143C77.4279 13.292 79.6909 12.3808 82.4928 12.3808C84.9175 12.3808 86.9111 12.9168 88.4198 13.9887C89.9285 15.0607 90.8984 16.8829 91.1678 19.6164Z"
      fill="#E33935" />
    <path
      d="M94.5625 6.05643H99.6274L107.117 27.9774L114.553 6.05643H119.564V31.9972H116.169V16.6686C116.169 16.1326 116.169 15.275 116.223 14.0423C116.277 12.8096 116.277 11.5233 116.277 10.1298L108.841 31.9972H105.339L97.8493 10.1298V10.9337C97.8493 11.5769 97.8493 12.5416 97.9032 13.8279C97.9571 15.1143 97.9571 16.079 97.9571 16.7222V31.9972H94.5625V6.05643Z"
      fill="currentColor" />
    <path
      d="M134.705 20.5275C135.459 20.4203 135.944 20.1523 136.16 19.6164C136.322 19.3484 136.375 18.9196 136.375 18.3837C136.375 17.3117 135.998 16.5078 135.19 16.0254C134.382 15.543 133.304 15.2751 131.849 15.2751C130.179 15.2751 128.994 15.7038 128.293 16.615C127.916 17.0973 127.647 17.8477 127.539 18.8124H124.575C124.629 16.4542 125.384 14.8463 126.838 13.9351C128.293 13.024 129.964 12.5416 131.903 12.5416C134.112 12.5416 135.944 12.9704 137.345 13.8279C138.746 14.6855 139.393 15.9718 139.393 17.7941V28.6742C139.393 28.9958 139.447 29.2638 139.608 29.4782C139.77 29.6925 140.039 29.7997 140.471 29.7997C140.632 29.7997 140.794 29.7997 140.955 29.7997C141.117 29.7997 141.333 29.7461 141.548 29.7461V32.1044C141.063 32.2652 140.686 32.3188 140.417 32.3724C140.147 32.426 139.824 32.426 139.339 32.426C138.261 32.426 137.453 32.0508 136.968 31.2468C136.699 30.8181 136.537 30.2285 136.429 29.4782C135.783 30.3357 134.867 31.0861 133.628 31.6756C132.388 32.3188 131.041 32.5868 129.586 32.5868C127.808 32.5868 126.407 32.0508 125.276 30.9789C124.144 29.9069 123.605 28.567 123.605 27.0127C123.605 25.244 124.144 23.9041 125.276 22.9394C126.353 21.9746 127.808 21.3851 129.586 21.1707L134.705 20.5275ZM127.97 29.103C128.67 29.6389 129.425 29.9069 130.341 29.9069C131.472 29.9069 132.55 29.6389 133.628 29.1566C135.406 28.299 136.268 26.9055 136.268 24.9224V22.3498C135.891 22.6178 135.352 22.7786 134.759 22.993C134.166 23.1538 133.52 23.2609 132.927 23.3681L130.987 23.6361C129.856 23.7969 128.94 24.0113 128.401 24.3329C127.431 24.8688 126.946 25.78 126.946 26.9591C126.946 27.8703 127.323 28.567 127.97 29.103Z"
      fill="currentColor" />
    <path
      d="M144.836 13.0776H147.853V16.347C148.123 15.7038 148.715 14.9535 149.685 14.0423C150.655 13.1312 151.787 12.6488 153.026 12.6488C153.08 12.6488 153.188 12.6488 153.349 12.6488C153.511 12.6488 153.726 12.7024 154.104 12.7024V16.079C153.888 16.0254 153.726 16.0254 153.565 16.0254C153.403 16.0254 153.242 16.0254 153.026 16.0254C151.41 16.0254 150.17 16.5614 149.308 17.5797C148.446 18.598 148.015 19.7772 148.015 21.1171V31.9972H144.836V13.0776Z"
      fill="currentColor" />
    <path
      d="M156.745 6.05643H159.817V21.1171L168.007 13.0776H172.102L164.774 20.0987L172.479 31.9972H168.384L162.403 22.4034L159.763 24.9224V31.9972H156.691V6.05643H156.745Z"
      fill="currentColor" />
    <path
      d="M186.754 13.6135C187.994 14.2567 188.964 15.0606 189.61 16.079C190.257 17.0437 190.688 18.1692 190.903 19.402C191.065 20.2595 191.173 21.653 191.173 23.5825H177.325C177.379 25.512 177.81 27.0663 178.672 28.1918C179.534 29.3709 180.827 29.9605 182.605 29.9605C184.276 29.9605 185.569 29.4245 186.593 28.299C187.132 27.6558 187.509 26.9055 187.778 26.1015H190.903C190.796 26.7983 190.526 27.5486 190.095 28.4062C189.61 29.2637 189.125 29.9605 188.533 30.4965C187.563 31.4612 186.377 32.0508 184.976 32.4259C184.222 32.5867 183.36 32.6939 182.39 32.6939C180.019 32.6939 178.026 31.8364 176.409 30.1213C174.793 28.4062 173.984 25.9943 173.984 22.9393C173.984 19.8843 174.793 17.4189 176.463 15.543C178.133 13.6671 180.235 12.7024 182.929 12.7024C184.168 12.6488 185.461 12.9704 186.754 13.6135ZM187.886 21.0099C187.778 19.6163 187.455 18.5444 186.97 17.6869C186.108 16.1326 184.653 15.3822 182.605 15.3822C181.151 15.3822 179.911 15.9182 178.942 16.9365C177.972 18.0085 177.433 19.3484 177.379 20.9563H187.886V21.0099Z"
      fill="currentColor" />
    <path
      d="M195.861 7.8251H199.094V13.0776H202.111V15.6502H199.094V27.9774C199.094 28.6206 199.309 29.103 199.794 29.3173C200.063 29.4245 200.441 29.5317 201.033 29.5317C201.195 29.5317 201.357 29.5317 201.518 29.5317C201.68 29.5317 201.895 29.4781 202.165 29.4781V31.9972C201.788 32.1044 201.41 32.158 201.033 32.2116C200.656 32.2652 200.225 32.2652 199.74 32.2652C198.231 32.2652 197.262 31.89 196.723 31.1396C196.184 30.3893 195.914 29.3709 195.914 28.1918V15.6502H193.328V13.0776H195.914V7.8251H195.861Z"
      fill="currentColor" />
    <path
      d="M207.173 26.048C207.281 27.1199 207.55 27.9239 207.981 28.4598C208.789 29.4782 210.244 30.0141 212.238 30.0141C213.423 30.0141 214.501 29.7461 215.417 29.2638C216.333 28.7278 216.818 27.9775 216.818 26.9055C216.818 26.1016 216.441 25.4584 215.74 25.0296C215.255 24.7617 214.339 24.4937 212.938 24.1185L210.352 23.4753C208.682 23.1002 207.496 22.6178 206.688 22.1354C205.287 21.2779 204.587 20.0987 204.587 18.5444C204.587 16.7758 205.233 15.3287 206.58 14.2031C207.873 13.0776 209.651 12.5416 211.861 12.5416C214.77 12.5416 216.872 13.3992 218.111 15.0607C218.919 16.1326 219.296 17.2581 219.296 18.4909H216.279C216.225 17.7941 215.956 17.1509 215.471 16.5614C214.716 15.7574 213.423 15.3287 211.591 15.3287C210.352 15.3287 209.436 15.543 208.789 16.0254C208.143 16.5078 207.819 17.0973 207.819 17.8477C207.819 18.6516 208.25 19.3484 209.059 19.8308C209.544 20.0987 210.244 20.3667 211.214 20.5811L213.369 21.1171C215.686 21.6531 217.249 22.189 218.057 22.725C219.296 23.5289 219.943 24.8153 219.943 26.5303C219.943 28.1918 219.296 29.6389 218.003 30.8717C216.71 32.1044 214.716 32.694 212.076 32.694C209.22 32.694 207.173 32.0508 205.987 30.7645C204.802 29.4782 204.155 27.9239 204.102 26.048H207.173Z"
      fill="currentColor" />
    <path
      d="M30.3778 34.0338C40.5389 27.5865 44.4688 15.6433 39.1555 7.35779C33.8421 -0.927694 21.2977 -2.41785 11.1366 4.02942C0.975476 10.4767 -2.95443 22.42 2.35888 30.7054C7.67219 38.9909 20.2167 40.4811 30.3778 34.0338Z"
      fill="#E33935" />
    <path
      d="M31.2002 11.2017C30.4997 11.2017 29.907 11.7912 29.907 12.488V13.2383C29.907 13.9351 29.3143 14.5247 28.6139 14.5247C27.9134 14.5247 27.3207 13.9351 27.3207 13.2383V8.62903C27.3207 7.93228 26.728 7.34271 26.0275 7.34271C25.3271 7.34271 24.7344 7.93228 24.7344 8.62903V19.134C24.7344 19.8307 24.1417 20.4203 23.4412 20.4203C22.7407 20.4203 22.0941 19.8307 22.0941 19.134V12.5952C22.0941 11.8984 21.5014 11.3089 20.801 11.3089C20.1005 11.3089 19.5078 11.8984 19.5078 12.5952V30.7108C19.5078 31.4076 20.1005 31.9972 20.801 31.9972C21.5014 31.9972 22.0941 31.4076 22.0941 30.7108V24.4936C22.0941 23.7969 22.6868 23.2073 23.3873 23.2073C24.0878 23.2073 24.6805 23.7969 24.6805 24.4936V28.1382C24.6805 28.835 25.2732 29.4245 25.9736 29.4245C26.6741 29.4245 27.2668 28.835 27.2668 28.1382V18.6516C27.2668 17.9548 27.8595 17.3653 28.56 17.3653C29.2604 17.3653 29.8531 17.9548 29.8531 18.6516V19.0804C29.8531 19.7771 30.4458 20.3667 31.1463 20.3667C31.8468 20.3667 32.4395 19.7771 32.4395 19.0804V12.488C32.4934 11.7912 31.9545 11.2017 31.2002 11.2017Z"
      fill="white" />
    <path
      d="M31.1993 25.78C32.0623 25.78 32.7619 25.0841 32.7619 24.2257C32.7619 23.3672 32.0623 22.6714 31.1993 22.6714C30.3363 22.6714 29.6367 23.3672 29.6367 24.2257C29.6367 25.0841 30.3363 25.78 31.1993 25.78Z"
      fill="white" />
    <path
      d="M15.5166 8.14667C14.8162 8.14667 14.2234 8.73623 14.2234 9.43299V14.8998C14.2234 15.5966 13.6307 16.1862 12.9303 16.1862C12.2298 16.1862 11.6371 15.5966 11.6371 14.8998V14.2567C11.6371 13.5599 11.0444 12.9704 10.3439 12.9704C9.64348 12.9704 9.05078 13.5599 9.05078 14.2567V21.2242C9.05078 21.921 9.64348 22.5106 10.3439 22.5106C11.0444 22.5106 11.6371 21.921 11.6371 21.2242V20.3131C11.6371 19.6163 12.2298 19.0268 12.9303 19.0268C13.6307 19.0268 14.2234 19.6163 14.2234 20.3131V29.4781C14.2234 30.1749 14.8162 30.7644 15.5166 30.7644C16.2171 30.7644 16.8098 30.1749 16.8098 29.4781V9.43299C16.8098 8.73623 16.2171 8.14667 15.5166 8.14667Z"
      fill="white" />
    <path
      d="M10.3985 27.9238C11.2615 27.9238 11.9611 27.2279 11.9611 26.3695C11.9611 25.5111 11.2615 24.8152 10.3985 24.8152C9.53553 24.8152 8.83594 25.5111 8.83594 26.3695C8.83594 27.2279 9.53553 27.9238 10.3985 27.9238Z"
      fill="white" />
    <path
      d="M20.797 9.05782C21.6599 9.05782 22.3595 8.36194 22.3595 7.50352C22.3595 6.6451 21.6599 5.94922 20.797 5.94922C19.934 5.94922 19.2344 6.6451 19.2344 7.50352C19.2344 8.36194 19.934 9.05782 20.797 9.05782Z"
      fill="white" />
  </g>
  <defs>
    <clipPath id="clip0_64_54">
      <rect width="220" height="38" fill="white" />
    </clipPath>
  </defs>
</svg>
