<svg viewBox="0 0 24 24" xmlns="http://www.w3.org/2000/svg">
  <path fill="currentColor"
    d="M13.24 15.62L9.83 16.35C9.69707 16.3646 9.56294 16.3646 9.43 16.35C8.95699 16.3541 8.50246 16.1665 8.17 15.83C7.74274 15.3917 7.56592 14.7672 7.7 14.17L8.43 10.77C8.58508 10.1014 8.93275 9.49302 9.43 9.01999L15.13 3.31999H6.13C5.01465 3.30644 3.94101 3.74353 3.15228 4.53227C2.36354 5.321 1.92645 6.39464 1.94 7.50999V17.86C1.94 20.1465 3.79354 22 6.08 22H16.44C18.7265 22 20.58 20.1465 20.58 17.86V9.06999L15 14.66C14.5195 15.1448 13.9077 15.4785 13.24 15.62Z" />
  <path fill="currentColor" fill-rule="evenodd" clip-rule="evenodd"
    d="M16.77 3.11C17.9274 1.78226 19.9367 1.63078 21.28 2.77C21.8431 3.41827 22.1238 4.26457 22.06 5.12083C21.9962 5.97709 21.593 6.77239 20.94 7.33L14.27 14C13.9183 14.3327 13.4768 14.5552 13 14.64L9.62004 15.4C9.34195 15.4811 9.04189 15.3992 8.8435 15.1882C8.6451 14.9771 8.58194 14.6725 8.68004 14.4L9.41004 11C9.52157 10.5369 9.7606 10.1142 10.1 9.78L16.77 3.11ZM17.18 7.77L19.42 5.53C19.6954 5.23449 19.6873 4.77399 19.4017 4.48838C19.116 4.20276 18.6555 4.19464 18.36 4.47L16.12 6.71C15.8276 7.00282 15.8276 7.47718 16.12 7.77C16.4129 8.06245 16.8872 8.06245 17.18 7.77Z" />
</svg>
