<svg version="1.1" xmlns="http://www.w3.org/2000/svg" xmlns:xlink="http://www.w3.org/1999/xlink" x="0px"
	y="0px" viewBox="0 0 16 16" style="enable-background:new 0 0 16 16;" xml:space="preserve">
	<path fill="currentColor" d="M6.2,0.8L6.2,0.8L6.2,0.8 M11.2,1c0.3,0,0.4,0.2,0.3,0.5L9.7,4.7C9.4,5.2,9.4,5.7,9.7,6.2C10.1,6.7,10.6,7,11.2,7h2.2
	l-5.8,6.5l1.2-3.4c0.2-0.5,0.1-1-0.3-1.4C8.3,8.2,7.7,8,7.2,8H2.6C2.4,8,2.3,7.8,2.4,7.7l3.3-6.1C5.9,1.2,6.3,1,6.7,1L11.2,1z
	 M12.5,0H6.3C5.7,0,5.2,0.3,4.9,0.8l-3.8,7C0.8,8.3,1.2,9,1.9,9h5.3c0.4,0,0.8,0.4,0.6,0.8l-1.9,5.4C5.7,15.6,6.1,16,6.5,16
	c0.2,0,0.4-0.1,0.5-0.2L14.8,7c0.3-0.4,0-1-0.5-1h-3.1c-0.5,0-0.8-0.5-0.6-0.9L13,0.9C13.3,0.5,12.9,0,12.5,0L12.5,0z" />
	<path fill="currentColor" d="M5.4,6.6c-0.1,0-0.2,0-0.3-0.1C4.8,6.4,4.7,6,4.9,5.7l1.9-3.5C7,1.9,7.3,1.8,7.6,2C7.9,2.1,8,2.5,7.8,2.8L5.9,6.3
	C5.8,6.5,5.6,6.6,5.4,6.6z" />
</svg>
