<svg xmlns="http://www.w3.org/2000/svg" viewBox="0 0 16 16">
  <path fill="currentColor" d="M8,.6A7.4,7.4,0,1,1,.6,8,7.41,7.41,0,0,1,8,.6M8,0a8,8,0,1,0,8,8A8,8,0,0,0,8,0Z" />
  <path fill="currentColor"
    d="M11.92,4.24H4.08a1,1,0,0,0-1,1v5.46a1,1,0,0,0,1,1h7.84a1,1,0,0,0,1-1V5.27A1,1,0,0,0,11.92,4.24ZM4.08,4.8h7.84a.48.48,0,0,1,.47.47V5.7L8,9.2,3.61,5.7V5.27A.48.48,0,0,1,4.08,4.8Zm7.84,6.4H4.08a.48.48,0,0,1-.47-.47V6.42L7.83,9.77a.27.27,0,0,0,.34,0l4.22-3.35v4.31a.48.48,0,0,1-.47.47Z" />
</svg>
