<svg viewBox="0 0 24 24" fill="none" xmlns="http://www.w3.org/2000/svg">
  <path d="M17.34 7.03999L13.1 11.28C12.8072 11.5724 12.3328 11.5724 12.04 11.28C11.7475 10.9872 11.7475 10.5128 12.04 10.22L16.28 5.97999C15.5612 5.48674 14.7117 5.21869 13.84 5.20999H7.33C4.95027 5.20993 3.01649 7.13032 3 9.50999V15.99C3 18.3814 4.93861 20.32 7.33 20.32H13.81C16.2014 20.32 18.14 18.3814 18.14 15.99V9.53999C18.1384 8.64396 17.8589 7.77048 17.34 7.03999Z" fill="currentColor" />
  <path d="M20.2601 3.46C20.1879 3.27701 20.0431 3.13217 19.8601 3.06C19.7684 3.02092 19.6698 3.00053 19.5701 3H14.5701C14.1559 3 13.8201 3.33579 13.8201 3.75C13.8201 4.16421 14.1559 4.5 14.5701 4.5H17.7601L16.2901 5.97C16.7008 6.26085 17.0592 6.61927 17.3501 7.03L18.8201 5.56V8.75C18.8201 9.16421 19.1559 9.5 19.5701 9.5C19.9843 9.5 20.3201 9.16421 20.3201 8.75V3.75C20.3195 3.65031 20.2991 3.55172 20.2601 3.46Z" fill="currentColor" />
</svg>
