<svg viewBox="0 0 24 24" fill="none" xmlns="http://www.w3.org/2000/svg">
    <path fill-rule="evenodd" clip-rule="evenodd"
        d="M11.9999 9.41992C10.5722 9.41992 9.41992 10.5722 9.41992 11.9999C9.41992 12.346 9.48733 12.6746 9.61057 12.9751L12.9751 9.61057C12.6746 9.48733 12.346 9.41992 11.9999 9.41992ZM7.41992 11.9999C7.41992 9.46764 9.46764 7.41992 11.9999 7.41992C13.267 7.41992 14.4081 7.93384 15.237 8.76282C15.6276 9.15334 15.6276 9.7865 15.237 10.177L10.177 15.237C9.7865 15.6276 9.15334 15.6276 8.76282 15.237C7.93384 14.4081 7.41992 13.267 7.41992 11.9999Z"
        fill="currentColor" />
    <path fill-rule="evenodd" clip-rule="evenodd"
        d="M2.0465 8.87309C4.47106 5.06193 8.04587 2.73047 11.9998 2.73047C14.3093 2.73047 16.5171 3.53528 18.422 4.97211C18.8629 5.30469 18.9508 5.93174 18.6182 6.37266C18.2856 6.81358 17.6586 6.9014 17.2177 6.56882C15.6225 5.36566 13.8303 4.73047 11.9998 4.73047C8.89404 4.73047 5.88904 6.55874 3.7336 9.94719L3.73277 9.9485C3.40999 10.4542 3.21484 11.1995 3.21484 12.0055C3.21484 12.8115 3.40999 13.5567 3.73277 14.0624L3.73323 14.0632C4.47492 15.2273 5.33199 16.2212 6.25188 17.0123C6.67062 17.3724 6.71814 18.0038 6.35803 18.4225C5.99792 18.8412 5.36654 18.8888 4.9478 18.5287C3.8677 17.5998 2.88477 16.4536 2.04646 15.1378C1.46957 14.2336 1.21484 13.0892 1.21484 12.0055C1.21484 10.9217 1.46958 9.7773 2.0465 8.87309Z"
        fill="currentColor" />
    <path fill-rule="evenodd" clip-rule="evenodd"
        d="M19.4234 7.15051C19.8538 6.80436 20.4832 6.87262 20.8294 7.30296C21.2176 7.7856 21.6001 8.30563 21.9537 8.86257C22.5305 9.76675 22.7852 10.9111 22.7852 11.9947C22.7852 13.0785 22.5304 14.2229 21.9535 15.1271C19.529 18.9383 15.9542 21.2697 12.0002 21.2697C10.6281 21.2697 9.28662 20.9796 8.03212 20.4514C7.52312 20.237 7.28423 19.6507 7.49855 19.1417C7.71286 18.6327 8.29923 18.3938 8.80824 18.6081C9.83375 19.0399 10.9122 19.2697 12.0002 19.2697C15.106 19.2697 18.111 17.4415 20.2664 14.053L20.2673 14.0517C20.59 13.546 20.7852 12.8007 20.7852 11.9947C20.7852 11.1887 20.59 10.4434 20.2673 9.93776L20.2659 9.93555C19.9596 9.45299 19.6224 8.99346 19.271 8.55648C18.9248 8.12613 18.9931 7.49666 19.4234 7.15051Z"
        fill="currentColor" />
    <path fill-rule="evenodd" clip-rule="evenodd"
        d="M15.691 11.716C16.2341 11.8161 16.5932 12.3376 16.493 12.8807C16.1579 14.6985 14.6888 16.1676 12.871 16.5028C12.3278 16.603 11.8064 16.2439 11.7062 15.7007C11.6061 15.1576 11.9652 14.6361 12.5083 14.536C13.5105 14.3512 14.3414 13.5203 14.5262 12.5181C14.6264 11.9749 15.1478 11.6158 15.691 11.716Z"
        fill="currentColor" />
    <path fill-rule="evenodd" clip-rule="evenodd"
        d="M10.1771 13.8222C10.5676 14.2127 10.5676 14.8459 10.1771 15.2364L2.70711 22.7064C2.31658 23.0969 1.68342 23.0969 1.29289 22.7064C0.902369 22.3159 0.902369 21.6827 1.29289 21.2922L8.76289 13.8222C9.15342 13.4317 9.78658 13.4317 10.1771 13.8222Z"
        fill="currentColor" />
    <path fill-rule="evenodd" clip-rule="evenodd"
        d="M22.7074 1.29289C23.0979 1.68342 23.0979 2.31658 22.7074 2.70711L15.2374 10.1771C14.8469 10.5676 14.2137 10.5676 13.8232 10.1771C13.4326 9.78658 13.4326 9.15342 13.8232 8.76289L21.2932 1.29289C21.6837 0.902369 22.3169 0.902369 22.7074 1.29289Z"
        fill="currentColor" />
</svg>