<svg viewBox="0 0 24 24" xmlns="http://www.w3.org/2000/svg">
    <path fill-rule="evenodd" clip-rule="evenodd"
        d="M9.12567 12.1479C9.12567 10.6035 10.318 9.35156 11.7888 9.35156C13.2597 9.35156 14.452 10.6035 14.452 12.1479C14.452 13.6922 13.2597 14.9442 11.7888 14.9442C10.318 14.9442 9.12567 13.6922 9.12567 12.1479ZM10.8625 12.1479C10.8625 12.685 11.2772 13.1205 11.7888 13.1205C12.3004 13.1205 12.7151 12.685 12.7151 12.1479C12.7151 11.6107 12.3004 11.1752 11.7888 11.1752C11.2772 11.1752 10.8625 11.6107 10.8625 12.1479Z"
        fill="currentColor" />
    <path fill-rule="evenodd" clip-rule="evenodd"
        d="M17.2425 7.00519L22.0825 11.0659C22.3955 11.329 22.5776 11.7271 22.5776 12.148C22.5776 12.5689 22.3955 12.967 22.0825 13.23L17.2425 17.2908C14.0525 19.9643 9.52511 19.9643 6.33513 17.2908L1.49513 13.23C1.18217 12.967 1 12.5689 1 12.148C1 11.7271 1.18217 11.329 1.49513 11.0659L6.33513 7.00519C9.52511 4.3316 14.0525 4.3316 17.2425 7.00519ZM7.41197 15.9291C9.9737 18.0699 13.6039 18.0699 16.1657 15.9291L20.5888 12.148L16.1657 8.42766C13.6039 6.28685 9.9737 6.28685 7.41197 8.42766L2.98881 12.148L7.41197 15.9291Z"
        fill="currentColor" />
</svg>