<svg viewBox="0 0 24 24" fill="none" xmlns="http://www.w3.org/2000/svg">
  <path fill-rule="evenodd" clip-rule="evenodd"
    d="M5.72006 2.00001H9.91566H9.97859C11.8265 2.00001 13.3246 3.49806 13.3246 5.346C13.3246 5.40164 13.3467 5.455 13.386 5.49434C13.4254 5.53368 13.4787 5.55578 13.5344 5.55578H17.73C20.3344 5.56155 22.4442 7.67141 22.45 10.2758V17.2091C22.4442 19.8135 20.3344 21.9233 17.73 21.9291H5.72006C3.11325 21.9291 1.00001 19.8159 1.00001 17.2091V6.72006C0.997219 5.46737 1.49361 4.26519 2.3794 3.3794C3.26519 2.49361 4.46737 1.99722 5.72006 2.00001ZM11.7198 5.346C11.7198 4.367 10.9261 3.57336 9.94713 3.57336H9.91566H5.72006C3.98219 3.57336 2.57336 4.98219 2.57336 6.72006V17.2091C2.57336 18.9469 3.98219 20.3558 5.72006 20.3558H17.6985C19.4364 20.3558 20.8452 18.9469 20.8452 17.2091V10.2758C20.8452 8.53796 19.4364 7.12913 17.6985 7.12913H13.5029C12.5181 7.12913 11.7198 6.3308 11.7198 5.346Z"
    fill="currentColor" />
</svg>
