<svg viewBox="0 0 24 24" fill="none" xmlns="http://www.w3.org/2000/svg">
  <path d="M19.0008 10.1502H14.1608C13.511 10.1475 12.8889 9.88686 12.4313 9.42552C11.9737 8.96418 11.7181 8.33996 11.7208 7.69018V2.93018C11.7208 2.65403 11.4969 2.43018 11.2208 2.43018H8.55078C6.34164 2.43018 4.55078 4.22104 4.55078 6.43018V17.5702C4.55078 19.7793 6.34164 21.5702 8.55078 21.5702H15.4508C16.5116 21.5702 17.5291 21.1487 18.2792 20.3986C19.0294 19.6485 19.4508 18.631 19.4508 17.5702V10.6502C19.4475 10.3942 19.255 10.1803 19.0008 10.1502Z" fill="currentColor" />
  <path d="M14.2517 9.05022H18.8817C19.1286 9.07056 19.3595 8.92634 19.4494 8.69558C19.5394 8.46483 19.4672 8.20236 19.2717 8.05022L13.7217 2.60022C13.5687 2.40238 13.303 2.33001 13.0708 2.4229C12.8386 2.51579 12.6961 2.75142 12.7217 3.00022V7.57022C12.7215 7.97155 12.8843 8.35578 13.1727 8.63482C13.4612 8.91385 13.8506 9.06377 14.2517 9.05022Z" fill="currentColor" />
  <path fill-rule="evenodd" clip-rule="evenodd" d="M11.9023 18.4703L15.0475 15.2307L15.0266 15.1993C15.224 14.8795 15.1674 14.4647 14.8917 14.2093C14.6159 13.954 14.198 13.9295 13.8943 14.1509L11.2628 16.8453L10.2144 15.7969C9.89236 15.5879 9.46645 15.642 9.2069 15.9249C8.94735 16.2078 8.93006 16.6368 9.166 16.9396L10.8015 18.4913C10.9441 18.6318 11.136 18.7108 11.3362 18.7114C11.5496 18.7101 11.7535 18.6233 11.9023 18.4703Z" fill="white" />
</svg>
