<svg xmlns="http://www.w3.org/2000/svg" viewBox="0 0 16 16">
  <path fill="currentColor" d="M5,9.14H7.12a.38.38,0,1,0,0-.76H5a.38.38,0,1,0,0,.76Z" />
  <path fill="currentColor" d="M8.25,8.76a.38.38,0,0,0,.38.38h1.92a.38.38,0,0,0,0-.76H8.63A.38.38,0,0,0,8.25,8.76Z" />
  <path fill="currentColor" d="M5,11.05H8.77a.38.38,0,1,0,0-.76H5a.38.38,0,0,0,0,.76Z" />
  <path
    fill="currentColor"
    d="M5.77,7.24H8.05A1.14,1.14,0,0,0,9.19,6.1V5A1.14,1.14,0,0,0,8.05,3.81H5.77A1.14,1.14,0,0,0,4.62,5V6.1A1.14,1.14,0,0,0,5.77,7.24ZM5.38,5a.39.39,0,0,1,.39-.38H8.05A.38.38,0,0,1,8.43,5V6.1a.38.38,0,0,1-.38.38H5.77a.39.39,0,0,1-.39-.38Z" />
  <path
    fill="currentColor"
    d="M13.38,12.19V3A2.21,2.21,0,0,0,11.22.76H9.89A1.15,1.15,0,0,0,8.81,0H6.15A1.15,1.15,0,0,0,5.07.76H3.74A2.21,2.21,0,0,0,1.57,3V13.76A2.21,2.21,0,0,0,3.48,16v0H13a1.72,1.72,0,0,0,1.91-1.9V12.19ZM6.15.76H8.81a.38.38,0,0,1,0,.76H6.15a.38.38,0,1,1,0-.76Zm-3.81,13V3a1.44,1.44,0,0,1,1.4-1.48H5.07a1.15,1.15,0,0,0,1.08.77H8.81a1.15,1.15,0,0,0,1.08-.77h1.33A1.45,1.45,0,0,1,12.62,3v9.19h-8V14.1c0,.74-.3,1.08-1,1.13A1.45,1.45,0,0,1,2.34,13.76Zm11.81.34c0,.8-.35,1.14-1.15,1.14H5.11a2.19,2.19,0,0,0,.27-1.14V13h8.77Z" />
</svg>
