<svg viewBox="0 0 24 24" fill="none" xmlns="http://www.w3.org/2000/svg">
    <path
        d="M4 7.39038H10C10.5523 7.39038 11 6.94267 11 6.39038C11 5.8381 10.5523 5.39038 10 5.39038H4C3.44772 5.39038 3 5.8381 3 6.39038C3 6.94267 3.44772 7.39038 4 7.39038Z"
        fill="currentColor" />
    <path
        d="M4 13.2804H6C6.46352 14.2043 7.5012 14.6886 8.50704 14.4504C9.51288 14.2122 10.2232 13.314 10.2232 12.2804C10.2232 11.2467 9.51288 10.3486 8.50704 10.1104C7.5012 9.87222 6.46352 10.3565 6 11.2804H4C3.44772 11.2804 3 11.7281 3 12.2804C3 12.8327 3.44772 13.2804 4 13.2804Z"
        fill="currentColor" />
    <path
        d="M13.72 8.46034C14.4939 8.45919 15.2108 8.05332 15.61 7.39034H20C20.5523 7.39034 21 6.94262 21 6.39034C21 5.83806 20.5523 5.39034 20 5.39034H15.78C15.3575 4.35131 14.229 3.7878 13.1446 4.07435C12.0602 4.36089 11.3573 5.40832 11.5033 6.52044C11.6492 7.63255 12.5984 8.46323 13.72 8.46034Z"
        fill="currentColor" />
    <path
        d="M10 17.4904H4C3.44772 17.4904 3 17.9381 3 18.4904C3 19.0426 3.44772 19.4904 4 19.4904H10C10.5523 19.4904 11 19.0426 11 18.4904C11 17.9381 10.5523 17.4904 10 17.4904Z"
        fill="currentColor" />
    <path
        d="M20 17.4903H16.06C15.6704 16.5276 14.6702 15.9589 13.6436 16.1165C12.6171 16.2742 11.8335 17.1167 11.7507 18.152C11.6679 19.1872 12.3075 20.1436 13.296 20.4625C14.2844 20.7813 15.3623 20.3789 15.9 19.4903H16H20C20.5523 19.4903 21 19.0426 21 18.4903C21 17.938 20.5523 17.4903 20 17.4903Z"
        fill="currentColor" />
    <path
        d="M20 11.2804H12C11.4477 11.2804 11 11.7281 11 12.2804C11 12.8327 11.4477 13.2804 12 13.2804H20C20.5523 13.2804 21 12.8327 21 12.2804C21 11.7281 20.5523 11.2804 20 11.2804Z"
        fill="currentColor" />
</svg>