<svg viewBox="0 0 24 24" fill="none" xmlns="http://www.w3.org/2000/svg">
    <path
        d="M9.77002 5.71021H3.77002C3.35581 5.71021 3.02002 6.04599 3.02002 6.46021C3.02002 6.87442 3.35581 7.21021 3.77002 7.21021H9.77002C10.1842 7.21021 10.52 6.87442 10.52 6.46021C10.52 6.04599 10.1842 5.71021 9.77002 5.71021V5.71021Z"
        fill="currentColor" />
    <path fill-rule="evenodd" clip-rule="evenodd"
        d="M5.68002 13.1002H3.77002C3.35581 13.1002 3.02002 12.7644 3.02002 12.3502C3.02002 11.936 3.35581 11.6002 3.77002 11.6002H5.68002C6.04485 10.5786 7.09186 9.96779 8.1607 10.1529C9.22954 10.3381 10.0101 11.2655 10.0101 12.3502C10.0101 13.435 9.22954 14.3624 8.1607 14.5475C7.09186 14.7326 6.04485 14.1218 5.68002 13.1002ZM7.77002 13.0802C8.17319 13.0802 8.50002 12.7534 8.50002 12.3502C8.50002 11.947 8.17319 11.6202 7.77002 11.6202C7.57641 11.6202 7.39074 11.6971 7.25383 11.834C7.11693 11.9709 7.04002 12.1566 7.04002 12.3502C7.04002 12.7534 7.36685 13.0802 7.77002 13.0802Z"
        fill="currentColor" />
    <path fill-rule="evenodd" clip-rule="evenodd"
        d="M15.49 7.17026C15.1484 7.97715 14.3659 8.50922 13.49 8.53026V8.46026C12.3304 8.4647 11.3609 7.57964 11.2599 6.42442C11.159 5.26919 11.9602 4.22938 13.1031 4.03262C14.2459 3.83585 15.3488 4.5478 15.64 5.67026C15.6831 5.66461 15.7268 5.66461 15.77 5.67026H19.72C20.1342 5.67026 20.47 6.00605 20.47 6.42026C20.47 6.83448 20.1342 7.17026 19.72 7.17026H15.72C15.6436 7.17978 15.5664 7.17978 15.49 7.17026ZM14.2237 6.22723C14.2059 5.83559 13.882 5.52789 13.49 5.53026V5.57026C13.2891 5.57254 13.0981 5.65748 12.9619 5.80507C12.8256 5.95267 12.7562 6.14987 12.77 6.35026C12.8183 6.73931 13.1653 7.02071 13.556 6.98765C13.9466 6.95459 14.2414 6.61887 14.2237 6.22723Z"
        fill="currentColor" />
    <path
        d="M9.77 17.8103H3.77C3.34474 17.8103 3 18.155 3 18.5803C3 19.0056 3.34474 19.3503 3.77 19.3503H9.77C10.1842 19.3503 10.52 19.0145 10.52 18.6003C10.52 18.1861 10.1842 17.8503 9.77 17.8503V17.8103Z"
        fill="currentColor" />
    <path fill-rule="evenodd" clip-rule="evenodd"
        d="M15.9 17.8102H19.77V17.8502C20.1842 17.8502 20.52 18.186 20.52 18.6002C20.52 19.0144 20.1842 19.3502 19.77 19.3502H15.77C15.3125 20.3226 14.2242 20.8277 13.1863 20.5494C12.1483 20.2711 11.4587 19.2892 11.5491 18.2184C11.6395 17.1476 12.4839 16.2952 13.5538 16.1949C14.6238 16.0945 15.612 16.7749 15.9 17.8102ZM13.0885 18.6866C13.2046 18.959 13.4739 19.1343 13.77 19.1302C14.1693 19.1247 14.4901 18.7995 14.49 18.4002C14.49 18.104 14.311 17.8373 14.037 17.7249C13.763 17.6125 13.4483 17.6768 13.2403 17.8877C13.0323 18.0985 12.9724 18.4141 13.0885 18.6866Z"
        fill="currentColor" />
    <path
        d="M19.77 11.6002H11.77C11.3558 11.6002 11.02 11.936 11.02 12.3502C11.02 12.7644 11.3558 13.1002 11.77 13.1002H19.77C20.1842 13.1002 20.52 12.7644 20.52 12.3502C20.52 11.936 20.1842 11.6002 19.77 11.6002Z"
        fill="currentColor" />
</svg>