<svg viewBox="0 0 24 24" fill="none" xmlns="http://www.w3.org/2000/svg">
    <path d="M12.057 0L10.4914 3.1857C9.37265 5.46159 7.87327 7.53147 6.05738 9.30679L5.85168 9.50021C4.68543 10.6274 4.01907 12.1713 4.00037 13.7895V13.9943C3.96948 17.1631 5.86608 20.0359 8.80006 21.2645L9.09719 21.3897C11.0215 22.2034 13.1954 22.2034 15.1197 21.3897H15.1882C18.1441 20.1111 20.0407 17.1913 19.9993 13.9829V9.04511C19.0143 11.2848 17.2254 13.078 14.9825 14.074C14.9825 14.074 14.9825 14.074 14.914 14.074C14.8454 14.074 14.0454 14.4039 13.7026 14.074C13.3964 13.7655 13.3671 13.2789 13.634 12.9362L13.714 12.8793H13.7712C16.3947 10.8939 17.0064 7.21529 15.1654 4.49411C13.6797 2.24137 12.057 0 12.057 0Z" fill="currentColor" />
</svg>