<svg viewBox="0 0 24 24" fill="none" xmlns="http://www.w3.org/2000/svg">
    <path
        d="M19.3333 14.0625C20.4724 14.0625 21.3958 13.1391 21.3958 12C21.3958 10.8609 20.4724 9.9375 19.3333 9.9375C18.1943 9.9375 17.2708 10.8609 17.2708 12C17.2708 13.1391 18.1943 14.0625 19.3333 14.0625Z"
        fill="currentColor" />
    <path
        d="M19.3333 6.72919C20.4724 6.72919 21.3958 5.80577 21.3958 4.66669C21.3958 3.5276 20.4724 2.60419 19.3333 2.60419C18.1943 2.60419 17.2708 3.5276 17.2708 4.66669C17.2708 5.80577 18.1943 6.72919 19.3333 6.72919Z"
        fill="currentColor" />
    <path
        d="M19.3333 21.3958C20.4724 21.3958 21.3958 20.4724 21.3958 19.3333C21.3958 18.1942 20.4724 17.2708 19.3333 17.2708C18.1943 17.2708 17.2708 18.1942 17.2708 19.3333C17.2708 20.4724 18.1943 21.3958 19.3333 21.3958Z"
        fill="currentColor" />
    <path
        d="M4.66666 14.0625C5.80574 14.0625 6.72916 13.1391 6.72916 12C6.72916 10.8609 5.80574 9.9375 4.66666 9.9375C3.52757 9.9375 2.60416 10.8609 2.60416 12C2.60416 13.1391 3.52757 14.0625 4.66666 14.0625Z"
        fill="currentColor" />
    <path
        d="M18.4167 12.6875C18.7925 12.6875 19.1042 12.3759 19.1042 12C19.1042 11.6242 18.7925 11.3125 18.4167 11.3125H11.7708V7.41669C11.7708 5.96835 12.385 5.35419 13.8333 5.35419H18.4167C18.7925 5.35419 19.1042 5.04252 19.1042 4.66669C19.1042 4.29085 18.7925 3.97919 18.4167 3.97919H13.8333C11.615 3.97919 10.3958 5.19835 10.3958 7.41669V11.3125H5.58334C5.20751 11.3125 4.89584 11.6242 4.89584 12C4.89584 12.3759 5.20751 12.6875 5.58334 12.6875H10.3958V16.5834C10.3958 18.8017 11.615 20.0209 13.8333 20.0209H18.4167C18.7925 20.0209 19.1042 19.7092 19.1042 19.3334C19.1042 18.9575 18.7925 18.6459 18.4167 18.6459H13.8333C12.385 18.6459 11.7708 18.0317 11.7708 16.5834V12.6875H18.4167Z"
        fill="currentColor" />
</svg>