<svg viewBox="0 0 24 24" xmlns="http://www.w3.org/2000/svg">
    <path fill-rule="evenodd" clip-rule="evenodd"
        d="M7.79 15.27L8.52 11.86C8.62628 11.3861 8.86566 10.9525 9.21 10.61L15.88 3.99999C16.5564 3.31097 17.4747 2.91277 18.44 2.88999C19.168 2.87956 19.87 3.16036 20.39 3.66999C21.5262 5.01246 21.3795 7.01721 20.06 8.17999L13.39 14.85C13.0475 15.1943 12.6139 15.4337 12.14 15.54L8.73 16.27H8.54C8.29071 16.2795 8.05261 16.1661 7.90292 15.9665C7.75324 15.767 7.71103 15.5066 7.79 15.27ZM10.27 11.68C10.1299 11.8158 10.0326 11.9896 9.99 12.18L9.5 14.51L11.83 14.01C12.0204 13.9674 12.1942 13.8701 12.33 13.73L19 7.05999C19.7307 6.47501 19.8757 5.42047 19.33 4.65999C19.0911 4.4317 18.7703 4.30916 18.44 4.31999C17.8706 4.34286 17.3325 4.58679 16.94 4.99999L10.27 11.68Z"
        fill="currentColor" />
    <path
        d="M19.91 10.93C19.4981 10.9354 19.1654 11.268 19.16 11.68V17.37C19.1734 18.1743 18.8633 18.9503 18.2992 19.5237C17.7351 20.0972 16.9644 20.4201 16.16 20.42H6.63002C4.96739 20.3874 3.63513 19.0329 3.63002 17.37V7.88C3.65731 6.21509 5.01488 4.87978 6.68002 4.88H12.37C12.7842 4.88 13.12 4.54422 13.12 4.13C13.12 3.71579 12.7842 3.38 12.37 3.38H6.63002C4.13652 3.37985 2.10742 5.38666 2.08002 7.88V17.37C2.08002 19.8829 4.11712 21.92 6.63002 21.92H16.12C18.629 21.9145 20.66 19.879 20.66 17.37V11.68C20.6546 11.268 20.322 10.9354 19.91 10.93Z"
        fill="currentColor" />
</svg>