<svg viewBox="0 0 24 24" fill="none" xmlns="http://www.w3.org/2000/svg">
    <path fill-rule="evenodd" clip-rule="evenodd"
        d="M13.75 2H10.25C9.00736 2 8 3.00736 8 4.25V7.75C8 8.99264 9.00736 10 10.25 10H11.25V12.0986L9.15691 13.494C8.77161 13.1849 8.2824 13 7.75 13H4.25C3.00736 13 2 14.0074 2 15.25V18.75C2 19.9926 3.00736 21 4.25 21H7.75C8.34674 21 8.91903 20.7629 9.34099 20.341C9.76295 19.919 10 19.3467 10 18.75V15.25C10 15.0849 9.98223 14.924 9.94849 14.7691L12 13.4014L14.0515 14.7691C14.0178 14.924 14 15.0849 14 15.25V18.75C14 19.9926 15.0074 21 16.25 21H19.75C20.9926 21 22 19.9926 22 18.75V15.25C22 14.0074 20.9926 13 19.75 13H16.25C15.7176 13 15.2284 13.1849 14.8431 13.494L12.75 12.0986V10H13.75C14.9926 10 16 8.99264 16 7.75V4.25C16 3.00736 14.9926 2 13.75 2Z"
        fill="currentColor" />
</svg>
