<svg viewBox="0 0 24 24" fill="none" xmlns="http://www.w3.org/2000/svg">
    <path d="M9.39918 12.5H11.3267C12.3868 12.5 13.4035 12.9242 14.1531 13.6793C14.9027 14.4344 15.3239 15.4585 15.3239 16.5263H9.10517L9.10606 17.4211H16.2121V16.5263C16.2093 15.5743 15.9362 14.6429 15.4251 13.8421H17.9886C18.8283 13.8419 19.6508 14.0814 20.3608 14.5329C21.0707 14.9844 21.6391 15.6293 22 16.393C19.8993 19.1855 16.4981 21 12.6591 21C10.2066 21 8.12897 20.4721 6.44129 19.5461V11.2214C7.52195 11.3774 8.54243 11.8185 9.39918 12.5ZM5.55303 19.2105C5.55303 19.4478 5.45944 19.6754 5.29286 19.8432C5.12628 20.011 4.90035 20.1053 4.66477 20.1053H2.88826C2.65268 20.1053 2.42674 20.011 2.26016 19.8432C2.09358 19.6754 2 19.4478 2 19.2105V11.1579C2 10.9206 2.09358 10.693 2.26016 10.5252C2.42674 10.3574 2.65268 10.2632 2.88826 10.2632H4.66477C4.90035 10.2632 5.12628 10.3574 5.29286 10.5252C5.45944 10.693 5.55303 10.9206 5.55303 11.1579V19.2105ZM17.1004 6.68421C17.8071 6.68421 18.4849 6.96701 18.9847 7.4704C19.4844 7.97378 19.7651 8.65652 19.7651 9.36842C19.7651 10.0803 19.4844 10.7631 18.9847 11.2664C18.4849 11.7698 17.8071 12.0526 17.1004 12.0526C16.3936 12.0526 15.7158 11.7698 15.2161 11.2664C14.7164 10.7631 14.4356 10.0803 14.4356 9.36842C14.4356 8.65652 14.7164 7.97378 15.2161 7.4704C15.7158 6.96701 16.3936 6.68421 17.1004 6.68421ZM10.8826 4C11.5893 4 12.2671 4.2828 12.7669 4.78619C13.2666 5.28957 13.5473 5.97231 13.5473 6.68421C13.5473 7.39611 13.2666 8.07885 12.7669 8.58223C12.2671 9.08562 11.5893 9.36842 10.8826 9.36842C10.1758 9.36842 9.49804 9.08562 8.99829 8.58223C8.49855 8.07885 8.2178 7.39611 8.2178 6.68421C8.2178 5.97231 8.49855 5.28957 8.99829 4.78619C9.49804 4.2828 10.1758 4 10.8826 4Z" fill="currentColor" />
</svg>