<?xml version="1.0" encoding="utf-8"?>
<svg version="1.1" xmlns="http://www.w3.org/2000/svg" xmlns:xlink="http://www.w3.org/1999/xlink" x="0px" y="0px"
  viewBox="0 0 16 16" style="enable-background:new 0 0 16 16;" xml:space="preserve">
  <path fill="currentColor" d="M8.9,0.3c-0.5-0.4-1.2-0.4-1.7,0L0.2,7c-0.3,0.2-0.3,0.6,0,0.9c0.2,0.3,0.6,0.3,0.9,0l0.1-0.1v6.9c0,0.7,0.6,1.3,1.3,1.3
	c0,0,0,0,0,0h3.7v-3.9c0-0.5,0.4-0.9,0.9-0.9c0,0,0,0,0,0h1.8c0.5,0,0.9,0.4,0.9,0.9c0,0,0,0,0,0V16h3.8c0.7,0,1.3-0.6,1.3-1.3
	c0,0,0,0,0,0V7.9c0.3,0.3,0.7,0.2,0.9,0c0.2-0.3,0.2-0.7,0-0.9c0,0,0,0,0,0L8.9,0.3L8.9,0.3z" />
</svg>
