<svg viewBox="0 0 24 24" xmlns="http://www.w3.org/2000/svg">
  <path fill="currentColor" fill-rule="evenodd" clip-rule="evenodd"
    d="M18.5 4.42001H5.50002C3.77165 4.50108 2.43221 5.96107 2.50002 7.69001V13.15C2.43221 14.879 3.77165 16.3389 5.50002 16.42H9.24002C9.13756 17.058 8.98373 17.6868 8.78002 18.3L8.44002 19.24C8.3378 19.491 8.35989 19.7755 8.49962 20.0078C8.63935 20.24 8.88037 20.3928 9.15002 20.42H14.85C15.1197 20.3928 15.3607 20.24 15.5004 20.0078C15.6402 19.7755 15.6622 19.491 15.56 19.24L15.22 18.3C15.0163 17.6868 14.8625 17.058 14.76 16.42H18.5C20.2284 16.3389 21.5678 14.879 21.5 13.15V7.69001C21.5678 5.96107 20.2284 4.50108 18.5 4.42001ZM10.15 18.92V18.8C10.3668 18.1878 10.534 17.5591 10.65 16.92H13.27C13.3907 17.558 13.5578 18.1864 13.77 18.8V18.92H10.15ZM18.5 14.92C19.3978 14.8354 20.0638 14.0495 20 13.15V7.69001C20.0638 6.79053 19.3978 6.00467 18.5 5.92001H5.50002C4.60227 6.00467 3.93629 6.79053 4.00002 7.69001V13.15C3.93629 14.0495 4.60227 14.8354 5.50002 14.92H18.5Z" />
</svg>
