<svg viewBox="0 0 24 24" fill="none" xmlns="http://www.w3.org/2000/svg">
<path fill="currentColor" fill-rule="evenodd" clip-rule="evenodd" d="M18.5 4H5.50002C3.77165 4.08106 2.43221 5.54105 2.50002 7.27V12.73C2.43221 14.4589 3.77165 15.9189 5.50002 16H9.26002C9.15103 16.6386 8.99051 17.2673 8.78002 17.88L8.44002 18.82C8.3378 19.071 8.35989 19.3555 8.49962 19.5877C8.63935 19.82 8.88037 19.9727 9.15002 20H14.86C15.1299 19.974 15.3711 19.8208 15.5094 19.5876C15.6477 19.3544 15.6665 19.0693 15.56 18.82L15.23 17.88C15.0105 17.2701 14.8497 16.6405 14.75 16H18.5C20.2284 15.9189 21.5678 14.4589 21.5 12.73V7.27C21.5678 5.54105 20.2284 4.08106 18.5 4ZM11.43 14.08C11.43 13.6658 11.7658 13.33 12.18 13.33C12.5942 13.33 12.93 13.6658 12.93 14.08C12.93 14.4942 12.5942 14.83 12.18 14.83C11.7658 14.83 11.43 14.4942 11.43 14.08ZM5.00002 12.47H19V12.5C19.4142 12.5 19.75 12.1642 19.75 11.75C19.75 11.3358 19.4142 11 19 11H5.00002C4.70203 10.9395 4.397 11.0649 4.22773 11.3175C4.05846 11.5701 4.05846 11.8999 4.22773 12.1525C4.397 12.4051 4.70203 12.5305 5.00002 12.47Z" />
</svg>
