<svg viewBox="0 0 24 24" fill="none" xmlns="http://www.w3.org/2000/svg">
  <path fill-rule="evenodd" clip-rule="evenodd"
    d="M12.75 6.46027V20.0035L20.8892 17.6443C21.1029 17.5823 21.25 17.3866 21.25 17.164V4.66201C21.25 4.32902 20.9306 4.08908 20.6108 4.18178L12.75 6.46027ZM20.1932 2.74108L11.25 5.33331V20.669C11.25 21.3349 11.8888 21.8148 12.5284 21.6294L21.3068 19.085C22.1617 18.8372 22.75 18.0542 22.75 17.164V4.66201C22.75 3.33007 21.4725 2.37027 20.1932 2.74108Z"
    fill="currentColor" />
  <path fill-rule="evenodd" clip-rule="evenodd"
    d="M19.6005 7.87387C19.7315 8.26683 19.5191 8.69157 19.1261 8.82256L15.7928 9.93367C15.3998 10.0647 14.9751 9.85228 14.8441 9.45933C14.7131 9.06637 14.9255 8.64163 15.3185 8.51064L18.6518 7.39953C19.0447 7.26855 19.4695 7.48091 19.6005 7.87387Z"
    fill="currentColor" />
  <path fill-rule="evenodd" clip-rule="evenodd"
    d="M19.6005 11.2072C19.7315 11.6002 19.5191 12.0249 19.1261 12.1559L15.7928 13.267C15.3998 13.398 14.9751 13.1857 14.8441 12.7927C14.7131 12.3997 14.9255 11.975 15.3185 11.844L18.6518 10.7329C19.0447 10.6019 19.4695 10.8143 19.6005 11.2072Z"
    fill="currentColor" />
  <path fill-rule="evenodd" clip-rule="evenodd"
    d="M19.6005 14.5405C19.7315 14.9335 19.5191 15.3582 19.1261 15.4892L15.7928 16.6003C15.3998 16.7313 14.9751 16.5189 14.8441 16.126C14.7131 15.733 14.9255 15.3083 15.3185 15.1773L18.6518 14.0662C19.0447 13.9352 19.4695 14.1475 19.6005 14.5405Z"
    fill="currentColor" />
  <path fill-rule="evenodd" clip-rule="evenodd"
    d="M4.53845 7.76279C4.40746 8.15575 4.61983 8.58049 5.01279 8.71147L8.34612 9.82258C8.73908 9.95357 9.16382 9.7412 9.29481 9.34824C9.42579 8.95528 9.21342 8.53054 8.82046 8.39956L5.48713 7.28845C5.09417 7.15746 4.66943 7.36983 4.53845 7.76279Z"
    fill="currentColor" />
  <path fill-rule="evenodd" clip-rule="evenodd"
    d="M4.53845 11.0962C4.40746 11.4891 4.61983 11.9139 5.01279 12.0448L8.34612 13.156C8.73908 13.2869 9.16382 13.0746 9.29481 12.6816C9.42579 12.2887 9.21342 11.8639 8.82046 11.7329L5.48713 10.6218C5.09417 10.4908 4.66943 10.7032 4.53845 11.0962Z"
    fill="currentColor" />
  <path fill-rule="evenodd" clip-rule="evenodd"
    d="M4.53845 14.4294C4.40746 14.8224 4.61983 15.2471 5.01279 15.3781L8.34612 16.4892C8.73908 16.6202 9.16382 16.4078 9.29481 16.0149C9.42579 15.6219 9.21342 15.1972 8.82046 15.0662L5.48713 13.9551C5.09417 13.8241 4.66943 14.0365 4.53845 14.4294Z"
    fill="currentColor" />
  <path fill-rule="evenodd" clip-rule="evenodd"
    d="M11.25 6.46027V20.0035L3.1108 17.6443C2.89707 17.5823 2.75 17.3866 2.75 17.164V4.66201C2.75 4.32902 3.06938 4.08908 3.3892 4.18178L11.25 6.46027ZM3.80679 2.74108L12.75 5.33331V20.669C12.75 21.3349 12.1112 21.8148 11.4716 21.6294L2.69321 19.085C1.83827 18.8372 1.25 18.0542 1.25 17.164V4.66201C1.25 3.33007 2.52751 2.37027 3.80679 2.74108Z"
    fill="currentColor" />
</svg>
