<svg viewBox="0 0 24 24" xmlns="http://www.w3.org/2000/svg">
  <path fill-rule="evenodd" clip-rule="evenodd"
    d="M5.80952 2H18.1905C20.2944 2 22 3.70558 22 5.80952V18.1905C22 20.2944 20.2944 22 18.1905 22H5.80952C3.70558 22 2 20.2944 2 18.1905V5.80952C2 3.70558 3.70558 2 5.80952 2ZM18.1905 20.5714C19.5054 20.5714 20.5714 19.5054 20.5714 18.1905V5.80952C20.5714 4.49456 19.5054 3.42857 18.1905 3.42857H5.80952C4.49456 3.42857 3.42857 4.49456 3.42857 5.80952V18.1905C3.42857 19.5054 4.49456 20.5714 5.80952 20.5714H18.1905Z"
    fill="currentColor" />
  <path
    d="M17.2381 8.90479H14.3809C13.9865 8.90479 13.6667 9.22458 13.6667 9.61907C13.6667 10.0136 13.9865 10.3334 14.3809 10.3334H15.2667L11.8762 13.7238L9.97142 11.8191C9.46597 11.3154 8.64831 11.3154 8.14285 11.8191L5.65714 14.2286C5.37861 14.5075 5.37861 14.9592 5.65714 15.2381C5.79036 15.373 5.97231 15.4485 6.1619 15.4476C6.3517 15.4496 6.53406 15.3739 6.66666 15.2381L9.01904 12.8857L10.9238 14.7905C11.4325 15.2953 12.2532 15.2953 12.7619 14.7905L16.4857 11.0667V12.4762C16.4857 12.8707 16.8055 13.1905 17.2 13.1905C17.5945 13.1905 17.9143 12.8707 17.9143 12.4762V9.61907C17.9101 9.24088 17.6155 8.92964 17.2381 8.90479V8.90479Z"
    fill="currentColor" />
</svg>
