<svg viewBox="0 0 24 24" xmlns="http://www.w3.org/2000/svg">
  <path fill-rule="evenodd" clip-rule="evenodd"
    d="M18.9487 6.19361H13.9268C12.7688 6.19361 11.83 5.25484 11.83 4.09681C11.83 2.93877 10.8912 2 9.73321 2H4.71136C2.66573 1.99999 1.00579 3.65524 1.00001 5.70086V18.1244C0.997229 19.1106 1.38701 20.0572 2.08333 20.7555C2.77964 21.4538 3.72523 21.8463 4.71136 21.8463H18.9487C21.0001 21.8405 22.66 20.1759 22.66 18.1244V9.91544C22.66 7.86402 21.0001 6.19939 18.9487 6.19361ZM17.1769 18.5543H15.9398C16.1604 18.853 16.1384 19.2662 15.8873 19.5398C15.7385 19.7002 15.5296 19.7914 15.3107 19.7914C15.1126 19.7904 14.922 19.7156 14.776 19.5817L13.455 18.3446C13.3007 18.1946 13.2136 17.9885 13.2136 17.7732C13.2136 17.558 13.3007 17.3519 13.455 17.2018L14.7551 15.9647C15.062 15.6581 15.5594 15.6581 15.8664 15.9647C16.1207 16.2357 16.1471 16.6491 15.9293 16.9502H17.1769C17.6477 16.9854 18.1118 16.8218 18.4565 16.4991C18.8011 16.1763 18.9949 15.724 18.9906 15.2518C18.9906 14.8175 19.3426 14.4655 19.7769 14.4655C20.2112 14.4655 20.5632 14.8175 20.5632 15.2518C20.5754 16.1461 20.2197 17.006 19.5794 17.6305C18.9392 18.2549 18.0705 18.5889 17.1769 18.5543ZM19.0221 14.151L20.3221 12.9139V12.8929C20.4764 12.7429 20.5635 12.5368 20.5635 12.3215C20.5635 12.1063 20.4764 11.9002 20.3221 11.7501L19.0116 10.513C18.8243 10.3033 18.5393 10.2094 18.264 10.2667C17.9888 10.324 17.765 10.5238 17.6769 10.7909C17.5889 11.0579 17.6501 11.3517 17.8374 11.5614H16.6002C15.7121 11.5271 14.8484 11.8569 14.2091 12.4744C13.5699 13.0919 13.2104 13.9436 13.2139 14.8324C13.2139 15.2667 13.5659 15.6188 14.0002 15.6188C14.4345 15.6188 14.7865 15.2667 14.7865 14.8324C14.7823 14.3603 14.976 13.9079 15.3206 13.5852C15.6653 13.2624 16.1294 13.0988 16.6002 13.134H17.8583C17.6847 13.3688 17.6576 13.6811 17.7882 13.9423C17.9188 14.2035 18.1849 14.3692 18.4769 14.3712C18.6802 14.371 18.8756 14.2921 19.0221 14.151Z"
    fill="currentColor" />
</svg>
