<?xml version="1.0" encoding="utf-8"?>
<!-- Generator: Adobe Illustrator 24.1.0, SVG Export Plug-In . SVG Version: 6.00 Build 0)  -->
<svg version="1.1" id="图层_1" xmlns="http://www.w3.org/2000/svg" xmlns:xlink="http://www.w3.org/1999/xlink" x="0px" y="0px"
	 viewBox="0 0 16 16" style="enable-background:new 0 0 16 16;" xml:space="preserve">
<style type="text/css">
	.st0{fill:#285A83;}
	.st1{fill:#EF6F53;}
</style>
<g>
	<path class="st0" d="M14.8,8.4h-3.9c-0.2,0-0.4-0.2-0.4-0.4s0.2-0.4,0.4-0.4h3.9c0.2,0,0.4,0.2,0.4,0.4S15,8.4,14.8,8.4z"/>
	<path class="st0" d="M5.5,9.8H1.6c-0.2,0-0.4-0.2-0.4-0.4s0.2-0.4,0.4-0.4h3.9c0.2,0,0.4,0.2,0.4,0.4S5.7,9.8,5.5,9.8z"/>
	<rect x="9.4" y="2.4" transform="matrix(0.9896 -0.1435 0.1435 0.9896 -0.2868 1.6256)" class="st0" width="3.5" height="0.9"/>
	<rect x="3.4" y="3.3" transform="matrix(0.9896 -0.1435 0.1435 0.9896 -0.4791 0.75)" class="st0" width="3.2" height="0.9"/>
	<path class="st0" d="M15.6,14.3H0.4c-0.2,0-0.4-0.2-0.4-0.4c0-0.2,0.2-0.4,0.4-0.4h15.1c0.2,0,0.4,0.2,0.4,0.4
		C16,14.1,15.8,14.3,15.6,14.3z"/>
	<rect x="7.6" y="4.8" class="st0" width="0.9" height="8.7"/>
	<path class="st1" d="M12.9,10.5c-1.3,0-2.4-1.1-2.4-2.4c0-0.2,0-0.5,0.1-0.7l1.9-5.1c0.1-0.2,0.2-0.3,0.4-0.3l0,0
		c0.2,0,0.3,0.1,0.4,0.3l1.8,5c0.1,0.3,0.1,0.5,0.1,0.8C15.2,9.5,14.2,10.5,12.9,10.5z M12.9,3.8l-1.5,4c0,0.1-0.1,0.3-0.1,0.4
		c0,0.8,0.7,1.5,1.5,1.5s1.5-0.7,1.5-1.5c0-0.2,0-0.3-0.1-0.5L12.9,3.8z"/>
	<path class="st1" d="M3.5,11.9c-1.3,0-2.4-1.1-2.4-2.4c0-0.2,0-0.5,0.1-0.7l1.9-5.1c0.1-0.2,0.2-0.3,0.4-0.3c0.2,0,0.3,0.1,0.4,0.3
		l1.8,5C5.9,9,5.9,9.3,5.9,9.5C5.9,10.8,4.9,11.9,3.5,11.9z M3.6,5.2l-1.5,4C2.1,9.3,2,9.4,2,9.5C2,10.4,2.7,11,3.5,11
		c0.8,0,1.5-0.7,1.5-1.5c0-0.2,0-0.3-0.1-0.5L3.6,5.2z"/>
	<path class="st0" d="M8,5.2c-1,0-1.9-0.8-1.9-1.9S7,1.5,8,1.5s1.9,0.8,1.9,1.9S9,5.2,8,5.2z M8,2.3c-0.5,0-1,0.4-1,1s0.4,1,1,1
		s1-0.4,1-1S8.5,2.3,8,2.3z"/>
</g>
</svg>
