<svg xmlns="http://www.w3.org/2000/svg" viewBox="0 0 16 16">
  <path
    fill="currentColor"
    d="M13.14,10.26a2.18,2.18,0,0,0-1,.23l-.93-.93A3,3,0,0,0,11.74,8a3,3,0,0,0-.45-1.58l1.1-1.1a1.9,1.9,0,0,0,.79.17,2,2,0,1,0-1.63-.85l-1,1A3,3,0,0,0,7.1,5.39L5.5,3.8a2.54,2.54,0,0,0,.36-1.28A2.53,2.53,0,1,0,3.33,5.05a2.47,2.47,0,0,0,1.44-.46L6.31,6.13a3,3,0,0,0,0,3.66L4.91,11.21A2.64,2.64,0,1,0,6,13.34,2.59,2.59,0,0,0,5.63,12l1.5-1.5A3,3,0,0,0,8.71,11a3,3,0,0,0,1.82-.62l.84.84a2.1,2.1,0,0,0-.4,1.23,2.17,2.17,0,1,0,2.17-2.16Zm0-7.7a.9.9,0,1,1-.9.9A.9.9,0,0,1,13.18,2.56ZM3.33,4A1.44,1.44,0,1,1,4.78,2.52,1.44,1.44,0,0,1,3.33,4Zm0,11a1.57,1.57,0,1,1,1.57-1.57A1.57,1.57,0,0,1,3.35,14.91Zm5.36-5A1.95,1.95,0,1,1,10.66,8,1.94,1.94,0,0,1,8.71,9.89Zm4.43,3.62a1.09,1.09,0,1,1,1.08-1.09A1.09,1.09,0,0,1,13.14,13.51Z" />
</svg>
