<svg viewBox="0 0 24 24" xmlns="http://www.w3.org/2000/svg">
  <path
    d="M9.74994 14.63C9.93809 14.9871 9.80993 15.429 9.45994 15.63C9.34865 15.6878 9.22533 15.7186 9.09994 15.72C8.82777 15.7206 8.57602 15.5757 8.43994 15.34L7.14994 13C6.95887 12.6394 7.09111 12.1923 7.44755 11.9937C7.804 11.795 8.25384 11.9178 8.45994 12.27L9.74994 14.63Z"
    fill="currentColor" />
  <path fill-rule="evenodd" clip-rule="evenodd"
    d="M14.16 10.15H18.94C19.2162 10.15 19.44 10.3738 19.44 10.65V17.57C19.44 19.7791 17.6492 21.57 15.44 21.57H8.55005C6.34091 21.57 4.55005 19.7791 4.55005 17.57V6.41998C4.55005 4.21084 6.34091 2.41998 8.55005 2.41998H11.22C11.494 2.4253 11.7147 2.64607 11.72 2.91998V7.68998C11.7174 8.33977 11.973 8.96399 12.4306 9.42533C12.8882 9.88667 13.5103 10.1473 14.16 10.15ZM11.8719 20.1725C12.0036 20.1013 12.0812 19.9593 12.07 19.81L12.13 17.83C12.1266 17.5501 12.0545 17.2754 11.92 17.03L9.29005 12.23C8.92011 11.3348 7.90811 10.8929 7.00005 11.23C6.21528 11.8152 6.03806 12.9184 6.60005 13.72L9.22005 18.54C9.35297 18.7874 9.54981 18.9946 9.79005 19.14L11.46 20.14C11.5789 20.231 11.7402 20.2438 11.8719 20.1725Z"
    fill="currentColor" />
  <path
    d="M12.77 2.99998V7.56998C12.77 8.38736 13.4326 9.04998 14.25 9.04998H18.88C19.1269 9.07033 19.3578 8.9261 19.4478 8.69535C19.5377 8.46459 19.4655 8.20213 19.27 8.04998L13.72 2.59998C13.5588 2.44354 13.3197 2.39856 13.1127 2.48573C12.9057 2.5729 12.7708 2.77535 12.77 2.99998Z"
    fill="currentColor" />
</svg>
