<svg viewBox="0 0 24 24" xmlns="http://www.w3.org/2000/svg">
  <path
    d="M12.18 11.35C13.8175 11.3502 15.1527 10.0373 15.18 8.40001V7.28001C15.1801 6.61528 14.9133 5.97834 14.4395 5.51209C13.9658 5.04583 13.3246 4.78928 12.66 4.80001H11.71C10.3442 4.80551 9.23998 5.91424 9.23999 7.28001V8.40001C9.26658 10.0142 10.5659 11.3179 12.18 11.35Z"
    fill="currentColor" />
  <path
    d="M22.78 16.5101L22.66 15.0001C22.5303 14.2417 21.8793 13.6831 21.11 13.6701H16.79C16.7238 13.6597 16.6563 13.6597 16.59 13.6701C16.2068 13.2396 15.6564 12.9954 15.08 13.0001H9.29004C8.67968 12.9974 8.10151 13.2736 7.72004 13.7501C7.55665 13.6903 7.38401 13.6599 7.21004 13.6601H2.89004C2.11763 13.674 1.46545 14.2378 1.34004 15.0001L1.22004 16.5601C1.11955 17.0385 1.23502 17.5368 1.53567 17.9223C1.83632 18.3077 2.29157 18.5411 2.78004 18.5601H7.33004C7.41974 18.5704 7.51034 18.5704 7.60004 18.5601C7.99666 18.9978 8.55932 19.2483 9.15004 19.2501H15.22C15.7928 19.2473 16.339 19.0086 16.73 18.5901H21.22C21.7262 18.5761 22.1984 18.3318 22.5022 17.9267C22.8061 17.5216 22.9084 16.9999 22.78 16.5101Z"
    fill="currentColor" />
  <path
    d="M19 12.11C20.215 12.11 21.2 11.1251 21.2 9.91003V9.06003C21.2002 8.56059 20.9984 8.0823 20.6406 7.73388C20.2828 7.38546 19.7993 7.19653 19.3 7.21003H18.6C17.5783 7.21003 16.75 8.0383 16.75 9.06003V9.91003C16.7498 10.5023 16.9885 11.0696 17.4119 11.4836C17.8354 11.8977 18.4079 12.1235 19 12.11Z"
    fill="currentColor" />
  <path
    d="M5.0501 12.11C6.26512 12.11 7.2501 11.125 7.2501 9.90996V9.05996C7.2501 8.03823 6.42182 7.20996 5.4001 7.20996H4.7001C3.67837 7.20996 2.8501 8.03823 2.8501 9.05996V9.90996C2.8501 11.125 3.83507 12.11 5.0501 12.11Z"
    fill="currentColor" />
</svg>
