<svg viewBox="0 0 24 24" xmlns="http://www.w3.org/2000/svg">
  <path fill-rule="evenodd" clip-rule="evenodd"
    d="M15.9999 8.76003C15.9673 10.3934 14.6336 11.7004 12.9999 11.7C11.3857 11.6734 10.082 10.3742 10.0499 8.76003V7.63003C10.0497 6.96442 10.3182 6.3269 10.7945 5.86192C11.2707 5.39694 11.9145 5.14386 12.5799 5.16003H13.5199C14.1767 5.15737 14.8076 5.41643 15.2729 5.87993C15.7383 6.34344 15.9999 6.97321 15.9999 7.63003V8.76003ZM12.5499 6.63003C11.9976 6.63003 11.5499 7.07775 11.5499 7.63003L11.5899 8.76003C11.5899 9.56084 12.2391 10.21 13.0399 10.21C13.8407 10.21 14.4899 9.56084 14.4899 8.76003V7.63003C14.4899 7.07775 14.0422 6.63003 13.4899 6.63003H12.5499Z"
    fill="currentColor" />
  <path fill-rule="evenodd" clip-rule="evenodd"
    d="M23.48 15.3L23.59 16.86C23.7055 17.3483 23.5927 17.8625 23.2833 18.2575C22.974 18.6525 22.5017 18.8853 22 18.89H17.51C17.1183 19.3076 16.5725 19.5461 16 19.55H9.99997C9.39856 19.5581 8.82282 19.3067 8.41997 18.86C8.32693 18.8704 8.23302 18.8704 8.13997 18.86H3.54997C3.06195 18.8416 2.60715 18.608 2.30799 18.2219C2.00882 17.8359 1.89603 17.3372 1.99997 16.86L2.14997 15.3C2.29589 14.5557 2.94158 14.0141 3.69997 14H7.99997C8.17946 13.9901 8.35923 14.0138 8.52997 14.07C8.91363 13.5908 9.49612 13.3143 10.11 13.32H15.89C16.4679 13.3179 17.0185 13.5658 17.4 14C17.4696 13.9902 17.5403 13.9902 17.61 14H21.93C22.6884 14.0141 23.3341 14.5557 23.48 15.3ZM17.55 17.36H22.08C22.1106 17.3011 22.1142 17.2318 22.09 17.17V16.97L21.99 15.55L21.93 15.47H17.64H17.4C16.9772 15.4716 16.5737 15.2934 16.29 14.98C16.1908 14.8614 16.0447 14.792 15.89 14.79H10.11C9.94245 14.7922 9.78468 14.8692 9.67998 15C9.39452 15.3389 8.97305 15.5331 8.52998 15.53C8.34855 15.5309 8.16863 15.4969 7.99998 15.43H3.74998C3.68998 15.43 3.68998 15.45 3.68998 15.51L3.58998 16.93V17.13C3.5626 17.1904 3.5626 17.2597 3.58998 17.32H8.17998C8.28642 17.3103 8.39354 17.3103 8.49998 17.32C8.90637 17.3276 9.29094 17.5054 9.55998 17.81C9.67031 17.9392 9.8302 18.0155 9.99998 18.02H16.04C16.2101 18.0167 16.3704 17.9402 16.48 17.81C16.7612 17.5216 17.1471 17.3592 17.55 17.36Z"
    fill="currentColor" />
  <path fill-rule="evenodd" clip-rule="evenodd"
    d="M21.9699 10.2601C21.9699 11.4751 20.985 12.4601 19.7699 12.4601C19.1847 12.4627 18.6226 12.2321 18.2078 11.8193C17.7931 11.4064 17.5599 10.8453 17.5599 10.2601V9.42007C17.5599 8.92942 17.7548 8.45886 18.1018 8.11192C18.4487 7.76498 18.9193 7.57007 19.4099 7.57007H20.1199C21.1417 7.57007 21.9699 8.39834 21.9699 9.42007V10.2601ZM19.1624 9.21258C19.0968 9.27822 19.0599 9.36724 19.0599 9.46007V10.3001C19.1025 10.6571 19.4053 10.926 19.7649 10.926C20.1245 10.926 20.4273 10.6571 20.4699 10.3001V9.46007C20.4699 9.26677 20.3132 9.11007 20.1199 9.11007H19.4099C19.3171 9.11007 19.2281 9.14694 19.1624 9.21258Z"
    fill="currentColor" />
  <path fill-rule="evenodd" clip-rule="evenodd"
    d="M7.42214 11.8193C7.00739 12.2321 6.44524 12.4627 5.86003 12.4601C5.27656 12.4601 4.71698 12.2283 4.3044 11.8157C3.89182 11.4031 3.66003 10.8435 3.66003 10.2601V9.42007C3.66003 8.39834 4.48831 7.57007 5.51003 7.57007H6.22003C7.24176 7.57007 8.07003 8.39834 8.07003 9.42007V10.2601C8.07004 10.8453 7.83688 11.4064 7.42214 11.8193ZM5.51003 9.11007C5.31673 9.11007 5.16003 9.26677 5.16003 9.46007V10.3001C5.20263 10.6571 5.50545 10.926 5.86503 10.926C6.22462 10.926 6.52743 10.6571 6.57003 10.3001V9.46007C6.57003 9.26677 6.41333 9.11007 6.22003 9.11007H5.51003Z"
    fill="currentColor" />
</svg>
