<svg viewBox="0 0 24 24" xmlns="http://www.w3.org/2000/svg">
  <path fill-rule="evenodd" clip-rule="evenodd"
    d="M19.58 16.71L19.82 17.85C20.0474 18.8356 19.8228 19.8713 19.2076 20.6741C18.5924 21.477 17.6508 21.9632 16.64 22H7.35997C6.34915 21.9632 5.40754 21.477 4.79232 20.6741C4.1771 19.8713 3.95254 18.8356 4.17997 17.85L4.41997 16.71C4.69601 15.1668 6.02259 14.0327 7.58997 14H16.41C17.9774 14.0327 19.3039 15.1668 19.58 16.71ZM16.64 20.49C17.1478 20.4841 17.6256 20.2488 17.94 19.85V19.86C18.3257 19.3762 18.4759 18.7458 18.35 18.14L18.11 17C17.9768 16.1552 17.2646 15.5226 16.41 15.49H7.58998C6.73534 15.5226 6.02314 16.1552 5.88998 17L5.64998 18.14C5.52713 18.7426 5.67724 19.3686 6.05998 19.85C6.37431 20.2488 6.85219 20.4841 7.35998 20.49H16.64Z"
    fill="currentColor" />
  <path fill-rule="evenodd" clip-rule="evenodd"
    d="M12.5 12H11.5C9.29089 12 7.50003 10.2092 7.50003 8.00003V5.36003C7.49736 4.46809 7.85051 3.61191 8.48121 2.98121C9.11191 2.35051 9.96809 1.99736 10.86 2.00003H13.14C14.032 1.99736 14.8882 2.35051 15.5189 2.98121C16.1496 3.61191 16.5027 4.46809 16.5 5.36003V8.00003C16.5 10.2092 14.7092 12 12.5 12ZM10.86 3.50003C9.83278 3.50003 9.00003 4.33278 9.00003 5.36003V8.00003C9.00003 9.38074 10.1193 10.5 11.5 10.5H12.5C13.8807 10.5 15 9.38074 15 8.00003V5.36003C15 4.86673 14.8041 4.39363 14.4552 4.04481C14.1064 3.69599 13.6333 3.50003 13.14 3.50003H10.86Z"
    fill="currentColor" />
</svg>
