<svg viewBox="0 0 24 24" fill="none" xmlns="http://www.w3.org/2000/svg">
    <path d="M10.7809 11.1695H9.78401C7.58164 11.1695 5.79628 9.38416 5.79628 7.1818V4.5499C5.79362 3.66069 6.14568 2.80714 6.77445 2.17838C7.40321 1.54961 8.25676 1.19755 9.14597 1.20021H11.419C12.3082 1.19755 13.1617 1.54961 13.7905 2.17838C14.4193 2.80714 14.7713 3.66069 14.7687 4.5499V7.1818C14.7687 8.23941 14.3485 9.2537 13.6007 10.0015C12.8528 10.7494 11.8385 11.1695 10.7809 11.1695Z" fill="currentColor" />
    <path fill-rule="evenodd" clip-rule="evenodd" d="M12.9574 12.8311H5.88613C4.32356 12.8636 3.00104 13.9942 2.72585 15.5327L2.48659 16.6692C2.25985 17.6518 2.48372 18.6843 3.09706 19.4847C3.71039 20.2851 4.64911 20.7699 5.65683 20.8065H11.4176C10.9637 19.9074 10.708 18.8912 10.708 17.8152C10.708 15.8304 11.578 14.0489 12.9574 12.8311Z" fill="currentColor" />
    <path fill-rule="evenodd" clip-rule="evenodd" d="M17.3541 22.8004C20.1071 22.8004 22.3388 20.5687 22.3388 17.8157C22.3388 15.0628 20.1071 12.8311 17.3541 12.8311C14.6012 12.8311 12.3694 15.0628 12.3694 17.8157C12.3694 20.5687 14.6012 22.8004 17.3541 22.8004ZM15.6758 15.1197C16.1045 14.701 16.6828 14.4916 17.4205 14.4916C18.0685 14.4916 18.5969 14.6611 18.9956 15.02C19.3944 15.3689 19.5938 15.8474 19.5938 16.4556C19.5938 16.954 19.4642 17.3628 19.2249 17.6818C19.1352 17.7815 18.8461 18.0506 18.3676 18.4694C18.1881 18.6189 18.0585 18.7884 17.9688 18.9678C17.8691 19.1672 17.8193 19.3766 17.8193 19.6158V19.7554H16.6728V19.6158C16.6728 19.237 16.7326 18.908 16.8722 18.6388C17.0018 18.3697 17.3906 17.951 18.0386 17.3727L18.1582 17.2332C18.3377 17.0138 18.4274 16.7746 18.4274 16.5253C18.4274 16.1964 18.3277 15.9372 18.1482 15.7477C17.9588 15.5583 17.6897 15.4686 17.3507 15.4686C16.912 15.4686 16.603 15.5982 16.4136 15.8773C16.2441 16.1066 16.1643 16.4356 16.1643 16.8543H15.0278C15.0278 16.1166 15.2372 15.5384 15.6758 15.1197ZM16.6927 20.4533C16.8423 20.3137 17.0217 20.2439 17.241 20.2439C17.4604 20.2439 17.6498 20.3137 17.7993 20.4533C17.9389 20.5928 18.0186 20.7723 18.0186 20.9916C18.0186 21.2109 17.9389 21.4003 17.7893 21.5399C17.6398 21.6795 17.4604 21.7493 17.241 21.7493C17.0217 21.7493 16.8423 21.6695 16.6927 21.5299C16.5432 21.3904 16.4734 21.2109 16.4734 20.9916C16.4734 20.7723 16.5432 20.5928 16.6927 20.4533Z" fill="currentColor" />
</svg>