<svg version="1.1" xmlns="http://www.w3.org/2000/svg" xmlns:xlink="http://www.w3.org/1999/xlink" x="0px"
	y="0px" viewBox="0 0 16 16" style="enable-background:new 0 0 16 16;" xml:space="preserve">
	<path fill="currentColor" d="M8.3,11c-1.5,0-2.8-1.3-2.8-2.8V7.8C5.5,6.2,6.8,5,8.3,5h6.8V2.8c0-1.5-1.3-2.8-2.8-2.8H3.6C2.1,0,0.9,1.3,0.9,2.8v10.4
	c0,1.5,1.3,2.8,2.8,2.8h8.7c1.5,0,2.8-1.3,2.8-2.8V11H8.3z" />
	<path fill="currentColor" d="M8.5,6.2C7.5,6.2,6.8,7,6.8,8v0c0,1,0.8,1.7,1.7,1.7h6.4c0.1,0,0.2-0.1,0.2-0.2V6.4c0-0.1-0.1-0.2-0.2-0.2H8.5z M8.6,8.8
	c-0.5,0-0.9-0.4-0.9-0.9S8.1,7,8.6,7s0.9,0.4,0.9,0.9S9.1,8.8,8.6,8.8z" />
</svg>
