<svg viewBox="0 0 24 24" fill="none" xmlns="http://www.w3.org/2000/svg">
  <path fill-rule="evenodd" clip-rule="evenodd"
    d="M9.70637 8.75884C9.70637 8.75884 9.70637 8.75885 9.70637 8.75885C9.56993 9.14187 9.15161 9.3474 8.76376 9.21871C8.37063 9.08826 8.15767 8.66381 8.28812 8.27067L8.99996 8.50687C8.28812 8.27067 8.2883 8.27015 8.28847 8.26962L8.28884 8.26852L8.28961 8.26622L8.29133 8.26119L8.29548 8.2494C8.29857 8.24079 8.30231 8.23069 8.30676 8.21919C8.31566 8.19621 8.32742 8.16759 8.34247 8.13417C8.37254 8.06739 8.41599 7.98093 8.47639 7.88163C8.5973 7.68288 8.78689 7.43153 9.07308 7.1851C9.65835 6.68114 10.5863 6.25 12 6.25C13.3758 6.25 14.4186 6.62508 15.0695 7.40256C15.7083 8.16544 15.8317 9.15393 15.7468 10.0756C15.6908 10.6842 15.369 11.1799 15.0182 11.5524C14.6644 11.928 14.2291 12.2344 13.8306 12.4711C13.4304 12.7089 13.0395 12.8926 12.75 13.0167L12.7501 14.0067C12.7501 14.4209 12.4144 14.7568 12.0002 14.7568C11.586 14.7568 11.2502 14.4211 11.2501 14.0069L11.25 12.5069C11.2499 12.1867 11.4532 11.9018 11.7559 11.7976C11.756 11.7976 11.756 11.7976 11.7561 11.7976M11.7566 11.7974L11.7595 11.7964L11.7779 11.7898C11.7951 11.7836 11.8219 11.7738 11.8569 11.7605C11.927 11.7339 12.0295 11.6935 12.1539 11.6403C12.4044 11.533 12.7348 11.3773 13.0645 11.1815C13.3985 10.9831 13.7045 10.7594 13.9263 10.5239C14.151 10.2853 14.2392 10.0888 14.2531 9.93811C14.3203 9.20806 14.1937 8.69311 13.9194 8.36549C13.6574 8.05247 13.1241 7.75 12 7.75C10.9136 7.75 10.3416 8.07229 10.0518 8.32177C9.90053 8.45206 9.80887 8.57742 9.7579 8.66121C9.73237 8.70318 9.71723 8.73444 9.71019 8.75008C9.70837 8.75411 9.70711 8.75706 9.70637 8.75884"
    fill="currentColor" />
  <path
    d="M13 17C13 17.5523 12.5523 18 12 18C11.4477 18 11 17.5523 11 17C11 16.4477 11.4477 16 12 16C12.5523 16 13 16.4477 13 17Z"
    fill="currentColor" />
  <path fill-rule="evenodd" clip-rule="evenodd"
    d="M12 20.5C16.6944 20.5 20.5 16.6944 20.5 12C20.5 7.30558 16.6944 3.5 12 3.5C7.30558 3.5 3.5 7.30558 3.5 12C3.5 16.6944 7.30558 20.5 12 20.5ZM12 22C17.5228 22 22 17.5228 22 12C22 6.47715 17.5228 2 12 2C6.47715 2 2 6.47715 2 12C2 17.5228 6.47715 22 12 22Z"
    fill="currentColor" />
</svg>
