<svg viewBox="0 0 24 24" fill="none" xmlns="http://www.w3.org/2000/svg">
  <path fill-rule="evenodd" clip-rule="evenodd"
    d="M12 3C7.02944 3 3 7.02944 3 12C3 16.9706 7.02944 21 12 21C16.9706 21 21 16.9706 21 12C21 7.02944 16.9706 3 12 3ZM9.882 7.896C10.47 7.294 11.282 7 12.318 7C13.214 7 13.942 7.238 14.502 7.742C15.062 8.232 15.342 8.904 15.342 9.744C15.342 10.43 15.16 11.004 14.81 11.452C14.684 11.606 14.292 11.97 13.634 12.544C13.368 12.768 13.172 13.02 13.046 13.272C12.892 13.552 12.822 13.86 12.822 14.196C12.822 14.3421 12.7035 14.434 12.5574 14.434H11.562C11.4306 14.434 11.324 14.3274 11.324 14.196C11.324 13.678 11.408 13.23 11.604 12.866C11.786 12.474 12.318 11.9 13.186 11.13L13.424 10.864C13.676 10.542 13.816 10.206 13.816 9.842C13.816 9.352 13.676 8.974 13.41 8.694C13.13 8.414 12.724 8.274 12.22 8.274C11.59 8.274 11.128 8.47 10.848 8.876C10.7066 9.06459 10.6048 9.29728 10.5428 9.57407C10.454 9.97017 10.1409 10.304 9.735 10.304C9.32907 10.304 8.99088 9.97253 9.05632 9.57191C9.16736 8.8921 9.44259 8.33541 9.882 7.896ZM11.338 15.47C11.534 15.274 11.786 15.19 12.066 15.19C12.36 15.19 12.612 15.274 12.808 15.47C13.004 15.652 13.102 15.89 13.102 16.184C13.102 16.478 12.99 16.716 12.794 16.912C12.598 17.094 12.346 17.192 12.066 17.192C11.786 17.192 11.534 17.094 11.338 16.898C11.142 16.702 11.044 16.464 11.044 16.184C11.044 15.89 11.142 15.652 11.338 15.47Z"
    fill="currentColor" />
</svg>
