<svg viewBox="0 0 24 24" fill="none" xmlns="http://www.w3.org/2000/svg">
    <path
        d="M7.6665 2.6665H6.6665C3.6665 2.6665 2.6665 4.40585 2.6665 6.5533V7.525V21.1288C2.6665 21.9353 3.6065 22.392 4.2665 21.9061L5.9765 20.6624C6.3765 20.3709 6.9365 20.4097 7.2965 20.7595L8.9565 22.3823C9.3465 22.7612 9.9865 22.7612 10.3765 22.3823L12.0565 20.7498C12.4065 20.4097 12.9665 20.3709 13.3565 20.6624L15.0665 21.9061C15.7265 22.3823 16.6665 21.9256 16.6665 21.1288V4.6099C16.6665 3.54103 17.5665 2.6665 18.6665 2.6665H7.6665ZM7.2365 8.52585C7.7865 8.52585 8.2365 8.96311 8.2365 9.49755C8.2365 10.032 7.7865 10.4692 7.2365 10.4692C6.6865 10.4692 6.2365 10.032 6.2365 9.49755C6.2365 8.96311 6.6865 8.52585 7.2365 8.52585ZM12.0965 14.4046C11.5365 14.4046 11.0965 13.9674 11.0965 13.4329C11.0965 12.8985 11.5465 12.4612 12.0965 12.4612C12.6465 12.4612 13.0965 12.8985 13.0965 13.4329C13.0965 13.9674 12.6465 14.4046 12.0965 14.4046ZM12.9265 9.27406L7.4665 14.5795C7.3165 14.7253 7.1265 14.7933 6.9365 14.7933C6.7465 14.7933 6.5565 14.7253 6.4065 14.5795C6.1165 14.2977 6.1165 13.8313 6.4065 13.5495L11.8665 8.24406C12.1565 7.96226 12.6365 7.96226 12.9265 8.24406C13.2165 8.52585 13.2165 8.99227 12.9265 9.27406Z"
        fill="currentColor" />
    <path
        d="M17.7868 2.6665V3.99984C18.3735 3.99984 18.9335 4.23984 19.3423 4.63984C19.769 5.07539 20.0001 5.63539 20.0001 6.22206V8.37317C20.0001 9.03095 19.7068 9.33317 19.0401 9.33317H17.3335V4.45317C17.3335 4.20428 17.5379 3.99984 17.7868 3.99984V2.6665ZM17.7868 2.6665C16.8001 2.6665 16.0001 3.4665 16.0001 4.45317V10.6665H19.0401C20.4446 10.6665 21.3335 9.77761 21.3335 8.37317V6.22206C21.3335 5.24428 20.9335 4.35539 20.2935 3.7065C19.6446 3.0665 18.7646 2.67539 17.7868 2.6665C17.7957 2.6665 17.7868 2.6665 17.7868 2.6665Z"
        fill="currentColor" />
</svg>