<svg viewBox="0 0 24 24" fill="none" xmlns="http://www.w3.org/2000/svg">
  <path fill-rule="evenodd" clip-rule="evenodd" d="M8.004 3H15.996C18.7596 3 21 5.24037 21 8.004V15.996C21 18.7596 18.7596 21 15.996 21H8.004C5.24037 21 3 18.7596 3 15.996V8.004C3 5.24037 5.24037 3 8.004 3ZM6.3376 14.8846C7.2503 17.2151 9.49708 18.7489 11.9999 18.75C15.1399 18.7297 17.7486 16.3231 18.0215 13.1949C18.2944 10.0668 16.1419 7.2448 13.0529 6.681L13.1969 6.528C13.4902 6.23723 13.4922 5.76377 13.2014 5.4705C12.9106 5.17724 12.4372 5.17523 12.1439 5.466L10.8029 6.798C10.6588 6.93708 10.5774 7.12874 10.5774 7.329C10.5774 7.52926 10.6588 7.72093 10.8029 7.86L12.1439 9.201C12.2835 9.33775 12.4705 9.41516 12.6659 9.417C12.8638 9.41471 13.0536 9.33754 13.1969 9.201C13.4317 8.95887 13.4724 8.58838 13.2959 8.301C15.3032 8.90013 16.6539 10.7779 16.5834 12.8715C16.5129 14.9652 15.0391 16.7478 12.9961 17.2107C10.953 17.6735 8.85483 16.7 7.88899 14.8411C6.92316 12.9822 7.33273 10.7057 8.88591 9.3C9.18911 9.01917 9.20724 8.54571 8.92641 8.2425C8.64557 7.9393 8.17211 7.92117 7.86891 8.202C6.03251 9.90253 5.4249 12.5542 6.3376 14.8846Z" fill="currentColor" />
</svg>
