<svg viewBox="0 0 24 24" fill="none" xmlns="http://www.w3.org/2000/svg">
  <path d="M12.5 1.45749L21.25 5.59099V12.6855C21.25 16.4835 18.132 20.472 13.1715 21.884L12.964 21.9415L12.5 22.0615L12.0305 21.94C7.11 20.624 3.939 16.758 3.7575 12.983L3.7515 12.8215L3.75 5.59149L12.5 1.45749ZM12.4995 3.11649L5.2495 6.54099L5.2515 12.802C5.3285 15.8395 7.895 19.1145 12.0095 20.374L12.2095 20.4335L12.4125 20.4895L12.499 20.512L12.582 20.491C16.8735 19.343 19.58 16.058 19.742 12.978L19.748 12.8315L19.75 12.6855V6.54099L12.4995 3.11649Z" fill="currentColor" />
  <path fill-rule="evenodd" clip-rule="evenodd" d="M12.823 7.32313C13.1969 7.50154 13.3553 7.94922 13.1769 8.32304L11.689 11.4405H14.5C14.7626 11.4405 15.006 11.5778 15.1419 11.8025C15.2777 12.0272 15.2861 12.3066 15.1641 12.5391L13.164 16.3486C12.9715 16.7154 12.5181 16.8566 12.1514 16.664C11.7846 16.4715 11.6434 16.0181 11.836 15.6514L13.2592 12.9405H10.5C10.2425 12.9405 10.003 12.8084 9.86566 12.5906C9.72828 12.3728 9.71223 12.0998 9.82314 11.8674L11.8231 7.67694C12.0016 7.30312 12.4492 7.14472 12.823 7.32313Z" fill="currentColor" />
</svg>
