<?xml version="1.0" encoding="utf-8"?>
<!-- Generator: Adobe Illustrator 24.1.0, SVG Export Plug-In . SVG Version: 6.00 Build 0)  -->
<svg version="1.1" id="图层_1" xmlns="http://www.w3.org/2000/svg" xmlns:xlink="http://www.w3.org/1999/xlink" x="0px" y="0px"
	 viewBox="0 0 16 16" style="enable-background:new 0 0 16 16;" xml:space="preserve">
<style type="text/css">
	.st0{fill:#EF6F53;}
	.st1{fill:#285A83;}
</style>
<g>
	<path class="st0" d="M8.6,12.5H6.4c-0.2,0-0.4-0.2-0.4-0.4s0.2-0.4,0.4-0.4h2.3c0.3,0,0.6-0.3,0.6-0.6S9,10.4,8.6,10.4H7.4
		c-0.8,0-1.4-0.6-1.4-1.4V8.9c0-0.8,0.6-1.4,1.4-1.4h2.3c0.2,0,0.4,0.2,0.4,0.4c0,0.2-0.2,0.4-0.4,0.4H7.4C7,8.3,6.8,8.6,6.8,8.9V9
		c0,0.3,0.3,0.6,0.6,0.6h1.2c0.8,0,1.4,0.6,1.4,1.4S9.4,12.5,8.6,12.5z"/>
	<path class="st0" d="M8,8.2C7.8,8.2,7.6,8,7.6,7.7V6.8c0-0.2,0.2-0.4,0.4-0.4c0.2,0,0.4,0.2,0.4,0.4v0.9C8.5,8,8.3,8.2,8,8.2z"/>
	<path class="st0" d="M8,13.5c-0.2,0-0.4-0.2-0.4-0.4v-1.1c0-0.2,0.2-0.4,0.4-0.4c0.2,0,0.4,0.2,0.4,0.4v1.1
		C8.5,13.4,8.3,13.5,8,13.5z"/>
	<g>
		<path class="st1" d="M13.8,5.1H2.2c-0.8,0-1.4,0.6-1.4,1.4v6.8c0,0.8,0.6,1.4,1.4,1.4h11.5c0.8,0,1.4-0.6,1.4-1.4V6.5
			C15.2,5.7,14.5,5.1,13.8,5.1z M14.4,13.3c0,0.3-0.3,0.6-0.6,0.6H2.2c-0.3,0-0.6-0.3-0.6-0.6V6.5c0-0.3,0.3-0.6,0.6-0.6h11.5
			c0.3,0,0.6,0.3,0.6,0.6V13.3z"/>
		<path class="st1" d="M15.7,3.9l-7-2.5c-0.4-0.2-1-0.2-1.4,0l-7,2.5C0.1,4-0.1,4.2,0,4.4c0.1,0.2,0.2,0.3,0.4,0.3c0,0,0.1,0,0.1,0
			l7-2.5c0.3-0.1,0.6-0.1,0.8,0l7,2.5c0.2,0.1,0.4,0,0.5-0.2C16.1,4.2,15.9,4,15.7,3.9z"/>
	</g>
</g>
</svg>
