<svg viewBox="0 0 24 24" xmlns="http://www.w3.org/2000/svg">
  <path fill-rule="evenodd" clip-rule="evenodd"
    d="M17.5 3H7C4.79086 3 3 4.79086 3 7V17.5C3 19.7091 4.79086 21.5 7 21.5H17.5C19.7091 21.5 21.5 19.7091 21.5 17.5V7C21.5 4.79086 19.7091 3 17.5 3ZM18.34 12.91C18.3427 13.115 18.2625 13.3125 18.1175 13.4575C17.9725 13.6025 17.775 13.6827 17.57 13.68C17.2598 13.6851 16.9821 13.8735 16.8627 14.1599C16.7434 14.4463 16.8052 14.7762 17.02 15C17.1647 15.1444 17.2461 15.3405 17.2461 15.545C17.2461 15.7495 17.1647 15.9456 17.02 16.09L16.09 17.02C15.9455 17.1647 15.7495 17.2461 15.545 17.2461C15.3405 17.2461 15.1444 17.1647 15 17.02C14.7762 16.8052 14.4463 16.7434 14.1599 16.8628C13.8735 16.9821 13.6851 17.2598 13.68 17.57C13.6827 17.775 13.6025 17.9725 13.4575 18.1175C13.3125 18.2625 13.115 18.3427 12.91 18.34H11.59C11.385 18.3427 11.1875 18.2625 11.0425 18.1175C10.8975 17.9725 10.8173 17.775 10.82 17.57C10.8149 17.2598 10.6265 16.9821 10.3401 16.8628C10.0537 16.7434 9.72384 16.8052 9.5 17.02C9.35555 17.1647 9.15947 17.2461 8.955 17.2461C8.75052 17.2461 8.55444 17.1647 8.41 17.02L7.48 16.09C7.33527 15.9456 7.25394 15.7495 7.25394 15.545C7.25394 15.3405 7.33527 15.1444 7.48 15C7.69483 14.7762 7.75658 14.4463 7.63725 14.1599C7.51792 13.8735 7.24021 13.6851 6.93 13.68C6.72496 13.6827 6.52753 13.6025 6.38253 13.4575C6.23753 13.3125 6.15728 13.115 6.16 12.91V11.59C6.15728 11.385 6.23753 11.1875 6.38253 11.0425C6.52753 10.8975 6.72496 10.8173 6.93 10.82C7.24021 10.8149 7.51792 10.6265 7.63725 10.3401C7.75658 10.0537 7.69483 9.72384 7.48 9.5C7.33527 9.35555 7.25394 9.15948 7.25394 8.955C7.25394 8.75052 7.33527 8.55445 7.48 8.41L8.41 7.48C8.55444 7.33527 8.75052 7.25394 8.955 7.25394C9.15947 7.25394 9.35555 7.33527 9.5 7.48C9.72384 7.69483 10.0537 7.75658 10.3401 7.63725C10.6265 7.51792 10.8149 7.24021 10.82 6.93C10.8173 6.72496 10.8975 6.52753 11.0425 6.38253C11.1875 6.23754 11.385 6.15728 11.59 6.16H12.91C13.115 6.15728 13.3125 6.23754 13.4575 6.38253C13.6025 6.52753 13.6827 6.72496 13.68 6.93C13.6851 7.24021 13.8735 7.51792 14.1599 7.63725C14.4463 7.75658 14.7762 7.69483 15 7.48C15.1444 7.33527 15.3405 7.25394 15.545 7.25394C15.7495 7.25394 15.9455 7.33527 16.09 7.48L17.02 8.41C17.1647 8.55445 17.2461 8.75052 17.2461 8.955C17.2461 9.15948 17.1647 9.35555 17.02 9.5C16.8052 9.72384 16.7434 10.0537 16.8627 10.3401C16.9821 10.6265 17.2598 10.8149 17.57 10.82C17.775 10.8173 17.9725 10.8975 18.1175 11.0425C18.2625 11.1875 18.3427 11.385 18.34 11.59V12.91ZM12.25 10.1C11.0626 10.1 10.1 11.0626 10.1 12.25C10.1 13.4374 11.0626 14.4 12.25 14.4C13.4374 14.4 14.4 13.4374 14.4 12.25C14.4 11.0626 13.4374 10.1 12.25 10.1ZM12.25 12.9C11.891 12.9 11.6 12.609 11.6 12.25C11.6 11.891 11.891 11.6 12.25 11.6C12.609 11.6 12.9 11.891 12.9 12.25C12.9 12.4224 12.8315 12.5877 12.7096 12.7096C12.5877 12.8315 12.4224 12.9 12.25 12.9Z"
    fill="currentColor" />
</svg>
