<svg viewBox="0 0 24 24" xmlns="http://www.w3.org/2000/svg">
  <path fill-rule="evenodd" clip-rule="evenodd"
    d="M7 3H17.5C19.7091 3 21.5 4.79086 21.5 7V17.5C21.5 19.7091 19.7091 21.5 17.5 21.5H7C4.79086 21.5 3 19.7091 3 17.5V7C3 4.79086 4.79086 3 7 3ZM17.5 20C18.8807 20 20 18.8807 20 17.5V7C20 5.61929 18.8807 4.5 17.5 4.5H7C5.61929 4.5 4.5 5.61929 4.5 7V17.5C4.5 18.8807 5.61929 20 7 20H17.5Z"
    fill="currentColor" />
  <path fill-rule="evenodd" clip-rule="evenodd"
    d="M16.8627 10.3401C16.9821 10.6265 17.2598 10.8149 17.57 10.82C17.775 10.8173 17.9725 10.8975 18.1174 11.0425C18.2624 11.1875 18.3427 11.3849 18.34 11.59V12.91C18.3427 13.115 18.2624 13.3125 18.1174 13.4574C17.9725 13.6024 17.775 13.6827 17.57 13.68C17.2598 13.6851 16.9821 13.8735 16.8627 14.1599C16.7434 14.4463 16.8051 14.7761 17.02 15C17.1647 15.1444 17.246 15.3405 17.246 15.545C17.246 15.7495 17.1647 15.9455 17.02 16.09L16.09 17.02C15.9469 17.1672 15.7503 17.2503 15.545 17.2503C15.3397 17.2503 15.1431 17.1672 15 17.02C14.8552 16.8796 14.6617 16.8007 14.46 16.8C14.254 16.7973 14.0556 16.8772 13.909 17.0219C13.7625 17.1666 13.68 17.364 13.68 17.57C13.6827 17.775 13.6024 17.9725 13.4574 18.1174C13.3125 18.2624 13.115 18.3427 12.91 18.34H11.59C11.3849 18.3427 11.1875 18.2624 11.0425 18.1174C10.8975 17.9725 10.8173 17.775 10.82 17.57C10.82 17.364 10.7375 17.1666 10.5909 17.0219C10.4444 16.8772 10.2459 16.7973 10.04 16.8C9.83831 16.8007 9.64477 16.8796 9.49998 17.02C9.35688 17.1672 9.1603 17.2503 8.95498 17.2503C8.74966 17.2503 8.55308 17.1672 8.40998 17.02L7.47998 16.09C7.33525 15.9455 7.25392 15.7495 7.25392 15.545C7.25392 15.3405 7.33525 15.1444 7.47998 15C7.69481 14.7761 7.75656 14.4463 7.63723 14.1599C7.5179 13.8735 7.24019 13.6851 6.92998 13.68C6.72494 13.6827 6.52751 13.6024 6.38251 13.4574C6.23752 13.3125 6.15726 13.115 6.15998 12.91V11.59C6.15726 11.3849 6.23752 11.1875 6.38251 11.0425C6.52751 10.8975 6.72494 10.8173 6.92998 10.82C7.24019 10.8149 7.5179 10.6265 7.63723 10.3401C7.75656 10.0537 7.69481 9.72382 7.47998 9.49998C7.33525 9.35553 7.25392 9.15945 7.25392 8.95498C7.25392 8.7505 7.33525 8.55442 7.47998 8.40998L8.40998 7.47998C8.55308 7.33274 8.74966 7.24967 8.95498 7.24967C9.1603 7.24967 9.35688 7.33274 9.49998 7.47998C9.64477 7.62036 9.83831 7.69921 10.04 7.69998C10.2459 7.70265 10.4444 7.62271 10.5909 7.47802C10.7375 7.33332 10.82 7.13594 10.82 6.92998C10.8173 6.72494 10.8975 6.52751 11.0425 6.38251C11.1875 6.23752 11.3849 6.15726 11.59 6.15998H12.91C13.115 6.15726 13.3125 6.23752 13.4574 6.38251C13.6024 6.52751 13.6827 6.72494 13.68 6.92998C13.68 7.13594 13.7625 7.33332 13.909 7.47802C14.0556 7.62271 14.254 7.70265 14.46 7.69998C14.6617 7.69921 14.8552 7.62036 15 7.47998C15.1431 7.33274 15.3397 7.24967 15.545 7.24967C15.7503 7.24967 15.9469 7.33274 16.09 7.47998L17.02 8.40998C17.1647 8.55442 17.246 8.7505 17.246 8.95498C17.246 9.15945 17.1647 9.35553 17.02 9.49998C16.8051 9.72382 16.7434 10.0537 16.8627 10.3401ZM15.47 13.59C15.7207 12.9835 16.2196 12.5138 16.84 12.3V12.25C16.2196 12.0361 15.7207 11.5664 15.47 10.96C15.2189 10.3572 15.2408 9.67538 15.53 9.08998L15.46 9.01998C15.1487 9.1723 14.8065 9.251 14.46 9.24998C13.49 9.22301 12.6433 8.585 12.35 7.65998H12.25C11.9508 8.60221 11.0785 9.2443 10.09 9.24998C9.74342 9.251 9.40127 9.1723 9.08998 9.01998L9.01998 9.08998C9.30917 9.67538 9.33105 10.3572 9.07998 10.96C8.82924 11.5664 8.33039 12.0361 7.70998 12.25V12.3C8.33039 12.5138 8.82924 12.9835 9.07998 13.59C9.33105 14.1927 9.30917 14.8746 9.01998 15.46L9.08998 15.53C9.40127 15.3777 9.74342 15.299 10.09 15.3C11.0652 15.2985 11.9334 15.9175 12.25 16.84H12.3C12.5118 16.2206 12.9795 15.7222 13.5842 15.4715C14.1889 15.2208 14.8721 15.2421 15.46 15.53L15.53 15.46C15.2408 14.8746 15.2189 14.1927 15.47 13.59Z"
    fill="currentColor" />
  <path fill-rule="evenodd" clip-rule="evenodd"
    d="M10.1 12.25C10.1 11.0626 11.0626 10.1 12.25 10.1C13.4374 10.1 14.4 11.0626 14.4 12.25C14.4 13.4374 13.4374 14.4 12.25 14.4C11.0626 14.4 10.1 13.4374 10.1 12.25ZM11.6 12.25C11.6 12.609 11.891 12.9 12.25 12.9C12.4224 12.9 12.5877 12.8315 12.7096 12.7096C12.8315 12.5877 12.9 12.4224 12.9 12.25C12.9 11.891 12.609 11.6 12.25 11.6C11.891 11.6 11.6 11.891 11.6 12.25Z"
    fill="currentColor" />
</svg>
