<svg viewBox="0 0 24 24" fill="none" xmlns="http://www.w3.org/2000/svg">
  <path fill="currentColor" fill-rule="evenodd" clip-rule="evenodd"
    d="M15.4393 3.69V3.52C15.4393 2.68053 14.7588 2 13.9193 2H9.37929C8.53982 2 7.85929 2.68053 7.85929 3.52V3.66C5.668 3.84277 3.98646 5.68114 3.99929 7.88V18.52C3.99929 19.6409 4.44527 20.7158 5.23883 21.5075C6.0324 22.2992 7.10835 22.7427 8.22929 22.74H15.0793C16.2002 22.7427 17.2762 22.2992 18.0697 21.5075C18.8633 20.7158 19.3093 19.6409 19.3093 18.52V7.88C19.3013 5.69099 17.6208 3.87154 15.4393 3.69ZM9.3782 3.52H13.9382V4.71H9.3782V3.52ZM11.701 9.14H8.58097C8.16676 9.14 7.83097 9.47579 7.83097 9.89C7.83097 10.3042 8.16676 10.64 8.58097 10.64H11.701C12.1152 10.64 12.451 10.3042 12.451 9.89C12.451 9.47579 12.1152 9.14 11.701 9.14ZM13.891 16.69H8.58097C8.16676 16.69 7.83097 16.3542 7.83097 15.94C7.83097 15.5258 8.16676 15.19 8.58097 15.19H13.891C14.3052 15.19 14.641 15.5258 14.641 15.94C14.641 16.3542 14.3052 16.69 13.891 16.69ZM8.58097 13.76H14.721C15.1352 13.76 15.471 13.4242 15.471 13.01C15.471 12.5958 15.1352 12.26 14.721 12.26H8.58097C8.16676 12.26 7.83097 12.5958 7.83097 13.01C7.83097 13.4242 8.16676 13.76 8.58097 13.76Z" />
</svg>
