<svg viewBox="0 0 24 24" fill="none" xmlns="http://www.w3.org/2000/svg">
  <path fill-rule="evenodd" clip-rule="evenodd"
    d="M19.77 5.19001L13.87 1.92001C12.7107 1.26006 11.2893 1.26006 10.13 1.92001L4.22998 5.19001C3.00026 5.86624 2.23446 7.15663 2.22998 8.56001V14.91C2.23351 15.506 2.37018 16.0936 2.62998 16.63V16.68C2.0603 17.8994 2.31183 19.3447 3.25998 20.3L5.48998 22.42C5.97563 22.8891 6.62474 23.1509 7.29998 23.15C7.96977 23.148 8.61355 22.8905 9.09998 22.43L10.03 21.54C11.1909 22.194 12.6091 22.194 13.77 21.54L19.67 18.27C20.8997 17.5938 21.6655 16.3034 21.67 14.9V8.56001C21.6859 7.17746 20.9612 5.89198 19.77 5.19001ZM9.08998 20.5L8.16998 21.38C7.71602 21.8207 6.99394 21.8207 6.53998 21.38L4.33998 19.28C3.84909 18.7722 3.70713 18.0211 3.97879 17.3691C4.25045 16.7171 4.88372 16.289 5.58998 16.28C6.05844 16.2841 6.50686 16.4706 6.83998 16.8L7.35998 17.32L7.86998 16.8C8.2031 16.4706 8.65152 16.2841 9.11998 16.28C9.82624 16.289 10.4595 16.7171 10.7312 17.3691C11.0028 18.0211 10.8609 18.7722 10.37 19.28L9.08998 20.5ZM19 17C19.7717 16.5887 20.2527 15.7845 20.25 14.91L20.21 8.56001C20.2097 7.70483 19.7468 6.91673 19 6.50001L13.18 3.23001C12.4724 2.8308 11.6076 2.8308 10.9 3.23001L4.99998 6.50001C4.24548 6.9115 3.77431 7.7006 3.76998 8.56001V14.9C3.75527 15.0496 3.75527 15.2004 3.76998 15.35C4.84956 14.637 6.2504 14.637 7.32998 15.35C8.71657 14.3969 10.6038 14.6762 11.6549 15.99C12.706 17.3039 12.5642 19.2065 11.33 20.35L11.24 20.44C11.8566 20.6452 12.5308 20.5836 13.1 20.27L19 17Z"
    fill="currentColor" />
  <path
    d="M16.9 7.63999L12.49 10.09C12.1806 10.2686 11.7994 10.2686 11.49 10.09L7.10003 7.63999C6.85709 7.50958 6.56303 7.51869 6.32863 7.66389C6.09423 7.80908 5.95509 8.06829 5.96363 8.34389C5.97217 8.61948 6.12709 8.86958 6.37003 8.99999L10.78 11.46C10.9307 11.5346 11.0881 11.5949 11.25 11.64V13.96C11.25 14.3742 11.5858 14.71 12 14.71C12.4142 14.71 12.75 14.3742 12.75 13.96V11.59C12.9138 11.5458 13.0716 11.482 13.22 11.4L17.63 8.99999C17.8701 8.87275 18.0226 8.62561 18.0287 8.35396C18.0347 8.08231 17.8933 7.82864 17.6591 7.69086C17.4249 7.55308 17.1345 7.55275 16.9 7.68999V7.63999Z"
    fill="currentColor" />
</svg>
