<svg viewBox="0 0 24 24" xmlns="http://www.w3.org/2000/svg">
    <path
        d="M18.0516 6.35336L11.91 4.3299C11.7907 4.29106 11.6615 4.29136 11.5425 4.33074L5.41007 6.38222C5.18292 6.45828 5.03075 6.66513 5.03128 6.89711L5.04563 13.1842C5.2262 16.8734 11.3018 19.1207 11.5602 19.2145C11.6241 19.2378 11.6924 19.2496 11.7605 19.2494C11.829 19.2493 11.8968 19.2371 11.9607 19.2136C12.2182 19.1186 18.2829 16.8436 18.4476 13.1296L18.4333 6.86652C18.4328 6.63454 18.2797 6.42836 18.0516 6.35336Z"
        fill="currentColor" />
    <path fill-rule="evenodd" clip-rule="evenodd"
        d="M15.8569 9.75955L10.6476 14.1429L8.14258 11.7716L8.9017 11.053L10.6909 12.7467L15.1436 9L15.8569 9.75955Z"
        fill="inherit" />
    <path
        d="M10.2725 18.5578C9.98551 17.1257 9.84203 16.4097 10.1972 15.8766C10.5523 15.3435 11.267 15.2003 12.6966 14.9138L17.4396 13.9635C18.8692 13.677 19.584 13.5338 20.117 13.8889C20.6501 14.244 20.7936 14.9601 21.0806 16.3922C21.3675 17.8243 21.511 18.5404 21.1559 19.0734C20.8008 19.6065 20.086 19.7497 18.6565 20.0362L13.9134 20.9866C12.4839 21.273 11.7691 21.4162 11.236 21.0611C10.7029 20.706 10.5594 19.99 10.2725 18.5578Z"
        fill="#DC4946" />
    <path d="M13.2383 16.3318L13.7424 16.224L14.3888 19.2485L13.8847 19.3563L13.2383 16.3318Z" fill="currentColor" />
    <path d="M14.4375 16.3521L14.8701 16.6323L13.1886 19.228L12.756 18.9478L14.4375 16.3521Z" fill="currentColor" />
    <path d="M12.6543 16.733L12.374 17.1657L14.9698 18.8472L15.25 18.4146L12.6543 16.733Z" fill="currentColor" />
    <path d="M17.3613 15.3009L17.8654 15.1932L18.5118 18.2176L18.0078 18.3254L17.3613 15.3009Z" fill="currentColor" />
    <path d="M18.5605 15.3212L18.9932 15.6014L17.3116 18.1972L16.879 17.9169L18.5605 15.3212Z" fill="currentColor" />
    <path d="M16.7773 15.7021L16.4971 16.1348L19.0928 17.8163L19.3731 17.3837L16.7773 15.7021Z" fill="currentColor" />
</svg>