<svg viewBox="0 0 24 24" fill="none" xmlns="http://www.w3.org/2000/svg">
  <path fill-rule="evenodd" clip-rule="evenodd"
    d="M18 7.5C18 8.88071 16.8807 10 15.5 10C14.1193 10 13 8.88071 13 7.5V6.1C13 4.9402 13.9402 4 15.1 4H15.9C17.0598 4 18 4.9402 18 6.1V7.5ZM15.1 5.5C14.7686 5.5 14.5 5.76863 14.5 6.1V7.5C14.5 8.05228 14.9477 8.5 15.5 8.5C16.0523 8.5 16.5 8.05228 16.5 7.5V6.1C16.5 5.76863 16.2314 5.5 15.9 5.5H15.1Z"
    fill="currentColor" />
  <path fill-rule="evenodd" clip-rule="evenodd"
    d="M20 12.47L20.08 13C21.1532 13.0429 22.0008 13.9259 22 15V18C22 19.1045 21.1045 20 20 20H3.99998C2.89541 20 1.99998 19.1045 1.99998 18V15C1.99564 14.3312 2.32587 13.7045 2.87998 13.33C2.7847 13.1282 2.72386 12.9119 2.69998 12.69L2.50998 10.77C2.45629 10.2075 2.64306 9.64851 3.02411 9.23126C3.40516 8.81401 3.94493 8.57742 4.50998 8.57998C4.75656 8.58186 5.00066 8.62932 5.22998 8.71998L6.52998 9.21998C7.10457 9.44003 7.58992 9.84449 7.90998 10.37L8.57998 11.45C8.86428 11.9139 8.94733 12.4735 8.80998 13H10.63L10.74 12.47C10.9811 11.201 12.0785 10.2746 13.37 10.25H17.37C18.6614 10.2746 19.7589 11.201 20 12.47ZM13.42 11.76C12.8476 11.7826 12.3666 12.1972 12.26 12.76L12.21 13.03H18.57V12.76C18.4784 12.1927 17.9945 11.7719 17.42 11.76H13.42ZM4.14998 10.25C4.24052 10.1449 4.37133 10.0831 4.50998 10.08C4.56916 10.0659 4.6308 10.0659 4.68998 10.08L5.98998 10.58C6.25887 10.6806 6.48725 10.8669 6.63998 11.11L7.29998 12.2C7.3967 12.349 7.3967 12.541 7.29998 12.69C7.2195 12.8469 7.05634 12.9441 6.87998 12.94H4.70998C4.45948 12.9368 4.25002 12.7487 4.21998 12.5L3.99998 10.62C3.99519 10.4809 4.04972 10.3464 4.14998 10.25ZM20 18.5C20.2761 18.5 20.5 18.2761 20.5 18V15C20.5 14.7238 20.2761 14.5 20 14.5H3.99998C3.72384 14.5 3.49998 14.7238 3.49998 15V18C3.49998 18.2761 3.72384 18.5 3.99998 18.5H20Z"
    fill="currentColor" />
</svg>
