<svg viewBox="0 0 24 24" fill="none" xmlns="http://www.w3.org/2000/svg">
  <path
    d="M10.91 13.42L11.07 12.66C11.2519 11.6267 12.141 10.8676 13.19 10.85H17.6C18.649 10.8676 19.5381 11.6267 19.72 12.66L19.88 13.72"
    fill="currentColor" />
  <path
    d="M15.5 10C14.1193 10 13 8.88071 13 7.5V6.1C13 4.9402 13.9402 4 15.1 4H15.9C17.0598 4 18 4.9402 18 6.1V7.5C18 8.88071 16.8807 10 15.5 10Z"
    fill="currentColor" />
  <path fill-rule="evenodd" clip-rule="evenodd"
    d="M4 13H20C21.1046 13 22 13.8954 22 15V18C22 19.1046 21.1046 20 20 20H4C2.89543 20 2 19.1046 2 18V15C2 13.8954 2.89543 13 4 13ZM5 17.25H19C19.4142 17.25 19.75 16.9142 19.75 16.5C19.75 16.0858 19.4142 15.75 19 15.75H5C4.58579 15.75 4.25 16.0858 4.25 16.5C4.25 16.9142 4.58579 17.25 5 17.25Z"
    fill="currentColor" />
  <path
    d="M6.52999 9.3L5.22999 8.74C4.54798 8.47262 3.77435 8.5995 3.21347 9.07072C2.6526 9.54194 2.39422 10.2821 2.53999 11L2.72999 13.16C2.78044 14.243 3.64701 15.1096 4.72999 15.16H6.88999C7.65829 15.0808 8.33227 14.613 8.67525 13.921C9.01823 13.2289 8.98226 12.4093 8.57999 11.75L7.90999 10.53C7.59534 9.98137 7.11106 9.54973 6.52999 9.3Z"
    fill="currentColor" />
</svg>
