<svg viewBox="0 0 24 24" fill="none" xmlns="http://www.w3.org/2000/svg">
<path fill="currentColor" fill-rule="evenodd" clip-rule="evenodd" d="M18 7.5C18 8.88071 16.8807 10 15.5 10C14.1193 10 13 8.88071 13 7.5V6.1C13 4.9402 13.9402 4 15.1 4H15.9C17.0598 4 18 4.9402 18 6.1V7.5ZM15.1 5.5C14.7686 5.5 14.5 5.76863 14.5 6.1V7.5C14.5 8.05228 14.9477 8.5 15.5 8.5C16.0523 8.5 16.5 8.05228 16.5 7.5V6.1C16.5 5.76863 16.2314 5.5 15.9 5.5H15.1Z" />
<path fill="currentColor" fill-rule="evenodd" clip-rule="evenodd" d="M20 12.47L20.08 13C21.1532 13.043 22.0008 13.9259 22 15V18C22 19.1046 21.1045 20 20 20H3.99996C2.89539 20 1.99996 19.1046 1.99996 18V15C1.99562 14.3312 2.32585 13.7045 2.87996 13.33C2.78468 13.1282 2.72384 12.9119 2.69996 12.69L2.50996 10.77C2.45628 10.2075 2.64304 9.64853 3.02409 9.23128C3.40514 8.81403 3.94491 8.57744 4.50996 8.58C4.75654 8.58188 5.00064 8.62934 5.22996 8.72L6.52996 9.22C7.10455 9.44005 7.5899 9.84451 7.90996 10.37L8.57996 11.45C8.86426 11.9139 8.94731 12.4736 8.80996 13H10.63L10.74 12.47C10.981 11.201 12.0785 10.2746 13.37 10.25H17.37C18.6614 10.2746 19.7589 11.201 20 12.47ZM13.42 11.76C12.8476 11.7826 12.3666 12.1972 12.26 12.76L12.21 13.03H18.57V12.76C18.4783 12.1927 17.9945 11.772 17.42 11.76H13.42ZM4.14996 10.25C4.2405 10.1449 4.37131 10.0832 4.50996 10.08C4.56914 10.066 4.63078 10.066 4.68996 10.08L5.98996 10.58C6.25885 10.6807 6.48723 10.8669 6.63996 11.11L7.29996 12.2C7.39668 12.349 7.39668 12.541 7.29996 12.69C7.21948 12.847 7.05632 12.9441 6.87996 12.94H4.70996C4.45946 12.9368 4.25 12.7487 4.21996 12.5L3.99996 10.62C3.99517 10.481 4.0497 10.3464 4.14996 10.25ZM20 18.5C20.2761 18.5 20.5 18.2761 20.5 18V15C20.5 14.7239 20.2761 14.5 20 14.5H3.99996C3.72382 14.5 3.49996 14.7239 3.49996 15V18C3.49996 18.2761 3.72382 18.5 3.99996 18.5H20Z" />
</svg>
