<svg xmlns="http://www.w3.org/2000/svg" viewBox="0 0 16 16">
  <path
    fill="currentColor"
    d="M1.4,6.4v7.72a.69.69,0,0,0,.68.68H13.92a.68.68,0,0,0,.68-.68V6.4a.6.6,0,0,1,.6-.6h0a.59.59,0,0,1,.59.6v8.75a.85.85,0,0,1-.85.85H1.06a.85.85,0,0,1-.85-.85V6.4A.59.59,0,0,1,.8,5.8h0A.58.58,0,0,1,1.4,6.4ZM9,.3H9A.6.6,0,0,1,9.82.08L14,2.48a.6.6,0,0,1,.22.82h0a.6.6,0,0,1-.82.22l-1.55-.9L10,5.74,11.87,6.8A.88.88,0,0,1,12.18,8l-2,3.4A3.6,3.6,0,0,1,4,7.79l2-3.4a.88.88,0,0,1,1.19-.32L9,5.14,10.79,2l-1.56-.9A.61.61,0,0,1,9,.3ZM7,5.37a.18.18,0,0,0-.26.07L5,8.4a2.4,2.4,0,0,0,.73,3.18l.15.1A2.42,2.42,0,0,0,9.1,11l.1-.15,1.69-3a.19.19,0,0,0-.07-.26L9.43,6.77,8.52,8.33a.59.59,0,0,1-.81.22h0a.59.59,0,0,1-.22-.82l.9-1.55Z" />
  </svg>
