<svg viewBox="0 0 24 24" xmlns="http://www.w3.org/2000/svg">
    <path
        d="M11.3667 11.5C11.3667 11.7652 11.4721 12.0196 11.6596 12.2071C11.8471 12.3946 12.1015 12.5 12.3667 12.5C12.6319 12.5 12.8863 12.3946 13.0738 12.2071C13.2613 12.0196 13.3667 11.7652 13.3667 11.5C13.3667 11.2348 13.2613 10.9804 13.0738 10.7929C12.8863 10.6054 12.6319 10.5 12.3667 10.5C12.1015 10.5 11.8471 10.6054 11.6596 10.7929C11.4721 10.9804 11.3667 11.2348 11.3667 11.5Z"
        fill="currentColor" />
    <path
        d="M9.23314 15.3377C9.06647 15.3377 8.8998 15.271 8.76647 15.1377C7.83314 14.2044 7.2998 12.9377 7.2998 11.6044C7.2998 10.3377 7.76647 9.13771 8.66647 8.20438C8.93314 7.93771 9.33314 7.93771 9.5998 8.17104C9.86647 8.43771 9.86647 8.83771 9.63314 9.10437C8.99981 9.80437 8.63314 10.671 8.63314 11.6044C8.63314 12.571 8.9998 13.5044 9.6998 14.2044C9.96647 14.471 9.96647 14.871 9.6998 15.1377C9.5998 15.271 9.43314 15.3377 9.23314 15.3377Z"
        fill="currentColor" />
    <path
        d="M6.9 18.071C6.73333 18.071 6.56667 18.0044 6.43333 17.871C4.86667 16.3044 4 14.2044 4 11.971C4 9.80438 4.83333 7.73771 6.33333 6.20438C6.6 5.93771 7 5.93771 7.26667 6.17104C7.53333 6.43771 7.53333 6.83771 7.3 7.10438C6.03333 8.40438 5.33333 10.1377 5.33333 11.971C5.33333 13.8377 6.06667 15.6044 7.4 16.9044C7.66667 17.171 7.66667 17.571 7.4 17.8377C7.23333 18.0044 7.06667 18.071 6.9 18.071ZM17.7333 18.071C17.5667 18.071 17.4 18.0044 17.2667 17.871C17 17.6044 17 17.2044 17.2667 16.9377C18.6 15.6044 19.3333 13.871 19.3333 12.0044C19.3333 10.171 18.6333 8.47104 17.3667 7.13771C17.1 6.87104 17.1333 6.43771 17.4 6.20438C17.6667 5.93771 18.1 5.97104 18.3333 6.23771C19.8333 7.80437 20.6667 9.83771 20.6667 12.0044C20.6667 14.2377 19.8 16.3377 18.2333 17.9044C18.0667 18.0044 17.9 18.071 17.7333 18.071Z"
        fill="currentColor" />
    <path
        d="M15.3669 15.3508C15.2002 15.3508 15.0335 15.2841 14.9002 15.1508C14.6335 14.8841 14.6335 14.4841 14.9002 14.2174C15.6002 13.5174 15.9669 12.6174 15.9669 11.6174C15.9669 10.6841 15.6002 9.78411 14.9669 9.11745C14.7002 8.85078 14.7335 8.41745 15.0002 8.18411C15.2669 7.91745 15.7002 7.95078 15.9335 8.21745C16.8002 9.15078 17.3002 10.3508 17.3002 11.6174C17.3002 12.9508 16.7669 14.2174 15.8335 15.1508C15.7335 15.2841 15.5335 15.3508 15.3669 15.3508Z"
        fill="currentColor" />
</svg>