<svg viewBox="0 0 24 24" xmlns="http://www.w3.org/2000/svg">
    <path
        d="M21.0449 9.98488C18.2608 9.52131 15.4136 10.3038 13.2573 12.125C11.1011 13.9462 9.8535 16.6225 9.84488 19.4449C9.84052 19.9815 9.8874 20.5172 9.98488 21.0449C5.17255 20.2278 1.74176 15.9264 2.01526 11.0528C2.28877 6.17931 6.17931 2.28877 11.0528 2.01526C15.9264 1.74176 20.2278 5.17255 21.0449 9.98488Z"
        fill="currentColor" />
    <path
        d="M21.1749 12.5849C21.1776 14.8294 20.2871 16.9828 18.6999 18.5699C17.1128 20.1571 14.9594 21.0475 12.7149 21.0449C12.2421 21.0505 11.7699 21.0103 11.3049 20.9249C11.2167 20.4635 11.1732 19.9946 11.1749 19.5249C11.1749 14.8509 14.9609 11.0604 19.6349 11.0549C20.1113 11.0521 20.5869 11.0956 21.0549 11.1849C21.1348 11.6473 21.175 12.1156 21.1749 12.5849Z"
        fill="currentColor" />
</svg>