<svg viewBox="0 0 24 24" xmlns="http://www.w3.org/2000/svg">
    <path fill-rule="evenodd" clip-rule="evenodd"
        d="M8.68619 3H15.4338C18.5742 3 21.12 5.5458 21.12 8.68619V15.4338C21.12 18.5742 18.5742 21.12 15.4338 21.12H8.68619C5.5458 21.12 3 18.5742 3 15.4338V8.68619C3 5.5458 5.5458 3 8.68619 3ZM13.6806 17.604C15.7185 17.5276 17.3307 15.8526 17.3292 13.8133L17.3956 12.3443C17.3956 10.2507 15.6984 8.55352 13.6048 8.55352H9.21692L9.99403 7.75746C10.2712 7.47995 10.2712 7.0304 9.99403 6.75289C9.71653 6.47574 9.26697 6.47574 8.98947 6.75289L6.98035 8.76202C6.9139 8.8296 6.86226 8.91029 6.82872 8.99894C6.75326 9.1711 6.75326 9.36697 6.82872 9.53913C6.86468 9.62371 6.9161 9.70085 6.98035 9.76658L9.00842 11.7757C9.14043 11.9112 9.32155 11.9876 9.5107 11.9876C9.69985 11.9876 9.88098 11.9112 10.013 11.7757C10.2901 11.4982 10.2901 11.0486 10.013 10.7711L9.21692 9.97507H13.5858C14.8801 9.97506 15.9309 11.0216 15.9361 12.3159V13.8417C15.9368 15.1054 14.9342 16.1416 13.6711 16.1825H8.26922C7.87667 16.1825 7.55844 16.5007 7.55844 16.8933C7.55844 17.2858 7.87667 17.604 8.26922 17.604H13.6806Z"
        fill="currentColor" />
</svg>