<svg version="1.1" xmlns="http://www.w3.org/2000/svg" xmlns:xlink="http://www.w3.org/1999/xlink" x="0px" y="0px"
   viewBox="0 0 16 16" style="enable-background:new 0 0 16 16;" xml:space="preserve">
<path fill="currentColor" d="M1,1.9l-1,3c0,1.1,0.9,2,2,2c1.1,0,2-0.9,2-2c0,1.1,0.9,2,2,2c1.1,0,2-0.9,2-2c0,1.1,0.9,2,2,2c1.1,0,2-0.9,2-2
  c0,1.1,0.9,2,2,2c1.1,0,2-0.9,2-2l-1-3c-0.1-0.3-0.4-0.6-0.8-0.6H1.8C1.5,1.3,1.2,1.5,1,1.9z M10,7.7C9.3,7.8,8.5,7.5,8,7
  C7.5,7.5,6.7,7.8,6,7.7C5.3,7.8,4.5,7.5,4,7C3.4,7.5,2.6,7.8,1.8,7.7v5.8c0,0.7,0.7,1.2,1.2,1.2h9.8c0.7,0,1.2-0.5,1.2-1.2V7.7
  c-0.8,0-1.6-0.2-2.2-0.8C11.5,7.5,10.7,7.8,10,7.7L10,7.7z"/>
</svg>
