<svg viewBox="0 0 24 24" xmlns="http://www.w3.org/2000/svg">
    <rect width="100%" height="100%" rx="12" fill="inherit" />
    <path
        d="M17.2849 13.6078C18.1725 13.6078 18.892 12.8883 18.892 12.0007C18.892 11.1131 18.1725 10.3936 17.2849 10.3936C16.3973 10.3936 15.6777 11.1131 15.6777 12.0007C15.6777 12.8883 16.3973 13.6078 17.2849 13.6078Z"
        fill="currentColor" />
    <path
        d="M17.2849 7.89495C18.1725 7.89495 18.892 7.17541 18.892 6.28781C18.892 5.40021 18.1725 4.68066 17.2849 4.68066C16.3973 4.68066 15.6777 5.40021 15.6777 6.28781C15.6777 7.17541 16.3973 7.89495 17.2849 7.89495Z"
        fill="currentColor" />
    <path
        d="M17.2849 19.3217C18.1725 19.3217 18.892 18.6022 18.892 17.7146C18.892 16.827 18.1725 16.1074 17.2849 16.1074C16.3973 16.1074 15.6777 16.827 15.6777 17.7146C15.6777 18.6022 16.3973 19.3217 17.2849 19.3217Z"
        fill="currentColor" />
    <path
        d="M5.85812 13.6078C6.74572 13.6078 7.46526 12.8883 7.46526 12.0007C7.46526 11.1131 6.74572 10.3936 5.85812 10.3936C4.97052 10.3936 4.25098 11.1131 4.25098 12.0007C4.25098 12.8883 4.97052 13.6078 5.85812 13.6078Z"
        fill="currentColor" />
    <path
        d="M16.5709 12.5377C16.8637 12.5377 17.1066 12.2948 17.1066 12.002C17.1066 11.7091 16.8637 11.4662 16.5709 11.4662H11.3923V8.43052C11.3923 7.30195 11.8709 6.82338 12.9994 6.82338H16.5709C16.8637 6.82338 17.1066 6.58052 17.1066 6.28767C17.1066 5.99481 16.8637 5.75195 16.5709 5.75195H12.9994C11.2709 5.75195 10.3209 6.70195 10.3209 8.43052V11.4662H6.57087C6.27801 11.4662 6.03516 11.7091 6.03516 12.002C6.03516 12.2948 6.27801 12.5377 6.57087 12.5377H10.3209V15.5734C10.3209 17.302 11.2709 18.252 12.9994 18.252H16.5709C16.8637 18.252 17.1066 18.0091 17.1066 17.7162C17.1066 17.4234 16.8637 17.1805 16.5709 17.1805H12.9994C11.8709 17.1805 11.3923 16.702 11.3923 15.5734V12.5377H16.5709Z"
        fill="currentColor" />
</svg>