<svg viewBox="0 0 24 24" fill="none" xmlns="http://www.w3.org/2000/svg">
    <path
        d="M19.4707 12.718C20.5235 12.7209 21.4226 13.4782 21.6035 14.5154L21.7559 15.2712C21.9212 15.9259 21.7818 16.6204 21.375 17.1594C20.968 17.6984 20.3377 18.024 19.6626 18.0442H15.5698V18.1877C15.5507 18.2833 15.5024 18.3792 15.5024 18.4748C15.4764 18.5656 15.4446 18.6547 15.4072 18.7414C15.378 18.8327 15.3425 18.9227 15.3018 19.0095C15.2242 19.168 15.1303 19.3188 15.0234 19.4592C14.9851 19.5165 14.9004 19.555 14.9004 19.6028C14.8162 19.6997 14.7262 19.7921 14.6323 19.8796L14.4785 20.0041C14.3763 20.0861 14.2674 20.1594 14.1533 20.2238L14.001 20.3103C13.8646 20.3712 13.7242 20.4232 13.5806 20.4641H13.4561C13.2591 20.5142 13.0557 20.5396 12.8525 20.5403H4.93506C4.07418 20.5074 3.27296 20.0896 2.75391 19.4021C2.23494 18.7144 2.05292 17.8293 2.25732 16.9924L2.45801 16.2263V15.844C2.59164 15.289 2.88829 14.7868 3.30908 14.4011C3.79924 13.935 4.45054 13.6736 5.12695 13.6731H11.8682C12.26 13.0777 12.925 12.7195 13.6377 12.718H19.4707Z"
        fill="currentColor" />
    <path
        d="M9.52588 3.46017C10.3837 3.45272 11.2097 3.78737 11.8198 4.39035C12.43 4.99348 12.7739 5.81606 12.7764 6.67404V8.17551C12.776 10.2877 11.0639 12.0001 8.95166 12.0002H8.87549C6.76308 12.0002 5.04965 10.2878 5.04932 8.17551V6.67404C5.05457 4.90163 6.49077 3.46543 8.26318 3.46017H9.52588Z"
        fill="currentColor" />
    <path
        d="M17.5576 4.90451C18.8811 4.91501 19.9497 5.99069 19.9497 7.31418V8.41428C19.9496 9.9986 18.6644 11.2824 17.0801 11.2824C15.4957 11.2824 14.2121 9.9986 14.2119 8.41428V7.31418C14.2119 5.99069 15.2791 4.91501 16.6025 4.90451H17.5576Z"
        fill="currentColor" />
    <circle cx="18.5" cy="16.5" r="4.5" fill="#DC4946" />
    <path
        d="M16.5 16.546L17.5819 17.628C17.6699 17.716 17.7139 17.76 17.7647 17.7765C17.8093 17.791 17.8574 17.791 17.902 17.7765C17.9527 17.76 17.9967 17.716 18.0847 17.628L20.5 15.2127"
        stroke="white" stroke-width="0.75" stroke-linecap="square" stroke-linejoin="round" />
</svg>
