<svg viewBox="0 0 24 24" xmlns="http://www.w3.org/2000/svg">
  <path
    d="M1.33891 10.67L1.33891 6.75003C1.29422 4.64394 2.96292 2.89919 5.06892 2.85003L18.2689 2.92003C20.3765 2.9746 22.0437 4.72223 21.9989 6.83003L21.9989 10.75C22.0231 11.7632 21.6436 12.7445 20.944 13.4778C20.2444 14.2112 19.2821 14.6364 18.2689 14.66L17.0289 14.66L12.5289 14.66L12.5289 9.81003L14.8789 12.14C15.0403 12.3025 15.2599 12.3938 15.4889 12.3938C15.7179 12.3938 15.9375 12.3025 16.0989 12.14C16.2665 11.9814 16.3614 11.7608 16.3614 11.53C16.3614 11.2993 16.2665 11.0787 16.0989 10.92L12.2789 7.10003C11.9404 6.76713 11.3975 6.76713 11.0589 7.10003L7.23891 10.92C7.07134 11.0787 6.97641 11.2993 6.97641 11.53C6.97641 11.7608 7.07134 11.9814 7.23891 12.14C7.40035 12.3025 7.6199 12.3938 7.84891 12.3938C8.07793 12.3938 8.29748 12.3025 8.45891 12.14L10.8089 9.78003L10.8089 14.62L6.30891 14.62L5.06891 14.62C4.04856 14.5966 3.08001 14.1658 2.37928 13.4237C1.67855 12.6817 1.30391 11.6901 1.33891 10.67Z"
    fill="currentColor" />
  <path
    d="M10.8089 20.14L10.8089 14.62L12.5289 14.62L12.5289 20.14C12.5289 20.615 12.1439 21 11.6689 21C11.194 21 10.8089 20.615 10.8089 20.14Z"
    fill="currentColor" />
</svg>
