<svg viewBox="0 0 24 24" xmlns="http://www.w3.org/2000/svg">
  <path fill-rule="evenodd" clip-rule="evenodd"
    d="M12.6893 7.46L16.4193 11.18C16.5774 11.3376 16.6663 11.5517 16.6663 11.775C16.6663 11.9983 16.5774 12.2124 16.4193 12.37C16.0866 12.6887 15.5619 12.6887 15.2293 12.37L12.9393 10.07L12.9393 20.16C12.9393 20.6239 12.5632 21 12.0993 21C11.6353 21 11.2593 20.6239 11.2593 20.16L11.2593 10.07L8.96927 12.37C8.63663 12.6887 8.1119 12.6887 7.77927 12.37C7.62111 12.2124 7.5322 11.9983 7.5322 11.775C7.5322 11.5517 7.62111 11.3376 7.77927 11.18L11.5093 7.46C11.6632 7.29911 11.8766 7.20869 12.0993 7.21C12.3224 7.20625 12.5367 7.29707 12.6893 7.46ZM6.87926 15.58L5.66926 15.58C3.15302 15.5253 1.15461 13.4464 1.19926 10.93L1.19926 7.12C1.15461 4.60356 3.15302 2.52467 5.66926 2.47L18.5293 2.55C21.0455 2.60468 23.0439 4.68356 22.9993 7.2L22.9993 11.01C23.0288 12.2238 22.574 13.3995 21.7354 14.2775C20.8967 15.1556 19.7432 15.6638 18.5293 15.69L17.3193 15.69C16.8553 15.69 16.4793 15.3139 16.4793 14.85C16.4793 14.3861 16.8553 14.01 17.3193 14.01L18.5293 14.01C19.2986 13.9866 20.0266 13.6563 20.5508 13.0926C21.0749 12.529 21.3517 11.779 21.3193 11.01L21.3193 7.23C21.3517 6.46098 21.0749 5.71098 20.5508 5.14735C20.0266 4.58372 19.2986 4.25337 18.5293 4.23L5.66926 4.09C4.89992 4.11337 4.17194 4.44372 3.64776 5.00735C3.12359 5.57098 2.84684 6.32098 2.87926 7.09L2.87926 10.9C2.84683 11.669 3.12359 12.419 3.64776 12.9826C4.17194 13.5463 4.89991 13.8766 5.66926 13.9L6.87926 13.9C7.34318 13.9 7.71926 14.2761 7.71926 14.74C7.71926 15.2039 7.34318 15.58 6.87926 15.58Z"
    fill="currentColor" />
</svg>
