<svg viewBox="0 0 24 24" fill="none" xmlns="http://www.w3.org/2000/svg">
  <path fill-rule="evenodd" clip-rule="evenodd" d="M20.86 9.22L13.86 2.22C13.7195 2.07931 13.5288 2.00018 13.33 2H10.33C9.06501 1.99997 7.85226 2.50454 6.96059 3.40183C6.06893 4.29913 5.57201 5.51503 5.58 6.78V10.4C5.58 10.8142 5.91579 11.15 6.33 11.15C6.74421 11.15 7.08 10.8142 7.08 10.4V6.78C7.08 4.98507 8.53507 3.53 10.33 3.53H12.58V7.78C12.5855 9.29651 13.8135 10.5245 15.33 10.53H19.58V16.78C19.5745 18.5726 18.1226 20.0245 16.33 20.03H13.27C12.8558 20.03 12.52 20.3658 12.52 20.78C12.52 21.1942 12.8558 21.53 13.27 21.53H16.33C18.9534 21.53 21.08 19.4034 21.08 16.78V9.78C21.088 9.57081 21.0083 9.36778 20.86 9.22ZM14.08 7.78V4.56L18.55 9.03H15.33C14.6396 9.03 14.08 8.47036 14.08 7.78ZM8 11.55C5.23858 11.55 3 13.7886 3 16.55C3 19.3114 5.23858 21.55 8 21.55C10.7614 21.55 13 19.3114 13 16.55C13 15.2239 12.4732 13.9521 11.5355 13.0145C10.5979 12.0768 9.32608 11.55 8 11.55ZM8 20.22C6.50805 20.2362 5.15396 19.35 4.57174 17.9762C3.98952 16.6025 4.29441 15.0131 5.34367 13.9523C6.39292 12.8915 7.97884 12.5693 9.35888 13.1365C10.7389 13.7036 11.6399 15.048 11.64 16.54C11.6401 18.5569 10.0168 20.1981 8 20.22Z" fill="currentColor" />
  <path fill-rule="evenodd" clip-rule="evenodd" d="M8.5086 13.9855C8.79275 14.156 8.88489 14.5245 8.7144 14.8087L8.05962 15.9H8.9999C9.199 15.9 9.38512 15.9988 9.49674 16.1636C9.60836 16.3285 9.63093 16.538 9.55699 16.7228L8.75699 18.7228C8.63392 19.0305 8.28474 19.1801 7.97707 19.0571C7.6694 18.934 7.51975 18.5848 7.64282 18.2772L8.11368 17.1H6.9999C6.78374 17.1 6.58429 16.9837 6.47778 16.7956C6.37128 16.6075 6.37419 16.3767 6.48541 16.1913L7.68541 14.1913C7.8559 13.9071 8.22445 13.815 8.5086 13.9855Z" fill="currentColor" />
</svg>
