<svg viewBox="0 0 40 40" xmlns="http://www.w3.org/2000/svg">
    <rect width="40" height="40" rx="20" fill="currentColor" />
    <path
        d="M31.4998 13.8233C31.2249 12.7924 30.4117 11.9791 29.377 11.7004C27.5062 11.2002 20 11.2002 20 11.2002C20 11.2002 12.4976 11.2002 10.623 11.7004C9.59211 11.9753 8.77887 12.7886 8.50016 13.8233C8 15.6942 8 19.6002 8 19.6002C8 19.6002 8 23.5062 8.50016 25.3771C8.77506 26.408 9.58829 27.2213 10.623 27.5C12.4976 28.0002 20 28.0002 20 28.0002C20 28.0002 27.5062 28.0002 29.377 27.5C30.4079 27.2251 31.2211 26.4118 31.4998 25.3771C32 23.5062 32 19.6002 32 19.6002C32 19.6002 32 15.6942 31.4998 13.8233Z"
        fill="inherit" />
    <path d="M17.6023 23.2007L23.8371 19.6002L17.6023 15.9996V23.2007Z" fill="inherit" />
    <path d="M17.6016 23.2011L23.8364 19.6005L17.6016 16V23.2011Z" fill="currentColor" />
</svg>