<svg version="1.1" xmlns="http://www.w3.org/2000/svg" xmlns:xlink="http://www.w3.org/1999/xlink" x="0px" y="0px"
  viewBox="0 0 16 16" style="enable-background:new 0 0 16 16;" xml:space="preserve">
  <g>
    <path fill="currentColor" d="M15.9,0.5C15.9,0.4,15.9,0.4,15.9,0.5C15.8,0.4,15.8,0.4,15.9,0.5c-0.1-0.1-0.3-0.2-0.4-0.2H13c-0.3,0-0.5,0.2-0.5,0.5
  c0,0.3,0.2,0.5,0.5,0.5h1L8,6.5L4,5C3.9,5,3.9,5,3.8,5C3.7,5,3.5,5.1,3.4,5.2L0.1,8.9C-0.1,9.2,0,9.5,0.2,9.7
  c0.2,0.2,0.6,0.2,0.7-0.1l3-3.5l3.9,1.5c0.1,0,0.1,0,0.2,0c0,0,0,0,0,0c0,0,0,0,0,0c0,0,0,0,0,0c0.1,0,0.2-0.1,0.3-0.2L14.9,2
  c0,0,0,0,0,0v1.3c0,0.3,0.2,0.5,0.5,0.5S16,3.5,16,3.2V0.8C16,0.7,15.9,0.5,15.9,0.5L15.9,0.5z" />
    <path fill="currentColor" d="M1.1,15.6L1.1,15.6c-0.4,0-0.6-0.3-0.6-0.6v-4c0-0.4,0.3-0.6,0.6-0.6h0c0.4,0,0.6,0.3,0.6,0.6v4
  C1.7,15.3,1.4,15.6,1.1,15.6z" />
    <path fill="currentColor" d="M4.6,15.6L4.6,15.6c-0.4,0-0.6-0.3-0.6-0.6V9c0-0.4,0.3-0.6,0.6-0.6h0c0.4,0,0.6,0.3,0.6,0.6V15
  C5.2,15.3,4.9,15.6,4.6,15.6z" />
    <path fill="currentColor" d="M8.1,15.6L8.1,15.6c-0.4,0-0.6-0.3-0.6-0.6v-4.3c0-0.4,0.3-0.6,0.6-0.6h0c0.4,0,0.6,0.3,0.6,0.6V15
  C8.7,15.3,8.4,15.6,8.1,15.6z" />
    <path fill="currentColor" d="M11.6,15.6L11.6,15.6c-0.4,0-0.6-0.3-0.6-0.6V8.5c0-0.4,0.3-0.6,0.6-0.6h0c0.4,0,0.6,0.3,0.6,0.6V15
  C12.2,15.3,11.9,15.6,11.6,15.6z" />
    <path fill="currentColor" d="M15,15.6L15,15.6c-0.4,0-0.6-0.3-0.6-0.6V6.4c0-0.4,0.3-0.6,0.6-0.6h0c0.4,0,0.6,0.3,0.6,0.6V15
  C15.6,15.3,15.3,15.6,15,15.6z" />
  </g>
</svg>
