<svg version="1.1" xmlns="http://www.w3.org/2000/svg" xmlns:xlink="http://www.w3.org/1999/xlink" x="0px" y="0px"
   viewBox="0 0 16 16" style="enable-background:new 0 0 16 16;" xml:space="preserve">
<g>
  <path fill="currentColor" d="M11,9c0-0.3-0.2-0.5-0.5-0.5h-1C9.2,8.5,9,8.7,9,9s0.2,0.5,0.5,0.5h1C10.8,9.5,11,9.3,11,9z"/>
  <path fill="currentColor" d="M2.5,10.5C2.2,10.5,2,10.7,2,11s0.2,0.5,0.5,0.5h4C6.8,11.5,7,11.3,7,11s-0.2-0.5-0.5-0.5H2.5z"/>
  <path fill="currentColor" d="M14,1.5H2c-1.1,0-2,0.9-2,2v9c0,1.1,0.9,2,2,2h7.5v0c0.3,0,0.5-0.2,0.5-0.5s-0.2-0.5-0.5-0.5v0H2c-0.6,0-1-0.4-1-1v-7h14
    v3.6h0c0,0.3,0.2,0.5,0.5,0.5S16,9.4,16,9.1h0V3.5C16,2.4,15.1,1.5,14,1.5z M1,4.5v-1c0-0.6,0.4-1,1-1h12c0.6,0,1,0.4,1,1v1H1z"/>
  <path fill="currentColor" d="M8,9c0-0.3-0.2-0.5-0.5-0.5h-5C2.2,8.5,2,8.7,2,9s0.2,0.5,0.5,0.5h5C7.8,9.5,8,9.3,8,9z"/>
  <path fill="currentColor" d="M11.8,12.6l2.4-2.2c0.2-0.2,0.2-0.5,0-0.7c-0.2-0.2-0.5-0.2-0.7,0l-2.8,2.5c-0.1,0.1-0.2,0.2-0.2,0.4c0,0.1,0,0.3,0.1,0.4
    l2.8,2.9c0.1,0.1,0.2,0.2,0.4,0.2c0.1,0,0.3,0,0.3-0.1c0.2-0.2,0.2-0.5,0-0.7L11.8,12.6z"/>
</g>
</svg>
