<svg version="1.1" xmlns="http://www.w3.org/2000/svg" xmlns:xlink="http://www.w3.org/1999/xlink" x="0px" y="0px"
   viewBox="0 0 16 16" style="enable-background:new 0 0 16 16;" xml:space="preserve">
<g>
  <g transform="translate(-60.000000, -772.000000)">
    <g id="icon-lijihuankuan" transform="translate(60.500000, 772.000000)">
      <path fill="currentColor" d="M13.6,1.3H1.4c-1,0-1.9,0.8-1.9,1.8v9.8c0,1,0.8,1.8,1.9,1.8h12.2c1,0,1.9-0.8,1.9-1.8V3.1
        C15.5,2.1,14.7,1.3,13.6,1.3L13.6,1.3z M1.4,2.2h12.2c0.5,0,1,0.4,1,0.9v1.5H0.4V3.1C0.4,2.6,0.9,2.2,1.4,2.2z M13.6,13.8H1.4
        c-0.5,0-1-0.4-1-0.9V7.5h14.1v5.4C14.6,13.4,14.1,13.8,13.6,13.8L13.6,13.8z"/>
      <path fill="currentColor" d="M4.7,9.7H3.6c-0.4,0-0.7,0.3-0.7,0.7v0.3c0,0.4,0.3,0.7,0.7,0.7h1.1c0.4,0,0.7-0.3,0.7-0.7v-0.3
        C5.4,10,5.1,9.7,4.7,9.7z"/>
    </g>
  </g>
</g>
</svg>
