<svg version="1.1" xmlns="http://www.w3.org/2000/svg" xmlns:xlink="http://www.w3.org/1999/xlink" x="0px"
	y="0px" viewBox="0 0 16 16" style="enable-background:new 0 0 16 16;" xml:space="preserve">
	<path fill="currentColor" d="M8,0C3.6,0,0,3.6,0,8s3.6,8,8,8s8-3.6,8-8S12.4,0,8,0z M8,14.9c-3.8,0-6.9-3.1-6.9-6.9S4.2,1.1,8,1.1s6.9,3.1,6.9,6.9
	S11.8,14.9,8,14.9z" />
	<path fill="currentColor" d="M7.1,4.3c0,0.5,0.4,0.9,0.9,0.9c0.5,0,0.9-0.4,0.9-0.9S8.5,3.4,8,3.4C7.5,3.4,7.1,3.8,7.1,4.3z" />
	<path
		fill="currentColor"
		d="M8,12.8L8,12.8c-0.5,0-0.9-0.4-0.9-0.9V7c0-0.5,0.4-0.9,0.9-0.9h0c0.5,0,0.9,0.4,0.9,0.9v4.9C8.9,12.4,8.5,12.8,8,12.8z" />
</svg>
