<svg xmlns="http://www.w3.org/2000/svg" viewBox="0 0 16 16">
  <path
    fill="currentColor"
    d="M12.62,14.06H1.94a.52.52,0,0,1-.52-.52V4a.52.52,0,0,1,.52-.52H6.83A.52.52,0,0,1,7.35,4a.52.52,0,0,1-.52.52H2.46V13H12.1V9.49A.52.52,0,0,1,12.62,9a.52.52,0,0,1,.52.52v4a.52.52,0,0,1-.52.52Z" />
  <path
    fill="currentColor"
    d="M5.88,11.18A.54.54,0,0,1,5.52,11a.56.56,0,0,1-.15-.48l.42-2.25A.49.49,0,0,1,5.94,8l6.29-6.22a.53.53,0,0,1,.74,0l1.75,1.75a.53.53,0,0,1,0,.74l-6.3,6.22a.47.47,0,0,1-.25.13L6,11.17Zm.91-2.52L6.54,10l1.25-.29,5.82-5.75-1-1L6.79,8.66Z" />
</svg>
