<svg version="1.1"  xmlns="http://www.w3.org/2000/svg" xmlns:xlink="http://www.w3.org/1999/xlink" x="0px"
	y="0px" viewBox="0 0 16 16" style="enable-background:new 0 0 16 16;" xml:space="preserve">
	<path fill="currentColor" d="M8,16c-1.5,0-3.2-0.9-5.2-2.8c-1-0.9-1.6-2.2-1.7-3.6C1.1,9.2,1.1,8.8,1.1,8.3V3c0-0.4,0.2-0.7,0.6-0.9l6-2.1
	C7.9,0,8.2,0,8.3,0l6,2.1c0.3,0.1,0.6,0.5,0.6,0.9v5.2c0,0.5,0,1-0.1,1.4c-0.1,1.4-0.7,2.6-1.7,3.6C11.2,15.1,9.5,16,8,16z M2.3,3.1
	v5.1c0,0.5,0,0.9,0.1,1.3c0.1,1.1,0.6,2.1,1.3,2.8C5.4,14,6.9,14.9,8,14.9s2.6-0.8,4.4-2.5c0.8-0.7,1.3-1.7,1.3-2.8
	c0-0.4,0.1-0.9,0.1-1.3V3.1L8,1.1L2.3,3.1z" />
	<path fill="currentColor" d="M7.3,9.1l3.3-3.3c0.2-0.2,0.6-0.2,0.8,0s0.2,0.6,0,0.8l-3.7,3.7c-0.2,0.2-0.6,0.2-0.8,0l-2-2c-0.2-0.2-0.2-0.6,0-0.8
	s0.6-0.2,0.8,0C5.7,7.5,7.3,9.1,7.3,9.1z" />
</svg>
