<svg xmlns="http://www.w3.org/2000/svg" viewBox="0 0 16 16">
  <path
    fill="currentColor"
    d="M14.35,12,14,3a.5.5,0,0,0-.5-.48h-2a.26.26,0,0,1-.24-.17A3.49,3.49,0,0,0,10.47,1,3.44,3.44,0,0,0,8,0,3.51,3.51,0,0,0,4.7,2.32a.26.26,0,0,1-.24.17h-2A.5.5,0,0,0,2,3l-.33,9-.11,3a1,1,0,0,0,1,1H13.46a1,1,0,0,0,1-1ZM6.23,1.72a2.5,2.5,0,0,1,4,.68.06.06,0,0,1-.06.09H5.81a.06.06,0,0,1-.06-.09A2.7,2.7,0,0,1,6.23,1.72Zm-3,1.77H4.37a.13.13,0,0,1,.13.13V5.49a.53.53,0,0,0,.15.36A.47.47,0,0,0,5,6a.5.5,0,0,0,.49-.51V3.62a.13.13,0,0,1,.13-.13h4.75a.13.13,0,0,1,.12.13V5.49a.53.53,0,0,0,.15.36A.47.47,0,0,0,11,6a.5.5,0,0,0,.49-.51V3.62a.13.13,0,0,1,.13-.13H12.8a.26.26,0,0,1,.25.24l.3,8.2a.06.06,0,0,1-.06.06H2.71a.06.06,0,0,1-.06-.06L3,3.73A.26.26,0,0,1,3.2,3.49ZM2.55,14.73l.06-1.68A.06.06,0,0,1,2.67,13H13.33a.06.06,0,0,1,.06.06l.06,1.68a.25.25,0,0,1-.25.26H2.8A.24.24,0,0,1,2.55,14.73Z" />
  </svg>
