<svg class="icon" viewBox="0 0 1024 1024" version="1.1" xmlns="http://www.w3.org/2000/svg">
  <path
    fill="currentColor"
    d="M646.380263 408.899943l1.919718 1.791737a39.674173 39.674173 0 0 0 26.5561 9.790562h296.404465a41.017975 41.017975 0 0 0 41.081966-40.826004 40.953985 40.953985 0 0 0-41.081966-40.762013h-205.537812l247.451656-270.680244a40.570041 40.570041 0 0 0-2.687605-57.591541 41.017975 41.017975 0 0 0-57.911494 2.751596l-237.661094 260.249776V83.443744a41.017975 41.017975 0 1 0-82.099942 0v294.932682c0 11.198355 4.543333 22.460701 13.566008 30.459526zM258.277266 338.830234H52.803444a40.953985 40.953985 0 0 0-41.081966 40.762013 40.953985 40.953985 0 0 0 41.081966 40.826004h296.404466a39.866145 39.866145 0 0 0 28.539808-11.646289 40.698022 40.698022 0 0 0 13.438027-30.459527v-294.996672A40.953985 40.953985 0 0 0 350.103779 42.681731a40.889994 40.889994 0 0 0-40.953985 40.826004v190.052086L71.360719 13.438026A41.017975 41.017975 0 0 0 13.513215 10.750421a40.506051 40.506051 0 0 0-2.687605 57.591541l247.451656 270.552263zM408.911141 646.305074a40.698022 40.698022 0 0 0-30.459526-13.438026h-294.996672a40.953985 40.953985 0 0 0-40.762014 41.017975c0 22.716663 18.301312 40.953985 40.826004 40.953985h190.052086L13.513215 952.628083a41.017975 41.017975 0 0 0-2.687605 57.847503 40.506051 40.506051 0 0 0 57.591541 2.687606l270.616253-247.451656v205.601802a40.953985 40.953985 0 0 0 40.762014 41.081966 40.953985 40.953985 0 0 0 40.826003-41.081966v-296.468456a39.866145 39.866145 0 0 0-9.790562-26.492109l-1.919718-1.983708z m601.511653 306.259018l-260.057804-237.661093h190.052086a41.017975 41.017975 0 1 0 0-82.099942h-294.996672a40.698022 40.698022 0 0 0-32.251263 15.485726 39.674173 39.674173 0 0 0-9.790562 26.492109v296.468456c0 22.588682 18.301312 41.081966 40.762013 41.081966a40.953985 40.953985 0 0 0 40.826004-41.081966v-205.601802l270.616253 247.451655a40.953985 40.953985 0 0 0 54.903936-60.599099z" />
</svg>
