<svg version="1.1" xmlns="http://www.w3.org/2000/svg" xmlns:xlink="http://www.w3.org/1999/xlink" x="0px" y="0px"
	 viewBox="0 0 16 16" style="enable-background:new 0 0 16 16;" xml:space="preserve">
<path fill="currentColor" d="M15.3,3.7l-7-3.6C8.1,0,7.9,0,7.6,0.1l-7,3.6C0.4,3.8,0.3,4.1,0.3,4.4v7.4c0,0.3,0.2,0.6,0.4,0.7l7,3.5
	c0.2,0.1,0.5,0.1,0.7,0l7-3.5c0.3-0.1,0.4-0.4,0.4-0.7V4.4C15.7,4.1,15.6,3.9,15.3,3.7L15.3,3.7z M7.9,7.2L5.3,5.9l5.9-3.2l2.6,1.3
	C13.8,4.1,7.9,7.2,7.9,7.2z M8,1.1l2.1,1.1l-6,3.2L1.8,4.2L8,1.1L8,1.1z M1.3,5.1l2.5,1.2V9c0,0.3,0.2,0.5,0.5,0.5S4.8,9.3,4.8,9
	V6.8l2.7,1.3v6.5l-6.2-3.1V5.1z M8.5,14.7V8.1l6.2-3.3v6.8L8.5,14.7z"/>
</svg>
