<svg xmlns="http://www.w3.org/2000/svg" viewBox="0 0 16 16">
  <path
    fill="currentColor"
    d="M11.78,4.83h-1L9,3.2A1.44,1.44,0,0,0,7,3.2L5.18,4.83h-1a1.5,1.5,0,0,0-1.5,1.5v4.56a1.5,1.5,0,0,0,1.5,1.5h7.56a1.5,1.5,0,0,0,1.5-1.5V6.33A1.5,1.5,0,0,0,11.78,4.83ZM7.49,3.72a.75.75,0,0,1,1,0L9.76,4.83H6.22Zm5.1,7.17a.81.81,0,0,1-.81.81H4.22a.81.81,0,0,1-.81-.81V6.33a.8.8,0,0,1,.81-.8h7.56a.8.8,0,0,1,.81.8v4.56Z" />
  <path
    fill="currentColor"
    d="M10.68,7.91H5.23a.35.35,0,1,1,0-.7h5.45a.35.35,0,1,1,0,.7Zm-1.63,2H5.23a.35.35,0,0,1-.35-.35.35.35,0,0,1,.35-.34H9.05a.35.35,0,0,1,.35.34A.35.35,0,0,1,9.05,9.93Z" />
  <path fill="currentColor" d="M8,.6A7.4,7.4,0,1,1,.6,8,7.41,7.41,0,0,1,8,.6M8,0a8,8,0,1,0,8,8A8,8,0,0,0,8,0Z" />
</svg>
