<svg version="1.1" xmlns="http://www.w3.org/2000/svg" xmlns:xlink="http://www.w3.org/1999/xlink" x="0px" y="0px"
   viewBox="0 0 16 16" style="enable-background:new 0 0 16 16;" xml:space="preserve">
<path fill="currentColor" d="M8.2,14.1c0-0.4,0.3-0.7,0.7-0.7c1.5,0.1,2.9-0.5,3.9-1.5c1.1-1,1.7-2.4,1.7-3.8c0.1-1.5-0.5-2.9-1.5-3.9
  c-1-1.1-2.4-1.7-3.8-1.7S6.5,3,5.4,4C4.3,5,3.7,6.3,3.6,7.8v0l1.6-1.1c0.3-0.2,0.7-0.1,1,0.2C6.3,7,6.3,7.1,6.3,7.3
  c0,0.2-0.1,0.4-0.3,0.5l-2.9,2c-0.3,0.2-0.7,0.1-1-0.2L0.1,6.8C-0.1,6.4,0,6,0.3,5.8C0.6,5.6,1,5.7,1.2,6l1.1,1.5
  c0.1-0.8,0.3-1.6,0.6-2.3C3.3,4.3,3.8,3.6,4.5,3s1.4-1.1,2.2-1.4c0.9-0.3,1.8-0.5,2.7-0.4c0.9,0,1.8,0.2,2.6,0.6
  c0.8,0.4,1.5,0.9,2.1,1.5s1.1,1.4,1.4,2.2C15.9,6.4,16,7.3,16,8.2c0,0.9-0.2,1.8-0.6,2.6c-0.4,0.8-0.9,1.5-1.5,2.1s-1.4,1.1-2.2,1.4
  c-0.9,0.3-1.8,0.5-2.7,0.4C8.5,14.8,8.2,14.5,8.2,14.1z"/>
</svg>
