<svg width="25" height="18" viewBox="0 0 25 18" fill="none" xmlns="http://www.w3.org/2000/svg">
<rect width="25" height="18" rx="2" fill="white"/>
<mask id="mask0_3047_8897" style="mask-type:alpha" maskUnits="userSpaceOnUse" x="0" y="0" width="25" height="18">
<rect width="25" height="18" rx="2" fill="white"/>
</mask>
<g mask="url(#mask0_3047_8897)">
<rect width="25" height="18" fill="#F1361D"/>
<path fill-rule="evenodd" clip-rule="evenodd" d="M8.99316 2.79069L9.85785 2.93928L10.5064 3.53463L10.6538 2.66303L11.2444 2.00932L10.3797 1.86073L9.7312 1.26538L9.58379 2.13698L8.99316 2.79069ZM11.3092 5.83888L12.0585 5.3792L12.9354 5.39965L12.4794 4.64435L12.4997 3.76042L11.7504 4.22009L10.8735 4.19965L11.3295 4.95494L11.3092 5.83888ZM10.2928 10.7735L9.55987 11.2592L9.54953 10.3751L9.06764 9.63633L9.94473 9.62591L10.6777 9.14015L10.688 10.0243L11.1699 10.7631L10.2928 10.7735ZM10.9293 8.4883L11.8011 8.39089L12.5873 8.78299L12.4907 7.90419L12.8797 7.11171L12.0079 7.20912L11.2217 6.81702L11.3183 7.69582L10.9293 8.4883Z" fill="#FFDC42"/>
<path fill-rule="evenodd" clip-rule="evenodd" d="M5.95229 7.4039L3.85306 8.91236L4.6276 6.43376L2.55566 4.88744L5.13359 4.86404L5.95229 2.3999L6.77099 4.86404L9.34892 4.88744L7.27697 6.43376L8.05152 8.91236L5.95229 7.4039Z" fill="#FFDC42"/>
</g>
</svg>
