<svg width="26" height="18" viewBox="0 0 26 18" fill="none" xmlns="http://www.w3.org/2000/svg">
<rect width="25.2537" height="18" rx="2" fill="white"/>
<mask id="mask0_9683_12349" style="mask-type:alpha" maskUnits="userSpaceOnUse" x="0" y="0" width="26" height="18">
<rect width="25.2537" height="18" rx="2" fill="white"/>
</mask>
<g mask="url(#mask0_9683_12349)">
<path fill-rule="evenodd" clip-rule="evenodd" d="M0 4.8H25.2537V0H0V4.8Z" fill="#DD172C"/>
<path fill-rule="evenodd" clip-rule="evenodd" d="M0 17.9999H25.2537V13.1999H0V17.9999Z" fill="#DD172C"/>
<path fill-rule="evenodd" clip-rule="evenodd" d="M0 13.2001H25.2537V4.80014H0V13.2001Z" fill="#FFD133"/>
<path fill-rule="evenodd" clip-rule="evenodd" d="M6.61328 8.4H7.81584V9H6.61328V8.4Z" fill="#FFEDB1"/>
<path d="M5.50381 8.49426C5.48758 8.2999 5.64095 8.13318 5.83599 8.13318H7.39306C7.5881 8.13318 7.74147 8.2999 7.72524 8.49426L7.58499 10.1737C7.54284 10.6784 7.12094 11.0665 6.61453 11.0665C6.10811 11.0665 5.68621 10.6784 5.64407 10.1737L5.50381 8.49426Z" stroke="#A41517" stroke-width="0.666667"/>
<path fill-rule="evenodd" clip-rule="evenodd" d="M5.41211 9H7.81723V9.6H7.21595L6.61467 10.8L6.01339 9.6H5.41211V9Z" fill="#A41517"/>
<rect x="3.60742" y="7.2" width="1.20256" height="4.2" rx="0.601279" fill="#A41517"/>
<rect x="8.41797" y="7.2" width="1.20256" height="4.2" rx="0.601279" fill="#A41517"/>
<path d="M5.41211 6.95985C5.41211 6.42965 5.84192 5.99985 6.37211 5.99985H6.85723C7.38742 5.99985 7.81723 6.42965 7.81723 6.95985C7.81723 7.0924 7.70978 7.19985 7.57723 7.19985H5.65211C5.51956 7.19985 5.41211 7.0924 5.41211 6.95985Z" fill="#A41517"/>
</g>
</svg>
