<svg viewBox="0 0 24 24" xmlns="http://www.w3.org/2000/svg">
  <path fill-rule="evenodd" clip-rule="evenodd"
    d="M6.6 3H17.4C19.3882 3 21 4.61177 21 6.6V17.4C21 19.3882 19.3882 21 17.4 21H6.6C4.61177 21 3 19.3882 3 17.4V6.6C3 4.61177 4.61177 3 6.6 3ZM12.6749 12.675H15.5999C15.9727 12.675 16.2749 12.3728 16.2749 12C16.2749 11.6272 15.9727 11.325 15.5999 11.325H12.6749V8.40001C12.6749 8.02722 12.3727 7.72501 11.9999 7.72501C11.6272 7.72501 11.3249 8.02722 11.3249 8.40001V11.325H8.39995C8.02715 11.325 7.72495 11.6272 7.72495 12C7.72495 12.3728 8.02715 12.675 8.39995 12.675H11.3249V15.6C11.3249 15.9728 11.6272 16.275 11.9999 16.275C12.3727 16.275 12.6749 15.9728 12.6749 15.6V12.675Z"
    fill="currentColor" />
</svg>
