<svg viewBox="0 0 24 24" fill="none" xmlns="http://www.w3.org/2000/svg">
  <path fill-rule="evenodd" clip-rule="evenodd"
    d="M15.56 2.58008H8.44C5.12629 2.58008 2.44 5.26637 2.44 8.58008V15.7001C2.44 19.0138 5.12629 21.7001 8.44 21.7001H15.56C18.8737 21.7001 21.56 19.0138 21.56 15.7001V8.58008C21.56 5.26637 18.8737 2.58008 15.56 2.58008ZM14.24 16.0001H8.69L10.61 17.9201C10.7535 18.0611 10.8344 18.2539 10.8344 18.4551C10.8344 18.6563 10.7535 18.8491 10.61 18.9901C10.4685 19.128 10.2776 19.2037 10.08 19.2001C9.88298 19.2005 9.6933 19.1253 9.55 18.9901L6.35 15.7801C6.27883 15.7135 6.22406 15.6314 6.19 15.5401C6.1099 15.355 6.1099 15.1451 6.19 14.9601C6.22406 14.8688 6.27883 14.7866 6.35 14.7201L9.55 11.5201C9.84551 11.2447 10.306 11.2528 10.5916 11.5385C10.8772 11.8241 10.8854 12.2846 10.61 12.5801L8.69 14.4501H14.24C14.6542 14.4501 14.99 14.7859 14.99 15.2001C14.99 15.6143 14.6542 15.9501 14.24 15.9501V16.0001ZM17.65 9.38008C17.7212 9.31353 17.7759 9.23137 17.81 9.14008V9.09008C17.8901 8.90504 17.8901 8.69511 17.81 8.51008C17.7759 8.41878 17.7212 8.33663 17.65 8.27008L14.45 5.07008C14.263 4.86942 13.9814 4.78683 13.7157 4.85469C13.45 4.92256 13.2425 5.13006 13.1746 5.39579C13.1068 5.66152 13.1893 5.94311 13.39 6.13008L15.31 8.10008H9.76C9.34579 8.10008 9.01 8.43586 9.01 8.85008C9.01 9.26429 9.34579 9.60008 9.76 9.60008H15.31L13.39 11.5201C13.2471 11.6594 13.1664 11.8505 13.1664 12.0501C13.1664 12.2497 13.2471 12.4408 13.39 12.5801C13.5278 12.7247 13.7203 12.8046 13.92 12.8001C14.1191 12.801 14.3101 12.7217 14.45 12.5801L17.65 9.38008Z"
    fill="currentColor" />
</svg>
