<svg viewBox="0 0 24 24" fill="none" xmlns="http://www.w3.org/2000/svg">
    <path
        d="M21 13.3102C20.7201 13.0269 20.3383 12.8674 19.94 12.8674C19.5417 12.8674 19.1599 13.0269 18.88 13.3102L17.48 14.7002V9.23022C17.48 8.4018 16.8084 7.73022 15.98 7.73022C15.1516 7.73022 14.48 8.4018 14.48 9.23022V14.7002L13.09 13.3102C12.499 12.7595 11.578 12.7758 11.0068 13.347C10.4355 13.9182 10.4193 14.8392 10.97 15.4302L14.97 19.3802C15.0421 19.4489 15.1189 19.5124 15.2 19.5702L15.28 19.6202L15.45 19.7102H15.57L15.73 19.7602C15.928 19.8004 16.132 19.8004 16.33 19.7602L16.51 19.7102H16.61L16.79 19.6102H16.87L17.09 19.4202L21.09 15.4702C21.3693 15.1742 21.5172 14.7779 21.5002 14.3713C21.4833 13.9646 21.3029 13.582 21 13.3102Z"
        fill="currentColor" />
    <path
        d="M10.94 10.6901C11.2198 10.9734 11.6019 11.132 12 11.1301C12.3988 11.1355 12.7822 10.9763 13.06 10.6901C13.3434 10.4102 13.5029 10.0284 13.5029 9.63011C13.5029 9.23179 13.3434 8.85005 13.06 8.57011L9.05999 4.62011C8.91812 4.48119 8.75206 4.36935 8.56999 4.29011C8.21549 4.15655 7.8245 4.15655 7.46999 4.29011C7.29366 4.36903 7.13411 4.48106 6.99999 4.62011L2.99999 8.62011C2.42053 9.20799 2.42053 10.1522 2.99999 10.7401C3.27993 11.0235 3.66167 11.183 4.05999 11.183C4.45832 11.183 4.84006 11.0235 5.11999 10.7401L6.54999 9.30011V14.7701C6.54999 15.5985 7.22156 16.2701 8.04999 16.2701C8.87842 16.2701 9.54999 15.5985 9.54999 14.7701V9.30011L10.94 10.6901Z"
        fill="currentColor" />
</svg>