<svg viewBox="0 0 15 19" fill="currentColor"
    xmlns="http://www.w3.org/2000/svg">
    <path fill-rule="evenodd" clip-rule="evenodd" d="M11.0744 1.52703V1.37342C11.0744 0.614902 10.4595 0 9.70101 0H5.59881C4.84029 0 4.22539 0.614902 4.22539 1.37342V1.49992C2.24541 1.66507 0.72602 3.32616 0.737615 5.31298V14.9269C0.737612 15.9398 1.14058 16.911 1.85763 17.6264C2.57467 18.3417 3.54686 18.7424 4.55971 18.74H10.7491C11.762 18.7424 12.7342 18.3417 13.4512 17.6264C14.1683 16.911 14.5712 15.9398 14.5712 14.9269V5.31298C14.564 3.33506 13.0455 1.69106 11.0744 1.52703ZM5.59779 1.37342H9.71806V2.44867H5.59779V1.37342ZM7.69655 6.45148H4.87742C4.50315 6.45148 4.19974 6.75489 4.19974 7.12916C4.19974 7.50343 4.50315 7.80683 4.87742 7.80683H7.69655C8.07082 7.80683 8.37422 7.50343 8.37422 7.12916C8.37422 6.75489 8.07082 6.45148 7.69655 6.45148ZM9.67536 13.2734H4.87742C4.50315 13.2734 4.19974 12.97 4.19974 12.5957C4.19974 12.2215 4.50315 11.918 4.87742 11.918H9.67536C10.0496 11.918 10.353 12.2215 10.353 12.5957C10.353 12.97 10.0496 13.2734 9.67536 13.2734ZM4.87742 10.626H10.4253C10.7996 10.626 11.103 10.3226 11.103 9.9483C11.103 9.57403 10.7996 9.27063 10.4253 9.27063H4.87742C4.50315 9.27063 4.19974 9.57403 4.19974 9.9483C4.19974 10.3226 4.50315 10.626 4.87742 10.626Z" fill="currentColor"/>
</svg>
