<svg viewBox="0 0 24 24" fill="none" xmlns="http://www.w3.org/2000/svg">
    <path d="M21 11.2222V19.1111C21 19.3469 20.9052 19.573 20.7364 19.7397C20.5676 19.9064 20.3387 20 20.1 20H3.9C3.66131 20 3.43239 19.9064 3.2636 19.7397C3.09482 19.573 3 19.3469 3 19.1111V11.2222H21ZM21 9.44444H3V5.88889C3 5.65314 3.09482 5.42705 3.2636 5.26035C3.43239 5.09365 3.66131 5 3.9 5H20.1C20.3387 5 20.5676 5.09365 20.7364 5.26035C20.9052 5.42705 21 5.65314 21 5.88889V9.44444ZM14.7 15.5556V17.3333H18.3V15.5556H14.7Z" fill="currentColor" />
</svg>