<svg fill="currentColor" viewBox="0 0 24 24" fill="none" xmlns="http://www.w3.org/2000/svg">
  <path fill-rule="evenodd" clip-rule="evenodd"
    d="M13.46 2.80999L19.46 6.13999C20.4136 6.67121 21.0034 7.67844 21 8.76999V15.23C21.0034 16.3215 20.4136 17.3288 19.46 17.86L13.46 21.19C12.5524 21.6956 11.4477 21.6956 10.54 21.19L4.54003 17.86C3.58646 17.3288 2.99667 16.3215 3.00003 15.23V8.76999C2.99667 7.67844 3.58646 6.67121 4.54003 6.13999L10.54 2.80999C11.4477 2.30434 12.5524 2.30434 13.46 2.80999ZM13.23 11.87L17.46 9.51999H17.42C17.7414 9.29328 17.833 8.85683 17.63 8.51999C17.429 8.17064 16.9902 8.03899 16.63 8.21999L12.41 10.57C12.127 10.7126 11.7931 10.7126 11.51 10.57L7.29003 8.21999C6.92988 8.03899 6.49107 8.17064 6.29003 8.51999C6.10188 8.87706 6.23004 9.31899 6.58003 9.51999L10.85 11.87C11.0105 11.9611 11.1819 12.0317 11.36 12.08V16.5C11.4023 16.8518 11.7007 17.1165 12.055 17.1165C12.4093 17.1165 12.7078 16.8518 12.75 16.5V12.07C12.9167 12.0205 13.0776 11.9535 13.23 11.87Z"
    fill="currentColor" />
</svg>
