<svg version="1.1" xmlns="http://www.w3.org/2000/svg" xmlns:xlink="http://www.w3.org/1999/xlink" x="0px" y="0px"
	 viewBox="0 0 16 16" style="enable-background:new 0 0 16 16;" xml:space="preserve">
<g id="Layer_2">
	<g id="Layer_1-2">
		<g id="news">
			<path fill="currentColor" d="M15.3,0H4.5C4.1,0,3.8,0.3,3.8,0.7v5.8H0.7C0.3,6.5,0,6.8,0,7.2v6C0,14.7,1.3,16,2.8,16h10.3c1.6,0,2.8-1.3,2.8-2.8V0.7
				C16,0.3,15.7,0,15.3,0z M3.8,13.7c0,0.5-0.4,0.9-0.9,0.9c-0.8,0-1.5-0.7-1.5-1.5V7.9h2.4V13.7z M12.6,11.8H7.2
				c-0.4,0-0.7-0.3-0.7-0.7s0.3-0.7,0.7-0.7h5.4c0.4,0,0.7,0.3,0.7,0.7S13,11.8,12.6,11.8z M12.6,8.7H7.2C6.8,8.7,6.5,8.4,6.5,8
				s0.3-0.7,0.7-0.7h5.4c0.4,0,0.7,0.3,0.7,0.7S13,8.7,12.6,8.7z M12.6,5.5H7.2c-0.4,0-0.7-0.3-0.7-0.7s0.3-0.7,0.7-0.7h5.4
				c0.4,0,0.7,0.3,0.7,0.7S13,5.5,12.6,5.5z"/>
		</g>
	</g>
</g>
</svg>
