<svg viewBox="0 0 24 24" xmlns="http://www.w3.org/2000/svg">
    <path fill-rule="evenodd" clip-rule="evenodd"
        d="M16.1399 1.5H7.6599C4.8999 1.5 3.8999 2.5 3.8999 5.31V17.69C3.8999 20.5 4.8999 21.5 7.6599 21.5H16.1299C18.8999 21.5 19.8999 20.5 19.8999 17.69V5.31C19.8999 2.5 18.8999 1.5 16.1399 1.5ZM11.8999 18.8C10.9399 18.8 10.1499 18.01 10.1499 17.05C10.1499 16.09 10.9399 15.3 11.8999 15.3C12.8599 15.3 13.6499 16.09 13.6499 17.05C13.6499 18.01 12.8599 18.8 11.8999 18.8ZM6.9999 3C6.44762 3 5.9999 3.44772 5.9999 4V12.5C5.9999 13.0523 6.44762 13.5 6.9999 13.5H16.9999C17.5522 13.5 17.9999 13.0523 17.9999 12.5V4C17.9999 3.44772 17.5522 3 16.9999 3H6.9999Z"
        fill="currentColor" />
    <circle cx="19.5" cy="18" r="4.5" fill="inhrite" />
    <path
        d="M17.0075 19.5825C17.0075 19.6725 17.0275 19.765 17.07 19.855C17.1125 19.945 17.1675 20.03 17.24 20.11C17.3625 20.245 17.4975 20.3425 17.65 20.405C17.8 20.4675 17.9625 20.5 18.1375 20.5C18.3925 20.5 18.665 20.44 18.9525 20.3175C19.24 20.195 19.5275 20.03 19.8125 19.8225C20.1 19.6125 20.3725 19.38 20.6325 19.1225C20.89 18.8625 21.1225 18.59 21.33 18.305C21.535 18.02 21.7 17.735 21.82 17.4525C21.94 17.1675 22 16.895 22 16.635C22 16.465 21.97 16.3025 21.91 16.1525C21.85 16 21.755 15.86 21.6225 15.735C21.4625 15.5775 21.2875 15.5 21.1025 15.5C21.0325 15.5 20.9625 15.515 20.9 15.545C20.835 15.575 20.7775 15.62 20.7325 15.685L20.1525 16.5025C20.1075 16.565 20.075 16.6225 20.0525 16.6775C20.03 16.73 20.0175 16.7825 20.0175 16.83C20.0175 16.89 20.035 16.95 20.07 17.0075C20.1025 17.065 20.15 17.125 20.21 17.185L20.4 17.3825C20.4275 17.41 20.44 17.4425 20.44 17.4825C20.44 17.5025 20.4375 17.52 20.4325 17.54C20.425 17.56 20.4175 17.575 20.4125 17.59C20.3675 17.6725 20.29 17.78 20.18 17.91C20.0675 18.04 19.9475 18.1725 19.8175 18.305C19.6825 18.4375 19.5525 18.56 19.42 18.6725C19.29 18.7825 19.1825 18.8575 19.0975 18.9025C19.085 18.9075 19.07 18.915 19.0525 18.9225C19.0325 18.93 19.0125 18.9325 18.99 18.9325C18.9475 18.9325 18.915 18.9175 18.8875 18.89L18.6975 18.7025C18.635 18.64 18.575 18.5925 18.5175 18.5625C18.46 18.5275 18.4025 18.51 18.34 18.51C18.2925 18.51 18.2425 18.52 18.1875 18.5425C18.1325 18.565 18.075 18.5975 18.0125 18.64L17.185 19.2275C17.12 19.2725 17.075 19.325 17.0475 19.3875C17.0225 19.45 17.0075 19.5125 17.0075 19.5825Z"
        fill="currentColor" />
</svg>