<svg viewBox="0 0 24 24" xmlns="http://www.w3.org/2000/svg">
    <g clip-path="url(#clip0_11158_455)">
        <path
            d="M5.1 21.33C6.2598 21.33 7.2 20.3898 7.2 19.23C7.2 18.0702 6.2598 17.13 5.1 17.13C3.9402 17.13 3 18.0702 3 19.23C3 20.3898 3.9402 21.33 5.1 21.33Z"
            fill="currentColor" />
        <path
            d="M12.1001 7.46C13.3317 7.46 14.3301 6.4616 14.3301 5.23C14.3301 3.9984 13.3317 3 12.1001 3C10.8685 3 9.87012 3.9984 9.87012 5.23C9.87012 6.4616 10.8685 7.46 12.1001 7.46Z"
            fill="currentColor" />
        <path fill-rule="evenodd" clip-rule="evenodd"
            d="M8.10007 13.23C8.10007 12.61 8.25007 12.03 8.50007 11.51C8.16007 11.68 7.82007 11.87 7.51007 12.09C6.30007 12.96 5.38007 14.29 5.32007 16.25C6.84007 16.36 8.05007 17.6 8.09007 19.14C8.59007 19.54 9.16007 19.8 9.82007 19.84C10.3201 19.87 10.9101 19.76 11.5801 19.5C11.2201 19.25 10.8801 18.99 10.5801 18.68C9.05007 17.16 8.10007 15.72 8.10007 13.22V13.23Z"
            fill="currentColor" />
        <path fill-rule="evenodd" clip-rule="evenodd"
            d="M12.3501 9.20999C13.9601 9.30999 15.3001 10.4 15.8301 11.85C15.8701 11.68 15.9101 11.5 15.9301 11.33C16.1001 10.06 15.7301 8.63999 14.2401 7.31999C13.6901 7.87999 12.9301 8.22999 12.0901 8.22999C11.1201 8.22999 10.2701 7.75999 9.72008 7.04999C9.07008 7.18999 8.33008 7.49999 7.80008 8.05999C7.31008 8.56999 6.95008 9.34999 7.10008 10.56C8.77008 9.53999 10.7501 9.13999 12.3401 9.20999H12.3501Z"
            fill="currentColor" />
        <path fill-rule="evenodd" clip-rule="evenodd"
            d="M9.1499 13.23C9.1499 14.86 10.4699 16.18 12.0999 16.18C12.8899 16.18 13.5999 15.87 14.1199 15.37C14.1399 15.35 14.1699 15.33 14.1899 15.3C14.7199 14.77 15.0499 14.03 15.0499 13.22C15.0499 11.59 13.7299 10.27 12.0999 10.27C10.4699 10.27 9.1499 11.59 9.1499 13.22V13.23Z"
            fill="currentColor" />
        <path fill-rule="evenodd" clip-rule="evenodd"
            d="M18.9399 13.95C18.8299 13.2 18.4299 12.3 17.4399 11.37C17.4399 11.42 17.4399 11.48 17.4299 11.53C17.1999 13.22 16.2399 14.75 15.1099 15.83C14.3799 16.68 13.3099 17.22 12.0999 17.22C11.7699 17.22 11.4499 17.17 11.1299 17.09C11.2899 17.26 11.4499 17.44 11.6299 17.61C12.6899 18.67 14.1599 19.35 16.1099 19.09C16.1699 17.76 17.0899 16.66 18.3399 16.33C18.7099 15.86 19.0899 14.98 18.9399 13.94V13.95Z"
            fill="currentColor" />
        <path
            d="M19.1001 21.48C20.3427 21.48 21.3501 20.4727 21.3501 19.23C21.3501 17.9874 20.3427 16.98 19.1001 16.98C17.8575 16.98 16.8501 17.9874 16.8501 19.23C16.8501 20.4727 17.8575 21.48 19.1001 21.48Z"
            fill="currentColor" />
    </g>
    <defs>
        <clipPath id="clip0_11158_455">
            <rect width="18.35" height="18.48" fill="white" transform="translate(3 3)" />
        </clipPath>
    </defs>
</svg>