<svg  xmlns="http://www.w3.org/2000/svg" viewBox="0 0 16 16">
  <path
    fill="currentColor"
    d="M12.82,6.25l-.57-.58A.36.36,0,0,0,12,5.58H11.2a.79.79,0,0,1-.78-.78V4a.36.36,0,0,0-.09-.22l-.58-.57a.85.85,0,0,0-1.21,0L3.18,8.54a.85.85,0,0,0,0,1.21l.57.58a.36.36,0,0,0,.22.09H4.8a.79.79,0,0,1,.78.78V12a.36.36,0,0,0,.09.22l.58.57a.85.85,0,0,0,1.21,0l5.36-5.36a.85.85,0,0,0,0-1.21ZM6,8.19a.25.25,0,0,1-.34,0l0,0a.23.23,0,0,1,0-.33.24.24,0,0,1,.33,0H6l0,0a.25.25,0,0,1,0,.34Zm.74.74a.24.24,0,0,1-.33,0l-.06-.06a.23.23,0,0,1,0-.33.22.22,0,0,1,.32,0l.06.06a.24.24,0,0,1,0,.33Zm.74.74a.24.24,0,0,1-.33,0l-.06-.06a.23.23,0,0,1,.33-.33h0l.06.06a.24.24,0,0,1,0,.33Zm.71.71a.24.24,0,0,1-.33,0h0l0,0a.25.25,0,0,1,0-.34.24.24,0,0,1,.32,0l0,0a.24.24,0,0,1,0,.33Z" />
  <path fill="currentColor" d="M8,1A7,7,0,1,1,1,8,7,7,0,0,1,8,1M8,0a8,8,0,1,0,8,8A8,8,0,0,0,8,0Z" />
</svg>
