<svg viewBox="0 0 24 24" fill="none" xmlns="http://www.w3.org/2000/svg">
  <path fill-rule="evenodd" clip-rule="evenodd"
    d="M3 12C3 7.02944 7.02944 3 12 3C16.9706 3 21 7.02944 21 12C21 16.9706 16.9706 21 12 21C7.02944 21 3 16.9706 3 12ZM13.6619 9.29498C13.9352 9.02161 14.3785 9.02161 14.6518 9.29498C14.9252 9.56834 14.9252 10.0116 14.6518 10.2849L12.8841 12.0527L14.7933 13.9619C15.0667 14.2353 15.0667 14.6785 14.7933 14.9519C14.52 15.2252 14.0768 15.2252 13.8034 14.9519L11.8941 13.0426L9.98492 14.9518C9.71156 15.2252 9.26834 15.2252 8.99497 14.9518C8.72161 14.6785 8.72161 14.2352 8.99497 13.9619L10.9042 12.0527L9.1365 10.285C8.86313 10.0116 8.86313 9.56838 9.1365 9.29501C9.40986 9.02164 9.85308 9.02164 10.1264 9.29501L11.8941 11.0627L13.6619 9.29498Z"
    fill="currentColor" />
</svg>
