<svg viewBox="0 0 24 24" fill="none" xmlns="http://www.w3.org/2000/svg">
    <g clip-path="url(#clip0_2038_3184)">
        <path d="M2.40002 6.76403C2.40002 9.20766 6.67639 11.1277 12 11.1277C17.3237 11.1277 21.6 9.12039 21.6 6.76403C21.6 4.32039 17.3237 2.40039 12 2.40039C6.67639 2.40039 2.40002 4.40766 2.40002 6.76403Z" fill="currentColor" />
        <path d="M12 13.1345C7.89821 13.1345 4.49457 12 3.01093 10.3418C2.57457 10.9527 2.40002 11.3891 2.40002 11.9127C2.40002 14.2691 6.67639 16.2763 12 16.2763C17.3237 16.2763 21.6 14.3563 21.6 11.9127C21.6 11.3018 21.3382 10.8654 20.9891 10.3418C19.5055 11.9127 16.1018 13.1345 12 13.1345Z" fill="currentColor" />
        <path d="M3.01093 15.5781C2.57457 16.0145 2.40002 16.6254 2.40002 17.149C2.40002 19.5054 6.67639 21.5127 12 21.5127C17.3237 21.5127 21.6 19.5927 21.6 17.149C21.6 16.5381 21.3382 16.1018 20.9891 15.5781C19.5055 17.149 16.1018 18.3708 12 18.3708C7.81093 18.3708 4.49457 17.2363 3.01093 15.5781Z" fill="currentColor" />
    </g>
    <defs>
        <clipPath id="clip0_2038_3184">
            <rect width="19.2" height="19.2" fill="white" transform="translate(2.40002 2.40039)" />
        </clipPath>
    </defs>
</svg>