<svg viewBox="0 0 24 24" fill="fill" xmlns="http://www.w3.org/2000/svg">
    <path d="M11.6744 3.27749C9.91498 3.05201 8.24641 3.15016 6.96108 3.52079C6.3196 3.70577 5.7374 3.96902 5.28693 4.32523C4.83246 4.68461 4.47535 5.17122 4.39692 5.78322L4.3249 6.34521C4.77042 6.78263 5.28069 7.16486 5.87189 7.47135C7.14412 8.13091 8.93784 8.6641 10.9511 8.92211C12.9643 9.18012 14.8345 9.11649 16.232 8.79907C16.8813 8.65158 17.4714 8.41041 18.0128 8.09951L18.0848 7.53743C18.1633 6.92542 17.9404 6.36449 17.5913 5.90212C17.2452 5.44383 16.7482 5.04226 16.1741 4.70151C15.0237 4.01873 13.4338 3.50298 11.6744 3.27749Z" fill="currentColor" />
    <path d="M3.79502 10.4798L4.09413 8.14587C4.42264 8.38975 4.778 8.61396 5.16319 8.81365C6.63447 9.57641 8.61298 10.1506 10.7584 10.4256C12.9038 10.7005 14.9632 10.6438 16.5793 10.2767C17.0023 10.1806 17.4027 10.0533 17.782 9.90015L17.4829 12.2341C16.9415 12.545 16.3514 12.7861 15.7021 12.9336C14.3047 13.2511 12.4344 13.3147 10.4212 13.0567C8.40797 12.7987 6.61424 12.2655 5.34201 11.6059C4.75082 11.2994 4.24055 10.9172 3.79502 10.4798Z" fill="currentColor" />
    <path d="M3.56425 12.2804L3.43351 13.3006C3.35508 13.9126 3.57793 14.4736 3.92709 14.9359C4.27318 15.3942 4.77018 15.7958 5.34428 16.1365C6.49461 16.8193 8.08451 17.3351 9.84394 17.5605C11.6034 17.786 13.2719 17.6879 14.5573 17.3172C15.1988 17.1323 15.781 16.869 16.2314 16.5128C16.6859 16.1534 17.043 15.6668 17.1214 15.0548L17.2522 14.0347C16.8728 14.1879 16.4725 14.3152 16.0494 14.4113C14.4333 14.7784 12.3739 14.8351 10.2285 14.5602C8.08311 14.2852 6.1046 13.711 4.63331 12.9482C4.24812 12.7485 3.89277 12.5243 3.56425 12.2804Z" fill="currentColor" />
    <path d="M21.644 17.313C21.644 20.2473 19.2653 22.626 16.331 22.626C13.3967 22.626 11.018 20.2473 11.018 17.313C11.018 14.3787 13.3967 12 16.331 12C19.2653 12 21.644 14.3787 21.644 17.313Z" fill="inherit" />
    <path d="M18.0456 15.9676L17.7151 16.0523L17.5447 15.3872C17.3311 14.553 16.4961 14.0582 15.6654 14.271C14.8351 14.4836 14.3404 15.319 14.5541 16.1532L14.7244 16.8182L14.3938 16.9029C14.2128 16.9492 14.1016 17.1371 14.148 17.3181L14.8303 19.9821C14.8766 20.1632 15.0644 20.2744 15.2455 20.228L18.8972 19.2928C19.0822 19.2454 19.1934 19.0576 19.147 18.8766L18.4647 16.2125C18.4184 16.0315 18.2306 15.9202 18.0456 15.9676ZM17.2153 16.1803L15.2241 16.6902L15.0538 16.0252C14.9127 15.4743 15.2464 14.9108 15.7934 14.7707C16.0581 14.704 16.3384 14.7449 16.573 14.8845C16.8075 15.024 16.9773 15.2508 17.045 15.5152L17.2153 16.1803Z" fill="currentColor" />
</svg>