<svg xmlns="http://www.w3.org/2000/svg" xmlns:xlink="http://www.w3.org/1999/xlink" x="0px" y="0px" viewBox="0 0 16 16"
  style="enable-background:new 0 0 16 16;" xml:space="preserve">
  <g>
    <path fill="currentColor" d="M11.3,11.7C10.4,12.6,9.2,13,8,13c-2.7,0-4.8-2.1-5-4.7h1.2L2.1,5.1L0,8.3h1.3c0.2,3.6,3.1,6.5,6.7,6.5
    c1.7,0,3.3-0.6,4.5-1.7c0.4-0.3,0.4-0.9,0.1-1.2C12.3,11.4,11.7,11.4,11.3,11.7z" />
    <path fill="currentColor" d="M14.8,8c0-3.7-3-6.8-6.8-6.8C6.3,1.2,4.7,1.9,3.5,3C3.1,3.3,3.1,3.8,3.4,4.2c0.3,0.4,0.9,0.4,1.2,0.1
    C5.6,3.4,6.8,3,8,3c2.8,0,5,2.2,5,5h-1.2l2.1,3.2L16,8H14.8z" />
  </g>
</svg>
