<svg version="1.1" xmlns="http://www.w3.org/2000/svg" xmlns:xlink="http://www.w3.org/1999/xlink" x="0px" y="0px"
	 viewBox="0 0 16 16" style="enable-background:new 0 0 16 16;" xml:space="preserve">
<g id="Layer_2">
	<g id="Layer_1-2">
		<path fill="currentColor" id="form" d="M11.8,0H4.2C2.6,0,1.4,1.3,1.4,2.8v10.3c0,1.6,1.3,2.8,2.8,2.8h7.6c1.6,0,2.8-1.3,2.8-2.8V2.8
			C14.6,1.3,13.4,0,11.8,0z M8,12.2H4.7c-0.4,0-0.7-0.3-0.7-0.7s0.3-0.7,0.7-0.7H8c0.4,0,0.7,0.3,0.7,0.7S8.4,12.2,8,12.2z
			 M11.3,8.7H4.7C4.4,8.7,4.1,8.4,4.1,8s0.3-0.7,0.7-0.7h6.5c0.4,0,0.7,0.3,0.7,0.7S11.6,8.7,11.3,8.7z M11.3,5.2H4.7
			c-0.4,0-0.7-0.3-0.7-0.7c0-0.4,0.3-0.7,0.7-0.7h6.5c0.4,0,0.7,0.3,0.7,0.7C11.9,4.9,11.6,5.2,11.3,5.2z"/>
	</g>
</g>
</svg>
