<svg viewBox="0 0 24 24" xmlns="http://www.w3.org/2000/svg">
  <path fill-rule="evenodd" clip-rule="evenodd"
    d="M16.29 2.00002H11C9.04486 2.00905 7.38277 3.43007 7.06997 5.36002C5.15497 5.61896 3.72243 7.24763 3.70997 9.18002V17.35C3.70731 18.5841 4.19636 19.7684 5.06899 20.641C5.94161 21.5136 7.1259 22.0027 8.35997 22H13.36C15.2483 22.0008 16.8659 20.6486 17.2 18.79C19.0275 18.3828 20.328 16.7623 20.33 14.89V6.00002C20.33 4.93218 19.9031 3.90866 19.1443 3.15735C18.3855 2.40605 17.3578 1.98934 16.29 2.00002ZM10.18 6.88002H15.57C15.9842 6.88002 16.32 7.2158 16.32 7.63002C16.32 8.04423 15.9842 8.38002 15.57 8.38002H10.18C9.76576 8.38002 9.42997 8.04423 9.42997 7.63002C9.42997 7.2158 9.76576 6.88002 10.18 6.88002ZM8.31997 20.67H13.32C14.4526 20.6713 15.4558 19.9391 15.8 18.86H11C8.79083 18.86 6.99997 17.0692 6.99997 14.86V6.68002C5.83435 6.94892 5.00645 7.9838 4.99997 9.18002V17.35C5.01089 19.1791 6.49093 20.6591 8.31997 20.67ZM9.42997 14.07C9.42997 13.6558 9.76576 13.32 10.18 13.32H14C14.4142 13.32 14.75 13.6558 14.75 14.07C14.75 14.4842 14.4142 14.82 14 14.82H10.18C9.76576 14.82 9.42997 14.4842 9.42997 14.07ZM10.18 11.6H17.11C17.5242 11.6 17.86 11.2642 17.86 10.85C17.86 10.4358 17.5242 10.1 17.11 10.1H10.18C9.76576 10.1 9.42997 10.4358 9.42997 10.85C9.42997 11.2642 9.76576 11.6 10.18 11.6Z"
    fill="currentColor" />
</svg>
