<svg viewBox="0 0 24 24" xmlns="http://www.w3.org/2000/svg">
    <path
        d="M16 5H8C5.6 5 4 6.23529 4 9.11765V14.8824C4 17.7647 5.6 19 8 19H16C18.4 19 20 17.7647 20 14.8824V9.11765C20 6.23529 18.4 5 16 5ZM16.376 10.0153L13.872 12.0741C13.344 12.5106 12.672 12.7247 12 12.7247C11.328 12.7247 10.648 12.5106 10.128 12.0741L7.624 10.0153C7.368 9.80118 7.328 9.40588 7.528 9.14235C7.736 8.87882 8.112 8.82941 8.368 9.04353L10.872 11.1024C11.48 11.6047 12.512 11.6047 13.12 11.1024L15.624 9.04353C15.88 8.82941 16.264 8.87059 16.464 9.14235C16.672 9.40588 16.632 9.80118 16.376 10.0153Z"
        fill="currentColor" />
    <circle cx="18.5" cy="16.5" r="4.5" fill="inhrite" />
    <path fill-rule="evenodd" clip-rule="evenodd"
        d="M15.625 15.5C15.625 15.2929 15.7929 15.125 16 15.125H19C19.2071 15.125 19.375 15.2929 19.375 15.5C19.375 15.7071 19.2071 15.875 19 15.875H16C15.7929 15.875 15.625 15.7071 15.625 15.5Z"
        fill="currentColor" />
    <path fill-rule="evenodd" clip-rule="evenodd"
        d="M15.625 17.5C15.625 17.2929 15.7929 17.125 16 17.125H21C21.2071 17.125 21.375 17.2929 21.375 17.5C21.375 17.7071 21.2071 17.875 21 17.875H16C15.7929 17.875 15.625 17.7071 15.625 17.5Z"
        fill="currentColor" />
</svg>