<svg version="1.1" xmlns="http://www.w3.org/2000/svg" xmlns:xlink="http://www.w3.org/1999/xlink" x="0px"
	y="0px" viewBox="0 0 16 16" style="enable-background:new 0 0 16 16;" xml:space="preserve">
	<path fill="currentColor" d="M8,0C3.6,0,0,3.6,0,8s3.6,8,8,8s8-3.6,8-8S12.4,0,8,0z M4.7,4.7C4.7,4.7,4.7,4.7,4.7,4.7h6.7c0.5,0,0.8,0.4,0.8,0.8L8,7.8
	L3.8,5.5C3.8,5.1,4.2,4.7,4.7,4.7z M11.3,11.3H4.7c0,0,0,0,0,0c-0.5,0-0.8-0.4-0.8-0.8v-4l4.1,2.2c0.1,0,0.1,0,0.2,0l4.1-2.2v4
	c0,0,0,0,0,0C12.2,10.9,11.8,11.3,11.3,11.3z" />
</svg>
