<svg viewBox="0 0 24 24" fill="none" xmlns="http://www.w3.org/2000/svg">
    <path
        d="M18 12.7487V17.9987C18 18.1976 17.921 18.3883 17.7803 18.529C17.6397 18.6696 17.4489 18.7487 17.25 18.7487H6.75C6.55109 18.7487 6.36032 18.6696 6.21967 18.529C6.07902 18.3883 6 18.1976 6 17.9987V12.7487H18ZM13.875 4.49866C14.318 4.49851 14.7538 4.61047 15.1419 4.82411C15.5299 5.03775 15.8576 5.34612 16.0944 5.72051C16.3312 6.0949 16.4694 6.52312 16.4961 6.9653C16.5228 7.40748 16.4372 7.84923 16.2473 8.24941L18.75 8.24866C18.9489 8.24866 19.1397 8.32768 19.2803 8.46833C19.421 8.60898 19.5 8.79975 19.5 8.99866V11.2487C19.5 11.4476 19.421 11.6383 19.2803 11.779C19.1397 11.9196 18.9489 11.9987 18.75 11.9987H5.25C5.05109 11.9987 4.86032 11.9196 4.71967 11.779C4.57902 11.6383 4.5 11.4476 4.5 11.2487V8.99866C4.5 8.79975 4.57902 8.60898 4.71967 8.46833C4.86032 8.32768 5.05109 8.24866 5.25 8.24866L7.75275 8.24941C7.48557 7.68816 7.42622 7.05031 7.58528 6.44941C7.74433 5.84851 8.11147 5.32354 8.62132 4.96797C9.13118 4.61241 9.75068 4.44931 10.3695 4.50771C10.9884 4.56611 11.5664 4.84223 12.0008 5.28691C12.2445 5.0368 12.536 4.83817 12.858 4.70277C13.1799 4.56737 13.5257 4.49796 13.875 4.49866ZM10.125 5.99866C9.83609 5.9988 9.5583 6.11009 9.34921 6.30947C9.14012 6.50884 9.01574 6.78102 9.00186 7.0696C8.98797 7.35817 9.08564 7.64103 9.27463 7.85956C9.46362 8.07809 9.72944 8.21553 10.017 8.24341L10.125 8.24866H11.25V7.12366C11.25 6.844 11.1458 6.57437 10.9578 6.36735C10.7698 6.16032 10.5114 6.03076 10.233 6.00391L10.125 5.99866ZM13.875 5.99866L13.767 6.00391C13.507 6.02882 13.2638 6.14339 13.0791 6.32799C12.8944 6.51259 12.7796 6.75571 12.7545 7.01566L12.75 7.12366V8.24866H13.875L13.983 8.24341C14.2613 8.21643 14.5195 8.08681 14.7074 7.8798C14.8953 7.67279 14.9994 7.40323 14.9994 7.12366C14.9994 6.84409 14.8953 6.57453 14.7074 6.36752C14.5195 6.16051 14.2613 6.03089 13.983 6.00391L13.875 5.99866Z"
        fill="currentColor" />
    <path
        d="M18 18V12.75H6V18C6 18.1989 6.07902 18.3897 6.21967 18.5303C6.36032 18.671 6.55109 18.75 6.75 18.75H17.25C17.4489 18.75 17.6397 18.671 17.7803 18.5303C17.921 18.3897 18 18.1989 18 18Z"
        fill="currentColor" />
</svg>