<svg viewBox="0 0 24 24" xmlns="http://www.w3.org/2000/svg">
    <path
        d="M18.6663 11.9998V16.9998C18.6663 18.8415 17.1747 20.3332 15.333 20.3332H8.66634C6.82467 20.3332 5.33301 18.8415 5.33301 16.9998V11.9998C5.33301 11.5415 5.70801 11.1665 6.16634 11.1665H7.80801C8.26634 11.1665 8.64134 11.5415 8.64134 11.9998V14.6165C8.64134 15.2332 8.98301 15.7998 9.52467 16.0915C9.76634 16.2248 10.033 16.2915 10.308 16.2915C10.6247 16.2915 10.9413 16.1998 11.2163 16.0165L12.008 15.4998L12.7413 15.9915C13.2497 16.3332 13.8997 16.3748 14.4413 16.0832C14.9913 15.7915 15.333 15.2332 15.333 14.6082V11.9998C15.333 11.5415 15.708 11.1665 16.1663 11.1665H17.833C18.2913 11.1665 18.6663 11.5415 18.6663 11.9998Z"
        fill="currentColor" />
    <path
        d="M19.5 7.83317V8.6665C19.5 9.58317 19.0816 10.3332 17.9211 10.3332H6.07895C4.87105 10.3332 4.5 9.58317 4.5 8.6665V7.83317C4.5 6.9165 4.87105 6.1665 6.07895 6.1665H17.9211C19.0816 6.1665 19.5 6.9165 19.5 7.83317Z"
        fill="currentColor" />
    <path
        d="M11.1667 6.16667H7.17895C6.93333 5.96094 6.94056 5.64401 7.20062 5.44384L8.22645 4.6543C8.49374 4.44857 8.93441 4.44857 9.20171 4.6543L11.1667 6.16667Z"
        fill="currentColor" />
    <path
        d="M16.7853 6.16667H12L14.358 4.6543C14.6787 4.44857 15.2075 4.44857 15.5283 4.6543L16.7593 5.44384C17.0713 5.64401 17.08 5.96094 16.7853 6.16667Z"
        fill="currentColor" />
    <path
        d="M13.6708 11.1665C14.1269 11.1665 14.5 11.5308 14.5 11.976V14.5096C14.5 15.1572 13.762 15.5458 13.2148 15.1815L12.4685 14.6958C12.1949 14.5177 11.8383 14.5177 11.5564 14.6958L10.7769 15.1977C10.2297 15.5539 9.5 15.1653 9.5 14.5258V11.976C9.5 11.5308 9.87313 11.1665 10.3292 11.1665H13.6708Z"
        fill="currentColor" />
    <circle cx="18.5" cy="16.5" r="4.5" fill="inhrite" />
    <path fill-rule="evenodd" clip-rule="evenodd"
        d="M17.488 14.7328C18.2876 13.9331 19.5876 13.9331 20.3872 14.7328C21.1869 15.5325 21.1869 16.8324 20.3872 17.6321L19.4147 18.6046C18.9551 19.0642 18.2126 19.0642 17.753 18.6046C17.2933 18.1449 17.2933 17.4025 17.753 16.9428L18.3705 16.3253C18.4876 16.2081 18.6776 16.2081 18.7947 16.3253C18.9119 16.4425 18.9119 16.6324 18.7947 16.7496L18.1772 17.3671C17.9519 17.5924 17.9519 17.955 18.1772 18.1803C18.4026 18.4056 18.7651 18.4056 18.9905 18.1803L19.963 17.2078C20.5283 16.6425 20.5283 15.7224 19.963 15.1571C19.3976 14.5917 18.4776 14.5917 17.9122 15.1571L16.8522 16.2171C16.3847 16.6847 16.384 17.4451 16.8527 17.9158C16.9696 18.0332 16.9692 18.2231 16.8518 18.34C16.7344 18.4569 16.5444 18.4565 16.4275 18.3391C15.7262 17.6348 15.7256 16.4952 16.428 15.7928L17.488 14.7328Z"
        fill="currentColor" />
</svg>