<svg viewBox="0 0 24 24" fill="none" xmlns="http://www.w3.org/2000/svg">
    <path fill-rule="evenodd" clip-rule="evenodd"
        d="M13.75 2H10.25C9.00736 2 8 3.00736 8 4.25V7.75C8 8.99264 9.00736 10 10.25 10H11.5V12.2324L9.34861 13.6667C8.94086 13.255 8.37521 13 7.75 13H4.25C3.00736 13 2 14.0074 2 15.25V18.75C2 19.9926 3.00736 21 4.25 21H7.75C8.34674 21 8.91903 20.7629 9.34099 20.341C9.76295 19.919 10 19.3467 10 18.75V15.25C10 14.993 9.9569 14.746 9.87753 14.5159L12 13.1009L14.1225 14.5159C14.0431 14.746 14 14.993 14 15.25V18.75C14 19.9926 15.0074 21 16.25 21H19.75C20.9926 21 22 19.9926 22 18.75V15.25C22 14.0074 20.9926 13 19.75 13H16.25C15.6248 13 15.0591 13.255 14.6514 13.6667L12.5 12.2324V10H13.75C14.9926 10 16 8.99264 16 7.75V4.25C16 3.00736 14.9926 2 13.75 2Z"
        fill="currentColor" />
</svg>
