<svg version="1.1" xmlns="http://www.w3.org/2000/svg" xmlns:xlink="http://www.w3.org/1999/xlink" x="0px"
	y="0px" viewBox="0 0 16 16" style="enable-background:new 0 0 16 16;" xml:space="preserve">
	<path fill="currentColor" d="M14.6,0.7v8c0,0.6-0.1,1.2-0.3,1.8C14,11,13.7,11.6,13.4,12c-0.3,0.5-0.8,0.9-1.2,1.3c-0.5,0.4-0.9,0.8-1.3,1.1
	c-0.4,0.3-0.8,0.6-1.3,0.8c-0.4,0.3-0.7,0.4-0.9,0.5c-0.2,0.1-0.3,0.2-0.4,0.2C8.1,16,8,16,7.9,16c-0.1,0-0.2,0-0.3-0.1
	c-0.1,0-0.3-0.1-0.4-0.2s-0.5-0.3-0.9-0.5C5.8,15,5.4,14.7,5,14.4c-0.4-0.3-0.8-0.6-1.3-1.1c-0.5-0.4-0.9-0.9-1.2-1.3
	c-0.3-0.5-0.6-1-0.9-1.6C1.4,9.9,1.2,9.3,1.2,8.7v-8c0-0.2,0.1-0.3,0.2-0.5C1.6,0.1,1.7,0,1.9,0h12c0.2,0,0.3,0.1,0.5,0.2
	C14.5,0.3,14.6,0.5,14.6,0.7z M12.6,8.7V2H7.9v11.8c0.8-0.4,1.6-0.9,2.2-1.4C11.8,11.1,12.6,9.9,12.6,8.7L12.6,8.7z" />
</svg>
