<svg version="1.1"  xmlns="http://www.w3.org/2000/svg" xmlns:xlink="http://www.w3.org/1999/xlink" x="0px" y="0px"
	 viewBox="0 0 16 16" style="enable-background:new 0 0 16 16;" xml:space="preserve">
<g id="Layer_2">
	<g id="Layer_1-2">
		<path fill="currentColor" id="coupon-2" d="M13.6,11.5c0.2,0.2,0.6,0.2,0.8,0c0,0,0,0,0,0l1.4-1.4c0.2-0.2,0.2-0.6,0-0.8L6.7,0.2
			c-0.2-0.2-0.6-0.2-0.8,0L4.6,1.5c-0.2,0.2-0.2,0.6,0,0.8c0,0,0,0,0,0C5.1,3,5.1,4,4.5,4.6C3.9,5.1,3,5.1,2.4,4.6
			c-0.2-0.2-0.6-0.2-0.8,0c0,0,0,0,0,0L0.2,5.9c-0.2,0.2-0.2,0.6,0,0.8l9.1,9.1c0.2,0.2,0.6,0.2,0.8,0l1.4-1.4
			c0.2-0.2,0.2-0.6,0-0.8c0,0,0,0,0,0c-0.6-0.6-0.7-1.6-0.1-2.2C12,10.8,12.9,10.8,13.6,11.5C13.6,11.4,13.6,11.4,13.6,11.5
			L13.6,11.5z M10.2,7c0.3,0,0.6,0.3,0.6,0.6c0,0,0,0,0,0v0.8c0,0.3-0.3,0.6-0.6,0.6c-0.3,0-0.5-0.3-0.6-0.6V7.6
			C9.6,7.3,9.8,7,10.2,7C10.2,7,10.2,7,10.2,7z M5.9,9C5.7,9,5.5,8.9,5.4,8.8C5.3,8.7,5.3,8.6,5.3,8.4V7.6C5.3,7.3,5.6,7,5.9,7
			c0.3,0,0.5,0.3,0.6,0.6v0.8C6.4,8.7,6.2,9,5.9,9C5.9,9,5.9,9,5.9,9z M8,11.8c-0.2,0-0.3-0.1-0.4-0.2c-0.1-0.1-0.2-0.3-0.2-0.4V4.8
			c0-0.3,0.3-0.6,0.6-0.6c0.3,0,0.6,0.3,0.6,0.6l0,0v6.4C8.6,11.5,8.3,11.8,8,11.8C8,11.8,8,11.8,8,11.8L8,11.8z"/>
	</g>
</g>
</svg>
