<svg xmlns="http://www.w3.org/2000/svg" viewBox="0 0 16 16">
  <g id="Layer_2" data-name="Layer 2">
    <g id="Layer_1-2" data-name="Layer 1-2">
      <g id="megaphone">
        <path
          fill="currentColor"
          d="M10.83,2.26a.52.52,0,0,0-.51-.06L4.19,4.58H1a1,1,0,0,0-1,1V8.16a1,1,0,0,0,1,1h.35l.72,3.69a1.37,1.37,0,0,0,2.67-.52L4.16,9.2h0l6.13,2.38a.51.51,0,0,0,.2,0,.55.55,0,0,0,.55-.55V2.71A.54.54,0,0,0,10.83,2.26Z" />
        <path
          fill="currentColor"
          d="M14.51,3.28a.69.69,0,0,0-1.07.86.57.57,0,0,0,.11.11,3.73,3.73,0,0,1,0,5.28h0a.69.69,0,0,0,1,1A5.11,5.11,0,0,0,14.51,3.28Z" />
        <path
          fill="currentColor"
          d="M13.11,5.37a.68.68,0,0,0-1,1,.79.79,0,0,1,0,1.12.67.67,0,0,0,0,1h0a.63.63,0,0,0,.48.2.7.7,0,0,0,.49-.2A2.15,2.15,0,0,0,13.11,5.37Z" />
      </g>
    </g>
  </g>
</svg>
