<svg viewBox="0 0 24 24" xmlns="http://www.w3.org/2000/svg">
    <path fill-rule="evenodd" clip-rule="evenodd"
        d="M4 2C2.89543 2 2 2.89543 2 4V20C2 21.1046 2.89543 22 4 22H20C21.1046 22 22 21.1046 22 20V4C22 2.89543 21.1046 2 20 2H4ZM6.61806 17.0018V7.48177H8.17806V17.0018H6.61806ZM10.0425 17.0018V7.48177H14.4025C15.3492 7.48177 16.0959 7.70844 16.6292 8.16177C17.1225 8.58844 17.3759 9.16177 17.3759 9.88177C17.3759 10.4151 17.2425 10.8684 16.9892 11.2418C16.7359 11.5884 16.3759 11.8418 15.8959 12.0284C16.5225 12.1484 16.9892 12.4018 17.3092 12.7884C17.6159 13.1618 17.7759 13.6818 17.7759 14.3218C17.7759 15.2818 17.4425 15.9884 16.7892 16.4418C16.2292 16.8151 15.4292 17.0018 14.4159 17.0018H10.0425ZM14.0159 8.76177H11.6025V11.4818H13.9892C14.6559 11.4818 15.1225 11.3618 15.4025 11.1484C15.6692 10.9218 15.8159 10.5618 15.8159 10.0684C15.8159 9.6151 15.6692 9.28177 15.4025 9.08177C15.1092 8.86844 14.6559 8.76177 14.0159 8.76177ZM14.2292 12.7618H11.6025V15.7218H14.1892C14.7759 15.7218 15.2425 15.6284 15.5759 15.4418C16.0025 15.2018 16.2159 14.8284 16.2159 14.2951C16.2159 13.7484 16.0559 13.3618 15.7492 13.1218C15.4292 12.8818 14.9225 12.7618 14.2292 12.7618Z"
        fill="currentColor" />
</svg>