<svg viewBox="0 0 24 24" fill="none" xmlns="http://www.w3.org/2000/svg">
  <path fill-rule="evenodd" clip-rule="evenodd" d="M6 3C4.34315 3 3 4.34315 3 6V18C3 19.6569 4.34315 21 6 21H18C19.6569 21 21 19.6569 21 18V6C21 4.34315 19.6569 3 18 3H6ZM7.15641 16.5V7.932H8.56041V16.5H7.15641ZM10.2384 16.5V7.932H14.1624C15.0144 7.932 15.6864 8.136 16.1664 8.544C16.6104 8.928 16.8384 9.444 16.8384 10.092C16.8384 10.572 16.7184 10.98 16.4904 11.316C16.2624 11.628 15.9384 11.856 15.5064 12.024C16.0704 12.132 16.4904 12.36 16.7784 12.708C17.0544 13.044 17.1984 13.512 17.1984 14.088C17.1984 14.952 16.8984 15.588 16.3104 15.996C15.8064 16.332 15.0864 16.5 14.1744 16.5H10.2384ZM13.8144 9.084H11.6424V11.532H13.7904C14.3904 11.532 14.8104 11.424 15.0624 11.232C15.3024 11.028 15.4344 10.704 15.4344 10.26C15.4344 9.852 15.3024 9.552 15.0624 9.372C14.7984 9.18 14.3904 9.084 13.8144 9.084ZM14.0064 12.684H11.6424V15.348H13.9704C14.4984 15.348 14.9184 15.264 15.2184 15.096C15.6024 14.88 15.7944 14.544 15.7944 14.064C15.7944 13.572 15.6504 13.224 15.3744 13.008C15.0864 12.792 14.6304 12.684 14.0064 12.684Z" fill="currentColor" />
</svg>
