<?xml version="1.0" encoding="utf-8"?>
<svg version="1.1" xmlns="http://www.w3.org/2000/svg" xmlns:xlink="http://www.w3.org/1999/xlink" x="0px" y="0px"
  viewBox="0 0 16 16" style="enable-background:new 0 0 16 16;" xml:space="preserve">
  <path fill="currentColor" d="M8,16c-4.4,0-8-3.6-8-8s3.6-8,8-8s8,3.6,8,8C16,12.4,12.4,16,8,16C8,16,8,16,8,16z M8,3.5c-0.5,0-1,0.4-1,1s0.4,1,1,1
	s1-0.4,1-1l0,0C9,4,8.6,3.5,8,3.5C8,3.5,8,3.5,8,3.5z M9,7.4C9,7,8.6,6.6,8.2,6.6l0,0H7.8C7.4,6.6,7,7,7,7.4v4.7
	c0,0.4,0.3,0.8,0.8,0.8c0,0,0,0,0,0h0.4c0.4,0,0.8-0.3,0.8-0.8v0L9,7.4z" />
</svg>
