<svg viewBox="0 0 40 40" xmlns=" http://www.w3.org/2000/svg">
    <g clip-path="url(#clip0_1993_12525)">
        <path
            d="M0 20C0 25.3043 2.10714 30.3914 5.85786 34.1421C9.60859 37.8929 14.6957 40 20 40C25.3043 40 30.3914 37.8929 34.1421 34.1421C37.8929 30.3914 40 25.3043 40 20C40 14.6957 37.8929 9.60859 34.1421 5.85786C30.3914 2.10714 25.3043 0 20 0C14.6957 0 9.60859 2.10714 5.85786 5.85786C2.10714 9.60859 0 14.6957 0 20H0Z"
            fill="currentColor" />
        <path
            d="M20 14.0004C16.7692 14.0004 14 16.6158 14 20.0004C14 23.2311 16.6154 26.0004 20 26.0004C23.2308 26.0004 26 23.385 26 20.0004C26 16.7696 23.2308 14.0004 20 14.0004ZM20 23.8465C17.8462 23.8465 16.1538 22.1542 16.1538 20.0004C16.1538 17.8465 17.8462 16.1542 20 16.1542C22.1538 16.1542 23.8462 17.8465 23.8462 20.0004C23.8462 22.1542 22.1538 23.8465 20 23.8465ZM26.1538 12.4619C25.3846 12.4619 24.7692 13.0773 24.7692 13.8465C24.7692 14.6158 25.3846 15.2311 26.1538 15.2311C26.9231 15.2311 27.5385 14.6158 27.5385 13.8465C27.5385 13.0773 26.9231 12.4619 26.1538 12.4619Z"
            fill="inherit" />
        <path
            d="M25.3847 8.46109H24.7693C22.9231 8.30724 17.077 8.30724 15.2308 8.46109C11.6923 8.30724 8.61542 11.0765 8.46158 14.6149V15.2303C8.30773 17.0765 8.30773 22.9226 8.46158 24.7688C8.30773 28.3072 11.077 31.3842 14.6154 31.538H15.2308C17.077 31.6919 22.9231 31.6919 24.7693 31.538C28.3077 31.6919 31.3847 28.9226 31.5385 25.3842V24.7688V15.2303C31.6923 11.6919 28.9231 8.61493 25.3847 8.46109ZM29.077 26.7688C28.6154 27.8457 27.8462 28.6149 26.9231 28.9226C22.4616 29.538 17.8462 29.538 13.2308 28.9226C12.1539 28.4611 11.3847 27.6919 11.077 26.7688C10.6154 24.4611 10.4616 22.1534 10.6154 19.9995C10.4616 17.6919 10.6154 15.3842 11.077 13.2303C11.5385 12.1534 12.3077 11.3842 13.2308 11.0765C17.6923 10.4611 22.3077 10.4611 26.9231 11.0765C28 11.538 28.7693 12.3072 29.077 13.2303C29.5385 15.538 29.6923 17.8457 29.5385 19.9995C29.6923 22.3072 29.5385 24.6149 29.077 26.7688Z"
            fill="inherit" />
    </g>
    <defs>
        <clipPath id="clip0_1993_12525">
            <rect width="40" height="40" fill="inherit" />
        </clipPath>
    </defs>
</svg>