<svg width="24" height="24" viewBox="0 0 24 24" fill="none" xmlns="http://www.w3.org/2000/svg">
    <path
        d="M3 19.5H15V18C15 17.0054 14.6049 16.0516 13.9017 15.3483C13.1984 14.6451 12.2446 14.25 11.25 14.25H6.75C5.75544 14.25 4.80161 14.6451 4.09835 15.3483C3.39509 16.0516 3 17.0054 3 18V19.5Z"
        fill="currentColor" />
    <path d="M17.88 8.39844H19.32V15.5984H17.88V8.39844Z" fill="currentColor" />
    <path d="M22.2 11.2784V12.7184L15 12.7184L15 11.2784L22.2 11.2784Z" fill="currentColor" />
    <path
        d="M8.9998 12.5992C8.44825 12.5992 7.9021 12.4906 7.39253 12.2795C6.88297 12.0684 6.41996 11.7591 6.02996 11.3691C5.63995 10.9791 5.33058 10.5161 5.11951 10.0065C4.90844 9.49692 4.7998 8.95077 4.7998 8.39922C4.7998 7.84767 4.90844 7.30152 5.11951 6.79195C5.33058 6.28238 5.63995 5.81938 6.02996 5.42937C6.41996 5.03936 6.88297 4.72999 7.39253 4.51892C7.9021 4.30785 8.44825 4.19922 8.9998 4.19922C10.1137 4.19922 11.182 4.64172 11.9697 5.42937C12.7573 6.21702 13.1998 7.28531 13.1998 8.39922C13.1998 9.51313 12.7573 10.5814 11.9697 11.3691C11.182 12.1567 10.1137 12.5992 8.9998 12.5992Z"
        fill="#FF7612" />
</svg>