<svg version="1.1" xmlns="http://www.w3.org/2000/svg" xmlns:xlink="http://www.w3.org/1999/xlink" x="0px" y="0px"
  viewBox="0 0 16 16" style="enable-background:new 0 0 16 16;" xml:space="preserve">
  <path fill="currentColor" d="M14.4,1.7c-1-1-2.3-1.6-3.8-1.6c-1.4,0-2.8,0.6-3.8,1.6C5.2,3.4,4.9,6,6,8.1L4.5,9.6c0,0-0.1-0.1-0.1-0.1L3.4,8.4
  C3.2,8.2,2.9,8.1,2.6,8.1C2.3,8.1,2,8.2,1.8,8.4c-0.4,0.4-0.4,1.2,0,1.6l1.1,1.1c0,0,0.1,0.1,0.1,0.1l-0.4,0.4L1.9,11
  c-0.2-0.2-0.5-0.3-0.8-0.3c-0.3,0-0.6,0.1-0.8,0.3C0.1,11.2,0,11.5,0,11.8c0,0.3,0.1,0.6,0.3,0.8l0.6,0.6c-0.6,0.6-0.6,1.6,0,2.2
  c0.3,0.3,0.7,0.5,1.1,0.5s0.8-0.2,1.1-0.5l5.1-5.1c0.7,0.4,1.5,0.6,2.4,0.6c1.4,0,2.8-0.6,3.8-1.6C16.5,7.2,16.5,3.8,14.4,1.7z
   M12.1,6.9c-0.8,0.8-2,0.8-2.7,0c-0.8-0.8-0.8-2,0-2.7c0.8-0.8,2-0.8,2.7,0C12.8,4.9,12.8,6.1,12.1,6.9z" />
</svg>
