<svg version="1.1" xmlns="http://www.w3.org/2000/svg" xmlns:xlink="http://www.w3.org/1999/xlink" x="0px" y="0px"
	 viewBox="0 0 16 16" style="enable-background:new 0 0 16 16;" xml:space="preserve">
<g fill="inherit" id="message-2" transform="translate(12.000000, 11.000000) scale(-1, 1) translate(-12.000000, -11.000000) ">
	<path d="M22.8,11.5c0.8-1.1,1.2-2.4,1.2-3.7c0-3.9-3.6-7.1-8-7.1S8,3.9,8,7.8s3.6,7.1,8,7.1c1.2,0,2.4-0.2,3.5-0.7l3.4,1.1
		c0.2,0.1,0.5,0,0.7-0.2s0.2-0.4,0.2-0.7L22.8,11.5z"/>
</g>
<path fill="currentColor" class="st0" d="M11,10.7c0-0.2-0.1-0.4-0.1-0.4L10.8,10L8.9,4.9C8.7,4.4,8.3,4.1,7.8,4.1S7,4.4,6.7,5l-1.9,5.1h0l-0.1,0.3
	c0,0-0.2,0.6,0.5,0.9c0,0,0,0,0,0c0.1,0,0.2,0,0.3,0c0.3,0,0.6-0.2,0.7-0.5l0.3-0.9h2.7l0.4,0.9c0.1,0.3,0.3,0.5,0.7,0.5
	c0.3,0,0.6-0.1,0.7-0.4c0,0,0,0,0,0C11,10.8,11,10.8,11,10.7C11,10.7,11,10.7,11,10.7C11,10.7,11,10.7,11,10.7z M6.9,8.6l0.9-2.9
	l1,2.9H6.9z"/>
</svg>
