<svg viewBox="0 0 24 24" fill="none" xmlns="http://www.w3.org/2000/svg">
<path fill="currentColor" d="M2.34993 9.55L10.2699 13.55C11.0776 13.9292 12.0122 13.9292 12.8199 13.55L21.6099 9.55C21.9282 9.37388 22.1258 9.03879 22.1258 8.675C22.1258 8.31121 21.9282 7.97612 21.6099 7.8L12.8199 3.8C12.4368 3.62617 12.0206 3.53746 11.5999 3.54C11.1387 3.53971 10.6835 3.64579 10.2699 3.85L2.34993 7.85C2.05571 8.03234 1.87671 8.35386 1.87671 8.7C1.87671 9.04614 2.05571 9.36766 2.34993 9.55Z" />
<path fill="currentColor" d="M21.29 12L12.44 15.69C11.8987 15.9459 11.2712 15.9459 10.73 15.69L2.88996 12C2.51152 11.8296 2.06635 11.9943 1.88996 12.37C1.80532 12.5515 1.7968 12.7594 1.86631 12.9472C1.93581 13.135 2.07755 13.2873 2.25996 13.37L10.08 17C10.5659 17.2369 11.0994 17.36 11.64 17.36C12.1227 17.3608 12.6 17.2585 13.04 17.06L21.86 13.39C22.2438 13.2326 22.4274 12.7938 22.27 12.41C22.1126 12.0262 21.6738 11.8426 21.29 12Z" />
<path fill="currentColor" d="M21.29 15.08L12.44 18.77C11.8987 19.026 11.2713 19.026 10.73 18.77L2.89001 15.09C2.64528 14.9775 2.35911 15.004 2.13928 15.1597C1.91946 15.3154 1.79938 15.5765 1.82428 15.8447C1.84918 16.1129 2.01528 16.3475 2.26001 16.46L10.08 20.08C10.5652 20.32 11.0987 20.4465 11.64 20.45C12.1234 20.4474 12.6007 20.3417 13.04 20.14L21.86 16.47C22.0496 16.3949 22.2004 16.2459 22.2778 16.0572C22.3551 15.8686 22.3523 15.6566 22.27 15.47C22.1054 15.0935 21.6684 14.9196 21.29 15.08V15.08Z" />
</svg>
