<svg viewBox="0 0 24 24" fill="none" xmlns="http://www.w3.org/2000/svg">
    <path d="M3 12C3 7.02944 7.02944 3 12 3C16.9706 3 21 7.02944 21 12C21 16.9706 16.9706 21 12 21C7.02944 21 3 16.9706 3 12Z" fill="currentColor" />
    <path d="M15.5739 9C15.3497 9 15.1145 9.02652 14.8696 9.07994C13.7269 9.32935 12.8542 10.3894 12.027 11.4835C11.1924 10.3842 10.3074 9.3293 9.12896 9.07966C8.18707 8.88014 7.38788 9.07352 6.81785 9.63898C6.28282 10.1697 6 10.9838 6 11.9933C6 13.0116 6.2894 13.8332 6.83693 14.369C7.41197 14.9317 8.20582 15.1174 9.13247 14.906C10.3019 14.6393 11.1866 13.547 12.0273 12.4324C12.8556 13.5312 13.7236 14.6197 14.8628 14.9049C15.7621 15.13 16.5714 14.9523 17.1416 14.4045C17.6951 13.8727 18 13.0163 18 11.9933C18 10.9784 17.715 10.1608 17.1759 9.62885C16.7538 9.21238 16.2082 9 15.5739 9ZM12.3842 11.9576C13.1921 10.886 13.9749 9.91752 14.9662 9.70117C15.7429 9.53157 16.3891 9.67452 16.8348 10.1143C17.2484 10.5223 17.467 11.1721 17.467 11.9933C17.467 12.8342 17.2384 13.4984 16.8059 13.9139C16.3565 14.3456 15.7227 14.4747 14.973 14.2869C13.9808 14.0385 13.1992 13.0408 12.3842 11.9576ZM8.42008 14.3589C7.92254 14.3589 7.49935 14.198 7.17635 13.8819C6.75549 13.4701 6.53304 12.817 6.53304 11.9933C6.53304 11.1768 6.74984 10.5302 7.16001 10.1233C7.60515 9.68175 8.25361 9.53587 9.03517 9.70143C10.063 9.91917 10.8568 10.8829 11.6702 11.958C10.8457 13.0536 10.0505 14.0534 9.03168 14.2858C8.81763 14.3346 8.61322 14.3589 8.42008 14.3589Z" fill="currentColor" stroke="white" stroke-width="0.5" />
</svg>