<svg viewBox="0 0 24 24" xmlns="http://www.w3.org/2000/svg">
  <path fill-rule="evenodd" clip-rule="evenodd"
    d="M6 1H19C21.2091 1 23 2.79086 23 5V18C23 20.2091 21.2091 22 19 22H6C3.79086 22 2 20.2091 2 18V5C2 2.79086 3.79086 1 6 1ZM18 12.75C18.4142 12.75 18.75 12.4142 18.75 12V8.96C18.7446 8.54804 18.412 8.21539 18 8.21H15C14.5858 8.21 14.25 8.54579 14.25 8.96C14.25 9.37421 14.5858 9.71 15 9.71H15.89L12.33 13.27L10.33 11.27C9.79927 10.7411 8.94073 10.7411 8.41 11.27L5.84 13.84C5.54755 14.1328 5.54755 14.6072 5.84 14.9C5.97988 15.0416 6.17093 15.1209 6.37 15.12C6.56929 15.1221 6.76077 15.0426 6.9 14.9L9.41 12.5L11.41 14.5C11.9407 15.0289 12.7993 15.0289 13.33 14.5L17.25 10.55V12C17.25 12.4142 17.5858 12.75 18 12.75Z"
    fill="currentColor" />
</svg>
