<svg viewBox="0 0 40 40" xmlns="http://www.w3.org/2000/svg">
    <rect width="40" height="40" rx="20" fill="currentColor" />
    <path
        d="M14.9385 27.9992V15.5843H10.6511V27.9992H14.939H14.9385ZM12.7957 13.8895C14.2905 13.8895 15.2211 12.9362 15.2211 11.7448C15.1931 10.5263 14.2905 9.59961 12.8242 9.59961C11.3568 9.59961 10.3984 10.5263 10.3984 11.7447C10.3984 12.9361 11.3287 13.8894 12.7676 13.8894H12.7954L12.7957 13.8895ZM17.3116 27.9992H21.5986V21.0669C21.5986 20.6963 21.6266 20.3248 21.7399 20.0601C22.0497 19.3185 22.7551 18.5508 23.9398 18.5508C25.4907 18.5508 26.1115 19.6892 26.1115 21.3583V27.9992H30.3984V20.8809C30.3984 17.0677 28.2836 15.2932 25.463 15.2932C23.1504 15.2932 22.1347 16.5373 21.5704 17.3846H21.599V15.5847H17.3118C17.3678 16.7494 17.3115 27.9996 17.3115 27.9996L17.3116 27.9992Z"
        fill="inherit" />
</svg>