<svg viewBox="0 0 24 24" xmlns="http://www.w3.org/2000/svg">
  <rect x="1.62" y="3" width="8" height="8" rx="2.25" fill="currentColor" />
  <rect x="1.62" y="13" width="8" height="8" rx="2.25" fill="currentColor" />
  <path
    d="M13.62 6.75H18.62C19.0342 6.75 19.37 6.41421 19.37 6C19.37 5.58579 19.0342 5.25 18.62 5.25H13.62C13.2058 5.25 12.87 5.58579 12.87 6C12.87 6.41421 13.2058 6.75 13.62 6.75Z"
    fill="currentColor" />
  <path
    d="M13.62 9.75H21.62C22.0342 9.75 22.37 9.41421 22.37 9C22.37 8.58579 22.0342 8.25 21.62 8.25H13.62C13.2058 8.25 12.87 8.58579 12.87 9C12.87 9.41421 13.2058 9.75 13.62 9.75Z"
    fill="currentColor" />
  <path
    d="M13.62 16.75H18.62C19.0342 16.75 19.37 16.4142 19.37 16C19.37 15.5858 19.0342 15.25 18.62 15.25H13.62C13.2058 15.25 12.87 15.5858 12.87 16C12.87 16.4142 13.2058 16.75 13.62 16.75Z"
    fill="currentColor" />
  <path
    d="M21.62 18.25H13.62C13.2058 18.25 12.87 18.5858 12.87 19C12.87 19.4142 13.2058 19.75 13.62 19.75H21.62C22.0342 19.75 22.37 19.4142 22.37 19C22.37 18.5858 22.0342 18.25 21.62 18.25Z"
    fill="currentColor" />
</svg>
