<svg viewBox="0 0 24 24" fill="none" xmlns="http://www.w3.org/2000/svg">
    <path
        d="M5.2079 6.48002L8.1119 9.38402C8.4719 9.74402 9.0239 9.74402 9.3839 9.38402C9.7439 9.02402 9.7439 8.47202 9.3839 8.11202L6.4799 5.20802C6.1199 4.84802 5.5679 4.84802 5.2079 5.20802C4.8479 5.56802 4.8719 6.12002 5.2079 6.48002ZM3.2879 12.888H7.3919C7.8959 12.888 8.2799 12.48 8.2799 12C8.2799 11.52 7.8719 11.112 7.3919 11.112H3.2879C2.7839 11.112 2.3999 11.52 2.3999 12C2.3999 12.48 2.8079 12.888 3.2879 12.888ZM6.4799 18.792L9.3839 15.888C9.7439 15.528 9.7439 14.976 9.3839 14.616C9.0239 14.256 8.4719 14.256 8.1119 14.616L5.2079 17.52C4.8479 17.88 4.8479 18.432 5.2079 18.792C5.5679 19.128 6.1199 19.128 6.4799 18.792ZM12.8879 20.712V16.608C12.8879 16.104 12.4799 15.72 11.9999 15.72C11.5199 15.72 11.1119 16.128 11.1119 16.608V20.712C11.1119 21.216 11.5199 21.6 11.9999 21.6C12.4799 21.6 12.8879 21.192 12.8879 20.712ZM18.7919 17.52L15.8879 14.616C15.5279 14.256 14.9759 14.256 14.6159 14.616C14.2559 14.976 14.2559 15.528 14.6159 15.888L17.5199 18.792C17.8799 19.152 18.4319 19.152 18.7919 18.792C19.1279 18.432 19.1279 17.88 18.7919 17.52ZM20.7119 11.112H16.6079C16.1039 11.112 15.7199 11.52 15.7199 12C15.7199 12.48 16.1279 12.888 16.6079 12.888H20.7119C21.2159 12.888 21.5999 12.48 21.5999 12C21.5999 11.52 21.1919 11.112 20.7119 11.112ZM17.5199 5.20802L14.6159 8.11202C14.2559 8.47202 14.2559 9.02402 14.6159 9.38402C14.9759 9.74402 15.5279 9.74402 15.8879 9.38402L18.7919 6.48002C19.1519 6.12002 19.1519 5.56802 18.7919 5.20802C18.4319 4.87202 17.8799 4.87202 17.5199 5.20802ZM11.1119 3.28802V7.39202C11.1119 7.89602 11.5199 8.28002 11.9999 8.28002C12.4799 8.28002 12.8879 7.87202 12.8879 7.39202V3.28802C12.8879 2.78402 12.4799 2.40002 11.9999 2.40002C11.5199 2.40002 11.1119 2.80802 11.1119 3.28802Z"
        fill="currentColor" />
</svg>
