<svg viewBox="0 0 24 24" fill="none" xmlns="http://www.w3.org/2000/svg">
<path d="M18.2222 10.2H19.1111C19.3469 10.2 19.573 10.2948 19.7397 10.4636C19.9064 10.6324 20 10.8613 20 11.1V20.1C20 20.3387 19.9064 20.5676 19.7397 20.7364C19.573 20.9052 19.3469 21 19.1111 21H4.88889C4.65314 21 4.42705 20.9052 4.26035 20.7364C4.09365 20.5676 4 20.3387 4 20.1V11.1C4 10.8613 4.09365 10.6324 4.26035 10.4636C4.42705 10.2948 4.65314 10.2 4.88889 10.2H5.77778V9.3C5.77778 8.47267 5.93872 7.65345 6.25142 6.88909C6.56411 6.12474 7.02244 5.43024 7.60022 4.84523C8.17801 4.26022 8.86394 3.79616 9.61886 3.47956C10.3738 3.16295 11.1829 3 12 3C12.8171 3 13.6262 3.16295 14.3811 3.47956C15.1361 3.79616 15.822 4.26022 16.3998 4.84523C16.9776 5.43024 17.4359 6.12474 17.7486 6.88909C18.0613 7.65345 18.2222 8.47267 18.2222 9.3V10.2ZM16.4444 10.2V9.3C16.4444 8.10653 15.9762 6.96193 15.1427 6.11802C14.3092 5.27411 13.1787 4.8 12 4.8C10.8213 4.8 9.6908 5.27411 8.8573 6.11802C8.02381 6.96193 7.55556 8.10653 7.55556 9.3V10.2H16.4444ZM11.1111 13.8V17.4H12.8889V13.8H11.1111Z" fill="currentColor"/>
</svg>
