<svg viewBox="0 0 24 24" xmlns="http://www.w3.org/2000/svg">
  <path fill-rule="evenodd" clip-rule="evenodd"
    d="M15.12 2H8C4.68629 2 2 4.68629 2 8V15.12C2 18.4337 4.68629 21.12 8 21.12H15.12C18.4337 21.12 21.12 18.4337 21.12 15.12V8C21.12 4.68629 18.4337 2 15.12 2ZM9.81 10.73C9.61782 10.7456 9.42728 10.6844 9.28 10.56C9.13705 10.4207 9.05643 10.2296 9.05643 10.03C9.05643 9.83041 9.13705 9.63929 9.28 9.5L9.77 9.01H8.89C7.81857 9.01 6.95 9.87857 6.95 10.95V12.27C6.97712 13.3219 7.83779 14.1603 8.89 14.16C9.30421 14.16 9.64 14.4958 9.64 14.91C9.64 15.3242 9.30421 15.66 8.89 15.66C6.99242 15.6545 5.45549 14.1176 5.45 12.22V10.9C5.45549 9.00242 6.99242 7.46549 8.89 7.46H9.77L9.28 6.97C9.13705 6.83071 9.05643 6.63959 9.05643 6.44C9.05643 6.24041 9.13705 6.04929 9.28 5.91C9.57282 5.61755 10.0472 5.61755 10.34 5.91L12.11 7.68C12.1781 7.75291 12.2323 7.83763 12.27 7.93C12.3496 8.11166 12.3496 8.31834 12.27 8.5C12.2347 8.59067 12.1801 8.67256 12.11 8.74L10.34 10.56C10.1922 10.6835 10.0021 10.7445 9.81 10.73ZM14.23 15.66C16.1276 15.6545 17.6645 14.1176 17.67 12.22V10.9C17.6645 9.00242 16.1276 7.46549 14.23 7.46C13.8158 7.46 13.48 7.79579 13.48 8.21C13.48 8.62421 13.8158 8.96 14.23 8.96C15.3014 8.96 16.17 9.82857 16.17 10.9V12.22C16.17 13.2914 15.3014 14.16 14.23 14.16H13.35L13.84 13.67C14.1154 13.3745 14.1072 12.914 13.8216 12.6284C13.536 12.3428 13.0755 12.3346 12.78 12.61L11.01 14.38C10.9399 14.4474 10.8853 14.5293 10.85 14.62C10.78 14.8036 10.78 15.0064 10.85 15.19C10.8877 15.2824 10.9419 15.3671 11.01 15.44L12.78 17.21C12.9228 17.3472 13.112 17.4257 13.31 17.43C13.5084 17.4277 13.6983 17.3489 13.84 17.21C13.9835 17.069 14.0644 16.8762 14.0644 16.675C14.0644 16.4738 13.9835 16.281 13.84 16.14L13.35 15.66H14.23Z"
    fill="currentColor" />
</svg>
