<svg version="1.1"  xmlns="http://www.w3.org/2000/svg" xmlns:xlink="http://www.w3.org/1999/xlink" x="0px" y="0px"
	 viewBox="0 0 16 16" style="enable-background:new 0 0 16 16;" xml:space="preserve">
<g id="Layer_2">
	<g id="Layer_1-2">
		<path fill="currentColor" id="mail" d="M13.2,1.1H2.8C1.3,1.1,0,2.4,0,3.9v8.1c0,1.6,1.3,2.8,2.8,2.8h10.3c1.6,0,2.8-1.3,2.8-2.8V3.9
			C16,2.4,14.7,1.1,13.2,1.1z M14,5.8L9.2,8.5c-0.7,0.4-1.6,0.4-2.3,0L2,5.8C1.6,5.6,1.5,5.2,1.6,4.9c0.1-0.3,0.5-0.5,0.9-0.4
			c0.1,0,0.1,0,0.1,0.1l4.9,2.7c0.3,0.2,0.7,0.2,1,0l4.9-2.7c0.3-0.2,0.7-0.1,0.9,0.2C14.5,5.2,14.4,5.6,14,5.8
			C14.1,5.8,14,5.8,14,5.8L14,5.8z"/>
	</g>
</g>
</svg>
