<svg viewBox="0 0 24 24" xmlns="http://www.w3.org/2000/svg">
  <path fill-rule="evenodd" clip-rule="evenodd"
    d="M7 3C4.79086 3 3 4.79086 3 7V17C3 19.2091 4.79086 21 7 21H17C19.2091 21 21 19.2091 21 17V7C21 4.79086 19.2091 3 17 3H7ZM9.47538 7.48618C9.1916 7.22363 8.74872 7.24084 8.48618 7.52462C8.22363 7.8084 8.24084 8.25128 8.52462 8.51382L11.2837 11.0664H9.22686C8.84026 11.0664 8.52686 11.3798 8.52686 11.7664C8.52686 12.153 8.84026 12.4664 9.22686 12.4664H11.3V13.6832H9.22686C8.84026 13.6832 8.52686 13.9966 8.52686 14.3832C8.52686 14.7698 8.84026 15.0832 9.22686 15.0832H11.3V17C11.3 17.3866 11.6134 17.7 12 17.7C12.3866 17.7 12.7 17.3866 12.7 17V15.0832H14.6569C15.0435 15.0832 15.3569 14.7698 15.3569 14.3832C15.3569 13.9966 15.0435 13.6832 14.6569 13.6832H12.7V12.4664H14.6569C15.0435 12.4664 15.3569 12.153 15.3569 11.7664C15.3569 11.3798 15.0435 11.0664 14.6569 11.0664H12.7163L15.4754 8.51382C15.7592 8.25128 15.7764 7.8084 15.5138 7.52462C15.2513 7.24084 14.8084 7.22363 14.5246 7.48618L12 9.82189L9.47538 7.48618Z"
    fill="currentColor" />
</svg>
