<svg viewBox="0 0 24 24" xmlns="http://www.w3.org/2000/svg">
    <path fill-rule="evenodd" clip-rule="evenodd"
        d="M20.1 6.47L16.8 3.17C16.0492 2.42005 15.0312 1.99917 13.97 2H9.3C8.23882 1.99917 7.22079 2.42005 6.47 3.17L3.17 6.47C2.42005 7.22079 1.99917 8.23882 2 9.3V13.97C2.00182 15.0277 2.42249 16.0417 3.17 16.79L6.47 20.1C7.22079 20.85 8.23882 21.2708 9.3 21.27H13.97C15.0312 21.2708 16.0492 20.85 16.8 20.1L20.1 16.79C20.8475 16.0417 21.2682 15.0277 21.27 13.97V9.3C21.2708 8.23882 20.85 7.22079 20.1 6.47ZM10.88 8.27C10.88 8.00205 11.023 7.75446 11.255 7.62048C11.4871 7.48651 11.773 7.48651 12.005 7.62048C12.2371 7.75446 12.38 8.00205 12.38 8.27V11.37C12.38 11.7842 12.0442 12.12 11.63 12.12C11.2158 12.12 10.88 11.7842 10.88 11.37V8.27ZM11.64 15.02C12.0542 15.02 12.39 14.6842 12.39 14.27C12.39 13.8558 12.0542 13.52 11.64 13.52C11.2258 13.52 10.89 13.8558 10.89 14.27C10.89 14.6842 11.2258 15.02 11.64 15.02Z"
        fill="currentColor" />
</svg>