<svg version="1.1"  xmlns="http://www.w3.org/2000/svg" xmlns:xlink="http://www.w3.org/1999/xlink" x="0px" y="0px"
	 viewBox="0 0 16 16" style="enable-background:new 0 0 16 16;" xml:space="preserve">
<g id="Layer_2">
	<g id="Layer_1-2">
		<path fill="currentColor" id="assignment_ind" d="M11.3,1.9h-0.8c-0.4-1.4-1.8-2.2-3.2-1.8C6.4,0.3,5.8,1,5.5,1.9H4.7c-1.6,0-2.8,1.3-2.8,2.8v8.4
			c0,1.6,1.3,2.8,2.8,2.8h6.5c1.6,0,2.8-1.3,2.8-2.8V4.7C14.1,3.2,12.8,1.9,11.3,1.9z M8,1.2c0.4,0,0.7,0.3,0.7,0.7S8.4,2.6,8,2.6
			c-0.4,0-0.7-0.3-0.7-0.7S7.6,1.2,8,1.2z M8,5.2C9,5.2,9.7,6,9.7,7S9,8.7,8,8.7S6.3,7.9,6.3,7l0,0C6.3,6,7,5.2,8,5.2z M10.9,12.6
			C10.7,12.9,10.3,13,10,13H6c-0.3,0-0.7-0.2-0.9-0.4c-0.2-0.3-0.3-0.6-0.2-0.9C5.3,10,7,8.9,8.7,9.3c1.2,0.3,2.1,1.2,2.4,2.4
			C11.2,12,11.1,12.4,10.9,12.6z"/>
	</g>
</g>
</svg>
