<svg viewBox="0 0 24 24" fill="none" xmlns="http://www.w3.org/2000/svg">
    <path d="M10.7809 11.1694H9.78397C7.58163 11.1694 5.79628 9.38408 5.79628 7.18174V4.54987C5.79362 3.66067 6.14568 2.80713 6.77444 2.17837C7.4032 1.54961 8.25674 1.19755 9.14594 1.20021H11.4189C12.3081 1.19755 13.1617 1.54961 13.7904 2.17837C14.4192 2.80713 14.7712 3.66067 14.7686 4.54987V7.18174C14.7686 8.23934 14.3485 9.25363 13.6006 10.0015C12.8528 10.7493 11.8385 11.1694 10.7809 11.1694Z" fill="currentColor" />
    <path fill-rule="evenodd" clip-rule="evenodd" d="M12.9574 12.8311H5.88609C4.32354 12.8636 3.00104 13.9942 2.72585 15.5327L2.48659 16.6692C2.25986 17.6518 2.48372 18.6842 3.09705 19.4847C3.71038 20.2851 4.64909 20.7698 5.6568 20.8064H11.4171C10.9633 19.9074 10.7077 18.8913 10.7077 17.8154C10.7077 15.8305 11.5778 14.0489 12.9574 12.8311Z" fill="currentColor" />
    <path fill-rule="evenodd" clip-rule="evenodd" d="M17.3539 22.8003C20.1068 22.8003 22.3385 20.5686 22.3385 17.8157C22.3385 15.0627 20.1068 12.8311 17.3539 12.8311C14.601 12.8311 12.3693 15.0627 12.3693 17.8157C12.3693 20.5686 14.601 22.8003 17.3539 22.8003ZM19.8462 18.6462C20.305 18.6462 20.677 18.2742 20.677 17.8154C20.677 17.3566 20.305 16.9846 19.8462 16.9846C19.3874 16.9846 19.0154 17.3566 19.0154 17.8154C19.0154 18.2742 19.3874 18.6462 19.8462 18.6462ZM15.6923 17.8154C15.6923 18.2742 15.3203 18.6462 14.8615 18.6462C14.4027 18.6462 14.0308 18.2742 14.0308 17.8154C14.0308 17.3566 14.4027 16.9846 14.8615 16.9846C15.3203 16.9846 15.6923 17.3566 15.6923 17.8154ZM17.3538 18.6462C17.8126 18.6462 18.1846 18.2742 18.1846 17.8154C18.1846 17.3566 17.8126 16.9846 17.3538 16.9846C16.895 16.9846 16.523 17.3566 16.523 17.8154C16.523 18.2742 16.895 18.6462 17.3538 18.6462Z" fill="currentColor" />
</svg>