<svg viewBox="0 0 24 24" fill="fill" xmlns="http://www.w3.org/2000/svg">
    <path d="M2.9666 14.4199C2.05418 15.6962 3.1117 17.2542 4.67195 17.4182L15.0013 18.5038C16.5615 18.6678 17.9199 17.3637 17.2927 15.9257C16.1407 13.284 13.6394 11.3204 10.5685 10.9977C7.49757 10.6749 4.64273 12.0755 2.9666 14.4199Z" fill="currentColor" />
    <ellipse cx="11.5609" cy="6.0008" rx="3.969" ry="3.969" transform="rotate(6 11.5609 6.0008)" fill="currentColor" />
    <ellipse cx="16.2873" cy="17.3126" rx="5.31265" ry="5.31265" fill="inherit" />
    <path d="M18.0019 15.9656L17.6713 16.0502L17.501 15.3853C17.2874 14.5511 16.4525 14.0563 15.6218 14.269C14.7916 14.4817 14.2969 15.317 14.5105 16.1512L14.6809 16.8161L14.3503 16.9008C14.1693 16.9472 14.0581 17.135 14.1045 17.316L14.7867 19.9799C14.8331 20.1609 15.0209 20.2721 15.2019 20.2257L18.8534 19.2905C19.0384 19.2432 19.1496 19.0553 19.1032 18.8743L18.421 16.2105C18.3746 16.0295 18.1868 15.9182 18.0019 15.9656ZM17.1716 16.1782L15.1806 16.6882L15.0103 16.0232C14.8692 15.4723 15.2029 14.9088 15.7498 14.7688C16.0145 14.7021 16.2948 14.743 16.5293 14.8825C16.7639 15.0221 16.9336 15.2488 17.0013 15.5132L17.1716 16.1782Z" fill="currentColor" />
</svg>