<svg viewBox="0 0 24 24" xmlns="http://www.w3.org/2000/svg">
  <path
    d="M10.8274 13.6977V21.5116H3C3 19.4392 3.82467 17.4517 5.29258 15.9863C6.7605 14.5209 8.75142 13.6977 10.8274 13.6977ZM13.3664 18.3978C13.2423 17.8766 13.2423 17.3337 13.3664 16.8125L12.3958 16.2528L13.3742 14.5611L14.3448 15.1208C14.7344 14.7524 15.2053 14.4807 15.7195 14.3277V13.2093H17.6763V14.3277C18.1968 14.482 18.6665 14.7574 19.051 15.1208L20.0216 14.5611L21 16.2528L20.0294 16.8125C20.1533 17.3333 20.1533 17.8759 20.0294 18.3968L21 18.9565L20.0216 20.6482L19.051 20.0885C18.6614 20.4568 18.1905 20.7285 17.6763 20.8816V22H15.7195V20.8816C15.2053 20.7285 14.7344 20.4568 14.3448 20.0885L13.3742 20.6482L12.3958 18.9565L13.3664 18.3978ZM16.6979 16.6279C16.4384 16.6279 16.1895 16.7308 16.006 16.914C15.8225 17.0972 15.7195 17.3456 15.7195 17.6046C15.7195 17.8637 15.8225 18.1121 16.006 18.2953C16.1895 18.4785 16.4384 18.5814 16.6979 18.5814C16.9574 18.5814 17.2062 18.4785 17.3897 18.2953C17.5732 18.1121 17.6763 17.8637 17.6763 17.6046C17.6763 17.3456 17.5732 17.0972 17.3897 16.914C17.2062 16.7308 16.9574 16.6279 16.6979 16.6279Z"
    fill="currentColor" />
  <circle cx="11" cy="7" r="5" fill="currentColor" />
</svg>
