<svg viewBox="0 0 24 24" fill="none" xmlns="http://www.w3.org/2000/svg">
    <path d="M10.781 11.1696H9.78409C7.58172 11.1696 5.79634 9.38421 5.79634 7.18184V4.54992C5.79368 3.66071 6.14574 2.80715 6.77451 2.17838C7.40328 1.54961 8.25684 1.19755 9.14605 1.20021H11.4191C12.3083 1.19755 13.1618 1.54961 13.7906 2.17838C14.4194 2.80715 14.7714 3.66071 14.7688 4.54992V7.18184C14.7688 8.23946 14.3486 9.25376 13.6008 10.0016C12.8529 10.7495 11.8386 11.1696 10.781 11.1696Z" fill="currentColor" />
    <path fill-rule="evenodd" clip-rule="evenodd" d="M12.9587 12.8301H5.88615C4.32357 12.8627 3.00105 13.9933 2.72586 15.5318L2.48659 16.6683C2.25985 17.6509 2.48373 18.6834 3.09706 19.4838C3.7104 20.2842 4.64912 20.7689 5.65685 20.8056H11.4169C10.9634 19.9068 10.7079 18.891 10.7079 17.8155C10.7079 15.83 11.5785 14.0479 12.9587 12.8301Z" fill="currentColor" />
    <path fill-rule="evenodd" clip-rule="evenodd" d="M17.3542 22.7995C20.1072 22.7995 22.3389 20.5677 22.3389 17.8148C22.3389 15.0618 20.1072 12.8301 17.3542 12.8301C14.6012 12.8301 12.3695 15.0618 12.3695 17.8148C12.3695 20.5677 14.6012 22.7995 17.3542 22.7995ZM17.0441 20.707L20.7941 15.907L20.0061 15.2914L16.6155 19.6313L14.7648 17.6572L14.0353 18.3412L16.2853 20.7412L16.6846 21.1671L17.0441 20.707Z" fill="currentColor" />
</svg>