<svg viewBox="0 0 24 24" fill="none" xmlns="http://www.w3.org/2000/svg">
  <path
    d="M10.9188 11.1925H9.94952C7.80831 11.1925 6.07252 9.4567 6.07252 7.3155V4.75669C6.06994 3.89217 6.41222 3.06232 7.02353 2.45102C7.63483 1.83971 8.46468 1.49743 9.3292 1.50001H11.5391C12.4036 1.49743 13.2334 1.83971 13.8448 2.45102C14.4561 3.06232 14.7983 3.89217 14.7958 4.75669V7.3155C14.7958 8.34374 14.3873 9.32987 13.6602 10.0569C12.9331 10.784 11.947 11.1925 10.9188 11.1925Z"
    fill="currentColor" />
  <path fill-rule="evenodd" clip-rule="evenodd"
    d="M13.0402 12.8097H6.16493C4.64575 12.8414 3.35996 13.9406 3.09242 15.4364L2.8598 16.5413C2.63936 17.4966 2.85701 18.5004 3.45331 19.2786C4.04961 20.0568 4.96227 20.528 5.94201 20.5637H11.5416C11.1006 19.6898 10.8522 18.7021 10.8522 17.6564C10.8522 15.7262 11.6985 13.9937 13.0402 12.8097Z"
    fill="currentColor" />
  <path fill-rule="evenodd" clip-rule="evenodd"
    d="M17.3089 22.5024C19.9854 22.5024 22.1551 20.3327 22.1551 17.6562C22.1551 14.9797 19.9854 12.8099 17.3089 12.8099C14.6324 12.8099 12.4626 14.9797 12.4626 17.6562C12.4626 20.3327 14.6324 22.5024 17.3089 22.5024ZM19.8001 19.4666L18.9667 20.3L17.3001 18.6333L15.6334 20.3L14.8 19.4666L16.4667 17.8L14.8001 16.1333L15.6334 15.3L17.3001 16.9666L18.9667 15.3L19.8 16.1333L18.1334 17.8L19.8001 19.4666Z"
    fill="currentColor" />
</svg>
