<svg viewBox="0 0 24 24" fill="fill" xmlns="http://www.w3.org/2000/svg">
    <path
        d="M15.4158 6.34611C15.1867 8.52602 13.2338 10.1074 11.0539 9.87833C8.87398 9.64921 7.29255 7.69631 7.52167 5.51641C7.75079 3.3365 9.70369 1.75507 11.8836 1.98419C14.0635 2.21331 15.6449 4.16621 15.4158 6.34611Z"
        fill="currentColor" />
    <path
        d="M2.96659 14.4194C2.05416 15.6957 3.11168 17.2537 4.67193 17.4177L15.0013 18.5033C16.5615 18.6673 17.9199 17.3632 17.2927 15.9252C16.1406 13.2835 13.6394 11.3199 10.5685 10.9972C7.49756 10.6744 4.64272 12.075 2.96659 14.4194Z"
        fill="currentColor" />
    <path
        d="M9.37421 17.8325C9.01873 16.0584 8.84099 15.1714 9.2817 14.5098C9.72241 13.8482 10.6095 13.6705 12.3836 13.315L17.786 12.2325C19.5601 11.877 20.4472 11.6993 21.1087 12.14C21.7703 12.5807 21.9481 13.4677 22.3035 15.2418L22.6458 16.9502C23.0013 18.7243 23.1791 19.6113 22.7384 20.2729C22.2977 20.9345 21.4106 21.1122 19.6365 21.4677L14.2341 22.5502C12.46 22.9057 11.5729 23.0835 10.9113 22.6427C10.2497 22.202 10.072 21.315 9.71652 19.5409L9.37421 17.8325Z"
        fill="inherit" />
    <path d="M11.4531 15.4226L19.457 13.8188L19.5804 14.4345L11.5765 16.0383L11.4531 15.4226Z" fill="currentColor" />
    <path d="M11.946 17.8853L19.9499 16.2815L20.0733 16.8972L12.0694 18.5009L11.946 17.8853Z" fill="currentColor" />
    <path d="M12.4399 20.3481L16.134 19.6079L16.2574 20.2236L12.5633 20.9638L12.4399 20.3481Z" fill="currentColor" />
</svg>