<svg version="1.1" xmlns="http://www.w3.org/2000/svg" xmlns:xlink="http://www.w3.org/1999/xlink" x="0px"
	y="0px" viewBox="0 0 16 16" style="enable-background:new 0 0 16 16;" xml:space="preserve">
	<g>
		<path fill="currentColor" d="M8,12.2c0.3,0,0.5-0.2,0.5-0.5c0-0.3-0.2-0.5-0.5-0.5c-0.3,0-0.5,0.2-0.5,0.5C7.5,12,7.7,12.2,8,12.2z" />
		<path fill="currentColor" d="M8,0C3.6,0,0,3.6,0,8s3.6,8,8,8s8-3.6,8-8S12.4,0,8,0z M11.2,12c0,0.6-0.3,0.9-0.8,0.9H5.7c-0.5,0-0.9-0.4-0.9-0.9v-1.3
		h6.4V12z M11.2,9.9H4.8V3.9c0-0.4,0.4-0.8,0.8-0.8h4.8c0.4,0,0.8,0.4,0.8,0.8V9.9z" />
	</g>
</svg>
