<svg viewBox="0 0 24 24" xmlns="http://www.w3.org/2000/svg">
  <path
    d="M17.3601 9.70032L10.1101 5.51032C9.18161 4.97425 8.0376 4.97444 7.10927 5.5108C6.18095 6.04717 5.60942 7.03818 5.61011 8.11032V16.4803C5.60942 17.5525 6.18095 18.5435 7.10927 19.0798C8.0376 19.6162 9.18161 19.6164 10.1101 19.0803L17.3601 14.8903C18.2853 14.3536 18.8548 13.3649 18.8548 12.2953C18.8548 11.2257 18.2853 10.237 17.3601 9.70032Z"
    fill="currentColor" />
  <path
    d="M16.4601 13.3404L9.21015 17.5204C9.02881 17.6294 8.8217 17.6881 8.61015 17.6904C8.28923 17.6904 7.98147 17.5629 7.75455 17.336C7.52763 17.1091 7.40015 16.8013 7.40015 16.4804V8.11039C7.40015 7.44213 7.94188 6.90039 8.61015 6.90039C8.8217 6.90271 9.02881 6.96139 9.21015 7.07039L16.4601 11.2504C16.8348 11.4667 17.064 11.8678 17.0601 12.3004C17.0625 12.7299 16.8332 13.1274 16.4601 13.3404V13.3404Z"
    fill="inherit" />
</svg>
