<svg viewBox="0 0 24 24" fill="none" xmlns="http://www.w3.org/2000/svg">
  <path d="M10.9001 2.09961L20.7991 3.51461L22.2131 13.4146L13.0211 22.6066C12.8336 22.7941 12.5793 22.8994 12.3141 22.8994C12.0489 22.8994 11.7946 22.7941 11.6071 22.6066L1.70709 12.7066C1.51962 12.5191 1.41431 12.2648 1.41431 11.9996C1.41431 11.7344 1.51962 11.4801 1.70709 11.2926L10.9001 2.09961ZM13.7281 10.5856C13.9138 10.7713 14.1344 10.9186 14.377 11.0191C14.6197 11.1195 14.8798 11.1712 15.1424 11.1712C15.4051 11.1711 15.6652 11.1193 15.9078 11.0188C16.1504 10.9182 16.3709 10.7709 16.5566 10.5851C16.7423 10.3994 16.8896 10.1788 16.99 9.93617C17.0905 9.69349 17.1422 9.43341 17.1421 9.17076C17.1421 8.90811 17.0903 8.64804 16.9898 8.4054C16.8892 8.16276 16.7418 7.9423 16.5561 7.75661C16.3703 7.57092 16.1498 7.42364 15.9072 7.32317C15.6645 7.2227 15.4044 7.17101 15.1417 7.17106C14.6113 7.17115 14.1026 7.38196 13.7276 7.75711C13.3526 8.13226 13.1419 8.64102 13.142 9.17146C13.1421 9.70191 13.3529 10.2106 13.7281 10.5856Z" fill="currentColor" />
</svg>
