<svg viewBox="0 0 24 24" fill="none" xmlns="http://www.w3.org/2000/svg">
  <path d="M2.14842 1.49863H10.5603C11.4158 1.58223 11.2096 3.06807 11.2096 4.03344V8.62954C11.2096 9.6284 11.4003 10.8527 10.7298 11.1365C10.2931 11.3213 9.12117 11.1922 8.55618 11.1922H4.09619C3.0652 11.1922 1.65743 11.435 1.4992 10.5515V2.13924C1.61451 1.82593 1.81727 1.59894 2.14842 1.49863ZM3.30576 3.39278V9.3816H9.37481V3.30917H3.33403C3.30114 3.31386 3.3034 3.35321 3.30576 3.39278ZM13.4396 1.49863H21.8515C22.1946 1.62423 22.4304 1.85588 22.5008 2.25069V10.4401C22.4238 10.7804 22.2438 11.0711 21.908 11.1644C21.3593 11.3167 20.4476 11.1922 19.7909 11.1922H15.472C14.8207 11.1922 13.8555 11.3276 13.3267 11.1644C12.5802 10.9339 12.7904 9.496 12.7904 8.49022V4.20057C12.7904 3.03929 12.5321 1.66091 13.4396 1.49863ZM14.597 3.39278V9.3816H20.6659V3.30917H14.6252C14.5923 3.31386 14.5945 3.35321 14.597 3.39278ZM6.07211 5.14761C6.91736 4.99023 7.58205 5.55381 7.59647 6.31757C7.61538 7.32475 6.5729 7.87797 5.76161 7.45965C4.83349 6.98092 4.89454 5.36694 6.07211 5.14761ZM17.3633 5.14761C19.3542 4.7806 19.316 7.89198 17.3633 7.57105C16.1205 7.36682 16.0805 5.38417 17.3633 5.14761ZM10.5039 22.5014H2.17668C1.83096 22.3968 1.5974 22.1816 1.49918 21.8329V13.4485C1.58144 13.2031 1.77124 12.9169 2.06374 12.8356C2.61635 12.6822 3.51886 12.8078 4.1808 12.8078H8.49972C9.13802 12.8078 10.0669 12.6672 10.645 12.8356C11.4271 13.0635 11.2096 14.478 11.2096 15.4819V19.9108C11.2096 20.9944 11.446 22.4047 10.5039 22.5014ZM3.30576 14.702V20.6908H9.37481V14.6184H3.33403C3.30114 14.6231 3.3034 14.6624 3.30576 14.702ZM22.5008 13.5599V15.8997C22.4349 16.6889 22.4914 17.5988 22.4725 18.4345H16.46V17.0697C15.8954 17.0046 15.2086 17.0603 14.5969 17.0417C14.5311 18.8059 14.5876 20.6908 14.5687 22.5013H13.4678C12.5212 22.3141 12.7904 20.9126 12.7904 19.7995V15.4819C12.7904 14.8326 12.6572 13.8594 12.8186 13.337C13.0111 12.7138 13.8461 12.8078 14.6816 12.8078H18.7746V16.5125H20.6659C20.6847 15.2869 20.6283 13.987 20.6941 12.8078C21.6043 12.7546 22.4473 12.7677 22.5008 13.5599ZM6.21325 16.4289C7.11576 16.3304 7.86187 17.1863 7.51176 18.1281C7.02644 19.4336 4.70606 18.9429 5.14061 17.2924C5.26068 16.8363 5.60768 16.4951 6.21325 16.4289ZM18.4924 22.5014H16.46C16.4788 21.7864 16.4223 20.9972 16.4882 20.3286H18.4924V22.5014ZM22.5008 20.3286V21.7493C22.4222 22.1454 22.1876 22.3873 21.8233 22.5014H20.3836C20.4025 21.7864 20.346 20.9972 20.4119 20.3286H22.5008Z" fill="currentColor" />
</svg>
