<svg viewBox="0 0 24 24" fill="none" xmlns="http://www.w3.org/2000/svg">
    <path
        d="M5.10002 21.6001C3.60886 21.6001 2.40002 20.3913 2.40002 18.9001L2.40002 5.1001C2.40002 3.60893 3.60885 2.4001 5.10002 2.4001L8.10002 2.4001C9.59119 2.4001 10.8 3.60893 10.8 5.1001L10.8 18.9001C10.8 20.3913 9.59119 21.6001 8.10002 21.6001L5.10002 21.6001Z"
        fill="currentColor" />
    <path
        d="M15.9 21.6001C14.4088 21.6001 13.2 20.3913 13.2 18.9001L13.2 15.9001C13.2 14.4089 14.4088 13.2001 15.9 13.2001L18.9 13.2001C20.3912 13.2001 21.6 14.4089 21.6 15.9001L21.6 18.9001C21.6 20.3913 20.3912 21.6001 18.9 21.6001L15.9 21.6001Z"
        fill="currentColor" />
    <path
        d="M15.9 10.8C14.4088 10.8 13.2 9.59122 13.2 8.10005L13.2 5.10005C13.2 3.60888 14.4088 2.40005 15.9 2.40005L18.9 2.40005C20.3912 2.40005 21.6 3.60888 21.6 5.10005L21.6 8.10005C21.6 9.59122 20.3912 10.8 18.9 10.8L15.9 10.8Z"
        fill="currentColor" />
    <path d="M9.59998 18L9.59998 16.8L14.4 16.8L14.4 18L9.59998 18Z" fill="currentColor" />
    <path d="M9.59998 7.19995L9.59998 5.99995L14.4 5.99995L14.4 7.19995L9.59998 7.19995Z" fill="currentColor" />
</svg>