<svg viewBox="0 0 24 24" xmlns="http://www.w3.org/2000/svg">
    <rect width="100%" height="100%" rx="12" fill="inherit" />
    <path fill-rule="evenodd" clip-rule="evenodd"
        d="M15.2265 7.28497C15.4156 7.01287 15.7895 6.94559 16.0616 7.1347C17.6996 8.2731 18.8311 10.0842 19.0606 12.1744C19.0968 12.5038 18.8591 12.8001 18.5297 12.8363C18.2003 12.8725 17.9039 12.6348 17.8678 12.3054C17.6773 10.5706 16.7388 9.06669 15.3768 8.12009C15.1047 7.93098 15.0374 7.55708 15.2265 7.28497Z"
        fill="currentColor" />
    <path fill-rule="evenodd" clip-rule="evenodd"
        d="M8.80753 7.31859C8.99884 7.58916 8.93459 7.96359 8.66402 8.1549C7.31561 9.10832 6.39125 10.6119 6.21451 12.3386C6.18076 12.6682 5.88617 12.9081 5.55653 12.8744C5.22688 12.8406 4.987 12.546 5.02074 12.2164C5.234 10.1331 6.34964 8.32166 7.97123 7.17508C8.24179 6.98377 8.61622 7.04802 8.80753 7.31859Z"
        fill="currentColor" />
    <path fill-rule="evenodd" clip-rule="evenodd"
        d="M8.6083 18.4331C8.75852 18.1377 9.11975 18.0201 9.41511 18.1703C10.2016 18.5704 11.0985 18.7951 12.0456 18.7951C12.9596 18.7951 13.8148 18.5908 14.5805 18.2181C14.8785 18.0731 15.2376 18.1971 15.3826 18.495C15.5276 18.793 15.4036 19.1521 15.1057 19.2971C14.1764 19.7494 13.1416 19.9951 12.0456 19.9951C10.9077 19.9951 9.82456 19.7249 8.87109 19.2399C8.57573 19.0897 8.45807 18.7285 8.6083 18.4331Z"
        fill="currentColor" />
    <path fill-rule="evenodd" clip-rule="evenodd"
        d="M12.0444 5.20488C11.2242 5.20488 10.5594 5.86974 10.5594 6.68988C10.5594 7.51003 11.2242 8.17488 12.0444 8.17488C12.8645 8.17488 13.5294 7.51003 13.5294 6.68988C13.5294 5.86974 12.8645 5.20488 12.0444 5.20488ZM9.35938 6.68988C9.35938 5.207 10.5615 4.00488 12.0444 4.00488C13.5273 4.00488 14.7294 5.207 14.7294 6.68988C14.7294 8.17277 13.5273 9.37488 12.0444 9.37488C10.5615 9.37488 9.35938 8.17277 9.35938 6.68988Z"
        fill="currentColor" />
    <path fill-rule="evenodd" clip-rule="evenodd"
        d="M6.6225 14.3699C5.80236 14.3699 5.1375 15.0348 5.1375 15.8549C5.1375 16.6751 5.80236 17.3399 6.6225 17.3399C7.44264 17.3399 8.1075 16.6751 8.1075 15.8549C8.1075 15.0348 7.44264 14.3699 6.6225 14.3699ZM3.9375 15.8549C3.9375 14.372 5.13962 13.1699 6.6225 13.1699C8.10538 13.1699 9.3075 14.372 9.3075 15.8549C9.3075 17.3378 8.10539 18.5399 6.6225 18.5399C5.13962 18.5399 3.9375 17.3378 3.9375 15.8549Z"
        fill="currentColor" />
    <path fill-rule="evenodd" clip-rule="evenodd"
        d="M17.3784 14.3699C16.5582 14.3699 15.8934 15.0348 15.8934 15.8549C15.8934 16.6751 16.5582 17.3399 17.3784 17.3399C18.1985 17.3399 18.8634 16.6751 18.8634 15.8549C18.8634 15.0348 18.1985 14.3699 17.3784 14.3699ZM14.6934 15.8549C14.6934 14.372 15.8955 13.1699 17.3784 13.1699C18.8612 13.1699 20.0634 14.372 20.0634 15.8549C20.0634 17.3378 18.8612 18.5399 17.3784 18.5399C15.8955 18.5399 14.6934 17.3378 14.6934 15.8549Z"
        fill="currentColor" />
</svg>