<svg xmlns="http://www.w3.org/2000/svg" xmlns:xlink="http://www.w3.org/1999/xlink" x="0px"
  y="0px" viewBox="0 0 16 16" style="enable-background:new 0 0 16 16;" xml:space="preserve">
  <path
    fill="currentColor"
    d="M8,0c2.6,1.2,4.6,1.9,6.2,2c0.3,0,0.6,0.3,0.6,0.6v6C14.2,12.2,12,14.7,8,16c-4-1.3-6.3-3.8-6.8-7.4v-6
    C1.2,2.3,1.5,2,1.8,2C3.4,1.9,5.5,1.2,8,0L8,0z M11.6,5.2C11.4,5,11,5,10.8,5.2L7.1,8.9L5.2,7C5,6.7,4.6,6.7,4.4,7
    c-0.2,0.2-0.2,0.6,0,0.8l2.3,2.3c0.1,0.1,0.3,0.2,0.4,0.2c0.1,0,0.3-0.1,0.4-0.2L11.6,6C11.9,5.8,11.9,5.4,11.6,5.2L11.6,5.2z"
  />
</svg>
