<svg viewBox="0 0 24 24" xmlns="http://www.w3.org/2000/svg">
    <path
        d="M14.17 9.14004H18.79C19.0368 9.16039 19.2677 9.01617 19.3577 8.78541C19.4477 8.55465 19.3754 8.29219 19.18 8.14004L13.63 2.69004C13.4778 2.4946 13.2154 2.42231 12.9846 2.51231C12.7539 2.6023 12.6096 2.8332 12.63 3.08004V7.65004C12.6298 8.05403 12.7936 8.4408 13.0839 8.72171C13.3743 9.00262 13.7662 9.1536 14.17 9.14004Z"
        fill="currentColor" />
    <path fill-rule="evenodd" clip-rule="evenodd"
        d="M14.07 10.24H18.85C19.1261 10.24 19.35 10.4639 19.35 10.74V17.66C19.35 19.8691 17.5591 21.66 15.35 21.66H8.45999C6.25085 21.66 4.45999 19.8691 4.45999 17.66V6.5C4.45999 4.29086 6.25085 2.5 8.45999 2.5H11.13C11.4039 2.50532 11.6247 2.72609 11.63 3V7.78C11.6273 8.42978 11.8829 9.05401 12.3405 9.51535C12.7981 9.97669 13.4202 10.2374 14.07 10.24ZM8.84999 18.28C9.30253 18.5644 9.82551 18.7168 10.36 18.72L10.4 18.67C11.9685 18.67 13.24 17.3985 13.24 15.83C13.24 14.2615 11.9685 12.99 10.4 12.99C8.8315 12.99 7.55999 14.2615 7.55999 15.83C7.56203 16.2914 7.67887 16.745 7.89999 17.15C7.85435 17.1765 7.81088 17.2066 7.76999 17.24L6.70999 18.34C6.50155 18.5566 6.44262 18.8768 6.56025 19.1535C6.67789 19.4301 6.94936 19.6098 7.24999 19.61C7.45499 19.6161 7.65238 19.5321 7.78999 19.38L8.84999 18.28Z"
        fill="currentColor" />
    <path
        d="M10.36 14.5301C9.81306 14.526 9.31774 14.8524 9.10563 15.3565C8.89352 15.8606 9.00654 16.4429 9.39184 16.8311C9.77714 17.2192 10.3586 17.3366 10.8643 17.1282C11.37 16.9199 11.7 16.427 11.7 15.8801C11.7 15.1384 11.1017 14.5356 10.36 14.5301V14.5301Z"
        fill="currentColor" />
</svg>