<svg xmlns="http://www.w3.org/2000/svg" viewBox="0 0 16 16">
  <g id="Layer_2" data-name="Layer 2">
    <g id="Layer_1-2" data-name="Layer 1-2">
      <g id="settings">
        <ellipse fill="currentColor" cx="7.99" cy="8" rx="1.25" ry="1.22" />
        <path
          fill="currentColor"
          d="M15.65,9.67,14.38,9a1.08,1.08,0,0,1-.44-1.48,1.11,1.11,0,0,1,.44-.42l1.27-.72a.67.67,0,0,0,.25-.92L14.24,2.59a.7.7,0,0,0-1-.24h0L12,3.06a1.13,1.13,0,0,1-1.1,0,1.07,1.07,0,0,1-.56-.94V.68A.68.68,0,0,0,9.67,0H6.33a.68.68,0,0,0-.69.68V2.12a1.1,1.1,0,0,1-1.09,1.1A1.11,1.11,0,0,1,4,3.06L2.69,2.35a.69.69,0,0,0-.94.24h0L.09,5.41a.65.65,0,0,0,.24.92h0l1.27.72a1.08,1.08,0,0,1,.44,1.48A1.26,1.26,0,0,1,1.61,9L.34,9.67a.67.67,0,0,0-.26.92h0l1.66,2.82a.7.7,0,0,0,1,.24L4,12.94a1.12,1.12,0,0,1,1.52.37,1,1,0,0,1,.15.57v1.44a.69.69,0,0,0,.7.68H9.66a.68.68,0,0,0,.69-.68V13.88a1.1,1.1,0,0,1,1.09-1.1,1.11,1.11,0,0,1,.59.16l1.26.71a.69.69,0,0,0,.94-.24l1.67-2.82a.67.67,0,0,0-.26-.92ZM8,10.58A2.58,2.58,0,1,1,10.63,8h0A2.63,2.63,0,0,1,8,10.58Z" />
      </g>
    </g>
  </g>
</svg>
