<svg viewBox="0 0 25 24" fill="none" xmlns="http://www.w3.org/2000/svg">
    <path fill-rule="evenodd" clip-rule="evenodd"
        d="M6.83335 0C3.51964 0 0.833351 2.68629 0.833351 6V18C0.833351 21.3137 3.51964 24 6.83335 24H18.8334C22.1471 24 24.8334 21.3137 24.8334 18V6C24.8334 2.68629 22.1471 0 18.8334 0H6.83335ZM14.9648 18.9125C15.1228 19.1011 15.3435 19.2053 15.5725 19.1994C15.8008 19.2006 16.0199 19.0972 16.1803 18.9125C16.5157 18.5307 16.5157 17.9122 16.1803 17.5304L11.3067 12.0018L16.1803 6.47327C16.5157 6.09146 16.5157 5.47294 16.1803 5.09113C16.0206 4.90474 15.8014 4.79962 15.5725 4.79962C15.3436 4.79962 15.1245 4.90474 14.9648 5.09113L9.48335 11.3108C9.14798 11.6926 9.14798 12.3111 9.48335 12.6929L14.9648 18.9125Z"
        fill="currentColor" />
</svg>