<svg viewBox="0 0 24 24" fill="none" xmlns="http://www.w3.org/2000/svg">
  <path fill-rule="evenodd" clip-rule="evenodd"
    d="M19.3999 5.51995L13.5099 2.23995C12.5756 1.72763 11.4443 1.72763 10.5099 2.23995L4.59995 5.51995C3.61053 6.06207 2.99669 7.10176 2.99995 8.22995V14.5799C2.99654 14.8408 3.03365 15.1005 3.10995 15.3499C2.50649 15.9666 2.17206 16.7972 2.17995 17.6599C2.18281 18.549 2.5432 19.3995 3.17995 20.0199L5.49995 22.2299C6.55282 23.2421 8.21707 23.2421 9.26995 22.2299L10.2699 21.32L10.8899 20.7299C11.7651 21.0836 12.7529 21.0249 13.5799 20.57L19.4699 17.2899C20.4293 16.7266 21.0132 15.6924 20.9999 14.5799V8.22995C21.0032 7.10176 20.3894 6.06207 19.3999 5.51995ZM10.4999 18.9999L9.49995 20L9.17995 20.2999L8.17995 21.2199C7.70782 21.6733 6.96207 21.6733 6.48995 21.2199L4.20995 18.9999C3.53705 18.3196 3.49792 17.2371 4.11995 16.5099L4.20995 16.3999C4.93169 15.6817 6.0982 15.6817 6.81995 16.3999L7.35995 16.9399L7.89995 16.3999C8.24201 16.0509 8.71128 15.856 9.19995 15.8599C9.68795 15.8594 10.1559 16.0538 10.4999 16.3999C11.2116 17.1205 11.2116 18.2794 10.4999 18.9999ZM13.2599 11.15L17.6699 8.69995C18.0755 8.47597 18.2231 7.96593 17.9999 7.55995C17.8948 7.35997 17.7117 7.21225 17.494 7.15168C17.2763 7.0911 17.0433 7.12304 16.8499 7.23995L12.4399 9.68995C12.1569 9.83258 11.823 9.83258 11.5399 9.68995L7.12995 7.23995C6.9383 7.12964 6.71022 7.10141 6.49747 7.16166C6.28471 7.22191 6.1053 7.36554 5.99995 7.55995C5.77675 7.96593 5.92439 8.47597 6.32995 8.69995L10.7399 11.15C10.8763 11.2152 11.0166 11.2719 11.1599 11.32V13.58C11.1599 14.0439 11.536 14.4199 11.9999 14.4199C12.4639 14.4199 12.8399 14.0439 12.8399 13.58V11.32C12.9833 11.2719 13.1236 11.2152 13.2599 11.15Z"
    fill="currentColor" />
</svg>
