<svg viewBox="0 0 24 24" fill="none" xmlns="http://www.w3.org/2000/svg">
    <path
        d="M17.5321 16C17.4186 16 17.3122 15.9579 17.2129 15.8737C16.9789 15.6632 16.9293 15.2674 17.1066 14.9895C18.2199 13.2296 18.2199 10.7707 17.1066 9.01073C16.9293 8.73284 16.9789 8.33706 17.2129 8.12654C17.447 7.91602 17.7803 7.97497 17.9575 8.25285C19.3475 10.4591 19.3475 13.5411 17.9575 15.7474C17.8512 15.9158 17.6952 16 17.5321 16Z"
        fill="currentColor" />
    <path
        d="M18.8216 19C18.6464 19 18.4821 18.9517 18.3288 18.8552C17.9674 18.6138 17.8908 18.16 18.1646 17.8414C21.0884 14.4042 21.0884 9.59604 18.1646 6.15886C17.8908 5.84025 17.9674 5.38646 18.3288 5.14509C18.6902 4.90371 19.2049 4.9713 19.4786 5.28991C22.8405 9.2388 22.8405 14.7615 19.4786 18.7104C19.3253 18.9035 19.0735 19 18.8216 19Z"
        fill="currentColor" />
    <path
        d="M13.449 4.34597C12.4448 3.76861 11.1628 3.91761 9.85379 4.76503L7.23586 6.46918C7.05655 6.58093 6.85034 6.64612 6.64414 6.64612H5.81034H5.36207C3.19241 6.64612 2 7.88466 2 10.1382V13.8632C2 16.1168 3.19241 17.3553 5.36207 17.3553H5.81034H6.64414C6.85034 17.3553 7.05655 17.4205 7.23586 17.5322L9.85379 19.2364C10.6428 19.7486 11.4138 20 12.131 20C12.5972 20 13.0455 19.8883 13.449 19.6554C14.4441 19.0781 15 17.8768 15 16.2751V7.72635C15 6.12463 14.4441 4.92334 13.449 4.34597Z"
        fill="currentColor" />
</svg>