<svg viewBox="0 0 24 24" xmlns="http://www.w3.org/2000/svg">
  <path d="M11.9955 2.25C7.02299 2.25 3 6.2775 3 11.25C3 16.2225 7.02299 20.25 11.9955 20.25C16.968 20.25 21 16.2225 21 11.25C21 6.2775 16.968 2.25 11.9955 2.25ZM18.228 7.65001H15.573C15.2805 6.525 14.871 5.445 14.331 4.44602C15.987 5.013 17.364 6.1605 18.228 7.65001ZM12 4.0815C12.7515 5.16149 13.3365 6.36299 13.719 7.64999H10.281C10.6635 6.36299 11.2485 5.16149 12 4.0815ZM5.03399 13.05C4.88549 12.474 4.8 11.871 4.8 11.25C4.8 10.629 4.88549 10.026 5.03399 9.45H8.07149C7.99948 10.0395 7.94999 10.638 7.94999 11.25C7.94999 11.862 7.99948 12.4605 8.07599 13.05H5.03399ZM5.7675 14.85H8.4225C8.715 15.975 9.12451 17.055 9.66451 18.0585C8.00851 17.4915 6.63149 16.3395 5.7675 14.85ZM8.4225 7.65001H5.7675C6.63149 6.16052 8.00851 5.00851 9.66449 4.44152C9.12449 5.445 8.715 6.525 8.4225 7.65001ZM12 18.4185C11.253 17.3385 10.668 16.137 10.281 14.85H13.719C13.332 16.137 12.747 17.3385 12 18.4185ZM14.106 13.05H9.894C9.8085 12.4605 9.75001 11.862 9.75001 11.25C9.75001 10.638 9.8085 10.0395 9.894 9.45H14.106C14.1915 10.0395 14.25 10.638 14.25 11.25C14.25 11.862 14.1915 12.4605 14.106 13.05ZM14.3355 18.054C14.8755 17.0505 15.285 15.975 15.5775 14.85H18.2325C17.364 16.3395 15.987 17.487 14.3355 18.054ZM15.924 13.05C15.996 12.4605 16.05 11.862 16.05 11.25C16.05 10.638 16.0005 10.0395 15.924 9.45H18.9615C19.11 10.026 19.2 10.629 19.2 11.25C19.2 11.871 19.1145 12.474 18.9615 13.05H15.924Z" fill="currentColor" />
  <path d="M21.6436 17.313C21.6436 20.2473 19.2649 22.626 16.3306 22.626C13.3963 22.626 11.0176 20.2473 11.0176 17.313C11.0176 14.3787 13.3963 12 16.3306 12C19.2649 12 21.6436 14.3787 21.6436 17.313Z" fill="inherit" />
  <path d="M19.4444 16.6601C19.4431 16.6473 19.4417 16.6367 19.4397 16.6303V16.6246L19.437 16.609C19.3895 16.3633 19.2362 16.205 19.0455 16.205H19.014C18.6887 16.205 18.425 15.9239 18.425 15.5803C18.425 15.5008 18.4598 15.388 18.4745 15.3482C18.5669 15.1196 18.4685 14.8591 18.2403 14.7263L17.5221 14.2954L17.5087 14.2905C17.4551 14.272 17.3929 14.25 17.3233 14.25C17.1934 14.25 17.0475 14.3139 16.9571 14.4097C16.844 14.5283 16.6144 14.705 16.4779 14.705C16.342 14.705 16.1118 14.529 15.9986 14.4097C15.9023 14.3089 15.7691 14.25 15.6325 14.25C15.5609 14.25 15.5007 14.2713 15.4471 14.2905L15.4351 14.2954L14.6821 14.7278L14.6774 14.7306C14.4946 14.852 14.4203 15.1303 14.5134 15.351L14.5147 15.3539L14.5161 15.3567C14.5308 15.3915 14.5763 15.5093 14.5763 15.6123C14.5763 15.9573 14.3112 16.237 13.9873 16.237H13.9558C13.7564 16.237 13.6071 16.3932 13.5643 16.6438L13.5616 16.658V16.6629C13.5616 16.67 13.5589 16.68 13.5569 16.6927C13.5402 16.7999 13.5 17.0527 13.5 17.2592C13.5 17.4658 13.5395 17.7185 13.5569 17.8257C13.5582 17.8385 13.5596 17.8491 13.5616 17.8555V17.8612L13.5643 17.8768C13.6118 18.1225 13.7651 18.2808 13.9558 18.2808H13.9719C14.2972 18.2808 14.5609 18.5619 14.5609 18.9055C14.5609 18.985 14.5261 19.0978 14.5114 19.1376C14.4224 19.3527 14.5067 19.6288 14.7035 19.768L14.7088 19.7708L15.4183 20.1897L15.4317 20.1946C15.4853 20.2131 15.5462 20.2351 15.6158 20.2351C15.7644 20.2351 15.8982 20.1748 15.9819 20.0754C15.9899 20.069 15.998 20.0605 16.0073 20.0519C16.093 19.9724 16.3233 19.7623 16.4752 19.7623C16.5883 19.7623 16.7778 19.888 16.9685 20.0903C17.0649 20.1911 17.1981 20.25 17.3347 20.25C17.427 20.25 17.4953 20.223 17.5729 20.1826L17.5756 20.1811L18.3032 19.7545L18.3059 19.7517C18.4886 19.6303 18.5629 19.352 18.4699 19.1312L18.4685 19.1284L18.4672 19.1255C18.4658 19.1248 18.4089 18.9992 18.4197 18.8863L18.421 18.8792V18.8721C18.421 18.5271 18.686 18.2474 19.01 18.2474H19.0435C19.2429 18.2474 19.3922 18.0912 19.435 17.8406L19.4377 17.8264V17.8215C19.4391 17.8158 19.4404 17.8073 19.4424 17.7959C19.4598 17.6916 19.5 17.4481 19.5 17.2252C19.5013 17.0193 19.4618 16.7673 19.4444 16.6601V16.6601ZM16.4993 18.2389C15.9846 18.2389 15.5676 17.7966 15.5676 17.2507C15.5676 16.7048 15.9846 16.2625 16.4993 16.2625C17.014 16.2625 17.431 16.7048 17.431 17.2507C17.431 17.7966 17.014 18.2389 16.4993 18.2389V18.2389Z" fill="currentColor" />
</svg>
