<svg viewBox="0 0 24 24" fill="none" xmlns="http://www.w3.org/2000/svg">
  <path d="M12 20.25C16.9705 20.25 21 16.2205 21 11.25C21 6.27952 16.9705 2.25 12 2.25C7.02952 2.25 3 6.27952 3 11.25C3 16.2205 7.02952 20.25 12 20.25ZM8.14777 14.1478L11.325 10.9703V7.2C11.325 7.02098 11.3961 6.84929 11.5227 6.7227C11.6493 6.59612 11.821 6.525 12 6.525C12.179 6.525 12.3507 6.59612 12.4773 6.7227C12.6039 6.84929 12.675 7.02098 12.675 7.2V11.25C12.675 11.429 12.6038 11.6007 12.4772 11.7272L9.10222 15.1022C9.03996 15.1667 8.96547 15.2181 8.88312 15.2535C8.80077 15.2889 8.7122 15.3075 8.62257 15.3083C8.53294 15.309 8.44406 15.292 8.36111 15.258C8.27815 15.2241 8.20279 15.174 8.13941 15.1106C8.07603 15.0472 8.02591 14.9718 7.99197 14.8889C7.95803 14.8059 7.94095 14.7171 7.94173 14.6274C7.94251 14.5378 7.96113 14.4492 7.99651 14.3669C8.03188 14.2845 8.08331 14.21 8.14777 14.1478V14.1478Z" fill="currentColor" />
  <path d="M12.5783 17.1903C12.2228 15.4162 12.0451 14.5292 12.3492 13.895C12.6533 13.2608 13.3205 13.1271 14.6548 12.8597L18.7181 12.0455C20.0525 11.7782 20.7197 11.6445 21.2446 12.1126C21.7696 12.5806 21.9473 13.4677 22.3028 15.2418L22.6451 16.9501C23.0006 18.7242 23.1784 19.6113 22.8743 20.2455C22.5702 20.8797 21.903 21.0134 20.5686 21.2808L16.5053 22.0949C15.171 22.3623 14.5038 22.496 13.9788 22.0279C13.4538 21.5598 13.2761 20.6728 12.9206 18.8987L12.5783 17.1903Z" fill="inherit" />
  <path d="M14.4258 14.8269L19.4563 13.8189L19.5796 14.4346L14.5491 15.4425L14.4258 14.8269Z" fill="currentColor" />
  <path d="M14.9746 17.2788L19.9519 16.2815L20.0753 16.8972L15.098 17.8945L14.9746 17.2788Z" fill="currentColor" />
  <path d="M15.457 19.7436L17.9253 19.249L18.0486 19.8647L15.5804 20.3592L15.457 19.7436Z" fill="currentColor" />
</svg>
