<svg version="1.1"  xmlns="http://www.w3.org/2000/svg" xmlns:xlink="http://www.w3.org/1999/xlink" x="0px" y="0px"
   viewBox="0 0 16 16" style="enable-background:new 0 0 16 16;" xml:space="preserve">

<path fill="currentColor" d="M8,0C3.6,0,0,3.6,0,8s3.6,8,8,8s8-3.6,8-8S12.4,0,8,0z M13.5,9l-4,2.6c-0.2,0.2-0.6,0.1-0.6-0.2v-1.1c0-0.2-0.2-0.3-0.4-0.4
  H2.6C2.4,9.8,2.3,9.7,2.3,9.6V8.8c0-0.2,0.2-0.3,0.4-0.4h10.6C13.5,8.5,13.6,8.8,13.5,9C13.5,9,13.5,9,13.5,9L13.5,9z M13.7,7.2
  c0,0.2-0.2,0.3-0.4,0.3H2.6C2.4,7.5,2.3,7.3,2.4,7.1c0,0,0,0,0-0.1l4-2.6C6.6,4.3,7,4.3,7,4.6v1.2C7,6,7.2,6.2,7.4,6.2h5.9
  c0.2,0,0.4,0.2,0.4,0.3L13.7,7.2z"/>
<circle fill="currentColor" cx="8" cy="8" r="8"/>
<g>
  <path fill="inherit" d="M13.2,8.4H2.7c-0.2,0-0.3,0.2-0.4,0.4v0.8c0,0.2,0.1,0.3,0.3,0.3h5.9c0.2,0,0.3,0.2,0.4,0.4v1.1
    c0,0.3,0.4,0.4,0.6,0.2l4-2.6v0c0,0,0,0,0-0.1C13.5,8.8,13.4,8.5,13.2,8.4z"/>
  <path fill="inherit" class="st0" d="M13.6,6.5c0-0.2-0.2-0.3-0.4-0.3H7.3C7.1,6.2,7,6,6.9,5.8V4.6c0-0.3-0.4-0.3-0.6-0.2L2.4,7c0,0,0,0,0,0.1
    c-0.1,0.2,0,0.4,0.2,0.5h10.7c0.2,0,0.3-0.2,0.4-0.3L13.6,6.5z"/>
</g>
</svg>
