<svg viewBox="0 0 40 40" xmlns="http://www.w3.org/2000/svg">
    <rect width="40" height="40" rx="20" fill="currentColor" />
    <path
        d="M31.2793 12.6196C30.5544 12.9315 29.7923 13.1488 29.0118 13.2659C29.3767 13.2034 29.9136 12.5466 30.1273 12.2807C30.452 11.8797 30.6994 11.422 30.8571 10.9307C30.8571 10.8942 30.8936 10.8421 30.8571 10.816C30.8387 10.806 30.8181 10.8007 30.7971 10.8007C30.7762 10.8007 30.7556 10.806 30.7372 10.816C29.8897 11.2749 28.9878 11.6252 28.0527 11.8585C28.0201 11.8685 27.9854 11.8694 27.9524 11.8611C27.9193 11.8528 27.8891 11.8357 27.865 11.8116C27.7923 11.7249 27.7139 11.6431 27.6305 11.5666C27.2491 11.2249 26.8164 10.9452 26.3482 10.7378C25.7162 10.4785 25.0335 10.3662 24.3517 10.4094C23.6902 10.4512 23.0444 10.6286 22.4544 10.9307C21.8733 11.2491 21.3627 11.6817 20.9531 12.2025C20.5223 12.7386 20.2113 13.3607 20.0409 14.027C19.9005 14.6607 19.8845 15.3158 19.994 15.9556C19.994 16.0651 19.994 16.0807 19.9002 16.0651C16.1836 15.5178 13.1342 14.199 10.6426 11.3685C10.5331 11.2434 10.4758 11.2434 10.3872 11.3685C9.30297 13.0157 9.82944 15.622 11.1847 16.9095C11.3672 17.0815 11.5548 17.2483 11.7529 17.4047C11.1315 17.3606 10.5253 17.1922 9.97018 16.9095C9.86593 16.8418 9.80859 16.8782 9.80338 17.0033C9.7886 17.1768 9.7886 17.3512 9.80338 17.5246C9.91214 18.3558 10.2397 19.1432 10.7526 19.8063C11.2655 20.4694 11.9453 20.9843 12.7224 21.2985C12.9119 21.3797 13.1093 21.4408 13.3115 21.481C12.7362 21.5942 12.1462 21.6118 11.5652 21.5331C11.4401 21.507 11.3932 21.5748 11.4401 21.6947C12.2064 23.7797 13.8692 24.4157 15.089 24.7701C15.2558 24.7962 15.4226 24.7962 15.6102 24.8379C15.6102 24.8379 15.6102 24.8379 15.5789 24.8692C15.2193 25.526 13.765 25.969 13.0977 26.1984C11.8799 26.6358 10.5815 26.803 9.29254 26.6884C9.08925 26.6571 9.04234 26.6623 8.99021 26.6884C8.93809 26.7144 8.99021 26.7718 9.04755 26.8239C9.30818 26.9959 9.56881 27.1471 9.83987 27.293C10.6468 27.7332 11.4999 28.0828 12.3836 28.3355C16.9603 29.597 22.1103 28.6692 25.5454 25.2549C28.2456 22.5756 29.1943 18.8799 29.1943 15.1789C29.1943 15.0382 29.3663 14.9548 29.4653 14.8818C30.1484 14.3496 30.7507 13.721 31.2532 13.0157C31.3403 12.9106 31.3849 12.7767 31.3783 12.6404C31.3783 12.5622 31.3783 12.5779 31.2793 12.6196Z"
        fill="inherit" />
</svg>