<svg viewBox="0 0 24 24" fill="none" xmlns="http://www.w3.org/2000/svg">
<path d="M7.55556 10.2014H19.1111C19.3469 10.2014 19.573 10.2962 19.7397 10.4649C19.9064 10.6337 20 10.8626 20 11.1013V20.1001C20 20.3388 19.9064 20.5677 19.7397 20.7364C19.573 20.9052 19.3469 21 19.1111 21H4.88889C4.65314 21 4.42705 20.9052 4.26035 20.7364C4.09365 20.5677 4 20.3388 4 20.1001V11.1013C4 10.8626 4.09365 10.6337 4.26035 10.4649C4.42705 10.2962 4.65314 10.2014 4.88889 10.2014H5.77778V9.30148C5.77727 7.88209 6.25029 6.50413 7.12017 5.39097C7.99004 4.2778 9.20578 3.49468 10.5703 3.16854C11.9348 2.84241 13.3682 2.99238 14.638 3.59414C15.9078 4.19591 16.9396 5.21419 17.5662 6.48394L15.976 7.28844C15.5284 6.38137 14.7914 5.65392 13.8843 5.22405C12.9772 4.79417 11.9533 4.68707 10.9786 4.92009C10.0038 5.15312 9.1354 5.71262 8.5141 6.50788C7.89279 7.30314 7.55502 8.28754 7.55556 9.30148V10.2014ZM10.2222 14.7008V16.5006H13.7778V14.7008H10.2222Z" fill="currentColor"/>
</svg>
