<svg viewBox="0 0 24 24" fill="none" xmlns="http://www.w3.org/2000/svg">
  <path fill-rule="evenodd" clip-rule="evenodd" d="M12.6799 3.08V7.65C12.6799 8.4729 13.347 9.14 14.1699 9.14H18.7899C19.0443 9.1788 19.2917 9.03593 19.3852 8.79613C19.4787 8.55632 19.3934 8.28372 19.1799 8.14L13.6299 2.64C13.4636 2.47748 13.2141 2.43464 13.0031 2.53237C12.7921 2.6301 12.6635 2.84805 12.6799 3.08ZM7.16004 15.522C7.56807 14.5343 8.53133 13.89 9.60002 13.89C10.2993 13.8873 10.9708 14.1632 11.4662 14.6567C11.9616 15.1502 12.24 15.8207 12.24 16.52C12.2441 17.5887 11.6034 18.5544 10.6173 18.9661C9.63108 19.3779 8.49393 19.1545 7.73682 18.4003C6.97971 17.646 6.75201 16.5097 7.16004 15.522ZM9.51002 17.89L10.22 17.18C10.3607 17.0395 10.4398 16.8488 10.44 16.65V15.24C10.44 14.8258 10.1042 14.49 9.69002 14.49C9.49029 14.4873 9.29794 14.5654 9.15669 14.7066C9.01545 14.8479 8.9373 15.0402 8.94002 15.24V16.34L8.45002 16.83C8.15757 17.1228 8.15757 17.5972 8.45002 17.89C8.74284 18.1824 9.2172 18.1824 9.51002 17.89ZM18.86 10.24H14.08C13.4302 10.2374 12.8081 9.97669 12.3505 9.51535C11.8929 9.05401 11.6373 8.42978 11.64 7.78V3C11.6347 2.72609 11.4139 2.50532 11.14 2.5H8.46997C6.26083 2.5 4.46997 4.29086 4.46997 6.5V17.66C4.46997 19.8691 6.26083 21.66 8.46997 21.66H15.36C17.5691 21.66 19.36 19.8691 19.36 17.66V10.74C19.36 10.4639 19.1361 10.24 18.86 10.24ZM9.59997 20.66C7.31351 20.66 5.45997 18.8065 5.45997 16.52C5.45997 14.2335 7.31351 12.38 9.59997 12.38C11.8864 12.38 13.74 14.2335 13.74 16.52C13.7426 17.6188 13.3073 18.6734 12.5303 19.4504C11.7534 20.2273 10.6988 20.6627 9.59997 20.66Z" fill="currentColor" />
  <rect x="5" y="11" width="10" height="8" fill="currentColor" />
  <rect x="6" y="13" width="10" height="7" fill="currentColor" />
  <rect x="7" y="14" width="10" height="7" fill="currentColor" />
  <path d="M8.5 14L7 16.5H9.5L8.5 19" stroke="white" stroke-width="1.2" stroke-linecap="round" stroke-linejoin="round" />
</svg>
