<svg xmlns="http://www.w3.org/2000/svg" viewBox="0 0 16 16">
  <path
    d="M2.57,9.73a.89.89,0,0,1-.91-.87h0V3.13A1.51,1.51,0,0,1,3.18,1.66H6.51a.89.89,0,0,1,.91.87h0V8.85a.89.89,0,0,1-.9.88H2.57ZM13.43,7.42H9.49a.9.9,0,0,1-.91-.89v-4a.91.91,0,0,1,.91-.91h3.33a1.52,1.52,0,0,1,1.52,1.52h0V6.51a.9.9,0,0,1-.89.91h0M3.18,14.34a1.52,1.52,0,0,1-1.52-1.5h0V11.79a.91.91,0,0,1,.91-.91H6.51a.91.91,0,0,1,.91.91v1.65a.9.9,0,0,1-.9.9H3.18Zm9.64,0H9.49a.91.91,0,0,1-.91-.91V9.49a.9.9,0,0,1,.89-.91h4a.9.9,0,0,1,.91.89v3.35a1.52,1.52,0,0,1-1.52,1.52h0" />
</svg>
