<svg viewBox="0 0 24 24" fill="none" xmlns="http://www.w3.org/2000/svg">
    <path
        d="M3.94953 11.47L10.9495 4.47C11.1425 4.28243 11.4208 4.21204 11.6797 4.28533C11.9386 4.35863 12.1387 4.56447 12.2047 4.82533C12.2707 5.08619 12.1925 5.36243 11.9995 5.55L6.28953 11.25H19.5195C19.9337 11.25 20.2695 11.5858 20.2695 12C20.2695 12.4142 19.9337 12.75 19.5195 12.75H6.29953L11.9995 18.45C12.1425 18.5893 12.2231 18.7804 12.2231 18.98C12.2231 19.1796 12.1425 19.3707 11.9995 19.51C11.8617 19.6546 11.6693 19.7345 11.4695 19.73C11.2705 19.7309 11.0794 19.6516 10.9395 19.51L3.93953 12.51C3.64708 12.2172 3.64708 11.7428 3.93953 11.45L3.94953 11.47Z"
        fill="currentColor" />
</svg>