<svg viewBox="0 0 24 24" fill="none" xmlns="http://www.w3.org/2000/svg">
  <path
    d="M15.28 14.94H6.28002L9.69002 11.53C9.9855 11.2373 9.98773 10.7605 9.69502 10.465C9.40231 10.1695 8.9255 10.1673 8.63002 10.46L4.00002 15.15C3.93193 15.2229 3.87771 15.3076 3.84002 15.4C3.77004 15.5836 3.77004 15.7865 3.84002 15.97C3.87771 16.0624 3.93193 16.1471 4.00002 16.22L8.69002 20.91C8.83287 21.0472 9.02203 21.1257 9.22002 21.13C9.41887 21.1298 9.60951 21.0507 9.75002 20.91C9.89297 20.7707 9.97359 20.5796 9.97359 20.38C9.97359 20.1804 9.89297 19.9893 9.75002 19.85L6.31002 16.44H15.31C15.7242 16.44 16.06 16.1042 16.06 15.69C16.06 15.2758 15.7242 14.94 15.31 14.94H15.28Z"
    fill="currentColor" />
  <path
    d="M20.19 6.00001C20.1403 5.91594 20.0759 5.84144 20 5.78001L15.34 1.09001C15.0472 0.797553 14.5728 0.797553 14.28 1.09001C14.1371 1.22929 14.0564 1.42042 14.0564 1.62001C14.0564 1.81959 14.1371 2.01072 14.28 2.15001L17.69 5.57001H8.69C8.27579 5.57001 7.94 5.90579 7.94 6.32001C7.94 6.73422 8.27579 7.07001 8.69 7.07001H17.69L14.28 10.48C14.1371 10.6193 14.0564 10.8104 14.0564 11.01C14.0564 11.2096 14.1371 11.4007 14.28 11.54C14.4205 11.6807 14.6112 11.7598 14.81 11.76C15.008 11.7557 15.1972 11.6772 15.34 11.54L20 6.85001C20.0681 6.7771 20.1223 6.69238 20.16 6.60001C20.2476 6.4115 20.2583 6.19631 20.19 6.00001Z"
    fill="currentColor" />
</svg>
