<svg viewBox="0 0 24 24" fill="none" xmlns="http://www.w3.org/2000/svg">
  <path
    d="M5.44418 16.5341C5.36387 16.4561 5.26917 16.3949 5.16552 16.3541C4.95993 16.2684 4.72933 16.2684 4.52375 16.3541C4.42009 16.3949 4.32539 16.4561 4.24508 16.5341C4.1682 16.6156 4.10794 16.7118 4.06775 16.817C4.00308 16.9731 3.98542 17.1451 4.01698 17.3114C4.04854 17.4776 4.12791 17.6307 4.24508 17.7512C4.32716 17.8269 4.42141 17.8878 4.52375 17.9312C4.62482 17.9766 4.73412 18 4.84463 18C4.95514 18 5.06444 17.9766 5.16552 17.9312C5.26785 17.8878 5.3621 17.8269 5.44418 17.7512C5.56135 17.6307 5.64073 17.4776 5.67229 17.3114C5.70385 17.1451 5.68618 16.9731 5.62151 16.817C5.58132 16.7118 5.52106 16.6156 5.44418 16.5341ZM8.22237 7.71426H19.1556C19.3795 7.71426 19.5943 7.62395 19.7527 7.46321C19.911 7.30247 20 7.08445 20 6.85713C20 6.6298 19.911 6.41179 19.7527 6.25105C19.5943 6.0903 19.3795 6 19.1556 6H8.22237C7.99841 6 7.78363 6.0903 7.62526 6.25105C7.4669 6.41179 7.37794 6.6298 7.37794 6.85713C7.37794 7.08445 7.4669 7.30247 7.62526 7.46321C7.78363 7.62395 7.99841 7.71426 8.22237 7.71426ZM5.44418 11.3913C5.32543 11.2724 5.17464 11.1918 5.01083 11.1598C4.84702 11.1278 4.67753 11.1457 4.52375 11.2113C4.42141 11.2547 4.32716 11.3156 4.24508 11.3913C4.1682 11.4729 4.10794 11.569 4.06775 11.6742C4.02308 11.7768 4 11.8877 4 11.9999C4 12.1121 4.02308 12.223 4.06775 12.3256C4.11051 12.4295 4.17049 12.5251 4.24508 12.6085C4.32716 12.6842 4.42141 12.7451 4.52375 12.7885C4.62482 12.8338 4.73412 12.8572 4.84463 12.8572C4.95514 12.8572 5.06444 12.8338 5.16552 12.7885C5.26785 12.7451 5.3621 12.6842 5.44418 12.6085C5.51877 12.5251 5.57875 12.4295 5.62151 12.3256C5.66619 12.223 5.68926 12.1121 5.68926 11.9999C5.68926 11.8877 5.66619 11.7768 5.62151 11.6742C5.58132 11.569 5.52106 11.4729 5.44418 11.3913ZM19.1556 11.1428H8.22237C7.99841 11.1428 7.78363 11.2331 7.62526 11.3938C7.4669 11.5546 7.37794 11.7726 7.37794 11.9999C7.37794 12.2272 7.4669 12.4452 7.62526 12.606C7.78363 12.7667 7.99841 12.857 8.22237 12.857H19.1556C19.3795 12.857 19.5943 12.7667 19.7527 12.606C19.911 12.4452 20 12.2272 20 11.9999C20 11.7726 19.911 11.5546 19.7527 11.3938C19.5943 11.2331 19.3795 11.1428 19.1556 11.1428ZM5.44418 6.24857C5.36387 6.17053 5.26917 6.10936 5.16552 6.06857C5.01174 6.00293 4.84225 5.985 4.67843 6.01703C4.51462 6.04907 4.36383 6.12963 4.24508 6.24857C4.17049 6.33188 4.11051 6.42755 4.06775 6.53142C4.02308 6.63402 4 6.74496 4 6.85713C4 6.9693 4.02308 7.08024 4.06775 7.18284C4.11051 7.28671 4.17049 7.38238 4.24508 7.46569C4.32716 7.5414 4.42141 7.60228 4.52375 7.64569C4.67753 7.71133 4.84702 7.72926 5.01083 7.69722C5.17464 7.66519 5.32543 7.58462 5.44418 7.46569C5.51877 7.38238 5.57875 7.28671 5.62151 7.18284C5.66619 7.08024 5.68926 6.9693 5.68926 6.85713C5.68926 6.74496 5.66619 6.63402 5.62151 6.53142C5.57875 6.42755 5.51877 6.33188 5.44418 6.24857ZM19.1556 16.2855H8.22237C7.99841 16.2855 7.78363 16.3758 7.62526 16.5366C7.4669 16.6973 7.37794 16.9153 7.37794 17.1427C7.37794 17.37 7.4669 17.588 7.62526 17.7488C7.78363 17.9095 7.99841 17.9998 8.22237 17.9998H19.1556C19.3795 17.9998 19.5943 17.9095 19.7527 17.7488C19.911 17.588 20 17.37 20 17.1427C20 16.9153 19.911 16.6973 19.7527 16.5366C19.5943 16.3758 19.3795 16.2855 19.1556 16.2855Z"
    fill="currentColor" />
</svg>
