<svg viewBox="0 0 24 24" fill="none" xmlns="http://www.w3.org/2000/svg">
  <path
    d="M9.99 17.98C14.4028 17.98 17.98 14.4028 17.98 9.99C17.98 5.57724 14.4028 2 9.99 2C5.57724 2 2 5.57724 2 9.99C2 14.4028 5.57724 17.98 9.99 17.98Z"
    stroke="currentColor" stroke-width="1.5" stroke-linecap="round" stroke-linejoin="round" />
  <path
    d="M12.98 19.88C13.88 21.15 15.35 21.98 17.03 21.98C19.76 21.98 21.98 19.76 21.98 17.03C21.98 15.37 21.16 13.9 19.91 13"
    stroke="currentColor" stroke-width="1.5" stroke-linecap="round" stroke-linejoin="round" />
  <circle cx="9.94995" cy="6.25" r="1.75" fill="currentColor" />
  <circle cx="6.25" cy="12.25" r="1.75" fill="currentColor" />
  <circle cx="13.75" cy="12.25" r="1.75" fill="currentColor" />
  <path d="M6.5 12L10 6L13.5 12H6.5Z" stroke="currentColor" stroke-width="1.5" />
</svg>