<svg viewBox="0 0 24 24" xmlns="http://www.w3.org/2000/svg">
	<path fill-rule="evenodd" clip-rule="evenodd"
		d="M19 17.5H5V19.5C5 19.7761 5.22386 20 5.5 20H18.5C18.7761 20 19 19.7761 19 19.5V17.5ZM3.5 16V19.5C3.5 20.6046 4.39543 21.5 5.5 21.5H18.5C19.6046 21.5 20.5 20.6046 20.5 19.5V16H3.5Z"
		fill="currentColor" />
	<path fill-rule="evenodd" clip-rule="evenodd"
		d="M18.5 4H5.5C5.22386 4 5 4.22386 5 4.5V16H19V4.5C19 4.22386 18.7761 4 18.5 4ZM5.5 2.5C4.39543 2.5 3.5 3.39543 3.5 4.5V16.5C3.5 17.0523 3.94772 17.5 4.5 17.5H19.5C20.0523 17.5 20.5 17.0523 20.5 16.5V4.5C20.5 3.39543 19.6046 2.5 18.5 2.5H5.5Z"
		fill="currentColor" />
	<path fill-rule="evenodd" clip-rule="evenodd"
		d="M9 2.75C9.41421 2.75 9.75 3.08579 9.75 3.5V9.09861L11.584 7.87596C11.8359 7.70801 12.1641 7.70801 12.416 7.87596L14.25 9.09861V3.5C14.25 3.08579 14.5858 2.75 15 2.75C15.4142 2.75 15.75 3.08579 15.75 3.5V10.5C15.75 10.7766 15.5978 11.0307 15.3539 11.1613C15.11 11.2918 14.8141 11.2775 14.584 11.124L12 9.40139L9.41603 11.124C9.18588 11.2775 8.88997 11.2918 8.64611 11.1613C8.40224 11.0307 8.25 10.7766 8.25 10.5V3.5C8.25 3.08579 8.58579 2.75 9 2.75Z"
		fill="currentColor" />
</svg>