<svg xmlns="http://www.w3.org/2000/svg" viewBox="0 0 16 16">
  <path
    fill="currentColor"
    d="M15.31,4.19a.34.34,0,0,0-.05-.14L13.67,1.24a1.63,1.63,0,0,0-1.39-.8H3.72a1.61,1.61,0,0,0-1.39.81l-1.7,3a.09.09,0,0,1,0,0,.36.36,0,0,0,0,.11s0,0,0,0a1.53,1.53,0,0,0-.07.36v9.5a1.25,1.25,0,0,0,1.25,1.25h12.5a1.25,1.25,0,0,0,1.25-1.25V4.81A1.19,1.19,0,0,0,15.31,4.19ZM12.8,1.74l1,1.82H11.18l-.92-2.12h2A.6.6,0,0,1,12.8,1.74ZM5.67,4.56h4.66V8.18L8.26,6.89a.49.49,0,0,0-.52,0L5.67,8.18Zm3.5-3.12.92,2.12H5.91l.92-2.12Zm-6,.3a.62.62,0,0,1,.52-.3h2L4.82,3.56H2.18ZM14.5,14.31a.25.25,0,0,1-.25.25H1.75a.25.25,0,0,1-.25-.25V4.81a.25.25,0,0,1,.25-.25H4.67V9.08a.51.51,0,0,0,.26.44.5.5,0,0,0,.5,0L8,7.91l2.57,1.6a.48.48,0,0,0,.26.07.48.48,0,0,0,.24-.06.51.51,0,0,0,.26-.44V4.56h2.92a.25.25,0,0,1,.25.25Z" />
  <path fill="currentColor" d="M6.38,11.56H3a.5.5,0,0,0,0,1H6.38a.5.5,0,1,0,0-1Z" />
</svg>
