<svg viewBox="0 0 24 24" xmlns="http://www.w3.org/2000/svg">
  <path
    d="M21.72 11.5723H18.84C18.1124 11.5688 17.4136 11.8569 16.9 12.3723L12.48 16.7923V7.24234C12.4769 6.73659 12.1693 6.28255 11.7008 6.09207C11.2323 5.9016 10.6951 6.01223 10.34 6.37234L5.51 11.2023C5.27537 11.4406 4.95442 11.5741 4.62 11.5723H1.75C1.33579 11.5723 1 11.9081 1 12.3223C1 12.7366 1.33579 13.0723 1.75 13.0723H4.62C5.36939 13.0873 6.09219 12.7945 6.62 12.2623L10.96 7.85234V17.4023C10.959 17.9066 11.2634 18.3612 11.73 18.5523C11.8812 18.6189 12.0448 18.653 12.21 18.6523C12.5412 18.6525 12.8584 18.5191 13.09 18.2823L17.96 13.4323C18.1945 13.2011 18.5107 13.0717 18.84 13.0723H21.72C22.1342 13.0723 22.47 12.7366 22.47 12.3223C22.47 11.9081 22.1342 11.5723 21.72 11.5723Z"
    fill="currentColor" />
</svg>
