<svg viewBox="0 0 24 24" xmlns="http://www.w3.org/2000/svg">
  <path
    d="M5.40005 2.27502H18.4C19.836 2.27502 21 3.43908 21 4.87502V7.04169C21 8.47763 19.836 9.64169 18.4 9.64169V8.12503C18.9984 8.12503 19.4834 7.64 19.4834 7.04169V4.87502C19.4834 4.27672 18.9984 3.79169 18.4 3.79169H5.40005C4.80174 3.79169 4.31672 4.27672 4.31672 4.87502V7.04169C4.31672 7.64 4.80174 8.12503 5.40005 8.12503V9.64169C3.96411 9.64169 2.80005 8.47763 2.80005 7.04169V4.87502C2.80005 3.43908 3.96411 2.27502 5.40005 2.27502Z"
    fill="currentColor" />
  <rect fill="white" x="5.7834" y="6.25837" width="12.2333" height="16.5667" rx="1.7" stroke="currentColor"
    stroke-width="1.4" />
  <path d="M8.65002 6.95837L8.65003 22.125" stroke="currentColor" stroke-width="1.4" />
  <mask id="path-4-inside-1_655_1717" fill="white">
    <rect x="11.9" y="15.625" width="4.33333" height="5.41667" rx="1" />
  </mask>
  <rect fill="white" x="11.9" y="15.625" width="4.33333" height="5.41667" rx="1" stroke="currentColor"
    stroke-width="2.8" mask="url(#path-4-inside-1_655_1717)" />
</svg>
