<svg version="1.1"  xmlns="http://www.w3.org/2000/svg" xmlns:xlink="http://www.w3.org/1999/xlink" x="0px"
	y="0px" viewBox="0 0 16 16" style="enable-background:new 0 0 16 16;" xml:space="preserve">
	<path fill="currentColor" d="M7.1,12.9c0,0.5,0.4,0.9,0.9,0.9c0.5,0,0.9-0.4,0.9-0.9C8.9,12.4,8.5,12,8,12C7.5,12,7.1,12.4,7.1,12.9z" />
	<path fill="currentColor" d="M8,16c-4.4,0-8-3.6-8-8s3.6-8,8-8s8,3.6,8,8S12.4,16,8,16z M8,1.1C4.2,1.1,1.1,4.2,1.1,8c0,3.8,3.1,6.9,6.9,6.9
	c3.8,0,6.9-3.1,6.9-6.9C14.9,4.2,11.8,1.1,8,1.1z" />
	<path fill="currentColor" d="M8,10.9c-0.3,0-0.6-0.3-0.6-0.6v-1c0-0.9,0.7-1.6,1.3-2.3c0.5-0.5,0.9-0.9,0.9-1.3C9.7,4.8,8.9,4,8,4C7,4,6.3,4.8,6.3,5.7
	C6.3,6,6,6.3,5.7,6.3C5.4,6.3,5.1,6,5.1,5.7c0-1.6,1.3-2.8,2.9-2.8s2.9,1.3,2.9,2.9c0,0.9-0.6,1.5-1.3,2.1c-0.5,0.5-1,1-1,1.5v1
	C8.6,10.6,8.3,10.9,8,10.9z" />
</svg>
