<svg version="1.1" xmlns="http://www.w3.org/2000/svg" xmlns:xlink="http://www.w3.org/1999/xlink" x="0px" y="0px"
  viewBox="0 0 16 16" style="enable-background:new 0 0 16 16;" xml:space="preserve">
  <path fill="currentColor" d="M12.3,10.1H4.2c-0.3,0-0.6,0.2-0.6,0.6c0,0.3,0.2,0.6,0.6,0.6h8.1c0.3,0,0.6-0.2,0.6-0.6C12.8,10.3,12.6,10.1,12.3,10.1z
   M12.3,3.6H4.2c-0.3,0-0.6,0.2-0.6,0.6s0.2,0.6,0.6,0.6h8.1c0.3,0,0.6-0.2,0.6-0.6C12.8,3.8,12.6,3.6,12.3,3.6z M12.3,6.9H4.2
  c-0.3,0-0.6,0.2-0.6,0.6S3.8,8,4.2,8h8.1c0.3,0,0.6-0.2,0.6-0.6C12.8,7.1,12.6,6.9,12.3,6.9z" />
  <path fill="currentColor" d="M14.2,0h-12C1.5,0,0.9,0.6,0.9,1.4v13.1c0,0.5,0.3,0.9,0.8,1c0.1,0,0.2,0.1,0.3,0.1C2.8,15.8,3.9,16,4.7,16
  c1.5,0,2.2-0.7,3.4-0.7s2.2,0.7,3.6,0.7c0.8,0,1.7-0.2,2.4-0.4c0.2,0,0.3-0.1,0.5-0.1c0.5-0.1,0.8-0.6,0.8-1V1.2
  C15.4,0.5,14.9,0,14.2,0L14.2,0z M11.8,15c-1.6,0-2.3-0.8-3.5-0.8C7,14.3,6.4,15,4.7,15c-0.6,0-1.2-0.1-1.9-0.2
  C2.4,14.7,2,14.2,2,13.7v-12C2,1.3,2.3,1,2.8,1h10.8c0.4,0,0.8,0.3,0.8,0.8v12c0,0.5-0.4,1-0.9,1.1C12.9,14.9,12.3,15,11.8,15
  L11.8,15z" />
</svg>
