<svg version="1.1"  xmlns="http://www.w3.org/2000/svg" xmlns:xlink="http://www.w3.org/1999/xlink" x="0px" y="0px"
	 viewBox="0 0 16 16" style="enable-background:new 0 0 16 16;" xml:space="preserve">
<g>
	<path fill="currentColor" d="M8,0C3.6,0,0,3.6,0,8c0,4.4,3.6,8,8,8v0c4.4,0,8-3.6,8-8S12.4,0,8,0z M8,14.9c-3.8,0-6.9-3.1-6.9-6.9
		c0-3.8,3.1-6.9,6.9-6.9c3.8,0,6.9,3.1,6.9,6.9C14.9,11.8,11.8,14.9,8,14.9z"/>
	<path fill="currentColor" d="M10.7,5.3C10.5,5,10.2,5,9.9,5.3L8,7.2L6.1,5.3C5.8,5,5.5,5,5.3,5.3C5,5.5,5,5.8,5.3,6.1L7.2,8L5.3,9.9
		c-0.3,0.3-0.3,0.5,0,0.8c0.3,0.3,0.5,0.3,0.8,0L8,8.8l1.9,1.9c0.3,0.3,0.5,0.3,0.8,0c0.3-0.3,0.3-0.5,0-0.8L8.8,8l1.9-1.9
		C11,5.8,11,5.5,10.7,5.3z"/>
</g>
</svg>
