<svg xmlns="http://www.w3.org/2000/svg" viewBox="0 0 16 16">
  <path
    fill="currentColor"
    d="M12,13.78H3.79A3.6,3.6,0,0,1,0,10.41,3.57,3.57,0,0,1,3.46,6.72,4.55,4.55,0,0,1,7.77,2.23a4.58,4.58,0,0,1,4.88,3.9A3.86,3.86,0,0,1,16,10.23a3.92,3.92,0,0,1-4,3.55ZM4.27,12.49H12a2.65,2.65,0,0,0,2.28-1.28,2.5,2.5,0,0,0,0-2.56A2.64,2.64,0,0,0,12,7.36a.69.69,0,0,1-.47-.18.66.66,0,0,1-.19-.46,3.24,3.24,0,0,0-3.29-3.2,3.25,3.25,0,0,0-3.3,3.2v.14a3.55,3.55,0,0,1,2.64,3.39.63.63,0,0,1-.33.55.65.65,0,0,1-.66,0,.63.63,0,0,1-.33-.55A2.28,2.28,0,0,0,3.8,8a2.25,2.25,0,1,0,0,4.49h.47Z" />
  </svg>
