<svg viewBox="0 0 24 24" fill="none" xmlns="http://www.w3.org/2000/svg">
  <rect x="3.7" y="3.7" width="16.6" height="16.6" rx="8.3" stroke="currentColor" stroke-width="1.4" />
  <path
    d="M7.99498 12.1518C7.72161 11.8785 7.72161 11.4353 7.99497 11.1619C8.26834 10.8885 8.71156 10.8885 8.98492 11.1619L11.6719 13.8489C11.9453 14.1223 11.9453 14.5655 11.6719 14.8388C11.3986 15.1122 10.9553 15.1122 10.682 14.8388L7.99498 12.1518Z"
    fill="currentColor" />
  <path
    d="M15.4903 9.32341C15.7637 9.05004 16.2069 9.05004 16.4803 9.32341C16.7536 9.59678 16.7536 10.04 16.4803 10.3134L11.8134 14.9803C11.54 15.2536 11.0968 15.2536 10.8234 14.9803C10.55 14.7069 10.55 14.2637 10.8234 13.9903L15.4903 9.32341Z"
    fill="currentColor" />
</svg>
