<svg viewBox="0 0 24 24" xmlns="http://www.w3.org/2000/svg">
    <path fill-rule="evenodd" clip-rule="evenodd"
        d="M15 2.58582L20.7071 8.29292C21.0976 8.68345 21.0976 9.31661 20.7071 9.70714L15 15.4142L13.5858 14L17.5858 10H13.6C11.9033 10 10.691 10.0008 9.74064 10.0785C8.80197 10.1551 8.20732 10.3018 7.73005 10.545C6.78924 11.0244 6.02433 11.7893 5.54497 12.7301C5.30179 13.2073 5.15512 13.802 5.07842 14.7407C5.00078 15.691 5 16.9034 5 18.6V21H3L3 18.5556C2.99999 16.9131 2.99999 15.6191 3.08507 14.5778C3.17186 13.5155 3.35217 12.6283 3.76295 11.8221C4.43407 10.505 5.50493 9.4341 6.82207 8.76298C7.62827 8.3522 8.51543 8.17189 9.57778 8.0851C10.6191 8.00002 11.913 8.00002 13.5556 8.00003H17.5858L13.5858 4.00003L15 2.58582Z"
        fill="currentColor" />
</svg>