<svg viewBox="0 0 24 24" xmlns="http://www.w3.org/2000/svg">
  <path
    d="M20.4855 15.476C19.9425 17.0228 18.9875 18.392 17.7235 19.436C16.4595 20.4799 14.9346 21.159 13.313 21.4C13.2021 21.5827 13.0461 21.7339 12.8599 21.839C12.6738 21.944 12.4638 21.9995 12.25 22H11.25C10.9185 22 10.6005 21.8683 10.3661 21.6339C10.1317 21.3995 10 21.0815 10 20.75C10 20.4185 10.1317 20.1005 10.3661 19.8661C10.6005 19.6317 10.9185 19.5 11.25 19.5H12.25C12.4231 19.5003 12.5942 19.5367 12.7524 19.607C12.9105 19.6772 13.0523 19.7798 13.1685 19.908C14.4199 19.7099 15.6007 19.1983 16.6011 18.4209C17.6015 17.6436 18.3889 16.6256 18.89 15.462C18.4971 15.3794 18.1445 15.1642 17.8914 14.8525C17.6383 14.5408 17.5001 14.1515 17.5 13.75V12.25C17.5 11.7859 17.6844 11.3408 18.0126 11.0126C18.3408 10.6844 18.7859 10.5 19.25 10.5H19.4745C19.3503 8.60204 18.5087 6.8224 17.1205 5.52214C15.7323 4.22187 13.9015 3.49835 11.9995 3.49835C10.0975 3.49835 8.26668 4.22187 6.87851 5.52214C5.49033 6.8224 4.64876 8.60204 4.52451 10.5H4.74951C5.21364 10.5 5.65876 10.6844 5.98695 11.0126C6.31514 11.3408 6.49951 11.7859 6.49951 12.25V13.75C6.49951 14.2141 6.31514 14.6593 5.98695 14.9874C5.65876 15.3156 5.21364 15.5 4.74951 15.5H3.74951C3.28538 15.5 2.84026 15.3156 2.51207 14.9874C2.18389 14.6593 1.99951 14.2141 1.99951 13.75V12.25C2.00002 11.9164 2.09607 11.5898 2.27629 11.309C2.45652 11.0282 2.71338 10.8049 3.01651 10.6655C3.10153 8.33988 4.08516 6.13787 5.76051 4.52264C7.43586 2.90742 9.67234 2.00488 11.9995 2.00488C14.3267 2.00488 16.5632 2.90742 18.2385 4.52264C19.9139 6.13787 20.8975 8.33988 20.9825 10.6655C21.2857 10.8049 21.5427 11.0281 21.723 11.3089C21.9033 11.5897 21.9995 11.9163 22 12.25V13.75C21.9993 14.1723 21.8454 14.58 21.5669 14.8974C21.2884 15.2149 20.9041 15.4204 20.4855 15.476ZM3.50001 12.75V13.25C3.50001 13.4489 3.57903 13.6397 3.71968 13.7803C3.86033 13.921 4.0511 14 4.25001 14C4.44892 14 4.63969 13.921 4.78034 13.7803C4.92099 13.6397 5.00001 13.4489 5.00001 13.25V12.75C5.00001 12.5511 4.92099 12.3603 4.78034 12.2197C4.63969 12.079 4.44892 12 4.25001 12C4.0511 12 3.86033 12.079 3.71968 12.2197C3.57903 12.3603 3.50001 12.5511 3.50001 12.75ZM20.5 12.75C20.5 12.5511 20.421 12.3603 20.2803 12.2197C20.1397 12.079 19.9489 12 19.75 12C19.5511 12 19.3603 12.079 19.2197 12.2197C19.079 12.3603 19 12.5511 19 12.75V13.25C19 13.4489 19.079 13.6397 19.2197 13.7803C19.3603 13.921 19.5511 14 19.75 14C19.9489 14 20.1397 13.921 20.2803 13.7803C20.421 13.6397 20.5 13.4489 20.5 13.25V12.75Z"
    fill="currentColor" />
  <path
    d="M12.0002 16.4945C12.5307 16.4927 13.0549 16.3791 13.5386 16.161C14.0223 15.943 14.4545 15.6254 14.8072 15.229C14.873 15.1573 14.9238 15.0733 14.9566 14.9817C14.9895 14.8902 15.0038 14.793 14.9986 14.6958C14.9935 14.5987 14.9689 14.5036 14.9265 14.416C14.8841 14.3285 14.8247 14.2503 14.7517 14.186C14.6031 14.0547 14.409 13.9868 14.2111 13.997C14.0131 14.0072 13.827 14.0946 13.6927 14.2405C13.483 14.484 13.2233 14.6794 12.9312 14.8133C12.6391 14.9473 12.3215 15.0166 12.0002 15.0166C11.6788 15.0166 11.3613 14.9473 11.0692 14.8133C10.7771 14.6794 10.5174 14.484 10.3077 14.2405C10.1734 14.0946 9.9873 14.0072 9.78931 13.997C9.59131 13.9868 9.39722 14.0547 9.24868 14.186C9.17561 14.2502 9.1161 14.3284 9.07366 14.416C9.03122 14.5035 9.00669 14.5987 9.00152 14.6958C8.99635 14.793 9.01064 14.8902 9.04355 14.9817C9.07647 15.0733 9.12734 15.1574 9.19318 15.229C9.54574 15.6255 9.97798 15.9431 10.4617 16.1612C10.9454 16.3793 11.4696 16.4928 12.0002 16.4945Z"
    fill="currentColor" />
</svg>
