<svg id="图层_1" data-name="图层 1" xmlns="http://www.w3.org/2000/svg" viewBox="0 0 16 16">
  <path
    fill="currentColor"
    d="M12.08,14.77a.6.6,0,0,1-.5-.27.61.61,0,0,1,.17-.83A6.77,6.77,0,0,0,14.8,8a6.88,6.88,0,0,0-.21-1.7A6.81,6.81,0,0,0,8,1.2a6.56,6.56,0,0,0-2,.31A6.8,6.8,0,0,0,4.25,13.67a.6.6,0,1,1-.67,1A8,8,0,1,1,15.75,6,7.89,7.89,0,0,1,16,8a8,8,0,0,1-3.58,6.67A.61.61,0,0,1,12.08,14.77Z" />
  <circle fill="currentColor" cx="8.04" cy="8.01" r="0.97" />
  <path
    fill="currentColor"
    d="M10.77,12.58a.6.6,0,0,1-.34-1.1,4.41,4.41,0,0,0,2-3.68,4.54,4.54,0,0,0-.14-1.1,4.41,4.41,0,1,0-6.7,4.78.6.6,0,1,1-.67,1,5.62,5.62,0,0,1,1.43-10A5.87,5.87,0,0,1,8,2.19,5.61,5.61,0,0,1,13.43,6.4a5.49,5.49,0,0,1,.18,1.4,5.6,5.6,0,0,1-2.51,4.68A.6.6,0,0,1,10.77,12.58Z" />
  <path fill="currentColor" d="M7.53,7.18l2.65-1.45c.21-.13.42,0,.27.29L8.93,8.39Z" />
</svg>
