<svg viewBox="0 0 24 24" xmlns="http://www.w3.org/2000/svg">
  <path fill-rule="evenodd" clip-rule="evenodd"
    d="M12 13.4C11.2268 13.4 10.6 12.7732 10.6 12V5.5502C9.79478 5.72499 9.02525 6.04992 8.33324 6.51231C7.24788 7.23752 6.40194 8.2683 5.9024 9.4743C5.40286 10.6803 5.27216 12.0073 5.52682 13.2876C5.78148 14.5679 6.41007 15.7439 7.3331 16.6669C8.25613 17.5899 9.43213 18.2185 10.7124 18.4732C11.9927 18.7279 13.3197 18.5971 14.5257 18.0976C15.7317 17.5981 16.7625 16.7521 17.4877 15.6668C17.9501 14.9748 18.275 14.2052 18.4498 13.4H12ZM11.0026 4.06242C11.5506 3.99356 12 4.44772 12 5.00001V12H19C19.5523 12 20.0064 12.4495 19.9376 12.9974C19.7832 14.2262 19.3449 15.4073 18.6518 16.4446C17.7727 17.7602 16.5233 18.7855 15.0615 19.391C13.5997 19.9965 11.9911 20.155 10.4393 19.8463C8.88743 19.5376 7.46197 18.7757 6.34315 17.6569C5.22433 16.538 4.4624 15.1126 4.15372 13.5607C3.84504 12.0089 4.00347 10.4003 4.60897 8.93854C5.21447 7.47673 6.23985 6.2273 7.55544 5.34825C8.59276 4.65514 9.77376 4.21683 11.0026 4.06242Z"
    fill="currentColor" />
  <path fill-rule="evenodd" clip-rule="evenodd"
    d="M20.1899 7.43602C20.5267 8.24891 20.7 9.12015 20.7 10C20.7 10.1857 20.6262 10.3637 20.4949 10.495C20.3637 10.6263 20.1856 10.7 20 10.7L14 10.7C13.6134 10.7 13.3 10.3866 13.3 10L13.3 4C13.3 3.81435 13.3737 3.6363 13.505 3.50503C13.6363 3.37375 13.8143 3.3 14 3.3C14.8798 3.3 15.751 3.4733 16.5639 3.81001C17.3768 4.14672 18.1154 4.64023 18.7376 5.26239C19.3597 5.88454 19.8532 6.62314 20.1899 7.43602ZM19.2535 9.3C19.1928 8.84462 19.0731 8.39806 18.8965 7.97178C18.6302 7.32876 18.2398 6.74449 17.7476 6.25234C17.2555 5.76019 16.6712 5.36979 16.0282 5.10344C15.6019 4.92687 15.1553 4.80711 14.7 4.74643L14.7 9.3L19.2535 9.3Z"
    fill="currentColor" />
</svg>
