<svg viewBox="0 0 24 24" xmlns="http://www.w3.org/2000/svg">
    <path d="M6.58057 7.74585L8.94385 10.5818L11.3071 7.74585" stroke="currentColor" stroke-width="1.5"
        stroke-linecap="round" stroke-linejoin="round" />
    <path d="M6.104 13.4177H11.7759" stroke="currentColor" stroke-width="1.5" stroke-linecap="round"
        stroke-linejoin="round" />
    <path d="M6.104 10.5818H11.7759" stroke="currentColor" stroke-width="1.5" stroke-linecap="round"
        stroke-linejoin="round" />
    <path d="M8.93994 10.5818V16.2537" stroke="currentColor" stroke-width="1.5" stroke-linecap="round"
        stroke-linejoin="round" />
    <path
        d="M17.7692 15.3204L16.2497 17.2695C15.9835 17.6147 16.0442 18.1097 16.3859 18.3803C16.5262 18.4818 16.6948 18.5368 16.868 18.5375C17.1102 18.5383 17.3389 18.4259 17.4862 18.2336L19.0162 16.2845C19.2824 15.9402 19.219 15.4452 18.8747 15.179C18.5303 14.9128 18.0354 14.9761 17.7692 15.3204Z"
        fill="currentColor" />
    <path fill-rule="evenodd" clip-rule="evenodd"
        d="M21.814 14.1782L22.5056 17.542C22.7151 18.2218 22.4609 18.9591 21.8769 19.3653L18.618 21.7335C18.0284 22.1536 17.2374 22.1536 16.6479 21.7335L13.389 19.3653C12.7738 18.9437 12.5164 18.1629 12.7602 17.4581L13.4309 14.1782C13.6197 13.1741 14.5051 12.4526 15.5267 12.4702H19.7182C20.7325 12.4734 21.6062 13.1855 21.814 14.1782ZM17.6958 20.4132L20.9548 18.0659C21.0101 18.0507 21.0459 17.9971 21.0386 17.9402L20.3365 14.4926C20.2816 14.2238 20.045 14.031 19.7706 14.0315H15.5791C15.3048 14.031 15.0681 14.2238 15.0132 14.4926L14.3111 17.8459C14.2587 17.9716 14.3111 18.0554 14.3111 18.0554L17.5701 20.4132C17.6059 20.4452 17.66 20.4452 17.6958 20.4132Z"
        fill="currentColor" />
    <path fill-rule="evenodd" clip-rule="evenodd"
        d="M0.838379 6.70142C0.838379 4.07806 2.96503 1.95142 5.58838 1.95142H14.8618C17.4852 1.95142 19.6118 4.07806 19.6118 6.70142V10.7939C19.6118 11.2081 19.276 11.5439 18.8618 11.5439C18.4476 11.5439 18.1118 11.2081 18.1118 10.7939V6.70142C18.1118 4.90649 16.6567 3.45142 14.8618 3.45142H5.58838C3.79345 3.45142 2.33838 4.90649 2.33838 6.70142V17.2986C2.33838 19.0935 3.79345 20.5486 5.58838 20.5486H11.4683C11.8825 20.5486 12.2183 20.8844 12.2183 21.2986C12.2183 21.7128 11.8825 22.0486 11.4683 22.0486H5.58838C2.96503 22.0486 0.838379 19.9219 0.838379 17.2986V6.70142Z"
        fill="currentColor" />
</svg>