<svg viewBox="0 0 24 24" xmlns="http://www.w3.org/2000/svg">
    <path fill-rule="evenodd" clip-rule="evenodd"
        d="M18.5 4.41992H5.49999C3.77162 4.50099 2.43218 5.96098 2.49999 7.68992V13.1499C2.43218 14.8789 3.77162 16.3389 5.49999 16.4199H9.23999C9.13753 17.058 8.9837 17.6867 8.77999 18.2999L8.43999 19.2399C8.33777 19.4909 8.35986 19.7754 8.49959 20.0077C8.63932 20.2399 8.88034 20.3927 9.14999 20.4199H14.85C15.1196 20.3927 15.3607 20.2399 15.5004 20.0077C15.6401 19.7754 15.6622 19.4909 15.56 19.2399L15.22 18.2999C15.0163 17.6867 14.8625 17.058 14.76 16.4199H18.5C20.2284 16.3389 21.5678 14.8789 21.5 13.1499V7.68992C21.5678 5.96098 20.2284 4.50099 18.5 4.41992ZM10.15 18.9199V18.7999C10.3668 18.1877 10.534 17.559 10.65 16.9199H13.27C13.3907 17.5579 13.5578 18.1863 13.77 18.7999V18.9199H10.15ZM18.5 14.9199C19.3977 14.8353 20.0637 14.0494 20 13.1499V7.68992C20.0637 6.79044 19.3977 6.00458 18.5 5.91992H5.49999C4.60224 6.00458 3.93626 6.79044 3.99999 7.68992V13.1499C3.93626 14.0494 4.60224 14.8353 5.49999 14.9199H18.5Z"
        fill="currentColor" />
    <path fill-rule="evenodd" clip-rule="evenodd"
        d="M9.02759 6.8502C9.24172 6.85929 9.43761 6.97336 9.5512 7.15511L12.0461 11.147L12.5184 11.8555L14.4711 9.12181C14.5821 8.96633 14.756 8.86759 14.9464 8.85183C15.1368 8.83607 15.3245 8.90489 15.4596 9.03999L17.2692 10.8496H21V12.1496H17C16.8276 12.1496 16.6623 12.0811 16.5404 11.9592L15.0829 10.5018L13.0289 13.3774C12.9048 13.5512 12.7031 13.653 12.4895 13.6495C12.2759 13.6461 12.0777 13.5379 11.9592 13.3602L10.9592 11.8602L10.9488 11.8441L8.95122 8.64798L6.52 11.8896C6.39724 12.0533 6.20459 12.1496 6 12.1496H3.5V10.8496H5.675L8.48 7.10961C8.6086 6.93815 8.81345 6.8411 9.02759 6.8502Z"
        fill="currentColor" />
</svg>