<svg viewBox="0 0 24 24" xmlns="http://www.w3.org/2000/svg">
  <path fill-rule="evenodd" clip-rule="evenodd"
    d="M11.9902 2H16.0702C18.6936 2 20.8202 4.12665 20.8202 6.75V14.07C20.8386 16.0597 19.6124 17.8491 17.7502 18.55C17.5586 20.6135 15.8226 22.1889 13.7502 22.18H8.75023C6.12688 22.18 4.00023 20.0534 4.00023 17.43V9.21C3.98553 7.1755 5.50037 5.45409 7.52023 5.21C8.17551 3.29794 9.96902 2.00998 11.9902 2ZM8.71023 20.64H13.7102C14.8281 20.6408 15.8094 19.8966 16.1102 18.82H11.9902C9.36688 18.82 7.24023 16.6934 7.24023 14.07V6.79C6.18659 7.10344 5.46316 8.07073 5.46023 9.17V17.39C5.46023 19.1849 6.9153 20.64 8.71023 20.64ZM19.3202 14.07C19.3202 15.8649 17.8652 17.32 16.0702 17.32H11.9902C10.1976 17.3145 8.74572 15.8626 8.74023 14.07V6.75C8.74572 4.95735 10.1976 3.50549 11.9902 3.5H16.0702C17.8652 3.5 19.3202 4.95507 19.3202 6.75V14.07ZM15.7902 8.15H10.8802C10.5047 8.15 10.2002 7.84555 10.2002 7.47C10.2002 7.09445 10.5047 6.79 10.8802 6.79H15.7902C16.1658 6.79 16.4702 7.09445 16.4702 7.47C16.4702 7.84555 16.1658 8.15 15.7902 8.15ZM10.9102 12.66H14.4102C14.7858 12.66 15.0902 12.9644 15.0902 13.34C15.0902 13.7156 14.7858 14.02 14.4102 14.02H10.9102C10.5347 14.02 10.2302 13.7156 10.2302 13.34C10.2302 12.9644 10.5347 12.66 10.9102 12.66ZM17.1902 9.72H10.8802C10.6157 9.68799 10.3565 9.8111 10.2141 10.0363C10.0717 10.2615 10.0717 10.5485 10.2141 10.7737C10.3565 10.9989 10.6157 11.122 10.8802 11.09H17.1902C17.5367 11.0481 17.7973 10.754 17.7973 10.405C17.7973 10.056 17.5367 9.76194 17.1902 9.72Z"
    fill="currentColor" />
</svg>
