<svg viewBox="0 0 24 24" fill="none" xmlns="http://www.w3.org/2000/svg">
  <path fill-rule="evenodd" clip-rule="evenodd"
    d="M19.53 9.19016L12.53 2.19016C12.3827 2.06389 12.194 1.99625 12 2.00016H9C6.37665 2.00016 4.25 4.12681 4.25 6.75016V16.7502C4.25 19.3735 6.37665 21.5002 9 21.5002H15C17.6234 21.5002 19.75 19.3735 19.75 16.7502V9.75016C19.7534 9.54178 19.6743 9.3405 19.53 9.19016ZM12.75 4.54016L17.21 9.00016H14C13.3096 9.00016 12.75 8.44052 12.75 7.75016V4.54016ZM5.75 16.7502C5.75549 18.5428 7.20735 19.9947 9 20.0002H15C16.7926 19.9947 18.2445 18.5428 18.25 16.7502V10.5002H14C12.4812 10.5002 11.25 9.26894 11.25 7.75016V3.50016H9C7.20735 3.50565 5.75549 4.95751 5.75 6.75016V16.7502Z"
    fill="currentColor" />
  <path fill-rule="evenodd" clip-rule="evenodd"
    d="M11.95 11.3501C12.309 11.3501 12.6 11.6411 12.6 12.0001V16.5001C12.6 16.8591 12.309 17.1501 11.95 17.1501C11.5911 17.1501 11.3 16.8591 11.3 16.5001V12.0001C11.3 11.6411 11.5911 11.3501 11.95 11.3501Z"
    fill="currentColor" />
  <path fill-rule="evenodd" clip-rule="evenodd"
    d="M9.39041 14.6617C9.64425 14.4079 10.0558 14.4079 10.3096 14.6617L11.9713 16.3234L13.633 14.6617C13.8869 14.4079 14.2984 14.4079 14.5523 14.6617C14.8061 14.9156 14.8061 15.3271 14.5523 15.581L11.9713 18.1619L9.39041 15.581C9.13656 15.3271 9.13656 14.9156 9.39041 14.6617Z"
    fill="currentColor" />
</svg>
