<svg viewBox="0 0 24 24" xmlns="http://www.w3.org/2000/svg">
  <path fill-rule="evenodd" clip-rule="evenodd"
    d="M5.72007 2.00002H9.91567H9.9786C11.8265 2.00002 13.3246 3.49807 13.3246 5.34601C13.3246 5.40165 13.3467 5.45501 13.386 5.49435C13.4254 5.53369 13.4787 5.55579 13.5344 5.55579H17.73C20.3344 5.56156 22.4443 7.67142 22.45 10.2758V17.2091C22.4443 19.8135 20.3344 21.9233 17.73 21.9291H5.72007C3.11326 21.9291 1.00002 19.8159 1.00002 17.2091V6.72007C0.99723 5.46738 1.49362 4.2652 2.37941 3.37941C3.2652 2.49362 4.46738 1.99723 5.72007 2.00002ZM11.7198 5.34601C11.7198 4.36701 10.9261 3.57337 9.94714 3.57337H9.91567H5.72007C3.9822 3.57337 2.57337 4.9822 2.57337 6.72007V17.2091C2.57337 18.9469 3.9822 20.3558 5.72007 20.3558H17.6985C19.4364 20.3558 20.8452 18.9469 20.8452 17.2091V10.2758C20.8452 8.53797 19.4364 7.12914 17.6985 7.12914H13.5029C12.5181 7.12914 11.7198 6.33081 11.7198 5.34601Z"
    fill="currentColor" />
</svg>
