<svg version="1.1" xmlns="http://www.w3.org/2000/svg" xmlns:xlink="http://www.w3.org/1999/xlink" x="0px" y="0px"
	 viewBox="0 0 16 16" style="enable-background:new 0 0 16 16;" xml:space="preserve">
<path fill="currentColor" d="M12.9,16H2.6c-1.2,0-2.1-0.8-2.1-1.8V4.6c0-0.5,0.2-0.9,0.7-1.3l3.1-2.7C4.9,0.2,5.3,0,5.8,0h7.4c1.2,0,2.1,0.8,2.1,1.8
	v12.4C15.3,15.3,13.9,16,12.9,16L12.9,16z M5.8,0.9C5.7,0.9,5.3,1,5,1.2L1.9,3.9C1.6,4.1,1.5,4.4,1.5,4.6v9.6c0,0.5,0.5,1,1.1,1
	h10.3c0.6,0,1.4-0.5,1.4-1V1.8c0-0.5-0.5-1-1.1-1C13.1,0.9,5.8,0.9,5.8,0.9z"/>
<path fill="currentColor" d="M7.9,12.4c-0.1,0-0.3,0-0.4-0.1l-1.9-1.9c-0.2-0.2-0.2-0.5,0-0.7c0.2-0.2,0.5-0.2,0.7,0l1.9,1.9c0.2,0.2,0.2,0.5,0,0.7
	C8.2,12.4,8,12.4,7.9,12.4z"/>
<path fill="currentColor" d="M7.9,12.4c-0.1,0-0.3,0-0.4-0.1c-0.2-0.2-0.2-0.5,0-0.7l1.9-1.9c0.2-0.2,0.5-0.2,0.7,0c0.2,0.2,0.2,0.5,0,0.7l-1.9,1.9
	C8.2,12.4,8,12.4,7.9,12.4z"/>
<path fill="currentColor" d="M7.9,11.5c-0.3,0-0.5-0.2-0.5-0.5V5c0-0.3,0.2-0.5,0.5-0.5c0.3,0,0.5,0.2,0.5,0.5v6C8.4,11.3,8.2,11.5,7.9,11.5L7.9,11.5z"
	/>
</svg>
