<svg viewBox="0 0 24 24" xmlns="http://www.w3.org/2000/svg">
  <path fill-rule="evenodd" clip-rule="evenodd" d="M6.92527 4.00001H10.2788H10.3291C11.8061 4.00001 13.0035 5.19738 13.0035 6.67442C13.0035 6.71889 13.0211 6.76154 13.0526 6.79298C13.084 6.82443 13.1267 6.84209 13.1712 6.84209H16.5246C18.6063 6.8467 20.2927 8.53309 20.2973 10.6148V16.1564C20.2927 18.2381 18.6063 19.9245 16.5246 19.9291H6.92527C4.84168 19.9291 3.1526 18.24 3.1526 16.1564V7.77269C3.15036 6.77143 3.54713 5.81053 4.25512 5.10254C4.96312 4.39454 5.92402 3.99778 6.92527 4.00001ZM11.7207 6.67443C11.7207 5.89192 11.0864 5.25758 10.3039 5.25758H10.2787H6.92523C5.53616 5.25758 4.41011 6.38363 4.41011 7.77269V16.1564C4.41011 17.5455 5.53616 18.6715 6.92523 18.6715H16.4994C17.8885 18.6715 19.0146 17.5455 19.0146 16.1564V10.6148C19.0146 9.22572 17.8885 8.09966 16.4994 8.09966H13.146C12.3588 8.09966 11.7207 7.46156 11.7207 6.67443Z" fill="currentColor" />
</svg>
