<svg viewBox="0 0 24 24" fill="none" xmlns="http://www.w3.org/2000/svg">
    <path
        d="M19.3333 13.8334C20.3459 13.8334 21.1667 13.0125 21.1667 12C21.1667 10.9875 20.3459 10.1667 19.3333 10.1667C18.3208 10.1667 17.5 10.9875 17.5 12C17.5 13.0125 18.3208 13.8334 19.3333 13.8334Z"
        stroke="currentColor" stroke-width="1.5" stroke-linecap="round" stroke-linejoin="round" />
    <path
        d="M19.3333 6.49998C20.3459 6.49998 21.1667 5.67917 21.1667 4.66665C21.1667 3.65412 20.3459 2.83331 19.3333 2.83331C18.3208 2.83331 17.5 3.65412 17.5 4.66665C17.5 5.67917 18.3208 6.49998 19.3333 6.49998Z"
        stroke="currentColor" stroke-width="1.5" stroke-linecap="round" stroke-linejoin="round" />
    <path
        d="M19.3333 21.1667C20.3459 21.1667 21.1667 20.3459 21.1667 19.3333C21.1667 18.3208 20.3459 17.5 19.3333 17.5C18.3208 17.5 17.5 18.3208 17.5 19.3333C17.5 20.3459 18.3208 21.1667 19.3333 21.1667Z"
        stroke="currentColor" stroke-width="1.5" stroke-linecap="round" stroke-linejoin="round" />
    <path
        d="M4.66668 13.8334C5.6792 13.8334 6.50001 13.0125 6.50001 12C6.50001 10.9875 5.6792 10.1667 4.66668 10.1667C3.65415 10.1667 2.83334 10.9875 2.83334 12C2.83334 13.0125 3.65415 13.8334 4.66668 13.8334Z"
        stroke="currentColor" stroke-width="1.5" stroke-linecap="round" stroke-linejoin="round" />
    <path d="M6.5 12H17.5" stroke="currentColor" stroke-width="1.5" stroke-linecap="round" stroke-linejoin="round" />
    <path
        d="M17.5 4.66669H13.8333C12 4.66669 11.0833 5.58335 11.0833 7.41669V16.5834C11.0833 18.4167 12 19.3334 13.8333 19.3334H17.5"
        stroke="currentColor" stroke-width="1.5" stroke-linecap="round" stroke-linejoin="round" />
</svg>