<svg viewBox="0 0 24 24" xmlns="http://www.w3.org/2000/svg">
  <path d="M20 7V20C20 20.5304 19.7893 21.0391 19.4142 21.4142C19.0391 21.7893 18.5304 22 18 22H6C5.46957 22 4.96086 21.7893 4.58579 21.4142C4.21071 21.0391 4 20.5304 4 20V7H2V5H22V7H20ZM6 7V20H18V7H6ZM7 2H17V4H7V2Z" fill="currentColor" />
  <path fill-rule="evenodd" clip-rule="evenodd" d="M9.10993 11.11C9.54545 9.93621 10.6744 9.10001 12 9.10001C13.3255 9.10001 14.4545 9.93621 14.89 11.11C16.0638 11.5455 16.9 12.6745 16.9 14C16.9 15.702 15.5202 17.0818 13.8182 17.0818H10.1818C8.47975 17.0818 7.09998 15.702 7.09998 14C7.09998 12.6745 7.93618 11.5455 9.10993 11.11ZM12 10.9C11.3604 10.9 10.8287 11.3694 10.7335 11.9823L10.6324 12.6325L9.9823 12.7335C9.36934 12.8287 8.89998 13.3604 8.89998 14C8.89998 14.7079 9.47387 15.2818 10.1818 15.2818H13.8182C14.5261 15.2818 15.1 14.7079 15.1 14C15.1 13.3604 14.6306 12.8287 14.0177 12.7335L13.3675 12.6325L13.2665 11.9823C13.1713 11.3694 12.6396 10.9 12 10.9Z" fill="currentColor" />
</svg>
