<svg width="24" height="24" viewBox="0 0 24 24" fill="none" xmlns="http://www.w3.org/2000/svg">
<path d="M11 17.5H9V10.5H11V17.5Z" fill="currentColor"/>
<path d="M15 17.5H13V10.5H15V17.5Z" fill="currentColor"/>
<path fill-rule="evenodd" clip-rule="evenodd" d="M22 7H20V17.2002C20 18.0237 20.001 18.7016 19.9561 19.252C19.9101 19.814 19.8117 20.3311 19.5645 20.8164C19.181 21.5689 18.5689 22.181 17.8164 22.5645C17.3311 22.8117 16.814 22.9101 16.252 22.9561C15.7016 23.001 15.0237 23 14.2002 23H9.7998C8.97631 23 8.29843 23.001 7.74805 22.9561C7.18599 22.9101 6.6689 22.8117 6.18359 22.5645C5.43109 22.181 4.81902 21.5689 4.43555 20.8164C4.18827 20.3311 4.08987 19.814 4.04395 19.252C3.99898 18.7016 4 18.0237 4 17.2002V7H2V5H22V7ZM6 17.2002C6 18.0566 6.00035 18.6388 6.03711 19.0889C6.07293 19.5273 6.13808 19.7518 6.21777 19.9082C6.40951 20.2845 6.71554 20.5905 7.0918 20.7822C7.2482 20.8619 7.47272 20.9271 7.91113 20.9629C8.36117 20.9997 8.94341 21 9.7998 21H14.2002C15.0566 21 15.6388 20.9997 16.0889 20.9629C16.5273 20.9271 16.7518 20.8619 16.9082 20.7822C17.2845 20.5905 17.5905 20.2845 17.7822 19.9082C17.8619 19.7518 17.9271 19.5273 17.9629 19.0889C17.9997 18.6388 18 18.0566 18 17.2002V7H6V17.2002Z" fill="currentColor"/>
<path d="M15.8291 4H7.8291V2H15.8291V4Z" fill="currentColor"/>
</svg>
