<svg viewBox="0 0 24 24" fill="none" xmlns="http://www.w3.org/2000/svg">
  <rect x="3" y="7.5" width="18" height="5" rx="1" stroke="currentColor" stroke-width="2" />
  <rect x="5" y="12.5" width="14" height="8" rx="1" stroke="currentColor" stroke-width="2" />
  <path
    d="M12 6C12 4.61929 13.1193 3.5 14.5 3.5H15C16.1046 3.5 17 4.39543 17 5.5V5.5C17 6.60457 16.1046 7.5 15 7.5H12.015C12.0067 7.5 12 7.49329 12 7.48502V6Z"
    stroke="currentColor" stroke-width="2" />
  <path
    d="M12 6C12 4.61929 10.8807 3.5 9.5 3.5H9C7.89543 3.5 7 4.39543 7 5.5V5.5C7 6.60457 7.89543 7.5 9 7.5H11.985C11.9933 7.5 12 7.49329 12 7.48502V6Z"
    stroke="currentColor" stroke-width="2" />
  <path d="M12 7.5V21" stroke="currentColor" stroke-width="2" />
</svg>