<svg viewBox="0 0 24 24" fill="none" xmlns="http://www.w3.org/2000/svg">
    <path fill-rule="evenodd" clip-rule="evenodd"
        d="M10.25 2H13.75C14.9926 2 16 3.00736 16 4.25V7.75C16 8.99264 14.9926 10 13.75 10H10.25C9.00736 10 8 8.99264 8 7.75V4.25C8 3.00736 9.00736 2 10.25 2ZM13.75 8.5C14.1642 8.5 14.5 8.16421 14.5 7.75V4.25C14.5 3.83579 14.1642 3.5 13.75 3.5H10.25C9.83804 3.50539 9.50539 3.83804 9.5 4.25V7.75C9.50539 8.16196 9.83804 8.49461 10.25 8.5H13.75Z"
        fill="currentColor" />
    <path d="M12 9V12.5L9 14.5" stroke="currentColor" />
    <path d="M12 12.5L15 14.5" stroke="currentColor" />
    <path fill-rule="evenodd" clip-rule="evenodd"
        d="M16.25 13H19.75C20.9926 13 22 14.0074 22 15.25V18.75C22 19.9926 20.9926 21 19.75 21H16.25C15.0074 21 14 19.9926 14 18.75V15.25C14 14.0074 15.0074 13 16.25 13ZM19.75 19.5C20.1642 19.5 20.5 19.1642 20.5 18.75V15.25C20.5 14.8358 20.1642 14.5 19.75 14.5H16.25C15.838 14.5054 15.5054 14.838 15.5 15.25V18.75C15.5054 19.162 15.838 19.4946 16.25 19.5H19.75Z"
        fill="currentColor" />
    <path fill-rule="evenodd" clip-rule="evenodd"
        d="M4.25 13H7.75C8.99264 13 10 14.0074 10 15.25V18.75C10 19.3467 9.76295 19.919 9.34099 20.341C8.91903 20.7629 8.34674 21 7.75 21H4.25C3.00736 21 2 19.9926 2 18.75V15.25C2 14.0074 3.00736 13 4.25 13ZM7.75 19.5C8.16421 19.5 8.5 19.1642 8.5 18.75V15.25C8.5 14.8358 8.16421 14.5 7.75 14.5H4.25C3.83804 14.5054 3.50539 14.838 3.5 15.25V18.75C3.50539 19.162 3.83804 19.4946 4.25 19.5H7.75Z"
        fill="currentColor" />
</svg>
