<svg viewBox="0 0 24 24" fill="none" xmlns="http://www.w3.org/2000/svg">
  <path fill-rule="evenodd" clip-rule="evenodd"
    d="M12 21.6378C12.1664 21.6811 12.3474 21.6819 12.5284 21.6294L21.3068 19.085C22.1617 18.8372 22.75 18.0542 22.75 17.164V4.66201C22.75 3.33007 21.4725 2.37027 20.1932 2.74108L12 5.11592L3.80679 2.74108C2.52751 2.37027 1.25 3.33007 1.25 4.66201V17.164C1.25 18.0542 1.83827 18.8372 2.69321 19.085L11.4716 21.6294C11.6526 21.6819 11.8336 21.6811 12 21.6378ZM5.01279 8.71147C4.61983 8.58049 4.40746 8.15575 4.53845 7.76279C4.66943 7.36983 5.09417 7.15746 5.48713 7.28845L8.82046 8.39956C9.21342 8.53054 9.42579 8.95528 9.2948 9.34824C9.16382 9.7412 8.73908 9.95357 8.34612 9.82258L5.01279 8.71147ZM19.1261 8.82256C19.5191 8.69157 19.7315 8.26683 19.6005 7.87387C19.4695 7.48092 19.0447 7.26855 18.6518 7.39953L15.3185 8.51064C14.9255 8.64163 14.7131 9.06637 14.8441 9.45933C14.9751 9.85228 15.3998 10.0647 15.7928 9.93367L19.1261 8.82256ZM19.1261 12.1559C19.5191 12.0249 19.7315 11.6002 19.6005 11.2072C19.4695 10.8142 19.0447 10.6019 18.6518 10.7329L15.3185 11.844C14.9255 11.975 14.7131 12.3997 14.8441 12.7927C14.9751 13.1856 15.3998 13.398 15.7928 13.267L19.1261 12.1559ZM19.6005 14.5405C19.7315 14.9335 19.5191 15.3582 19.1261 15.4892L15.7928 16.6003C15.3998 16.7313 14.9751 16.5189 14.8441 16.126C14.7131 15.733 14.9255 15.3083 15.3185 15.1773L18.6518 14.0662C19.0447 13.9352 19.4695 14.1476 19.6005 14.5405ZM4.53845 11.0961C4.40746 11.4891 4.61983 11.9138 5.01279 12.0448L8.34612 13.1559C8.73908 13.2869 9.16382 13.0745 9.2948 12.6816C9.42579 12.2886 9.21342 11.8639 8.82046 11.7329L5.48713 10.6218C5.09417 10.4908 4.66943 10.7032 4.53845 11.0961ZM5.01279 15.3781C4.61983 15.2472 4.40746 14.8224 4.53845 14.4295C4.66943 14.0365 5.09417 13.8241 5.48713 13.9551L8.82046 15.0662C9.21342 15.1972 9.42579 15.622 9.2948 16.0149C9.16382 16.4079 8.73908 16.6202 8.34612 16.4892L5.01279 15.3781ZM12 7.25C12.4142 7.25 12.75 7.58579 12.75 8V19C12.75 19.4142 12.4142 19.75 12 19.75C11.5858 19.75 11.25 19.4142 11.25 19V8C11.25 7.58579 11.5858 7.25 12 7.25Z"
    fill="currentColor" />
</svg>
