<svg viewBox="0 0 24 24" xmlns="http://www.w3.org/2000/svg">
  <path fill-rule="evenodd" clip-rule="evenodd"
    d="M10.2699 13.61L2.34991 9.61003C2.07774 9.42359 1.91504 9.11492 1.91504 8.78503C1.91504 8.45513 2.07774 8.14646 2.34991 7.96003L10.2699 3.96003C10.6835 3.75582 11.1386 3.64974 11.5999 3.65002C12.0201 3.65229 12.4353 3.74078 12.8199 3.91003L21.6099 7.91003C21.9282 8.08614 22.1258 8.42124 22.1258 8.78503C22.1258 9.14882 21.9282 9.48391 21.6099 9.66003L12.8199 13.66C12.4353 13.8293 12.0201 13.9178 11.5999 13.92C11.1386 13.9203 10.6835 13.8142 10.2699 13.61ZM11.6499 5.11003C11.4245 5.10846 11.2018 5.15984 10.9999 5.26003L3.99991 8.75003L10.9999 12.23C11.2018 12.3302 11.4245 12.3816 11.6499 12.38C11.8571 12.3823 12.0622 12.3379 12.2499 12.25L19.9599 8.75003L12.2499 5.24003C12.0622 5.15219 11.8571 5.10776 11.6499 5.11003Z"
    fill="currentColor" />
  <path
    d="M21.2899 12.05L12.4399 15.74C11.8986 15.996 11.2712 15.996 10.7299 15.74L2.88989 12.06C2.64516 11.9475 2.35898 11.9741 2.13916 12.1298C1.91934 12.2854 1.79926 12.5465 1.82416 12.8148C1.84906 13.083 2.01516 13.3175 2.25989 13.43L10.0799 17.05C10.5651 17.2901 11.0986 17.4166 11.6399 17.42C12.1237 17.4212 12.6018 17.3154 13.0399 17.11L21.8599 13.44C22.0495 13.365 22.2003 13.2159 22.2776 13.0273C22.355 12.8386 22.3522 12.6266 22.2699 12.44C22.1013 12.0676 21.6683 11.8953 21.2899 12.05Z"
    fill="currentColor" />
  <path
    d="M21.2899 15.13L12.4399 18.82C11.8987 19.076 11.2712 19.076 10.7299 18.82L2.88995 15.15C2.64516 15.0247 2.35141 15.0433 2.12448 15.1987C1.89754 15.354 1.77382 15.6211 1.80208 15.8946C1.83034 16.1682 2.00605 16.4043 2.25995 16.51L10.0799 20.13C10.5604 20.3733 11.0914 20.5001 11.6299 20.5C12.1037 20.4974 12.5712 20.3917 12.9999 20.19L21.8199 16.52C22.0095 16.4449 22.1603 16.2959 22.2377 16.1072C22.315 15.9186 22.3122 15.7066 22.2299 15.52C22.0594 15.172 21.6568 15.0049 21.2899 15.13Z"
    fill="currentColor" />
</svg>
