<svg viewBox="0 0 24 24" xmlns="http://www.w3.org/2000/svg">
  <path fill-rule="evenodd" clip-rule="evenodd"
    d="M3.87 3H7.37C8.61264 3 9.62 4.00736 9.62 5.25V8.75C9.62 9.99264 8.61264 11 7.37 11H3.87C2.62735 11 1.62 9.99264 1.62 8.75V5.25C1.62 4.00736 2.62735 3 3.87 3ZM7.37 9.5C7.78421 9.5 8.12 9.16421 8.12 8.75V5.25C8.12 4.83579 7.78421 4.5 7.37 4.5H3.87C3.45803 4.50539 3.12538 4.83804 3.12 5.25V8.75C3.12538 9.16196 3.45803 9.49461 3.87 9.5H7.37Z"
    fill="currentColor" />
  <path
    d="M13.62 6.75H18.62C19.0342 6.75 19.37 6.41421 19.37 6C19.37 5.58579 19.0342 5.25 18.62 5.25H13.62C13.2058 5.25 12.87 5.58579 12.87 6C12.87 6.41421 13.2058 6.75 13.62 6.75Z"
    fill="currentColor" />
  <path
    d="M13.62 9.75H21.62C22.0342 9.75 22.37 9.41421 22.37 9C22.37 8.58579 22.0342 8.25 21.62 8.25H13.62C13.2058 8.25 12.87 8.58579 12.87 9C12.87 9.41421 13.2058 9.75 13.62 9.75Z"
    fill="currentColor" />
  <path fill-rule="evenodd" clip-rule="evenodd"
    d="M3.87 13H7.37C8.61264 13 9.62 14.0074 9.62 15.25V18.75C9.62 19.3467 9.38294 19.919 8.96099 20.341C8.53903 20.7629 7.96673 21 7.37 21H3.87C2.62735 21 1.62 19.9926 1.62 18.75V15.25C1.62 14.0074 2.62735 13 3.87 13ZM7.37 19.5C7.78421 19.5 8.12 19.1642 8.12 18.75V15.25C8.12 14.8358 7.78421 14.5 7.37 14.5H3.87C3.45803 14.5054 3.12538 14.838 3.12 15.25V18.75C3.12538 19.162 3.45803 19.4946 3.87 19.5H7.37Z"
    fill="currentColor" />
  <path
    d="M13.62 16.75H18.62C19.0342 16.75 19.37 16.4142 19.37 16C19.37 15.5858 19.0342 15.25 18.62 15.25H13.62C13.2058 15.25 12.87 15.5858 12.87 16C12.87 16.4142 13.2058 16.75 13.62 16.75Z"
    fill="currentColor" />
  <path
    d="M21.62 18.25H13.62C13.2058 18.25 12.87 18.5858 12.87 19C12.87 19.4142 13.2058 19.75 13.62 19.75H21.62C22.0342 19.75 22.37 19.4142 22.37 19C22.37 18.5858 22.0342 18.25 21.62 18.25Z"
    fill="currentColor" />
</svg>
