<svg xmlns="http://www.w3.org/2000/svg" viewBox="0 0 16 16">
  <path
  fill="currentColor"
    d="M8.56,9.67A1.23,1.23,0,0,0,7.44,11a1.22,1.22,0,0,0,1.12,1.3A1.22,1.22,0,0,0,9.67,11,1.23,1.23,0,0,0,8.56,9.67Zm0,1.86c-.2,0-.37-.26-.37-.55s.17-.56.37-.56.37.26.37.56S8.76,11.53,8.56,11.53Z" />
  <path
  fill="currentColor"
    d="M16,6.94A6.65,6.65,0,0,0,9.29.37,6.68,6.68,0,0,0,3,4.53c-2.57.52-3,.79-3,1.26v7.08a1.28,1.28,0,0,0,1.06,1.26l8.22,1.48.23,0a1.28,1.28,0,0,0,1.28-1.28v-1A6.59,6.59,0,0,0,16,6.94ZM2.78,5.34a5.57,5.57,0,0,0-.14.71L1.48,5.88,1,5.79A16.17,16.17,0,0,1,2.78,5.34Zm7.27,9a.54.54,0,0,1-.54.53h-.1L1.19,13.39a.53.53,0,0,1-.45-.52V6.49a5.25,5.25,0,0,0,.62.12L9.59,7.85a.54.54,0,0,1,.46.52ZM9.7,7.11,5.23,6.44A4.11,4.11,0,0,1,13.4,7a4,4,0,0,1-2.61,3.72V8.37A1.28,1.28,0,0,0,9.7,7.11Zm1.09,5.46V11.48A4.78,4.78,0,0,0,14.14,7,4.85,4.85,0,0,0,4.5,6.33L3.38,6.16a5.88,5.88,0,0,1,5.91-5,5.9,5.9,0,0,1,6,5.82A5.86,5.86,0,0,1,10.79,12.57Z" />
</svg>
