<svg viewBox="0 0 24 24" xmlns="http://www.w3.org/2000/svg">
    <path fill-rule="evenodd" clip-rule="evenodd"
        d="M10 5.41421L7.17574 8.23847C7.16402 8.25019 7.15202 8.26226 7.13972 8.27463C7.00579 8.40927 6.83714 8.57882 6.63079 8.70527C6.45185 8.81493 6.25676 8.89574 6.05268 8.94473C5.81735 9.00123 5.57821 9.00059 5.3883 9.00009C5.37086 9.00004 5.35383 8.99999 5.33726 8.99999H3.60001C3.30348 8.99999 3.14122 9.00077 3.02464 9.0103C3.02 9.01068 3.0156 9.01106 3.01145 9.01144C3.01107 9.01559 3.01069 9.01998 3.01031 9.02463C3.00078 9.14121 3.00001 9.30347 3.00001 9.59999V14.4C3.00001 14.6965 3.00078 14.8588 3.01031 14.9754C3.01069 14.98 3.01107 14.9844 3.01145 14.9885C3.0156 14.9889 3.02 14.9893 3.02464 14.9897C3.14122 14.9992 3.30348 15 3.60001 15H5.33726C5.35383 15 5.37086 14.9999 5.3883 14.9999C5.57821 14.9994 5.81735 14.9988 6.05268 15.0553C6.25676 15.1042 6.45185 15.1851 6.63079 15.2947C6.83715 15.4212 7.00579 15.5907 7.13972 15.7254C7.15202 15.7377 7.16403 15.7498 7.17574 15.7615L10 18.5858V5.41421ZM10.3823 2.71172C10.861 2.67405 11.3288 2.86781 11.6406 3.23293C11.9199 3.55988 11.9642 3.95313 11.9811 4.14402C12.0001 4.35799 12 4.62375 12 4.89413C12 4.90653 12 4.91895 12 4.93136L12 19.1059C12 19.3762 12.0001 19.642 11.9811 19.856C11.9642 20.0469 11.9199 20.4401 11.6406 20.7671C11.3288 21.1322 10.861 21.3259 10.3823 21.2883C9.95368 21.2545 9.64424 21.0078 9.4973 20.8848C9.33259 20.7469 9.1447 20.559 8.95355 20.3678L5.76153 17.1757C5.6689 17.0831 5.6225 17.037 5.58738 17.005C5.58646 17.0042 5.58557 17.0033 5.58472 17.0026C5.58358 17.0025 5.58238 17.0025 5.58114 17.0024C5.53365 17.0002 5.46826 17 5.33726 17L3.56812 17C3.31574 17 3.06994 17.0001 2.86178 16.983C2.63318 16.9644 2.36345 16.9203 2.09202 16.782C1.7157 16.5903 1.40974 16.2843 1.21799 15.908C1.07969 15.6366 1.03563 15.3668 1.01695 15.1382C0.999943 14.9301 0.999973 14.6843 1 14.4319L1.00001 9.59999C1.00001 9.58935 1 9.57872 1 9.5681C0.999973 9.31571 0.999943 9.06992 1.01695 8.86176C1.03563 8.63317 1.07969 8.36344 1.21799 8.09201C1.40974 7.71569 1.7157 7.40973 2.09202 7.21798C2.36345 7.07968 2.63318 7.03562 2.86178 7.01694C3.06993 6.99993 3.31572 6.99996 3.56811 6.99999C3.57873 6.99999 3.58936 6.99999 3.60001 6.99999H5.33726C5.46826 6.99999 5.53365 6.99975 5.58114 6.99758C5.58238 6.99753 5.58358 6.99747 5.58472 6.99741C5.58557 6.99664 5.58646 6.99584 5.58738 6.995C5.6225 6.96295 5.6689 6.91689 5.76153 6.82426L8.92721 3.65857C8.93599 3.64979 8.94477 3.64101 8.95354 3.63224C9.1447 3.44103 9.33259 3.25308 9.4973 3.11518C9.64424 2.99217 9.95368 2.74546 10.3823 2.71172ZM19.9757 3.60425L20.5597 4.41602C22.0953 6.55072 23 9.17119 23 12C23 14.8288 22.0953 17.4493 20.5597 19.584L19.9757 20.3957L18.3522 19.2278L18.9361 18.416C20.2352 16.6103 21 14.3959 21 12C21 9.60407 20.2352 7.38974 18.9361 5.58396L18.3522 4.77219L19.9757 3.60425ZM15.9934 6.60771L16.5655 7.4279C17.4696 8.7241 18 10.3016 18 12C18 13.6984 17.4696 15.2759 16.5655 16.5721L15.9934 17.3923L14.353 16.2481L14.9251 15.4279C15.6027 14.4564 16 13.2761 16 12C16 10.7239 15.6027 9.54355 14.9251 8.57209L14.353 7.75191L15.9934 6.60771Z"
        fill="currentColor" />
</svg>