<svg width="24" height="24" viewBox="0 0 24 24" fill="none" xmlns="http://www.w3.org/2000/svg">
<rect fill="currentColor" x="16" y="11.3734" width="1.4" height="8" rx="0.7" transform="rotate(90 16 11.3734)" />
<path fill="currentColor" d="M12.7 15.3C12.7 15.6866 12.3866 16 12 16V16C11.6134 16 11.3 15.6866 11.3 15.3L11.3 8.7C11.3 8.3134 11.6134 8 12 8V8C12.3866 8 12.7 8.3134 12.7 8.7L12.7 15.3Z" />
<path fill="currentColor" fill-rule="evenodd" clip-rule="evenodd" d="M15.2949 6.3234C15.0216 6.59677 14.5784 6.59677 14.305 6.3234L11.9715 3.98995L9.63809 6.3234C9.36472 6.59677 8.92151 6.59677 8.64814 6.3234C8.37477 6.05004 8.37477 5.60682 8.64814 5.33346L11.4766 2.50503C11.7499 2.23166 12.1931 2.23166 12.4665 2.50503L15.2949 5.33346C15.5683 5.60682 15.5683 6.05004 15.2949 6.3234Z" />
<path fill="currentColor" fill-rule="evenodd" clip-rule="evenodd" d="M8.70506 17.3335C8.97842 17.0601 9.42164 17.0601 9.69501 17.3335L12.0285 19.6669L14.3619 17.3335C14.6353 17.0601 15.0785 17.0601 15.3519 17.3335C15.6252 17.6068 15.6252 18.05 15.3519 18.3234L12.5234 21.1518C12.2501 21.4252 11.8069 21.4252 11.5335 21.1518L8.70506 18.3234C8.43169 18.05 8.43169 17.6068 8.70506 17.3335Z" />
<path fill="currentColor" fill-rule="evenodd" clip-rule="evenodd" d="M17.3334 15.295C17.06 15.0216 17.06 14.5784 17.3334 14.305L19.6668 11.9716L17.3334 9.63812C17.06 9.36475 17.06 8.92154 17.3334 8.64817C17.6068 8.3748 18.05 8.3748 18.3233 8.64817L21.1518 11.4766C21.4251 11.75 21.4251 12.1932 21.1518 12.4665L18.3233 15.295C18.05 15.5683 17.6068 15.5683 17.3334 15.295Z" />
<path fill="currentColor" fill-rule="evenodd" clip-rule="evenodd" d="M6.32334 15.295C6.59671 15.0216 6.59671 14.5784 6.32334 14.305L3.98989 11.9716L6.32334 9.63812C6.59671 9.36475 6.59671 8.92154 6.32334 8.64817C6.04998 8.3748 5.60676 8.3748 5.3334 8.64817L2.50497 11.4766C2.2316 11.75 2.2316 12.1932 2.50497 12.4665L5.33339 15.295C5.60676 15.5683 6.04998 15.5683 6.32334 15.295Z" />
</svg>
