<svg viewBox="0 0 24 24" xmlns="http://www.w3.org/2000/svg">
    <path fill-rule="evenodd" clip-rule="evenodd"
        d="M16.79 3.17L20.09 6.47C20.84 7.22079 21.2608 8.23882 21.26 9.3V13.96C21.2608 15.0212 20.84 16.0392 20.09 16.79L16.79 20.09C16.0392 20.84 15.0212 21.2608 13.96 21.26H9.3C8.23882 21.2608 7.22079 20.84 6.47 20.09L3.17 16.79C2.42005 16.0392 1.99917 15.0212 2 13.96V9.3C1.99917 8.23882 2.42005 7.22079 3.17 6.47L6.47 3.17C7.22079 2.42005 8.23882 1.99917 9.3 2H13.96C15.0212 1.99917 16.0392 2.42005 16.79 3.17ZM18.9 15.63C19.3379 15.1855 19.5793 14.5839 19.57 13.96V9.27C19.5713 8.65644 19.3306 8.06713 18.9 7.63L15.63 4.36C15.1782 3.91452 14.5643 3.67255 13.93 3.69H9.27C8.65644 3.68869 8.06713 3.92945 7.63 4.36L4.36 7.63C3.92206 8.07449 3.6807 8.67608 3.69 9.3V13.99C3.68869 14.6036 3.92945 15.1929 4.36 15.63L7.63 18.9C8.07449 19.3379 8.67608 19.5793 9.3 19.57H13.99C14.6036 19.5713 15.1929 19.3306 15.63 18.9L18.9 15.63Z"
        fill="currentColor" />
    <path
        d="M11.6299 13.49C11.2157 13.49 10.8799 13.8258 10.8799 14.24C10.8799 14.6542 11.2157 14.99 11.6299 14.99C12.0441 14.99 12.3799 14.6542 12.3799 14.24C12.3799 13.8258 12.0441 13.49 11.6299 13.49V13.49Z"
        fill="currentColor" />
    <path
        d="M11.6299 12.12C12.0418 12.1146 12.3745 11.782 12.3799 11.37V8.27002C12.3799 7.85581 12.0441 7.52002 11.6299 7.52002C11.2157 7.52002 10.8799 7.85581 10.8799 8.27002V11.37C10.8853 11.782 11.2179 12.1146 11.6299 12.12Z"
        fill="currentColor" />
</svg>