<svg viewBox="0 0 24 24" fill="none" xmlns="http://www.w3.org/2000/svg">
    <path fill-rule="evenodd" clip-rule="evenodd"
        d="M17.7927 3.35339C17.1713 3.35496 16.6667 3.86776 16.6667 4.49022V10.1203H19.04C19.5995 10.1203 19.9914 9.9435 20.242 9.68918C20.4925 9.43485 20.6667 9.03708 20.6667 8.46917V6.28571C20.6667 5.48241 20.3438 4.74873 19.8204 4.20919C19.303 3.68489 18.5824 3.36161 17.7927 3.35339ZM15.3334 4.49022C15.3334 3.11063 16.4451 2 17.7956 2H17.8017L17.8017 2.00003C18.9477 2.0107 20.003 2.48057 20.7648 3.25384L20.768 3.25714L20.768 3.25715C21.5236 4.03475 22 5.10489 22 6.28571V8.46917C22 9.32682 21.7298 10.093 21.1848 10.6462C20.6398 11.1994 19.885 11.4737 19.04 11.4737H16C15.6319 11.4737 15.3334 11.1707 15.3334 10.797V4.49022Z"
        fill="currentColor" />
    <path fill-rule="evenodd" clip-rule="evenodd"
        d="M3.00701 3.2961C3.77347 2.45205 4.94901 2 6.52381 2H17.9524C18.3469 2 18.6667 2.30412 18.6667 2.67927C18.6667 3.05442 18.3469 3.35854 17.9524 3.35854C17.2993 3.35854 16.7619 3.86955 16.7619 4.49066V19.8875C16.7619 21.1933 15.1938 21.931 14.098 21.1574L14.0958 21.1558L12.4597 19.9912C12.3776 19.9311 12.2463 19.9346 12.1622 20.0146L10.5622 21.5361C9.91184 22.1546 8.85006 22.1546 8.19969 21.5361L8.19817 21.5347L6.61873 20.0236C6.61856 20.0235 6.61891 20.0238 6.61873 20.0236C6.52422 19.9342 6.38823 19.9298 6.29524 19.9961L4.66942 21.1535C4.66879 21.1539 4.66815 21.1544 4.66752 21.1548C3.56449 21.9473 2 21.1948 2 19.8875V6.30205C2 5.21262 2.25746 4.12153 3.00701 3.2961ZM15.6207 3.35854H6.52381C5.24147 3.35854 4.51224 3.71709 4.08823 4.18403C3.6473 4.66959 3.42857 5.38989 3.42857 6.30205V19.8875C3.42857 20.0829 3.65276 20.1815 3.80677 20.0706L3.81006 20.0682L5.4381 18.9093C6.10683 18.4323 7.0377 18.5008 7.62889 19.063L7.6304 19.0644L9.20984 20.5755C9.21001 20.5757 9.20967 20.5753 9.20984 20.5755C9.30239 20.663 9.45975 20.6633 9.55207 20.5755L11.1521 19.0539C11.7334 18.5011 12.666 18.4313 13.3265 18.9112L14.9496 20.0666C14.9499 20.0668 14.9501 20.067 14.9504 20.0672C15.1117 20.1802 15.3333 20.0667 15.3333 19.8875V4.49066C15.3333 4.0835 15.4371 3.69856 15.6207 3.35854Z"
        fill="currentColor" />
    <path fill-rule="evenodd" clip-rule="evenodd"
        d="M11.8247 7.46252C12.0585 7.7283 12.0585 8.15922 11.8247 8.42501L7.46643 13.3796C7.23264 13.6454 6.85359 13.6454 6.6198 13.3796C6.38601 13.1139 6.38601 12.6829 6.6198 12.4171L10.978 7.46252C11.2118 7.19674 11.5909 7.19674 11.8247 7.46252Z"
        fill="currentColor" />
    <path fill-rule="evenodd" clip-rule="evenodd"
        d="M10.8889 12.5264C10.8889 11.945 11.3842 11.4738 11.9951 11.4738H12.005C12.6159 11.4738 13.1111 11.945 13.1111 12.5264C13.1111 13.1077 12.6159 13.579 12.005 13.579H11.9951C11.3842 13.579 10.8889 13.1077 10.8889 12.5264Z"
        fill="currentColor" />
    <path fill-rule="evenodd" clip-rule="evenodd"
        d="M5.33337 8.31582C5.33337 7.73446 5.82861 7.26318 6.43952 7.26318H6.44945C7.06036 7.26318 7.5556 7.73446 7.5556 8.31582C7.5556 8.89717 7.06036 9.36845 6.44945 9.36845H6.43952C5.82861 9.36845 5.33337 8.89717 5.33337 8.31582Z"
        fill="currentColor" />
</svg>