<svg viewBox="0 0 24 24" xmlns="http://www.w3.org/2000/svg">
    <path fill-rule="evenodd" clip-rule="evenodd"
        d="M8.9998 6.2998H8.1998C6.87432 6.2998 5.7998 7.37432 5.7998 8.6998V17.2998C5.7998 18.6253 6.87432 19.6998 8.1998 19.6998H15.7998C17.1253 19.6998 18.1998 18.6253 18.1998 17.2998V8.6998C18.1998 7.37432 17.1253 6.2998 15.7998 6.2998H14.9998V7.4998H15.7998C16.4625 7.4998 16.9998 8.03706 16.9998 8.6998V17.2998C16.9998 17.9625 16.4625 18.4998 15.7998 18.4998H8.1998C7.53706 18.4998 6.9998 17.9625 6.9998 17.2998V8.6998C6.9998 8.03706 7.53706 7.4998 8.1998 7.4998H8.9998V6.2998Z"
        fill="currentColor" />
    <path fill-rule="evenodd" clip-rule="evenodd"
        d="M8.3999 5.9999C8.3999 5.39239 8.89239 4.8999 9.4999 4.8999H14.4999C15.1074 4.8999 15.5999 5.39239 15.5999 5.9999V7.4999C15.5999 8.10742 15.1074 8.5999 14.4999 8.5999H9.4999C8.89239 8.5999 8.3999 8.10742 8.3999 7.4999V5.9999ZM9.5999 6.0999V7.3999H14.3999V6.0999H9.5999Z"
        fill="currentColor" />
    <path d="M9 12.5H15" stroke="currentColor" stroke-width="1.2" stroke-linecap="round" />
    <path d="M9 15.5H13" stroke="currentColor" stroke-width="1.2" stroke-linecap="round" />
</svg>