<svg viewBox="0 0 24 24" xmlns="http://www.w3.org/2000/svg">
    <path fill-rule="evenodd" clip-rule="evenodd"
        d="M5.08094 15.0213C5.76981 13.7726 7.08389 12.998 8.50999 13C10.1972 13.025 11.6781 14.1295 12.183 15.7396C12.6879 17.3497 12.1029 19.102 10.7321 20.086C9.36131 21.07 7.51391 21.0635 6.14999 20.07L4.69999 21.58C4.55681 21.7241 4.36307 21.8066 4.15999 21.81C3.96561 21.812 3.77845 21.7365 3.63999 21.6C3.34754 21.3072 3.34754 20.8328 3.63999 20.54L5.08999 19H5.19999C4.4377 17.7947 4.39208 16.27 5.08094 15.0213ZM6.09999 16.91C6.09999 18.241 7.17899 19.32 8.50999 19.32V19.29C9.82937 19.2901 10.9036 18.2293 10.92 16.91C10.92 15.579 9.841 14.5 8.50999 14.5C7.17899 14.5 6.09999 15.579 6.09999 16.91Z"
        fill="currentColor" />
    <path fill-rule="evenodd" clip-rule="evenodd"
        d="M13.35 2.38003L20.35 9.38003C20.5168 9.51885 20.6152 9.7231 20.62 9.94003V16.94C20.62 18.1998 20.1195 19.408 19.2287 20.2988C18.3379 21.1896 17.1298 21.69 15.87 21.69H13C12.5858 21.69 12.25 21.3542 12.25 20.94C12.25 20.5258 12.5858 20.19 13 20.19H15.82C17.6149 20.19 19.07 18.735 19.07 16.94V10.69H14.82C13.3035 10.6845 12.0755 9.45654 12.07 7.94003V3.69003H9.81998C8.02733 3.69552 6.57547 5.14739 6.56998 6.94003V11.94C6.56998 12.3542 6.23419 12.69 5.81998 12.69C5.40577 12.69 5.06998 12.3542 5.06998 11.94V6.94003C5.06199 5.67507 5.55891 4.45916 6.45057 3.56187C7.34224 2.66457 8.55499 2.16001 9.81998 2.16003H12.82C13.0188 2.16021 13.2095 2.23934 13.35 2.38003ZM13.57 4.72003V7.94003C13.57 8.63039 14.1296 9.19003 14.82 9.19003H18L13.57 4.72003Z"
        fill="currentColor" />
</svg>