<svg viewBox="0 0 24 24" xmlns="http://www.w3.org/2000/svg">
	<path fill-rule="evenodd" clip-rule="evenodd" d="M2.25 3.5625C2.25 3.14829 2.58579 2.8125 3 2.8125H21C21.4142 2.8125 21.75 3.14829 21.75 3.5625C21.75 3.97671 21.4142 4.3125 21 4.3125H3C2.58579 4.3125 2.25 3.97671 2.25 3.5625Z" fill="currentColor" />
	<path fill-rule="evenodd" clip-rule="evenodd" d="M2.25 9.1875C2.25 8.77329 2.58579 8.4375 3 8.4375H8.625C9.03921 8.4375 9.375 8.77329 9.375 9.1875C9.375 9.60171 9.03921 9.9375 8.625 9.9375H3C2.58579 9.9375 2.25 9.60171 2.25 9.1875Z" fill="currentColor" />
	<path fill-rule="evenodd" clip-rule="evenodd" d="M2.25 14.8125C2.25 14.3983 2.58579 14.0625 3 14.0625H8.625C9.03921 14.0625 9.375 14.3983 9.375 14.8125C9.375 15.2267 9.03921 15.5625 8.625 15.5625H3C2.58579 15.5625 2.25 15.2267 2.25 14.8125Z" fill="currentColor" />
	<path fill-rule="evenodd" clip-rule="evenodd" d="M2.25 20.4375C2.25 20.0233 2.58579 19.6875 3 19.6875H21C21.4142 19.6875 21.75 20.0233 21.75 20.4375C21.75 20.8517 21.4142 21.1875 21 21.1875H3C2.58579 21.1875 2.25 20.8517 2.25 20.4375Z" fill="currentColor" />
	<path fill-rule="evenodd" clip-rule="evenodd" d="M15.9375 8.25C14.1771 8.25 12.75 9.67709 12.75 11.4375C12.75 13.1979 14.1771 14.625 15.9375 14.625C17.6979 14.625 19.125 13.1979 19.125 11.4375C19.125 9.67709 17.6979 8.25 15.9375 8.25ZM11.25 11.4375C11.25 8.84867 13.3487 6.75 15.9375 6.75C18.5263 6.75 20.625 8.84867 20.625 11.4375C20.625 14.0263 18.5263 16.125 15.9375 16.125C13.3487 16.125 11.25 14.0263 11.25 11.4375Z" fill="currentColor" />
	<path fill-rule="evenodd" clip-rule="evenodd" d="M20.4697 17.0304L18.2197 14.7804L19.2804 13.7197L21.5304 15.9697C21.8233 16.2626 21.8233 16.7375 21.5304 17.0304C21.2375 17.3233 20.7626 17.3233 20.4697 17.0304Z" fill="currentColor" />
</svg>
