<svg viewBox="0 0 24 24" fill="none" xmlns="http://www.w3.org/2000/svg">
    <path fill-rule="evenodd" clip-rule="evenodd"
        d="M18 0C21.3137 0 24 2.68629 24 6V18C24 21.3137 21.3137 24 18 24H5.99995C2.68624 24 -4.95911e-05 21.3137 -4.95911e-05 18V6C-4.95911e-05 2.68629 2.68624 0 5.99995 0H18ZM9.86855 18.9125C9.71048 19.1011 9.48984 19.2053 9.26078 19.1994C9.0325 19.2006 8.81342 19.0972 8.65301 18.9125C8.31764 18.5307 8.31764 17.9122 8.65301 17.5304L13.5266 12.0018L8.65301 6.47327C8.31764 6.09146 8.31764 5.47294 8.65301 5.09113C8.81273 4.90474 9.0319 4.79962 9.26078 4.79962C9.48965 4.79962 9.70882 4.90474 9.86855 5.09113L15.35 11.3108C15.6853 11.6926 15.6853 12.3111 15.35 12.6929L9.86855 18.9125Z"
        fill="currentColor" />
</svg>