<svg version="1.1" xmlns="http://www.w3.org/2000/svg" xmlns:xlink="http://www.w3.org/1999/xlink" x="0px"
  y="0px" viewBox="0 0 16 16" style="enable-background:new 0 0 16 16;" xml:space="preserve">
  <g>
    <path fill="currentColor" d="M15.1,0C15.6,0,16,0.4,16,0.9v3.6c0,0.5-0.4,0.9-0.9,0.9l-1.5,0v9.1c0,0.8-0.7,1.5-1.5,1.5H3.9c-0.8,0-1.5-0.7-1.5-1.5V5.4
    H0.9C0.4,5.4,0,5,0,4.5c0,0,0,0,0,0V0.9C0,0.4,0.4,0,0.9,0H15.1z M9.3,3.2H3.9c-0.2,0-0.4,0.2-0.4,0.4l0,0v10.9
    c0,0.2,0.2,0.4,0.4,0.5l0,0h5.4L9.3,3.2L9.3,3.2z M12.1,3.2h-1.9v11.8h1.9c0.2,0,0.4-0.2,0.4-0.4l0,0V3.6
    C12.6,3.4,12.4,3.2,12.1,3.2L12.1,3.2L12.1,3.2z M5.8,12.4v1.1h-1v-1.1H5.8z M5.8,10.9v1.1h-1v-1.1H5.8z M5.8,9.4v1.1h-1V9.4H5.8z
     M15,1.1H1v3.3l1.3,0V3.6c0-0.8,0.7-1.5,1.5-1.5h8.3c0.8,0,1.5,0.7,1.5,1.5l0,0.8H15L15,1.1L15,1.1z" />
  </g>
</svg>
