<svg viewBox="0 0 24 24" xmlns="http://www.w3.org/2000/svg">
  <g clip-path="url(#clip0_435_929)">
    <path fill-rule="evenodd" clip-rule="evenodd"
      d="M11.9999 5.5C8.09397 5.5 4.53869 6.99161 1.86899 9.43803L1.13172 10.1136L-0.219482 8.6391L0.517783 7.9635C3.54182 5.19237 7.57438 3.5 11.9999 3.5C16.4254 3.5 20.458 5.19237 23.482 7.9635L24.2193 8.6391L22.8681 10.1136L22.1308 9.43803C19.4611 6.99161 15.9059 5.5 11.9999 5.5ZM12 10.5C9.46667 10.5 7.1555 11.4407 5.39297 12.9933L4.6426 13.6544L3.32057 12.1536L4.07095 11.4926C6.18467 9.6306 8.96152 8.5 12 8.5C15.0385 8.5 17.8153 9.6306 19.9291 11.4926L20.6794 12.1536L19.3574 13.6544L18.607 12.9933C16.8445 11.4407 14.5333 10.5 12 10.5ZM11.9999 15.5C10.8186 15.5 9.73543 15.9084 8.87996 16.5926L8.09898 17.2171L6.84986 15.6552L7.63084 15.0306C8.82807 14.0732 10.3484 13.5 11.9999 13.5C13.6267 13.5 15.1264 14.0562 16.3153 14.9881L17.1023 15.605L15.8685 17.179L15.0814 16.5621C14.2321 15.8964 13.1637 15.5 11.9999 15.5ZM11 18.5H13.01V20.5H11V18.5Z"
      fill="currentColor" />
  </g>
  <defs>
    <clipPath id="clip0_435_929">
      <rect width="24" height="24" fill="currentColor" />
    </clipPath>
  </defs>
</svg>