<svg viewBox="0 0 24 24" xmlns="http://www.w3.org/2000/svg">
    <path fill-rule="evenodd" clip-rule="evenodd"
        d="M21.0449 9.98488C20.5132 9.89233 19.9746 9.84549 19.4349 9.84488C16.8897 9.84488 14.449 10.8566 12.6502 12.6573C10.8514 14.4579 9.84223 16.8997 9.84488 19.4449C9.84052 19.9815 9.8874 20.5172 9.98488 21.0449C5.17255 20.2278 1.74176 15.9264 2.01526 11.0528C2.28877 6.17931 6.17931 2.28877 11.0528 2.01526C15.9264 1.74176 20.2278 5.17255 21.0449 9.98488ZM9.9249 3.64747C6.16941 4.43873 3.48474 7.75696 3.4949 11.5949C3.48592 14.8174 5.39725 17.7355 8.3549 19.0149C8.56974 13.2138 13.2144 8.55603 19.0149 8.32488C17.4757 4.80913 13.6804 2.8562 9.9249 3.64747Z"
        fill="currentColor" />
    <path fill-rule="evenodd" clip-rule="evenodd"
        d="M19.6449 11.0449C20.1175 11.0442 20.5892 11.0844 21.0549 11.1649C21.1436 11.6329 21.1872 12.1085 21.1849 12.5849C21.1849 14.8303 20.2922 16.9837 18.7035 18.5705C17.1148 20.1574 14.9604 21.0475 12.7149 21.0449C12.2423 21.0455 11.7706 21.0054 11.3049 20.9249C11.219 20.4565 11.1789 19.981 11.1849 19.5049C11.1849 14.8325 14.9726 11.0449 19.6449 11.0449ZM19.7149 12.5449C15.8489 12.5449 12.7149 15.6789 12.7149 19.5449C14.5714 19.5449 16.3519 18.8074 17.6646 17.4946C18.9774 16.1819 19.7149 14.4014 19.7149 12.5449Z"
        fill="currentColor" />
</svg>