<svg version="1.1" xmlns="http://www.w3.org/2000/svg" xmlns:xlink="http://www.w3.org/1999/xlink" x="0px" y="0px"
	 viewBox="0 0 16 16" style="enable-background:new 0 0 16 16;" xml:space="preserve">
<g>
	<g transform="translate(-231.000000, -544.000000)">
		<g id="zhiyajiezhiya" transform="translate(231.000000, 544.000000)">
			<path fill="currentColor" d="M15.2,16h-5c-0.5,0-0.9-0.4-0.9-0.9v-2.5c0-0.5,0.4-0.9,0.9-0.9h0.2v-0.8c0-1.3,1-2.3,2.2-2.3
				c1.2,0,2.3,0.9,2.4,2.1c0,0.2,0,0.4-0.2,0.5c-0.2,0.1-0.4,0.1-0.5,0s-0.3-0.3-0.3-0.5c0-0.7-0.6-1.2-1.3-1.2s-1.2,0.6-1.2,1.3
				v0.8h3.8c0.5,0,0.9,0.4,0.9,0.9v2.5C16,15.6,15.6,16,15.2,16z M14.9,13.1c0-0.2-0.2-0.4-0.4-0.4h-4c-0.2,0-0.4,0.2-0.4,0.4v1.4
				c0,0.2,0.2,0.4,0.4,0.4h4c0.2,0,0.4-0.2,0.4-0.4V13.1z M4.2,12h3.4C7.8,12,8,12.2,8,12.5s-0.2,0.5-0.5,0.5H3.7
				c-0.4,0-0.8-0.3-0.8-0.8V3.6c0-0.4,0.3-0.8,0.8-0.8H11c0.4,0,0.8,0.3,0.8,0.8v3.2c0,0.3-0.2,0.5-0.5,0.5s-0.5-0.2-0.5-0.5V4.1
				c0-0.2-0.1-0.3-0.3-0.3H4.2C4,3.8,3.9,3.9,3.9,4.1v7.6C3.9,11.9,4,12,4.2,12L4.2,12z M14.1,7.2c-0.3,0-0.6-0.3-0.6-0.6V1.7
				c0-0.2-0.2-0.4-0.4-0.4H1.6c-0.2,0-0.4,0.2-0.4,0.4v12.6c0,0.2,0.2,0.4,0.4,0.4h5.7C7.7,14.7,8,15,8,15.4C8,15.7,7.7,16,7.4,16
				H1.1C0.5,16,0,15.5,0,15V1c0-0.6,0.5-1,1.1-1h12.6c0.6,0,1.1,0.5,1.1,1v5.5C14.7,7,14.4,7.2,14.1,7.2z"/>
		</g>
	</g>
</g>
</svg>
