<svg viewBox="0 0 24 24" fill="none" xmlns="http://www.w3.org/2000/svg">
  <path
    d="M15.58 11.39C15.7228 11.5272 15.912 11.6057 16.11 11.61C16.3084 11.6077 16.4983 11.5289 16.64 11.39L19.57 8.46001C19.6401 8.38869 19.6946 8.30355 19.73 8.21001C19.8096 8.02835 19.8096 7.82167 19.73 7.64001C19.6921 7.55075 19.6378 7.46936 19.57 7.40001L16.64 4.47001C16.453 4.26935 16.1714 4.18676 15.9057 4.25462C15.64 4.32248 15.4325 4.52998 15.3646 4.79572C15.2968 5.06145 15.3793 5.34304 15.58 5.53001L17.23 7.18001H10.14C7.26812 7.18001 4.94 9.50813 4.94 12.38V14.66C4.95021 17.432 7.16863 19.6904 9.94 19.75H17.12C17.3233 19.7554 17.5202 19.6791 17.6668 19.5381C17.8134 19.3972 17.8974 19.2033 17.9 19V19C17.9 18.5897 17.5703 18.2555 17.16 18.25H10C8.00127 18.1904 6.4137 16.5496 6.42 14.55V12.38C6.42 10.3366 8.07655 8.68001 10.12 8.68001H17.21L15.56 10.33C15.273 10.6283 15.282 11.1027 15.58 11.39Z"
    fill="currentColor" />
</svg>
