<svg xmlns="http://www.w3.org/2000/svg" viewBox="0 0 16 16">
  <path fill="currentColor" d="M3.39,14.25a.6.6,0,1,0-.6-.6A.6.6,0,0,0,3.39,14.25Z" />
  <path
    fill="currentColor"
    d="M8.69,6.75a2.48,2.48,0,0,0,2-1,2.49,2.49,0,0,0,4.5-1.46h0a.54.54,0,0,0,0-.22s0,0,0,0L13.29.52a.5.5,0,0,0-.45-.27H4.54a.5.5,0,0,0-.45.27L2.25,4a0,0,0,0,1,0,0,.54.54,0,0,0-.05.22h0a2.49,2.49,0,0,0,4.5,1.46A2.48,2.48,0,0,0,8.69,6.75Zm0-1a1.51,1.51,0,0,1-1.41-1H10.1A1.51,1.51,0,0,1,8.69,5.75Zm4,0a1.51,1.51,0,0,1-1.41-1H14.1A1.51,1.51,0,0,1,12.69,5.75ZM4.84,1.25h7.7l1.32,2.5H3.52Zm-.15,4.5a1.51,1.51,0,0,1-1.41-1H6.1A1.51,1.51,0,0,1,4.69,5.75Z" />
  <path fill="currentColor" d="M14.83,13.25h-.5V7.75a.5.5,0,0,0-.5-.5.5.5,0,0,0-.5.5v5.5H7.83a.5.5,0,1,0,0,1h7a.5.5,0,0,0,0-1Z" />
  <path
    fill="currentColor"
    d="M5.62,7.71H1.17a.5.5,0,0,0-.5.5v7a.5.5,0,0,0,.5.5H5.62a.5.5,0,0,0,.5-.5v-7A.5.5,0,0,0,5.62,7.71Zm-.5,7H1.67v-6H5.12Z" />
</svg>
