<svg viewBox="0 0 24 24" fill="none" xmlns="http://www.w3.org/2000/svg">
  <path d="M3 21C3 19.0803 3.76623 17.2393 5.13013 15.8819C6.49403 14.5245 8.34388 13.7619 10.2727 13.7619C12.2016 13.7619 14.0514 14.5245 15.4153 15.8819C16.7792 17.2393 17.5455 19.0803 17.5455 21H3ZM10.2727 12.8571C7.25909 12.8571 4.81818 10.4279 4.81818 7.42857C4.81818 4.42929 7.25909 2 10.2727 2C13.2864 2 15.7273 4.42929 15.7273 7.42857C15.7273 10.4279 13.2864 12.8571 10.2727 12.8571ZM19.3636 16.4762H23V18.2857H19.3636V16.4762ZM16.6364 11.9524H23V13.7619H16.6364V11.9524ZM18.4545 7.42857H23V9.2381H18.4545V7.42857Z" stroke="currentColor" />
</svg>
