<svg version="1.1" xmlns="http://www.w3.org/2000/svg" xmlns:xlink="http://www.w3.org/1999/xlink" x="0px" y="0px"
	viewBox="0 0 16 16" style="enable-background:new 0 0 16 16;" xml:space="preserve">
	<g>
		<g transform="translate(-227.000000, -770.000000)">
			<g id="icon-tiqianshuhui" transform="translate(227.000000, 770.000000)">
				<path fill="currentColor" d="M15.9,9.8l-1.3-2.2c0-0.1-0.1-0.1-0.1-0.1l-0.1-0.1c-0.1,0-0.1-0.1-0.1-0.1c-0.1,0-0.1-0.1-0.1-0.1h-0.3
				c-0.1,0-0.1,0-0.1,0.1c-0.1,0-0.1,0-0.1,0.1l-2.2,1.4c-0.2,0.1-0.3,0.3-0.3,0.4s0,0.4,0.1,0.5c0.1,0.2,0.4,0.4,0.6,0.3
				c0.1,0,0.2,0,0.3-0.1l0.8-0.5c-0.4,2.6-2.6,4.4-5.2,4.4c-2,0-3.8-1.1-4.7-2.9c-0.1-0.2-0.2-0.3-0.4-0.3s-0.4,0-0.5,0.1
				c-0.2,0-0.3,0.2-0.4,0.3c-0.1,0.2,0,0.4,0.1,0.5c1.3,2.6,4,4,6.9,3.6c2.8-0.4,5-2.6,5.5-5.4l0.5,0.8c0.1,0.2,0.4,0.4,0.6,0.3
				c0.1,0,0.2,0,0.3-0.1C16,10.6,16.1,10.1,15.9,9.8L15.9,9.8z M1.9,8.7L2,8.9l0.1,0.1C2.2,9,2.3,9,2.4,9c0.1,0,0.2,0,0.3-0.1
				c0,0,0,0,0,0c0,0,0,0,0,0c0.1,0,0.1,0,0.1-0.1L4.7,7C5,6.7,5,6.3,4.7,6S4,5.7,3.8,6L2.9,6.8c0.3-2.7,2.6-4.7,5.2-4.7
				c2,0,3.8,1.1,4.6,2.9c0.2,0.3,0.6,0.5,0.9,0.3C14,5.2,14.2,4.8,14,4.5c-1.1-2.2-3.4-3.7-5.9-3.7H8.1C4.8,0.8,2,3.2,1.5,6.5
				L1.2,5.9c-0.3-0.3-0.7-0.3-0.9,0C0,6.1-0.1,6.5,0.1,6.8L1.9,8.7z" />
			</g>
		</g>
	</g>
</svg>
