<svg viewBox="0 0 24 24" xmlns="http://www.w3.org/2000/svg">
    <path
        d="M18.666 13.8749C19.7015 13.8749 20.541 13.0355 20.541 12C20.541 10.9645 19.7015 10.125 18.666 10.125C17.6305 10.125 16.791 10.9645 16.791 12C16.791 13.0355 17.6305 13.8749 18.666 13.8749Z"
        fill="currentColor" />
    <path
        d="M18.666 7.20991C19.7015 7.20991 20.541 6.37045 20.541 5.33493C20.541 4.29942 19.7015 3.45996 18.666 3.45996C17.6305 3.45996 16.791 4.29942 16.791 5.33493C16.791 6.37045 17.6305 7.20991 18.666 7.20991Z"
        fill="currentColor" />
    <path
        d="M18.666 20.541C19.7015 20.541 20.541 19.7015 20.541 18.666C20.541 17.6305 19.7015 16.791 18.666 16.791C17.6305 16.791 16.791 17.6305 16.791 18.666C16.791 19.7015 17.6305 20.541 18.666 20.541Z"
        fill="currentColor" />
    <path
        d="M5.33396 13.8749C6.36948 13.8749 7.20893 13.0355 7.20893 12C7.20893 10.9645 6.36948 10.125 5.33396 10.125C4.29844 10.125 3.45898 10.9645 3.45898 12C3.45898 13.0355 4.29844 13.8749 5.33396 13.8749Z"
        fill="currentColor" />
    <path
        d="M17.8325 12.6265C18.1742 12.6265 18.4575 12.3432 18.4575 12.0015C18.4575 11.6599 18.1742 11.3765 17.8325 11.3765H11.7909V7.83492C11.7909 6.51827 12.3493 5.95994 13.6659 5.95994H17.8325C18.1742 5.95994 18.4575 5.67661 18.4575 5.33495C18.4575 4.99329 18.1742 4.70996 17.8325 4.70996H13.6659C11.6493 4.70996 10.5409 5.81828 10.5409 7.83492V11.3765H6.16601C5.82435 11.3765 5.54102 11.6599 5.54102 12.0015C5.54102 12.3432 5.82435 12.6265 6.16601 12.6265H10.5409V16.1681C10.5409 18.1848 11.6493 19.2931 13.6659 19.2931H17.8325C18.1742 19.2931 18.4575 19.0098 18.4575 18.6681C18.4575 18.3264 18.1742 18.0431 17.8325 18.0431H13.6659C12.3493 18.0431 11.7909 17.4848 11.7909 16.1681V12.6265H17.8325Z"
        fill="currentColor" />
</svg>