<svg viewBox="0 0 24 24" fill="none" xmlns="http://www.w3.org/2000/svg">
  <path fill-rule="evenodd" clip-rule="evenodd" d="M12.323 7.82313C12.6969 8.00154 12.8553 8.44922 12.6769 8.82304L11.189 11.9405H14C14.2626 11.9405 14.506 12.0778 14.6419 12.3025C14.7777 12.5272 14.7861 12.8066 14.6641 13.0391L12.664 16.8486C12.4715 17.2154 12.0181 17.3566 11.6514 17.164C11.2846 16.9715 11.1434 16.5181 11.336 16.1514L12.7592 13.4405H10C9.74251 13.4405 9.50303 13.3084 9.36566 13.0906C9.22828 12.8728 9.21223 12.5998 9.32314 12.3674L11.3231 8.17694C11.5016 7.80312 11.9492 7.64472 12.323 7.82313Z" fill="currentColor" />
  <path fill-rule="evenodd" clip-rule="evenodd" d="M4.75 11C4.75 6.99594 7.99594 3.75 12 3.75C16.0041 3.75 19.25 6.99594 19.25 11V20.25H4.75V11ZM12 5.25C8.82436 5.25 6.25 7.82436 6.25 11V18.75H17.75V11C17.75 7.82436 15.1756 5.25 12 5.25Z" fill="currentColor" />
  <path fill-rule="evenodd" clip-rule="evenodd" d="M2.75 19.5C2.75 19.0858 3.08579 18.75 3.5 18.75H20.5C20.9142 18.75 21.25 19.0858 21.25 19.5C21.25 19.9142 20.9142 20.25 20.5 20.25H3.5C3.08579 20.25 2.75 19.9142 2.75 19.5Z" fill="currentColor" />
</svg>
