<svg xmlns="http://www.w3.org/2000/svg" viewBox="0 0 16 16">
  <path
    d="M11.85,5H11a.43.43,0,0,0-.43.42V7.19a.44.44,0,0,0,.43.42h.86a.42.42,0,0,0,.42-.42h0V5.36A.41.41,0,0,0,11.85,5Zm1.28-2.56H2.88A1.71,1.71,0,0,0,1.17,4.08v7.79a1.72,1.72,0,0,0,1.71,1.71H13.13a1.7,1.7,0,0,0,1.7-1.71V4.08a1.66,1.66,0,0,0-1.7-1.66Zm-4.7,9.45H3.31A.43.43,0,1,1,3.18,11H8.43a.44.44,0,0,1,.49.36.42.42,0,0,1-.36.49A.29.29,0,0,1,8.43,11.87Zm0-1.71H3.31a.43.43,0,1,1-.13-.85H8.43a.44.44,0,0,1,.49.36.42.42,0,0,1-.36.49Zm4.7-2.56a.87.87,0,0,1-.86.86H10.56a.85.85,0,0,1-.85-.86V5a.85.85,0,0,1,.85-.85h1.71a.85.85,0,0,1,.86.85Z" />
  </svg>
