<svg xmlns="http://www.w3.org/2000/svg" viewBox="0 0 16 16">
  <path
    fill="currentColor"
    d="M12.27,16H3.73a2.64,2.64,0,0,1-2.66-2.67V4.8L5.76,0h6.51a2.64,2.64,0,0,1,2.66,2.67V13.33A2.64,2.64,0,0,1,12.27,16ZM2.13,5.23v8.1a1.64,1.64,0,0,0,1.6,1.6h8.54a1.64,1.64,0,0,0,1.6-1.6V2.67a1.64,1.64,0,0,0-1.6-1.6H6.19Z" />
  <path
    fill="currentColor"
    d="M4.48,5.33H1.92V4.27H4.48a.84.84,0,0,0,.85-.86V.53H6.4V3.41A1.91,1.91,0,0,1,4.48,5.33Zm2.24,6a.63.63,0,0,1-.43-.11L4.16,8.85a.53.53,0,0,1,.75-.74l2.24,2.24a.51.51,0,0,1,0,.74A.57.57,0,0,1,6.72,11.31Z" />
  <path
    fill="currentColor"
    d="M6.72,11.31a.63.63,0,0,1-.43-.11.53.53,0,0,1,0-.75l4.59-4.58a.53.53,0,0,1,.75.74L7.15,11.09a.57.57,0,0,1-.43.22Z" />
  </svg>
