<svg version="1.1" xmlns="http://www.w3.org/2000/svg" xmlns:xlink="http://www.w3.org/1999/xlink" x="0px" y="0px"
   viewBox="0 0 16 16" xml:space="preserve">
  <path fill="currentColor" d="M3.7,4.2c0,2.4,1.9,4.2,4.2,4.2s4.2-1.9,4.2-4.2S10.3,0,8,0l0,0l0,0C5.6,0,3.7,1.9,3.7,4.2z M11.7,8.5h-0.2
  c-0.1,0-0.2,0-0.5,0.1l-0.5,0.2C9.7,9.2,8.9,9.3,8,9.3c-0.8,0-1.8-0.1-2.6-0.5C5.1,8.7,4.9,8.6,4.9,8.6C4.8,8.5,4.7,8.5,4.4,8.5H4.2
  c-1.5,0.2-2.8,1.3-3.3,2.7c-0.4,0.8-0.6,1.8-0.5,2.7c0,0.2,0.1,0.5,0.5,0.6c2.2,1.2,4.7,1.6,7.2,1.5c4.8,0,7.2-1.5,7.2-1.5
  c0.2-0.1,0.4-0.4,0.5-0.7c0-0.9-0.2-1.8-0.5-2.6C14.6,9.8,13.3,8.7,11.7,8.5L11.7,8.5z"/>
</svg>
