<?xml version="1.0" encoding="utf-8"?>
<!-- Generator: Adobe Illustrator 24.1.0, SVG Export Plug-In . SVG Version: 6.00 Build 0)  -->
<svg version="1.1" id="图层_1" xmlns="http://www.w3.org/2000/svg" xmlns:xlink="http://www.w3.org/1999/xlink" x="0px" y="0px"
	 viewBox="0 0 71.9 72.2" style="enable-background:new 0 0 71.9 72.2;" xml:space="preserve">
<style type="text/css">
	.st0{fill:#285A83;}
	.st1{fill:#EF6F53;}
</style>
<g>
	<path class="st0" d="M35.9,72c-19.9,0-36-16.1-36-36S16,0,35.9,0s36,16.1,36,36S55.8,72,35.9,72z M35.9,2c-18.7,0-34,15.3-34,34
		s15.3,34,34,34s34-15.3,34-34S54.7,2,35.9,2z"/>
</g>
<g>
	<path class="st0" d="M52.3,36.7h-8.7c-0.6,0-1-0.4-1-1s0.4-1,1-1h8.7c0.6,0,1,0.4,1,1S52.9,36.7,52.3,36.7z"/>
	<path class="st0" d="M29.4,40.1h-9.3c-0.6,0-1-0.4-1-1s0.4-1,1-1h9.3c0.6,0,1,0.4,1,1S29.9,40.1,29.4,40.1z"/>
	<rect x="39.3" y="21.8" transform="matrix(0.9896 -0.1435 0.1435 0.9896 -2.8159 6.4996)" class="st0" width="8.7" height="2"/>
	<rect x="24.5" y="24" transform="matrix(0.9896 -0.1435 0.1435 0.9896 -3.2925 4.3301)" class="st0" width="7.8" height="2"/>
	<path class="st0" d="M54.6,51.2H17.2c-0.6,0-1-0.4-1-1s0.4-1,1-1h37.5c0.6,0,1,0.4,1,1S55.2,51.2,54.6,51.2z"/>
	<rect x="34.9" y="27.6" class="st0" width="2" height="21.6"/>
	<path class="st1" d="M47.9,41.9c-3.2,0-5.8-2.6-5.8-5.8c0-0.6,0.1-1.1,0.2-1.6L47,21.8c0.1-0.4,0.5-0.7,0.9-0.7s0.8,0.3,0.9,0.7
		l4.6,12.4c0.2,0.6,0.3,1.2,0.3,1.8C53.7,39.3,51.1,41.9,47.9,41.9z M47.9,25l-3.7,10c-0.1,0.3-0.1,0.6-0.1,1c0,2.1,1.7,3.8,3.8,3.8
		s3.8-1.7,3.8-3.8c0-0.4-0.1-0.8-0.2-1.2L47.9,25z"/>
	<path class="st1" d="M24.9,45.3c-3.2,0-5.8-2.6-5.8-5.8c0-0.6,0.1-1.1,0.2-1.6l4.6-12.6c0.1-0.4,0.5-0.7,0.9-0.7c0,0,0,0,0,0
		c0.4,0,0.8,0.3,0.9,0.7l4.6,12.4c0.2,0.6,0.3,1.2,0.3,1.8C30.7,42.7,28.1,45.3,24.9,45.3z M24.9,28.4l-3.7,10
		c-0.1,0.3-0.1,0.6-0.1,1c0,2.1,1.7,3.8,3.8,3.8s3.8-1.7,3.8-3.8c0-0.4-0.1-0.8-0.2-1.2L24.9,28.4z"/>
	<path class="st0" d="M35.9,28.6c-2.5,0-4.5-2-4.5-4.5s2-4.5,4.5-4.5c2.5,0,4.5,2,4.5,4.5S38.4,28.6,35.9,28.6z M35.9,21.6
		c-1.4,0-2.5,1.1-2.5,2.5s1.1,2.5,2.5,2.5s2.5-1.1,2.5-2.5S37.3,21.6,35.9,21.6z"/>
</g>
</svg>
