<?xml version="1.0" encoding="utf-8"?>
<!-- Generator: Adobe Illustrator 24.1.0, SVG Export Plug-In . SVG Version: 6.00 Build 0)  -->
<svg version="1.1" id="图层_1" xmlns="http://www.w3.org/2000/svg" xmlns:xlink="http://www.w3.org/1999/xlink" x="0px" y="0px"
	 viewBox="0 0 16 16" style="enable-background:new 0 0 16 16;" xml:space="preserve">
<style type="text/css">
	.st0{fill:#285A83;}
	.st1{fill:#EF6F53;}
</style>
<g>
	<path class="st0" d="M14.4,1.9h-3V0.7c0-0.3-0.2-0.5-0.5-0.5c-0.3,0-0.5,0.2-0.5,0.5v1.1h-5V0.7c0-0.3-0.2-0.5-0.5-0.5
		c-0.3,0-0.5,0.2-0.5,0.5v1.1h-3C0.7,1.9,0,2.6,0,3.5v10.7c0,0.9,0.7,1.6,1.6,1.6h12.8c0.9,0,1.6-0.7,1.6-1.6V3.5
		C16,2.6,15.3,1.9,14.4,1.9z M1.6,2.8h3v1.1c0,0.3,0.2,0.5,0.5,0.5c0.3,0,0.5-0.2,0.5-0.5V2.8h5v1.1c0,0.3,0.2,0.5,0.5,0.5
		c0.3,0,0.5-0.2,0.5-0.5V2.8h3c0.4,0,0.7,0.3,0.7,0.7V6H0.9V3.5C0.9,3.1,1.2,2.8,1.6,2.8z M14.4,14.8H1.6c-0.4,0-0.7-0.3-0.7-0.7
		V6.9h14.2v7.2C15.1,14.5,14.8,14.8,14.4,14.8z"/>
	<path class="st1" d="M4.7,9.9h-2c-0.3,0-0.5-0.2-0.5-0.5C2.3,9.2,2.5,9,2.7,9h2C5,9,5.2,9.2,5.2,9.4C5.2,9.7,5,9.9,4.7,9.9z"/>
	<path class="st1" d="M9,9.9H7c-0.3,0-0.5-0.2-0.5-0.5C6.5,9.2,6.7,9,7,9h2c0.3,0,0.5,0.2,0.5,0.5C9.5,9.7,9.3,9.9,9,9.9z"/>
	<path class="st1" d="M13.3,9.9h-2c-0.3,0-0.5-0.2-0.5-0.5C10.8,9.2,11,9,11.3,9h2c0.3,0,0.5,0.2,0.5,0.5
		C13.7,9.7,13.5,9.9,13.3,9.9z"/>
	<path class="st1" d="M4.7,12.4h-2c-0.3,0-0.5-0.2-0.5-0.5s0.2-0.5,0.5-0.5h2c0.3,0,0.5,0.2,0.5,0.5S5,12.4,4.7,12.4z"/>
	<path class="st1" d="M9,12.4H7c-0.3,0-0.5-0.2-0.5-0.5s0.2-0.5,0.5-0.5h2c0.3,0,0.5,0.2,0.5,0.5S9.3,12.4,9,12.4z"/>
	<path class="st1" d="M13.3,12.4h-2c-0.3,0-0.5-0.2-0.5-0.5s0.2-0.5,0.5-0.5h2c0.3,0,0.5,0.2,0.5,0.5S13.5,12.4,13.3,12.4z"/>
</g>
</svg>
