<?xml version="1.0" encoding="utf-8"?>
<!-- Generator: Adobe Illustrator 24.1.0, SVG Export Plug-In . SVG Version: 6.00 Build 0)  -->
<svg version="1.1" id="图层_1" xmlns="http://www.w3.org/2000/svg" xmlns:xlink="http://www.w3.org/1999/xlink" x="0px" y="0px"
	 viewBox="0 0 71.9 72.2" style="enable-background:new 0 0 71.9 72.2;" xml:space="preserve">
<style type="text/css">
	.st0{clip-path:url(#SVGID_2_);fill:none;stroke:#285A83;stroke-width:2;stroke-miterlimit:10;}
	
		.st1{clip-path:url(#SVGID_2_);fill:none;stroke:#EF6F53;stroke-width:2;stroke-linecap:round;stroke-linejoin:round;stroke-miterlimit:10;}
	.st2{clip-path:url(#SVGID_4_);fill:none;stroke:#285A83;stroke-width:2;stroke-miterlimit:10;}
	
		.st3{clip-path:url(#SVGID_4_);fill:none;stroke:#EF6F53;stroke-width:2;stroke-linecap:round;stroke-linejoin:round;stroke-miterlimit:10;}
	.st4{fill:#285A83;}
	.st5{fill:#EF6F53;}
</style>
<g>
	<defs>
		<rect id="SVGID_1_" x="-931.6" y="-750.8" width="1920" height="1578"/>
	</defs>
	<clipPath id="SVGID_2_">
		<use xlink:href="#SVGID_1_"  style="overflow:visible;"/>
	</clipPath>
</g>
<g>
	<defs>
		<rect id="SVGID_3_" x="-933.5" y="-739.7" width="1920" height="1578"/>
	</defs>
	<clipPath id="SVGID_4_">
		<use xlink:href="#SVGID_3_"  style="overflow:visible;"/>
	</clipPath>
</g>
<g>
	<path class="st4" d="M35.9,72c-19.9,0-36-16.1-36-36s16.1-36,36-36s36,16.1,36,36S55.8,72,35.9,72z M35.9,2c-18.7,0-34,15.3-34,34
		s15.3,34,34,34s34-15.3,34-34S54.7,2,35.9,2z"/>
</g>
<g>
	<g>
		<path class="st4" d="M50,52.9h-28c-1.9,0-3.5-1.6-3.5-3.5V26.1c0-1.9,1.6-3.5,3.5-3.5h28c1.9,0,3.5,1.6,3.5,3.5v23.3
			C53.4,51.3,51.9,52.9,50,52.9z M21.9,24.6c-0.8,0-1.5,0.7-1.5,1.5v23.3c0,0.8,0.7,1.5,1.5,1.5h28c0.8,0,1.5-0.7,1.5-1.5V26.1
			c0-0.8-0.7-1.5-1.5-1.5H21.9z"/>
	</g>
	<g>
		<path class="st4" d="M30,28.2c-0.6,0-1-0.4-1-1v-7c0-0.6,0.4-1,1-1s1,0.4,1,1v7C31,27.7,30.5,28.2,30,28.2z"/>
	</g>
	<g>
		<path class="st4" d="M42.9,28.2c-0.6,0-1-0.4-1-1v-7c0-0.6,0.4-1,1-1s1,0.4,1,1v7C43.9,27.7,43.5,28.2,42.9,28.2z"/>
	</g>
	<g>
		<path class="st4" d="M52.4,33.6H19.5c-0.6,0-1-0.4-1-1s0.4-1,1-1h32.9c0.6,0,1,0.4,1,1S53,33.6,52.4,33.6z"/>
	</g>
	<g>
		<path class="st5" d="M28.5,47.7c-0.2,0-0.5-0.1-0.7-0.3l-4.3-3.9c-0.4-0.4-0.4-1-0.1-1.4c0.4-0.4,1-0.4,1.4-0.1l3.5,3.1l5.7-8
			c0.3-0.5,0.9-0.6,1.4-0.2s0.6,0.9,0.2,1.4l-6.4,9c-0.2,0.2-0.4,0.4-0.7,0.4C28.6,47.7,28.6,47.7,28.5,47.7z"/>
	</g>
	<g>
		<path class="st4" d="M47.7,38.8h-6.9c-0.6,0-1-0.4-1-1s0.4-1,1-1h6.9c0.6,0,1,0.4,1,1S48.3,38.8,47.7,38.8z"/>
	</g>
	<g>
		<path class="st4" d="M47.7,43.3h-6.9c-0.6,0-1-0.4-1-1s0.4-1,1-1h6.9c0.6,0,1,0.4,1,1S48.3,43.3,47.7,43.3z"/>
	</g>
	<g>
		<path class="st4" d="M47.7,47.9h-6.9c-0.6,0-1-0.4-1-1s0.4-1,1-1h6.9c0.6,0,1,0.4,1,1S48.3,47.9,47.7,47.9z"/>
	</g>
</g>
</svg>
