<?xml version="1.0" encoding="utf-8"?>
<!-- Generator: Adobe Illustrator 24.1.0, SVG Export Plug-In . SVG Version: 6.00 Build 0)  -->
<svg version="1.1" id="图层_1" xmlns="http://www.w3.org/2000/svg" xmlns:xlink="http://www.w3.org/1999/xlink" x="0px" y="0px"
	 viewBox="0 0 16 16" style="enable-background:new 0 0 16 16;" xml:space="preserve">
<style type="text/css">
	.st0{fill:#285A83;}
	.st1{fill:#EF6F53;}
</style>
<g>
	<path class="st0" d="M3.8,12.9H3.4c-0.9,0-1.6-0.7-1.6-1.6v-0.1c0-0.9,0.7-1.6,1.6-1.6h0.5c0.9,0,1.6,0.7,1.6,1.6v0.1
		C5.4,12.2,4.7,12.9,3.8,12.9z M3.4,10.6c-0.4,0-0.7,0.3-0.7,0.7v0.1C2.7,11.7,3,12,3.4,12h0.5c0.4,0,0.7-0.3,0.7-0.7v-0.1
		c0-0.4-0.3-0.7-0.7-0.7H3.4z"/>
	<path class="st0" d="M14.4,14.9H1.6c-0.9,0-1.6-0.7-1.6-1.6V2.6c0-0.9,0.7-1.6,1.6-1.6h12.9c0.9,0,1.6,0.7,1.6,1.6v10.7
		C16,14.2,15.3,14.9,14.4,14.9z M1.6,2C1.2,2,0.9,2.3,0.9,2.6v10.7c0,0.4,0.3,0.7,0.7,0.7h12.9c0.4,0,0.7-0.3,0.7-0.7V2.6
		c0-0.4-0.3-0.7-0.7-0.7H1.6z"/>
	<path class="st1" d="M13.8,4.9H2.2C2,4.9,1.8,4.7,1.8,4.4S2,4,2.2,4h11.5c0.2,0,0.5,0.2,0.5,0.5S14,4.9,13.8,4.9z"/>
	<path class="st1" d="M13.8,7.1H2.2C2,7.1,1.8,6.9,1.8,6.6c0-0.2,0.2-0.5,0.5-0.5h11.5c0.2,0,0.5,0.2,0.5,0.5
		C14.2,6.9,14,7.1,13.8,7.1z"/>
</g>
</svg>
