<svg version="1.1" xmlns="http://www.w3.org/2000/svg" xmlns:xlink="http://www.w3.org/1999/xlink" x="0px" y="0px"
	viewBox="0 0 16 16" style="enable-background:new 0 0 16 16;" xml:space="preserve">
	<style type="text/css">
		.st0 {
			fill: #EF6F53;
		}

		.st1 {
			fill: #606060;
		}
	</style>
	<path class="st0" d="M9.6,3.6c0-1.3-2.1-1.2-2.1-1.8c0-0.3,0.2-0.4,0.6-0.4c0.4,0,0.7,0.1,1,0.4l0.4-0.5C9.3,0.9,8.9,0.7,8.4,0.7V0
	H7.9v0.7C7.2,0.8,6.7,1.2,6.7,1.8c0,1.3,2.1,1.1,2.1,1.8c0,0.3-0.2,0.5-0.7,0.5S7.2,3.9,6.8,3.6L6.6,4.2c0.3,0.3,0.9,0.5,1.3,0.5
	v0.8h0.6V4.7C9.2,4.6,9.6,4.2,9.6,3.6z" />
	<path class="st1" d="M2.9,2.9c0,0.6,0.3,1.6,1.1,1.6s1-1,1-1.6S4.6,1.8,4,1.8S2.9,2.3,2.9,2.9z" />
	<path class="st1" d="M11.1,2.9c0,0.6,0.3,1.6,1.1,1.6s1.1-1,1.1-1.6s-0.5-1.1-1.1-1.1S11.1,2.3,11.1,2.9z" />
	<path class="st1" d="M13.3,5l-0.7,1.1l-0.3-0.8L12.6,5h-0.7l0.3,0.3l-0.3,0.8L11.1,5h-0.3C10.1,5,9.4,6,8,8.2C6.6,6.1,5.9,5,5.2,5
	H2.9C2.3,5,1.7,5.6,1.7,6.2v3.5c0,0.1,0,0.2,0.1,0.3l0.4,0.4c0.1,0.1,0.2,0.3,0.2,0.5l0.2,4.8c0,0.2,0.2,0.3,0.3,0.3h0.3
	c0.2,0,0.3-0.1,0.3-0.3l0.4-4.8c0-0.1,0.1-0.1,0.1-0.1c0.1,0,0.1,0.1,0.1,0.1l0.3,4.8c0,0.2,0.2,0.3,0.3,0.3H5
	c0.2,0,0.3-0.1,0.3-0.3l0.3-8.2L8,9.2l0,0l2.2-1.8l0.3,8.3c0,0.2,0.2,0.3,0.3,0.3h0.3c0.2,0,0.3-0.1,0.3-0.3l0.3-4.9
	c0-0.1,0.1-0.1,0.1-0.1c0.1,0,0.1,0.1,0.1,0.1l0.4,4.9c0,0.2,0.2,0.3,0.3,0.3h0.3c0.2,0,0.3-0.1,0.3-0.3l0.2-4.9
	c0-0.2,0.1-0.3,0.2-0.5L14,9.9c0.1-0.1,0.1-0.2,0.1-0.3V6.2C14.3,5.6,13.9,5.1,13.3,5z" />
</svg>
