<?xml version="1.0" encoding="utf-8"?>
<!-- Generator: Adobe Illustrator 24.1.0, SVG Export Plug-In . SVG Version: 6.00 Build 0)  -->
<svg version="1.1" id="图层_1" xmlns="http://www.w3.org/2000/svg" xmlns:xlink="http://www.w3.org/1999/xlink" x="0px" y="0px"
	 viewBox="0 0 16 16" style="enable-background:new 0 0 16 16;" xml:space="preserve">
<style type="text/css">
	.st0{fill:#285A83;}
	.st1{fill:#EF6F53;}
</style>
<g>
	<path class="st0" d="M3.8,16H3c-0.8,0-1.5-0.7-1.5-1.5v-2.8c0-0.8,0.7-1.5,1.5-1.5h0.8c0.8,0,1.5,0.7,1.5,1.5v2.8
		C5.2,15.3,4.6,16,3.8,16z M3,11.1c-0.3,0-0.6,0.3-0.6,0.6v2.8c0,0.3,0.3,0.6,0.6,0.6h0.8c0.3,0,0.6-0.3,0.6-0.6v-2.8
		c0-0.3-0.3-0.6-0.6-0.6H3z"/>
	<path class="st0" d="M8.4,16H7.6c-0.8,0-1.5-0.7-1.5-1.5V9.2c0-0.8,0.7-1.5,1.5-1.5h0.8c0.8,0,1.5,0.7,1.5,1.5v5.3
		C9.9,15.3,9.2,16,8.4,16z M7.6,8.6C7.3,8.6,7,8.9,7,9.2v5.3c0,0.3,0.3,0.6,0.6,0.6h0.8c0.3,0,0.6-0.3,0.6-0.6V9.2
		c0-0.3-0.3-0.6-0.6-0.6H7.6z"/>
	<path class="st0" d="M13,16h-0.8c-0.8,0-1.5-0.7-1.5-1.5V6.4c0-0.8,0.7-1.5,1.5-1.5H13c0.8,0,1.5,0.7,1.5,1.5v8.2
		C14.5,15.3,13.8,16,13,16z M12.2,5.8c-0.3,0-0.6,0.3-0.6,0.6v8.2c0,0.3,0.3,0.6,0.6,0.6H13c0.3,0,0.6-0.3,0.6-0.6V6.4
		c0-0.3-0.3-0.6-0.6-0.6H12.2z"/>
	<path class="st1" d="M14.2,1.1C14.2,1.1,14.2,1.1,14.2,1.1c0-0.1-0.1-0.2-0.1-0.2c0,0,0,0,0,0c0,0,0,0,0,0c0,0-0.1,0-0.1-0.1
		L11.6,0c-0.2-0.1-0.5,0-0.5,0.3c-0.1,0.2,0,0.5,0.3,0.5l1.3,0.5L1.8,7C1.6,7.1,1.5,7.4,1.6,7.6C1.7,7.7,1.9,7.8,2,7.8
		c0.1,0,0.1,0,0.2,0L13.2,2l-0.3,1.5c0,0.2,0.1,0.5,0.3,0.5c0.2,0,0.5-0.1,0.5-0.3l0.5-2.4c0,0,0,0,0,0C14.2,1.2,14.2,1.2,14.2,1.1z
		"/>
</g>
</svg>
