<?xml version="1.0" encoding="utf-8"?>
<!-- Generator: Adobe Illustrator 24.1.0, SVG Export Plug-In . SVG Version: 6.00 Build 0)  -->
<svg version="1.1" id="Layer_1" xmlns="http://www.w3.org/2000/svg" xmlns:xlink="http://www.w3.org/1999/xlink" x="0px" y="0px"
	 viewBox="0 0 785.9 603.6" style="enable-background:new 0 0 785.9 603.6;" xml:space="preserve">
<style type="text/css">
	.st0{opacity:0.18;fill:#5A91BC;enable-background:new    ;}
	.st1{fill:#5A91BC;}
	.st2{fill:url(#SVGID_1_);}
	.st3{fill:url(#SVGID_2_);}
	.st4{opacity:0.44;fill:#5A91BC;enable-background:new    ;}
	.st5{fill:url(#SVGID_3_);}
	.st6{fill:url(#SVGID_4_);}
	.st7{fill:url(#SVGID_5_);}
	.st8{fill:#473F47;}
	.st9{fill:url(#SVGID_6_);}
	.st10{fill:#FFBBAB;}
	.st11{fill:#963637;}
	.st12{fill:#FFFFFF;}
	.st13{fill:#212741;}
	.st14{fill:url(#SVGID_7_);}
	.st15{fill:url(#SVGID_8_);}
	.st16{fill:url(#SVGID_9_);}
	.st17{fill:url(#SVGID_10_);}
	.st18{fill:url(#SVGID_11_);}
	.st19{fill:url(#SVGID_12_);}
	.st20{fill:url(#SVGID_13_);}
	.st21{fill:url(#SVGID_14_);}
	.st22{fill:url(#SVGID_15_);}
	.st23{opacity:0.16;fill:#5A91BC;enable-background:new    ;}
	.st24{fill:url(#SVGID_16_);}
	.st25{fill:url(#SVGID_17_);}
	.st26{fill:#FC682D;}
	.st27{fill:url(#SVGID_18_);}
	.st28{opacity:0.18;fill:#489BD3;enable-background:new    ;}
	.st29{font-family:'FZCCHJW--GB1-0';}
	.st30{font-size:102.3373px;}
</style>
<path class="st0" d="M258.1,1.2c-42.5,3.6-81.5,25.2-107.3,59.2c-25,33.6-34.7,75.9-42.4,117.2c-1.7,12.2-4.9,24.2-9.5,35.6
	c-9.2,20.3-26.9,35.2-41.8,51.7C19.1,307-0.4,364,0.1,420.5C0.3,470.4,16.6,545.2,65.6,569c72.1,34.7,154,43.6,231.9,25.3
	c49.1-11.7,96.7-34.3,147.2-33.1s98,26.1,148.5,28.6c58,2.2,113.2-25.1,146.7-72.5c14.2-21.6,24.7-45.3,31.2-70.2
	c8.5-30.1,13.5-61,14.7-92.2c3.7-99.4-63-195.7-145.9-245.3C454.8-1.3,309.4-2.9,258.1,1.2z"/>
<path class="st1" d="M178.4,479.5c3.8,4.3,8.6,7.6,13.9,9.7c23.4,10.8,47.9,20.9,73.7,23.1c37.9,3.3,75.1-10,110.8-23.1
	c-3.6,0.6-16.6-10.8-19.9-13.2c-6.5-4.3-13-8.8-19.4-13.2c-10.2-7-23-9.3-35.1-11.2c-27.4-4.2-55.4-1.8-81.7,7
	C205.6,463.5,191.4,470.5,178.4,479.5z"/>
<linearGradient id="SVGID_1_" gradientUnits="userSpaceOnUse" x1="-1426.859" y1="420.2186" x2="-1654.8361" y2="226.0023" gradientTransform="matrix(0.8165 -0.5773 -0.5773 -0.8165 1710.6083 -95.7297)">
	<stop  offset="1.000000e-02" style="stop-color:#000000"/>
	<stop  offset="0.13" style="stop-color:#000000;stop-opacity:0.69"/>
	<stop  offset="0.25" style="stop-color:#000000;stop-opacity:0.32"/>
	<stop  offset="1" style="stop-color:#000000;stop-opacity:0"/>
</linearGradient>
<path class="st2" d="M178.4,479.5c3.8,4.3,8.6,7.6,13.9,9.7c23.4,10.8,47.9,20.9,73.7,23.1c37.9,3.3,75.1-10,110.8-23.1
	c-3.6,0.6-16.6-10.8-19.9-13.2c-6.5-4.3-13-8.8-19.4-13.2c-10.2-7-23-9.3-35.1-11.2c-27.4-4.2-55.4-1.8-81.7,7
	C205.6,463.5,191.4,470.5,178.4,479.5z"/>
<path class="st1" d="M303,406.8c-14.5-15.4-29.3-30.9-47.4-41.9c-18.1-11-40.2-17-60.7-11.6l50.6,74.5c9.8,14.5,19.7,28.9,33.4,39.8
	c23.9,18.7,68.4,29.1,97.8,20.1c-4.6-13.9-22.7-27-32.8-37.7L303,406.8z"/>
<linearGradient id="SVGID_2_" gradientUnits="userSpaceOnUse" x1="462.4807" y1="625.9353" x2="111.713" y2="538.4241" gradientTransform="matrix(1 0 0 -1 -38.95 1012.1179)">
	<stop  offset="1.000000e-02" style="stop-color:#000000"/>
	<stop  offset="0.13" style="stop-color:#000000;stop-opacity:0.69"/>
	<stop  offset="0.25" style="stop-color:#000000;stop-opacity:0.32"/>
	<stop  offset="1" style="stop-color:#000000;stop-opacity:0"/>
</linearGradient>
<path class="st3" d="M303,406.8c-14.5-15.4-29.3-30.9-47.4-41.9c-18.1-11-40.2-17-60.7-11.6l50.6,74.5c9.8,14.5,19.7,28.9,33.4,39.8
	c23.9,18.7,68.4,29.1,97.8,20.1c-4.6-13.9-22.7-27-32.8-37.7L303,406.8z"/>
<path class="st4" d="M148.3,525.9c18.9,0,38.6,2.2,54.7,12.1c1.5,0.7,2.6,1.9,3.3,3.4c1.3,3.6-3.2,6.5-6.9,7.7
	c-22.6,6.7-46.2,9.8-69.8,8.9c-15.7-0.4-31.4-1.7-47-3.9c-5.5-0.3-10.8-1.9-15.5-4.6c-4.8-2.9-7.1-8.6-5.8-14
	c1.9-5.3,8.2-7.8,13.8-8.1C99.2,525.8,124,526,148.3,525.9z"/>
<path class="st4" d="M642.5,511.4l38.3,5.3c1.8,0.1,3.6,0.7,5.1,1.7c2.1,2.2,2.4,5.5,0.9,8.1c-1.6,2.5-3.7,4.5-6.2,6.1
	c9.1,2.2,24.9,1.7,24.4,14.6c-0.3,4.9-3.3,9.2-7.8,11.1c-2.7,0.9-5.6,1.4-8.5,1.3c-28.3,1-57,2-84.4-5.2c-5.2-1.3-11.4-4.3-11.4-9.7
	c0-1.9,0.8-3.6,0.9-5.6c0.6-12.3-25.6-5.1-32.3-4.7c-15,0.9-29.9,1.4-44.9,1.8c-30.6,0.8-61.2,0.8-91.7,0.4
	c-9.7-0.5-19.3-0.1-28.9,1.2c-7.5,1.3-14.8,3.6-22.2,5.5c-24.3,6.2-49.6,7.5-74.4,3.8c-11.2-1.7-25-7.7-24.3-19
	c0.6-9.7,11.7-14.8,21.1-17.3c13.9-3.7,28.1-6.4,42.4-8.2c25.3-2.8,50.8-4.1,76.3-3.8c55.3-0.4,110.7-0.5,166.1-0.5
	C599.6,498.1,624.1,508.8,642.5,511.4z"/>
<polygon class="st1" points="133.6,421.5 131.3,534.5 115.9,534.5 111.5,444.6 101.9,534.5 84.4,537.4 80.3,417.7 "/>
<linearGradient id="SVGID_3_" gradientUnits="userSpaceOnUse" x1="668.7411" y1="563.7199" x2="857.5715" y2="451.4482" gradientTransform="matrix(1 0 0 -1 -611.97 1012.1179)">
	<stop  offset="1.000000e-02" style="stop-color:#000000"/>
	<stop  offset="8.000000e-02" style="stop-color:#000000;stop-opacity:0.69"/>
	<stop  offset="0.21" style="stop-color:#000000;stop-opacity:0.32"/>
	<stop  offset="1" style="stop-color:#000000;stop-opacity:0"/>
</linearGradient>
<polygon class="st5" points="133.6,421.5 131.3,534.5 115.9,534.5 111.5,444.6 101.9,534.5 84.4,537.4 80.3,417.7 "/>
<path class="st1" d="M183.5,318.2c-7,12.8-14.6,25.3-22.8,37.3c-3.1,3.6-7.6,5.6-12.4,5.7c-1.9,0-3.8-0.3-5.7-0.9
	c-5.5-1.3-10.8-2.9-16.3-4.7c-0.5-0.2-0.9-0.4-1.3-0.7l0,0c-3.6-2.6-4.4-9.9-5.2-14.1c-0.4-2.3-2.6-11.5,1.4-12.2
	c2-0.4,8.5,5.4,10.3,6.5c3.9,2.3,7.8,4.5,11.9,6.4c0.5,0.3,1.1,0.5,1.6,0.4c0.6-0.2,1.2-0.5,1.6-1c8.3-9.7,15.2-20.5,20.6-32
	c1.6,0.7,3.1,1.4,4.7,2.2c2.2,1.1,4.3,2.3,6.4,3.6l0.7,0.4C180.8,316.1,182.1,317,183.5,318.2z"/>
<linearGradient id="SVGID_4_" gradientUnits="userSpaceOnUse" x1="211.7386" y1="588.0994" x2="167.2782" y2="794.3164" gradientTransform="matrix(1 0 0 -1 -38.95 1012.1179)">
	<stop  offset="1.000000e-02" style="stop-color:#000000"/>
	<stop  offset="8.000000e-02" style="stop-color:#000000;stop-opacity:0.69"/>
	<stop  offset="0.21" style="stop-color:#000000;stop-opacity:0.32"/>
	<stop  offset="1" style="stop-color:#000000;stop-opacity:0"/>
</linearGradient>
<path class="st6" d="M183.5,318.2c-7,12.8-14.6,25.3-22.8,37.3c-3.1,3.6-7.6,5.6-12.4,5.7c-1.9,0-3.8-0.3-5.7-0.9
	c-5.5-1.3-10.8-2.9-16.3-4.7c-0.5-0.2-0.9-0.4-1.3-0.7c-0.3,0-1-2.8-1.2-3.2c-0.4-1.2-0.6-2.4-0.8-3.6c-0.3-2.4-0.3-4.8,0-7.2
	c0-0.8,0.2-1.4,1-0.8c0.8,0.7,0.5,0.7,0.8,1s1.1,0.8,1.7,1.2c1.5,1.1,3,2.2,4.7,3.2c3.1,1.9,6.5,3.3,9.9,4.3c2.3,0.8,4.8,1.2,7.2,1
	c3.8-0.5,7-2.9,8.5-6.3c1.3-2,2.5-4,3.6-6c1.1-2,2.5-4,4-5.7c3.2-3.8,6.3-7.7,9.5-11.5c1.6-2.2,3.4-4.3,5.3-6.2
	C180.8,316.1,182.1,317,183.5,318.2z"/>
<linearGradient id="SVGID_5_" gradientUnits="userSpaceOnUse" x1="742.2546" y1="573.5237" x2="641.3693" y2="487.0247" gradientTransform="matrix(1 0 0 -1 -611.97 1012.1179)">
	<stop  offset="1.000000e-02" style="stop-color:#000000"/>
	<stop  offset="8.000000e-02" style="stop-color:#000000;stop-opacity:0.69"/>
	<stop  offset="0.21" style="stop-color:#000000;stop-opacity:0.32"/>
	<stop  offset="1" style="stop-color:#000000;stop-opacity:0"/>
</linearGradient>
<polygon class="st7" points="94.8,532.7 94.8,427.9 80.3,417.7 85.2,534.5 "/>
<path class="st1" d="M91.7,321.5c-4.1,2-8.1,4.3-11.9,6.8c-8.2,5.2-6.7,7.7-5.2,16.7c3.2,19.4,4.8,39,4.8,58.6
	c-0.3,4.7,0,9.5,1,14.2c1.3,2.7,2.3,5.5,3,8.5c12.7,1.7,41.6,8.2,50.2-4.7c8.6-13-6.6-56.6-3.8-76.2c2.8-19.6-22.7-21.7-22.7-21.7
	L91.7,321.5z"/>
<path class="st8" d="M117.5,393.8l2.9-16.4c0.5-2,2.2-3.5,4.2-3.6l31.5-2.5c1.7-0.1,3.2,1.2,3.3,3c0,0.2,0,0.4,0,0.7l-12.1,54.7
	c-0.3,1.4-1.6,2.4-3,2.4h-28.9c-1.7,0-3.1-1.4-3.1-3.1c0-0.2,0-0.3,0-0.5L117.5,393.8z"/>
<linearGradient id="SVGID_6_" gradientUnits="userSpaceOnUse" x1="715.7534" y1="629.2105" x2="678.414" y2="549.507" gradientTransform="matrix(1 0 0 -1 -611.97 1012.1179)">
	<stop  offset="1.000000e-02" style="stop-color:#000000"/>
	<stop  offset="8.000000e-02" style="stop-color:#000000;stop-opacity:0.69"/>
	<stop  offset="0.21" style="stop-color:#000000;stop-opacity:0.32"/>
	<stop  offset="1" style="stop-color:#000000;stop-opacity:0"/>
</linearGradient>
<path class="st9" d="M109.1,412.1l-22.9,15.5l-3.6-4.8c-2.2-8-3.2-16.2-3.1-24.5c0.5-12.3,0-7.9,0-7.9l32.2,20.4L109.1,412.1z"/>
<path class="st10" d="M120.5,302.4c0,1.3,0,2.6-0.2,3.9c-0.6,2.7-1.7,5.3-3.1,7.6c-0.4,0.8-0.9,1.5-1.6,2.1
	c-1.5,0.7-3.2,0.9-4.7,0.4c-0.4-0.1-0.8-0.1-1.1,0c-0.9,0.4-1,1.6-1,2.6l0.3,4.5c0.1,0.6,0,1.3-0.3,1.8c-0.3,0.3-0.7,0.6-1.2,0.8
	c-3.4,1.1-7.1,0.3-9.7-2.2c-0.6-0.6-1.1-1.3-1.5-2c-0.3-0.8-0.5-1.5-0.5-2.3c-0.5-4.3,0-8.6-0.4-13c-0.6-3.6-0.7-7.2-0.3-10.8
	c0.7-3.9,3.3-7.2,6.9-8.7c3.7-1.2,7.7-1.1,11.4,0.3c1.8,0.5,3.6,1.1,5.3,1.8c0.8,0.2,1.6,0.8,2.1,1.5c0.7,1.4,0,3.4,0,4.8
	C120.4,297.7,120.5,300.1,120.5,302.4z"/>
<path class="st11" d="M120.5,284.7c0.4,0.9,1,1.6,1.4,2.5c0.5,0.8,0.7,1.8,0.5,2.7c-0.3,0.7-0.7,1.4-1.4,1.8
	c-3.2,2.2-7,3.2-10.8,2.7c-1.1-0.1-2.2-0.1-3.3,0c-1.1,0.1-2.1,0.6-2.9,1.4c-0.9,1.5-1.3,3.2-1.4,4.9c0,0,0,0.2,0,0.3c0,0.1,0,0,0,0
	c-1.2,0-2.4-1.3-3.6-0.8c-0.6,0.3-0.9,0.9-0.9,1.6c-0.1,0.8,0,1.5,0.3,2.2c0.1,0.3,0.2,0.6,0.3,0.9c0,0.2,0,0.4,0,0.6l-0.8,2.1
	c-0.2,0.8-0.7,1.5-1.4,2c-1,0.3-2.1,0.1-2.9-0.5c-0.6-0.3-1.2-0.8-1.6-1.3c-0.3-0.5-0.5-1-0.6-1.5c-1-5.3-1.5-10.8-1.3-16.2
	c-0.1-1.2,0.1-2.5,0.5-3.6c1.4-2.3,3.7-3.7,6.4-4c4.8-0.9,9.6-1.2,14.5-1c1.5-0.1,3,0,4.5,0.3c1.5,0.3,2.8,1.1,3.9,2.2"/>
<path class="st11" d="M113,307.3c-0.8,0.4-1.4,1-1.7,1.8c0,0,0,0.2,0,0.3c0,0.1,0,0,0.3,0c1.6,0.1,3.3,0.1,5,0
	c1.3-0.1,2.5-0.4,3.6-0.9c0.1,0,0.2,0,0.3,0c0-0.1,0-0.2,0-0.3c-0.1-1.4-1.2-2.4-2.6-2.3c0,0-0.1,0-0.1,0
	C116.1,306,114.5,306.5,113,307.3z"/>
<path class="st12" d="M95.7,319.4c0,0-3.6,2.5-3.6,5.1c0,2.7,19.1,56.2,19.1,56.2s0.4-51.3,0-53.6c-0.6-2.3-1.5-4.6-2.6-6.7
	C108.6,320.4,101.3,325.9,95.7,319.4z"/>
<polygon class="st13" points="101.9,324.3 100.6,328.4 102.8,330.2 103.8,359.3 111.4,380.8 111.5,358.9 105.1,330.1 107.4,326 
	104.3,324.3 "/>
<path class="st1" d="M115.9,399.9c-2.2,2.8-4.8,5.4-7.6,7.7l-1.7,1.4c-0.6,0.6-1.4,0.9-2.2,1c-0.6,0-1.1-0.1-1.7-0.4
	c-11.1-4.3-21.9-9.1-32.5-14.5c-4.4-2.3-9.3-5.2-10.2-10.1c-0.3-1.7-0.3-3.4,0-5.1c1.7-12.4,4.9-24.6,9.6-36.1
	c1.3-3.3,3-9.5,6.5-11.7l0,0h0.4l0.5-0.3c4.7-1.7,8.8,3,10.1,7c1.5,5.8,1.3,11.9-0.5,17.6c-1.8,5.6-3.1,11.4-4,17.3
	c-0.1,0.8-0.1,1.6,0.2,2.4c0.4,0.7,1.1,1.4,1.8,1.8L115.9,399.9z"/>
<path class="st13" d="M115.9,534.5l0.8,8.3l5.2,1l2.3-2.1l4,3.2h15.7c0,0,4-6.9-4.7-9.3l-8.7-2.3L115.9,534.5z"/>
<path class="st13" d="M85.2,534.5l0.8,8.3l5.2,1l2.3-2.1l4,3.2h15.8c0,0,4-6.9-4.7-9.3l-8.7-2.3L85.2,534.5z"/>
<linearGradient id="SVGID_7_" gradientUnits="userSpaceOnUse" x1="706.4783" y1="530.5392" x2="776.0607" y2="514.8878" gradientTransform="matrix(1 0 0 -1 -611.97 1012.1179)">
	<stop  offset="1.000000e-02" style="stop-color:#000000"/>
	<stop  offset="8.000000e-02" style="stop-color:#000000;stop-opacity:0.69"/>
	<stop  offset="0.21" style="stop-color:#000000;stop-opacity:0.32"/>
	<stop  offset="1" style="stop-color:#000000;stop-opacity:0"/>
</linearGradient>
<polygon class="st14" points="111.5,444.6 118.6,438.9 123.5,533.3 115.9,534.5 "/>
<linearGradient id="SVGID_8_" gradientUnits="userSpaceOnUse" x1="755.8962" y1="669.5081" x2="618.6111" y2="596.2749" gradientTransform="matrix(1 0 0 -1 -611.97 1012.1179)">
	<stop  offset="1.000000e-02" style="stop-color:#000000"/>
	<stop  offset="8.000000e-02" style="stop-color:#000000;stop-opacity:0.69"/>
	<stop  offset="0.21" style="stop-color:#000000;stop-opacity:0.32"/>
	<stop  offset="1" style="stop-color:#000000;stop-opacity:0"/>
</linearGradient>
<path class="st15" d="M108.5,407.6l-1.7,1.4c-0.6,0.6-1.4,0.9-2.2,1c-0.6,0-1.1-0.1-1.7-0.4c-11.1-4.3-21.9-9.1-32.5-14.5
	c-4.4-2.3-9.3-5.2-10.2-10.1c-0.3-1.7-0.3-3.4,0-5.1c1.7-12.4,4.9-24.6,9.6-36.1c1.3-3.3,3-9.5,6.5-11.7l0,0h0.4l0.5-0.3
	c4.5-0.1,8.6,2.7,10.1,7c0,0-16.7,34.3-16,39.4c0.7,5.2,35.9,21.9,35.9,21.9L108.5,407.6z"/>
<path class="st10" d="M123.8,402.8c0.9,0.2,1.8,0.6,2.5,1.2c0.7,0.6,1.1,1.6,0.8,2.5c-0.3,0.5-0.6,1-1,1.5c-0.4,0.8-0.5,1.8-0.9,2.6
	c-0.8,1.3-2.1,2.2-3.6,2.5c-4.1,1.9-9,1.4-12.7-1.2c-2.5-2.1-7.2-10.8-2-12.1c2.3-0.1,4.6,0.1,6.9,0.7
	C117.2,401.1,120.6,401.8,123.8,402.8z"/>
<polygon class="st1" points="576.2,464.3 421.7,464.3 449.1,387.2 553.1,387.2 "/>
<linearGradient id="SVGID_9_" gradientUnits="userSpaceOnUse" x1="491.8898" y1="672.0235" x2="505.2279" y2="492.2297" gradientTransform="matrix(1 0 0 -1 0 1041.1179)">
	<stop  offset="1.000000e-02" style="stop-color:#000000"/>
	<stop  offset="8.000000e-02" style="stop-color:#000000;stop-opacity:0.69"/>
	<stop  offset="0.21" style="stop-color:#000000;stop-opacity:0.32"/>
	<stop  offset="1" style="stop-color:#000000;stop-opacity:0"/>
</linearGradient>
<polygon class="st16" points="576.2,464.3 421.7,464.3 449.1,387.2 553.1,387.2 "/>
<path class="st1" d="M305.3,107.4h400.4c15.3,0,27.7,12.4,27.7,27.7v253.4c0,15.3-12.4,27.7-27.7,27.7H305.3
	c-15.3,0-27.7-12.4-27.7-27.7V135.1C277.6,119.8,290,107.4,305.3,107.4z"/>
<linearGradient id="SVGID_10_" gradientUnits="userSpaceOnUse" x1="770.8015" y1="650.3829" x2="578.2117" y2="585.6803" gradientTransform="matrix(1 0 0 -1 -38.95 1012.1179)">
	<stop  offset="1.000000e-02" style="stop-color:#000000"/>
	<stop  offset="8.000000e-02" style="stop-color:#000000;stop-opacity:0.69"/>
	<stop  offset="0.21" style="stop-color:#000000;stop-opacity:0.32"/>
	<stop  offset="1" style="stop-color:#000000;stop-opacity:0"/>
</linearGradient>
<path class="st17" d="M654.3,370c-0.1,1,0.4,1.9,1.3,2.3c0.9,0.3,1.8,0.5,2.8,0.4h4c0.4,0,0.8,0.1,1.2,0.3c0.4,0.4,0.6,1,0.6,1.7
	l0.4,17.2c0.4,3.9-0.2,7.9-1.6,11.6c-0.9,1.8-2.2,3.3-3.1,5c-1.1,1.7-1.3,3.7-0.8,5.6c6.9,0.3,13.7,0.3,20.6,0
	c1.3,0.1,2.6-0.3,3.6-1.1c0.5-0.5,0.8-1.2,1-1.8c2-5.7,3.7-11.6,5-17.5c1.4-5.6,2-11.4,1.9-17.2c-0.1-5.8-1.7-11.5-4.7-16.5
	c-0.7-1.3-1.7-2.3-2.8-3.2c-1.2-0.8-2.5-1.3-3.9-1.6c-6.9-1.6-13.8-2.5-20.9-2.7c-2.3-0.4-4.7,0-6.8,1c-2,1.5-3.1,4-2.9,6.5
	c0.3,2.5,1,5,2.1,7.2"/>
<linearGradient id="SVGID_11_" gradientUnits="userSpaceOnUse" x1="412.7633" y1="620.2986" x2="302.0098" y2="634.5405" gradientTransform="matrix(1 0 0 -1 -38.95 1012.1179)">
	<stop  offset="1.000000e-02" style="stop-color:#000000"/>
	<stop  offset="8.000000e-02" style="stop-color:#000000;stop-opacity:0.69"/>
	<stop  offset="0.21" style="stop-color:#000000;stop-opacity:0.32"/>
	<stop  offset="1" style="stop-color:#000000;stop-opacity:0"/>
</linearGradient>
<path class="st18" d="M316.6,397.9c4.3-14.3,9.3-28.4,14.8-42.3c0.2-0.6,0.7-1,1.2-1.3c0.6-0.2,1.2-0.2,1.8,0l12,1.7
	c-0.8,6.8-2.8,13.3-5.9,19.3c-4.7,11.1-8.1,22.6-10.2,34.4c-0.1,1.2-0.5,2.3-1.1,3.4c-1.3,1.5-3.1,2.4-5.1,2.6
	c-5.9,1.2-9.7,3-10.8-3C312.7,408.2,315.4,402,316.6,397.9z"/>
<linearGradient id="SVGID_12_" gradientUnits="userSpaceOnUse" x1="309.4136" y1="608.43" x2="572.7786" y2="654.0833" gradientTransform="matrix(1 0 0 -1 -38.95 1012.1179)">
	<stop  offset="1.000000e-02" style="stop-color:#000000"/>
	<stop  offset="8.000000e-02" style="stop-color:#000000;stop-opacity:0.69"/>
	<stop  offset="0.21" style="stop-color:#000000;stop-opacity:0.32"/>
	<stop  offset="1" style="stop-color:#000000;stop-opacity:0"/>
</linearGradient>
<path class="st19" d="M373,401.6h12.9c0.9-0.1,1.8,0.1,2.5,0.6c0.6,0.5,0.8,1.4,1.3,2.1c1,1.4,3.1,1.4,4.9,1.2
	c6.2-0.7,12.3-1.9,18.3-3.6l-2.3-15.8c-11,2.4-22.2,3.5-33.4,3.3l-0.6-19h17.1c1.4,0.3,2.8-0.6,3.1-2c0.1-0.4,0.1-0.8,0-1.2
	c0-2.3-0.1-4.6-0.4-6.9c0-0.5-0.2-1.1-0.6-1.4c-0.5-0.3-1.1-0.4-1.6-0.2c-13,1.7-26.1,2.2-39.2,1.4c-0.7,19.4-4.3,38.6-10.5,56.9
	c6.9-0.8,15.2,0.4,21.9-1.1c3.2-0.7,3-1,4-4.5C370.6,410.4,372.6,401.7,373,401.6z"/>
<path class="st8" d="M733.4,135.1v222.2H277.6V135.1c0-15.3,12.4-27.7,27.7-27.7h400.4C720.9,107.4,733.3,119.8,733.4,135.1z"/>
<path class="st1" d="M670.6,344.9c-5.1,4-10.9,6.9-17.2,8.5c-0.8,0-1.5,0.4-2.1,1c-0.2,0.6-0.2,1.3,0,1.9c0.9,4.5,2.3,8.9,4,13.2
	c9.2-1.2,18.1-4.3,26.1-9.2c1.3-0.7,2.4-1.7,3.3-2.9c0.7-1.4,1.1-3,1.1-4.5c0.3-4.3,0.9-10.4-1.6-14.2c-2-3-3.1-1-5.8,0.8
	L670.6,344.9z"/>
<linearGradient id="SVGID_13_" gradientUnits="userSpaceOnUse" x1="734.73" y1="652.5588" x2="636.1578" y2="681.5124" gradientTransform="matrix(1 0 0 -1 -38.95 1012.1179)">
	<stop  offset="1.000000e-02" style="stop-color:#000000"/>
	<stop  offset="8.000000e-02" style="stop-color:#000000;stop-opacity:0.69"/>
	<stop  offset="0.21" style="stop-color:#000000;stop-opacity:0.32"/>
	<stop  offset="1" style="stop-color:#000000;stop-opacity:0"/>
</linearGradient>
<path class="st20" d="M673.9,344.2c-5.1,4-10.9,6.9-17.2,8.5c-0.8,0-1.6,0.4-2.1,1c-0.2,0.6-0.2,1.3,0,1.9c0.9,4.5,2.3,8.9,4,13.2
	c9.2-1.2,18.1-4.3,26.1-9.2c1.3-0.7,2.4-1.7,3.3-2.9c0.7-1.4,1.1-2.9,1.1-4.5c0.3-4.3,1-10.4-1.6-14.2c-2-3-3.1-1-5.8,0.8
	L673.9,344.2z"/>
<path class="st12" d="M726.6,140.4V350H284.4V140.4c0.1-14.8,12.1-26.7,26.9-26.6c0,0,0,0,0,0h388.3c14.8-0.1,26.9,11.7,27,26.5
	C726.6,140.3,726.6,140.4,726.6,140.4z"/>
<path class="st0" d="M726.6,140.4V350H284.4V140.4c0.1-14.8,12.1-26.7,26.9-26.6c0,0,0,0,0,0h388.3c14.8-0.1,26.9,11.7,27,26.5
	C726.6,140.3,726.6,140.4,726.6,140.4z"/>
<rect x="322.7" y="141.2" class="st0" width="145.6" height="133.7"/>
<path class="st1" d="M634,474.6c-4.4,4.4-6.8,10.3-6.8,16.6c0,3.3,0.7,6.5,2,9.4c2.9,6.5,8.5,11.4,15.4,13.2v5.3H362.6
	c-12.1,0-22.8-7.7-26.5-19.2c-1-2.8-1.4-5.8-1.4-8.8c0-15.4,12.5-28,27.9-28c0,0,0,0,0.1,0h281.9v5.3
	C640.5,469.6,636.9,471.7,634,474.6z"/>
<linearGradient id="SVGID_14_" gradientUnits="userSpaceOnUse" x1="505.1624" y1="707.5389" x2="577.0944" y2="102.9489" gradientTransform="matrix(1 0 0 -1 -38.95 1012.1179)">
	<stop  offset="1.000000e-02" style="stop-color:#000000"/>
	<stop  offset="8.000000e-02" style="stop-color:#000000;stop-opacity:0.69"/>
	<stop  offset="0.21" style="stop-color:#000000;stop-opacity:0.32"/>
	<stop  offset="1" style="stop-color:#000000;stop-opacity:0"/>
</linearGradient>
<path class="st21" d="M644.5,513.8v5.3H362.6c-12.1,0-22.8-7.7-26.5-19.2c10.8,1.9,78.5,12.7,116.2-8.8l176.8,9.4
	C631.9,507.1,637.6,512,644.5,513.8z"/>
<path class="st12" d="M370.5,534.8c8,0.4,16.6,0.8,23.4-3.4c0.5-0.3,0.9-0.6,1.2-1.1c0.3-0.7,0.2-1.6-0.2-2.3
	c-0.5-0.6-1.1-1.2-1.8-1.5c-2.6-1.2-5.3-2-8.1-2.3c-3.6-0.6-6.9-1.2-10.4-1.6c-2.2-0.2-6-1.1-7.8,0.7c-1.1,1.7-1.4,3.8-0.9,5.7
	C366.3,532.3,366.9,534.5,370.5,534.8z"/>
<path class="st12" d="M317.6,525.7c6.3,5,13.2,10.1,21.1,10.6c0.5,0.1,1.1,0,1.6-0.2c0.7-0.4,1.2-1.2,1.2-2c0-0.8-0.3-1.6-0.7-2.3
	c-1.4-2.4-3.2-4.7-5.3-6.5c-2.5-2.5-5-4.9-7.7-7.2c-1.7-1.4-4.3-4.4-6.8-3.9c-2.5,0.5-3.2,2.6-4,4.2
	C315.5,521.2,314.7,523.5,317.6,525.7z"/>
<path class="st12" d="M634,474.6c-9.1,9.2-9.1,24,0,33.1c2.9,2.9,6.5,5,10.5,6.1v0.8H475.8c-13,0-23.5-10.5-23.5-23.5
	s10.5-23.5,23.5-23.5h168.7v0.8C640.5,469.4,636.9,471.6,634,474.6z"/>
<path class="st12" d="M130.5,374.4l0.8-2.7c0.2-0.5,0.6-0.9,1.1-0.9l16.7-1.2c0.5,0,0.9,0.3,0.9,0.7c0,0.1,0,0.3,0,0.4l-1,3
	c-0.2,0.6-0.8,1-1.4,1.1l-16,1c-0.5,0-1-0.4-1.1-0.9C130.5,374.7,130.5,374.5,130.5,374.4z"/>
<path class="st0" d="M663.2,141.2c-24.2,0-43.8,20-43.8,44.7s19.6,44.7,43.8,44.7s43.8-20,43.8-44.7S687.4,141.2,663.2,141.2z
	 M668.2,211.4h-11.4v-10.8h11.4V211.4z M672.9,186c-4.4,3-6.3,5.8-5.8,8.6v1.9h-9.4v-2.6c-0.2-4.8,1.9-8.7,6.1-11.7
	c3.9-3.1,5.8-5.9,5.6-8.4c-0.3-3.3-2.1-5.1-5.4-5.4c-4.4,0-7.1,2.9-8.2,8.6l-10.5-2.3c1.9-10.6,8.6-15.7,20.3-15.4
	c9.7,0.5,14.9,4.8,15.7,13.1C681.6,177.4,678.8,181.9,672.9,186z"/>
<path class="st10" d="M196,303.5c-1.2,2.2-3,3.9-5.2,5.1c-2.1,1-4.2,1.8-6.4,2.4c-2.2,0.6-4.2,1.8-5.6,3.6l-0.3,0.3
	c-2.1-1.3-4.2-2.5-6.4-3.6c0.3-0.6,0.8-1.3,1-1.7c0.5-1,0.8-2.1,1.3-3.2c1.6-3.6,4.2-6.7,7.5-8.9c0.3,0,0.6-0.3,0.8,0
	c0.1,0.2,0.1,0.3,0,0.5c0,1.5-0.5,3-1.2,4.4l13.1-4.7c0.3-0.2,0.7-0.2,1-0.2c0.4,0.2,0.8,0.5,0.9,0.9
	C197.1,300.1,196.9,301.9,196,303.5z"/>
<path class="st8" d="M380,516.6v8c-4.8,0.6-9.6,0.7-14.5,0.4c-0.8,0.1-1.5-0.4-1.7-1.1c0-0.2,0-0.3,0-0.5c-1-13.2,0.7-26.5-0.9-39.6
	c-0.2-2.8-0.9-5.5-1.9-8c-1.2-2.6-2.7-5-4.5-7.2c-5.1-7-9.6-14.3-13.5-22c-3.7-7.8-5.5-16.4-5-25c0-8.6,4.6-12.4,13-10.1
	c1.3,0.2,2.5,0.7,3.6,1.4c0.9,0.8,1.6,1.7,2.1,2.7c5.1,8.3,9.6,16.9,13.5,25.8C379.6,465,380.4,491.1,380,516.6z"/>
<linearGradient id="SVGID_15_" gradientUnits="userSpaceOnUse" x1="378.0903" y1="539.6848" x2="470.5536" y2="558.2642" gradientTransform="matrix(1 0 0 -1 -38.95 1012.1179)">
	<stop  offset="1.000000e-02" style="stop-color:#000000"/>
	<stop  offset="8.000000e-02" style="stop-color:#000000;stop-opacity:0.69"/>
	<stop  offset="0.21" style="stop-color:#000000;stop-opacity:0.32"/>
	<stop  offset="1" style="stop-color:#000000;stop-opacity:0"/>
</linearGradient>
<path class="st22" d="M380,516.6v8c-4.8,0.6-9.6,0.7-14.5,0.4c-0.8,0.1-1.5-0.4-1.7-1.1c0-0.2,0-0.3,0-0.5
	c-1-13.2,0.7-26.5-0.9-39.6c-0.2-2.8-0.9-5.5-1.9-8c-1.2-2.6-2.7-5-4.5-7.2c-5.1-7-9.6-14.3-13.5-22c-3.7-7.8-5.5-16.4-5-25
	c0-8.6,4.6-12.4,13-10.1c1.3,0.2,2.5,0.7,3.6,1.4c0.9,0.8,1.6,1.7,2.1,2.7c5.1,8.3,9.6,16.9,13.5,25.8
	C379.6,465,380.4,491.1,380,516.6z"/>
<path class="st10" d="M384.6,364.5c17.2-4.8,31.9-15.8,41.4-30.9c1.8-2.2,2.5-5.2,1.8-8c-0.1-0.3-0.3-0.6-0.6-0.8
	c-0.5-0.2-1,0-1.5,0.4l-22.3,14.5c-6,4.4-12.6,7.7-19.6,9.9c-1.1,2.2-1.9,4.5-2.3,6.9C381.5,359.4,382.6,362.3,384.6,364.5z"/>
<rect x="392.8" y="191.1" class="st12" width="261.2" height="210.5"/>
<path class="st23" d="M429.6,397.4c-1.2,0.8-2.6,1.3-4,1.5c-9.5,1.9-19.2,2.5-28.9,1.9c-1,0.1-1.9-0.2-2.7-0.8
	c-0.8-0.8-1.2-2-1.2-3.1c-0.3-3-0.1-6,0.6-8.9c0-0.4,23.6-0.4,25.9,0C422.4,388.5,435.2,392.9,429.6,397.4z"/>
<path class="st23" d="M632.3,314.2c-0.3,1.9-0.3,3.8,0,5.7c0.8,2.7,2.1,5.1,3.9,7.2c7.2,9.9,12.8,20.9,16.7,32.5
	c1.4-6.4,2-13,1.6-19.6c0.1-2.3-0.1-4.6-0.5-6.9c-0.9-3.1-2.1-6.1-3.6-9c-2.1-4.6-3.7-9.5-4.7-14.5c-0.7-3.6-2-12.3-7.4-11.7
	C633.4,298.9,632.6,310.7,632.3,314.2z"/>
<path class="st8" d="M321.8,428.8c2.1,8.3,5.1,16.3,8.9,24c3.1,6.5,10.3,14.9,10.3,22.3c0,13.3-14,31.1-22.6,40.2
	c4.5,3,9.4,5.5,14.5,7.4c1.1,0.6,2.4,0.8,3.6,0.5c1.3-0.6,2.4-1.7,3-3l9.4-16.2c5.2-9,10.6-18.6,11-28.9c0-3.8-0.2-7.6-0.8-11.3
	c-1-8,0-17-2-24.8c-1.8-7.2-4.1-14.1-5.7-21.3c-0.4-3.7-2.1-7.2-4.8-9.7c-1.3-0.9-2.7-1.5-4.2-1.8c-7.2-2.1-15.2-2.3-19.2,5.2
	C320.5,416.8,320.1,423,321.8,428.8z"/>
<path class="st12" d="M386.8,350.4c4,1.4,0.3,10.8-0.8,13.5c-0.2,1.3-1.5,2.2-2.8,2c-0.1,0-0.2-0.1-0.4-0.1
	c-6-0.5-11.9-1.3-17.9-2.1c-1.3-0.1-2.5-0.5-3.6-1.1c-1.4-1-2.4-2.5-2.6-4.3c-0.5-2.8-0.8-9.4,1.6-11.6c1.7-1.6,5.2-0.4,7.5-0.2
	C374.3,347,380.7,348.3,386.8,350.4z"/>
<linearGradient id="SVGID_16_" gradientUnits="userSpaceOnUse" x1="395.0168" y1="636.2633" x2="442.4052" y2="685.3506" gradientTransform="matrix(1 0 0 -1 -38.95 1012.1179)">
	<stop  offset="1.000000e-02" style="stop-color:#000000"/>
	<stop  offset="8.000000e-02" style="stop-color:#000000;stop-opacity:0.69"/>
	<stop  offset="0.21" style="stop-color:#000000;stop-opacity:0.32"/>
	<stop  offset="1" style="stop-color:#000000;stop-opacity:0"/>
</linearGradient>
<path class="st24" d="M385.6,354.3c4,1.4,0.3,10.8-0.8,13.5c-0.2,0.7-0.6,1.3-1.1,1.7c-0.6,0.3-1.3,0.4-2,0.2
	c-6-0.5-11.9-1.3-17.9-2.1c-1.3-0.1-2.6-0.5-3.8-1.1c-1.4-1-2.3-2.5-2.6-4.3c-0.6-2.8-0.8-9.4,1.6-11.6c1.7-1.5,5.2-0.4,7.5-0.2
	C373,350.9,379.4,352.2,385.6,354.3z"/>
<path class="st10" d="M375.2,316.1c0.7,1.2,2.1,1.9,2.6,3.1c0.5,1.3-0.5,3.2-1.1,4.7c-0.8,2.2-0.5,4.6-1.3,6.8
	c-0.1,0.5-0.4,0.9-0.8,1.2c-0.3,0.2-0.7,0.4-1.2,0.5c-1.6,0.3-3.3,0.4-4.9,0.3c-0.3-0.1-0.6-0.1-0.9,0c-0.2,0.2-0.4,0.5-0.4,0.8
	c-1,4.1-1,8.4,0,12.5c0.4,1.3,0.8,3-0.3,4c-0.4,0.3-0.8,0.5-1.3,0.6c-3.3,0.3-6.4-1.2-8.2-3.9c-1.9-2.2-3.5-4.6-4.8-7.2
	c-0.4-0.7-0.7-1.5-0.8-2.3c0-1,0.1-2.1,0.4-3.1c0.9-3.4,1.4-6.9,1.6-10.4c-0.2-4.5,0.4-9,1.6-13.3c0.5-1.5,1.5-2.7,2.7-3.6
	c1.5-0.7,3.2-1,4.8-0.8c3.3-0.2,6.6,0.8,9.1,3C373,310,374.4,314.5,375.2,316.1z"/>
<path class="st8" d="M373.9,305.4c1.3-0.3,2.3,1.6,1.8,2.8c-0.7,1.2-1.9,2-3.3,2.1c-1.3,0.1-2.7,0.3-4,0.6c-1.4,0.3-2.4,1.5-2.5,2.9
	c-1.5-0.2-3,0.7-3.4,2.2c-0.4,1.5-0.4,3,0,4.4c-0.4,0.5-1.2,0-1.6-0.3c-0.4-0.3-0.7-1-1.2-1.4c-1.2-0.6-2.5,0.8-2.4,2.1
	c0.3,1.3,1.1,2.4,2.1,3.2c0.3,0.2,0.5,0.4,0.6,0.7c0.4,1.1-1.1,1.8-2.2,2.1c0.1,0.8,0,1.7-0.3,2.5c-0.3,0.8-1,1.4-1.9,1.4
	c-0.8,0-1.4-0.6-2.1-0.9s-1.8,0-1.8,0.7c-1.2-2.4,0-4.7-0.4-7.2c-0.4-2.5-2.3-1.3-3.6-2.7c-0.7-0.8-0.7-2-1-3
	c-0.3-1-1.5-2.3-1.8-3.6c-0.5-2.2,1.4-4.3,3.1-5.8c-0.4-0.9-0.2-1.9,0.5-2.5c0.7-0.6,1.6-0.9,2.5-1c0.2,0,0.5-0.1,0.7-0.3
	c0.3-0.3,0.2-0.8,0-1.2c-0.5-6.8,10.6-5,14.7-4.6c1.7,0.2,3.4,0.7,4.8,1.6C372,300.7,375.4,305.1,373.9,305.4z"/>
<path class="st12" d="M352.3,337.9h0.3c6,1.5,14.6,6.9,16.6,12.9c2.9,8.2,3.6,17,2.3,25.6c-1.2,5.5-4.6,10.2-5.9,15.5
	c-1,5.9-2.4,11.7-4.2,17.4c-0.8,2.6-2.5,4.9-4.8,6.5c-2,1-4.3,1.5-6.6,1.4c-6.7,0.4-16.1,2.6-21.7-2c-4.1-3.8-6.2-9.3-5.6-14.9
	c0.6-5.5,2-10.9,4.3-15.9l9.3-24.2C338.5,354.5,343.9,336.2,352.3,337.9z"/>
<linearGradient id="SVGID_17_" gradientUnits="userSpaceOnUse" x1="356.4648" y1="615.2159" x2="461.218" y2="627.5059" gradientTransform="matrix(1 0 0 -1 -38.95 1012.1179)">
	<stop  offset="1.000000e-02" style="stop-color:#000000"/>
	<stop  offset="8.000000e-02" style="stop-color:#000000;stop-opacity:0.69"/>
	<stop  offset="0.21" style="stop-color:#000000;stop-opacity:0.32"/>
	<stop  offset="1" style="stop-color:#000000;stop-opacity:0"/>
</linearGradient>
<path class="st25" d="M347.4,397.7c0.5,0.9,0.9,1.8,1,2.8c0,0.7-0.1,1.4-0.3,2.1c-1,3.9-1.4,8-1.2,12c-0.1,0.7,0.1,1.5,0.6,2
	c0.5,0.4,1.2,0.6,1.8,0.5c2.3,0.4,4.7,0.2,6.9-0.7c2.4-1.5,4.2-3.7,5.1-6.4c2.9-7.4,5.2-15,6.7-22.8c0.4-1.2,0.5-2.6,0.4-3.9
	c-0.5-2-1.8-3.6-3.6-4.6c-1.6-1.1-3.6-1.9-5-3.1c-3.1-2.4-5.3-6.7-9.5-7.2c-3-0.2-5.7,1.7-6.5,4.6
	C341.1,380.4,344,390.8,347.4,397.7z"/>
<path class="st12" d="M357.5,355.6c0,0,8.5,23,10.2,24.7c1.7,1.7-16.4,11.9-16.4,11.9s-11.8-22.4-11.2-32.1S350.7,346.4,357.5,355.6
	z"/>
<path class="st10" d="M351.3,389c0.7,4.7,5,7.9,9.7,7.2c0,0,0,0,0,0l15.4-0.2c7.2,0,14.2-0.3,21.3-0.3c1.7,0.2,3.4,0.7,5.1,1.3
	c2.2,0.5,4.5,0.6,6.7,0.4c4.4-0.5,8.6-2.4,11.8-5.5c2.2-1.7,3.2-4.6,2.4-7.2c-0.1-0.3-0.4-0.6-0.7-0.8c-0.3-0.1-0.6-0.1-0.9,0
	c-4.2,0.7-8.6,0.7-12.8-0.2c0.3-0.5,0.5-1.2,0.5-1.8c0-0.6-0.7-1.2-1.3-1.1c-0.3,0.1-0.6,0.3-0.8,0.6c-2.1,2.4-5.2,3.6-8.3,3.3
	c-11.7-0.5-23.2-3-34.8-3.6c-2.7-0.3-5.5,0-8.1,0.8C353.7,383.3,351.7,386,351.3,389z"/>
<path class="st26" d="M669,333.9c-2.9,1.3-5.5,3.1-7.7,5.2c-2.4,2.2-3.7,5.2-3.6,8.4c0.7,3.8,2.8,7.1,5.9,9.4
	c3.3,2.9,7.2,5.9,7.5,10.2c2.3-1.7,4.5-3.6,6.9-5.4c4.4-2.6,9.1-4.8,13.8-6.5c4.8-1.8,8.9-5.3,11.5-9.8c1.2-2.9,1.9-6,2-9.1
	c0.5-3.4,0.5-6.7,0.3-10.1c-0.3-3.4-1.8-6.6-4.2-9c-3.7-2.8-8-4.6-12.5-5.3c-5.3,0.2-9.9,3.5-11.9,8.3c-0.9,2.5-0.5,5.4-1.4,7.9
	C674.1,330.9,671.8,332.9,669,333.9z"/>
<path class="st10" d="M629,539c-0.9,0.1-1.8,0.3-2.6,0.7c-0.8,0.4-1.4,1.2-1.4,2.2c0.2,0.9,0.8,1.7,1.6,2c0.8,0.4,1.7,0.6,2.5,1
	c0.7,0.5,1.4,0.9,2.1,1.2c1.3,0.3,2.7,0.1,3.9-0.5c5.7-2,11.6-3,17.6-2.9c0.6,0.1,1.2,0.1,1.7,0c1.8-0.6,3.1-2.1,3.4-4
	c0.8-3.7,0.8-7.6,0-11.3c-0.1-0.4-0.2-0.8-0.4-1.2c-0.3-0.3-0.6-0.5-1-0.6c-5.9-2.2-8.4,3.6-12.3,6.8
	C639.8,535.9,634.6,538.2,629,539z"/>
<path class="st1" d="M648.6,539.2h-1.2c-2.7,0.3-5.3,0.4-8,0.2c-0.5,0-1-0.1-1.4-0.4c-0.6-0.5-0.9-1.2-0.9-1.9
	c0.1-0.7,0.1-1.4,0-2.2c0-0.1-0.1-0.3-0.2-0.4c-0.1,0-0.3,0-0.4,0c-2,0.1-4,0.6-5.8,1.6c-3.7,1.5-6.8,4-9,7.2
	c-0.2,0.3-0.3,0.6-0.3,0.9c0,0.3,0.1,0.6,0.3,0.8c2.4,3.6,8.3,2.8,12,2.1c3.7-0.8,8-2.4,12.1-3.1c4.1-0.7,9.4-0.4,13.3-2.7
	c0.6-0.3,1.2-0.9,1.6-1.5c0.7-2.3,0.1-4.7-1.6-6.4c-0.1-0.2-0.3-0.3-0.5-0.4c-0.3,0-0.6,0-0.8,0.2c-1.8,1.2-3.1,3.2-5,4.3
	C651.5,538.5,650.1,539,648.6,539.2z"/>
<path class="st1" d="M689,388.2c0,0,18.4,10.6,13.3,29.8c-4.5,16.8-17.5,27.3-25.7,41.7c-4.6,8-3.6,21-5.7,30.3
	c-2.4,11.4-5.7,22.6-9.8,33.4c-0.9,2.2-2.2,4.7-4.6,4.8c-1.1-0.1-2.2-0.4-3.3-0.6c-1,0.1-2.1,0.1-3.1,0c-2.7-0.6-2.7-4.4-2.1-7.2
	c2.9-12.9,4.7-26.1,5.3-39.3c0.4-10.2-2.3-21,0.6-30.9c2.3-7.8,15.9-49.7,15.9-49.7L689,388.2z"/>
<linearGradient id="SVGID_18_" gradientUnits="userSpaceOnUse" x1="834.8167" y1="543.0944" x2="401.9235" y2="581.1208" gradientTransform="matrix(1 0 0 -1 -38.95 1012.1179)">
	<stop  offset="1.000000e-02" style="stop-color:#000000"/>
	<stop  offset="8.000000e-02" style="stop-color:#000000;stop-opacity:0.69"/>
	<stop  offset="0.21" style="stop-color:#000000;stop-opacity:0.32"/>
	<stop  offset="1" style="stop-color:#000000;stop-opacity:0"/>
</linearGradient>
<path class="st27" d="M689,388.2c0,0,18.4,10.6,13.3,29.8c-4.5,16.8-17.5,27.3-25.7,41.7c-4.6,8-3.6,21-5.7,30.3
	c-2.4,11.4-5.7,22.6-9.8,33.4c-0.9,2.2-2.2,4.7-4.6,4.8c-1.1-0.1-2.2-0.4-3.3-0.6c-1,0.1-2.1,0.1-3.1,0c-2.7-0.6-2.7-4.4-2.1-7.2
	c2.9-12.9,4.7-26.1,5.3-39.3c0.4-10.2-2.3-21,0.6-30.9c2.3-7.8,15.9-49.7,15.9-49.7L689,388.2z"/>
<path class="st10" d="M667.8,549.2c-0.9,0.3-1.7,0.7-2.4,1.3c-0.7,0.6-1.1,1.5-0.8,2.5c0.4,0.8,1.2,1.4,2.1,1.6
	c0.9,0.2,1.8,0,2.6,0.4c0.8,0.3,1.6,0.5,2.4,0.7c1.3-0.1,2.6-0.6,3.6-1.5c5-3.3,10.5-5.8,16.4-7.2c0.6-0.1,1.1-0.3,1.7-0.5
	c1.4-1.1,2.2-2.8,2.1-4.6c-0.1-3.8-1.1-7.5-2.9-10.8c-0.1-0.4-0.4-0.8-0.7-1c-0.3-0.2-0.7-0.3-1.1-0.3c-6.3-0.7-7.2,5.6-10.2,9.7
	C677.3,543.5,672.9,547,667.8,549.2z"/>
<path class="st1" d="M686.8,401.3c4.9,0.7,9.4,2.9,12.9,6.3c7.7,6.5,7.2,19.9,4.6,29.7c-1.4,5.1-9.5,21.3-10.8,25.9
	c-2.3,8.7,2.3,19.4,2.7,28.2c0.5,11.6,0.1,23.3-1.2,34.8c-0.3,2.3-0.9,5.1-3.2,5.8c-1.1,0.3-2.2,0-3.3,0.2c-1,0.4-2,0.7-3,0.9
	c-2.7,0-3.6-3.6-3.6-6.3c-0.4-13.2-2-26.4-4.7-39.4c-2.1-10-7.5-19.8-7.2-30.1l0.8-25.3c0.3-9.3-1-18.8,1.8-27.7
	c0.2-1.1,0.8-2.1,1.7-2.8c0.8-0.5,1.7-0.7,2.7-0.7c2.8-0.2,5.5-0.2,8.3,0L686.8,401.3z"/>
<path class="st10" d="M673.5,306.9c-0.7,1.2-2.1,1.8-2.6,3.1c-0.5,1.3,0.5,3.2,1.1,4.7c0.8,2.2,0.5,4.6,1.3,6.8
	c0.1,0.5,0.4,0.9,0.8,1.2c0.3,0.2,0.7,0.4,1.2,0.4c1.6,0.4,3.3,0.5,5,0.3c0.3-0.1,0.6-0.1,0.9,0c0.2,0.2,0.4,0.5,0.4,0.8
	c0.9,4.1,0.9,8.4-0.2,12.5c-0.3,1.3-0.7,3,0.3,4c0.4,0.3,0.8,0.5,1.3,0.6c3.3,0.3,6.4-1.3,8.2-4c1.9-2.2,3.5-4.6,4.8-7.2
	c0.4-0.7,0.7-1.5,0.8-2.3c0.1-1.1-0.1-2.1-0.4-3.1c-0.9-3.4-1.4-6.9-1.6-10.4c0.2-4.5-0.4-9-1.7-13.4c-0.5-1.5-1.4-2.7-2.7-3.6
	c-1.5-0.7-3.2-1-4.9-0.8c-3.3-0.3-6.6,0.8-9.1,3C675.8,300.8,674.4,305.4,673.5,306.9z"/>
<path class="st12" d="M696.5,328.6c0,0-13.5,7-17.6,12.4s-10.8,9.5-8.2,19.9c2.1,8.4-0.2,16.2-0.3,24.5c0,2.3,1,4.1,0.9,6.4
	c0,4-3.6,7.6-2.2,11.8c1,3.4,5,4.9,8.5,5.9l13.6,3.9c2.9,1.2,6.2,1.3,9.1,0.2c3.4-1.9,4.2-6.4,4.5-10.3c0.8-10,0.5-22,4.6-31.4
	c2.5-5.3,3.4-11.3,2.5-17.1C711.1,347.3,707.8,327.2,696.5,328.6z"/>
<path class="st26" d="M677.9,299.6c0.3,2.2,1.3,4.3,3,5.8c1.6,1.5,3.6,2.5,5.2,3.9c1.8,1.3,2.8,3.5,2.6,5.7c1.3-0.6,2.9-0.1,3.6,1.1
	c0.4,0.8,0.2,1.8-0.4,2.5c-0.6,0.7-1.5,1-2.3,1c1.7,0.7,3.2,1.9,4.2,3.4c1.2,1.7,1.7,3.6,2.8,5.5c1.3,1.8,2.9,3.3,4.8,4.5
	c0.9,0.6,1.6,1.3,2.1,2.2c0.4,1.4,0.9,2.7,1.4,4c1.2,1.7,2.5,3.3,3.9,4.9c1.8,2.7,2.9,5.9,3,9.1c-0.1-1-0.1-2,0-2.9
	c0.3-0.6,0.7-1.2,0.9-1.7c0.5-1.1,0.9-2.2,1.2-3.3c0.4-2.6,0.5-5.3,0.2-8c0-5.7,5.3-16.4,1-21.3c-1.7-1.4-3.5-2.7-5.5-3.9
	c-3.6-3.1-4.3-8.7-6.7-13c-2.1-3.8-5.7-6.6-9.9-7.8C687.4,290,677.2,291.7,677.9,299.6z"/>
<path class="st12" d="M696.1,337.4c0,0-24.3,3.9-26.5,3.3c-2.3-0.6-2.3,20.1-2.3,20.1s25.3-0.8,33.5-6
	C708.9,349.4,707.3,338.6,696.1,337.4z"/>
<path class="st10" d="M670,359.2c-4.4,1.7-9.4-0.4-11.1-4.8c0,0,0,0,0-0.1l-19.4-35.5c0-3.1-1.8-6.5-0.8-9.4c0.5-1.4,1.5-2.6,2-3.9
	c0.7-1.8,0.7-3.8,0-5.6c-0.7-1.8-1.6-3.4-2.7-5c0.4-1.1,1.6-1.7,2.7-1.5c1.1,0.3,2.1,0.9,2.8,1.8c3.3,3.5,5.2,8.1,5.1,12.9
	c-0.2,1.4-0.2,2.9,0,4.4c0.3,1,0.8,1.9,1.4,2.7c6.2,9.9,14,18.7,20.2,28.6c1.6,2.3,2.7,4.8,3.3,7.5
	C673.7,354.3,672.4,357.3,670,359.2z"/>
<path class="st1" d="M687.5,545.9l-1,0.3c-2.4,0.6-4.8,1-7.2,1.2c-0.4,0.1-0.9,0.1-1.4,0c-0.6-0.4-1-1-1-1.7c-0.1-0.7-0.2-1.3-0.4-2
	c0-0.1-0.1-0.3-0.3-0.3c-0.1,0-0.2,0-0.4,0c-1.9,0.3-3.7,1.1-5.2,2.2c-3.1,1.9-5.6,4.6-7.2,7.9c-0.1,0.3-0.2,0.6-0.2,0.9
	c0.1,0.3,0.2,0.5,0.4,0.7c2.7,3.1,8,1.6,11.3,0.4s7-3.2,10.8-4.3s8.6-1.6,11.9-4.2c0.5-0.4,1-0.9,1.3-1.5c0.4-2.2-0.5-4.4-2.3-5.7
	c-0.1-0.2-0.3-0.3-0.5-0.3c-0.3,0-0.5,0.1-0.7,0.3c-1.6,1.3-2.5,3.3-4,4.6C690.1,545.1,688.8,545.7,687.5,545.9z"/>
<path class="st1" d="M638.9,377.4H412.1v-158h227L638.9,377.4z M414,375.3h223V221.4H414V375.3z"/>
<text transform="matrix(1 0 0 1 422.2031 322.1728)" class="st28 st29 st30">404</text>
</svg>
