<?xml version="1.0" encoding="utf-8"?>
<!-- Generator: Adobe Illustrator 24.1.0, SVG Export Plug-In . SVG Version: 6.00 Build 0)  -->
<svg version="1.1" id="图层_1" xmlns="http://www.w3.org/2000/svg" xmlns:xlink="http://www.w3.org/1999/xlink" x="0px" y="0px"
	 viewBox="0 0 71.9 72.2" style="enable-background:new 0 0 71.9 72.2;" xml:space="preserve">
<style type="text/css">
	.st0{clip-path:url(#SVGID_2_);fill:none;stroke:#285A83;stroke-width:2;stroke-miterlimit:10;}
	
		.st1{clip-path:url(#SVGID_2_);fill:none;stroke:#EF6F53;stroke-width:2;stroke-linecap:round;stroke-linejoin:round;stroke-miterlimit:10;}
	.st2{clip-path:url(#SVGID_4_);fill:none;stroke:#285A83;stroke-width:2;stroke-miterlimit:10;}
	
		.st3{clip-path:url(#SVGID_4_);fill:none;stroke:#EF6F53;stroke-width:2;stroke-linecap:round;stroke-linejoin:round;stroke-miterlimit:10;}
	.st4{fill:#285A83;}
	.st5{fill:#EF6F53;}
</style>
<g>
	<defs>
		<rect id="SVGID_1_" x="-931.6" y="-750.8" width="1920" height="1578"/>
	</defs>
	<clipPath id="SVGID_2_">
		<use xlink:href="#SVGID_1_"  style="overflow:visible;"/>
	</clipPath>
</g>
<g>
	<defs>
		<rect id="SVGID_3_" x="-933.5" y="-739.7" width="1920" height="1578"/>
	</defs>
	<clipPath id="SVGID_4_">
		<use xlink:href="#SVGID_3_"  style="overflow:visible;"/>
	</clipPath>
</g>
<g>
	<path class="st4" d="M35.9,72c-19.9,0-36-16.1-36-36s16.1-36,36-36s36,16.1,36,36S55.8,72,35.9,72z M35.9,2c-18.7,0-34,15.3-34,34
		s15.3,34,34,34s34-15.3,34-34S54.7,2,35.9,2z"/>
</g>
<g>
	<path class="st4" d="M34.8,55.6L22.9,47c-1.3-0.9-2-2.4-2-4V23.2c0-1.9,1.5-3.4,3.4-3.4h23.4c1.9,0,3.4,1.5,3.4,3.4V43
		c0,1.6-0.8,3-2,4l-11.9,8.6C36.4,56.1,35.5,56.1,34.8,55.6z M24.2,21.9c-0.8,0-1.4,0.6-1.4,1.4V43c0,0.9,0.4,1.8,1.2,2.3l10.7,7.8
		c0.7,0.5,1.6,0.5,2.3,0l10.7-7.8c0.7-0.5,1.2-1.4,1.2-2.3V23.2c0-0.8-0.6-1.4-1.4-1.4H24.2z"/>
</g>
<g>
	<rect x="21.9" y="26.1" class="st4" width="28.2" height="2"/>
</g>
<g>
	<path class="st5" d="M37.4,45.1h-5.5c-0.6,0-1-0.4-1-1s0.4-1,1-1h5.5c0.8,0,1.5-0.7,1.5-1.5s-0.7-1.5-1.5-1.5h-3
		c-1.9,0-3.5-1.6-3.5-3.5v-0.2c0-1.9,1.6-3.5,3.5-3.5h5.5c0.6,0,1,0.4,1,1s-0.4,1-1,1h-5.5c-0.8,0-1.5,0.7-1.5,1.5v0.2
		c0,0.8,0.7,1.5,1.5,1.5h3c1.9,0,3.5,1.6,3.5,3.5S39.3,45.1,37.4,45.1z"/>
</g>
<g>
	<path class="st5" d="M36,34.6c-0.6,0-1-0.4-1-1v-2.2c0-0.6,0.4-1,1-1s1,0.4,1,1v2.2C37,34.1,36.5,34.6,36,34.6z"/>
</g>
<g>
	<path class="st5" d="M36,47.7c-0.6,0-1-0.4-1-1v-2.6c0-0.6,0.4-1,1-1s1,0.4,1,1v2.6C37,47.2,36.5,47.7,36,47.7z"/>
</g>
</svg>
