<svg id="图层_1" data-name="图层 1" xmlns="http://www.w3.org/2000/svg" viewBox="0 0 16 16"><defs><style>.cls-1{fill:#ef6f53;}.cls-2{fill:#285a83;}</style></defs><path class="cls-1" d="M9.89,3.54c0-1-1.65-.91-1.65-1.4,0-.21.18-.34.48-.34a1.12,1.12,0,0,1,.77.29l.32-.36A1.37,1.37,0,0,0,9,1.3V.78H8.52v.53c-.54.07-.88.38-.88.84,0,1,1.64.87,1.64,1.43,0,.22-.18.36-.52.36a1.71,1.71,0,0,1-1-.36L7.49,4a2,2,0,0,0,1,.43V5H9V4.43C9.54,4.35,9.89,4,9.89,3.54Z"/><path class="cls-1" d="M11.8,8.56c0-.72-1.21-.66-1.21-1,0-.15.14-.25.36-.25a.81.81,0,0,1,.56.21l.23-.26a1,1,0,0,0-.63-.32V6.54H10.8v.39c-.39.05-.65.28-.65.62,0,.71,1.2.63,1.2,1,0,.16-.13.26-.38.26a1.25,1.25,0,0,1-.72-.25L10,8.91a1.52,1.52,0,0,0,.76.31v.44h.31V9.21C11.54,9.15,11.8,8.9,11.8,8.56Z"/><path class="cls-1" d="M12.94,5c0-.83-1.38-.77-1.38-1.18,0-.18.15-.29.4-.29a1,1,0,0,1,.65.25l.27-.31a1.24,1.24,0,0,0-.73-.36V2.68h-.36v.45c-.45.06-.75.32-.75.71,0,.82,1.39.73,1.39,1.21,0,.18-.15.29-.44.29a1.46,1.46,0,0,1-.83-.29l-.24.36a1.66,1.66,0,0,0,.87.36v.51h.36V5.76C12.65,5.69,12.94,5.4,12.94,5Z"/><path class="cls-1" d="M14.31,1.59c0-.51-.85-.47-.85-.72s.09-.18.25-.18a.59.59,0,0,1,.4.15l.16-.19a.71.71,0,0,0-.44-.22V.16H13.6V.44a.45.45,0,0,0-.45.43c0,.51.85.45.85.74,0,.11-.1.19-.27.19a.84.84,0,0,1-.51-.19l-.15.23a1.09,1.09,0,0,0,.53.22v.31h.23V2.05C14.13,2,14.31,1.83,14.31,1.59Z"/><path class="cls-1" d="M16,5.74C16,5,14.76,5,14.76,4.65c0-.17.13-.27.36-.27a.82.82,0,0,1,.58.23l.24-.28A1,1,0,0,0,15.29,4V3.58H15V4a.67.67,0,0,0-.67.66c0,.75,1.24.67,1.24,1.11,0,.17-.14.28-.39.28a1.31,1.31,0,0,1-.75-.28l-.21.34a1.52,1.52,0,0,0,.78.33v.47h.32V6.43C15.74,6.36,16,6.09,16,5.74Z"/><path class="cls-2" d="M2.73,13.57l1-.19a.18.18,0,0,1,.2.08l1.34,1.75a.2.2,0,0,1-.07.31l-.57.29a.21.21,0,0,1-.25,0L2.62,13.92A.21.21,0,0,1,2.73,13.57Z"/><path class="cls-2" d="M6.27,4.48l-.46.26c-.07,1.84-2.24,3.51-4,4.56l.9,1.49-.56.3L1.23,9.63.52,10a1,1,0,0,0-.38,1.35l.78,1.28A1,1,0,0,0,2.26,13l.34-.23C7,10.1,9.47,11.66,9.47,11.66l.47-.13Z"/></svg>
