<?xml version="1.0" encoding="utf-8"?>
<!-- Generator: Adobe Illustrator 24.1.0, SVG Export Plug-In . SVG Version: 6.00 Build 0)  -->
<svg version="1.1" id="图层_1" xmlns="http://www.w3.org/2000/svg" xmlns:xlink="http://www.w3.org/1999/xlink" x="0px" y="0px"
	 viewBox="0 0 16 16" style="enable-background:new 0 0 16 16;" xml:space="preserve">
<style type="text/css">
	.st0{fill:#285A83;}
	.st1{fill:#EF6F53;}
</style>
<g>
	<path class="st0" d="M14.4,11.3H1.6C0.7,11.3,0,10.6,0,9.7V2.1c0-0.9,0.7-1.6,1.6-1.6h12.8c0.9,0,1.6,0.7,1.6,1.6v7.6
		C16,10.6,15.3,11.3,14.4,11.3z M1.6,1.4c-0.4,0-0.7,0.3-0.7,0.7v7.6c0,0.4,0.3,0.7,0.7,0.7h12.8c0.4,0,0.7-0.3,0.7-0.7V2.1
		c0-0.4-0.3-0.7-0.7-0.7H1.6z"/>
	<path class="st0" d="M15.5,13.4H0.5c-0.3,0-0.5-0.2-0.5-0.5c0-0.3,0.2-0.5,0.5-0.5h15.1c0.3,0,0.5,0.2,0.5,0.5
		C16,13.2,15.8,13.4,15.5,13.4z"/>
	<path class="st0" d="M15.5,15.4H0.5C0.2,15.4,0,15.2,0,15c0-0.3,0.2-0.5,0.5-0.5h15.1c0.3,0,0.5,0.2,0.5,0.5
		C16,15.2,15.8,15.4,15.5,15.4z"/>
	<path class="st1" d="M8.7,8.8H6.2c-0.3,0-0.5-0.2-0.5-0.5s0.2-0.5,0.5-0.5h2.5c0.4,0,0.7-0.3,0.7-0.7c0-0.4-0.3-0.7-0.7-0.7H7.3
		c-0.9,0-1.6-0.7-1.6-1.6V4.8c0-0.9,0.7-1.6,1.6-1.6h2.5c0.3,0,0.5,0.2,0.5,0.5s-0.2,0.5-0.5,0.5H7.3c-0.4,0-0.7,0.3-0.7,0.7v0.1
		c0,0.4,0.3,0.7,0.7,0.7h1.4c0.9,0,1.6,0.7,1.6,1.6S9.6,8.8,8.7,8.8z"/>
	<path class="st1" d="M8.1,3.9c-0.3,0-0.5-0.2-0.5-0.5v-1C7.6,2.2,7.8,2,8.1,2s0.5,0.2,0.5,0.5v1C8.5,3.7,8.3,3.9,8.1,3.9z"/>
	<path class="st1" d="M8.1,9.9c-0.3,0-0.5-0.2-0.5-0.5V8.3c0-0.3,0.2-0.5,0.5-0.5S8.5,8,8.5,8.3v1.2C8.5,9.7,8.3,9.9,8.1,9.9z"/>
</g>
</svg>
