<?xml version="1.0" encoding="utf-8"?>
<!-- Generator: Adobe Illustrator 24.1.0, SVG Export Plug-In . SVG Version: 6.00 Build 0)  -->
<svg version="1.1" xmlns="http://www.w3.org/2000/svg" xmlns:xlink="http://www.w3.org/1999/xlink" x="0px" y="0px"
	 viewBox="0 0 1920 1379.7" style="enable-background:new 0 0 1920 1379.7;" xml:space="preserve">
<style type="text/css">
	.st0{fill:#D0D4F6;}
	.st1{fill:#BDC1E4;}
	.st2{fill:#6889A0;}
	.st3{fill:#F7F7FC;}
	.st4{fill:url(#SVGID_1_);}
	.st5{fill:#0B455E;}
	.st6{fill:url(#SVGID_2_);}
	.st7{fill:#DFE3F7;}
	.st8{fill:#EF6F53;}
	.st9{fill:url(#SVGID_3_);}
	.st10{fill:url(#SVGID_4_);}
	.st11{fill:url(#SVGID_5_);}
	.st12{fill:url(#SVGID_6_);}
	.st13{fill:url(#SVGID_7_);}
	.st14{fill:url(#SVGID_8_);}
	.st15{fill:url(#SVGID_9_);}
	.st16{fill:url(#SVGID_10_);}
	.st17{fill:url(#SVGID_11_);}
	.st18{fill:url(#SVGID_12_);}
	.st19{fill:url(#SVGID_13_);}
	.st20{fill:url(#SVGID_14_);}
	.st21{fill:url(#SVGID_15_);}
	.st22{fill:url(#SVGID_16_);}
	.st23{fill:url(#SVGID_17_);}
	.st24{fill:url(#SVGID_18_);}
	.st25{fill:url(#SVGID_19_);}
	.st26{fill:url(#SVGID_20_);}
	.st27{fill:url(#SVGID_21_);}
	.st28{fill:url(#SVGID_22_);}
	.st29{fill:url(#SVGID_23_);}
	.st30{fill:url(#SVGID_24_);}
	.st31{fill:url(#SVGID_25_);}
	.st32{fill:url(#SVGID_26_);}
	.st33{fill:url(#SVGID_27_);}
	.st34{fill:url(#SVGID_28_);}
	.st35{fill:url(#SVGID_29_);}
	.st36{fill:url(#SVGID_30_);}
	.st37{fill:url(#SVGID_31_);}
	.st38{fill:url(#SVGID_32_);}
	.st39{fill:url(#SVGID_33_);}
	.st40{fill:url(#SVGID_34_);}
	.st41{fill:url(#SVGID_35_);}
	.st42{fill:url(#SVGID_36_);}
	.st43{fill:url(#SVGID_37_);}
	.st44{fill:url(#SVGID_38_);}
	.st45{fill:url(#SVGID_39_);}
	.st46{fill:url(#SVGID_40_);}
	.st47{fill:url(#SVGID_41_);}
	.st48{fill:url(#SVGID_42_);}
	.st49{fill:url(#SVGID_43_);}
	.st50{fill:url(#SVGID_44_);}
	.st51{fill:url(#SVGID_45_);}
	.st52{fill:url(#SVGID_46_);}
	.st53{fill:url(#SVGID_47_);}
	.st54{fill:url(#SVGID_48_);}
	.st55{fill:url(#SVGID_49_);}
	.st56{fill:url(#SVGID_50_);}
	.st57{fill:url(#SVGID_51_);}
	.st58{fill:url(#SVGID_52_);}
	.st59{fill:url(#SVGID_53_);}
	.st60{fill:url(#SVGID_54_);}
	.st61{fill:url(#SVGID_55_);}
	.st62{fill:url(#SVGID_56_);}
	.st63{fill:url(#SVGID_57_);}
	.st64{fill:url(#SVGID_58_);}
	.st65{fill:url(#SVGID_59_);}
	.st66{fill:url(#SVGID_60_);}
	.st67{fill:url(#SVGID_61_);}
	.st68{fill:url(#SVGID_62_);}
	.st69{fill:url(#SVGID_63_);}
	.st70{fill:url(#SVGID_64_);}
	.st71{fill:url(#SVGID_65_);}
	.st72{fill:url(#SVGID_66_);}
	.st73{fill:url(#SVGID_67_);}
	.st74{fill:url(#SVGID_68_);}
	.st75{fill:url(#SVGID_69_);}
	.st76{fill:url(#SVGID_70_);}
	.st77{fill:url(#SVGID_71_);}
	.st78{fill:url(#SVGID_72_);}
	.st79{fill:url(#SVGID_73_);}
	.st80{fill:url(#SVGID_74_);}
	.st81{fill:url(#SVGID_75_);}
	.st82{fill:url(#SVGID_76_);}
	.st83{fill:url(#SVGID_77_);}
	.st84{fill:url(#SVGID_78_);}
	.st85{fill:url(#SVGID_79_);}
	.st86{fill:url(#SVGID_80_);}
	.st87{fill:url(#SVGID_81_);}
	.st88{fill:url(#SVGID_82_);}
	.st89{fill:url(#SVGID_83_);}
	.st90{fill:url(#SVGID_84_);}
	.st91{fill:url(#SVGID_85_);}
	.st92{fill:url(#SVGID_86_);}
	.st93{fill:url(#SVGID_87_);}
	.st94{fill:url(#SVGID_88_);}
	.st95{fill:#A3AACE;}
	.st96{fill:#285A83;}
	.st97{fill:#EB8489;}
	.st98{fill:url(#SVGID_89_);}
	.st99{fill:url(#SVGID_90_);}
	.st100{fill:url(#SVGID_91_);}
	.st101{fill:url(#SVGID_92_);}
	.st102{fill:url(#SVGID_93_);}
	.st103{fill:#FFFFFF;}
	.st104{fill:url(#SVGID_94_);}
	.st105{fill:url(#SVGID_95_);}
	.st106{fill:url(#SVGID_96_);}
	.st107{fill:#EACBC3;}
	.st108{fill:url(#SVGID_97_);}
	.st109{fill:url(#SVGID_98_);}
	.st110{fill:url(#SVGID_99_);}
	.st111{fill:url(#SVGID_100_);}
	.st112{fill:#F2D5CC;}
	.st113{fill:url(#SVGID_101_);}
	.st114{fill:url(#SVGID_102_);}
	.st115{fill:url(#SVGID_103_);}
	.st116{fill:#1C4663;}
	.st117{fill:#DD6F79;}
	.st118{fill:#6A6AE2;}
	.st119{fill:#4D6877;}
	.st120{fill:#FC9483;}
	.st121{fill:#CE5541;}
	.st122{fill:#7F7FF4;}
</style>
<g id="Background">
</g>
<g id="Page_layout">
	<g id="Shadow">
	</g>
	<g id="White_background">
	</g>
	<g id="Color_shape">
	</g>
	<g id="Logo">
	</g>
	<g id="Text_1_">
	</g>
	<g id="Button">
	</g>
</g>
<g id="Objects">
	<g id="Plants">
		<path class="st0" d="M808.3,1155.5c-53.1-7.5-83.9,32.1-84,95.3C773.6,1248,825.4,1211.6,808.3,1155.5z"/>
		<g>
			<path class="st1" d="M861.8,1130.6c56.1,57.3,35.7,129.5-40.2,185.6C781.2,1254.4,779.1,1159.7,861.8,1130.6z"/>
			<g>
				<path class="st0" d="M824,1304.3c-0.2,0-0.5,0-0.7-0.1c-1-0.4-1.6-1.5-1.2-2.6c11.4-30.3,19.9-78.2,26.8-116.8
					c4.1-22.9,7.6-42.7,10.9-54.7c0.3-1.1,1.4-1.7,2.5-1.4c1.1,0.3,1.7,1.4,1.4,2.5c-3.3,11.9-6.8,31.6-10.9,54.4
					c-6.9,38.7-15.5,86.8-27,117.5C825.5,1303.8,824.8,1304.3,824,1304.3z"/>
			</g>
		</g>
		<path class="st0" d="M875.1,1134.5c-9.9,60.9,35,97.3,107.7,98.8C980.7,1176.6,940,1116.1,875.1,1134.5z"/>
	</g>
	<g id="Laptop">
		<g>
			<path class="st2" d="M663,938.1l266.1-53.8c9.3-1.9,18.4,4.2,20.3,13.5l33.4,165.2l-299.9,60.6l-33.4-165.2
				C647.6,949.1,653.7,940,663,938.1z"/>
			
				<rect x="676.1" y="922.5" transform="matrix(0.9802 -0.1981 0.1981 0.9802 -183.6321 181.5518)" class="st3" width="279.2" height="172.6"/>
			<linearGradient id="SVGID_1_" gradientUnits="userSpaceOnUse" x1="626.3743" y1="1130.2218" x2="1063.5391" y2="1130.2218">
				<stop  offset="0" style="stop-color:#285A83"/>
				<stop  offset="1" style="stop-color:#6889A0"/>
			</linearGradient>
			<polygon class="st4" points="1063.5,1109.1 626.4,1197.4 682.9,1123.6 982.8,1063 			"/>
			<path class="st5" d="M845,1153.2l-218.6,44.2c1.3,6.6,10.1,13.2,16.2,11.9c6.1-1.2,205.4-41.5,205.4-41.5s199.3-40.3,205.4-41.5
				s11.6-10.7,10.2-17.3L845,1153.2z"/>
			<linearGradient id="SVGID_2_" gradientUnits="userSpaceOnUse" x1="798.7961" y1="1138.6229" x2="889.3432" y2="1138.6229">
				<stop  offset="0" style="stop-color:#285A83"/>
				<stop  offset="1" style="stop-color:#6889A0"/>
			</linearGradient>
			<polygon class="st6" points="799.7,1135.4 879.8,1119.2 889.3,1139.7 798.8,1158 			"/>
		</g>
		<g>
			
				<rect x="684.1" y="955.6" transform="matrix(0.9802 -0.1981 0.1981 0.9802 -183.4751 164.9245)" class="st7" width="97.3" height="88.1"/>
			
				<rect x="717.4" y="1052.1" transform="matrix(0.9802 -0.1981 0.1981 0.9802 -196.7068 169.0042)" class="st0" width="58.1" height="31.5"/>
			
				<rect x="801.3" y="930" transform="matrix(0.9802 -0.1981 0.1981 0.9802 -169.4763 188.162)" class="st0" width="109.1" height="22.5"/>
			
				<rect x="807.5" y="966.9" transform="matrix(0.9802 -0.1981 0.1981 0.9802 -176.3937 185.3937)" class="st8" width="62.1" height="15.1"/>
			
				<rect x="813.7" y="987" transform="matrix(0.9802 -0.1981 0.1981 0.9802 -181.4149 191.8426)" class="st7" width="109.1" height="31.6"/>
			
				<rect x="826.9" y="1032.4" transform="matrix(0.9802 -0.1981 0.1981 0.9802 -189.3267 189.8686)" class="st8" width="55.1" height="17.9"/>
		</g>
		<g>
			<linearGradient id="SVGID_3_" gradientUnits="userSpaceOnUse" x1="830.1867" y1="1111.3656" x2="843.0089" y2="1111.3656">
				<stop  offset="0" style="stop-color:#285A83"/>
				<stop  offset="1" style="stop-color:#6889A0"/>
			</linearGradient>
			<polygon class="st9" points="841.9,1107.8 830.2,1110.2 830.9,1114.9 843,1112.4 			"/>
			<linearGradient id="SVGID_4_" gradientUnits="userSpaceOnUse" x1="829.1429" y1="1104.7039" x2="841.3647" y2="1104.7039">
				<stop  offset="0" style="stop-color:#285A83"/>
				<stop  offset="1" style="stop-color:#6889A0"/>
			</linearGradient>
			<polygon class="st10" points="840.2,1101.2 829.1,1103.4 829.9,1108.2 841.4,1105.9 			"/>
			<linearGradient id="SVGID_5_" gradientUnits="userSpaceOnUse" x1="907.2882" y1="1088.6748" x2="921.8732" y2="1088.6748">
				<stop  offset="0" style="stop-color:#285A83"/>
				<stop  offset="1" style="stop-color:#6889A0"/>
			</linearGradient>
			<polygon class="st11" points="907.3,1087.6 910.7,1091.9 921.9,1089.6 918,1085.5 			"/>
			<linearGradient id="SVGID_6_" gradientUnits="userSpaceOnUse" x1="920.3358" y1="1086.0033" x2="935.2687" y2="1086.0033">
				<stop  offset="0" style="stop-color:#285A83"/>
				<stop  offset="1" style="stop-color:#6889A0"/>
			</linearGradient>
			<polygon class="st12" points="935.3,1086.9 931,1082.8 920.3,1085 924.2,1089.2 			"/>
			<linearGradient id="SVGID_7_" gradientUnits="userSpaceOnUse" x1="815.7889" y1="1101.0435" x2="826.8752" y2="1101.0435">
				<stop  offset="0" style="stop-color:#285A83"/>
				<stop  offset="1" style="stop-color:#6889A0"/>
			</linearGradient>
			<polygon class="st13" points="826.3,1098.1 815.8,1100.2 816,1104 826.9,1101.8 			"/>
			<linearGradient id="SVGID_8_" gradientUnits="userSpaceOnUse" x1="816.1468" y1="1107.3752" x2="827.919" y2="1107.3752">
				<stop  offset="0" style="stop-color:#285A83"/>
				<stop  offset="1" style="stop-color:#6889A0"/>
			</linearGradient>
			<polygon class="st14" points="827.2,1103.8 816.1,1106 816.4,1110.9 827.9,1108.6 			"/>
			<linearGradient id="SVGID_9_" gradientUnits="userSpaceOnUse" x1="933.3902" y1="1083.3313" x2="948.6604" y2="1083.3313">
				<stop  offset="0" style="stop-color:#285A83"/>
				<stop  offset="1" style="stop-color:#6889A0"/>
			</linearGradient>
			<polygon class="st15" points="948.7,1084.2 944,1080.2 933.4,1082.4 937.7,1086.4 			"/>
			<linearGradient id="SVGID_10_" gradientUnits="userSpaceOnUse" x1="803.0158" y1="1110.0465" x2="814.4651" y2="1110.0465">
				<stop  offset="0" style="stop-color:#285A83"/>
				<stop  offset="1" style="stop-color:#6889A0"/>
			</linearGradient>
			<polygon class="st16" points="814.2,1106.4 803.2,1108.7 803,1113.6 814.5,1111.3 			"/>
			<linearGradient id="SVGID_11_" gradientUnits="userSpaceOnUse" x1="816.5671" y1="1114.1621" x2="828.9484" y2="1114.1621">
				<stop  offset="0" style="stop-color:#285A83"/>
				<stop  offset="1" style="stop-color:#6889A0"/>
			</linearGradient>
			<polygon class="st17" points="828.2,1110.6 816.6,1112.9 816.9,1117.7 828.9,1115.3 			"/>
			<linearGradient id="SVGID_12_" gradientUnits="userSpaceOnUse" x1="803.2189" y1="1103.5981" x2="814.0448" y2="1103.5981">
				<stop  offset="0" style="stop-color:#285A83"/>
				<stop  offset="1" style="stop-color:#6889A0"/>
			</linearGradient>
			<polygon class="st18" points="813.8,1100.6 803.3,1102.7 803.2,1106.6 814,1104.4 			"/>
			<linearGradient id="SVGID_13_" gradientUnits="userSpaceOnUse" x1="843.8146" y1="1108.5691" x2="857.0612" y2="1108.5691">
				<stop  offset="0" style="stop-color:#285A83"/>
				<stop  offset="1" style="stop-color:#6889A0"/>
			</linearGradient>
			<polygon class="st19" points="857.1,1109.6 855.5,1105.1 843.8,1107.4 845,1112.1 			"/>
			<linearGradient id="SVGID_14_" gradientUnits="userSpaceOnUse" x1="855.16" y1="1099.361" x2="868.2305" y2="1099.361">
				<stop  offset="0" style="stop-color:#285A83"/>
				<stop  offset="1" style="stop-color:#6889A0"/>
			</linearGradient>
			<polygon class="st20" points="868.2,1100.5 866.2,1095.9 855.2,1098.2 856.8,1102.8 			"/>
			<linearGradient id="SVGID_15_" gradientUnits="userSpaceOnUse" x1="928.2542" y1="1078.0492" x2="942.0059" y2="1078.0492">
				<stop  offset="0" style="stop-color:#285A83"/>
				<stop  offset="1" style="stop-color:#6889A0"/>
			</linearGradient>
			<polygon class="st21" points="928.3,1077.5 931.6,1080.7 942,1078.6 938.3,1075.4 			"/>
			<linearGradient id="SVGID_16_" gradientUnits="userSpaceOnUse" x1="853.2092" y1="1093.3792" x2="865.3164" y2="1093.3792">
				<stop  offset="0" style="stop-color:#285A83"/>
				<stop  offset="1" style="stop-color:#6889A0"/>
			</linearGradient>
			<polygon class="st22" points="865.3,1094.1 863.7,1090.5 853.2,1092.6 854.5,1096.3 			"/>
			<linearGradient id="SVGID_17_" gradientUnits="userSpaceOnUse" x1="802.8155" y1="1116.9586" x2="814.8797" y2="1116.9586">
				<stop  offset="0" style="stop-color:#285A83"/>
				<stop  offset="1" style="stop-color:#6889A0"/>
			</linearGradient>
			<polygon class="st23" points="814.6,1113.3 803,1115.7 802.8,1120.6 814.9,1118.1 			"/>
			<linearGradient id="SVGID_18_" gradientUnits="userSpaceOnUse" x1="865.6984" y1="1090.8243" x2="878.114" y2="1090.8243">
				<stop  offset="0" style="stop-color:#285A83"/>
				<stop  offset="1" style="stop-color:#6889A0"/>
			</linearGradient>
			<polygon class="st24" points="867.3,1093.7 878.1,1091.5 876.1,1088 865.7,1090.1 			"/>
			<linearGradient id="SVGID_19_" gradientUnits="userSpaceOnUse" x1="842.1473" y1="1102.0323" x2="854.8021" y2="1102.0323">
				<stop  offset="0" style="stop-color:#285A83"/>
				<stop  offset="1" style="stop-color:#6889A0"/>
			</linearGradient>
			<polygon class="st25" points="854.8,1103.2 853.2,1098.6 842.1,1100.8 843.3,1105.5 			"/>
			<linearGradient id="SVGID_20_" gradientUnits="userSpaceOnUse" x1="903.2139" y1="1083.1594" x2="916.4655" y2="1083.1594">
				<stop  offset="0" style="stop-color:#285A83"/>
				<stop  offset="1" style="stop-color:#6889A0"/>
			</linearGradient>
			<polygon class="st26" points="905.9,1085.9 916.5,1083.7 913.4,1080.4 903.2,1082.5 			"/>
			<linearGradient id="SVGID_21_" gradientUnits="userSpaceOnUse" x1="915.7306" y1="1080.6045" x2="929.2375" y2="1080.6045">
				<stop  offset="0" style="stop-color:#285A83"/>
				<stop  offset="1" style="stop-color:#6889A0"/>
			</linearGradient>
			<polygon class="st27" points="918.8,1083.3 929.2,1081.2 925.9,1077.9 915.7,1080 			"/>
			<linearGradient id="SVGID_22_" gradientUnits="userSpaceOnUse" x1="878.1967" y1="1088.2695" x2="890.9038" y2="1088.2695">
				<stop  offset="0" style="stop-color:#285A83"/>
				<stop  offset="1" style="stop-color:#6889A0"/>
			</linearGradient>
			<polygon class="st28" points="880.2,1091.1 890.9,1088.9 888.6,1085.5 878.2,1087.6 			"/>
			<linearGradient id="SVGID_23_" gradientUnits="userSpaceOnUse" x1="890.7025" y1="1085.7144" x2="903.688" y2="1085.7144">
				<stop  offset="0" style="stop-color:#285A83"/>
				<stop  offset="1" style="stop-color:#6889A0"/>
			</linearGradient>
			<polygon class="st29" points="893,1088.5 903.7,1086.3 901,1083 890.7,1085 			"/>
			<linearGradient id="SVGID_24_" gradientUnits="userSpaceOnUse" x1="840.7276" y1="1095.9338" x2="852.5114" y2="1095.9338">
				<stop  offset="0" style="stop-color:#285A83"/>
				<stop  offset="1" style="stop-color:#6889A0"/>
			</linearGradient>
			<polygon class="st30" points="841.7,1098.9 852.5,1096.7 851.2,1093 840.7,1095.1 			"/>
			<linearGradient id="SVGID_25_" gradientUnits="userSpaceOnUse" x1="764.8473" y1="1111.2629" x2="776.3165" y2="1111.2629">
				<stop  offset="0" style="stop-color:#285A83"/>
				<stop  offset="1" style="stop-color:#6889A0"/>
			</linearGradient>
			<polygon class="st31" points="775.5,1112.2 776.3,1108.2 766,1110.2 764.8,1114.4 			"/>
			<linearGradient id="SVGID_26_" gradientUnits="userSpaceOnUse" x1="752.0699" y1="1113.8179" x2="763.8051" y2="1113.8179">
				<stop  offset="0" style="stop-color:#285A83"/>
				<stop  offset="1" style="stop-color:#6889A0"/>
			</linearGradient>
			<polygon class="st32" points="762.6,1114.8 763.8,1110.7 753.6,1112.7 752.1,1117 			"/>
			<linearGradient id="SVGID_27_" gradientUnits="userSpaceOnUse" x1="777.6315" y1="1108.7078" x2="788.8223" y2="1108.7078">
				<stop  offset="0" style="stop-color:#285A83"/>
				<stop  offset="1" style="stop-color:#6889A0"/>
			</linearGradient>
			<polygon class="st33" points="788.4,1109.6 788.8,1105.6 778.4,1107.7 777.6,1111.8 			"/>
			<linearGradient id="SVGID_28_" gradientUnits="userSpaceOnUse" x1="735.9776" y1="1123.4043" x2="748.9918" y2="1123.4043">
				<stop  offset="0" style="stop-color:#285A83"/>
				<stop  offset="1" style="stop-color:#6889A0"/>
			</linearGradient>
			<polygon class="st34" points="736,1127.2 747.1,1124.9 749,1119.6 738.3,1121.8 			"/>
			<linearGradient id="SVGID_29_" gradientUnits="userSpaceOnUse" x1="749.3731" y1="1120.7327" x2="762.0394" y2="1120.7327">
				<stop  offset="0" style="stop-color:#285A83"/>
				<stop  offset="1" style="stop-color:#6889A0"/>
			</linearGradient>
			<polygon class="st35" points="762,1117 751.3,1119.2 749.4,1124.5 760.6,1122.2 			"/>
			<linearGradient id="SVGID_30_" gradientUnits="userSpaceOnUse" x1="704.6949" y1="1136.5356" x2="718.9355" y2="1136.5356">
				<stop  offset="0" style="stop-color:#285A83"/>
				<stop  offset="1" style="stop-color:#6889A0"/>
			</linearGradient>
			<polygon class="st36" points="704.7,1140.4 716.2,1138.1 718.9,1132.7 707.9,1134.9 			"/>
			<linearGradient id="SVGID_31_" gradientUnits="userSpaceOnUse" x1="966.7901" y1="1083.26" x2="984.5934" y2="1083.26">
				<stop  offset="0" style="stop-color:#285A83"/>
				<stop  offset="1" style="stop-color:#6889A0"/>
			</linearGradient>
			<polygon class="st37" points="971.8,1086.4 984.6,1083.8 979.1,1080.1 966.8,1082.6 			"/>
			<linearGradient id="SVGID_32_" gradientUnits="userSpaceOnUse" x1="718.6964" y1="1133.7388" x2="732.6172" y2="1133.7388">
				<stop  offset="0" style="stop-color:#285A83"/>
				<stop  offset="1" style="stop-color:#6889A0"/>
			</linearGradient>
			<polygon class="st38" points="732.6,1129.9 721.4,1132.2 718.7,1137.6 730.3,1135.2 			"/>
			<linearGradient id="SVGID_33_" gradientUnits="userSpaceOnUse" x1="739.2978" y1="1116.3728" x2="751.2884" y2="1116.3728">
				<stop  offset="0" style="stop-color:#285A83"/>
				<stop  offset="1" style="stop-color:#6889A0"/>
			</linearGradient>
			<polygon class="st39" points="749.8,1117.4 751.3,1113.2 741.2,1115.3 739.3,1119.5 			"/>
			<linearGradient id="SVGID_34_" gradientUnits="userSpaceOnUse" x1="790.4214" y1="1106.153" x2="801.3206" y2="1106.153">
				<stop  offset="0" style="stop-color:#285A83"/>
				<stop  offset="1" style="stop-color:#6889A0"/>
			</linearGradient>
			<polygon class="st40" points="801.2,1107 801.3,1103.1 790.9,1105.2 790.4,1109.2 			"/>
			<linearGradient id="SVGID_35_" gradientUnits="userSpaceOnUse" x1="776.1817" y1="1115.3894" x2="788.1185" y2="1115.3894">
				<stop  offset="0" style="stop-color:#285A83"/>
				<stop  offset="1" style="stop-color:#6889A0"/>
			</linearGradient>
			<polygon class="st41" points="788.1,1111.7 777.2,1113.9 776.2,1119.1 787.5,1116.8 			"/>
			<linearGradient id="SVGID_36_" gradientUnits="userSpaceOnUse" x1="762.7739" y1="1118.0612" x2="775.0817" y2="1118.0612">
				<stop  offset="0" style="stop-color:#285A83"/>
				<stop  offset="1" style="stop-color:#6889A0"/>
			</linearGradient>
			<polygon class="st42" points="775.1,1114.3 764.2,1116.5 762.8,1121.8 774.1,1119.5 			"/>
			<linearGradient id="SVGID_37_" gradientUnits="userSpaceOnUse" x1="726.5294" y1="1118.9281" x2="738.7648" y2="1118.9281">
				<stop  offset="0" style="stop-color:#285A83"/>
				<stop  offset="1" style="stop-color:#6889A0"/>
			</linearGradient>
			<polygon class="st43" points="736.9,1120 738.8,1115.7 728.7,1117.8 726.5,1122.1 			"/>
			<linearGradient id="SVGID_38_" gradientUnits="userSpaceOnUse" x1="774.7516" y1="1122.5516" x2="787.292" y2="1122.5516">
				<stop  offset="0" style="stop-color:#285A83"/>
				<stop  offset="1" style="stop-color:#6889A0"/>
			</linearGradient>
			<polygon class="st44" points="787.3,1118.9 775.8,1121.2 774.8,1126.2 786.7,1123.8 			"/>
			<linearGradient id="SVGID_39_" gradientUnits="userSpaceOnUse" x1="788.7798" y1="1119.755" x2="800.9446" y2="1119.755">
				<stop  offset="0" style="stop-color:#285A83"/>
				<stop  offset="1" style="stop-color:#6889A0"/>
			</linearGradient>
			<polygon class="st45" points="800.9,1116.1 789.4,1118.4 788.8,1123.4 800.8,1121 			"/>
			<linearGradient id="SVGID_40_" gradientUnits="userSpaceOnUse" x1="789.595" y1="1112.7179" x2="801.1477" y2="1112.7179">
				<stop  offset="0" style="stop-color:#285A83"/>
				<stop  offset="1" style="stop-color:#6889A0"/>
			</linearGradient>
			<polygon class="st46" points="801.1,1109.1 790.2,1111.3 789.6,1116.4 801,1114.1 			"/>
			<linearGradient id="SVGID_41_" gradientUnits="userSpaceOnUse" x1="722.5859" y1="1126.0762" x2="735.9374" y2="1126.0762">
				<stop  offset="0" style="stop-color:#285A83"/>
				<stop  offset="1" style="stop-color:#6889A0"/>
			</linearGradient>
			<polygon class="st47" points="722.6,1129.9 733.6,1127.7 735.9,1122.3 725.4,1124.4 			"/>
			<linearGradient id="SVGID_42_" gradientUnits="userSpaceOnUse" x1="732.7029" y1="1130.9418" x2="746.2951" y2="1130.9418">
				<stop  offset="0" style="stop-color:#285A83"/>
				<stop  offset="1" style="stop-color:#6889A0"/>
			</linearGradient>
			<polygon class="st48" points="746.3,1127.1 735,1129.4 732.7,1134.7 744.4,1132.4 			"/>
			<linearGradient id="SVGID_43_" gradientUnits="userSpaceOnUse" x1="746.7134" y1="1128.1451" x2="759.9661" y2="1128.1451">
				<stop  offset="0" style="stop-color:#285A83"/>
				<stop  offset="1" style="stop-color:#6889A0"/>
			</linearGradient>
			<polygon class="st49" points="760,1124.4 748.6,1126.7 746.7,1131.9 758.5,1129.5 			"/>
			<linearGradient id="SVGID_44_" gradientUnits="userSpaceOnUse" x1="760.729" y1="1125.3485" x2="773.6318" y2="1125.3485">
				<stop  offset="0" style="stop-color:#285A83"/>
				<stop  offset="1" style="stop-color:#6889A0"/>
			</linearGradient>
			<polygon class="st50" points="773.6,1121.6 762.2,1123.9 760.7,1129.1 772.6,1126.7 			"/>
			<linearGradient id="SVGID_45_" gradientUnits="userSpaceOnUse" x1="699.6364" y1="1124.177" x2="713.7047" y2="1124.177">
				<stop  offset="0" style="stop-color:#285A83"/>
				<stop  offset="1" style="stop-color:#6889A0"/>
			</linearGradient>
			<polygon class="st51" points="711.2,1125.2 713.7,1120.8 702.5,1123.1 699.6,1127.6 			"/>
			<linearGradient id="SVGID_46_" gradientUnits="userSpaceOnUse" x1="816.9817" y1="1122.4458" x2="830.4449" y2="1122.4458">
				<stop  offset="0" style="stop-color:#285A83"/>
				<stop  offset="1" style="stop-color:#6889A0"/>
			</linearGradient>
			<polygon class="st52" points="829.3,1117.3 817,1119.7 817.5,1127.6 830.4,1125 			"/>
			<linearGradient id="SVGID_47_" gradientUnits="userSpaceOnUse" x1="831.2162" y1="1119.4968" x2="845.3993" y2="1119.4968">
				<stop  offset="0" style="stop-color:#285A83"/>
				<stop  offset="1" style="stop-color:#6889A0"/>
			</linearGradient>
			<polygon class="st53" points="843.5,1114.4 831.2,1116.9 832.4,1124.6 845.4,1122 			"/>
			<linearGradient id="SVGID_48_" gradientUnits="userSpaceOnUse" x1="873.968" y1="1110.6501" x2="890.2122" y2="1110.6501">
				<stop  offset="0" style="stop-color:#285A83"/>
				<stop  offset="1" style="stop-color:#6889A0"/>
			</linearGradient>
			<polygon class="st54" points="886.2,1105.8 874,1108.2 877.3,1115.5 890.2,1112.9 			"/>
			<linearGradient id="SVGID_49_" gradientUnits="userSpaceOnUse" x1="845.4589" y1="1116.5479" x2="860.3455" y2="1116.5479">
				<stop  offset="0" style="stop-color:#285A83"/>
				<stop  offset="1" style="stop-color:#6889A0"/>
			</linearGradient>
			<polygon class="st55" points="857.7,1111.5 845.5,1114 847.4,1121.6 860.3,1119 			"/>
			<linearGradient id="SVGID_50_" gradientUnits="userSpaceOnUse" x1="859.7098" y1="1113.599" x2="875.2825" y2="1113.599">
				<stop  offset="0" style="stop-color:#285A83"/>
				<stop  offset="1" style="stop-color:#6889A0"/>
			</linearGradient>
			<polygon class="st56" points="872,1108.6 859.7,1111.1 862.3,1118.6 875.3,1115.9 			"/>
			<linearGradient id="SVGID_51_" gradientUnits="userSpaceOnUse" x1="802.5245" y1="1125.3947" x2="815.4823" y2="1125.3947">
				<stop  offset="0" style="stop-color:#285A83"/>
				<stop  offset="1" style="stop-color:#6889A0"/>
			</linearGradient>
			<polygon class="st57" points="815,1120.1 802.8,1122.6 802.5,1130.6 815.5,1128 			"/>
			<linearGradient id="SVGID_52_" gradientUnits="userSpaceOnUse" x1="757.7563" y1="1134.2419" x2="772.2018" y2="1134.2419">
				<stop  offset="0" style="stop-color:#285A83"/>
				<stop  offset="1" style="stop-color:#6889A0"/>
			</linearGradient>
			<polygon class="st58" points="772.2,1128.8 760.1,1131.2 757.8,1139.7 770.5,1137.1 			"/>
			<linearGradient id="SVGID_53_" gradientUnits="userSpaceOnUse" x1="742.8469" y1="1137.191" x2="757.9212" y2="1137.191">
				<stop  offset="0" style="stop-color:#285A83"/>
				<stop  offset="1" style="stop-color:#6889A0"/>
			</linearGradient>
			<polygon class="st59" points="757.9,1131.7 745.9,1134.1 742.8,1142.7 755.6,1140.1 			"/>
			<linearGradient id="SVGID_54_" gradientUnits="userSpaceOnUse" x1="787.5948" y1="1128.3436" x2="800.7443" y2="1128.3436">
				<stop  offset="0" style="stop-color:#285A83"/>
				<stop  offset="1" style="stop-color:#6889A0"/>
			</linearGradient>
			<polygon class="st60" points="800.7,1123 788.5,1125.5 787.6,1133.7 800.5,1131 			"/>
			<linearGradient id="SVGID_55_" gradientUnits="userSpaceOnUse" x1="772.6728" y1="1131.2926" x2="786.4769" y2="1131.2926">
				<stop  offset="0" style="stop-color:#285A83"/>
				<stop  offset="1" style="stop-color:#6889A0"/>
			</linearGradient>
			<polygon class="st61" points="786.5,1125.9 774.3,1128.4 772.7,1136.7 785.5,1134.1 			"/>
			<linearGradient id="SVGID_56_" gradientUnits="userSpaceOnUse" x1="727.9426" y1="1140.1401" x2="743.6353" y2="1140.1401">
				<stop  offset="0" style="stop-color:#285A83"/>
				<stop  offset="1" style="stop-color:#6889A0"/>
			</linearGradient>
			<polygon class="st62" points="743.6,1134.6 731.7,1137 727.9,1145.7 740.6,1143.2 			"/>
			<linearGradient id="SVGID_57_" gradientUnits="userSpaceOnUse" x1="973.9682" y1="1089.8669" x2="995.9222" y2="1089.8669">
				<stop  offset="0" style="stop-color:#285A83"/>
				<stop  offset="1" style="stop-color:#6889A0"/>
			</linearGradient>
			<polygon class="st63" points="986.9,1085.4 974,1088 982.3,1094.3 995.9,1091.6 			"/>
			<linearGradient id="SVGID_58_" gradientUnits="userSpaceOnUse" x1="888.2355" y1="1107.701" x2="905.1342" y2="1107.701">
				<stop  offset="0" style="stop-color:#285A83"/>
				<stop  offset="1" style="stop-color:#6889A0"/>
			</linearGradient>
			<polygon class="st64" points="900.4,1102.9 888.2,1105.4 892.3,1112.5 905.1,1109.9 			"/>
			<linearGradient id="SVGID_59_" gradientUnits="userSpaceOnUse" x1="959.6665" y1="1092.955" x2="979.6602" y2="1092.955">
				<stop  offset="0" style="stop-color:#285A83"/>
				<stop  offset="1" style="stop-color:#6889A0"/>
			</linearGradient>
			<polygon class="st65" points="971.4,1088.6 959.7,1090.9 967.3,1097.4 979.7,1094.8 			"/>
			<linearGradient id="SVGID_60_" gradientUnits="userSpaceOnUse" x1="681.8847" y1="1149.1267" x2="700.7441" y2="1149.1267">
				<stop  offset="0" style="stop-color:#285A83"/>
				<stop  offset="1" style="stop-color:#6889A0"/>
			</linearGradient>
			<polygon class="st66" points="700.7,1143.2 687.8,1145.8 681.9,1155 695.5,1152.3 			"/>
			<linearGradient id="SVGID_61_" gradientUnits="userSpaceOnUse" x1="953.3143" y1="1072.8004" x2="968.8989" y2="1072.8004">
				<stop  offset="0" style="stop-color:#285A83"/>
				<stop  offset="1" style="stop-color:#6889A0"/>
			</linearGradient>
			<polygon class="st67" points="957.4,1075.5 968.9,1073.1 964.5,1070.1 953.3,1072.4 			"/>
			<linearGradient id="SVGID_62_" gradientUnits="userSpaceOnUse" x1="902.5106" y1="1104.7518" x2="920.0507" y2="1104.7518">
				<stop  offset="0" style="stop-color:#285A83"/>
				<stop  offset="1" style="stop-color:#6889A0"/>
			</linearGradient>
			<polygon class="st68" points="914.6,1100 902.5,1102.5 907.3,1109.5 920.1,1106.9 			"/>
			<linearGradient id="SVGID_63_" gradientUnits="userSpaceOnUse" x1="916.7912" y1="1101.8027" x2="934.9601" y2="1101.8027">
				<stop  offset="0" style="stop-color:#285A83"/>
				<stop  offset="1" style="stop-color:#6889A0"/>
			</linearGradient>
			<polygon class="st69" points="928.8,1097.2 916.8,1099.6 922.3,1106.4 935,1103.9 			"/>
			<linearGradient id="SVGID_64_" gradientUnits="userSpaceOnUse" x1="931.077" y1="1098.8536" x2="949.8644" y2="1098.8536">
				<stop  offset="0" style="stop-color:#285A83"/>
				<stop  offset="1" style="stop-color:#6889A0"/>
			</linearGradient>
			<polygon class="st70" points="943,1094.3 931.1,1096.7 937.3,1103.4 949.9,1100.9 			"/>
			<linearGradient id="SVGID_65_" gradientUnits="userSpaceOnUse" x1="945.3697" y1="1095.9042" x2="964.765" y2="1095.9042">
				<stop  offset="0" style="stop-color:#285A83"/>
				<stop  offset="1" style="stop-color:#6889A0"/>
			</linearGradient>
			<polygon class="st71" points="957.2,1091.4 945.4,1093.8 952.3,1100.4 964.8,1097.9 			"/>
			<linearGradient id="SVGID_66_" gradientUnits="userSpaceOnUse" x1="698.1468" y1="1146.0388" x2="715.0459" y2="1146.0388">
				<stop  offset="0" style="stop-color:#285A83"/>
				<stop  offset="1" style="stop-color:#6889A0"/>
			</linearGradient>
			<polygon class="st72" points="710.5,1149.2 715,1140.3 703.4,1142.7 698.1,1151.7 			"/>
			<linearGradient id="SVGID_67_" gradientUnits="userSpaceOnUse" x1="713.042" y1="1143.0895" x2="729.3426" y2="1143.0895">
				<stop  offset="0" style="stop-color:#285A83"/>
				<stop  offset="1" style="stop-color:#6889A0"/>
			</linearGradient>
			<polygon class="st73" points="729.3,1137.5 717.5,1139.8 713,1148.7 725.6,1146.2 			"/>
			<linearGradient id="SVGID_68_" gradientUnits="userSpaceOnUse" x1="912.0724" y1="1094.5861" x2="927.2067" y2="1094.5861">
				<stop  offset="0" style="stop-color:#285A83"/>
				<stop  offset="1" style="stop-color:#6889A0"/>
			</linearGradient>
			<polygon class="st74" points="927.2,1095.4 923.5,1091.3 912.1,1093.6 915.4,1097.8 			"/>
			<linearGradient id="SVGID_69_" gradientUnits="userSpaceOnUse" x1="925.7434" y1="1091.7893" x2="941.2172" y2="1091.7893">
				<stop  offset="0" style="stop-color:#285A83"/>
				<stop  offset="1" style="stop-color:#6889A0"/>
			</linearGradient>
			<polygon class="st75" points="941.2,1092.6 937,1088.6 925.7,1090.9 929.5,1095 			"/>
			<linearGradient id="SVGID_70_" gradientUnits="userSpaceOnUse" x1="894.2458" y1="1091.3464" x2="908.4724" y2="1091.3464">
				<stop  offset="0" style="stop-color:#285A83"/>
				<stop  offset="1" style="stop-color:#6889A0"/>
			</linearGradient>
			<polygon class="st76" points="905.1,1088.1 894.2,1090.3 897.2,1094.6 908.5,1092.3 			"/>
			<linearGradient id="SVGID_71_" gradientUnits="userSpaceOnUse" x1="953.103" y1="1086.1956" x2="969.2252" y2="1086.1956">
				<stop  offset="0" style="stop-color:#285A83"/>
				<stop  offset="1" style="stop-color:#6889A0"/>
			</linearGradient>
			<polygon class="st77" points="969.2,1086.9 964.2,1083.1 953.1,1085.4 957.7,1089.3 			"/>
			<linearGradient id="SVGID_72_" gradientUnits="userSpaceOnUse" x1="939.4213" y1="1088.9923" x2="955.2237" y2="1088.9923">
				<stop  offset="0" style="stop-color:#285A83"/>
				<stop  offset="1" style="stop-color:#6889A0"/>
			</linearGradient>
			<polygon class="st78" points="955.2,1089.8 950.6,1085.9 939.4,1088.1 943.6,1092.1 			"/>
			<linearGradient id="SVGID_73_" gradientUnits="userSpaceOnUse" x1="884.7465" y1="1100.1794" x2="899.1685" y2="1100.1794">
				<stop  offset="0" style="stop-color:#285A83"/>
				<stop  offset="1" style="stop-color:#6889A0"/>
			</linearGradient>
			<polygon class="st79" points="899.2,1101.1 896.3,1096.8 884.7,1099.2 887.2,1103.5 			"/>
			<linearGradient id="SVGID_74_" gradientUnits="userSpaceOnUse" x1="871.094" y1="1102.9761" x2="885.1402" y2="1102.9761">
				<stop  offset="0" style="stop-color:#285A83"/>
				<stop  offset="1" style="stop-color:#6889A0"/>
			</linearGradient>
			<polygon class="st80" points="885.1,1103.9 882.7,1099.6 871.1,1101.9 873.1,1106.4 			"/>
			<linearGradient id="SVGID_75_" gradientUnits="userSpaceOnUse" x1="868.1799" y1="1096.6896" x2="881.6513" y2="1096.6896">
				<stop  offset="0" style="stop-color:#285A83"/>
				<stop  offset="1" style="stop-color:#6889A0"/>
			</linearGradient>
			<polygon class="st81" points="881.7,1097.8 879.1,1093.3 868.2,1095.5 870.2,1100.1 			"/>
			<linearGradient id="SVGID_76_" gradientUnits="userSpaceOnUse" x1="881.2091" y1="1094.0181" x2="895.0646" y2="1094.0181">
				<stop  offset="0" style="stop-color:#285A83"/>
				<stop  offset="1" style="stop-color:#6889A0"/>
			</linearGradient>
			<polygon class="st82" points="892.1,1090.7 881.2,1092.9 883.7,1097.3 895.1,1095 			"/>
			<linearGradient id="SVGID_77_" gradientUnits="userSpaceOnUse" x1="898.4067" y1="1097.3827" x2="913.1911" y2="1097.3827">
				<stop  offset="0" style="stop-color:#285A83"/>
				<stop  offset="1" style="stop-color:#6889A0"/>
			</linearGradient>
			<polygon class="st83" points="913.2,1098.3 909.9,1094.1 898.4,1096.4 901.3,1100.7 			"/>
			<linearGradient id="SVGID_78_" gradientUnits="userSpaceOnUse" x1="709.1993" y1="1128.7478" x2="722.8791" y2="1128.7478">
				<stop  offset="0" style="stop-color:#285A83"/>
				<stop  offset="1" style="stop-color:#6889A0"/>
			</linearGradient>
			<polygon class="st84" points="709.2,1132.6 720.1,1130.4 722.9,1124.9 712.4,1127 			"/>
			<linearGradient id="SVGID_79_" gradientUnits="userSpaceOnUse" x1="959.5122" y1="1077.8492" x2="976.8003" y2="1077.8492">
				<stop  offset="0" style="stop-color:#285A83"/>
				<stop  offset="1" style="stop-color:#6889A0"/>
			</linearGradient>
			<polygon class="st85" points="964.7,1081 976.8,1078.5 971.2,1074.7 959.5,1077.1 			"/>
			<linearGradient id="SVGID_80_" gradientUnits="userSpaceOnUse" x1="689.3267" y1="1139.4712" x2="705.2485" y2="1139.4712">
				<stop  offset="0" style="stop-color:#285A83"/>
				<stop  offset="1" style="stop-color:#6889A0"/>
			</linearGradient>
			<polygon class="st86" points="702.1,1140.9 705.2,1135.4 692.9,1137.9 689.3,1143.5 			"/>
			<linearGradient id="SVGID_81_" gradientUnits="userSpaceOnUse" x1="857.4506" y1="1105.7726" x2="871.1046" y2="1105.7726">
				<stop  offset="0" style="stop-color:#285A83"/>
				<stop  offset="1" style="stop-color:#6889A0"/>
			</linearGradient>
			<polygon class="st87" points="871.1,1106.8 869.1,1102.3 857.5,1104.7 859,1109.2 			"/>
			<linearGradient id="SVGID_82_" gradientUnits="userSpaceOnUse" x1="694.446" y1="1131.5582" x2="709.8154" y2="1131.5582">
				<stop  offset="0" style="stop-color:#285A83"/>
				<stop  offset="1" style="stop-color:#6889A0"/>
			</linearGradient>
			<polygon class="st88" points="694.4,1135.6 706.6,1133.1 709.8,1127.5 698.1,1129.9 			"/>
			<linearGradient id="SVGID_83_" gradientUnits="userSpaceOnUse" x1="940.7817" y1="1075.4941" x2="954.769" y2="1075.4941">
				<stop  offset="0" style="stop-color:#285A83"/>
				<stop  offset="1" style="stop-color:#6889A0"/>
			</linearGradient>
			<polygon class="st89" points="940.8,1074.9 944.5,1078.1 954.8,1076 950.7,1072.9 			"/>
			<linearGradient id="SVGID_84_" gradientUnits="userSpaceOnUse" x1="946.4485" y1="1080.6597" x2="962.047" y2="1080.6597">
				<stop  offset="0" style="stop-color:#285A83"/>
				<stop  offset="1" style="stop-color:#6889A0"/>
			</linearGradient>
			<polygon class="st90" points="946.4,1079.7 951.2,1083.7 962,1081.5 956.9,1077.6 			"/>
			<linearGradient id="SVGID_85_" gradientUnits="userSpaceOnUse" x1="828.2541" y1="1098.4886" x2="839.6974" y2="1098.4886">
				<stop  offset="0" style="stop-color:#285A83"/>
				<stop  offset="1" style="stop-color:#6889A0"/>
			</linearGradient>
			<polygon class="st91" points="839.7,1099.2 838.8,1095.5 828.3,1097.7 828.8,1101.4 			"/>
			<linearGradient id="SVGID_86_" gradientUnits="userSpaceOnUse" x1="713.7664" y1="1121.4832" x2="726.2373" y2="1121.4832">
				<stop  offset="0" style="stop-color:#285A83"/>
				<stop  offset="1" style="stop-color:#6889A0"/>
			</linearGradient>
			<polygon class="st92" points="724,1122.6 726.2,1118.3 716.3,1120.3 713.8,1124.7 			"/>
		</g>
	</g>
	<g id="Earphones">
		<g>
			<linearGradient id="SVGID_87_" gradientUnits="userSpaceOnUse" x1="335.6225" y1="1122.2355" x2="508.3301" y2="1122.2355">
				<stop  offset="0" style="stop-color:#285A83"/>
				<stop  offset="1" style="stop-color:#6889A0"/>
			</linearGradient>
			<path class="st93" d="M337.5,1174.1l-1.9-3.5c20-10.9,32.1-9.4,47.5-7.6c13,1.5,29.1,3.5,55.6-1.3c29.3-5.3,48.2-15.4,58-31
				c9.1-14.6,10.1-34,2.9-59.3l3.8-1.1c7.5,26.4,6.4,46.9-3.4,62.5c-10.4,16.6-30.2,27.3-60.7,32.8c-27.1,4.9-43.6,2.9-56.8,1.3
				C367.4,1165.2,356.4,1163.9,337.5,1174.1z"/>
		</g>
		<g>
			<linearGradient id="SVGID_88_" gradientUnits="userSpaceOnUse" x1="171.645" y1="1122.4581" x2="393.6805" y2="1122.4581">
				<stop  offset="0" style="stop-color:#285A83"/>
				<stop  offset="1" style="stop-color:#6889A0"/>
			</linearGradient>
			<path class="st94" d="M313.9,1191.4l-3-2.6c8.7-10.1,20.8-16.2,32.5-22.2c17.9-9.1,34.9-17.7,42-39.5c7.6-23.4,5-42.2-7.7-54.6
				c-16.5-16-47-18.3-67-11.2c-28.4,10.1-43.1,39.8-56.1,66.1c-3.4,6.8-6.5,13.2-9.9,19.2c-16.3,29.3-47.5,25.1-68.2,22.2
				c-1.7-0.2-3.3-0.4-4.8-0.6l0.5-4c1.6,0.2,3.2,0.4,4.8,0.6c20.8,2.8,49.2,6.7,64.2-20.2c3.3-6,6.5-12.3,9.8-19.1
				c13.4-26.9,28.5-57.4,58.4-68.1c21.2-7.5,53.5-5.1,71.1,12.1c9.7,9.4,19,27.2,8.7,58.7c-7.6,23.4-26.1,32.8-44,41.9
				C333.3,1176.2,322.1,1181.9,313.9,1191.4z"/>
		</g>
		<g>
			<path class="st1" d="M471.6,1017.9l15.3,47.8c2,6.4,8.9,9.9,15.2,7.8c6.4-2,9.9-8.9,7.8-15.2l-15.3-47.8L471.6,1017.9z"/>
			<path class="st95" d="M487.4,1012.8l14.1,44.1c1.9,5.9-0.1,11.8-4.5,13.2c-4.4,1.4-9.4-2.2-11.3-8.1l1.2,3.7
				c2,6.4,8.9,9.9,15.2,7.8c6.4-2,9.9-8.9,7.8-15.2l-15.3-47.8L487.4,1012.8z"/>
			
				<ellipse transform="matrix(0.4592 -0.8883 0.8883 0.4592 -621.2339 956.2395)" class="st0" cx="474.8" cy="988.4" rx="39.2" ry="39.2"/>
			<path class="st96" d="M470.5,989.8c-0.8-2.4,0.5-5,2.9-5.7c2.4-0.8,5,0.5,5.7,2.9c0.8,2.4-0.5,5-2.9,5.7
				C473.8,993.5,471.2,992.2,470.5,989.8z"/>
			<path class="st96" d="M479.1,973c-0.8-2.4,0.5-5,2.9-5.7c2.4-0.8,5,0.5,5.7,2.9c0.8,2.4-0.5,5-2.9,5.7
				C482.4,976.7,479.8,975.4,479.1,973z"/>
			<path class="st96" d="M462.4,978.4c-0.8-2.4-3.3-3.7-5.7-2.9c-2.4,0.8-3.7,3.3-2.9,5.7c0.8,2.4,3.3,3.7,5.7,2.9
				C461.8,983.3,463.2,980.8,462.4,978.4z"/>
			<path class="st96" d="M487.2,998.4c0.8,2.4,3.3,3.7,5.7,2.9c2.4-0.8,3.7-3.3,2.9-5.7s-3.3-3.7-5.7-2.9
				C487.8,993.4,486.4,996,487.2,998.4z"/>
			<path class="st96" d="M470.5,1003.7c0.8,2.4-0.5,5-2.9,5.7c-2.4,0.8-5-0.5-5.7-2.9c-0.8-2.4,0.5-5,2.9-5.7
				C467.2,1000,469.8,1001.3,470.5,1003.7z"/>
		</g>
		<g>
			<path class="st0" d="M111.9,1145.7l49.7,6.9c6.6,0.9,11.2,7,10.3,13.6s-7,11.2-13.6,10.3l-49.7-6.9L111.9,1145.7z"/>
			<path class="st1" d="M109.6,1162.2l45.9,6.4c6.1,0.9,11.6-2.1,12.2-6.7c0.6-4.6-3.8-8.9-9.9-9.8l3.9,0.5
				c6.6,0.9,11.2,7,10.3,13.6s-7,11.2-13.6,10.3l-49.7-6.9L109.6,1162.2z"/>
			
				<ellipse transform="matrix(0.2062 -0.9785 0.9785 0.2062 -1062.943 997.5834)" class="st7" cx="83.4" cy="1153.9" rx="39.2" ry="39.2"/>
			
				<ellipse transform="matrix(0.9796 -0.2009 0.2009 0.9796 -230.0706 40.2598)" class="st96" cx="83.4" cy="1153.9" rx="4.5" ry="4.5"/>
			<path class="st96" d="M71.4,1143.4c-2.5-0.3-4.2-2.6-3.9-5.1c0.3-2.5,2.6-4.2,5.1-3.9c2.5,0.3,4.2,2.6,3.9,5.1
				C76.2,1142,73.9,1143.7,71.4,1143.4z"/>
			
				<ellipse transform="matrix(0.2737 -0.9618 0.9618 0.2737 -1071.1279 912.0679)" class="st96" cx="68.3" cy="1165.3" rx="4.5" ry="4.5"/>
			<path class="st96" d="M97.8,1147.1c2.5,0.3,4.8-1.4,5.1-3.9c0.3-2.5-1.4-4.8-3.9-5.1c-2.5-0.3-4.8,1.4-5.1,3.9
				S95.3,1146.7,97.8,1147.1z"/>
			<path class="st96" d="M95.3,1164.4c2.5,0.3,4.2,2.6,3.9,5.1c-0.3,2.5-2.6,4.2-5.1,3.9c-2.5-0.3-4.2-2.6-3.9-5.1
				C90.6,1165.8,92.9,1164.1,95.3,1164.4z"/>
		</g>
		<g>
			<path class="st97" d="M456.4,933.2c-0.8,0-1.6-0.5-1.9-1.4l-4.2-13c-0.3-1.1,0.2-2.2,1.3-2.5c1.1-0.3,2.2,0.2,2.5,1.3l4.2,13
				c0.3,1.1-0.2,2.2-1.3,2.5C456.9,933.2,456.6,933.2,456.4,933.2z"/>
		</g>
		<g>
			<path class="st97" d="M472.4,931.3c-0.1,0-0.3,0-0.4,0c-1.1-0.2-1.8-1.3-1.5-2.4l2.8-13.4c0.2-1.1,1.3-1.8,2.4-1.5
				c1.1,0.2,1.8,1.3,1.5,2.4l-2.8,13.4C474.2,930.6,473.3,931.3,472.4,931.3z"/>
		</g>
		<g>
			<path class="st97" d="M442.4,940.9c-0.5,0-1-0.2-1.4-0.5l-10.1-9.2c-0.8-0.7-0.9-2-0.1-2.8c0.7-0.8,2-0.9,2.8-0.1l10.1,9.2
				c0.8,0.7,0.9,2,0.1,2.8C443.4,940.7,442.9,940.9,442.4,940.9z"/>
		</g>
	</g>
	<g id="Megaphone">
		<path class="st96" d="M764.2,340.5c-2.2,0.4-3,5.9-1.9,12.4c1.1,6.5,3.8,11.4,6,11l12.3-2.2l-4.1-23.5L764.2,340.5z"/>
		<linearGradient id="SVGID_89_" gradientUnits="userSpaceOnUse" x1="774.9036" y1="343.3506" x2="859.1127" y2="343.3506">
			<stop  offset="0" style="stop-color:#285A83"/>
			<stop  offset="1" style="stop-color:#6889A0"/>
		</linearGradient>
		<path class="st98" d="M842.3,307.7l-61.3,10.7c-5.6,1-7.8,15.4-4.9,32.1c2.9,16.7,9.9,29.5,15.5,28.5l61.3-10.7
			c5.6-1,7.8-15.4,4.9-32.1C854.9,319.5,847.9,306.7,842.3,307.7z"/>
		<linearGradient id="SVGID_90_" gradientUnits="userSpaceOnUse" x1="843.2002" y1="322.1801" x2="952.9806" y2="322.1801">
			<stop  offset="0" style="stop-color:#285A83"/>
			<stop  offset="1" style="stop-color:#6889A0"/>
		</linearGradient>
		<path class="st99" d="M847.3,317.2c-3.7,0.7-5.2,10.2-3.2,21.4c2,11.2,6.6,19.7,10.3,19l98.6,24.8l-20-120.6L847.3,317.2z"/>
		<linearGradient id="SVGID_91_" gradientUnits="userSpaceOnUse" x1="922.4883" y1="322.0305" x2="968.3398" y2="322.0305">
			<stop  offset="0" style="stop-color:#285A83"/>
			<stop  offset="1" style="stop-color:#6889A0"/>
		</linearGradient>
		<path class="st100" d="M925.1,325.6c-5.9-33.4-1.5-62.1,9.7-64.1s25.1,23.5,30.9,57c5.9,33.4,1.5,62.1-9.7,64.1
			C944.8,384.5,931,359,925.1,325.6z"/>
		<path class="st8" d="M922.9,307.9c0.4,5.7,1.1,11.6,2.2,17.7c1.1,6.1,2.4,12,4,17.4c9.2-2.1,15.3-11.1,13.7-20.5
			C941.1,313.1,932.3,306.7,922.9,307.9z"/>
		<path class="st96" d="M789.7,344c-1.9-14.9,0.3-27.1,5.5-28l-4.4,0.8c-5.2,0.9-7.4,13.1-5.5,28L789.7,344z"/>
		<path class="st96" d="M799.2,342.3c-1.9-14.9,0.3-27.1,5.5-28l-4.4,0.8c-5.2,0.9-7.4,13.1-5.5,28L799.2,342.3z"/>
		<path class="st96" d="M808.8,340.6c-1.9-14.9,0.3-27.1,5.5-28l-4.4,0.8c-5.2,0.9-7.4,13.1-5.5,28L808.8,340.6z"/>
		<path class="st96" d="M818.4,338.9c-1.9-14.9,0.3-27.1,5.5-28l-4.4,0.8c-5.2,0.9-7.4,13.1-5.5,28L818.4,338.9z"/>
		<path class="st96" d="M802.9,377.1c1.9,11.1,13.3,49.2,23.5,59c5.7-1,10.7-1.9,12.8-2.3s3.9-1.7,2-4.8
			c-1.9-3.1-10.7-33.2-13.6-56.3C824.2,373.3,802.9,377.1,802.9,377.1z"/>
		<g>
			<path class="st97" d="M1015.2,311.8c-1,0-1.8-0.7-2-1.7c-0.2-1.1,0.5-2.1,1.6-2.3l89.3-15.6c1.1-0.2,2.1,0.5,2.3,1.6
				c0.2,1.1-0.5,2.1-1.6,2.3l-89.3,15.6C1015.5,311.8,1015.4,311.8,1015.2,311.8z"/>
		</g>
		<g>
			<path class="st97" d="M1006.1,287c-0.7,0-1.3-0.4-1.7-1c-0.6-1-0.2-2.2,0.7-2.7l78-46.2c1-0.6,2.2-0.2,2.7,0.7
				c0.6,1,0.2,2.2-0.7,2.7l-78,46.2C1006.8,286.9,1006.4,287,1006.1,287z"/>
		</g>
		<g>
			<path class="st97" d="M988.7,267c-0.4,0-0.9-0.1-1.2-0.4c-0.9-0.7-1-1.9-0.3-2.8l56.6-70.7c0.7-0.9,1.9-1,2.8-0.3
				c0.9,0.7,1,1.9,0.3,2.8l-56.6,70.7C989.9,266.8,989.3,267,988.7,267z"/>
		</g>
		<g>
			<path class="st97" d="M1104.1,355.1c-0.1,0-0.2,0-0.4,0l-89-16.9c-1.1-0.2-1.8-1.3-1.6-2.3c0.2-1.1,1.2-1.8,2.3-1.6l89,16.9
				c1.1,0.2,1.8,1.3,1.6,2.3C1105.9,354.5,1105,355.1,1104.1,355.1z"/>
		</g>
		<g>
			<path class="st97" d="M1082.9,410.2c-0.4,0-0.7-0.1-1-0.3l-77.3-47.3c-0.9-0.6-1.2-1.8-0.7-2.7c0.6-0.9,1.8-1.2,2.8-0.7
				l77.3,47.3c0.9,0.6,1.2,1.8,0.7,2.7C1084.2,409.8,1083.5,410.2,1082.9,410.2z"/>
		</g>
	</g>
	<g id="Magnifier">
		<path class="st2" d="M1153,832.8c5.7-2.1,10.3-6.8,11.9-13.2c2.4-10-3.7-20.2-13.8-22.6c-10-2.4-20.2,3.7-22.6,13.8
			c-1.5,6.3,0.4,12.7,4.5,17.2c-12.8,2.1-24.3,13.2-28.1,28.8l59.8,14.5C1168.5,855.7,1163.4,840.5,1153,832.8z"/>
		<g>
			<linearGradient id="SVGID_92_" gradientUnits="userSpaceOnUse" x1="1077.6719" y1="909.8666" x2="1103.3357" y2="909.8666">
				<stop  offset="0" style="stop-color:#285A83"/>
				<stop  offset="1" style="stop-color:#6889A0"/>
			</linearGradient>
			<polygon class="st101" points="1088.4,896.9 1103.3,907.1 1092.6,922.8 1077.7,912.6 			"/>
			<linearGradient id="SVGID_93_" gradientUnits="userSpaceOnUse" x1="1055.2896" y1="831.6965" x2="1233.0939" y2="831.6965">
				<stop  offset="0" style="stop-color:#285A83"/>
				<stop  offset="1" style="stop-color:#6889A0"/>
			</linearGradient>
			<path class="st102" d="M1194.5,758.4c-40.5-27.8-95.8-17.5-123.6,22.9c-27.8,40.5-17.5,95.8,22.9,123.6
				c40.5,27.8,95.8,17.5,123.6-22.9C1245.3,841.6,1235,786.2,1194.5,758.4z M1212.9,878.9c-26.1,38-78,47.6-115.9,21.5
				c-38-26.1-47.6-78-21.5-115.9c26.1-38,78-47.6,115.9-21.5C1229.4,789,1239,840.9,1212.9,878.9z"/>
			<path class="st103" d="M1084.9,804.2c-1.1,0-2.1-0.3-3.1-0.8c-3-1.7-4.1-5.6-2.4-8.7c1-1.8,2.1-3.6,3.3-5.3
				c14.8-21.6,40.3-33.9,66.5-32.2c3.5,0.2,6.1,3.3,5.9,6.8c-0.2,3.5-3.3,6.1-6.8,5.9c-21.8-1.5-42.9,8.8-55.2,26.7
				c-1,1.4-1.9,2.9-2.8,4.4C1089.3,803.1,1087.1,804.2,1084.9,804.2z"/>
			<path class="st103" d="M1165.8,766c2.4-3.5,7.2-4.4,10.7-2c3.5,2.4,4.4,7.2,2,10.7c-2.4,3.5-7.2,4.4-10.7,2
				C1164.3,774.2,1163.4,769.5,1165.8,766z"/>
			<path class="st2" d="M1070.2,907.5l-56.4,82.1c-5.6,8.2-3.6,19.5,4.7,25.1c8.2,5.7,19.5,3.6,25.1-4.7l56.4-82.1L1070.2,907.5z"/>
			<linearGradient id="SVGID_94_" gradientUnits="userSpaceOnUse" x1="1010.6708" y1="970.8303" x2="1100.0153" y2="970.8303">
				<stop  offset="0" style="stop-color:#285A83"/>
				<stop  offset="1" style="stop-color:#6889A0"/>
			</linearGradient>
			<path class="st104" d="M1094,923.8l-56.4,82.1c-3.7,5.4-10.6,7.4-17.8,2.5s-9.6-13.7-6-18.8c-5.6,8.2-3.6,19.5,4.7,25.1
				c8.2,5.7,19.5,3.6,25.1-4.7l56.4-82.1L1094,923.8z"/>
		</g>
	</g>
	<g id="Speech_bubbles">
		<g>
			<path class="st8" d="M1249.4,564.4h188.4c8.7,0,15.7,7,15.7,15.7v104.6c0,8.7-7,15.7-15.7,15.7h-142.4l-33.4,29.8l4.5-29.8h-17
				c-8.7,0-15.7-7-15.7-15.7V580.1C1233.7,571.4,1240.7,564.4,1249.4,564.4z"/>
			<g>
				<g>
					<path class="st103" d="M1410.8,628.7h-134.4c-1.7,0-3-1.3-3-3c0-1.7,1.3-3,3-3h134.4c1.7,0,3,1.3,3,3
						C1413.8,627.3,1412.4,628.7,1410.8,628.7z"/>
				</g>
				<g>
					<path class="st103" d="M1386.8,667.3h-86.5c-1.7,0-3-1.3-3-3c0-1.7,1.3-3,3-3h86.5c1.7,0,3,1.3,3,3
						C1389.8,666,1388.5,667.3,1386.8,667.3z"/>
				</g>
				<g>
					<path class="st103" d="M1410.8,648h-134.4c-1.7,0-3-1.3-3-3c0-1.7,1.3-3,3-3h134.4c1.7,0,3,1.3,3,3
						C1413.8,646.7,1412.4,648,1410.8,648z"/>
				</g>
				<path class="st103" d="M1347.2,604c0-2-1.6-3.6-3.6-3.6c-2,0-3.6,1.6-3.6,3.6c0,2,1.6,3.6,3.6,3.6
					C1345.6,607.7,1347.2,606,1347.2,604z"/>
				<path class="st103" d="M1332.3,604c0-2-1.6-3.6-3.6-3.6c-2,0-3.6,1.6-3.6,3.6c0,2,1.6,3.6,3.6,3.6
					C1330.7,607.7,1332.3,606,1332.3,604z"/>
				<path class="st103" d="M1354.8,604c0-2,1.6-3.6,3.6-3.6c2,0,3.6,1.6,3.6,3.6c0,2-1.6,3.6-3.6,3.6
					C1356.4,607.7,1354.8,606,1354.8,604z"/>
			</g>
		</g>
		<g>
			<path class="st2" d="M1141.5,511l-161.2,45.1c-7.4,2.1-11.8,9.8-9.7,17.2l25,89.5c2.1,7.4,9.8,11.8,17.2,9.7l121.8-34.1
				l35.7,17.5l-11-24.5l14.6-4.1c7.4-2.1,11.8-9.8,9.7-17.2l-25-89.5C1156.7,513.3,1149,509,1141.5,511z"/>
			<g>
				<g>
					<path class="st103" d="M1018.1,605.1c-1.3,0-2.5-0.9-2.9-2.2c-0.4-1.6,0.5-3.3,2.1-3.7l115-32.1c1.6-0.4,3.3,0.5,3.7,2.1
						c0.4,1.6-0.5,3.3-2.1,3.7l-115,32.1C1018.7,605.1,1018.4,605.1,1018.1,605.1z"/>
				</g>
				<g>
					<path class="st103" d="M1047.8,632.4c-1.3,0-2.5-0.9-2.9-2.2c-0.4-1.6,0.5-3.3,2.1-3.7l74-20.7c1.6-0.4,3.3,0.5,3.7,2.1
						c0.4,1.6-0.5,3.3-2.1,3.7l-74,20.7C1048.4,632.4,1048.1,632.4,1047.8,632.4z"/>
				</g>
				<g>
					<path class="st103" d="M1022.7,621.6c-1.3,0-2.5-0.9-2.9-2.2c-0.4-1.6,0.5-3.3,2.1-3.7l115-32.1c1.6-0.4,3.3,0.5,3.7,2.1
						c0.4,1.6-0.5,3.3-2.1,3.7l-115,32.1C1023.3,621.6,1023,621.6,1022.7,621.6z"/>
				</g>
				<path class="st103" d="M1067.3,568.4c-0.5-1.7,0.5-3.5,2.2-4c1.7-0.5,3.5,0.5,4,2.2c0.5,1.7-0.5,3.5-2.2,4
					C1069.6,571.1,1067.8,570.1,1067.3,568.4z"/>
				<path class="st103" d="M1080,564.8c-0.5-1.7,0.5-3.5,2.2-4c1.7-0.5,3.5,0.5,4,2.2c0.5,1.7-0.5,3.5-2.2,4
					C1082.3,567.5,1080.5,566.5,1080,564.8z"/>
				<path class="st103" d="M1060.8,570.2c-0.5-1.7-2.3-2.7-4-2.2c-1.7,0.5-2.7,2.3-2.2,4c0.5,1.7,2.3,2.7,4,2.2
					C1060.3,573.7,1061.3,571.9,1060.8,570.2z"/>
			</g>
		</g>
	</g>
	<g id="Man">
		<path class="st96" d="M374.4,737.7c-0.1-3.7-1.7-6.7,0-9c3-4.2,10.5-4.8,22.3-7.1c1,7.8,3.9,16.2,6.7,22c-3.5,1.7-5.9,3.5-6.9,5.4
			c-9,17.5-7.4,35.4-14.9,36.2C378.1,785.5,374.7,753.3,374.4,737.7z"/>
		<path class="st96" d="M336.8,614.6c1.9-6-0.1-7.8,4.1-12c3.6-3.5,12.4-0.9,25.5,1.6c-1.4,6.9-2.7,17.1-3.1,22.2
			c-4.3,0.2-7.6,0.9-9.5,2.5c-15.1,12.6-21.3,31.3-27.9,27.5C322.8,654.7,331.4,631.2,336.8,614.6z"/>
		
			<linearGradient id="SVGID_95_" gradientUnits="userSpaceOnUse" x1="431.9867" y1="574.8173" x2="685.1526" y2="619.4458" gradientTransform="matrix(-0.9176 0.3974 0.3974 0.9176 768.8674 -184.1964)">
			<stop  offset="0" style="stop-color:#285A83"/>
			<stop  offset="1" style="stop-color:#6889A0"/>
		</linearGradient>
		<path class="st105" d="M374.3,603.3c-2.6-0.4-5.3-1-7.7-1.4c-1.4,6.9-2.8,19.4-3.3,24.5c30.3-1.2,113.2,27.2,145.6,16.7L493.8,604
			C442.7,596.4,420.5,610.5,374.3,603.3z"/>
		
			<linearGradient id="SVGID_96_" gradientUnits="userSpaceOnUse" x1="452.8305" y1="560.8524" x2="696.0197" y2="603.7223" gradientTransform="matrix(-0.9974 -7.260000e-02 -7.260000e-02 0.9974 1118.9226 37.5824)">
			<stop  offset="0" style="stop-color:#285A83"/>
			<stop  offset="1" style="stop-color:#6889A0"/>
		</linearGradient>
		<path class="st106" d="M590.4,500.6c-57.9,33.8-37.6,69.6-96.7,103.4l9.7,39c38.3,6.5,121.9-82.5,137.8-102.5
			C641.3,540.4,602.7,510,590.4,500.6z"/>
		<path class="st107" d="M498.7,489.5c0,0-21.1,8-22.5,17.6c-1.5,9.6,1.7,11.1,3.1,11.8c3.4,1.8,16-13.5,19.3-10.8
			c3.3,2.6-6.1,8.5-5,9.4c1,0.9,13.3-7,15.1-15.6c0.8-4.2,12.2-14.6,25.1-24.9l-9.7-12.2C510.7,477.7,498.7,489.5,498.7,489.5z"/>
		<path class="st107" d="M805.2,408.9c0,0,19.8-4.8,21.6-14.4c1.9-9.6,6.9-16.1,5.5-16.9c-3.3-1.9-23.1,15.4-26.2,12.7
			c-0.4-1.5-1.1-4.1-1.5-5.7c-2.1,1.2-6.7,2.9-8.8,11.5c-1,4.2-8.4,11-17.5,30.3l7.8,10.7C799.9,424.8,805.2,408.9,805.2,408.9z"/>
		
			<linearGradient id="SVGID_97_" gradientUnits="userSpaceOnUse" x1="640.15" y1="391.1036" x2="492.5635" y2="507.3979" gradientTransform="matrix(0.9974 7.260000e-02 -7.260000e-02 0.9974 45.9496 -40.8571)">
			<stop  offset="0.1481" style="stop-color:#EB8489"/>
			<stop  offset="0.4725" style="stop-color:#D76A74"/>
			<stop  offset="0.7683" style="stop-color:#CA5B67"/>
			<stop  offset="1" style="stop-color:#C65563"/>
		</linearGradient>
		<path class="st108" d="M563.8,429c-2.4,0.9-46.1,41.3-61.8,56.3l9.6,12.7c15.2-9.9,56.5-43.6,63.7-47
			c13.7-6.6,60.2-12.2,60.2-12.2l18.2-50.2C638.8,393.7,577.6,423.6,563.8,429z"/>
		
			<linearGradient id="SVGID_98_" gradientUnits="userSpaceOnUse" x1="424.6604" y1="554.9619" x2="661.349" y2="739.9504" gradientTransform="matrix(-0.9322 0.3618 0.3618 0.9322 791.959 -157.8041)">
			<stop  offset="0" style="stop-color:#285A83"/>
			<stop  offset="1" style="stop-color:#6889A0"/>
		</linearGradient>
		<path class="st109" d="M405.2,717.6c-3.3,0.8-6.2,1.7-9,2.2c1,7.8,4.3,17.8,7.1,23.6c29-14.1,132.9-26.5,161-45.5L535,667.6
			C488.4,678.3,450.5,706.1,405.2,717.6z"/>
		
			<linearGradient id="SVGID_99_" gradientUnits="userSpaceOnUse" x1="428.1196" y1="543.9742" x2="655.9263" y2="722.0209" gradientTransform="matrix(-0.9974 -7.260000e-02 -7.260000e-02 0.9974 1118.9226 37.5824)">
			<stop  offset="0" style="stop-color:#285A83"/>
			<stop  offset="1" style="stop-color:#6889A0"/>
		</linearGradient>
		<path class="st110" d="M651.7,548c0,0-47.4-37.1-61.3-47.4c-43,48.8-4.3,95-55.4,167l29.3,30.5C603.5,675.7,645.9,572.9,651.7,548
			z"/>
		<linearGradient id="SVGID_100_" gradientUnits="userSpaceOnUse" x1="590.4438" y1="467.5269" x2="842.7942" y2="467.5269">
			<stop  offset="0.1481" style="stop-color:#EB8489"/>
			<stop  offset="0.3837" style="stop-color:#E57D83"/>
			<stop  offset="0.7284" style="stop-color:#D66973"/>
			<stop  offset="1" style="stop-color:#C65563"/>
		</linearGradient>
		<path class="st111" d="M789.5,403c-6.5,12.9-30.1,52.9-33.6,55.9c-14.6-17-39.2-56.2-47.4-58.7c-4.6-1.4-13.8-2.2-19-5.5
			c-23-14.6-48.6-7.5-58.4,13.3c-6.6,14.1-18.9,56.1-40.7,92.5l61.3,47.4c16-19.3,34.8-39.1,47-70.1c2.7-7,9.1-19.3,12.6-16.3
			c17.6,15,41.6,36.7,57.3,29.8c8.5-6.1,33.4-67.2,36.4-79.9L789.5,403z"/>
		<path class="st112" d="M690,386.1c0.5,3.9,1.1,9.5,1.1,9.5c-5.5,4.2-26.6-2.6-26.3-7.5c3.2-7.2,7-22.5,7-22.5L690,386.1z"/>
		<path class="st112" d="M714.5,345.9c-0.9,8.4-3.1,33.7-10.4,40.8c-6,5.8-14.3,4.6-25.7-3.7c-11.4-8.2-4.9-31.6-4.5-38.8
			C674.5,332.8,715.9,333.7,714.5,345.9z"/>
		<path class="st96" d="M674.4,328.8c18-14.3,15.8-5.9,13.3-3.4c16.2-7.2,38.4-8.8,42.8-5c4.5,3.8,5.2,15.1-6.8,22.1
			c-12,7-13.3,2.6-19,2.6c-5.6,0.1-4.3,10.7-4.6,13c-0.1,0.6-1,0.9-1.5,0.6c-2.4-1.6-3.7-1.8-4.7-0.1c-1.2,1.9-1.5,5.6,0.4,7
			c1,0.8,1.9,0.9,3,0.9c-9.2,16.4-24.5,5.9-27,4.7C666.4,369.5,656.3,343.1,674.4,328.8z"/>
	</g>
	<g id="Woman">
		<path class="st112" d="M1428.3,805.6c-3.9-4.8-4.3-9.7-2.7-16c1.6-6.2,18.3-43.2-10.3-52.3c-19-6-23.5,11.5-26,18.5
			c-2.5,6.9-8.3,36.8,10.3,37c1.7,3.5-0.7,8.2-2.9,10.6C1408.3,805.6,1428.3,805.6,1428.3,805.6z"/>
		
			<linearGradient id="SVGID_101_" gradientUnits="userSpaceOnUse" x1="1445.765" y1="819.7933" x2="1701.479" y2="864.8711" gradientTransform="matrix(0.9269 0.3754 -0.3754 0.9269 366.6207 -330.221)">
			<stop  offset="0" style="stop-color:#285A83"/>
			<stop  offset="1" style="stop-color:#6889A0"/>
		</linearGradient>
		<path class="st113" d="M1619.3,1074c-48.9,8.8-65.6-2.8-119.4,0.6c-33.8-53,17.4-96.9-34.8-157.9c-14.3,5.3-68.3,25.3-68.3,25.3
			c5.7,26.5,40.7,163.6,80.2,175.4c34.6,10.3,121.9-22,154.1-21.4c-0.6-5.4-2.3-16.2-3.9-23.5
			C1624.7,1073,1622.1,1073.5,1619.3,1074z"/>
		<path class="st96" d="M1659,1082.7c-2.2-6.3-0.1-8.3-4.7-12.6c-3.9-3.6-13.1-0.6-27,2.4c1.6,7.3,3.2,18.1,3.9,23.5
			c4.6,0.1,8.1,0.8,10.1,2.4c16.4,13,23.4,32.6,30.3,28.5C1674.8,1124.9,1665.1,1100.2,1659,1082.7z"/>
		<path class="st112" d="M1442.8,810.4c12.8,10.6,63.8,67.3,75.4,77.9c3.7,3.4,38.9,79.9,38.9,79.9s17.9,15.9,15.7,26
			c-2.2,10.1-5.9,10.4-7.6,10.6c-4,0.5-10.8-19.4-15.1-18.1c-4.3,1.4,2.8,10.7,1.4,11.2c-1.4,0.5-10.5-12-9-21.2
			c1.5-9.2-28.8-62.3-40.1-74.4c-14.2-15.2-61.8-49.9-61.8-49.9L1442.8,810.4z"/>
		
			<linearGradient id="SVGID_102_" gradientUnits="userSpaceOnUse" x1="1373.2679" y1="745.638" x2="1453.1781" y2="706.9124" gradientTransform="matrix(0.9269 0.3754 -0.3754 0.9269 366.6207 -330.221)">
			<stop  offset="0.1481" style="stop-color:#EB8489"/>
			<stop  offset="0.3837" style="stop-color:#E57D83"/>
			<stop  offset="0.7284" style="stop-color:#D66973"/>
			<stop  offset="1" style="stop-color:#C65563"/>
		</linearGradient>
		<path class="st114" d="M1465.1,916.7l-76.3,28.3c1.1-31-5-57.3-19.3-72.3c-10.3-10.8-22.8-24.5-1.2-51.6
			c8.2-10.3,23.6-17.8,29.7-17.6c9.5,0.3,18.7,0.5,27.6,1.2c8.4,0.6,15.5,4,17.3,5.8c0.5,7.1-0.1,14.7,0.3,24.1
			C1443.9,851.1,1445.8,869.7,1465.1,916.7z"/>
		<path class="st112" d="M1383.5,808.5c-17.1-0.7-55.7,3.4-62.4-6c-6.7-9.4-3.3-72.9-0.9-78.2c2.4-5.3,3.9-6.9,4.9-9.4
			c1-2.5,3.1-9,3.1-9c-2.1,1.9-6.8,6-6.8,6c0.7-4.4,0.3-24.8-4.1-22.8s-13.6,10.4-14,22.5c-0.3,8.1,3.3,15.5,2.4,20.6
			c-6.3,35.1-14.3,76.5-1.8,88.1c16.6,15.5,52.5,16,62.6,16.9c10.3,0.9,20.8-2.4,24-13C1393.7,813.5,1392.1,808.8,1383.5,808.5z"/>
		
			<linearGradient id="SVGID_103_" gradientUnits="userSpaceOnUse" x1="1421.5758" y1="803.9553" x2="1661.7173" y2="991.6425" gradientTransform="matrix(0.9269 0.3754 -0.3754 0.9269 366.6207 -330.221)">
			<stop  offset="0" style="stop-color:#285A83"/>
			<stop  offset="1" style="stop-color:#6889A0"/>
		</linearGradient>
		<path class="st115" d="M1570.9,1168.9c-3-0.6-6.2-1.4-9.7-2.3c-47.9-12.9-78.9-34.4-129-54.2c-2.8-98,72.5-143.5,32.9-195.7
			c-15,5.6-76.3,28.3-76.3,28.3c-6.1,26.4-26.3,168.8,4.5,196.3c27.4,24.5,139.6,35.4,170.2,50.8
			C1566.5,1186,1569.7,1177.1,1570.9,1168.9z"/>
		<path class="st96" d="M1594.2,1186.3c0.1-4,1.9-7.1,0.2-9.5c-3.1-4.5-11.1-5.3-23.5-7.9c-1.2,8.2-4.3,17.1-7.4,23.2
			c3.7,1.9,6.2,3.8,7.2,5.8c9.3,18.8,7.3,37.7,15.3,38.7C1589.6,1237,1593.7,1202.9,1594.2,1186.3z"/>
		<path class="st96" d="M1519.9,797.5c-15.2-9.7,4.7-15.9,0.2-25.1c-8-16.5-30.1-7-30.4-12.5c-0.3-5,18.2-1.5,16.7-6.7
			c-2-7.2-18.7-5.8-38.4-3.7c-20.3,2.2-24.7-11.7-36.2-18.9c-18.8-11.9-37.4-0.5-39.5,17.1c7.1,0.5,2,12.5,5.9,15.3
			c1.3,0.9,4.9-5.7,7.6-3.1c3.5,3.3-10.9,14.4-6,21.7c0.6,0.9,1.8,1.5,3.4,1.9l0,0c0,0,0,0,0,0c0.1,0,0.2,0,0.2,0.1
			c5.2,1.2,16,10.5,9.8,25.1c-6.4,14.8-6.6,26,3.2,26.5c8,0.4,5.6-14,14-19c5.1-3.1,9.3,5.4,12.5,12c2.9,6,14.9,10.6,18.3,2.2
			c2-4.8-7.4-11.4-1-11.5c0,0,0,0,0,0c10.1,8.4,19.3,14.9,23.4,13.8c11.6-3.2,5.8-15.6,10.8-17.9c3.6-1.7,28,12.9,35.7,6.1
			S1526.4,801.6,1519.9,797.5z"/>
		<path class="st2" d="M1519.9,797.5c-15.2-9.7,4.7-15.9,0.2-25.1c-8-16.5-30.1-7-30.4-12.5c-0.3-5,18.2-1.5,16.7-6.7
			c-2-7.2-18.7-5.8-38.4-3.7c-20.3,2.2-24.7-11.7-36.2-18.9c-18.8-11.9-37.4-0.5-39.5,17.1c1.3,0.1,2.1,0.6,2.7,1.3l0,0
			c6.3-11.3,15-19.6,26.9-12.9c11.9,6.7,25.4,21,42.3,21.2c16.9,0.2,10.8,10.5,20.4,11.3c22.6,1.9,9.5,11.6,16.2,21.4
			c6.7,9.8,30.3,9.8,31.5,26.5C1533.7,809.6,1525.2,800.8,1519.9,797.5z"/>
		<path class="st116" d="M1460.2,818.8C1460.2,818.8,1460.2,818.8,1460.2,818.8c10.1,8.4,19.3,14.9,23.4,13.8
			c9.3-2.6,7.4-11,8.8-15.4v0c-5.2,16.6-19.6-3.3-28-8c-9-5-10.7,5.7-16.2,6.2c-4.1,0.4-6.9-10.5-15-9.7c-8.2,0.9-12.4,5.9-11.5-0.8
			c1.7-12.1-5.5-20.7-14.8-23.6c-9.3-2.9-6.8-6.5-6.1-9.2c-1.7,3.3-2.7,6.7-0.8,9.5c0.6,0.9,1.8,1.5,3.4,1.9c0,0,0,0,0,0
			c0.1,0,0.2,0,0.2,0.1c5.2,1.2,16,10.5,9.8,25.1c-6.4,14.8-6.6,26,3.2,26.5c8,0.4,5.6-14,14-19c5.1-3.1,9.3,5.4,12.5,12
			c2.9,6,14.9,10.6,18.3,2.2C1463.2,825.5,1453.8,818.8,1460.2,818.8z"/>
	</g>
	<g id="Eye_symbols">
		<g>
			<path class="st8" d="M915.5,798.2c7.6,3.1,23.2,10.2,38.1,3.9c14.9-6.3,20.6-22.5,23.7-30.1c-7.6-3.1-23.2-10.2-38.1-3.9
				C924.3,774.4,918.6,790.6,915.5,798.2z"/>
			<path class="st103" d="M936.3,789.2c-2.3-5.5,0.3-11.9,5.8-14.3c5.5-2.3,11.9,0.3,14.3,5.8c2.3,5.5-0.3,11.9-5.8,14.3
				C945.1,797.4,938.7,794.8,936.3,789.2z"/>
			<path class="st8" d="M941.6,787c-1.1-2.6,0.1-5.7,2.8-6.8c2.6-1.1,5.7,0.1,6.8,2.8c1.1,2.6-0.1,5.7-2.8,6.8
				C945.7,790.9,942.7,789.6,941.6,787z"/>
		</g>
		<g>
			<path class="st103" d="M1660.1,717.3c4.5,6.9,13.3,21.6,29.2,24.8c15.9,3.3,29.7-6.8,36.6-11.3c-4.5-6.9-13.3-21.6-29.2-24.8
				C1680.8,702.7,1667,712.8,1660.1,717.3z"/>
			<path class="st2" d="M1682.3,721.7c1.2-5.9,7-9.7,12.9-8.5c5.9,1.2,9.7,7,8.5,12.9c-1.2,5.9-7,9.7-12.9,8.5
				C1684.9,733.4,1681.1,727.6,1682.3,721.7z"/>
			<path class="st103" d="M1687.9,722.9c0.6-2.8,3.3-4.6,6.1-4c2.8,0.6,4.6,3.3,4,6.1c-0.6,2.8-3.3,4.6-6.1,4
				C1689.2,728.4,1687.4,725.7,1687.9,722.9z"/>
		</g>
		<g>
			<path class="st103" d="M680.2,783.4c4.5,6.9,13.3,21.6,29.2,24.8c15.9,3.3,29.7-6.8,36.6-11.3c-4.5-6.9-13.3-21.6-29.2-24.8
				C700.9,768.8,687,778.9,680.2,783.4z"/>
			<path class="st2" d="M702.4,787.8c1.2-5.9,7-9.7,12.9-8.5c5.9,1.2,9.7,7,8.5,12.9c-1.2,5.9-7,9.7-12.9,8.5
				C705,799.5,701.2,793.7,702.4,787.8z"/>
			<path class="st103" d="M708,789c0.6-2.8,3.3-4.6,6.1-4c2.8,0.6,4.6,3.3,4,6.1c-0.6,2.8-3.3,4.6-6.1,4
				C709.2,794.5,707.4,791.8,708,789z"/>
		</g>
		<g>
			<path class="st103" d="M1256.4,201.9c4.5,6.9,13.3,21.6,29.2,24.8c15.9,3.3,29.7-6.8,36.6-11.3c-4.5-6.9-13.3-21.6-29.2-24.8
				C1277.1,187.3,1263.3,197.4,1256.4,201.9z"/>
			<path class="st2" d="M1278.6,206.3c1.2-5.9,7-9.7,12.9-8.5c5.9,1.2,9.7,7,8.5,12.9c-1.2,5.9-7,9.7-12.9,8.5
				C1281.2,217.9,1277.4,212.2,1278.6,206.3z"/>
			<path class="st103" d="M1284.2,207.4c0.6-2.8,3.3-4.6,6.1-4c2.8,0.6,4.6,3.3,4,6.1c-0.6,2.8-3.3,4.6-6.1,4
				C1285.4,213,1283.6,210.2,1284.2,207.4z"/>
		</g>
		<g>
			<path class="st96" d="M1029.6,1243.7c10.5,4.7,32,15.5,53.3,7.4c21.3-8.1,30.1-30.5,34.8-41c-10.5-4.7-32-15.5-53.3-7.4
				C1043.1,1210.8,1034.3,1233.1,1029.6,1243.7z"/>
			<path class="st3" d="M1059.3,1232.1c-3-7.9,0.9-16.7,8.8-19.8c7.9-3,16.7,0.9,19.8,8.8c3,7.9-0.9,16.7-8.8,19.8
				C1071.1,1244,1062.3,1240,1059.3,1232.1z"/>
			<path class="st2" d="M1066.7,1229.3c-1.4-3.8,0.4-8,4.2-9.4c3.8-1.4,8,0.4,9.4,4.2c1.4,3.8-0.4,8-4.2,9.4
				C1072.4,1234.9,1068.2,1233,1066.7,1229.3z"/>
			<g>
				<path class="st117" d="M1057.7,1187.1c-0.8,0-1.6-0.5-1.9-1.3l-4-10.5c-0.4-1,0.1-2.2,1.2-2.6c1-0.4,2.2,0.1,2.6,1.2l4,10.5
					c0.4,1-0.1,2.2-1.2,2.6C1058.2,1187.1,1057.9,1187.1,1057.7,1187.1z"/>
			</g>
			<g>
				<path class="st117" d="M1075.4,1184.3C1075.3,1184.3,1075.3,1184.3,1075.4,1184.3c-1.2,0-2-1-2-2.1l0.5-11.2c0-1.1,1-2,2.1-1.9
					c1.1,0,2,1,1.9,2.1l-0.5,11.2C1077.3,1183.4,1076.4,1184.3,1075.4,1184.3z"/>
			</g>
			<g>
				<path class="st117" d="M1042.6,1196.8c-0.5,0-1-0.2-1.4-0.6l-7.8-8c-0.8-0.8-0.8-2.1,0-2.8c0.8-0.8,2.1-0.8,2.8,0l7.8,8
					c0.8,0.8,0.8,2.1,0,2.8C1043.6,1196.6,1043.1,1196.8,1042.6,1196.8z"/>
			</g>
			<g>
				<path class="st117" d="M1093.6,1281c-0.8,0-1.6-0.5-1.9-1.3l-4-10.5c-0.4-1,0.1-2.2,1.2-2.6c1-0.4,2.2,0.1,2.6,1.2l4,10.5
					c0.4,1-0.1,2.2-1.2,2.6C1094,1281,1093.8,1281,1093.6,1281z"/>
			</g>
			<g>
				<path class="st117" d="M1112.4,1269c-0.5,0-1-0.2-1.4-0.6l-7.8-8c-0.8-0.8-0.8-2.1,0-2.8c0.8-0.8,2.1-0.8,2.8,0l7.8,8
					c0.8,0.8,0.8,2.1,0,2.8C1113.4,1268.8,1112.9,1269,1112.4,1269z"/>
			</g>
			<g>
				<path class="st117" d="M1071.5,1284.6C1071.4,1284.6,1071.4,1284.6,1071.5,1284.6c-1.2,0-2-1-2-2.1l0.5-11.2
					c0-1.1,0.9-2,2.1-1.9c1.1,0,2,1,1.9,2.1l-0.5,11.2C1073.4,1283.8,1072.5,1284.6,1071.5,1284.6z"/>
			</g>
		</g>
	</g>
	<g id="Circles_with_symbols">
		<circle class="st3" cx="435.1" cy="303.7" r="68.4"/>
		<g>
			<g>
				<path class="st96" d="M410.9,346.2L410.9,346.2c-4.9,0-9.5-1.9-13-5.4c-3.5-3.5-5.4-8.1-5.4-13c0-4.9,1.9-9.5,5.4-13l16.9-16.9
					c1.2-1.2,3.1-1.2,4.2,0c1.2,1.2,1.2,3.1,0,4.2l-16.9,16.9c-2.3,2.3-3.6,5.4-3.6,8.7s1.3,6.4,3.6,8.7c2.3,2.3,5.4,3.6,8.7,3.6
					s6.4-1.3,8.7-3.6l16.9-16.9c4.8-4.8,4.8-12.6,0-17.5c-1.2-1.2-1.2-3.1,0-4.2c1.2-1.2,3.1-1.2,4.2,0c7.2,7.2,7.2,18.8,0,25.9
					l-16.9,16.9C420.4,344.3,415.8,346.2,410.9,346.2z"/>
			</g>
			<g>
				<path class="st8" d="M453.1,310.4c-0.8,0-1.5-0.3-2.1-0.9c-1.2-1.2-1.2-3.1,0-4.2l16.9-16.9c2.3-2.3,3.6-5.4,3.6-8.7
					c0-3.3-1.3-6.4-3.6-8.7c-2.3-2.3-5.4-3.6-8.7-3.6s-6.4,1.3-8.7,3.6l-16.9,16.9c-4.8,4.8-4.8,12.6,0,17.5c1.2,1.2,1.2,3.1,0,4.2
					c-1.2,1.2-3.1,1.2-4.2,0c-7.2-7.2-7.2-18.8,0-25.9l16.9-16.9c3.5-3.5,8.1-5.4,13-5.4c4.9,0,9.5,1.9,13,5.4
					c3.5,3.5,5.4,8.1,5.4,13c0,4.9-1.9,9.5-5.4,13l-16.9,16.9C454.7,310.1,453.9,310.4,453.1,310.4z"/>
			</g>
		</g>
		<circle class="st3" cx="1822.7" cy="1053.3" r="68.4"/>
		<g>
			<g>
				<path class="st96" d="M1798.6,1095.8L1798.6,1095.8c-4.9,0-9.5-1.9-13-5.4c-3.5-3.5-5.4-8.1-5.4-13c0-4.9,1.9-9.5,5.4-13
					l16.9-16.9c1.2-1.2,3.1-1.2,4.2,0c1.2,1.2,1.2,3.1,0,4.2l-16.9,16.9c-2.3,2.3-3.6,5.4-3.6,8.7s1.3,6.4,3.6,8.7
					c2.3,2.3,5.4,3.6,8.7,3.6c3.3,0,6.4-1.3,8.7-3.6l16.9-16.9c4.8-4.8,4.8-12.6,0-17.5c-1.2-1.2-1.2-3.1,0-4.2
					c1.2-1.2,3.1-1.2,4.2,0c7.2,7.2,7.2,18.8,0,25.9l-16.9,16.9C1808.1,1093.9,1803.4,1095.8,1798.6,1095.8z"/>
			</g>
			<g>
				<path class="st8" d="M1840.8,1060c-0.8,0-1.5-0.3-2.1-0.9c-1.2-1.2-1.2-3.1,0-4.2l16.9-16.9c2.3-2.3,3.6-5.4,3.6-8.7
					c0-3.3-1.3-6.4-3.6-8.7c-2.3-2.3-5.4-3.6-8.7-3.6s-6.4,1.3-8.7,3.6l-16.9,16.9c-4.8,4.8-4.8,12.6,0,17.5c1.2,1.2,1.2,3.1,0,4.2
					c-1.2,1.2-3.1,1.2-4.2,0c-7.2-7.2-7.2-18.8,0-25.9l16.9-16.9c3.5-3.5,8.1-5.4,13-5.4c4.9,0,9.5,1.9,13,5.4
					c3.5,3.5,5.4,8.1,5.4,13c0,4.9-1.9,9.5-5.4,13l-16.9,16.9C1842.3,1059.7,1841.5,1060,1840.8,1060z"/>
			</g>
		</g>
		<g>
			
				<rect x="1317.1" y="469.6" transform="matrix(0.746 -0.6659 0.6659 0.746 40.4515 1049.3264)" class="st118" width="157.4" height="4"/>
		</g>
		<g>
			
				<rect x="1292" y="356.2" transform="matrix(0.8762 -0.4819 0.4819 0.8762 -54.5998 678.7057)" class="st118" width="4" height="178.9"/>
		</g>
		<g>
			
				<ellipse transform="matrix(0.9721 -0.2348 0.2348 0.9721 -215.1591 79.5202)" class="st96" cx="226.4" cy="943.5" rx="49.4" ry="49.4"/>
			<path class="st2" d="M233.9,946.1c4.6-0.1,9-2.3,11.7-6.5c4.2-6.5,2.3-15.2-4.3-19.4s-15.2-2.3-19.4,4.3c-2.6,4.1-2.8,9.1-1,13.3
				c-9.6-1.6-20.5,3.5-27,13.6l39,24.9C239.3,966.2,239.4,954.1,233.9,946.1z"/>
		</g>
		<g>
			
				<ellipse transform="matrix(0.9951 -9.883623e-02 9.883623e-02 0.9951 -45.2476 134.7178)" class="st96" cx="1337.1" cy="524" rx="53.8" ry="53.8"/>
			<path class="st2" d="M1343.7,521.5c2.8-3,4.2-7.4,3.1-11.7c-1.6-6.9-8.5-11.1-15.4-9.5c-6.9,1.6-11.1,8.5-9.5,15.4
				c1,4.3,4.2,7.6,8.1,9c-7.1,5.2-10.7,15.6-8.1,26.2l40.8-9.7C1360.2,530.6,1352.4,523,1343.7,521.5z"/>
		</g>
		<g>
			
				<ellipse transform="matrix(0.2867 -0.958 0.958 0.2867 635.9266 1692.5475)" class="st8" cx="1454.6" cy="419.2" rx="38.4" ry="38.4"/>
			<path class="st103" d="M1459.4,420.7c2.9-0.4,5.6-2.3,6.9-5.2c2.1-4.6,0.1-10-4.5-12.1c-4.6-2.1-10-0.1-12.1,4.5
				c-1.3,2.9-1,6.1,0.5,8.6c-6.3-0.2-12.8,4.1-16.1,11.1l27.2,12.5C1464.7,433.1,1463.6,425.4,1459.4,420.7z"/>
		</g>
		<g>
			<circle class="st2" cx="1250.8" cy="367.2" r="38.4"/>
			<path class="st103" d="M1255.5,365.4c2-2.2,2.9-5.3,2.1-8.4c-1.2-4.9-6.2-7.8-11.1-6.6s-7.8,6.2-6.6,11.1
				c0.8,3.1,3.1,5.4,5.8,6.4c-5,3.8-7.4,11.2-5.5,18.8l29-7.4C1267.4,371.7,1261.8,366.3,1255.5,365.4z"/>
		</g>
	</g>
	<g id="Envelopes">
		<g>
			
				<rect x="737.5" y="609.2" transform="matrix(0.9397 0.3421 -0.3421 0.9397 272.2125 -239.284)" class="st2" width="154" height="85.7"/>
			<polygon class="st103" points="756.8,585.4 814.5,652.1 901.5,638.1 			"/>
			<polygon class="st119" points="756.8,585.4 807,672.6 901.5,638.1 814.5,652.1 			"/>
		</g>
		<g>
			
				<rect x="1576.2" y="856.8" transform="matrix(0.9829 -0.1841 0.1841 0.9829 -135.162 314.7206)" class="st0" width="102.2" height="56.9"/>
			<polygon class="st103" points="1571.8,866.7 1627.2,885.2 1672.2,847.9 			"/>
			<polygon class="st1" points="1571.8,866.7 1629.9,899.5 1672.2,847.9 1627.2,885.2 			"/>
		</g>
		<g>
			
				<rect x="470.5" y="1206" transform="matrix(0.9724 -0.2333 0.2333 0.9724 -275.0378 159.134)" class="st8" width="129.1" height="71.9"/>
			<polygon class="st120" points="463.9,1222.1 535,1242 589.4,1191.9 			"/>
			<polygon class="st121" points="463.9,1222.1 539.3,1259.8 589.4,1191.9 535,1242 			"/>
		</g>
	</g>
	<g id="Play_symbol">
		
			<ellipse transform="matrix(0.4853 -0.8743 0.8743 0.4853 237.8031 781.3726)" class="st8" cx="782.6" cy="188.7" rx="47.1" ry="47.1"/>
		<polygon class="st103" points="769.6,168.8 769.6,208.6 802,188.7 		"/>
	</g>
	<g id="_x2B__x2B__x2B__x2B__x2B_">
		<g>
			
				<ellipse transform="matrix(0.1047 -0.9945 0.9945 0.1047 38.1765 2197.6248)" class="st103" cx="1239.7" cy="1077.6" rx="44.6" ry="44.6"/>
			<g>
				
					<rect x="1215.6" y="1073.6" transform="matrix(0.2329 -0.9725 0.9725 0.2329 -97.0153 2032.2279)" class="st8" width="48" height="8"/>
			</g>
			<g>
				
					<rect x="1235.7" y="1053.6" transform="matrix(0.2328 -0.9725 0.9725 0.2328 -96.8965 2032.396)" class="st8" width="8" height="48"/>
			</g>
		</g>
		<g>
			
				<ellipse transform="matrix(0.1047 -0.9945 0.9945 0.1047 396.7298 2924.6155)" class="st103" cx="1822.7" cy="1242" rx="44.6" ry="44.6"/>
			<g>
				
					<rect x="1798.7" y="1238" transform="matrix(0.2329 -0.9725 0.9725 0.2329 190.4197 2725.3264)" class="st8" width="48" height="8"/>
			</g>
			<g>
				
					<rect x="1818.7" y="1217.9" transform="matrix(0.2328 -0.9725 0.9725 0.2328 190.6039 2725.531)" class="st8" width="8" height="48"/>
			</g>
		</g>
	</g>
	<g id="Wifi_sygnal">
		<g>
			<path class="st2" d="M1555.7,555.2c1.7-6,7.9-9.4,13.8-7.7c6,1.7,9.4,7.9,7.7,13.8c-1.7,6-7.9,9.4-13.8,7.7
				C1557.5,567.4,1554,561.2,1555.7,555.2z"/>
			<g>
				<path class="st2" d="M1592.2,567.6c-0.2,0-0.4,0-0.6-0.1c-1.1-0.3-1.7-1.4-1.4-2.5c3.8-13.2-3.9-26.9-17-30.7
					c-1.1-0.3-1.7-1.4-1.4-2.5c0.3-1.1,1.4-1.7,2.5-1.4c15.3,4.4,24.2,20.3,19.8,35.6C1593.9,567.1,1593.1,567.6,1592.2,567.6z"/>
			</g>
			<g>
				<path class="st2" d="M1607.2,571.9c-0.2,0-0.4,0-0.6-0.1c-1.1-0.3-1.7-1.4-1.4-2.5c3-10.4,1.7-21.3-3.5-30.7
					c-5.2-9.4-13.8-16.3-24.2-19.2c-1.1-0.3-1.7-1.4-1.4-2.5c0.3-1.1,1.4-1.7,2.5-1.4c11.4,3.3,20.9,10.7,26.6,21.1
					c5.8,10.4,7.1,22.4,3.9,33.8C1608.9,571.4,1608.1,571.9,1607.2,571.9z"/>
			</g>
			<g>
				<path class="st2" d="M1622.2,576.2c-0.2,0-0.4,0-0.6-0.1c-1.1-0.3-1.7-1.4-1.4-2.5c4.1-14.4,2.4-29.5-4.9-42.6
					c-7.3-13.1-19.2-22.5-33.6-26.6c-1.1-0.3-1.7-1.4-1.4-2.5c0.3-1.1,1.4-1.7,2.5-1.4c15.4,4.4,28.2,14.5,36,28.5
					c7.8,14,9.7,30.2,5.3,45.6C1623.8,575.7,1623,576.2,1622.2,576.2z"/>
			</g>
			<g>
				<path class="st2" d="M1637.1,580.6c-0.2,0-0.4,0-0.6-0.1c-1.1-0.3-1.7-1.4-1.4-2.5c5.2-18.4,3-37.7-6.3-54.4
					c-9.3-16.7-24.5-28.8-42.9-34c-1.1-0.3-1.7-1.4-1.4-2.5c0.3-1.1,1.4-1.7,2.5-1.4c19.4,5.5,35.5,18.3,45.3,35.9
					c9.8,17.6,12.2,38.1,6.6,57.5C1638.8,580,1638,580.6,1637.1,580.6z"/>
			</g>
		</g>
	</g>
</g>
<g id="Secondary_shapes">
	<polygon class="st0" points="1590,239.5 1565.9,247.1 1560.5,271.7 1579.1,288.8 1603.1,281.2 1608.6,256.6 	"/>
	<polygon class="st0" points="1302.8,1194.7 1278.7,1202.3 1273.2,1226.9 1291.8,1244 1315.9,1236.4 1321.4,1211.8 	"/>
	<polygon class="st0" points="1648.5,1297.3 1661.2,1344.6 1695.9,1310 	"/>
	<polygon class="st122" points="979,47.6 940.4,86.3 993.2,100.4 	"/>
</g>
</svg>
