<?xml version="1.0" encoding="utf-8"?>
<!-- Generator: Adobe Illustrator 24.1.0, SVG Export Plug-In . SVG Version: 6.00 Build 0)  -->
<svg version="1.1" id="Layer_1" xmlns="http://www.w3.org/2000/svg" xmlns:xlink="http://www.w3.org/1999/xlink" x="0px" y="0px"
	 viewBox="0 0 634.1 552.9" style="enable-background:new 0 0 634.1 552.9;" xml:space="preserve">
<style type="text/css">
	.st0{opacity:0.18;fill:#5A91BC;enable-background:new    ;}
	.st1{fill:#FFFFFF;}
	.st2{opacity:0.33;fill:#D7D9E1;enable-background:new    ;}
	.st3{fill:#5A91BC;}
	.st4{fill:#D7D9E1;}
	.st5{opacity:0.33;fill:#FFFFFF;enable-background:new    ;}
	.st6{opacity:0.14;fill:#020202;enable-background:new    ;}
	.st7{opacity:0.4;fill:#020202;enable-background:new    ;}
	.st8{fill:url(#SVGID_1_);}
	.st9{fill:#FCA89E;}
	.st10{fill:url(#SVGID_2_);}
	.st11{opacity:0.1;}
	.st12{fill:#020202;}
	.st13{fill:#473F47;}
	.st14{fill:none;stroke:#FFFFFF;stroke-width:2;stroke-linecap:round;stroke-miterlimit:10;}
</style>
<path class="st0" d="M351.2,3.3c-8,1.4-15.9,3.4-23.6,5.9c-51.1,16.7-148.3,42.5-186.1,80.5C97.6,134,111.1,192.2,66.9,236.1
	C30.4,272.5-0.1,308.1,0,363.2c0.1,97.2,84.1,131,162.6,155.5c93,29,191.9,42.3,288.9,29.1c41.1-5.6,82.6-16.4,116.2-40.8
	c50.2-36.5,74.3-103.4,63.9-163.9c-5.3-30.7-14.5-58.5-17.1-90c-3.3-41.1,3.6-83.3-8.4-123.5c-21-70-94.6-112.2-166.6-124.9
	C410.4-0.6,380.2-1.9,351.2,3.3z"/>
<path class="st1" d="M582.3,74.4v364.9c0,12.7-10.3,23.1-23.1,23.1l0,0H74.8c-12.7,0-23.1-10.3-23.1-23.1V81.2
	c0-12.7,10.3-23.1,23.1-23.1H566C575,58.1,582.3,65.4,582.3,74.4C582.3,74.4,582.3,74.4,582.3,74.4z"/>
<rect x="137.1" y="137.3" class="st2" width="231.5" height="142.3"/>
<rect x="137.1" y="293.2" class="st2" width="231.5" height="142.3"/>
<path class="st3" d="M582.3,74.7v0.6H51.8v-0.6c0-12.7,10.3-23.1,23.1-23.1l0,0h484.4C571.9,51.7,582.3,62,582.3,74.7
	C582.3,74.7,582.3,74.7,582.3,74.7z"/>
<path class="st4" d="M123.3,75.3v386.9H74.8c-12.7,0-23.1-10.3-23.1-23.1V75.3H123.3z"/>
<rect x="74.9" y="172.8" class="st1" width="37.4" height="3.7"/>
<rect x="66.2" y="161.8" class="st1" width="46.1" height="4.7"/>
<rect x="74.9" y="216.5" class="st1" width="37.4" height="3.7"/>
<rect x="66.2" y="205.6" class="st1" width="46.1" height="4.7"/>
<rect x="74.9" y="260.2" class="st1" width="37.4" height="3.7"/>
<rect x="66.2" y="249.3" class="st1" width="46.1" height="4.7"/>
<rect x="74.9" y="304" class="st1" width="37.4" height="3.7"/>
<rect x="66.2" y="293" class="st1" width="46.1" height="4.7"/>
<path class="st3" d="M613.6,118.5v77.3c0,11.1-8.7,20.3-19.9,20.8c-0.3,0-0.7,0-1,0H465l-11,25.5l-11.6-25.5h-176
	c-9.3,0-17.5-6.1-20-15.1c-0.5-1.9-0.8-3.8-0.7-5.8v-77.3c0-11.5,9.3-20.8,20.8-20.9h326.3C604.3,97.6,613.6,106.9,613.6,118.5
	C613.6,118.4,613.6,118.4,613.6,118.5z"/>
<path class="st5" d="M613.6,126.3v69.4c0,11.1-8.7,20.3-19.9,20.8c-0.3,0-0.7,0-1,0H465l-11,25.5l-11.6-25.5h-176
	c-9.3,0-17.5-6.1-20-15.1c-0.5-1.9-0.8-3.8-0.7-5.8v-69.4H613.6z"/>
<circle class="st1" cx="76.5" cy="63.5" r="5.3"/>
<circle class="st1" cx="94.5" cy="63.5" r="5.3"/>
<circle class="st1" cx="112.6" cy="63.5" r="5.3"/>
<path class="st3" d="M496.4,439.4c0,41.7-33.8,75.6-75.6,75.6c-41.7,0-75.6-33.8-75.6-75.6c0-1.9,0.1-3.9,0.2-5.8
	c3.2-41.6,39.5-72.7,81.1-69.5C466,367.2,496.3,400,496.4,439.4z"/>
<path class="st6" d="M389,473.8c-2.5,10.9,0.6,22.6-1.7,33.4c-17.5-8.6-30.9-23.7-37.6-41.9c-0.4-3.7-0.3-7.5,0.3-11.2
	c0.5-4,1.3-8.2,0.1-12.1c-1.1-3-2.7-5.8-4.7-8.2c1.7-22.4,13.3-42.8,31.6-55.8c0.1,0.5,0.1,1,0,1.5l-3.2,14.4
	c0.6,4.3,0.6,8.6,0,12.9c-0.7,4.3-3.3,8.1-7,10.3c-1.4,0.6-2.8,1.2-4.1,2c-1.3,1-2.3,2.3-3.1,3.7c-2.1,2.9-3.6,6.2-4.6,9.6
	c-0.9,3.5,0,7.3,2.4,10l21.1-4.1c2.2-0.4,4.9-0.7,6.4,0.9c1.9,2,0.7,5.1,1.1,7.8c0.5,3.4,3.5,5.9,4.9,9
	C393.4,461.5,390.4,467.8,389,473.8z"/>
<path class="st7" d="M361.1,400.6c1,2.1,2.5,3.9,4.5,5.2c8.8,6.6,19.5,10.4,30.5,10.7c-3.6,0.9-7.3,1.9-9.9,4.5
	c-2.5,2.7-3.1,7.5-0.1,9.7c1,0.7,2.2,1.1,3.5,1.3c5.6,1.1,11.4,0.6,16.8-1.4c3.3-1.2,6.4-3,9.9-3c2.8,0.2,5.5,1,8,2.3
	c3.7,1.5,7.6,2.9,11.5,2.1c3.9-0.8,7.5-4.5,6.6-8.4c-0.2-0.9-0.6-1.9-0.1-2.7c0.4-0.5,0.9-0.9,1.5-1l35.8-15.9
	c2.3-1,4.9-2.5,5.1-4.9c0.2-2.5-2.3-4.6-4.6-5.8c-12.3-6.4-26.7-7.3-40.6-7.9l-24.7-1.2c-11.9-0.6-24-1.2-35.9,0.2
	c-4.1,0.5-11.4,0.5-14.6,3.6C361.6,390.7,359.8,397.2,361.1,400.6z"/>
<path class="st6" d="M496.4,439.4c0,23.2-10.6,45-28.8,59.3c-1-0.7-1.9-1.6-2.6-2.6c-2.3-3.4-1.5-8.8,2.1-10.7
	c-1.3,0.7-6.3-1-7.8-1.2l-7.8-1.2c-3.7-0.6-10.2-0.3-12.4-4.1c-0.3-0.5-0.5-1-0.9-1.5c-0.5-0.5-1-0.8-1.6-1.1
	c-2.3-1.1-5.1-2.4-5.6-5c-0.4-1.9,0.5-4-0.4-5.6c-0.3-0.5-0.8-0.9-1.1-1.4c-0.7-1.6-0.5-3.4,0.5-4.7c3.3-5.7,10.1-8.5,16.6-9.6
	c6.5-1.1,13.3-1,19.6-2.8c4-1.2,7.8-3.1,11.9-3.7c2.3-0.3,5.1-0.5,6-2.7c0.5-1.2,0-2.6,0.5-3.9c0.2-0.5,0.5-1,0.7-1.5
	c0.5-1.6-0.3-3.4-2-3.9c-0.2-0.1-0.4-0.1-0.6-0.1c0.5-1.4,1-3.2-0.1-4.2c-0.8-0.6-1.8-0.7-2.7-0.4c-2.7,0.7-4.7,3-7,4.6
	c-7.5,5.4-17.9,3.5-24.2-2.8c-1-0.9-1.8-2.1-2.1-3.4c-0.2-2.3,1.1-4.5,3.2-5.4c2.1-0.9,4.3-1.3,6.5-1.3l-2.5-16.4
	c-12.6,3.4-17.7-8.6-19.5-18.5c-1.8-9.9,5.3-13.5,14.4-14.2C477.5,380.6,496.4,408.5,496.4,439.4z"/>
<path class="st3" d="M449.9,270.2l1.8-0.1c1.1-0.1,2,0.7,2.1,1.8l0.9,11.6c0.1,1.1-0.7,2-1.8,2.1l-1.8,0.1c-1.1,0.1-2-0.7-2.1-1.8
	l-0.9-11.6C448,271.2,448.8,270.2,449.9,270.2z"/>
<path class="st3" d="M439.3,265.4l0.8,4.5c0.3,1.4,1.3,2.4,2.4,2.2c4.3-0.7,15-2.2,22.6-0.3c4.2,1.1,8.2,2.4,12.2,4.1
	c1.6,0.7,3.1-1,2.8-3.2l-2.7-23.8c-0.3-2.1-2.1-3.1-3.4-1.9c-5.5,5-18.2,14.9-32.4,14.8C440,261.9,439,263.6,439.3,265.4z"/>
<ellipse transform="matrix(0.9969 -7.880708e-02 7.880708e-02 0.9969 -19.0921 38.4291)" class="st3" cx="477.3" cy="261.1" rx="7.2" ry="15"/>
<linearGradient id="SVGID_1_" gradientUnits="userSpaceOnUse" x1="493.683" y1="537.0692" x2="598.5104" y2="492.4315" gradientTransform="matrix(1 0 0 -1 -33.5884 790.8316)">
	<stop  offset="1.000000e-02" style="stop-color:#000000"/>
	<stop  offset="8.000000e-02" style="stop-color:#000000;stop-opacity:0.69"/>
	<stop  offset="0.21" style="stop-color:#000000;stop-opacity:0.32"/>
	<stop  offset="1" style="stop-color:#000000;stop-opacity:0"/>
</linearGradient>
<path class="st8" d="M476.1,246.1c4-0.3,7.7,6.1,8.3,14.4c0.7,8.3-2,15.2-6,15.5c-4,0.3-7.7-6.1-8.3-14.4
	C469.5,253.4,472.2,246.5,476.1,246.1z"/>
<path class="st3" d="M393,293.2c-8.8,1.3-29.9,50.8-23.6,62.2c6.3,11.3,41,24.6,41,24.6l-1.9-19.5c0,0-23.7-10.1-21.8-16.4
	c1.9-6.3,15.5-29.8,15.5-29.8L393,293.2z"/>
<path class="st3" d="M449.4,291.8c0-1.2,8.2,2.2,8.6,2.4c4.7,2.6,9.2,5.6,13.3,9c3.7,3,7.6,5.9,11.2,9.2c3.2,3.1,7.6,6.8,6.8,11.8
	c-0.6,3.7-4.7,6.2-8.5,6.2c-3.8-0.3-7.5-1.6-10.7-3.7c-6.7-3.8-13-8-19.4-12.2L449.4,291.8z"/>
<path class="st3" d="M398.4,291.7h48.5c7-0.1,12.8,5.4,12.9,12.4c0,0.1,0,0.3,0,0.4c0,0-9.2,37.7-9.3,50.4c0,6.9,2.2,27.6,2.2,27.6
	h-59.8c0,0,2.8-21.6,2.7-28.9c-0.1-12.3-9.9-49.1-9.9-49.1c-0.1-7,5.5-12.7,12.5-12.8C398.2,291.7,398.3,291.7,398.4,291.7z"/>
<path class="st9" d="M457.2,270.3c-0.8-1.2-1.9-2.1-3.2-2.7c-1.2-0.4-2.5-0.4-3.7,0c-3.4,0.8-6.2,3-7.7,6.1c-0.3,0.6-0.5,1.3-0.5,2
	c0.1,0.7,0.2,1.4,0.5,2c1.2,2.9,2.7,6.2,5.7,7.1c1.6,0.2,3.2,0.3,4.9,0.4c1.1,0.2,2.1,0.6,3.1,0.8c2.7,0.5,8.1-1.3,8.3-4.7
	c0.1-1.7-2-3.9-2.9-5.2C460.2,274.1,458.7,272.2,457.2,270.3z"/>
<path class="st9" d="M430.1,298.8c-0.4,2.9-3.1,5.1-6,4.8c-5.9-0.3-6.4-4.8-6.4-4.8v-23.6h12.4V298.8z"/>
<linearGradient id="SVGID_2_" gradientUnits="userSpaceOnUse" x1="460.1109" y1="523.7834" x2="453.0825" y2="464.3412" gradientTransform="matrix(1 0 0 -1 -33.59 790.8306)">
	<stop  offset="1.000000e-02" style="stop-color:#000000"/>
	<stop  offset="8.000000e-02" style="stop-color:#000000;stop-opacity:0.69"/>
	<stop  offset="0.21" style="stop-color:#000000;stop-opacity:0.32"/>
	<stop  offset="1" style="stop-color:#000000;stop-opacity:0"/>
</linearGradient>
<path class="st10" d="M417.6,286.9c0,0,7.8,12.1,12.4,6.3v-9.5L417.6,286.9z"/>
<path class="st9" d="M412.5,280.9c3.1,9.6,18.5,9.9,23.7,2.3c2.8-4.6,3.6-10.2,2.4-15.5c-0.8-5.2-2.4-10.2-4.7-15
	c-1.6-3-3.2-5.6-6.8-6.1c-4.1-0.3-8.2,0.7-11.8,2.7c-7,3.8-10.4,12-8.1,19.7c0.6,1.9,1.4,3.7,2.3,5.4
	C410.6,276.5,411.6,278.6,412.5,280.9z"/>
<rect x="382.1" y="339.3" class="st3" width="81.2" height="48.4"/>
<g class="st11">
	<rect x="382.1" y="339.3" class="st12" width="81.2" height="48.4"/>
</g>
<path class="st13" d="M417.2,413.5c-1.7,1.3-3.6,2.4-5.6,3.1c-4.4,1.9-13,5.2-11.7,9c1.7,5,7.8,4.7,11.8,3.5
	c6.3-2.2,12.2-5.1,17.8-8.8L417.2,413.5z"/>
<path class="st13" d="M427.6,400.4c14.7-10.7,22.4-18.7,39-28.7c3.9-2.4,6.6-3.1,13.5-0.4c5.8,2.3,5.2,12.3,2,16.4
	c-9.5,12.5-46.2,29.8-53.6,32.4c-3.2,1.1-14.5-8.4-9.9-12.9C421.4,404.6,424.4,402.4,427.6,400.4z"/>
<path class="st13" d="M420.8,421.1c2.3,2.9,4.9,5.6,7.8,8c5,3.9,8.4,5.1,12.5,3.3c5.9-2.7,0.5-8.5-4.1-13.1
	c-3.5-3.6-7.4-6.8-11.6-9.6L420.8,421.1z"/>
<path class="st9" d="M421.6,406.9l6.3,5.2c1.3,1.1,2.4,2.3,3.3,3.7c2,3.7-5,11.6-9.6,7c-4.6-4.6-8.7-9.5-8.7-9.5L421.6,406.9z"/>
<path class="st13" d="M402.8,415.1c-17.1-8.6-27.6-11.7-38.6-27.2c-2.8-4-3.9-10.5-2.8-13.7c1.3-4,7.1-6.4,14-4.7
	c5.7,1.4,44.2,31.5,50.2,37.2c2.6,2.4-5.3,14.7-11.8,12.6C410,418.2,406.3,416.8,402.8,415.1z"/>
<path class="st13" d="M438,251.8c-0.7,1.6-1.6,3-2.9,4.3c-2.5,2.4-5.7,4-9.2,4.5c-5,0.8-10.2,0-15.3-0.5c-0.2,1.7-1.4,3.1-3,3.6
	c0.8,3.6,1.8,7,3.1,10.4c1.3,3.3,3,6.4,4.4,9.7c-4.2-2.9-7.5-7.8-10.5-11.8c-1.6-1.9-2.9-4.1-3.9-6.4c-0.9-2.4-0.7-5,0.7-7.2
	c0.7-0.7,1.3-1.5,1.7-2.4c0.1-0.8,0.1-1.6,0-2.4c-0.1-3.8,1.5-7.4,4.3-9.9c2.9-2.4,6.2-4.1,9.9-5.1c3.1-1.1,6.4-1.4,9.7-1
	c4.7,0.8,10.4,6,11.3,10.7C438.6,249.5,438.5,250.7,438,251.8z"/>
<path class="st9" d="M409.1,274.5c-1.1,0.2-2.1,0.8-2.7,1.7c-0.4,0.7-0.4,1.5-0.1,2.3c0.3,0.8,0.7,1.4,1.2,2.1c0.3,0.4,0.6,0.7,1,1
	c0.6,0.4,1.3,0.5,2.1,0.5c0.6,0,1.1,0,1.7,0c0.3,0,0.6-0.1,0.8-0.2c0.3-0.2,0.5-0.5,0.6-0.8c0.4-1.2,0.4-2.4,0-3.6
	c-0.3-1.1-0.8-2.1-1.6-3C411.3,273.8,410.1,274.2,409.1,274.5z"/>
<path class="st3" d="M471.7,321.3c1.1,2.6,2.7,4.9,4.8,6.7c4.1,3.1,10,2.2,13.1-1.9c1.5-2,2.1-4.5,1.8-6.9c-0.6-2.7-1.8-5.2-3.5-7.4
	c-7.3-10.8-14.9-21.6-22.6-32.2c-2.1,1.2-9.3,3.9-9.9,6.2c-0.5,2.3,3.9,9.3,5,11.7c1.9,4,3.7,8.1,5.6,12.1
	C467.8,313.6,470.5,317.3,471.7,321.3z"/>
<path class="st3" d="M448.4,281l2.4-0.8c1-0.3,2.2,0.2,2.5,1.3l0.8,2.4c0.3,1-0.2,2.2-1.3,2.5l-2.4,0.8c-1,0.3-2.2-0.2-2.5-1.3
	l-0.8-2.4C446.8,282.5,447.3,281.4,448.4,281z"/>
<line class="st14" x1="258.5" y1="109.6" x2="267.2" y2="118.4"/>
<line class="st14" x1="267.8" y1="109.6" x2="259" y2="118.4"/>
<path class="st4" d="M278,390.2h-32.8c-1.3,0-2.3-1-2.3-2.4v-33l-15.6,0c-1.3,0-2.4-1-2.4-2.3c0-0.7,0.3-1.3,0.7-1.7l34.4-34.4
	c0.9-0.9,2.4-0.9,3.3,0l34.4,34.4c0.9,1,0.9,2.5,0,3.4c-0.5,0.5-1.1,0.7-1.6,0.7h-15.7v32.9C280.3,389.2,279.3,390.2,278,390.2z"/>
<path class="st4" d="M306.6,407.1c2.2,0,4,1.7,4,3.9c0,2.2-1.8,3.9-4,3.9l-90,0c-2.2,0-3.9-1.7-3.9-3.9c0-2.2,1.8-3.9,3.9-3.9H306.6
	z"/>
<g>
	<path class="st1" d="M322.6,167.4v-19.1h11v20.2c-0.2,4.3,1.5,6.4,5.3,6.2c3.4,0.1,5.1-2,5.1-6.2v-20.2h11v19.1
		c0.2,10.3-5.1,15.3-16.1,15.2C327.8,182.8,322.4,177.7,322.6,167.4z"/>
	<path class="st1" d="M360.4,157.5h8.8v3.7h0.2c1.2-2.7,3.8-4.2,7.7-4.4c6.8,0.4,10.5,4.6,11,12.8c-0.2,8.3-4.1,12.6-11.5,12.8
		c-2.8,0-4.9-0.9-6.2-2.7v10.4h-9.9V157.5z M373.9,175.2c2.6-0.1,4-2,4.2-5.5c-0.1-3.8-1.5-5.7-4.2-5.9c-2.6,0.2-3.9,2.1-4,5.7
		C370,173.2,371.3,175.1,373.9,175.2z"/>
	<path class="st1" d="M392.4,182.9h9.7c0,0.4,0.2,0.7,0.5,1.1c0.5,0.4,1.2,0.5,2.2,0.5c2.6,0,3.8-1.5,3.8-4.4v-2
		c-1.7,1.8-4,2.7-7,2.7c-6.7-0.4-10.3-4.3-10.6-11.7c0.2-8.1,3.9-12.2,11-12.5c3.1,0.1,5.5,1.5,7.3,4v-3.3h8.6v19.8
		c0.7,8.8-3.5,13.1-12.8,12.8C397.4,189.9,393.1,187.6,392.4,182.9z M404.7,163.7c-2.7,0-4,1.9-3.8,5.7c0.1,2.9,1.4,4.5,3.8,4.8
		c2.4,0.1,3.8-1.6,4-5.1C408.6,165.6,407.3,163.8,404.7,163.7z"/>
	<path class="st1" d="M423,182v-24.5h9v4.9c1.3-3.8,3.8-5.7,7.5-5.7c0.1,0,0.4,0.1,0.7,0.2c0.2,0,0.4,0,0.5,0v9.7
		c-0.2,0-0.5,0-0.9,0c-0.5-0.2-0.9-0.4-1.1-0.4c-4,0-6,2.4-5.9,7.3v8.4H423z"/>
	<path class="st1" d="M471,182h-10.1l-0.4-2.6c-2.3,2-5.4,2.9-9.3,2.9c-5.7-0.2-8.7-2.6-8.8-7.1c0-4.5,3.8-7.2,11.5-8.1
		c4-0.5,6-1.3,6-2.6c-0.1-1.2-1.2-1.9-3.3-2c-2.1,0.1-3.2,0.9-3.3,2.4h-9.3c-0.1-5.5,4.3-8.2,13.4-8.2c8.9-0.2,13,3.2,12.3,10.3
		v11.4c-0.2,1.6,0.2,2.6,1.3,3.1V182z M455.6,177.2c3.1,0,4.5-2,4.4-6c-0.9,0.4-2,0.7-3.5,1.1c-2.9,0.4-4.3,1.3-4,2.7
		C452.6,176.5,453.7,177.2,455.6,177.2z"/>
	<path class="st1" d="M501.4,182h-8.6v-3.3c-2.1,2.6-4.6,3.8-7.7,3.7c-7.2-0.2-10.9-4.3-11.2-12.3c0.4-8.3,3.8-12.8,10.4-13.4
		c3.1,0,5.5,1,7.3,3.1v-11.5h9.7V182z M487.7,175.6c2.8,0,4.3-1.9,4.4-5.7c-0.1-3.7-1.5-5.6-4.2-5.7c-2.7,0.1-4,2.1-4,5.9
		C483.7,173.9,485,175.7,487.7,175.6z"/>
	<path class="st1" d="M533.5,171.9h-18.7c0.1,3.1,1.8,4.6,4.9,4.8c1.6,0,2.8-0.7,3.7-2h9.2c-1.6,4.9-6.1,7.4-13.6,7.7
		c-9-0.2-13.7-4.4-13.9-12.5c0.5-8.2,5.1-12.6,13.9-13.2C528.3,157.2,533.1,162.3,533.5,171.9z M514.8,167h9
		c-0.4-2.4-1.8-3.8-4.4-4.2C516.3,162.9,514.8,164.3,514.8,167z"/>
	<path class="st1" d="M541.4,146.3h10.4v15.2c0,2.2-0.4,5.4-1.1,9.5c-0.2,1.5-0.4,2.9-0.5,4.2c-0.2,0.2-0.4,0.3-0.4,0.2h-6.4
		c-0.2,0.1-0.4,0.1-0.4-0.2c-0.1-0.9-0.4-2.3-0.7-4.2c-0.7-4.2-1-7.3-0.9-9.5V146.3z M542.1,177.1h9v9h-9V177.1z"/>
</g>
</svg>
