<?xml version="1.0" encoding="utf-8"?>
<!-- Generator: Adobe Illustrator 24.1.0, SVG Export Plug-In . SVG Version: 6.00 Build 0)  -->
<svg version="1.1" id="图层_1" xmlns="http://www.w3.org/2000/svg" xmlns:xlink="http://www.w3.org/1999/xlink" x="0px" y="0px"
	 viewBox="0 0 16 16" style="enable-background:new 0 0 16 16;" xml:space="preserve">
<style type="text/css">
	.st0{fill:#EF6F53;}
	.st1{fill:#285A83;}
</style>
<path class="st0" d="M9,12.8c0-0.9-1.4-0.8-1.4-1.2c0-0.2,0.2-0.3,0.4-0.3c0.3,0,0.5,0.1,0.7,0.3L9,11.2c-0.2-0.2-0.4-0.3-0.8-0.4
	v-0.5H7.9v0.5c-0.5,0.1-0.8,0.3-0.8,0.7c0,0.8,1.4,0.8,1.4,1.2c0,0.2-0.2,0.3-0.5,0.3c-0.3,0-0.6-0.1-0.9-0.3l-0.2,0.4
	c0.2,0.2,0.6,0.3,0.9,0.4v0.5h0.4v-0.5C8.7,13.5,9,13.2,9,12.8z"/>
<path class="st0" d="M5.3,11.7c0-0.6-1-0.5-1-0.8c0-0.1,0.1-0.2,0.3-0.2c0.2,0,0.3,0.1,0.5,0.2l0.2-0.2c-0.1-0.1-0.3-0.2-0.5-0.3
	v-0.3H4.5v0.3c-0.3,0-0.5,0.2-0.5,0.5c0,0.6,1,0.5,1,0.8c0,0.1-0.1,0.2-0.3,0.2c-0.2,0-0.4-0.1-0.6-0.2L3.9,12
	c0.2,0.1,0.4,0.2,0.6,0.2v0.4h0.2v-0.4C5.1,12.2,5.3,12,5.3,11.7z"/>
<path class="st0" d="M12.1,11.7c0-0.6-1-0.5-1-0.8c0-0.1,0.1-0.2,0.3-0.2c0.2,0,0.3,0.1,0.5,0.2l0.2-0.2c-0.1-0.1-0.3-0.2-0.5-0.3
	v-0.3h-0.2v0.3c-0.3,0-0.5,0.2-0.5,0.5c0,0.6,1,0.5,1,0.8c0,0.1-0.1,0.2-0.3,0.2c-0.2,0-0.4-0.1-0.6-0.2L10.7,12
	c0.2,0.1,0.4,0.2,0.6,0.2v0.4h0.2v-0.4C11.8,12.2,12.1,12,12.1,11.7z"/>
<path class="st1" d="M9.6,6.6L8.6,8.1L8.1,6.9l0.4-0.4H7.4l0.4,0.4L7.4,8.1L6.4,6.6C5.1,6.8,4.2,7.9,4.2,9.2v0
	c0,0.1,0.1,0.2,0.2,0.2h7.1c0.1,0,0.2-0.1,0.2-0.2v0C11.8,7.9,10.9,6.8,9.6,6.6z"/>
<path class="st1" d="M4.6,4.4c0,0.8-0.4,2.1-1.4,2.1S1.8,5.2,1.8,4.4S2.5,3,3.2,3S4.6,3.6,4.6,4.4z"/>
<path class="st1" d="M3.4,9.2c0-0.4,0.1-0.7,0.2-1.1L3.4,7.3l0.4-0.4h-1l0.4,0.4l-0.3,1L1.8,7C0.8,7.2,0,8.1,0,9.2
	c0,0.1,0.1,0.2,0.2,0.2h3.5C3.5,9.4,3.4,9.3,3.4,9.2z"/>
<path class="st1" d="M11.4,4.4c0,0.8,0.4,2.1,1.4,2.1s1.4-1.3,1.4-2.1S13.5,3,12.8,3S11.4,3.6,11.4,4.4z"/>
<path class="st1" d="M6.3,3.6C6.3,4.5,6.8,6,8,6s1.7-1.5,1.7-2.4S8.9,1.9,8,1.9S6.3,2.7,6.3,3.6z"/>
<path class="st1" d="M12.6,9.2c0-0.4-0.1-0.7-0.2-1.1l0.3-0.8l-0.4-0.4h1l-0.4,0.4l0.3,1L14.2,7C15.2,7.2,16,8.1,16,9.2
	c0,0.1-0.1,0.2-0.2,0.2h-3.5C12.5,9.4,12.6,9.3,12.6,9.2z"/>
</svg>
