<svg xmlns="http://www.w3.org/2000/svg" viewBox="0 0 16 16">
  <path
    fill="currentColor"
    d="M8,8.44a.69.69,0,0,0-.48,1.19v.78A.49.49,0,0,0,8,10.9a.48.48,0,0,0,.48-.49V9.62a.73.73,0,0,0,.21-.49A.7.7,0,0,0,8,8.44Z"
  />
  <path
    fill="currentColor"
    d="M8,0a8,8,0,1,0,8,8A8,8,0,0,0,8,0Zm.07,3.63a2.64,2.64,0,0,1,2.61,2.45h-1a1.63,1.63,0,0,0-3.23,0h-1A2.63,2.63,0,0,1,8.07,3.63Zm3.52,7.65a1.09,1.09,0,0,1-1.09,1.09h-5a1.09,1.09,0,0,1-1.09-1.09V7.77A1.09,1.09,0,0,1,5.5,6.67h5a1.09,1.09,0,0,1,1.09,1.1Z"
  />
</svg>
