<svg version="1.1" xmlns="http://www.w3.org/2000/svg" xmlns:xlink="http://www.w3.org/1999/xlink" x="0px"
  y="0px" viewBox="0 0 16 16" style="enable-background:new 0 0 16 16;" xml:space="preserve">
  <path fill="currentColor" d="M16,12.8v-2.4c0-0.2-0.1-0.3-0.3-0.3c-1-0.3-1.7-1.3-1.6-2.4c0.1-0.9,0.7-1.5,1.6-1.8c0.2,0,0.3-0.2,0.3-0.3V3.2
  c0-0.9-0.7-1.6-1.6-1.6H1.6C0.7,1.6,0,2.3,0,3.2v2.4c0,0.2,0.1,0.3,0.3,0.3c1,0.3,1.7,1.3,1.6,2.4c-0.1,0.9-0.7,1.5-1.6,1.8
  c-0.2,0-0.3,0.2-0.3,0.3v2.4c0,0.9,0.7,1.6,1.6,1.6h12.8C15.3,14.4,16,13.7,16,12.8L16,12.8z M5.6,6.9c-0.5,0-0.8-0.4-0.8-0.9
  c0-0.4,0.4-0.7,0.8-0.7h4.7c0.4,0,0.8,0.3,0.8,0.7c0,0.5-0.3,0.9-0.8,0.9H5.6z M10.4,10.7H5.6c-0.4,0-0.8-0.3-0.8-0.7
  c0-0.5,0.3-0.9,0.8-0.9h4.8c0.4,0,0.8,0.3,0.8,0.7C11.2,10.3,10.9,10.7,10.4,10.7L10.4,10.7z" />
</svg>
