<svg version="1.1" xmlns="http://www.w3.org/2000/svg" xmlns:xlink="http://www.w3.org/1999/xlink" x="0px" y="0px"
  viewBox="0 0 16 16" style="enable-background:new 0 0 16 16;" xml:space="preserve">
  <path fill="currentColor"
    d="M10.8,0c0.5,0,1,0.2,1.4,0.6l2.2,2.2C14.8,3.1,15,3.6,15,4.2V14c0,1.1-0.9,2-2,2H3c-1.1,0-2-0.9-2-2V2c0-1.1,0.9-2,2-2l0,0
  C3,0,10.8,0,10.8,0z M8.3,11H4.8C4.3,11,4,11.3,4,11.7c0,0.4,0.3,0.8,0.7,0.8c0,0,0,0,0,0h3.5c0.4,0,0.8-0.3,0.8-0.7
  C9,11.3,8.7,11,8.3,11C8.3,11,8.3,11,8.3,11z M11.3,7.5H4.8C4.3,7.5,4,7.8,4,8.2C4,8.7,4.3,9,4.8,9h6.5C11.7,9,12,8.7,12,8.2
  C12,7.8,11.7,7.5,11.3,7.5z M11.3,4H4.8C4.3,4,4,4.3,4,4.8c0,0.4,0.3,0.7,0.8,0.7h6.5c0.4,0,0.8-0.3,0.8-0.7C12,4.3,11.7,4,11.3,4z" />
</svg>
