<svg version="1.1" id="图层_1" xmlns="http://www.w3.org/2000/svg" xmlns:xlink="http://www.w3.org/1999/xlink" x="0px" y="0px"
	 viewBox="0 0 16 16" style="enable-background:new 0 0 16 16;" xml:space="preserve">
<g id="设置">
	<g id="账户与安全" transform="translate(-25.000000, -208.000000)">
		<g id="group" transform="translate(25.000000, 208.000000)">
			<path fill="currentColor" id="路径" d="M16,13.1c-0.3-1.4-1.1-2.6-2.3-3.4s-2.6-1-3.9-0.6c0.8,1,1.3,2.1,1.6,3.4c0.2,0.9,0,1.9-0.4,2.6h3.4
				c0.5,0,0.9-0.2,1.2-0.6C16,14.1,16.1,13.6,16,13.1L16,13.1z"/>
			<path fill="currentColor" id="路径_1_" d="M4.9,8C2.6,8,0.6,10,0,12.9c-0.1,0.5,0,1.1,0.3,1.5c0.3,0.4,0.7,0.7,1.2,0.7h6.8c0.5,0,0.9-0.3,1.2-0.7
				c0.3-0.4,0.4-1,0.3-1.5C9.2,10,7.2,8,4.9,8z"/>
			<path fill="currentColor" id="路径_2_" d="M11.6,8c1.5,0,2.7-1.2,2.7-2.7S13,2.7,11.6,2.7S8.9,3.9,8.9,5.3S10.1,8,11.6,8z"/>
			<path fill="currentColor" id="路径_3_" d="M4.9,7.1C6.6,7.1,8,5.7,8,4S6.6,0.9,4.9,0.9S1.8,2.3,1.8,4S3.2,7.1,4.9,7.1z"/>
		</g>
	</g>
</g>
</svg>
