<svg version="1.1" xmlns="http://www.w3.org/2000/svg" xmlns:xlink="http://www.w3.org/1999/xlink" x="0px"
	y="0px" viewBox="0 0 16 16" style="enable-background:new 0 0 16 16;" xml:space="preserve">
	<path fill="currentColor" d="M8.8,3.4L12.3,7l-8.8,9H0v-3.6C0,12.4,8.8,3.4,8.8,3.4z M9.8,2.4l2-2.1c0.4-0.4,1-0.4,1.4,0c0,0,0,0,0,0l2.1,2.2
	c0.4,0.4,0.4,1,0,1.4L13.3,6C13.3,6,9.8,2.4,9.8,2.4z M8.4,14H15c0.6,0,1,0.4,1,1s-0.4,1-1,1H7.4c-0.3,0-0.6-0.3-0.6-0.6
	c0-0.2,0.1-0.3,0.2-0.4l0.7-0.7C7.9,14.1,8.1,14,8.4,14L8.4,14z" />
</svg>
