<svg version="1.1"  xmlns="http://www.w3.org/2000/svg" xmlns:xlink="http://www.w3.org/1999/xlink" x="0px" y="0px"
  viewBox="0 0 16 16" style="enable-background:new 0 0 16 16;" xml:space="preserve">
  <path fill="currentColor" d="M13.4,5.3l-2.2,2.2c0,0.1,0,0.2,0,0.3c0,1.8-1.4,3.2-3.2,3.2H7.7l-1.4,1.4c0.6,0.1,1.2,0.2,1.8,0.2c3.6,0,6.2-2.9,8-4.8
    C15.2,7,14.3,6.1,13.4,5.3z M12.8,2.6L11.4,4C10.4,3.4,9.2,3.1,8,3.1c-2.9,0-5.2,1.8-8,4.8c1.2,1.4,2.5,2.6,3.9,3.6l-0.9,0.9l1,1
    l9.7-9.7L12.8,2.6z M4.8,7.9c0-1.8,1.4-3.2,3.1-3.2c0.8,0,1.5,0.3,2.1,0.7L9.1,6.3C8.8,6.1,8.4,6,8,6C7,6,6.1,6.8,6.1,7.8
    c0,0,0,0,0,0c0,0.4,0.1,0.8,0.3,1.2l-1,0.9C5,9.4,4.8,8.7,4.8,7.9L4.8,7.9z"/>
</svg>
