<svg version="1.1" id="图层_1" xmlns="http://www.w3.org/2000/svg" xmlns:xlink="http://www.w3.org/1999/xlink" x="0px" y="0px"
	 viewBox="0 0 16 16" style="enable-background:new 0 0 16 16;" xml:space="preserve">
<g>
	<path fill="currentColor" d="M15.4,2.2h-8C6.7,2.2,6,2.5,5.4,3L0.2,8.1c-0.4,0.4-0.1,1,0.4,1h3.5L8.4,5c0.1-0.1,0.3,0,0.3,0.1v1.6C8.6,6.9,8.8,7,8.9,7
		h3l-1.7,1.6c0,0,0,0,0,0l5.6-5.5C16.2,2.8,15.9,2.2,15.4,2.2z"/>
	<path fill="currentColor" d="M15.4,7h-3.5l-4.3,4.2c-0.1,0.1-0.3,0-0.3-0.1V9.5c0-0.2-0.1-0.3-0.3-0.3h-3l1.7-1.6c0,0,0,0,0,0L0.2,13
		c-0.4,0.4-0.1,1,0.4,1h8c0.8,0,1.5-0.3,2-0.8L15.8,8C16.2,7.7,15.9,7,15.4,7z"/>
</g>
</svg>
