<svg version="1.1" xmlns="http://www.w3.org/2000/svg" xmlns:xlink="http://www.w3.org/1999/xlink" x="0px"
	y="0px" viewBox="0 0 16 16" style="enable-background:new 0 0 16 16;" xml:space="preserve">
	<path fill="currentColor"
		d="M13.7,0h-11C2,0,1.4,0.6,1.4,1.3v13.7c0,0.4,0.5,0.6,0.8,0.4l0.9-0.9c0.2-0.2,0.5-0.2,0.7,0l1.4,1.3c0.2,0.2,0.4,0.2,0.6,0
	l2.1-1.5c0.2-0.1,0.4-0.1,0.5,0l2.1,1.5c0.2,0.1,0.4,0.1,0.6,0l1.4-1.3c0.2-0.2,0.5-0.2,0.7,0l0.9,0.8c0.3,0.3,0.8,0.1,0.8-0.4V1.3
	C15,0.6,14.4,0,13.7,0L13.7,0z M2.7,3.3c0-0.4,0.3-0.7,0.7-0.7h4.1c0.4,0,0.7,0.3,0.7,0.7C8.2,3.7,7.9,4,7.5,4H3.4
	C3,4,2.7,3.7,2.7,3.3z M9.6,6c0,0.4-0.3,0.7-0.7,0.7H3.4C3,6.7,2.7,6.4,2.7,6c0-0.4,0.3-0.7,0.7-0.7h5.5C9.2,5.3,9.6,5.7,9.6,6z" />
</svg>
