<svg version="1.1" xmlns="http://www.w3.org/2000/svg" xmlns:xlink="http://www.w3.org/1999/xlink" x="0px" y="0px"
  viewBox="0 0 16 16" style="enable-background:new 0 0 16 16;" xml:space="preserve">
  <path
    fill="currentColor"
    class="st0" d="M13.2,11.8V1.3c0-0.7-0.6-1.3-1.3-1.3H4.1C3.4,0,2.8,0.6,2.8,1.3v10.5H13.2L13.2,11.8z M2.8,12.5v2.1
  c0,0.8,0.6,1.4,1.4,1.4h7.6c0.8,0,1.4-0.6,1.4-1.5v-2.1H2.8z M8,14.3c-0.3,0-0.6-0.2-0.6-0.6c0-0.3,0.2-0.6,0.6-0.6
  c0.3,0,0.6,0.2,0.6,0.6C8.6,14.1,8.3,14.3,8,14.3z"
  />
</svg>
