<svg xmlns="http://www.w3.org/2000/svg" viewBox="0 0 16 10.68">
  <path
    d="M13.41,5.31,11.17,7.55a2.11,2.11,0,0,1,0,.35A3.19,3.19,0,0,1,8,11.1l-.35,0-1.41,1.4A7.5,7.5,0,0,0,8,12.69c3.57,0,6.2-2.87,8-4.75a20.76,20.76,0,0,0-2.59-2.63Zm-.64-2.65L11.45,4A7.34,7.34,0,0,0,8,3.11c-2.93,0-5.21,1.82-8,4.79a22.06,22.06,0,0,0,3.94,3.59l-.88.88,1,1,9.71-9.71Zm-8,5.24A3.18,3.18,0,0,1,10,5.43l-.94.93A1.82,1.82,0,0,0,8,6,1.85,1.85,0,0,0,6.12,7.85,1.88,1.88,0,0,0,6.47,9l-1,.95a3.14,3.14,0,0,1-.72-2Z"
    transform="translate(0 -2.66)" />
</svg>
