<?xml version="1.0" encoding="utf-8"?>
<!-- Generator: Adobe Illustrator 24.1.0, SVG Export Plug-In . SVG Version: 6.00 Build 0)  -->
<svg xmlns="http://www.w3.org/2000/svg" xmlns:xlink="http://www.w3.org/1999/xlink" x="0px"
	y="0px" viewBox="0 0 16 16" style="enable-background:new 0 0 16 16;" xml:space="preserve">
	<path d="M4.4,4.8c0,2,1.6,3.6,3.6,3.6s3.6-1.6,3.6-3.6S10,1.2,8,1.2c0,0,0,0,0,0l0,0C6,1.2,4.4,2.8,4.4,4.8z M11.2,8.4l-0.2,0
	c-0.1,0-0.2,0-0.4,0.1l-0.4,0.2C9.5,9,8.8,9.1,8,9.1C7.3,9.1,6.5,9,5.8,8.7C5.6,8.6,5.4,8.5,5.4,8.5C5.3,8.4,5.2,8.4,5,8.4H4.8
	C3.5,8.6,2.4,9.5,2,10.7c-0.3,0.7-0.5,1.5-0.4,2.3c0,0.2,0.1,0.4,0.4,0.5c1.9,1,4,1.4,6.1,1.3c4.1,0,6.1-1.3,6.1-1.3
	c0.2-0.1,0.3-0.3,0.4-0.6c0-0.8-0.2-1.5-0.4-2.2C13.6,9.5,12.5,8.6,11.2,8.4L11.2,8.4z" />
</svg>
