<svg xmlns="http://www.w3.org/2000/svg" viewBox="0 0 16 16">
  <path
    fill="currentColor"
    d="M5.94.56V1.79H4.44a1,1,0,0,0-1,1V13.15a1,1,0,0,0,1,.95h1.5v1.24a.61.61,0,0,0,.61.61h0a.61.61,0,0,0,.62-.61V14.1H8.41v1.24A.61.61,0,0,0,9,16H9a.61.61,0,0,0,.61-.61V14.1h.86a3.39,3.39,0,0,0,1.68-6.36A3.39,3.39,0,0,0,9.94,1.8h-.3V.56A.61.61,0,0,0,9,0H9a.6.6,0,0,0-.61.61V1.79H7.18V.56A.61.61,0,0,0,6.56,0h0A.61.61,0,0,0,5.94.56ZM5.17,3H9.89a2.18,2.18,0,0,1,2.2,2.1A2.15,2.15,0,0,1,9.93,7.34H4.71V3.47A.46.46,0,0,1,5.17,3ZM4.71,8.57h5.81a2.17,2.17,0,0,1,2.19,2.1,2.14,2.14,0,0,1-2.16,2.21H5.17a.45.45,0,0,1-.46-.45Z" />
  </svg>
