<svg version="1.1" xmlns="http://www.w3.org/2000/svg" xmlns:xlink="http://www.w3.org/1999/xlink" x="0px"
  y="0px" viewBox="0 0 16 16" style="enable-background:new 0 0 16 16;" xml:space="preserve">
  <circle fill="currentColor" cx="8" cy="8" r="8" />
  <path fill="inherit" class="st0" d="M12.5,4.4c-0.2-0.2-0.5-0.2-0.7,0l-5,5c0,0,0,0,0,0c-0.2,0.2-0.5,0.2-0.7,0l-2-2C4,7.2,3.7,7.2,3.5,7.4L2.8,8.2
  c-0.2,0.2-0.2,0.5,0,0.7l3.3,3.3c0.2,0.2,0.6,0.2,0.8,0l6.3-6.3c0.2-0.2,0.2-0.5,0-0.7L12.5,4.4z" />
</svg>
