<svg version="1.1" xmlns="http://www.w3.org/2000/svg" xmlns:xlink="http://www.w3.org/1999/xlink" x="0px" y="0px"
	 viewBox="0 0 16 16" style="enable-background:new 0 0 16 16;" xml:space="preserve">
<path fill="currentColor" d="M8,7.1c0.2,0,0.4,0.1,0.6,0.3l7.1,7c0.4,0.4,0.4,0.9,0,1.1c-0.4,0.4-0.9,0.4-1.2,0L8,9.1l-6.6,6.4c-0.4,0.4-0.9,0.4-1.2,0
	s-0.4-0.9,0-1.1l7.1-7C7.6,7.2,7.8,7.1,8,7.1z"/>
<path fill="currentColor" d="M8,0.2c0.2,0,0.4,0.1,0.6,0.3l7.1,7c0.4,0.4,0.4,0.9,0,1.1c-0.4,0.4-0.9,0.4-1.2,0L8,2.2L1.4,8.7C1.1,9,0.6,9,0.3,8.7
	s-0.4-0.9,0-1.1l7.1-7C7.6,0.3,7.8,0.2,8,0.2z"/>
</svg>
