<svg version="1.1" xmlns="http://www.w3.org/2000/svg" xmlns:xlink="http://www.w3.org/1999/xlink" x="0px" y="0px"
	 viewBox="0 0 16 16" style="enable-background:new 0 0 16 16;" xml:space="preserve">
<path fill="currentColor" d="M7.4,8.7l-7.1-7c-0.4-0.3-0.3-0.8,0-1.1s0.8-0.4,1.2,0L8,6.9l6.6-6.4c0.3-0.4,0.8-0.4,1.2,0c0.4,0.3,0.4,0.8,0,1.1l-7.1,7
	C8.4,8.9,8.2,8.9,8,8.9C7.8,8.9,7.6,8.8,7.4,8.7z"/>
<path fill="currentColor" d="M7.4,15.5l-7.1-7c-0.4-0.3-0.3-0.8,0-1.1s0.8-0.4,1.2,0L8,13.8l6.6-6.4c0.3-0.4,0.8-0.4,1.2,0c0.4,0.3,0.4,0.8,0,1.1l-7.1,7
	c-0.2,0.2-0.4,0.3-0.6,0.3C7.8,15.8,7.6,15.7,7.4,15.5z"/>
</svg>
