<svg version="1.1" xmlns="http://www.w3.org/2000/svg" xmlns:xlink="http://www.w3.org/1999/xlink" x="0px" y="0px"
	viewBox="0 0 16 16" style="enable-background:new 0 0 16 16;" xml:space="preserve">
	<path fill="currentColor" d="M7.4,15.8L5,13.4c-0.4-0.3-0.4-0.8-0.1-1.2c0.3-0.4,0.8-0.4,1.2-0.1c0,0,0.1,0.1,0.1,0.1l0.9,0.9v-2.6
	c0-0.5,0.4-0.8,0.8-0.9c0.5,0,0.8,0.4,0.9,0.8v2.6l1-0.9c0.3-0.3,0.9-0.3,1.2,0c0.3,0.3,0.3,0.9,0,1.2l-2.4,2.4
	C8.4,15.9,8.2,16,8,16C7.8,16,7.6,15.9,7.4,15.8L7.4,15.8z M12.2,11c-0.3-0.3-0.3-0.9,0-1.2l0.9-0.9h-2.6c-0.5,0-0.8-0.5-0.8-0.9
	c0-0.4,0.4-0.7,0.8-0.8h2.6l-0.9-1c-0.4-0.3-0.4-0.8-0.1-1.2c0.3-0.4,0.8-0.4,1.2-0.1c0,0,0.1,0.1,0.1,0.1l2.4,2.4
	c0.3,0.3,0.3,0.9,0,1.2L13.4,11C13,11.3,12.5,11.3,12.2,11C12.2,11,12.2,11,12.2,11L12.2,11z M2.7,11L0.2,8.6
	c-0.3-0.3-0.3-0.9,0-1.2L2.7,5c0.3-0.4,0.8-0.5,1.2-0.2S4.3,5.6,4,6C4,6.1,3.9,6.1,3.8,6.2L2.9,7.2h2.6c0.5,0,0.8,0.5,0.8,0.9
	c0,0.4-0.4,0.7-0.8,0.8H2.9l0.9,0.9C4.2,10,4.3,10.6,4.1,11c-0.3,0.4-0.8,0.5-1.2,0.2C2.8,11.1,2.7,11.1,2.7,11z M7.2,5.5V2.9
	L6.2,3.8C5.9,4.2,5.3,4.2,5,3.8C4.7,3.5,4.7,3,5,2.7l2.4-2.4C7.6,0.1,7.8,0,8,0c0.2,0,0.4,0.1,0.6,0.2L11,2.7
	c0.4,0.3,0.4,0.8,0.1,1.2C10.8,4.2,10.2,4.3,9.9,4c0,0-0.1-0.1-0.1-0.1l-0.9-1v2.6c0,0.5-0.4,0.8-0.9,0.8C7.5,6.2,7.2,5.9,7.2,5.5
	C7.2,5.5,7.2,5.5,7.2,5.5z" />
</svg>
