<svg xmlns="http://www.w3.org/2000/svg" viewBox="0 0 16 16">
  <circle fill="currentColor" cx="8" cy="8" r="8" />
  <path
    fill="inherit"
    d="M10.34,4.08H5.66A.68.68,0,0,0,5,4.75v6.5a.68.68,0,0,0,.68.67H8.41a.35.35,0,0,0,.36-.34l0-1a.72.72,0,0,1,.72-.71h1.15A.36.36,0,0,0,11,9.49V4.75A.68.68,0,0,0,10.34,4.08ZM9.86,6.69H6.14a.26.26,0,1,1,0-.51H9.86a.26.26,0,1,1,0,.51Zm0-1.08H6.14a.26.26,0,1,1,0-.51H9.86a.26.26,0,1,1,0,.51Z" />
  <path
    fill="inherit"
    d="M9.18,10.82v.8a.3.3,0,0,0,.51.22l1.13-1.13a.3.3,0,0,0-.22-.51H9.8A.62.62,0,0,0,9.18,10.82Z" />
</svg>
