<svg version="1.1" xmlns="http://www.w3.org/2000/svg" xmlns:xlink="http://www.w3.org/1999/xlink" x="0px" y="0px"
  viewBox="0 0 16 16" style="enable-background:new 0 0 16 16;" xml:space="preserve">
  <path fill="currentColor" d="M14.4,6.1c0-0.1-0.2-0.3-0.6-0.3c0,0,0,0,0,0l-4,0l1-4.8c0,0,0,0,0,0c0-0.3,0-0.5-0.2-0.7C10.5,0.1,10.3,0,10.1,0
  C9.8,0,9.6,0.1,9.5,0.1c-0.1,0-0.1,0.1-0.1,0.1L1.7,8.8c0,0,0,0,0,0C1.5,9,1.5,9.2,1.6,9.5c0.1,0.1,0.3,0.3,0.7,0.3c0,0,0,0,0.1,0
  l3.5,0l-2,5.4c0,0,0,0.1,0,0.1c0,0.1,0,0.3,0.2,0.6C4.2,15.9,4.4,16,4.6,16c0.1,0,0.3,0,0.4-0.1c0.1,0,0.1-0.1,0.2-0.1l9-8.9
  c0,0,0,0,0.1-0.1C14.4,6.7,14.6,6.4,14.4,6.1L14.4,6.1z" />
</svg>
