<svg version="1.1" xmlns="http://www.w3.org/2000/svg" xmlns:xlink="http://www.w3.org/1999/xlink" x="0px"
	y="0px" viewBox="0 0 200 200" style="enable-background:new 0 0 200 200;" xml:space="preserve">
	<path fill="currentColor" d="M93.8,23.9c0-4.3-3.8-7.7-8.1-7.2C37.9,21.8,1.4,61.1,2.8,107.6c0,0.1,0,0.3,0,0.4c-1.2,49.5,39.8,90.6,91.8,91.9
	c43.9-0.9,80.7-30.6,89.5-70.7c1.1-5-2.6-9.7-7.7-9.7h-74.4c-4.5,0-8.2-3.7-8.2-8.2V23.9z M111.1,91.1c0,4,3.2,7.2,7.2,7.2h71.8
	c4,0,7.2-3.2,7.2-7.2c0.3-44.8-34.1-86.4-78.7-90.7c-4-0.4-7.6,2.8-7.6,6.8V91.1z" />
</svg>
