<svg version="1.1" xmlns="http://www.w3.org/2000/svg" xmlns:xlink="http://www.w3.org/1999/xlink" x="0px" y="0px"
	 viewBox="0 0 16 16" style="enable-background:new 0 0 16 16;" xml:space="preserve">
<g>
	<g transform="translate(-134.000000, -716.000000)">
		<g id="share" transform="translate(134.000000, 716.000000)">
			<path fill="currentColor" d="M13.3,10.7c-0.8,0-1.5,0.3-2,0.9l-6.1-3c0.1-0.4,0.1-0.7,0-1.1l5.4-2.7c0.9,1.2,2.5,1.5,3.7,0.8s1.9-2.2,1.4-3.6
				c-0.5-1.4-1.9-2.2-3.3-2S10.1,1.5,10.1,3c0,0.2,0,0.4,0.1,0.5L4.7,6.2C3.9,5.4,2.8,5.1,1.7,5.5C0.7,5.9,0,6.9,0,8
				s0.7,2.1,1.7,2.5c1,0.4,2.2,0.1,2.9-0.7l6.1,3c0,0.2-0.1,0.4-0.1,0.5c0,1.5,1.2,2.7,2.7,2.7s2.7-1.2,2.7-2.7S14.8,10.7,13.3,10.7
				L13.3,10.7z"/>
		</g>
	</g>
</g>
</svg>
