<svg xmlns="http://www.w3.org/2000/svg" viewBox="0 0 16 16">
  <circle fill="inherit"  cx="8" cy="8" r="8" />
  <path fill="currentColor" class="cls-1"
    d="M9.18,7.09l0,0a.33.33,0,0,0,.23.09H12a.36.36,0,1,0,0-.72H10.23L12.41,4.1a.37.37,0,0,0,0-.51h0a.37.37,0,0,0-.51,0L9.79,5.9V4.23a.37.37,0,0,0-.37-.36.36.36,0,0,0-.36.36v2.6a.35.35,0,0,0,.12.26ZM5.77,6.48H4a.36.36,0,0,0-.36.36A.35.35,0,0,0,4,7.19H6.57a.31.31,0,0,0,.25-.1.38.38,0,0,0,.12-.27V4.23a.36.36,0,0,0-.36-.36.36.36,0,0,0-.36.36h0V5.9L4.12,3.62a.35.35,0,1,0-.53.47h0L5.77,6.48Zm1.32,2.7a.37.37,0,0,0-.26-.12H4.23a.36.36,0,0,0-.36.36.36.36,0,0,0,.36.36H5.9l-2.29,2.1a.37.37,0,0,0,0,.51.36.36,0,0,0,.5,0h0l2.38-2.18V12a.36.36,0,0,0,.72,0h0V9.43a.33.33,0,0,0-.09-.23l0,0Zm5.3,2.7L10.1,9.79h1.67a.37.37,0,0,0,.36-.37.36.36,0,0,0-.36-.36H9.17a.35.35,0,0,0-.28.14.33.33,0,0,0-.09.23V12a.36.36,0,0,0,.36.36A.36.36,0,0,0,9.52,12h0V10.23l2.38,2.18a.36.36,0,0,0,.49-.53Z" />
</svg>
