<svg version="1.1" xmlns="http://www.w3.org/2000/svg" xmlns:xlink="http://www.w3.org/1999/xlink" x="0px" y="0px"
	 viewBox="0 0 16 16" style="enable-background:new 0 0 16 16;" xml:space="preserve">
<g>
	<g transform="translate(-65.000000, -564.000000)">
		<g transform="translate(65.000000, 564.000000)">
			<g>
				<path fill="currentColor" d="M3.9,11.3h3.2c0.2,0,0.4,0.2,0.4,0.4c0,0.2-0.2,0.4-0.4,0.4H3.5c-0.4,0-0.7-0.3-0.7-0.7V3.4
					c0-0.4,0.3-0.7,0.7-0.7h6.9c0.4,0,0.7,0.3,0.7,0.7v3.1c0,0.2-0.2,0.4-0.4,0.4s-0.4-0.2-0.4-0.4V3.8c0-0.2-0.1-0.3-0.3-0.3h-6
					c-0.2,0-0.3,0.1-0.3,0.3v7.2C3.7,11.2,3.8,11.3,3.9,11.3L3.9,11.3z M13.3,6.8c-0.3,0-0.6-0.3-0.6-0.6V1.6c0-0.2-0.2-0.4-0.4-0.4
					H1.6c-0.2,0-0.4,0.2-0.4,0.4v11.9c0,0.2,0.2,0.4,0.4,0.4H7c0.3,0,0.6,0.3,0.6,0.6c0,0.3-0.3,0.6-0.6,0.6H1c-0.6,0-1-0.4-1-1V1
					c0-0.6,0.4-1,1-1h11.9c0.6,0,1,0.4,1,1v5.2C13.9,6.6,13.6,6.8,13.3,6.8z"/>
			</g>
			<g transform="translate(10.000000, 10.000000)">
				<path fill="currentColor" d="M2.4-1.1c-2,0-3.6,1.6-3.6,3.6S0.5,6,2.4,6S6,4.4,6,2.4S4.4-1.1,2.4-1.1z M5.1,2.4C5.1,3,4.9,3.6,4.6,4
					L0.9,0.3c0.4-0.3,1-0.5,1.6-0.5C3.9-0.2,5.1,1,5.1,2.4z M-0.2,2.4c0-0.6,0.2-1.1,0.5-1.6L4,4.6C3.6,4.9,3,5.1,2.4,5.1
					C1,5.1-0.2,3.9-0.2,2.4z"/>
			</g>
		</g>
	</g>
</g>
</svg>
