<svg xmlns="http://www.w3.org/2000/svg" viewBox="0 0 16 16">
  <path fill="currentColor" d="M8,1A7,7,0,1,1,1,8,7,7,0,0,1,8,1M8,0a8,8,0,1,0,8,8A8,8,0,0,0,8,0Z" />
  <path
    fill="currentColor"
    d="M12.12,3.5a.36.36,0,0,1,.37.36v3a.38.38,0,0,1-.75,0V4.77L9.42,7.17a.49.49,0,0,1-.3.07.46.46,0,0,1-.3-.07.78.78,0,0,1,0-.6l2.4-2.32H9.12a.36.36,0,0,1-.38-.38.35.35,0,0,1,.38-.37ZM7.17,8.82c-.15-.08-.45-.15-.6,0L4.25,11.21V9.12a.36.36,0,0,0-.38-.38.35.35,0,0,0-.37.38v3a.37.37,0,0,0,.36.37h3a.38.38,0,0,0,0-.75H4.77l2.4-2.32a.88.88,0,0,0,0-.6Zm.07-4.95a.35.35,0,0,0-.37-.37h-3a.36.36,0,0,0-.36.36v3a.35.35,0,0,0,.37.37.35.35,0,0,0,.38-.37V4.77L6.57,7.09a.3.3,0,0,0,.3.15.49.49,0,0,0,.3-.07.88.88,0,0,0,0-.6L4.77,4.25h2.1A.35.35,0,0,0,7.24,3.87Zm4.87,4.87a.35.35,0,0,0-.37.38v2.09L9.42,8.89a.46.46,0,0,0-.6,0,.62.62,0,0,0,0,.53l2.32,2.32h-2a.38.38,0,1,0,0,.75h3a.37.37,0,0,0,.37-.37v-3A.36.36,0,0,0,12.11,8.74Z" />
  </svg>
