<?xml version="1.0" encoding="utf-8"?>
<!-- Generator: Adobe Illustrator 24.1.0, SVG Export Plug-In . SVG Version: 6.00 Build 0)  -->
<svg version="1.1" id="图层_1" xmlns="http://www.w3.org/2000/svg" xmlns:xlink="http://www.w3.org/1999/xlink" x="0px" y="0px"
	 viewBox="0 0 16 16" style="enable-background:new 0 0 16 16;" xml:space="preserve">
<style type="text/css">
	.st0{fill:#285A83;}
	.st1{fill:#EF6F53;}
</style>
<g>
	<path class="st0" d="M13.6,0H2.4C1.5,0,0.8,0.7,0.8,1.5v8.8c0,0.7,0.4,1.4,1,1.8l5.6,3.7c0.4,0.3,1,0.3,1.4,0l5.6-3.7
		c0.6-0.4,1-1.1,1-1.8V1.5C15.2,0.7,14.5,0,13.6,0z M2.4,1h11.2c0.4,0,0.7,0.3,0.7,0.6v1.2H1.7V1.5C1.7,1.2,2,1,2.4,1z M13.7,11.3
		l-5.2,3.5c-0.3,0.2-0.7,0.2-1,0l-5.2-3.5c-0.3-0.2-0.6-0.6-0.6-1V3.7h12.5v6.6C14.3,10.7,14.1,11,13.7,11.3z"/>
	<path class="st1" d="M8.7,8.1H7.2c-0.4,0-0.7-0.3-0.7-0.6V7.4c0-0.3,0.3-0.6,0.7-0.6h2.6c0.3,0,0.5-0.2,0.5-0.5
		c0-0.3-0.2-0.5-0.5-0.5H8.5V5.2c0-0.3-0.2-0.5-0.5-0.5S7.5,4.9,7.5,5.2v0.6H7.2c-0.9,0-1.6,0.7-1.6,1.6v0.1C5.6,8.3,6.3,9,7.2,9
		h1.4C9,9,9.4,9.3,9.4,9.6S9,10.2,8.7,10.2H6.1c-0.3,0-0.5,0.2-0.5,0.5s0.2,0.5,0.5,0.5h1.5v0.7c0,0.3,0.2,0.5,0.5,0.5
		s0.5-0.2,0.5-0.5v-0.7h0.2c0.9,0,1.6-0.7,1.6-1.6C10.3,8.8,9.6,8.1,8.7,8.1z"/>
</g>
</svg>
