<?xml version="1.0" encoding="utf-8"?>
<!-- Generator: Adobe Illustrator 24.1.0, SVG Export Plug-In . SVG Version: 6.00 Build 0)  -->
<svg version="1.1" id="Layer_1" xmlns="http://www.w3.org/2000/svg" xmlns:xlink="http://www.w3.org/1999/xlink" x="0px" y="0px"
	 viewBox="0 0 386.4 290.9" style="enable-background:new 0 0 386.4 290.9;" xml:space="preserve">
<style type="text/css">
	.st0{opacity:0.18;fill:#C7C7C7;enable-background:new    ;}
	.st1{opacity:0.14;fill:#020202;enable-background:new    ;}
	.st2{fill:#C7C7C7;}
	.st3{fill:url(#SVGID_1_);}
	.st4{fill:url(#SVGID_2_);}
	.st5{fill:#FFFFFF;}
	.st6{opacity:0.18;fill:#FFFFFF;enable-background:new    ;}
	.st7{fill:#473F47;}
	.st8{fill:#FCA89E;}
	.st9{fill:#D0D0D0;}
</style>
<path class="st0" d="M156.7,5.2c-7.5,2.3-14.6,5.7-21.2,10c-12.3,8.3-21.8,20-32.6,30.2C85.3,62,64.2,74.4,45.2,89.5
	s-36.4,34-42.3,57.4C-8.5,192,14.6,255.5,54.8,280.4c24.6,15.2,56.7,12.1,83.9,1.9s51.5-26.6,78.2-37.7c5.4-2.2,11.1-4.3,16.9-3.7
	s10.8,3.6,16,6c16.8,7.8,35.8,9.8,53.9,5.6c10.6-2.6,20.6-7,29.8-12.9c32.1-20.3,54.2-57.2,53-95.2S358.5,69.6,321.7,60
	c-12.3-3.2-25.2-3.5-37.5-6.8c-16.3,0-31.7-24.2-41.3-34.4C238,13.7,233,8.5,226.7,5.2c-7.3-3.8-15.7-4.7-23.9-5
	C187.3-0.5,171.3,0.6,156.7,5.2z"/>
<path class="st1" d="M153.1,246.5c-4.5,4.6-11.9,4.1-18,6.4l1.2,1.5c-0.4,1.1-1.9,1.3-3.1,1.2c-12.7-0.3-25.8,0.3-38.4-1.1
	c2.4-3,6.2-3.2,9.6-3.9c5.3-0.9,10.5-2.3,15.9-3.1C131.2,246,142.2,245.6,153.1,246.5z"/>
<polygon class="st2" points="224.9,222.6 141.1,222.6 150.1,193.5 213.6,193.5 "/>
<polygon class="st1" points="147.8,200.9 221,212.6 213.6,193.5 150.1,193.5 "/>
<path class="st2" d="M92,73.1h191.6c7.1,0,12.8,5.7,12.8,12.8v96.9c0,7.1-5.7,12.8-12.8,12.8H92c-7.1,0-12.8-5.7-12.8-12.8V85.9
	C79.2,78.8,84.9,73.1,92,73.1z"/>
<linearGradient id="SVGID_1_" gradientUnits="userSpaceOnUse" x1="203.6481" y1="338.1155" x2="193.7682" y2="695.1956" gradientTransform="matrix(1 0 0 1 -13.88 -274.1256)">
	<stop  offset="0" style="stop-color:#FFFFFF;stop-opacity:0"/>
	<stop  offset="0.54" style="stop-color:#FFFFFF"/>
</linearGradient>
<path class="st3" d="M92,73.3h191.6c7.1,0,12.8,5.7,12.8,12.8V183c0,7.1-5.7,12.8-12.8,12.8H92c-7.1,0-12.8-5.7-12.8-12.8V86.2
	C79.2,79.1,84.9,73.3,92,73.3z"/>
<path class="st2" d="M296.4,181.3v1.4c0,7.1-5.7,12.8-13.3,17.5H91.5c-6.6-4.7-12.3-10.4-12.3-17.5v-1.4H296.4z"/>
<rect x="132.6" y="219.6" class="st2" width="102" height="3"/>
<linearGradient id="SVGID_2_" gradientUnits="userSpaceOnUse" x1="10.0967" y1="323.5198" x2="288.3767" y2="539.4298" gradientTransform="matrix(1 0 0 1 -13.88 -274.1256)">
	<stop  offset="1.000000e-02" style="stop-color:#000000"/>
	<stop  offset="8.000000e-02" style="stop-color:#000000;stop-opacity:0.69"/>
	<stop  offset="0.21" style="stop-color:#000000;stop-opacity:0.32"/>
	<stop  offset="1" style="stop-color:#000000;stop-opacity:0"/>
</linearGradient>
<path class="st4" d="M79.3,159.6h25.8c3.6-0.1,6.5-3,6.4-6.6c0,0,0,0,0,0l0,0V96.4c0.1-3.6-2.8-6.6-6.4-6.6c0,0,0,0,0,0H79.3V159.6z
	"/>
<path class="st5" d="M46.3,89.8h54.8c3.2,0,5.8,2.6,5.8,5.8v53.7c0,3.2-2.6,5.9-5.8,5.9H46.3c-3.2,0-5.8-2.6-5.8-5.9V95.6
	C40.5,92.4,43.1,89.8,46.3,89.8z"/>
<circle class="st6" cx="147" cy="120.1" r="19.5"/>
<circle class="st6" cx="262.8" cy="120.1" r="19.5"/>
<path class="st5" d="M145.8,134.6V131c-1.9,0-3.8-0.5-5.4-1.5l0.8-2.4c1.5,1,3.2,1.5,5,1.5c2.5,0,4.2-1.4,4.2-3.4s-1.4-3.1-4-4.2
	c-3.6-1.4-5.8-3-5.8-6.1c0-2.9,2.1-5.1,5.3-5.7v-3.5h2.2v3.4c1.6,0,3.2,0.4,4.6,1.2l-0.9,2.4c-1.3-0.8-2.9-1.2-4.4-1.2
	c-2.7,0-3.7,1.6-3.7,3c0,1.8,1.3,2.7,4.4,4c3.6,1.5,5.4,3.3,5.5,6.4c0,2.8-1.9,5.4-5.5,6v3.6L145.8,134.6z"/>
<circle class="st5" cx="147.2" cy="151.2" r="4"/>
<circle class="st5" cx="204.6" cy="151.2" r="4"/>
<circle class="st5" cx="262.8" cy="151.6" r="4"/>
<rect x="147.8" y="150.2" class="st5" width="113.5" height="1.4"/>
<g id="n5jV8V">
	<path class="st5" d="M262.5,133.2c-0.4,0-0.8-0.1-1.1-0.2c-2.5-0.5-4.7-1.9-6.2-3.8c-1-1.2-1.8-2.5-2.3-4c-0.1-0.2-0.1-0.3-0.4-0.3
		h-3.8v-3.7h3.3v-1.8h-3.4v-3.8h3.8c0.2,0,0.3-0.1,0.4-0.3c0.9-2.6,2.6-4.9,4.9-6.4c1.4-0.9,2.9-1.5,4.5-1.6h1.6l1.3,0.2
		c1.7,0.3,3.3,1.1,4.6,2.3c1.3,1.1,2.4,2.5,3.1,4l0.1,0.2l-3.4,1.6c-0.2-0.3-0.3-0.6-0.5-0.9c-0.9-1.5-2.3-2.7-3.9-3.3
		c-1.4-0.5-3-0.5-4.4,0.2c-1.7,0.8-3.1,2.2-3.8,3.9v0.1h8.5v3.8h-9.5v1.8h9.5v3.8h-8.5c0.4,0.8,0.9,1.5,1.5,2.2c0.9,1,2,1.7,3.3,2.1
		c1.9,0.5,4,0.1,5.5-1.2c1-0.8,1.8-1.8,2.4-2.9c0-0.1,0.1-0.1,0.1-0.2l3.4,1.6c-0.4,0.6-0.7,1.2-1,1.7c-0.8,1.2-1.8,2.2-2.9,3
		c-1.5,1-3.2,1.6-4.9,1.7h-0.3L262.5,133.2z"/>
</g>
<path class="st7" d="M97.6,248.5c0.6,0.8,1.4,1.5,2.3,2.1c1.1,0.6,2.9,0.9,3.5,1.5c0.5,0.5,1.7,2.5-2.9,2.5s-6.9,0.3-7.4-0.5
	s0.7-5.8,0.7-5.8C95.1,248.5,96.3,248.6,97.6,248.5z"/>
<path class="st7" d="M122.9,248.5c0.6,0.8,1.4,1.5,2.3,2.1c1.1,0.6,5.2,1.2,5.9,1.8c0.5,0.5,1.3,2.4-5.3,2.2
	c-4.6-0.1-6.9,0.3-7.4-0.5s0.7-5.8,0.7-5.8C120.4,248.5,121.6,248.5,122.9,248.5z"/>
<path class="st7" d="M96.8,185.6c-0.4,4.4-0.5,8.9-0.5,13.3c0.3,4.7,0.2,9.4-0.3,14.1c-0.6,5.9-2.8,19.7-2.9,22.8s0.3,13.1,0.3,13.1
	l4.5,0.1c0,0,3.8-24.2,4.8-26.7s10-29.6,10.1-31.6S96.8,185.6,96.8,185.6z"/>
<path class="st7" d="M119.8,186c0,0,0.9,15.3,1.2,18.3s0.6,14.9,0.7,16.8s1.1,25.1,2,28h-5.1c0,0-5.2-16.9-5.2-24.9
	s-3.4-17.4-5.7-22.6s-7.3-5.4-8.7-15.2C99.1,186.4,118,182.9,119.8,186z"/>
<path class="st8" d="M113.5,144.3c-0.5,0.6-1.1,1.2-1.8,1.6c-0.3,0.9-0.3,1.9,0,2.9c0.6,1.2-7.3,0.5-7.3,0.5
	c0.2-1.5-0.1-3.1-0.7-4.5c-3.2-4.1-3.9-6.4-1.7-10.1c0.4-0.7,1-1.3,1.7-1.8c1.5-1,3.4-1.2,5.2-0.7c0.9,0.3,1.7,0.8,2.4,1.5
	c0.3,0.3,0.5,0.7,0.7,1.2c0.2,0.6,0.5,1.2,0.9,1.7c0.1,0.2,0.2,0.3,0.3,0.4c0.3,0.3,0.8,0.4,1.1,0.8c0.2,0.4,0.2,0.9,0.1,1.3
	c-0.2,0.4-0.4,0.8-0.4,1.3C113.7,141.5,114.3,143.2,113.5,144.3z"/>
<path class="st8" d="M137.8,131.6c-0.2,1.6-0.7,3.2-1.3,4.6c-0.6,1.3-1,2.7-1.3,4.2c-0.1,1.2-0.2,2.4-0.4,3.6
	c-0.3,1.5-1.2,4.9-1.6,5.4c-2.8,2.2-5.9,4-9.2,5.2c-2.6,0.9-5.2,2.1-7.6,3.5c-0.3,0.2-1.4,0-1.8,0h-9.9c-1.6-0.2-3.1-1.1-4-2.5
	c-0.8-1.1-0.9-2.6-0.2-3.7c0.4-0.4,0.8-0.7,1.3-1c1.3-0.8,3.4-2.3,5-2.2l6,0.4c0,0,2.9,0.3,3.7,0.5s6.4-1,7.6-1.1
	c1.7-0.2,3.6-1.9,4.9-2.8c2.1-1.5,2.8-5.4,3.4-7.8c0.5-1.6,0.5-3.2,0-4.8c-0.5-1.1-1.5-2.1-1.2-3.3c0.5-0.1,1,0.1,1.4,0.4
	c1-0.9,0-2.8,1-3.8c0.7-0.7,1.9-0.2,2.6,0.5c1.1,1.3,1.6,2.9,1.5,4.6C137.8,131.5,137.8,131.6,137.8,131.6z"/>
<path class="st2" d="M136.2,138.3c-0.1,0.9-0.1,1.8-0.3,2.8c-0.1,0.6-0.2,1.3-0.3,1.9c-0.2,0.6-0.4,1.2-0.5,1.9
	c-0.4,1.7-0.3,3.6-1.2,5c-0.3,0.5-0.7,1-1.1,1.4c-0.2,0.2-0.4,0.4-0.7,0.6c-0.3,0.1-0.5,0.2-0.8,0.3c-0.6,0.3-1.2,0.6-1.7,0.9
	l-1.9,1c-1.4,0.7-2.9,1.3-4.4,2.1c-0.6,0.4-1.2,0.8-1.7,1.3c-1.6,1.6-2,3.6-1.9,6.2c0.2,6.7,0.3,13.4,0.5,20.1c0.1,0.5,0,1-0.3,1.4
	c-0.1,0.1-0.3,0.3-0.5,0.3c-0.3,0.1-0.7,0.2-1,0.2c-6.5,0.6-13,0.6-19.5,0.1c-3.6-0.3-2-1.4-3.8-3.9c-1.3-1.8-3.3-2.9-5.2-3.9
	c-2.8-1.5-5.8-3.4-6.6-6.4c-0.8-3.3,1.5-6.4,3.6-9l7.9-9.8c2.2-2.8,3.7-2.7,6.9-3.2c0.3,0,4.5-0.5,4.5-0.8c0,0,0.8,1,4.7-0.2
	c0,0,4.7,0.5,5.4,0.6c2.1,0.2,4.3-0.1,6.3-0.9c2-0.7,3.8-1.8,5.1-3.4c1.7-2.5,3-5.3,3.8-8.2c0.1-0.3,0.2-0.6,0.5-0.8
	c0.3-0.1,0.6,0,0.8,0.2l2.9,1.6l0.2,0.1c0.1,0,0.1,0.1,0.1,0.2C136.2,138,136.2,138.2,136.2,138.3z"/>
<path class="st7" d="M111.9,134.9c-0.3-0.2-0.6-0.4-0.9-0.5c0.2,1.1-0.1,2.2-0.7,3.1c-0.6,0.9-1,1.9-1.1,3c-0.1-0.4-0.4-0.6-0.8-0.5
	c0,0,0,0,0,0c-0.1,0-0.2,0-0.2,0.1c-0.4,0.2-0.6,0.6-0.6,1.1c0,0.4,0.1,0.8,0.3,1.2c0.4,0.6,1.1,0.9,1.8,0.6c-0.5-0.2-1,0.3-1.2,0.8
	c-0.1,0.5-0.1,1.1,0,1.6c0,0.7-0.2,1.5-0.6,2.1l-0.6-0.6c-0.1,0.2-0.2,0.5-0.3,0.8c-0.1,0.3-0.3,0.6-0.6,0.5c-0.1,0-0.2-0.1-0.3-0.1
	s-0.3,0.2-0.4,0.4c-0.3,0.4-1,0.3-1.3-0.1c-0.3-0.4-0.5-0.9-0.6-1.4c-0.2-0.5-0.6-0.9-1.1-0.9c-0.1,0-0.3,0-0.4,0
	c-0.1-0.1-0.2-0.2-0.3-0.3c-0.6-1.3-1.3-2.5-2.1-3.6c-0.7-0.9-1.3-1.9-1.8-2.9c-1.6-3.5-0.1-7.7,3.4-9.3c0,0,0.1,0,0.1,0
	c0.5-0.2,1-0.4,1.6-0.5c1-0.2,2-0.2,3-0.3c0.7-0.1,1.5-0.6,2.2-0.5c1.4,0.2,2.6,2.5,3,3.7c0.1,0.4,0.2,0.9,0.3,1.4
	C111.8,134,111.9,134.5,111.9,134.9z"/>
<path class="st1" d="M96,160.2c-2.5,1.9-4.2,4.6-5.9,7.3c-0.7,1-1.2,2.1-1.6,3.2c-0.4,1.1-0.3,2.4,0.2,3.4c0.1,0.1,0.2,0.2,0.3,0.3
	c0.2,0,0.3,0,0.5-0.1l1.5-0.6l4.1,7.4c0.2-3.2,0.2-6.5,0.4-9.8c0.1-1.9,0.2-3.8,0.2-5.7C95.9,165,95.5,160.5,96,160.2z"/>
<path class="st1" d="M136.2,138.3c-0.1,0.9-0.1,1.8-0.3,2.8c-0.1,0.6-0.2,1.3-0.3,1.9c-0.2,0.6-0.4,1.2-0.5,1.9
	c-0.4,1.7-0.3,3.6-1.2,5c-0.3,0.5-0.7,1-1.1,1.4c-0.2,0.2-0.4,0.4-0.7,0.6c-0.3,0.1-0.5,0.2-0.8,0.3c-0.6,0.3-1.2,0.6-1.7,0.9
	l-1.9,1c-1.4,0.7-2.9,1.3-4.4,2.1c-0.6,0.4-1.2,0.8-1.7,1.3c-1.6,1.6-2,3.6-1.9,6.2c0.2,6.7,0.3,13.4,0.5,20.1c0.1,0.5,0,1-0.3,1.4
	c-0.1,0.1-0.3,0.3-0.5,0.3c-1.2,0.1-2.4,0.1-3.6,0.1c2.5-3.9,2-8.8,1.5-13.4c-0.5-3.5-0.5-7.1-0.1-10.6c0.5-3.6,2.3-6.8,5.2-9.1
	c2.5-1.9,5.9-2.6,8.1-4.9c1.2-1.5,2.2-3.1,2.8-4.9c0.5-1.2,1.2-4.5,2.8-4.8c0.1,0,0.1,0.1,0.1,0.2
	C136.2,138.1,136.2,138.2,136.2,138.3z"/>
<g>
	<path class="st9" d="M74.1,100.9c3.4,0,6.1,0.9,8.1,2.8c1.9,1.9,2.9,4.6,2.9,8c0,1.6-0.4,3.2-1.2,4.6c-0.8,1.4-2,2.9-3.6,4.6
		c-1,1-1.8,1.8-2.4,2.4c-0.6,0.7-1,1.3-1.3,1.8c-0.3,0.5-0.5,1.1-0.6,1.6c-0.1,0.5-0.1,1.1-0.1,1.7c0,2.2-0.9,3.3-2.8,3.3
		c-0.7,0-1.3-0.1-1.7-0.2c-0.4-0.1-0.7-0.3-0.9-0.5c-0.2-0.3-0.4-0.6-0.4-1c-0.1-0.4-0.1-0.9-0.1-1.6c0-3.5,1.8-7,5.3-10.5
		c0.8-0.8,1.5-1.4,2-2c0.5-0.5,0.9-1,1.2-1.5c0.3-0.5,0.5-0.9,0.6-1.4c0.1-0.5,0.1-1,0.1-1.7c0-1.5-0.5-2.7-1.4-3.5
		c-0.9-0.8-2.2-1.2-3.8-1.2s-3,0.5-3.9,1.4c-1,0.9-1.5,2.1-1.6,3.4c-0.1,2-1.1,3-3,3c-2,0-3-1-3-2.9c0-2.8,1.1-5.3,3.3-7.5
		C67.9,102,70.7,100.9,74.1,100.9z M73.2,135.2c0.6,0,1.2,0.1,1.7,0.4c0.5,0.2,1,0.6,1.4,1c0.4,0.4,0.7,0.9,1,1.4
		c0.2,0.5,0.4,1.1,0.4,1.7c0,0.6-0.1,1.2-0.4,1.7c-0.2,0.5-0.6,1-1,1.4c-0.4,0.4-0.9,0.7-1.4,1c-0.5,0.2-1.1,0.4-1.7,0.4
		c-0.6,0-1.2-0.1-1.7-0.4c-0.5-0.2-1-0.6-1.4-1c-0.4-0.4-0.7-0.9-1-1.4c-0.2-0.5-0.4-1.1-0.4-1.7c0-0.6,0.1-1.2,0.4-1.7
		c0.2-0.5,0.6-1,1-1.4c0.4-0.4,0.9-0.7,1.4-1C72,135.3,72.6,135.2,73.2,135.2z"/>
</g>
</svg>
