<svg viewBox="0 0 24 24" fill="none" xmlns="http://www.w3.org/2000/svg">
<path fill-rule="evenodd" clip-rule="evenodd" d="M1.1 8.1C3.3 9 5.9 8.9 8 7.7C8.2 7.6 8.5 7.6 8.7 7.7C10.8 8.8 13.2 8.8 15.3 7.7C15.5 7.6 15.8 7.6 16 7.7C18.1 8.8 20.6 9 22.8 8L23.4 7.7L20.8 3.6C20.5 2.9 19.9 2.5 19.2 2.5H4.7C4 2.6 3.3 3.1 3.1 3.7L0.5 7.8L1.1 8.1Z" fill="currentColor"/>
<path d="M15.5 9.19995H15.7C17.3 10.1 19.2 10.3 21 10.2V19.4C21 20.5 20.1 21.4 19 21.4H5C3.9 21.4 3 20.5 3 19.4V10.1C4.8 10.3 6.7 10.1 8.3 9.29995C8.4 9.29995 8.41836 9.24375 8.5 9.23556C8.53886 9.23166 8.6 9.23556 8.6 9.23556L8.7 9.29995C10.8 10.2 13.2 10.2 15.3 9.29995C15.3 9.29995 15.4 9.19995 15.5 9.19995Z" fill="currentColor"/>
<path d="M7.5 18.3999C5.9 18.3999 5 17.7999 5 15.3999C5 12.9999 5.9 12.3999 7.5 12.3999C9.1 12.3999 10 12.9999 10 15.3999C10 17.7999 9.2 18.3999 7.5 18.3999ZM7.5 17.2999C8.5 17.2999 8.8 16.7999 8.8 15.3999C8.8 13.9999 8.6 13.3999 7.5 13.3999C6.5 13.3999 6.3 13.8999 6.3 15.3999C6.3 16.7999 6.5 17.2999 7.5 17.2999Z" fill="white"/>
<path d="M13.9 12.5C14.2 12.5 14.5 12.8 14.5 13.1C14.5 13.4 14.2 13.7 13.9 13.7H13V17.8C13 18.1 12.7 18.4 12.4 18.4C12.1 18.4 11.8 18.1 11.8 17.8V13.7H10.9C10.6 13.7 10.3 13.4 10.3 13.1C10.3 12.8 10.6 12.5 10.9 12.5H13.9Z" fill="white"/>
<path d="M17.6 18.3999C16 18.3999 15 17.7999 15 15.3999C15 13.0999 16 12.3999 17.7 12.3999C18.1 12.3999 18.4 12.3999 18.7 12.4999C18.9 12.4999 19 12.6999 19 12.9999C19 13.3999 18.6 13.5999 18.3 13.5999C18.1 13.5999 18 13.5999 17.8 13.5999C16.8 13.5999 16.4 14.0999 16.4 15.4999C16.4 16.9999 16.8 17.3999 17.8 17.3999C18 17.3999 18.2 17.3999 18.4 17.3999C18.8 17.2999 19.1 17.5999 19.1 17.9999C19.1 18.1999 18.8039 18.3999 18.8039 18.3999C18.8039 18.3999 18 18.3999 17.6 18.3999Z" fill="white"/>
</svg>
