<svg viewBox="0 0 24 24" fill="none" xmlns="http://www.w3.org/2000/svg">
    <path
        d="M7.60498 17.395C6.0235 17.395 5.12654 16.7844 5.12654 14.4492C5.12654 12.114 6.0235 11.5034 7.60498 11.5034C9.21006 11.5034 10.0834 12.114 10.0834 14.4492C10.0834 16.7844 9.21006 17.395 7.60498 17.395ZM7.60498 16.347C8.61209 16.347 8.83239 15.8602 8.83239 14.4492C8.83239 13.0547 8.61209 12.5266 7.60498 12.5266C6.60573 12.5266 6.38543 13.0547 6.38543 14.4492C6.38543 15.8602 6.60573 16.347 7.60498 16.347Z"
        fill="currentColor" />
    <path
        d="M13.9088 11.5859C14.2119 11.5859 14.4576 11.8316 14.4576 12.1347V12.1347C14.4576 12.4377 14.2119 12.6834 13.9088 12.6834H13.0256V16.7184C13.0256 17.0465 12.7596 17.3125 12.4315 17.3125V17.3125C12.1035 17.3125 11.8375 17.0465 11.8375 16.7184V12.6834H10.9542C10.6512 12.6834 10.4055 12.4377 10.4055 12.1347V12.1347C10.4055 11.8316 10.6512 11.5859 10.9542 11.5859H13.9088Z"
        fill="currentColor" />
    <path
        d="M17.5438 17.395C15.9466 17.395 14.9001 16.8504 14.9001 14.4492C14.9001 12.2378 15.9308 11.5034 17.5359 11.5034C17.8884 11.5034 18.1997 11.5348 18.47 11.5948C18.678 11.641 18.8105 11.8349 18.8105 12.048V12.048C18.8105 12.4006 18.4556 12.6499 18.1057 12.6059C17.9514 12.5865 17.7879 12.5761 17.6146 12.5761C16.6311 12.5761 16.1984 13.0382 16.1984 14.4409C16.1984 15.9262 16.6311 16.3058 17.5989 16.3058C17.7921 16.3058 17.9781 16.2935 18.1605 16.267C18.5137 16.2157 18.8735 16.4639 18.8735 16.8208V16.8208C18.8735 17.0241 18.7535 17.2113 18.5574 17.2654C18.2699 17.3449 17.9188 17.395 17.5438 17.395Z"
        fill="currentColor" />
    <path
        d="M3.86925 3.14992C4.05026 2.8499 4.3751 2.6665 4.72549 2.6665H19.2745C19.6248 2.6665 19.9497 2.8499 20.1307 3.14991L22.7854 7.55006C22.794 7.56427 22.789 7.58276 22.7744 7.59071V7.59071C20.5469 8.80572 17.842 8.79881 15.6145 7.5838V7.5838C15.6057 7.57903 15.5951 7.57901 15.5864 7.58377V7.58377C13.3509 8.80311 10.6491 8.80311 8.41362 7.58377V7.58377C8.40489 7.57901 8.39428 7.57903 8.38555 7.5838V7.5838C6.15802 8.79881 3.45309 8.80572 1.22556 7.59071V7.59071C1.21099 7.58276 1.20598 7.56427 1.21456 7.55006L3.86925 3.14992Z"
        stroke="currentColor" stroke-width="1.1" stroke-linejoin="round" />
    <path
        d="M3.16269 9.04883L3.16276 18.8319C3.16277 19.9365 4.0582 20.8319 5.16276 20.8319H18.8373C19.9419 20.8319 20.8373 19.9365 20.8373 18.8319V9.04883"
        stroke="currentColor" stroke-width="1.1" stroke-linecap="round" stroke-linejoin="round" />
</svg>