<svg viewBox="0 0 159 45" fill="none" xmlns="http://www.w3.org/2000/svg">
  <path
    d="M60.48 11.152V14.128H68.128V34H71.584V14.128H79.2V11.152H60.48ZM89.3188 17.008C88.2948 17.008 87.3988 17.296 86.6308 17.936C85.9908 18.384 85.4468 19.056 85.0308 19.952V17.456H81.6388V34H85.0308V25.232C85.0308 23.792 85.4468 22.608 86.3108 21.712C87.1108 20.88 88.0388 20.464 89.0628 20.464C89.8308 20.464 90.6308 20.56 91.4628 20.816V17.424C90.8868 17.136 90.1508 17.008 89.3188 17.008ZM101.001 17.008C98.953 17.008 97.289 17.36 96.073 18.128C94.665 18.96 93.769 20.304 93.417 22.096L96.777 22.384C96.969 21.456 97.449 20.784 98.217 20.336C98.857 19.952 99.721 19.76 100.777 19.76C103.273 19.76 104.521 20.912 104.521 23.216V23.888L100.809 23.984C98.377 24.048 96.457 24.528 95.113 25.488C93.641 26.48 92.905 27.92 92.905 29.776C92.905 31.152 93.417 32.272 94.473 33.136C95.433 34 96.777 34.448 98.505 34.448C99.977 34.448 101.257 34.16 102.345 33.648C103.305 33.168 104.105 32.496 104.745 31.664V34H107.881V23.44C107.881 21.424 107.369 19.888 106.377 18.832C105.225 17.616 103.433 17.008 101.001 17.008ZM104.521 26.352V27.312C104.521 28.592 103.977 29.68 102.953 30.544C101.929 31.408 100.713 31.856 99.273 31.856C98.409 31.856 97.705 31.632 97.193 31.216C96.649 30.8 96.393 30.288 96.393 29.648C96.393 27.6 97.929 26.512 101.033 26.448L104.521 26.352ZM123.668 10.704V19.92C122.324 17.968 120.628 17.008 118.612 17.008C116.244 17.008 114.356 17.872 113.012 19.6C111.732 21.2 111.124 23.216 111.124 25.648C111.124 28.176 111.764 30.256 113.044 31.856C114.42 33.584 116.34 34.448 118.772 34.448C121.012 34.448 122.74 33.616 123.892 32.016V34H127.06V10.704H123.668ZM119.38 19.76C120.628 19.76 121.652 20.24 122.484 21.264C123.316 22.352 123.764 23.792 123.764 25.584V25.872C123.764 27.536 123.412 28.88 122.708 29.936C121.876 31.088 120.756 31.696 119.284 31.696C117.62 31.696 116.372 31.088 115.604 29.904C114.932 28.88 114.612 27.472 114.612 25.648C114.612 23.824 114.964 22.416 115.668 21.456C116.468 20.304 117.716 19.76 119.38 19.76ZM137.897 17.008C135.465 17.008 133.513 17.84 132.105 19.536C130.633 21.2 129.929 23.248 129.929 25.712C129.929 28.432 130.697 30.576 132.233 32.176C133.641 33.68 135.593 34.448 138.025 34.448C140.233 34.448 142.057 33.808 143.497 32.56C144.649 31.536 145.385 30.224 145.769 28.688H142.377C141.929 29.648 141.449 30.384 140.873 30.832C140.137 31.376 139.177 31.664 137.993 31.664C136.649 31.664 135.593 31.216 134.825 30.384C134.057 29.52 133.641 28.272 133.513 26.672H146.057C146.025 23.728 145.353 21.424 144.073 19.76C142.665 17.904 140.585 17.008 137.897 17.008ZM137.993 19.792C140.681 19.792 142.185 21.232 142.505 24.112H133.577C133.769 22.704 134.249 21.648 134.953 20.912C135.721 20.144 136.713 19.792 137.993 19.792ZM156.631 17.008C155.607 17.008 154.711 17.296 153.943 17.936C153.303 18.384 152.759 19.056 152.343 19.952V17.456H148.951V34H152.343V25.232C152.343 23.792 152.759 22.608 153.623 21.712C154.423 20.88 155.351 20.464 156.375 20.464C157.143 20.464 157.943 20.56 158.775 20.816V17.424C158.199 17.136 157.463 17.008 156.631 17.008Z"
    fill="black" />
  <g clip-path="url(#clip0_416_1173)">
    <path
      d="M45.0258 11H42.7048V13.7417H45.0258C48.4298 13.7417 51.3696 16.4834 51.3696 19.9868V25.0132C51.3696 28.5166 48.5845 31.2583 45.0258 31.2583H40.0745V28.6689H44.4068C46.7278 28.6689 48.5845 26.8411 48.5845 24.7086V20.4437C48.5845 18.1589 46.7278 16.4834 44.4068 16.4834H42.7048V19.2252H44.4068C45.1805 19.2252 45.9541 19.8344 45.9541 20.596V24.7086C45.9541 25.4702 45.3352 26.0795 44.4068 26.0795H37.2894V28.8212V34.1523H38.5272H39.9197H44.871C49.8223 34.1523 53.8452 30.1921 53.8452 25.1656V19.9868C54 14.9603 49.9771 11 45.0258 11Z"
      fill="#FF6B00" />
    <path d="M14.3897 11H0V13.7417H12.9971L26.149 31.4106L29.0888 27.6026V23.0331L26.149 26.8411L14.3897 11Z"
      fill="#FF6B00" />
    <path d="M17.7937 34H20.5788V28.3642L17.7937 24.7086V34Z" fill="#FF6B00" />
    <path d="M40.0745 11H37.2894V23.3377H40.0745V11Z" fill="#FF6B00" />
    <path
      d="M34.5043 11H31.7192H31.4097L26.149 18.0066L20.8883 11H17.7937L26.149 22.2715L31.7192 14.8079V34H34.5043V11.1523L34.659 11H34.5043Z"
      fill="#FF6B00" />
    <path d="M12.3782 31.2583H9.59312V16.3311H0V19.0728H6.96275V34H15.1633V21.053L12.3782 17.3973V31.2583Z"
      fill="#FF6B00" />
  </g>
  <defs>
    <clipPath id="clip0_416_1173">
      <rect width="54" height="23" fill="white" transform="translate(0 11)" />
    </clipPath>
  </defs>
</svg>
