<svg width="18px" height="18px" viewBox="0 0 18 18" version="1.1" xmlns="http://www.w3.org/2000/svg" xmlns:xlink="http://www.w3.org/1999/xlink">
    <g stroke="none" stroke-width="1" fill="none" fill-rule="evenodd">
        <g transform="translate(-38.000000, -507.000000)">
            <g transform="translate(38.000000, 507.000000)">
                <g>
                    <rect  x="0" y="0" width="18" height="18"></rect>
                    <g transform="translate(0.000000, 1.000000)" fill="#000000" fill-rule="nonzero">
                        <path d="M8.951,15.9974444 L9.00000001,16 L8.95480689,15.9982137 L8.951,15.9974444 Z M9.00000001,10.4444444 C9.31091311,10.4444444 9.56250001,10.6931966 9.56250001,11 L9.562,14.1034444 L10.621582,13.0572917 C10.8413086,12.8402778 11.1972656,12.8402778 11.4169922,13.0572917 C11.6367145,13.2743056 11.6367145,13.6258681 11.4169922,13.8428819 L9.39784243,15.8372735 C9.33560264,15.8987656 9.25882422,15.9459113 9.1730059,15.9732564 C9.15608284,15.9785499 9.1393938,15.9830173 9.12256645,15.9867134 L9.09032208,15.992885 L9.04521449,15.9982175 L9.00000001,16 L8.929,15.9944444 L8.931,15.9954444 L8.925,15.9944444 L8.92,15.9934444 L8.912,15.9924444 L8.87688235,15.986668 C8.86060622,15.9830172 8.84391718,15.9785499 8.82742418,15.9733114 C8.7411758,15.9459113 8.66439739,15.8987656 8.6021576,15.8372735 L6.58300777,13.8428819 C6.36327744,13.625868 6.36327744,13.2743055 6.58300777,13.0572916 C6.80273434,12.8402777 7.15869137,12.8402777 7.37841793,13.0572916 L8.437,14.1024444 L8.43750001,11 C8.43750001,10.6931966 8.68908691,10.4444444 9.00000001,10.4444444 Z M15.364,15.9964444 L15.4182129,16 L15.3735506,15.9982555 L15.364,15.9964444 Z M2.58178716,10.4444444 C2.89270026,10.4444444 3.14428716,10.6931966 3.14428716,11 L3.144,14.1024444 L4.20336913,13.0572916 C4.4230957,12.8402777 4.77905273,12.8402777 4.99877929,13.0572916 C5.21850585,13.2743055 5.21850585,13.625868 4.99877929,13.8428819 L2.97962955,15.8372735 C2.91738976,15.8987656 2.84061135,15.9459113 2.75479303,15.9732564 C2.7439149,15.9766299 2.73338817,15.979639 2.72279745,15.9823385 C2.70575482,15.9867699 2.68810872,15.9903972 2.67017987,15.9931888 C2.64138733,15.997674 2.61158724,16 2.58178716,16 L2.53659403,15.9982137 L2.53659403,15.9982137 L2.515,15.995 L2.49893814,15.994024 C2.4178335,15.9822137 2.34239014,15.9533246 2.27646092,15.9111785 L2.24221725,15.8873647 L2.24221725,15.8873647 C2.21906105,15.8701151 2.19739887,15.8511296 2.17732274,15.8306209 L0.164794922,13.8428819 C-0.0549316405,13.625868 -0.0549316405,13.2743055 0.164794922,13.0572916 C0.384521484,12.8402777 0.740478514,12.8402777 0.960205077,13.0572916 L2.019,14.1034444 L2.01928716,11 C2.01928716,10.6931966 2.27087406,10.4444444 2.58178716,10.4444444 Z M2.49163586,15.9928548 L2.515,15.995 L2.58178716,16 L2.49163586,15.9928548 L2.49163586,15.9928548 Z M15.4182129,10.4444444 C15.729126,10.4444444 15.9807129,10.6931966 15.9807129,11 L15.98,14.1034444 L17.0397949,13.0572916 C17.2595215,12.8402777 17.6154785,12.8402777 17.8352051,13.0572916 C18.0549316,13.2743055 18.0549316,13.625868 17.8352051,13.8428819 L15.8226773,15.8306209 L15.7879582,15.8632067 L15.781,15.8674444 L15.8159179,15.8372396 L15.757,15.8864444 L15.7230374,15.9114346 C15.6596392,15.9520274 15.5868019,15.9804227 15.508535,15.992885 C15.4785226,15.9976183 15.4483678,16 15.4182129,16 L15.332,15.9924444 L15.2769239,15.9823486 C15.2666119,15.9796389 15.2560851,15.9766299 15.2456371,15.9733114 C15.1593887,15.9459113 15.0826103,15.8987656 15.0203705,15.8372735 L13.0012207,13.8428819 C12.7814941,13.625868 12.7814941,13.2743055 13.0012207,13.0572916 C13.2209472,12.8402777 13.5769043,12.8402777 13.7966308,13.0572916 L14.855,14.1024444 L14.8557129,11 C14.8557129,10.6931966 15.1072998,10.4444444 15.4182129,10.4444444 Z M8.931,15.9954444 L8.951,15.9974444 L8.9374361,15.996607 L8.931,15.9954444 Z M15.334,15.9934444 L15.364,15.9964444 L15.3461931,15.995495 L15.334,15.9934444 Z M8.923,15.9934444 L8.925,15.9944444 L8.929,15.9944444 L8.923,15.9934444 Z M8.912,15.9924444 L8.916,15.9934444 L8.90984871,15.9928548 L8.912,15.9924444 Z M15.332,15.9924444 L15.334,15.9934444 L15.329115,15.9930219 L15.332,15.9924444 Z M15.781,15.8674444 L15.771005,15.8771374 L15.761,15.8834444 L15.781,15.8674444 Z M18,0 L18,8 L3.55271368e-15,8 L3.55271368e-15,0 L18,0 Z M16,4 L2,4 L2,6 L16,6 L16,4 Z M16,2 L14,2 L14,3 L16,3 L16,2 Z" id="Combined-Shape"></path>
                    </g>
                </g>
            </g>
        </g>
    </g>
</svg>
