<svg version="1.1" id="图层_1" xmlns="http://www.w3.org/2000/svg" xmlns:xlink="http://www.w3.org/1999/xlink" x="0px" y="0px"
   viewBox="0 0 16 16" style="enable-background:new 0 0 16 16;" xml:space="preserve">

<circle fill="currentColor" cx="8" cy="8" r="8"/>
<path fill="inherit" class="st0" d="M10.8,7.8c0.3-0.4,0.4-0.8,0.4-1.3c0,0,0,0,0,0c0-1.1-0.8-2-1.9-2.1H9V2.8c0-0.1-0.1-0.2-0.2-0.2H8.3
  c-0.1,0-0.2,0.1-0.2,0.2v1.6H7.2V2.8c0,0,0,0,0,0c0-0.1-0.1-0.2-0.2-0.1H6.5c-0.1,0-0.2,0.1-0.2,0.2v1.6H4.5c-0.1,0-0.2,0.1-0.2,0.2
  v0.5c0,0.1,0.1,0.2,0.2,0.2c0.6,0,1,0.4,1,1v3.4c0,0,0,0,0,0c0,0.4-0.3,0.8-0.8,0.8c-0.1,0-0.1,0.1-0.2,0.1l-0.1,0.6c0,0,0,0,0,0
  c0,0.1,0.1,0.2,0.2,0.2h1.8v1.6c0,0,0,0,0,0c0,0.1,0.1,0.2,0.2,0.2h0.6c0,0,0,0,0,0c0.1,0,0.2-0.1,0.1-0.2v-1.6h0.9v1.6c0,0,0,0,0,0
  c0,0.1,0.1,0.2,0.2,0.1h0.6c0.1,0,0.2-0.1,0.2-0.2v-1.6h0.8c1.1,0,1.9-1,1.9-2.1C11.7,8.8,11.4,8.2,10.8,7.8z M7.2,5.8h1.4
  c0.5,0,0.9,0.4,0.9,0.9c0,0.5-0.4,0.9-0.9,0.9H7.2V5.8z M9,10.3H7.2V8.4H9c0.5,0,0.9,0.4,0.9,0.9S9.5,10.3,9,10.3z"/>
</svg>
