<?xml version="1.0" encoding="utf-8"?>
<!-- Generator: Adobe Illustrator 24.1.0, SVG Export Plug-In . SVG Version: 6.00 Build 0)  -->
<svg version="1.1" id="图层_1" xmlns="http://www.w3.org/2000/svg" xmlns:xlink="http://www.w3.org/1999/xlink" x="0px" y="0px"
	 viewBox="0 0 71.9 72.2" style="enable-background:new 0 0 71.9 72.2;" xml:space="preserve">
<style type="text/css">
	.st0{clip-path:url(#SVGID_2_);fill:none;stroke:#285A83;stroke-width:2;stroke-miterlimit:10;}
	
		.st1{clip-path:url(#SVGID_2_);fill:none;stroke:#EF6F53;stroke-width:2;stroke-linecap:round;stroke-linejoin:round;stroke-miterlimit:10;}
	.st2{clip-path:url(#SVGID_4_);fill:none;stroke:#285A83;stroke-width:2;stroke-miterlimit:10;}
	
		.st3{clip-path:url(#SVGID_4_);fill:none;stroke:#EF6F53;stroke-width:2;stroke-linecap:round;stroke-linejoin:round;stroke-miterlimit:10;}
	.st4{fill:#285A83;}
	.st5{fill:#EF6F53;}
</style>
<g>
	<defs>
		<rect id="SVGID_1_" x="-931.6" y="-750.8" width="1920" height="1578"/>
	</defs>
	<clipPath id="SVGID_2_">
		<use xlink:href="#SVGID_1_"  style="overflow:visible;"/>
	</clipPath>
</g>
<g>
	<defs>
		<rect id="SVGID_3_" x="-933.5" y="-739.7" width="1920" height="1578"/>
	</defs>
	<clipPath id="SVGID_4_">
		<use xlink:href="#SVGID_3_"  style="overflow:visible;"/>
	</clipPath>
</g>
<g>
	<g>
		<path class="st4" d="M26.7,46.8h-1.1c-1.9,0-3.5-1.6-3.5-3.5v-0.1c0-1.9,1.6-3.5,3.5-3.5h1.1c1.9,0,3.5,1.6,3.5,3.5v0.1
			C30.2,45.3,28.6,46.8,26.7,46.8z M25.6,41.7c-0.8,0-1.5,0.7-1.5,1.5v0.1c0,0.8,0.7,1.5,1.5,1.5h1.1c0.8,0,1.5-0.7,1.5-1.5v-0.1
			c0-0.8-0.7-1.5-1.5-1.5H25.6z"/>
	</g>
	<g>
		<path class="st4" d="M50.2,51.3H21.7c-1.9,0-3.5-1.6-3.5-3.5V24.1c0-1.9,1.6-3.5,3.5-3.5h28.5c1.9,0,3.5,1.6,3.5,3.5v23.7
			C53.6,49.8,52.1,51.3,50.2,51.3z M21.7,22.7c-0.8,0-1.5,0.7-1.5,1.5v23.7c0,0.8,0.7,1.5,1.5,1.5h28.5c0.8,0,1.5-0.7,1.5-1.5V24.1
			c0-0.8-0.7-1.5-1.5-1.5H21.7z"/>
	</g>
	<g>
		<path class="st5" d="M48.7,29.1H23.2c-0.6,0-1-0.4-1-1s0.4-1,1-1h25.5c0.6,0,1,0.4,1,1S49.2,29.1,48.7,29.1z"/>
	</g>
	<g>
		<path class="st5" d="M48.7,33.9H23.2c-0.6,0-1-0.4-1-1s0.4-1,1-1h25.5c0.6,0,1,0.4,1,1S49.2,33.9,48.7,33.9z"/>
	</g>
</g>
<g>
	<path class="st4" d="M35.9,72c-19.9,0-36-16.1-36-36s16.1-36,36-36s36,16.1,36,36S55.8,72,35.9,72z M35.9,2c-18.7,0-34,15.3-34,34
		s15.3,34,34,34s34-15.3,34-34S54.7,2,35.9,2z"/>
</g>
</svg>
