<?xml version="1.0" encoding="utf-8"?>
<!-- Generator: Adobe Illustrator 24.1.0, SVG Export Plug-In . SVG Version: 6.00 Build 0)  -->
<svg version="1.1" id="图层_1" xmlns="http://www.w3.org/2000/svg" xmlns:xlink="http://www.w3.org/1999/xlink" x="0px" y="0px"
	 viewBox="0 0 16 16" style="enable-background:new 0 0 16 16;" xml:space="preserve">
<style type="text/css">
	.st1{fill:#EF6F53;}
</style>
<path fill="currentColor" d="M16,10.1c0-0.1-0.1-0.3-0.3-0.3c-0.1,0-0.3,0.1-0.3,0.3c0,0.1-0.1,0.1-0.1,0.1h0c-0.3,0-0.5-0.2-0.5-0.5V8.4
	c0-0.5-0.4-0.9-0.9-0.9h-0.4c-0.1-0.3-0.3-0.7-0.5-1c-0.1-0.1-0.2-0.1-0.3,0c-0.4,0.4-1.7,1.2-3.6,0.7C7.8,6.8,7.2,5.4,7,4.8
	C7,4.6,6.8,4.5,6.7,4.6c-0.4,0.1-1.2,0.3-2,0.9c-0.2,0.2-0.6,0.2-0.8,0C3.8,5.3,3.7,5.2,3.6,5.1C3.5,4.9,3.1,4.9,3,5.2
	C2.8,5.6,2.4,6.5,2,8.2c0,0-0.5,1.3-1.1,1.1C0.3,9.1,0,9.1,0,9.4c0,0.3,0.3,2,0.3,2l0.2,0c0.3,0,0.6,0.1,0.8,0.3
	c0.5,0.4,1.4,1.1,2.5,1.4c0.3,0.1,0.5,0.3,0.5,0.5l0.4,1.2c0,0.1,0.2,0.2,0.3,0.2h0.4c0.1,0,0.3-0.1,0.3-0.2l0.4-1.3
	c0.1-0.2,0.2-0.3,0.4-0.2c0.5,0.1,1.4,0.3,2.6,0c0.2,0,0.4,0.1,0.4,0.2l0.5,1.4c0,0.1,0.2,0.2,0.3,0.2h0.3c0.1,0,0.2-0.1,0.3-0.2
	l0.7-1.4c0.1-0.3,0.4-0.5,0.7-0.7c0.4-0.2,1.1-0.8,1.4-1.9c0.2-1,0.2-1.9,0-2.7h0.2c0.2,0,0.3,0.2,0.3,0.3v1.3c0,0.6,0.5,1,1,1h0
	C15.7,10.7,16,10.5,16,10.1C16,10.1,16,10.1,16,10.1z M3.8,9.2c-0.4,0-0.6-0.3-0.6-0.6s0.3-0.6,0.6-0.6s0.6,0.3,0.6,0.6
	S4.1,9.2,3.8,9.2z"/>
<path class="st1" d="M10.4,1.4C8.9,1.4,7.7,2.5,7.7,4c0,1.5,1.2,2.6,2.6,2.6S13,5.5,13,4C13,2.5,11.9,1.4,10.4,1.4z M10.6,5.5v0.6
	h-0.4V5.5c-0.4,0-0.8-0.2-1-0.4l0.3-0.4c0.3,0.2,0.6,0.3,1,0.3C10.8,5,11,4.9,11,4.7c0-0.6-1.6-0.5-1.6-1.4c0-0.5,0.3-0.8,0.9-0.8
	V1.9h0.4v0.5c0.4,0,0.6,0.2,0.9,0.4l-0.3,0.4c-0.2-0.2-0.4-0.3-0.8-0.3c-0.3,0-0.5,0.1-0.5,0.3c0,0.5,1.6,0.4,1.6,1.4
	C11.6,5.1,11.2,5.4,10.6,5.5z"/>
</svg>
