<?xml version="1.0" encoding="utf-8"?>
<!-- Generator: Adobe Illustrator 24.1.0, SVG Export Plug-In . SVG Version: 6.00 Build 0)  -->
<svg version="1.1" id="图层_1" xmlns="http://www.w3.org/2000/svg" xmlns:xlink="http://www.w3.org/1999/xlink" x="0px" y="0px"
	 viewBox="0 0 71.9 72.2" style="enable-background:new 0 0 71.9 72.2;" xml:space="preserve">
<style type="text/css">
	.st0{clip-path:url(#SVGID_2_);fill:none;stroke:#285A83;stroke-width:2;stroke-miterlimit:10;}
	
		.st1{clip-path:url(#SVGID_2_);fill:none;stroke:#EF6F53;stroke-width:2;stroke-linecap:round;stroke-linejoin:round;stroke-miterlimit:10;}
	.st2{clip-path:url(#SVGID_4_);fill:none;stroke:#285A83;stroke-width:2;stroke-miterlimit:10;}
	
		.st3{clip-path:url(#SVGID_4_);fill:none;stroke:#EF6F53;stroke-width:2;stroke-linecap:round;stroke-linejoin:round;stroke-miterlimit:10;}
	.st4{fill:#285A83;}
	.st5{fill:#EF6F53;}
</style>
<g>
	<defs>
		<rect id="SVGID_1_" x="-931.6" y="-750.8" width="1920" height="1578"/>
	</defs>
	<clipPath id="SVGID_2_">
		<use xlink:href="#SVGID_1_"  style="overflow:visible;"/>
	</clipPath>
</g>
<g>
	<defs>
		<rect id="SVGID_3_" x="-933.5" y="-739.7" width="1920" height="1578"/>
	</defs>
	<clipPath id="SVGID_4_">
		<use xlink:href="#SVGID_3_"  style="overflow:visible;"/>
	</clipPath>
</g>
<g>
	<path class="st4" d="M35.9,72c-19.9,0-36-16.1-36-36s16.1-36,36-36s36,16.1,36,36S55.8,72,35.9,72z M35.9,2c-18.7,0-34,15.3-34,34
		s15.3,34,34,34s34-15.3,34-34S54.7,2,35.9,2z"/>
</g>
<g>
	<g>
		<path class="st4" d="M25,53.8h-1.9c-1.9,0-3.5-1.6-3.5-3.5v-6.6c0-1.9,1.6-3.5,3.5-3.5H25c1.9,0,3.5,1.6,3.5,3.5v6.6
			C28.4,52.3,26.9,53.8,25,53.8z M23.1,42.4c-0.8,0-1.5,0.7-1.5,1.5v6.6c0,0.8,0.7,1.5,1.5,1.5H25c0.8,0,1.5-0.7,1.5-1.5v-6.6
			c0-0.8-0.7-1.5-1.5-1.5H23.1z"/>
	</g>
	<g>
		<path class="st4" d="M35.9,53.8H34c-1.9,0-3.5-1.6-3.5-3.5V37.9c0-1.9,1.6-3.5,3.5-3.5h1.9c1.9,0,3.5,1.6,3.5,3.5v12.5
			C39.3,52.3,37.8,53.8,35.9,53.8z M34,36.4c-0.8,0-1.5,0.7-1.5,1.5v12.5c0,0.8,0.7,1.5,1.5,1.5h1.9c0.8,0,1.5-0.7,1.5-1.5V37.9
			c0-0.8-0.7-1.5-1.5-1.5H34z"/>
	</g>
	<g>
		<path class="st4" d="M46.8,53.8h-1.9c-1.9,0-3.5-1.6-3.5-3.5V31.2c0-1.9,1.6-3.5,3.5-3.5h1.9c1.9,0,3.5,1.6,3.5,3.5v19.2
			C50.2,52.3,48.7,53.8,46.8,53.8z M44.9,29.7c-0.8,0-1.5,0.7-1.5,1.5v19.2c0,0.8,0.7,1.5,1.5,1.5h1.9c0.8,0,1.5-0.7,1.5-1.5V31.2
			c0-0.8-0.7-1.5-1.5-1.5H44.9z"/>
	</g>
	<g>
		<path class="st5" d="M20.9,34.6c-0.4,0-0.7-0.2-0.9-0.5c-0.3-0.5-0.1-1.1,0.4-1.4L48,18.1c0.3-0.2,0.8-0.1,1.1,0.1
			c0.3,0.2,0.5,0.6,0.4,1l-1.2,5.6c-0.1,0.5-0.6,0.9-1.2,0.8c-0.5-0.1-0.9-0.6-0.8-1.2l0.8-3.5L21.3,34.5
			C21.2,34.5,21,34.6,20.9,34.6z"/>
	</g>
	<g>
		<path class="st5" d="M48.5,20c-0.1,0-0.2,0-0.3-0.1l-5.3-1.9c-0.5-0.2-0.8-0.8-0.6-1.3c0.2-0.5,0.8-0.8,1.3-0.6l5.3,1.9
			c0.5,0.2,0.8,0.8,0.6,1.3C49.3,19.8,48.9,20,48.5,20z"/>
	</g>
</g>
</svg>
